<?xml version="1.0" encoding="utf-8" ?>
<svg baseProfile="full" height="300mm" version="1.1" viewBox="0,0,200,300" width="200mm" xmlns="http://www.w3.org/2000/svg" xmlns:ev="http://www.w3.org/2001/xml-events" xmlns:xlink="http://www.w3.org/1999/xlink"><defs /><rect fill="#222222" height="300" width="200" x="0" y="0" /><text fill="#FFFFFF" style="font-size:12px; font-family:Arial; font-weight:bold;" x="10" y="20">Over 5km Runs</text><text fill="#FFFFFF" style="font-size:4px; font-family:Arial" x="10" y="280">Runner</text><text fill="#FFFFFF" style="font-size:9px; font-family:Arial" x="10" y="290">Elliont</text><text fill="#FFFFFF" style="font-size:4px; font-family:Arial" x="65" y="280">SPECIAL TRACKS</text><rect fill="yellow" height="2.6" width="2.6" x="65" y="283" /><text fill="#FFFFFF" style="font-size:3px; font-family:Arial" x="70" y="285.5">Over 20.0 km</text><rect fill="red" height="2.6" width="2.6" x="65" y="287" /><text fill="#FFFFFF" style="font-size:3px; font-family:Arial" x="70" y="289.5">Over 40.0 km</text><text fill="#FFFFFF" style="font-size:4px; font-family:Arial" x="120" y="280">STATISTICS</text><text fill="#FFFFFF" style="font-size:3px; font-family:Arial" x="120" y="285">Number: 59</text><text fill="#FFFFFF" style="font-size:3px; font-family:Arial" x="120" y="290">Weekly: 2.2</text><text fill="#FFFFFF" style="font-size:3px; font-family:Arial" x="141" y="285">Total: 401.4 km</text><text fill="#FFFFFF" style="font-size:3px; font-family:Arial" x="141" y="290">Avg: 6.8 km</text><text fill="#FFFFFF" style="font-size:3px; font-family:Arial" x="167" y="285">Min: 5.0 km</text><text fill="#FFFFFF" style="font-size:3px; font-family:Arial" x="167" y="290">Max: 11.4 km</text><polyline fill="none" points="34.428571428579744,45.53898521020892 29.759520937426714,44.601190512257745 23.77141133893747,41.93581569608068 14.998621402715798,40.21643450480042 13.728416336380178,40.17530050408823 12.02550404961221,40.31515601512365 11.285714285710128,40.17530050408823 11.474151301052189,40.265795276085555 12.046441495796898,40.3645167219147 13.637687403068412,40.21643450480042 14.984663105278742,40.2493416892612 23.64578666209127,41.95226891554921 24.59495088746189,42.27310597874748 29.766500086145243,44.65054841818346 33.27003274168237,45.35800819260476" stroke="#4DD2FF" stroke-linecap="round" stroke-linejoin="round" stroke-width="0.5"><title>2025-10-17 6.4km</title><desc>1760694739000</desc></polyline><polyline fill="none" points="60.14285714284051,50.823056854824245 58.19551468937425,50.463341598180705 52.484278986317804,47.859639256465016 51.67773043282796,47.61125525270472 42.6531060776033,45.88111042649689 39.274321596778464,45.949631737632444 38.28611796366749,45.512807356186386 37.77748374073417,45.033154259792354 37.17438887641765,43.834008717749384 37.065395828627516,43.14877448276093 40.233460417133756,40.58765865717578 42.2316662928788,38.39479753913474 44.288001794106094,36.56165575955674 46.86750392464455,34.87409960252262 44.38972863872186,36.4588614968452 42.36972415339551,38.23204368968436 40.34245346489479,40.43347510892636 37.087194438208826,43.09738167438627 37.0,43.27725635671959 37.09446064138319,43.66270071885083 37.762951334385434,45.05028477789165 38.83108320250176,45.83828457674099 39.514106301852735,46.035283292570966 42.638573671196355,45.906805925187655 51.75039246468805,47.67977505623276 52.607804440456675,47.95385367336712 57.97752859388129,50.43764758832549 59.830410405935254,50.8401861117527 59.91033864094061,50.703151952089684" stroke="#4DD2FF" stroke-linecap="round" stroke-linejoin="round" stroke-width="0.5"><title>2025-10-12 10.0km</title><desc>1760258276000</desc></polyline><polyline fill="none" points="85.24273072060896,45.72274678230315 80.20606826804578,44.71243898902321 73.54614412138471,41.74402911939251 64.26169405813562,39.96471994510648 62.71428571428987,39.92001318776602 64.44374209860689,40.03625070623093 73.90265486724093,41.90496975577116 77.87737041720538,43.77364626744384 78.18836915298016,43.80940999635641 79.10619469027733,44.34586406095332 80.46396965868189,44.85549217548396 85.19721871049842,45.79427252651658 85.32616940583102,45.72274678230315 85.40960809102398,45.052189899855875 85.85714285715949,45.02536751066509" stroke="#4DD2FF" stroke-linecap="round" stroke-linejoin="round" stroke-width="0.5"><title>2025-10-09 6.0km</title><desc>1760007351000</desc></polyline><polyline fill="none" points="111.57142857147846,46.09081330116169 105.52781065087765,44.90713863061683 97.76787827559747,41.43135741948936 88.42857142857974,39.623472413128184 98.24260355031583,41.66810181589972 102.56077768385876,43.71268890768988 103.04463229078101,43.788014992496755 103.48284023674205,44.15388373031601 104.75181741337292,44.69192353075778 104.88875739648938,44.63811968258233 105.49129332206212,42.55050775037671 106.67810650891624,42.884098185022594 106.9337278106832,42.690400650426454 108.57700760778971,42.92714203004289 109.02434488589643,41.90484564501821" stroke="#4DD2FF" stroke-linecap="round" stroke-linejoin="round" stroke-width="0.5"><title>2025-10-05 5.0km</title><desc>1759662272000</desc></polyline><polyline fill="none" points="137.28571428571013,44.900960912818846 137.10434393194737,45.636362637756974 132.53381101659033,44.712833783836686 131.28598298251745,44.251065283642674 130.19050604570657,43.66102380371012 126.05526197937434,41.86521810326667 117.29870129871415,40.14633703217987 115.66636811464559,40.07792307652562 114.14285714286962,40.21475092824403 116.86341244963114,40.13778529098636 125.58369905955624,41.83956343855971 126.80250783698284,42.215831014364085 131.184415584401,44.302373028884176 132.37420510526863,44.75558998911583 134.3620241827157,45.0976387930059 134.52888490824262,44.78979493655061 134.43457232424407,44.65297505738272 134.50712046577246,44.473398604204704 135.0294670846488,44.46484733430407 135.8637707120506,44.68718004953553" stroke="#4DD2FF" stroke-linecap="round" stroke-linejoin="round" stroke-width="0.5"><title>2025-10-02 6.2km</title><desc>1759399141000</desc></polyline><polyline fill="none" points="162.05048781391815,51.256000815359585 161.78005712802405,52.24060801126325 161.4555403049162,52.24769146226754 161.34736803054693,52.77894808939163 157.8497978261439,52.12727269023162 156.58177838777192,51.71643049605336 152.97603590899962,49.99511515917402 151.94839930257876,49.633845662632666 144.7910004821897,48.24541872510599 143.69124902618933,48.17457982132328 142.02058834434138,48.29500591184478 141.3775642690016,48.1674959266893 140.89679860515753,47.89830735923897 140.50016693249927,47.52285828596359 140.1876692509686,47.00572676826414 139.85714285713038,46.021040316576546 140.7405497643922,45.192191961708886 142.50135400818544,43.80367018915422 144.31023481837474,41.87669288754114 145.90277107982547,40.466846111281484 148.1443409874919,38.9932047418406 148.4027525318088,38.87276142252813 148.9496234743856,38.85150669595896 149.2140445894911,38.70980834122747 150.04937493041507,37.739166307284904 150.59023630223237,36.48510368107236 151.22124123602407,35.9182877758285 154.0697777942405,34.34534774981876 157.33297473751009,32.93533762489096 157.33297473751009,33.40298256395181 157.9519605296955,33.920222289831145 158.82334829540923,35.88994685081707 161.35938717215322,40.73606544517679 162.60937789810123,43.690320164001605 162.93389472117997,44.90173832906294 163.0,45.8793575857344 162.9038468672079,46.95613859844161 162.68149274768075,47.678705334226834" stroke="#4DD2FF" stroke-linecap="round" stroke-linejoin="round" stroke-width="0.5"><title>2025-09-30 10.1km</title><desc>1759229695000</desc></polyline><polyline fill="none" points="188.70045669894898,45.54267363442341 183.81881428995985,44.54836376301682 178.88877032737946,42.25814076941606 177.9138247471128,41.92397425965464 169.48503990782774,40.28572173081193 168.12288189851097,40.24496872314921 166.50488710572245,40.39167944687506 165.57142857142026,40.155312028116896 166.40808399848174,40.44058295754803 169.0217678944755,40.26942053040693 169.8238507831993,40.36722767956235 177.89999573177192,41.948425518254226 178.58453199025826,42.152185696177185 182.24230654313578,43.896350118433475 184.15071065776283,44.67876581027667 188.54833753037383,45.55897368618025 188.71428571428987,45.510073520228616" stroke="#4DD2FF" stroke-linecap="round" stroke-linejoin="round" stroke-width="0.5"><title>2025-09-29 6.6km</title><desc>1759141711000</desc></polyline><polyline fill="none" points="32.74274682844407,79.79763785851537 32.58786541642621,80.53488909002044 32.081522338674404,80.44361082337127 28.72774407058023,79.79061637768609 24.1289575289411,77.68413760402473 22.907777164888103,77.32602936771582 15.783232211775612,75.96379554811574 13.50766685049166,76.07614581822418 12.995366795337759,76.01997070765356 12.197131825669203,75.60567775530217 11.946938775479794,75.34586556235445 11.607391064520925,74.7841058897975 11.285714285710128,73.82910321110103 11.577606177568668,73.49204006404034 14.168891340290429,71.41344504148583 15.60452289020759,69.81934195546637 17.34396028678748,68.28840407870302 19.482515168201644,66.87681904034253 20.28670711524319,66.74338402922149 20.554771097609773,66.59590290598135 21.239823496929603,65.88658421686705 21.918918918905547,64.41876134156337 22.53248758960399,63.82881354114943 26.565361279645003,61.72181301563978 30.038279095402686,60.36627292020421 30.961610590165947,60.1485410236055 33.123993381130276,59.361890620064514 34.42857142855064,58.75082519569696 31.21776061775745,59.9869975280526 29.942967457260238,60.32413132021611 28.751571980130393,60.76661674516072 28.584776613337453,61.14588754772558 28.709873138403054,61.45492136570101 29.07324875894119,61.60943771884922 29.42471042467514,62.234522820108396 30.66376172087621,64.93847278592148 32.59977937120129,68.59740364373283 32.59977937120129,68.78701627968985 33.0405956977047,69.57355162772001 33.83287369000027,71.49069132603472 34.04732487589354,72.29826057591708 34.33921676775208,72.3684835107706" stroke="#4DD2FF" stroke-linecap="round" stroke-linejoin="round" stroke-width="0.5"><title>2025-09-26 11.4km</title><desc>1758886655000</desc></polyline><polyline fill="none" points="60.142857142869616,73.62289859772136 55.74888986677979,72.72915312040277 50.849421930644894,70.46036345522589 50.05876705207629,70.2159103575541 42.1651798216044,68.69569853179564 40.87550506062689,68.65750183039927 39.41733007962466,68.77973120161914 38.71092531105387,68.67278051344329 37.73232787937741,67.94703939242027 37.388846661604475,67.42755692557694 37.045365443860646,66.55665121563652 37.07128855466726,66.22814888429275 37.71936632398865,65.66281568799604 37.07776933233254,66.18995083891059 37.0,66.42677838484815 37.68696243551676,67.95467881174409 38.04340520864935,68.31373058168538 38.65259831180447,68.64986248761124 39.404368524235906,68.81028851115843 41.32267872142256,68.66514117232873 42.17814137699315,68.71097720653052 49.624554946582066,70.15479694998066 50.83646037528524,70.47564174557192 55.73592831142014,72.76734760451654 57.40148817858426,73.11109702548129" stroke="#4DD2FF" stroke-linecap="round" stroke-linejoin="round" stroke-width="0.5"><title>2025-09-25 7.3km</title><desc>1758798919000</desc></polyline><polyline fill="none" points="85.85714285713038,70.7534659341909 85.42176870751427,72.28497076032363 80.96598639458534,71.4189928875494 75.76870748301735,69.02146397621254 74.4625850340235,68.62053178945644 66.43537414964521,67.08895073454187 65.06122448979295,67.06489423344465 63.60544217686402,67.20121430240397 62.71428571428987,67.00074352539377 63.47619047621265,67.23328957606282 65.21088435372803,67.10498839757201 66.6598639455915,67.17715783799213 74.80272108846111,68.71675571342348 75.5374149660056,68.94127771354397 80.89795918366872,71.42701124789892 84.82312925174483,72.196769776172" stroke="#4DD2FF" stroke-linecap="round" stroke-linejoin="round" stroke-width="0.5"><title>2025-09-23 6.7km</title><desc>1758623965000</desc></polyline><polyline fill="none" points="111.57142857144936,72.35558083016076 106.86125226458535,71.43589771484403 101.50682691883412,68.97210566345166 100.31138703550096,68.59240471488738 91.75719146305346,66.93013643295126 90.41858512660838,66.88794641853019 88.42857142857974,67.02295438384317 91.52812513808021,66.93013643295126 100.06800406525144,68.55865342941979 101.37797711105668,68.92147897782706 106.96146878178115,71.48652275741915 111.57142857144936,72.39776786717994" stroke="#4DD2FF" stroke-linecap="round" stroke-linejoin="round" stroke-width="0.5"><title>2025-09-22 6.4km</title><desc>1758538508000</desc></polyline><polyline fill="none" points="136.30592558567878,79.88468530259706 132.2751492880343,79.08797186731681 127.52503445110051,76.93168164844974 126.61345888840151,76.6319883718752 119.27744602668099,75.19928982641432 117.85117133671883,75.13350191382779 116.41869545247755,75.25776791679527 115.81717960498645,75.14812145553151 115.23426734039094,74.84111041088909 114.8001837391057,74.43907001420303 114.14285714286962,72.91860455241113 114.2544786403596,72.73585398053547 116.9333945797116,70.59398017694184 118.65112540195696,68.71521546559961 120.51768488748348,67.06302870304353 122.76251722557936,65.60819339626323 123.61828203950427,65.49122034297034 123.94694533766597,65.23534107779415 124.64147909972235,64.40189898996323 125.23679375290521,63.07129454482492 125.88791915483307,62.47178281797824 128.67845659167506,60.929112155063194 132.20073495639372,59.401028983113065 132.20693615067285,59.86165102108498 132.69683050070307,60.23453321100533 133.1681212678086,61.06802708074247 133.40376665137592,61.74797493467486 134.94786403307808,64.73820142945624 134.98507119889837,64.97946083657007 135.87184198439354,66.44893121554196 137.28571428573923,69.61439735846216" stroke="#4DD2FF" stroke-linecap="round" stroke-linejoin="round" stroke-width="0.5"><title>2025-09-21 9.0km</title><desc>1758451095000</desc></polyline><polyline fill="none" points="161.66622162880958,78.26615042859339 161.36582109477604,79.54084303693526 161.25767690251814,79.56916925555561 157.3164218958409,78.79727538532461 152.64218958609854,76.65150391930365 151.86715620823088,76.4178017608574 144.75967957274406,75.0368173135721 141.61748998658732,75.0368173135721 141.05874499329366,74.80310935129091 140.50600801064866,74.31444453370932 140.205607476586,73.83994039899699 139.85714285713038,72.82718118434423 140.3437917222327,72.31017214596068 142.6028037382639,70.53247955768165 144.417222963908,68.57766983503825 145.9192256341339,67.26734780002153 148.29839786377852,65.70909261635825 149.00133511345484,65.63826194760622 149.30774365816615,65.43285257170646 150.02870493987575,64.57579265309323 150.59946595455403,63.28663991931535 151.25433911877917,62.69872111621953 154.0901201601955,61.1403563860149 157.34045393858105,59.71654503015452 157.35246995993657,60.212403271776566 157.83311081439024,60.53116728612804 158.12750333777512,61.08368787346262 158.98664886513143,62.99622286207159 160.96328437913326,66.73612863899325 162.6154873163905,70.49706686089485 162.93391188248643,71.72941736393841 162.9999999999709,72.5438890697842 162.87983978635748,73.7903651403467 162.54339118822827,74.9872429675379" stroke="#4DD2FF" stroke-linecap="round" stroke-linejoin="round" stroke-width="0.5"><title>2025-09-18 10.1km</title><desc>1758194958000</desc></polyline><polyline fill="none" points="180.2333109608444,70.94423016800283 180.16639991739066,71.13153931099805 180.67659662346705,71.27941467642086 188.71428571428987,72.84687870013295 173.87676183594158,69.89923520530283 167.603851515305,66.98107218637597 165.57142857142026,66.43883558557718 167.56203211317188,67.01064863481588 173.9771284010494,69.93866919649736 178.8699984511477,70.92451339356921" stroke="#4DD2FF" stroke-linecap="round" stroke-linejoin="round" stroke-width="0.5"><title>2025-09-16 5.4km</title><desc>1758020593000</desc></polyline><polyline fill="none" points="34.4215070643404,99.10985070835159 29.71664050235995,98.16893249398709 24.312401883827988,95.67919038992841 23.22448979591718,95.37108957586315 14.627158555726055,93.72231276737875 11.285714285710128,93.78893070150662 11.723704866570188,93.86387580798328 13.539246467815246,93.71398552152095 14.782574568293057,93.75562174167862 23.485871271579526,95.42937901429104 24.404238618531963,95.74580661889195 29.77315541601274,98.21056628812221 34.428571428579744,99.1431573356167" stroke="#4DD2FF" stroke-linecap="round" stroke-linejoin="round" stroke-width="0.5"><title>2025-09-15 6.5km</title><desc>1757932870000</desc></polyline><polyline fill="none" points="60.14285714284051,106.88089043473155 55.87322028473136,106.02557998204429 50.82610782273696,103.7116074493606 50.16525355941849,103.50540817170986 42.07302831544075,101.9321640904891 40.848504239314934,101.90161531235208 39.4166533354437,102.03144752752269 38.78819388896227,101.93980128295516 38.101423772168346,101.58085233828024 37.72564389696345,101.22190155596036 37.35634298514924,100.61091727474559 37.04535274353111,99.81662974902429 37.0,99.5798692263852 37.11014237720519,99.427120077773 39.85074388093199,97.18166918732459 41.67781155015109,95.19583636072639 43.59558470646152,93.50019611298922 46.06406974882702,91.91908919534035 46.86746120618773,91.81979143532226 47.22380419130786,91.5677272588 47.89761638137861,90.81916769409145 48.54551271797391,89.35257883964368 49.21932490798645,88.6956592962888 52.29035354341613,87.01513941535086 54.57094864820829,85.9762524224061" stroke="#4DD2FF" stroke-linecap="round" stroke-linejoin="round" stroke-width="0.5"><title>2025-09-13 7.0km</title><desc>1757768754000</desc></polyline><polyline fill="none" points="85.85714285715949,99.24809483383433 80.74111509619979,98.24305741984426 75.11197540638386,95.64591231398663 74.19139223996899,95.34349963860586 64.94783175745397,93.54678947526554 62.71428571428987,93.55568417741597 65.06856397600495,93.61794706523506 73.91974474827293,95.32571062284842 74.99878895154689,95.64591231398663 80.78638967813458,98.29642254920327 85.82695980250719,99.31035338188667" stroke="#4DD2FF" stroke-linecap="round" stroke-linejoin="round" stroke-width="0.5"><title>2025-09-11 6.0km</title><desc>1757587445000</desc></polyline><polyline fill="none" points="109.36036492648418,106.12533690417331 105.42502353194868,105.35109203142929 101.06154514514492,103.32556747212948 100.05864890306839,103.02830074961093 93.11461878212867,101.68712659828452 91.90645137932734,101.64564653354319 90.5457968286064,101.75625997925818 89.87133444356732,101.63181983929098 89.03852002025815,100.98196181087405 88.69249149228563,100.36666456620151 88.42857142857974,99.50247296995803 91.01498805300798,97.35231321462197 91.80674824415473,96.59870300394687 92.73340091234422,95.50629800150637 94.44008399100858,94.00593895906059 95.70103540655691,93.26611752319877 96.55144450077205,92.63691680359625 97.30801535007777,92.51245877917972 97.648178987758,92.31194255968148 98.32264137282618,91.53752914116194 98.89740062269266,90.22377047128248 99.5425385562121,89.65677148282703 102.19346897400101,88.18393335770088 105.48953732533846,86.73180595297163 105.48367243501707,87.22276703330135 105.97045833032462,87.52010781178979 106.30475707768346,88.12861482753215 106.95575990152429,89.64985682973929 109.55977119685849,94.6904389597621 109.70052856416442,95.174424402765 109.87647527331137,95.36801754630142 110.64477590323077,97.2486059185394 110.83831728331279,97.99529466751846 111.11983201792464,98.07134580634738 111.20194048222038,99.42642354615236 110.89696618635207,101.44515917183162 111.12569690824603,101.61107979222288 111.55969879080658,101.6940399397572 111.57142857142026,101.81847995777207" stroke="#4DD2FF" stroke-linecap="round" stroke-linejoin="round" stroke-width="0.5"><title>2025-09-09 10.0km</title><desc>1757415422000</desc></polyline><polyline fill="none" points="137.25383707205765,99.47210728898062 131.75501770959818,98.35429761496925 125.91351829984342,95.63955666621769 124.84563164110295,95.30138225857081 115.11511216056533,93.40382348750427 114.14285714286962,93.38503556816431 117.21103896101704,93.80776276329561 125.01298701297492,95.36713849724038 132.03394332938478,98.45762516725517 137.28571428571013,99.47210728898062" stroke="#4DD2FF" stroke-linecap="round" stroke-linejoin="round" stroke-width="0.5"><title>2025-09-08 5.7km</title><desc>1757333196000</desc></polyline><polyline fill="none" points="162.9999999999709,99.41806339730829 157.80870841484284,98.43716556916479 151.75352250484866,95.64388078160118 150.8737769080035,95.34492852619587 141.34716242659488,93.48579580005753 139.85714285713038,93.38302849412867 140.98258317023283,93.45776836519508 150.64393346378347,95.32624397563632 151.84863013692666,95.71861868263659 157.74530332675204,98.446507506138 162.92866927589057,99.474114363009" stroke="#4DD2FF" stroke-linecap="round" stroke-linejoin="round" stroke-width="0.5"><title>2025-09-04 5.8km</title><desc>1756983645000</desc></polyline><polyline fill="none" points="188.71428571428987,99.12533510033973 184.1594265109743,98.21551184402051 178.71445741757634,95.73188426367415 175.76596840657294,95.04333933482849 169.34048763735336,93.82197628448921 168.02618475272902,93.79738487857685 166.43372252746485,93.92853895065491 165.57142857142026,93.73180775679793 165.9678056318662,93.91214470413979 166.51717032963643,93.98591878529987 168.02618475272902,93.83837055064214 169.42393543958315,93.87935620039934 178.14423076924868,95.5761425096498 179.07606456044596,95.9122164183791 184.1733344780514,98.27288841031259 187.03142170325737,98.78927553880203" stroke="#4DD2FF" stroke-linecap="round" stroke-linejoin="round" stroke-width="0.5"><title>2025-09-02 6.2km</title><desc>1756809719000</desc></polyline><polyline fill="none" points="34.428571428579744,126.21225115565176 29.205607476615114,125.19250117793854 22.1481975967763,122.06708162709401 12.591455273708561,120.21632690599654 11.285714285710128,120.12189958536328 12.543391188257374,120.23521235780936 21.65954606141895,122.00098392455402 22.89319092122605,122.36924191131402 29.333778371161316,125.31524949539744 34.42056074764696,126.30667184320919" stroke="#4DD2FF" stroke-linecap="round" stroke-linejoin="round" stroke-width="0.5"><title>2025-08-29 5.7km</title><desc>1756465472000</desc></polyline><polyline fill="none" points="60.142857142869616,126.09758922240871 55.12869843363296,125.10957013034204 49.207723787636496,122.39694776729448 48.28566724684788,122.118494727074 38.98889881937066,120.31301833219186 37.0,120.31301833219186 39.087962745223194,120.39386140418355 48.537137212522794,122.21730075219966 55.01439390380983,125.11855217539414 60.020932311046636,126.11555309637333" stroke="#4DD2FF" stroke-linecap="round" stroke-linejoin="round" stroke-width="0.5"><title>2025-08-27 6.0km</title><desc>1756291993000</desc></polyline><polyline fill="none" points="84.81183280356345,126.1088989103373 80.91497841247474,125.39319533271919 79.22403567872243,124.95833445563039 73.88987996397191,122.4578402967818 72.7907671869616,122.1045035395 64.12084262465942,120.41027823583136 62.71428571428987,120.25625604249217 65.02780281825108,120.59148045108304 72.77539498030092,122.11356347511901 73.72078569055884,122.4125407963802 78.78592778858729,124.82243996534817 80.05413483892335,125.26636114505527 84.80414670018945,126.1723153860803 84.9886131802341,125.46567192454677 85.85714285715949,125.61062491883786 85.42672107039834,125.5109697624066 85.45746548369061,125.29353991581593" stroke="#4DD2FF" stroke-linecap="round" stroke-linejoin="round" stroke-width="0.5"><title>2025-08-26 6.0km</title><desc>1756205162000</desc></polyline><polyline fill="none" points="111.57142857144936,127.536069839618 107.15495150283095,126.66718796356872 102.35049694648478,124.45682579431013 101.35468806134304,124.14432068241149 93.41408214587136,122.61226323538722 90.76290264641284,122.72659703886166 90.05807687703054,122.56652966168622 89.37911627351423,122.15492615342373 89.02993653455633,121.73569786920416 88.45443659441662,120.30268040420196 88.87474553944776,119.83770566522435 90.05161058556405,118.89250158895447 88.65489162973245,120.00540182894474 88.42857142857974,120.31792542530457 88.79715004193713,121.37744625427877 89.10106574062956,121.88052246953157 90.16800383187365,122.63513001101092 90.83403185248608,122.77233050791983 92.28248113999143,122.64275226790778 93.478745060449,122.66561903358524 101.47754759909003,124.20529739920312 102.35696323795128,124.50255813264812 107.07735600529122,126.66718796356872" stroke="#4DD2FF" stroke-linecap="round" stroke-linejoin="round" stroke-width="0.5"><title>2025-08-23 7.3km</title><desc>1755948655000</desc></polyline><polyline fill="none" points="137.28571428568102,125.2142163855242 136.93560899922159,126.42047196339263 131.01972736342577,125.25654139614198 123.7752410506364,121.95513519766973 116.72825002769241,120.43137142205524 114.14285714284051,120.00809946518712 123.31741106061963,121.8599006618897 130.7593926631962,125.2142163855242 135.5980272636516,126.19826811373787" stroke="#4DD2FF" stroke-linecap="round" stroke-linejoin="round" stroke-width="0.5"><title>2025-08-19 5.0km</title><desc>1755607675000</desc></polyline><polyline fill="none" points="162.33320389853907,129.23914103639254 158.13113035372226,128.4087063340994 153.2559701782011,126.15461822535872 152.43191084533464,125.91734145144437 144.73859356186586,124.44175795064803 141.86382169064018,124.52332370289514 140.91395177258528,124.07841841241316 140.25973672966938,123.28499676121282 139.8948860326782,122.09855460857216 142.61868520168355,119.88133540197305 145.18522113925428,117.1894303921872 144.4303576281818,117.86427057374385 142.69417155277915,119.7478550177184 139.85714285713038,122.1059699362595 139.99553450080566,122.66953247581841 140.5239389585622,123.70024662931974 140.97056653592153,124.11549396436021 141.74430163475336,124.49366344066948 142.17205762432422,124.56039901251643 143.6566225294082,124.42692780336802 144.8958567933878,124.44175795064803 148.01595930571784,125.03496119236661 148.28645206382498,124.93856601734296 149.52568632777547,125.16843120939302 149.8968275540392,125.33156087484531 151.77769580241875,125.61332937627594 152.99176794933737,126.00632033857255 153.6208208752214,125.9914905321275 153.60823981667636,126.16203311123536 154.01083368927357,126.14720333868172 153.70888828483294,126.34740499526379 154.1680969207082,126.62916929229687 157.8543470663426,128.290071978372 158.55888634329312,128.49026733377104 158.77905486733653,128.38646240815433 159.98054595576832,128.47543806835893 159.98054595576832,128.75719355862384 162.0186774356407,129.1649954926179 162.3772376033594,129.20206827458605 162.47788607148686,128.69046210051602 162.8175746514753,128.63114519395458 162.9999999999709,128.01572923898493" stroke="#4DD2FF" stroke-linecap="round" stroke-linejoin="round" stroke-width="0.5"><title>2025-08-16 10.0km</title><desc>1755297330000</desc></polyline><polyline fill="none" points="179.4989444053499,122.40807251208753 179.08092892332934,124.53569843943842 188.71428571431898,126.42812871970818 172.7346938775736,123.2591281658315 165.57142857142026,120.00044270885701 172.51618578465423,123.24793011085421 178.54890921892365,124.45731300214538" stroke="#4DD2FF" stroke-linecap="round" stroke-linejoin="round" stroke-width="0.5"><title>2025-08-13 5.0km</title><desc>1755095249000</desc></polyline><polyline fill="none" points="34.298992161260685,154.30734823200328 30.055271156597883,153.45967351051513 25.228443449013866,151.2373424862817 24.327867541171145,150.94713598488306 16.39761638137861,149.41971354861744 13.58574628061615,149.51135983311542 12.963765797467204,149.3815275613888 12.322348424233496,148.99966654519812 11.985442329227226,148.66362713056878 11.674452087667305,148.14429032184125 11.30515117579489,147.1056051634223 12.108542633184697,146.3113061294498 13.04151335786446,145.6010118713093 12.335306350985775,146.09745485191524 11.285714285710128,147.1132426104523 11.972484402504051,148.67126440789434 12.51023836186505,149.17532287095673 12.957286834105616,149.40443915622018 13.58574628061615,149.54190856799687 15.78859382495284,149.41207635282626 16.58550631898106,149.46553670582944 24.69716845304356,151.09223938571085 29.93217085264041,153.45967351051513 34.42857142855064,154.39898812869797" stroke="#4DD2FF" stroke-linecap="round" stroke-linejoin="round" stroke-width="0.5"><title>2025-08-12 8.1km</title><desc>1754996616000</desc></polyline><polyline fill="none" points="60.14285714284051,152.68413782557036 55.476449980487814,151.75091104075545 50.2074737251678,149.32281586006866 49.33865317242453,149.03375173120003 44.38497469833237,147.99311174312606 40.6504476449918,147.34889887909958 39.3332035811618,147.31586217442964 37.66562864926527,147.4562680698582 37.0,147.34063970428542 37.6095757104049,147.4562680698582 39.26313740754267,147.3323805285545 40.664460879721446,147.35715805303334 49.26158038142603,149.04201072160504 50.26352666405728,149.39714645795175 55.25924484230927,151.70135885498166 59.743479953263886,152.62632765043963" stroke="#4DD2FF" stroke-linecap="round" stroke-linejoin="round" stroke-width="0.5"><title>2025-08-10 6.4km</title><desc>1754781124000</desc></polyline><polyline fill="none" points="83.56217700842535,159.6830436289565 79.7099129052076,158.91016996276085 75.34245238697622,156.89513357656324 74.51111271727132,156.619096204402 67.31592642117175,155.21128689936086 66.67193090240471,155.16988026979016 64.65798128003371,155.28719898332565 64.21889342632494,155.18368248266415 63.60417043115012,154.83172511522207 63.17679158685496,154.34864319205735 62.77283076144522,153.4031721971587 62.71428571428987,153.0443035996759 65.27270427523763,150.94626188410984 67.04076469951542,149.0414006683386 68.70929854360293,147.58510943411602 70.8110657366924,146.21160976763713 71.0452459253429,146.1011763399256 71.6365509016614,146.08047005078333 71.86487658560509,145.92862372361924 72.50887210437213,145.21770198580998 73.17043113728869,143.79583456811451 73.76759061834309,143.22983962543003 76.44309927363065,141.78721988014513 79.75089443821344,140.3169563710435 79.75089443821344,140.8208533437246 80.33634490982513,141.20049909904992 80.51198005132028,141.42138285470355 80.60565212677466,141.78031731430747 82.6722922915651,145.45927822876183 83.52119547539041,147.3228354166895 84.05395540458267,148.06134105770252 84.05980990928947,148.27529902720198 84.29984460267588,148.64109646222278 84.73307795167784,149.90411664916974 85.06678472046042,150.49765842114357 85.34780094682355,151.72613418836772 85.44147302230704,152.96838882816155 85.17802031009342,154.74891133283745 85.24827436669148,154.85242854389435 85.85714285713038,155.0387590975697 85.78688880056143,155.59084640962465" stroke="#4DD2FF" stroke-linecap="round" stroke-linejoin="round" stroke-width="0.5"><title>2025-08-08 10.0km</title><desc>1754654808000</desc></polyline><polyline fill="none" points="111.57142857147846,153.24005862693593 105.39695087523432,151.97857154429948 98.31688311690232,148.7115687426558 91.00813099945663,147.13733088164736 88.42857142857974,146.75994137307134 98.15223037835676,148.7115687426558 105.57989836251363,152.08639158127335 111.41592320724158,153.2077130050675" stroke="#4DD2FF" stroke-linecap="round" stroke-linejoin="round" stroke-width="0.5"><title>2025-08-07 5.0km</title><desc>1754573743000</desc></polyline><polyline fill="none" points="137.28571428568102,153.25159321424144 131.16769697651034,152.02825428539654 124.1756771945511,148.81960019956023 123.28346633689944,148.5513133518907 114.14285714284051,146.74840678575129 116.57367652014364,147.26352631389454 116.77396875346312,147.177673246224 117.31111610651715,147.40303738931107 123.67494661116507,148.7015540766006 131.24963470827788,152.114103126798 136.8760256265523,153.24086223701306" stroke="#4DD2FF" stroke-linecap="round" stroke-linejoin="round" stroke-width="0.5"><title>2025-08-04 5.0km</title><desc>1754309955000</desc></polyline><polyline fill="none" points="163.0,152.69315962117253 158.37423631871934,151.76650824039098 153.0395164435322,149.31744661046832 152.2393084622454,149.05267846191418 143.77395034447545,147.38130822529638 142.28584427403985,147.30684037883475 140.47484726377297,147.44750180530536 139.85714285713038,147.31511458758905 139.99051085405517,147.41440502252226 140.8398544131196,147.47232438295032 143.28961393475765,147.33993720849685 146.6518913297914,148.0018707735362 147.1923826855782,148.010144906606 148.12595866373158,148.29146489452978 152.14805667489418,149.06095248053316 153.26413622772088,149.45810431402788 158.2900038996595,151.75823451645556 162.52268295854446,152.61042335026286" stroke="#4DD2FF" stroke-linecap="round" stroke-linejoin="round" stroke-width="0.5"><title>2025-08-03 6.5km</title><desc>1754227262000</desc></polyline><polyline fill="none" points="186.0337167790276,152.71059327735566 179.89227630756795,151.4878844010018 172.15351051167818,148.04690609918907 165.57142857142026,146.70510867884877 172.72267240891233,148.19839821781352 180.13095710321795,151.58526884527237 188.71428571426077,153.2948913211585 186.22649742168142,152.73223400691495 186.22649742168142,152.56992842035106" stroke="#4DD2FF" stroke-linecap="round" stroke-linejoin="round" stroke-width="0.5"><title>2025-08-01 5.0km</title><desc>1754057984000</desc></polyline><polyline fill="none" points="32.214448421727866,186.4460356657073 28.266514806367923,185.6658664918432 23.92027334854356,183.663618479688 22.988935893255984,183.36672804594855 15.959973966819234,182.00653781575966 14.677188415225828,181.96511024413485 13.400260331924073,182.07558370826882 12.79108363162959,181.96511024413485 12.287341360235587,181.68202111347637 11.918320859083906,181.32988408894744 11.496583143511089,180.52893768927606 11.285714285710128,179.83155370215536 13.868857793713687,177.69102027665213 15.66124308493454,175.77828892417165 17.301334201125428,174.3419761663754 18.53726000653114,173.63071308512008 19.503742271423107,172.9194420202184 20.189066059247125,172.85038615182566 20.43507972668158,172.69846297644108 21.184835665480932,171.83525620186265 21.770582492667018,170.53697106867912 22.34461438335711,170.0190307463854 25.085909534682287,168.51352683576988 28.29580214773887,167.12539290572022 28.34851936218911,167.5742952654473 28.81711682394962,167.89888422092918 29.303286690526875,168.76905066238396 29.60201757241157,169.60467544002313 30.340058574685827,171.13087076060037 32.26130816791556,174.72867895750824 32.51903677190421,175.50207746052183 33.280507647257764,177.09718206475372 33.795964855205966,178.87177507413435 33.83110966483946,179.97655496497464 33.76082004557247,180.37703291997605 33.94240156200249,180.50822342399624 33.77253498209757,181.5508330388766 34.428571428579744,181.79939968692634 34.405141555471346,182.1377249472498" stroke="#4DD2FF" stroke-linecap="round" stroke-linejoin="round" stroke-width="0.5"><title>2025-07-28 10.0km</title><desc>1753704756000</desc></polyline><polyline fill="none" points="57.870480022975244,179.62339309346135 51.72388617420802,178.39394858543528 44.68324231100269,175.16658540300705 43.53774073009845,174.78236861684127 37.0,173.4760205880084 44.25484334578505,175.03485409847053 50.31762000574963,177.8889938183056 51.89152055187151,178.48176654760755 60.14285714284051,180.09540798341914 57.963610232807696,179.60143885875732 58.075366484583355,178.88792362737877" stroke="#4DD2FF" stroke-linecap="round" stroke-linejoin="round" stroke-width="0.5"><title>2025-07-22 5.0km</title><desc>1753194638000</desc></polyline><polyline fill="none" points="75.8779867819103,178.00730853663117 83.54422979155788,179.52813625075942 85.85714285713038,179.66565637082385 83.83934926282382,179.5524045257407 71.204117946123,177.07699964019412 65.69293340112199,174.57724237036746 62.71428571428987,173.90577220060368 65.65861718353699,174.59342229957838 70.82663955260068,176.97992325796804 72.95424504322,177.43294528967817" stroke="#4DD2FF" stroke-linecap="round" stroke-linejoin="round" stroke-width="0.5"><title>2025-07-19 6.4km</title><desc>1752877000000</desc></polyline><polyline fill="none" points="109.45201148380875,186.5090678070119 105.5134280626371,185.72492931657325 101.0391030999017,183.67779662703106 100.27375804047915,183.43491211275978 93.00297997603775,182.0331033946204 90.48322854962316,182.11638002176187 89.93571246863576,182.0122842208366 89.42352000580286,181.71387531553773 88.92310208233539,181.18645150646626 88.48744412546512,180.20792997979152 88.42857142857974,179.85399296027026 91.00130828213878,177.72338935386506 92.70272922195727,175.8772712756545 94.38060108298669,174.4128312849789 96.42937093434739,173.04552753377357 96.78849438528414,172.8720097303667 97.33601046627155,172.84424683795078 97.72457026565098,172.60132101306226 98.36039539193735,171.84477465048258 98.93146055168472,170.54682555107865 99.5378493295284,169.9846040935663 102.51680779157323,168.360380888058 105.56052622018615,167.06236076442292 105.56641348983976,167.5621363511309 106.03739506486454,167.87449410081172 106.34942035831045,168.45061659747444 106.99113275430864,169.92213473632728 108.96925536941853,173.6424251672579 109.48733510196325,174.88478718652914 109.62862957446487,175.0166565927575 110.51760729731177,177.2930959373116 110.71777446669876,177.57764513507573 111.03568702982739,178.76440979084873 111.09455972674186,179.54863395157736 111.00036341173109,180.742301754246 110.71188719701604,181.85961007181322 111.57142857142026,182.0539225616085" stroke="#4DD2FF" stroke-linecap="round" stroke-linejoin="round" stroke-width="0.5"><title>2025-07-17 10.0km</title><desc>1752756134000</desc></polyline><polyline fill="none" points="137.28571428568102,180.0514389204036 131.1502511711442,178.8227833619676 123.36891121522058,175.363066024438 114.14285714284051,173.5199896510312 123.78038042562548,175.53551585873356 130.97651972679887,178.8120056141197 137.00225771853002,180.0406613063751" stroke="#4DD2FF" stroke-linecap="round" stroke-linejoin="round" stroke-width="0.5"><title>2025-07-14 5.0km</title><desc>1752500928000</desc></polyline><polyline fill="none" points="163.0,180.02763300745573 156.86596671503503,178.82261017479323 150.52384675526991,175.87930622136628 149.02200379758142,175.3354251539422 139.8571428571595,173.5437955639718 149.61912208196009,175.49539048736915 156.97453367582057,178.865266103443 162.34859823522856,179.9423221442048" stroke="#4DD2FF" stroke-linecap="round" stroke-linejoin="round" stroke-width="0.5"><title>2025-06-21 5.0km</title><desc>1750468889000</desc></polyline><polyline fill="none" points="181.405455916567,178.2069861391501 187.42355487062014,179.40903841841282 188.71428571426077,179.47790523575895 187.6041509557399,179.40903841841282 177.7669759663986,177.4869948744381 176.70995770351146,177.07377842395726 173.54952621395933,175.57114811163774 172.99180300990702,175.38957762248174 166.5434604413167,174.13735173579335 165.57142857142026,174.09352333566494 166.4319158005237,174.1123069398309 168.9443260434491,174.57563389909774 173.46453982096864,175.55236498416343 176.8268139938591,177.1426480386399 177.68730122296256,177.47447320745778 178.6221515459183,177.66229792583908" stroke="#4DD2FF" stroke-linecap="round" stroke-linejoin="round" stroke-width="0.5"><title>2025-06-17 8.1km</title><desc>1750165544000</desc></polyline><polyline fill="none" points="34.428571428579744,206.79934419646452 28.593636062345468,205.6390140897638 20.98674179648515,202.2423315125052 11.285714285739232,200.34351294639782 21.00464037124766,202.28452705782547 28.4683460391243,205.62846557050216 33.390454093459994,206.63056977203087" stroke="#4DD2FF" stroke-linecap="round" stroke-linejoin="round" stroke-width="0.5"><title>2025-06-15 5.0km</title><desc>1749939796000</desc></polyline><polyline fill="none" points="52.99166996014537,204.89796699699582 58.45356154802721,205.98931206904308 60.14285714284051,206.09380138271808 58.81309093118762,206.012531934226 49.672179491084535,204.23618303955664 48.78074362323969,203.89948278505108 45.80108229711186,202.48299635151125 45.13619919132907,202.26239261760202 39.12762593865045,201.1013052848175 38.39871705227415,201.04905576014426 37.0,201.15936025218616 38.9847991974093,201.08969428377168 44.88009606907144,202.22756036563806 45.5942297753063,202.4249428258372 47.29830055026105,203.23188116386154" stroke="#4DD2FF" stroke-linecap="round" stroke-linejoin="round" stroke-width="0.5"><title>2025-06-11 8.1km</title><desc>1749642919000</desc></polyline><polyline fill="none" points="85.85714285715949,206.79223891332367 79.84484573203372,205.62875940347294 72.28909322549589,202.2545900044206 62.71428571426077,200.3506182295314 72.39677615906112,202.29690006434976 79.90766077657463,205.6816451380946 84.8610757215065,206.67589158952615" stroke="#4DD2FF" stroke-linecap="round" stroke-linejoin="round" stroke-width="0.5"><title>2025-06-08 5.0km</title><desc>1749387304000</desc></polyline><polyline fill="none" points="97.39440559409559,209.79115487463423 99.88671328639612,208.30302789091365 105.13026973011438,207.3490970111743 107.7844155842904,205.36491245785146 110.6651348649757,205.44122745614732 111.44195804174524,204.79254943976412 106.32787212764379,196.47410131286597 102.86453546432313,197.16095313805272 99.56303696287796,199.1070259931148 97.71808191796299,199.1070259931148 94.7726273725275,200.4807179677009 89.9498501495691,201.47282548676594 90.11168831156101,204.60176155919908 88.42857142852154,206.7004225286655 89.85274725256022,208.26487070554867 90.4677322676871,210.21088185510598 91.37402597395703,210.7832360174798 97.00599400582723,209.6003697173437 99.98381618363783,208.26487070554867 104.32107892085332,207.69251242725295 107.94625374604948,205.36491245785146 110.5032967031002,205.479384949198 111.53906093887053,204.60176155919908 106.32787212764379,196.3596258776961 102.47612387582194,197.19911153326393 99.62777222751174,199.06886780582136 97.03836163808592,199.33597502979683 93.86633366614114,200.74782411474735 90.0469530466944,201.39650962353335 90.1440559438197,204.79254943976412 88.42857142852154,206.7004225286655 89.9498501495691,208.3411850721168 90.72667332645506,210.32535276227281 91.827172827092,210.85954983517877 100.69590409554075,208.15039912474458 104.41818181797862,207.73066967487102 107.6225774224149,205.55569992266828 110.60039960010909,205.5175424380286 111.57142857136205,204.56360397054232 105.97182817163412,196.24515040504048 102.15244755218737,197.42806181733613 99.49830169824418,199.06886780582136 90.20879120845348,201.2057198927505 90.17642357631121,204.60176155919908 88.4609390606638,206.62410780478967 89.91748251731042,208.26487070554867 90.4677322676871,210.0964109103079 92.11848151823506,210.89770673780004 105.19500499474816,206.92936660093255 106.81338661315385,204.7543918720039 106.32787212764379,202.57940363459056 104.19160839146934,199.90834696652018 102.37902097881306,198.99255141877802 100.82537462515756,198.91623501494178 99.0451548449928,199.64124017916038 96.1644355643075,203.11361252333154 91.56823176809121,203.87676666505286 88.81698301678989,206.0517468447215 88.7198801196646,206.96752393167117 90.27352647332009,208.8372280485346" stroke="#4DD2FF" stroke-linecap="round" stroke-linejoin="round" stroke-width="0.5"><title>2025-06-04 6.4km</title><desc>1749041988000</desc></polyline><polyline fill="none" points="137.28571428568102,206.81339366111206 131.35417936078738,205.62876010735636 124.59707527834689,202.50845079131977 123.57408740930259,202.169970533163 114.14285714284051,200.32946348175028 123.84329474327387,202.2757457405387 131.21957569383085,205.60760580544593 136.146069905255,206.62300710011914" stroke="#4DD2FF" stroke-linecap="round" stroke-linejoin="round" stroke-width="0.5"><title>2025-05-28 5.0km</title><desc>1748436903000</desc></polyline><polyline fill="none" points="163.0000000000582,206.80326013315062 156.57346292951843,205.48682218236354 149.13076401449507,202.1201144174629 139.8571428571595,200.32880660697992 148.82866184448358,202.0553689161825 149.94552441232372,202.41146864961047 157.11358499102062,205.69184235730063 162.8901446654927,206.81405053588242" stroke="#4DD2FF" stroke-linecap="round" stroke-linejoin="round" stroke-width="0.5"><title>2025-05-27 5.0km</title><desc>1748351986000</desc></polyline><polyline fill="none" points="182.70979861891828,208.34548758702294 182.7407260715263,206.9599916939551 183.46752120862948,205.31469562753045 183.94689672463574,202.2621818169937 183.91596927196952,202.5436223406723 183.22010158747435,202.63021929899696 179.83354552293895,205.03326126414322 178.55005623819306,205.3363443988419 178.0397532695788,204.49203957596183 178.6273748697713,203.5394837852 179.7098357123905,202.69516697887593 179.5397347228136,201.24466085741733 180.05003769142786,200.31373026238725 179.3696337332949,199.92403635276423 176.87997379543958,199.96733573534584 176.23049728985643,199.0147458987849 176.44698945846176,197.88894866859482 176.9263649744098,198.0404988788723 176.87997379543958,197.30439615800424 177.59130520623876,197.73739827688405 178.89025821734685,197.69409813163657 179.9263278808794,198.38689867823996 181.33352697623195,198.43019858658954 181.90568485012045,198.1487489180363 183.3128839454148,196.17858371752664 183.37473885068903,192.88768994472048 182.86443588207476,192.30311433952738 182.06032211333513,191.99999999999272 181.0706436287146,192.2814633393573 180.18921122839674,193.25575468159514 179.50880727014737,193.49391364694748 178.11707190121524,193.2341038443119 176.64801790058846,192.43302026288438 175.30267371062655,192.88768994472048 174.62226975237718,193.92692879967217 174.6531972050434,195.03111073489708 175.2408188052359,195.85382826830028 176.57069926901022,196.48168805179012 176.87997379543958,197.23944571246102 176.27688846882666,198.646697905795 176.7098728059209,199.9456860459468 176.81811889016535,201.74259766799514 176.24596101616044,203.6910272313835 176.69440907955868,204.23225234379788 178.00882581697078,204.55698630068218 178.51912878552685,205.3363443988419 177.34388558508363,207.24142177434987 175.89029531076085,207.82592840392317 173.46249027823796,209.60108014357684 171.69962547754403,210.3587592827098 171.297568593116,211.39785472874064 170.30789010849549,212.48023675000877 171.15839505626354,214.90473889980058 171.93158137233695,215.07791584826919 172.9521873096237,214.45014828319836 174.14289423642913,214.94803315919125 175.00886291044299,214.83979748310958 175.68926686863415,214.12543970063416 176.1841061109444,212.32870382404508 177.35934931138763,211.67927494443575 180.05003769142786,212.52353183841478 181.0706436287146,212.0256374281089 182.66340743988985,211.93904689607734 182.7561897978303,207.13317950984492 183.97782417730195,202.8467114356681 183.79225946142105,202.5436223406723 183.3283476717188,202.5869208272561 179.84900924924295,205.05491008352692 178.5964474171633,205.31469562753045 177.22017577447696,207.30636708871316 175.75112177390838,207.8908734184297 173.44702655193396,209.60108014357684 171.79240783548448,210.2505196833008 171.297568593116,211.46279791100096 170.30789010849549,212.56682691193419 171.0810764246271,214.7965031867716 171.59137939324137,215.14285714285506 172.85940495162504,214.45014828319836 174.31299522594782,214.96968028326228 175.28720998426434,214.58003148309945" stroke="#4DD2FF" stroke-linecap="round" stroke-linejoin="round" stroke-width="0.5"><title>2025-05-23 6.4km</title><desc>1747958832000</desc></polyline><polyline fill="none" points="24.959783007274382,231.43792281483184 25.586101349792443,232.03293090171064 27.151897206204012,232.28346004414198 27.93479513435159,233.2855731863965 27.733478524256498,237.23134037874115 27.353213816299103,237.95159029361093 25.98873457009904,238.35868681859574 24.64662383601535,237.88895997876534 23.393987150746398,238.1707962271903 21.26897848851513,236.9181873583293 19.993973291129805,237.41923193400726 19.054495777352713,237.262655651386 19.322917924029753,236.354510572055 18.65186255716253,234.60083836350532 18.853179167141207,233.34820507568656 18.137386775691994,232.15819551571622 18.450545946951024,230.27921730790695 22.968985418323427,230.0913184267265 24.512412762618624,230.65501449181465 25.317679202882573,231.93898238486145 27.040054645040073,232.25214392005 27.80058406095486,232.9724134184653 27.733478524256498,237.32528618045035 27.39795084076468,237.95159029361093 26.078208618913777,238.3273717334523 24.80320342152845,237.9202751388657 23.349250126280822,238.13948110991623 21.224241464049555,236.9495026844379 18.517651483649388,237.51317763931002 17.06369818840176,238.7031524021004 17.533436945290305,239.0476173377101 17.89133314101491,240.92650558087917 20.083447340060957,241.9285714285652 21.022924853954464,241.27096633439942 21.64924319658894,239.98706386882986 21.559769147541374,238.98498739759088 20.396606511319987,237.1373945287778 21.559769147541374,236.9495026844379 23.371618638630025,238.13948110991623 24.80320342152845,237.7323840976751 24.624255323666148,237.262655651386 23.17030202841852,237.293970918603 22.387404100270942,236.29187971091596 23.125565003952943,233.34820507568656 21.201872951816767,230.4044831215724 21.336084025213495,228.05573485606874 21.850559806567617,227.05359309389314 22.87951136927586,226.45856882778753 24.825571933877654,227.08491010704893 26.41373630252201,226.6777885192132 24.624255323666148,228.4315366030496 22.767668808228336,228.33758623863105 21.64924319658894,227.49203078978462 19.92686775443144,227.1162271147332 19.971604778897017,223.29551264012116 20.732134194811806,221.6983050921117 20.776871219277382,219.31812681804877 21.246609976282343,218.84835113451118 22.678194759297185,218.78571428571013 26.794001010479406,219.3807634848199 27.644004475325346,220.1324018145533 27.93479513435159,221.6983050921117 28.650587525917217,222.48125170932326 28.180848768912256,223.10760659285006 28.471639428054914,223.51473611824622 27.06242315727286,224.36030993249733 26.90584357152693,226.33330031481455 24.825571933877654,228.36890303208202 23.192670540651307,228.4315366030496 21.582137659774162,227.3980799432902 20.016341803362593,227.21017810575722 19.94923626666423,223.51473611824622 20.91108229267411,220.32031091483077 21.91766534326598,219.944492521332 21.94003385549877,219.00494316298864 26.525578863569535,219.28680847671058" stroke="#4DD2FF" stroke-linecap="round" stroke-linejoin="round" stroke-width="0.5"><title>2025-05-20 5.0km</title><desc>1747754393000</desc></polyline><polyline fill="none" points="57.07650926487986,231.97439130741986 59.23909145256039,232.2407487896562 60.14285714284051,231.28947113483446 54.78481769282371,223.22253245912725 51.04064554697834,224.1357801540289 48.135684399399906,225.8481131446024 46.32815301849041,225.92421663823188 41.93843395099975,227.59848930101725 38.42020322778262,228.09315923336544 38.710699342540465,231.32752229072503 37.0,233.53448224172462 38.42020322778262,234.79016012648935 38.936640765168704,236.5404914628889 39.711297071073204,237.30150235118344 41.163777644978836,237.52980529429624 48.42618051415775,235.17066768507357 52.751344889518805,234.56185539241415 56.49551703536417,232.0885445390595 59.23909145256039,232.1646466727252 60.07830245082732,231.4416757337458 54.91392707719933,223.2605844940408 53.493723849300295,223.29863652482163 48.264793783659115,225.77200963452924 45.87627017335035,226.03837184756412 42.874476987402886,227.4082314480911 38.16198445914779,228.28341671303497 38.839808727032505,230.79480573019828 37.0,233.4964313262899 38.35564853565302,234.6379569869605 38.775254034786485,236.23608664330095 39.74357441731263,237.26345184620004 41.163777644978836,237.45370432993514 49.03945008968003,234.86626167138456 53.26778242690489,234.33355050900718 56.334130304749124,232.1646466727252 59.27136879856698,232.1646466727252 60.07830245082732,231.36557344259927 54.91392707719933,223.29863652482163 53.784219964174554,223.18448041996453 50.87925881659612,224.1357801540289 48.36162582191173,225.77200963452924 46.2958756723674,225.8481131446024 42.42259414237924,227.48433460170054 38.58158995816484,228.16926223758492 38.775254034786485,231.17531764213345 37.06455469224602,233.4203294828476 38.35564853565302,234.71405856503407 39.25941422593314,236.95904765676823 41.29288702935446,237.4156538414245 47.84518828464206,235.20871841805638" stroke="#4DD2FF" stroke-linecap="round" stroke-linejoin="round" stroke-width="0.5"><title>2025-05-14 5.0km</title><desc>1747227249000</desc></polyline><polyline fill="none" points="70.90978085703682,241.677620642673 71.38119498448214,241.2474184051389 72.06550581468036,238.7020321549935 74.11843830498401,239.024688929072 75.22854254051344,234.57913991018722 75.01564583781874,231.72890618699603 72.8714719034615,226.36889898781374 72.96271334745688,225.16780319344252 74.45299026643625,224.3610921407817 76.67319873749511,223.98462562919303 78.1026480270666,222.99863782600733 79.2735798918875,223.10620041897346 79.71458020468708,222.6400953416305 77.35750956757693,218.87535208002373 76.76444018143229,218.78571428571013 75.13730109657627,219.37732282582147 74.11843830498401,220.07649381220108 73.23643767950125,220.09442123434565 71.4420226138318,220.8115165172203 69.60198682610644,221.08042644250963 69.72364208486397,222.47875096871576 68.85684836673317,223.57230417577375 69.00891744002001,223.9666986309312 69.52595228946302,224.3073112632701 70.04298713896424,225.50841333926655 70.69688415434211,225.58012064853392 76.53633657144383,223.82328257482732 77.19023358687991,223.24961710009666 77.43354410427855,222.47875096871576 77.14461286482401,221.47482687112642 76.12575007334817,220.38125972254784 74.87878367176745,219.9868566723162 73.78388634358998,220.29162274871487 72.32402323931456,221.94093524971686 70.24067693430698,222.2994792577374 69.03933125472395,223.37510659359396 69.06974506942788,223.9666986309312 70.69688415434211,225.22158378970926 72.55212684930302,225.02438818430528 76.49071584950434,223.82328257482732 77.34230266028317,223.03449203148193 77.38792338228086,222.17398894381768 76.76444018143229,221.04457181120233 75.2893701698631,220.04063896210573 73.23643767950125,220.11234865451115 71.30516044778051,220.88322587360744 69.57157301146071,221.22384488956595 69.708435177512,222.5504595984239 68.87205527402693,223.64401232887758 69.54115919681499,224.3073112632701 69.87571115820901,225.27536436830997 70.65126343234442,225.59804747099406 71.56367787253112,225.13194945291616 73.25164458679501,224.84511924705293 72.85626499610953,225.58012064853392 72.90188571804902,226.15377799759153 74.81795604241779,230.95807978061202 75.27416326251114,233.18091821493 75.10688728187233,235.6726127009024 74.34654191503068,238.52277811830572 72.38485086866422,238.23597125340893 71.60929859452881,240.85306536607095 71.01622920844238,241.10401740930683 70.77291869104374,241.9285714285652 70.45357363700168,241.8030960834585" stroke="#4DD2FF" stroke-linecap="round" stroke-linejoin="round" stroke-width="0.5"><title>2025-05-06 7.1km</title><desc>1746539597000</desc></polyline><polyline fill="none" points="97.27158024092205,241.9285714285652 97.11477450758684,241.7437368312967 97.85176145407604,239.28541754298203 99.7177496801014,239.72902666444134 100.04704172007041,239.15603133078548 101.01923726638779,235.0710730477731 100.98787611973239,233.03779923715047 98.21241464064224,225.3481070483249 97.45974712079624,225.181739663778 96.39346813451266,225.6993265468045 95.73488405469107,225.56992997406633 94.49611876177369,223.64745498234697 95.34286972152768,222.723180404937 95.13902226823848,221.24433060690353 96.23666240123566,221.1888734886743 99.90591656009201,220.1536706211773 101.09764013299718,219.41423613397637 103.05771179904696,218.82268622360425 105.58228410501033,222.6862093170348 105.26867263839813,223.18531832308508 103.88878218550235,223.05591983287013 102.41480829258217,224.12807577263447 100.17248630669201,224.4608124452061 98.85531814704882,225.08931326845777 97.17749680095585,225.3111365325749 96.15825953456806,225.73629697797878 95.49967545480467,225.4590185474517 95.12334169493988,224.4238417360175 94.52747990837088,223.98019259753346 94.52747990837088,223.62896954015014 95.34286972152768,222.53832488514308 95.12334169493988,221.26281630893936 96.84820476098685,221.04098775147577 99.8588748400798,220.0797273174976 102.71273918583756,218.78571428571013 103.15179523901315,218.9336019889597 105.56660353159532,222.6862093170348 105.33139493170893,223.14834733596945 103.99854619876714,223.05591983287013 102.06983567931456,224.25747344504634 100.50177834648639,224.3683856571297 96.23666240123566,225.6993265468045 95.57807832141407,225.5144742698467 95.15470284153707,224.4238417360175 94.52747990837088,223.94322178367293 95.32718914811267,222.57529600517591 95.13902226823848,221.24433060690353 96.78548246773425,221.04098775147577 99.73343025351642,220.1351847983169 100.78402866644319,219.48817972773395 102.74410033249296,218.78571428571013 103.10475351905916,218.9336019889597 105.55092295829672,222.6677237701224 105.31571435841033,223.1298618393048 103.88878218550235,223.03743432622286 102.36776657268638,224.14656116046535 100.156805733277,224.4608124452061 98.57306782715023,225.14476911169186 97.27158024092205,225.25568074370676 96.26802354783285,225.71781176341756 95.53103660140187,225.44053330266615 95.13902226823848,224.4238417360175 94.51179933501408,223.96170719161455 94.49611876177369,223.64745498234697 95.12334169493988,223.03743432622286 94.38635474839248,223.721396731009 95.07629997492768,224.53475383938348 95.38991144148167,225.38507755610044 96.06417609460186,225.79175260980264 99.9686388533446,224.5717245243868 102.30504427931737,224.29444419048377 103.81037931883475,223.14834733596945 105.20595034502912,223.14834733596945 105.61364525160752,222.723180404937 102.99498950579436,218.78571428571013 101.00355669303099,219.37726432505588 99.76479140011361,220.17215644204407 98.65147069381783,220.24609970550227 96.94228820095304,220.94855910028855 94.91949424159247,221.35524478893785 95.26446685491828,222.53832488514308 94.46475761511829,223.51805684462306 94.43339646840468,223.9986780015024 95.06061940157088,224.4792977967445 95.34286972152768,225.3481070483249 95.93873150803847,225.71781176341756 98.21241464064224,225.32962179146125 100.6585840798216,231.68843134895724 100.94083439972019,233.13022130260651 101.00355669303099,234.99713624521974 99.8902359867352,239.56267337978352 97.75767801410984,239.30390127950523 97.28726081416244,241.54041854180105 97.03637164097745,241.7437368312967" stroke="#4DD2FF" stroke-linecap="round" stroke-linejoin="round" stroke-width="0.5"><title>2025-04-29 10.1km</title><desc>1745929124000</desc></polyline><polyline fill="none" points="136.39675689011347,228.14967748911295 136.00721376162255,227.8200157467436 136.22695603925968,226.60732282868412 135.67760034528328,228.4204703111027 135.25809236086207,228.47933822613413 134.0095566927921,233.37703647252783 133.86972069798503,233.41235560599307 127.50718293362297,232.15263271285949 119.39669523399789,228.5028853831609 114.14285714284051,227.38438975946337 119.35674209258286,228.51465895975707 125.75923299830174,231.5168791373726 127.57710093102651,232.199725421553 137.28571428573923,234.10696288560575 133.95961526606698,233.3888095182847 134.16936925827758,232.52937380820367 134.7586780935526,232.38809605130518 136.0971083297045,226.76038190833788 136.35680374869844,226.6661917311285 136.00721376162255,227.58454245809844" stroke="#4DD2FF" stroke-linecap="round" stroke-linejoin="round" stroke-width="0.5"><title>2025-04-22 6.3km</title><desc>1745328842000</desc></polyline><polyline fill="none" points="148.07106480182847,241.2484988549695 148.45569563267054,241.07848029489105 149.2570098633878,238.45261692506028 151.30837429396342,238.75487660386716 152.38213536312105,234.8443513297534 152.2058462323621,230.89595374102646 149.9781926709693,225.43605968586053 149.93011381709948,224.49142389277404 151.13208516320447,223.50899720886082 153.66423813224537,223.09335347465822 155.49123457830865,221.90309545119817 156.69320592441363,222.01645371021004 157.19002074742457,221.58191331490525 156.11625967820873,219.90042065523448 154.67389406298753,220.63725652456924 153.52000157069415,219.29583503909816 152.28597765543964,218.78571428571013 149.9781926709693,218.97464807309734 148.40761677880073,219.67370129621122 146.2921472096932,220.03267347773362 146.6126729019452,221.35519615460362 145.6831483943388,222.69660170804127 146.37227863277076,223.2822825682524 146.72485689434689,224.26471053670684 147.44603970192838,224.6425659655215 150.0743503786507,224.01910406642128 151.59684741700767,223.35785414805287 153.6001329937717,223.09335347465822 155.2508403090178,221.97866763216734 156.69320592441363,221.99756067228736 157.1739944627625,221.54412714210048 156.1322859628708,219.90042065523448 154.6899203475914,220.59947014592763 153.52000157069415,219.27694170463656 152.38213536312105,218.80460767372278 149.89806124794995,218.97464807309734 148.43966934806667,219.65480800293153 146.69280432513915,219.9193139217532 146.4524100559065,220.1082464739011 146.58062033279566,221.41187547246227 145.6831483943388,222.60213686790667 146.34022606350482,223.2822825682524 146.67677804047707,224.28360332766897 147.36590827890905,224.6803514630592 151.62889998633182,223.3389612562314 153.53602785535622,223.13113930985855 155.26686659367988,221.97866763216734 156.7573110627709,221.97866763216734 157.15796817821683,221.50634096110298 156.10023339360487,219.86263411599793 154.60978892445564,220.5805769534636 153.5039752861485,219.27694170463656 152.52637192461407,218.86128782534797 150.37884978635702,218.8801812051097 148.27940650191158,219.67370129621122 146.660751755815,219.9193139217532 146.43638377124444,220.08935322795878 146.54856776358793,221.58191331490525 145.66712210973492,222.65881577816617 146.38830491737463,223.32006836232904 146.7088306096848,224.28360332766897 147.2376980019617,224.62367321366037 153.68026441690745,222.84774534520693 154.46555236290442,222.20538397724158 154.7379992013448,221.24183746331255 154.51363121683244,220.52389736381883 153.72834327071905,219.56034150558116 152.49431935540633,218.82350105968362 150.36282350169495,218.89907458283415 148.2153013633797,219.73038116378302 146.42035748664057,220.03267347773362 146.6126729019452,221.3174099323951 145.6831483943388,222.62102984002559 146.46843634045217,223.58456868988287 146.16393693280406,224.17024655079877 146.96525116352132,225.8139125621965 147.5902762634796,228.57221361622214 147.86272310191998,231.67052686303214 147.7986179633881,233.71084925955802 146.22804207127774,241.39962632398237 147.36590827890905,241.9285714285652" stroke="#4DD2FF" stroke-linecap="round" stroke-linejoin="round" stroke-width="0.5"><title>2025-04-15 8.8km</title><desc>1744723077000</desc></polyline><polyline fill="none" points="188.56219683936797,227.88475764189207 187.8904709747876,227.839939036945 188.38475981849479,226.3907962510857 187.80175246443832,228.81100553243596 187.94116726651555,229.18449081554718 187.16804881865392,231.75404199738114 186.42027851671446,231.76898110768525 186.43295258953003,232.39642227200966 185.57111563143553,235.18999452599382 177.16820528870448,233.51684578423738 167.53590987320058,229.05003623077937 165.57142857142026,228.48233764206816 167.67532467533601,229.15461203032464 177.1555312157143,233.53178470260173 185.5964637772413,235.17505578824785 185.87529338133754,234.0546458196477 186.50899702706374,233.97995149635244 187.05398216238245,232.39642227200966 188.71428571426077,225.5242911882815 188.27069316228153,227.98933432990452" stroke="#4DD2FF" stroke-linecap="round" stroke-linejoin="round" stroke-width="0.5"><title>2025-04-11 5.1km</title><desc>1744377642000</desc></polyline><polyline fill="none" points="17.94509859289974,268.7142857142899 18.727830849587917,267.8481320653227 18.935494509525597,268.48833300681144 19.71822676633019,267.8481320653227 20.59680378914345,265.19315579885733 22.657466261007357,265.66389924554096 23.024871197878383,265.53209120969404 23.98331885918742,261.40833190134435 24.047215369995683,259.1486960385373 23.64786217774963,257.13382914828253 21.347587790573016,252.12480594670342 21.28369127982296,251.2774004471139 22.401880218065344,250.33583390789863 24.973714775871485,249.92154300559196 26.762817077047657,248.69749590181164 27.928928398352582,248.81048522838682 28.51997112290701,248.32086427953618 27.258015035418794,246.34353479689162 25.93216243723873,247.11563757278782 24.366697923804168,245.7974112383963 22.960974687128328,245.7220837155619 22.21019068575697,246.07988915649184 20.692648555268534,247.73708364306367 18.520167189650238,248.05722165561747 17.25821110222023,249.14945276502112 17.194314591411967,249.5072511102626 17.84925382671645,250.0533629458514 18.120813997404184,250.93843708386703 18.839649743400514,251.35272554859694 25.149430180550553,249.5825769832445 26.012033075734507,248.75399057431787 26.107877841743175,247.83124194359698 25.16540430817986,246.36236661291332 23.64786217774963,245.5714285714348 21.60317383351503,245.68441994184104 19.606407872459386,246.45652566244826 17.881202082091477,246.7578342762572 18.0249692312791,248.07605328498175 17.194314591411967,249.092958221765 17.194314591411967,249.45075668391655 17.84925382671645,249.99686869807192 18.53614131733775,251.3338942762639 19.23900293558836,251.35272554859694 20.1814764693263,250.86311180179473 21.044079364510253,250.93843708386703 23.567991539253853,257.6234251322312 23.871499965374824,259.3746609541122 23.77565519924974,261.1823696443171 22.88110404863255,265.00485806130746 20.820441576826852,264.6847514366382 20.00576106470544,267.1702696607972" stroke="#4DD2FF" stroke-linecap="round" stroke-linejoin="round" stroke-width="0.5"><title>2025-04-08 5.6km</title><desc>1744119870000</desc></polyline><polyline fill="none" points="45.30435232061427,266.76239472150337 45.930914889264386,265.84798722057894 46.40829589392524,263.8081364398822 48.3924106946215,264.17742168151017 49.451599798805546,260.09765212857747 49.49635426799068,258.44461270024476 49.212909296446014,256.826727932581 47.18404002656462,251.79711302826763 47.18404002656462,250.82986142531445 48.30290175630944,250.00329637160758 50.645052310545,249.6515652776725 52.19654057570733,248.5963673969236 53.53917465131963,248.5963673969236 53.897210404858924,248.13911283960624 52.71867604961153,246.27490777606727 51.27161487919511,246.8376889321662 49.89914449065691,245.69453765358776 47.691257344034966,245.64177662989823 45.64746991771972,246.39801632167655 43.946800088568125,246.71458072197856 44.0363090269384,248.13911283960624 43.24564673798159,249.08879393310053 43.82745483744657,249.75708468635275 44.170572434552014,250.7419291739934 45.09549813106423,251.0584850545565 45.915996732830536,250.6188239416515 47.30338527774438,250.46054564784572 48.66093750979053,249.86260402602784 50.73456124897348,249.56363238442282 52.30096767045325,248.52602062630467 52.062277168093715,249.00086073328566 52.450149234442506,248.42050041281618 53.59884727693861,248.50843392887327 53.85245593567379,248.06876586964063 52.92753023916157,246.57388550962787 51.61473247630056,247.2597735113959 50.57046152849216,246.04627737091505 49.4665179552394,245.57142857142026 47.58683024928905,245.62418961816002 45.75189701252384,246.36284246109426 43.99155455775326,246.64423313111183 43.97663640131941,248.20945977891097 43.290401207108516,248.91292748553678 43.24564673798159,249.26466018910287 43.84237299382221,249.7922578072321 44.00647271418711,250.53089157537033 44.81205315957777,251.04089863305853 45.87124226370361,250.60123747220496 47.243712652125396,250.46054564784572 48.496837789425626,249.89777712388604 49.69029030116508,249.7394981230318 49.82455370872049,250.7419291739934 52.88277576997643,256.9498284305155 49.7648810831015,258.0401430284837 49.585863206360955,260.8010680279258 48.82503723009722,263.77296637282416 48.43716516386485,264.0719116987166 47.36305790330516,268.7142857142899 43.24564673798159,267.65921243224875 43.8722093066317,264.96874435480277 44.081063496123534,264.86323488912603 43.723027742584236,266.58654752734583" stroke="#4DD2FF" stroke-linecap="round" stroke-linejoin="round" stroke-width="0.5"><title>2025-04-02 6.9km</title><desc>1743601029000</desc></polyline><polyline fill="none" points="70.64741178642726,268.7142857142899 71.20088957156986,268.2153838789818 71.96599121572217,265.47139852977125 74.52175628236728,266.0854409212625 75.57987557747401,261.2306098284753 75.25430040969513,257.6421704152017 72.76365037664073,251.9619243594061 72.7473716182285,251.44378469017101 73.23573436983861,250.75292942674423 74.09850856423145,250.33073876512935 76.86589748994447,249.83178486023098 78.15191940241493,248.7954914643924 78.65656091237906,248.7187287480483 78.67283967079129,248.02786279549764 78.02168933534995,246.70369547807786 77.50076906697359,246.74207727961766 76.99612755700946,246.16634937911294 76.57287983893184,246.26230415987084 75.62871185259428,245.68657469103346 74.61942883260781,245.60981061962957 73.57758829597151,245.97443966074206 72.17761507473188,247.70161959809775 70.06137648457661,248.00867203589587 68.48233692115173,249.27525768337364 69.42650490743108,251.04078611581645 70.50090296095004,251.48216545869946 74.22873863141285,250.23478620086098 76.63799487252254,249.88935653683438 78.4774945701356,248.62277530554275 79.69840144913178,248.77630078840593 80.1216491672094,248.31572393837268 78.80306973785628,246.3390679468721 77.35426024143817,247.12589483434567 76.4752072886331,246.10877648556198 75.33569420163985,245.5714285714348 73.20317685307236,245.6673836763075 71.26600460510235,246.4734044936049 69.19860229006736,246.81884085743513 69.32883235719055,248.33491466447595 68.44977940426907,249.46716380512225 69.16604477330111,250.138833584424 69.49161994102178,251.09835739721893 70.45206668577157,251.50135583979136 71.44507094740402,251.0024052511144 72.38923893368337,250.9448339384253 73.49619450402679,254.07284799806075 74.35896869847784,254.82126030426298 77.20775141596096,254.22636873037845 78.99841483851196,257.9875848753145 75.54731806059135,259.15815106392256 75.3682517184061,262.0941271175543 75.01011903391918,262.53547876402445 74.09850856423145,265.7784199930611 73.90316346369218,265.9319305240206 71.96599121572217,265.58653164120915 71.36367715540109,267.88917806893005" stroke="#4DD2FF" stroke-linecap="round" stroke-linejoin="round" stroke-width="0.5"><title>2025-03-25 6.1km</title><desc>1742909450000</desc></polyline></svg>