<?xml version="1.0" encoding="utf-8" ?>
<svg baseProfile="full" height="300mm" version="1.1" viewBox="0,0,200,300" width="200mm" xmlns="http://www.w3.org/2000/svg" xmlns:ev="http://www.w3.org/2001/xml-events" xmlns:xlink="http://www.w3.org/1999/xlink"><defs /><rect fill="#222222" height="300" width="200" x="0" y="0" /><text fill="#FFFFFF" style="font-size:12px; font-family:Arial; font-weight:bold;" x="10" y="20">Over 5km Runs</text><text fill="#FFFFFF" style="font-size:4px; font-family:Arial" x="10" y="280">Runner</text><text fill="#FFFFFF" style="font-size:9px; font-family:Arial" x="10" y="290">Elliont</text><text fill="#FFFFFF" style="font-size:4px; font-family:Arial" x="65" y="280">SPECIAL TRACKS</text><rect fill="yellow" height="2.6" width="2.6" x="65" y="283" /><text fill="#FFFFFF" style="font-size:3px; font-family:Arial" x="70" y="285.5">Over 20.0 km</text><rect fill="red" height="2.6" width="2.6" x="65" y="287" /><text fill="#FFFFFF" style="font-size:3px; font-family:Arial" x="70" y="289.5">Over 40.0 km</text><text fill="#FFFFFF" style="font-size:4px; font-family:Arial" x="120" y="280">STATISTICS</text><text fill="#FFFFFF" style="font-size:3px; font-family:Arial" x="120" y="285">Number: 32</text><text fill="#FFFFFF" style="font-size:3px; font-family:Arial" x="120" y="290">Weekly: 1.8</text><text fill="#FFFFFF" style="font-size:3px; font-family:Arial" x="141" y="285">Total: 207.6 km</text><text fill="#FFFFFF" style="font-size:3px; font-family:Arial" x="141" y="290">Avg: 6.5 km</text><text fill="#FFFFFF" style="font-size:3px; font-family:Arial" x="167" y="285">Min: 5.0 km</text><text fill="#FFFFFF" style="font-size:3px; font-family:Arial" x="167" y="290">Max: 10.1 km</text><polyline fill="none" points="30.28430682612816,46.067906206604675 29.726952850061934,48.90474077640101 42.571428571420256,51.42798115008918 21.26530612242641,47.20264707825845 11.714285714260768,42.85773313562095 20.97396199859213,47.18771633828874 29.01759324420709,48.8002268600103" stroke="#4DD2FF" stroke-linecap="round" stroke-linejoin="round" stroke-width="0.5"><title>2025-08-13 5.0km</title><desc>1755095249000</desc></polyline><polyline fill="none" points="78.82722764360369,52.885988118854584 73.16893297072966,51.75575515687524 66.73316269397037,48.79264712456643 65.53239481683704,48.405705122699146 54.95872660377063,46.36914187434013 51.209566469391575,46.49133692034229 50.38025915855542,46.31822722470679 49.52503599424381,45.809079203121655 49.07582786757848,45.36102665028011 48.66117421214585,44.66857757197431 48.168772996315965,43.283664027418126 49.239961606188444,42.22459864879056 50.483922572399024,41.27753963793657 49.54231322990381,41.939463612077816 48.142857142869616,43.29384729012236 49.05855063191848,45.37120968671661 49.775555911066476,46.04328763746162 50.37162054073997,46.34877601781045 51.209566469391575,46.532068566848466 54.14669652853627,46.35895894662099 55.20924652056419,46.43023941729189 66.02479603263782,48.599176323805295 73.0047992321197,51.75575515687524 79.0,53.00817464778811" stroke="#4DD2FF" stroke-linecap="round" stroke-linejoin="round" stroke-width="0.5"><title>2025-08-12 8.1km</title><desc>1754996616000</desc></polyline><polyline fill="none" points="115.42857142852154,50.7217075769513 109.20669521205127,49.477405197198095 102.18139353831066,46.23994495627994 101.02296613465296,45.85452611778601 94.41806150251068,44.46700613368739 89.43869209807599,43.60805564832117 87.68236667959718,43.5640067087661 85.45893343706848,43.75121456933266 84.57142857142026,43.59704341524048 85.38419618527405,43.75121456933266 87.58894511481049,43.58603118093015 89.45737641106825,43.61906788023043 100.92020241334103,45.86553810499754 102.25613079010509,46.33905242012406 108.91708836116595,49.4113356161688 114.89606850908604,50.64462734344124" stroke="#4DD2FF" stroke-linecap="round" stroke-linejoin="round" stroke-width="0.5"><title>2025-08-10 6.4km</title><desc>1754781124000</desc></polyline><polyline fill="none" points="148.79718839220004,60.05358198146132 143.66083625456668,59.02308375987195 137.8375555635721,56.33636857827514 136.72910267065163,55.96831874871714 127.13552094250917,54.09123967533378 126.27686025080038,54.036030835908605 123.59159408765845,54.19245578729169 123.00614361607586,54.05443378641212 122.18651295581367,53.585157296482066 121.61667449673405,52.94104806559335 121.0780600628641,51.68042007240001 121.0,51.20192860908719 124.41122474794975,48.4045396549991 126.7686386469577,45.86472470063745 128.99335043909377,43.92300305500976 131.7957066965464,42.09167016637366 132.1079469480901,41.94442559608433 132.89635358317173,41.91681721056375 133.2007878284203,41.71435544101405 134.05944852009998,40.766459790596855 134.9415272306651,38.87063656700775 135.73773987210006,38.11597664342844 139.305084745778,36.19248364971281 143.71547829857445,34.23213230424881 143.71547829857445,34.903994934487855 144.49607892739004,35.41018927492405 144.73025911604054,35.704700949121616 144.85515521667548,36.18328022860078 147.61067543638637,41.088561447868415 148.74254634816316,43.57330436510529 149.4528929204098,44.557978553122666 149.46069892667583,44.843255845793465 149.78074518451467,45.3309857591521 150.35838964986033,47.01501267508138 150.8033320082468,47.80640170437255 151.1780203100643,49.44436939401203 151.30291641067015,51.10070891373471 150.95164612773806,53.47473891997652 151.04531820319244,53.61276186804025 151.85714285713038,53.86120260628377 151.7634707817051,54.59731902235217" stroke="#4DD2FF" stroke-linecap="round" stroke-linejoin="round" stroke-width="0.5"><title>2025-08-08 10.0km</title><desc>1754654808000</desc></polyline><polyline fill="none" points="188.28571428573923,51.462935312098125 180.05307735747192,49.780952535249526 170.61298701300984,45.42494879971491 160.86798418976832,43.32596498505154 157.42857142857974,42.822778973612 170.39345002826303,45.42494879971491 180.2970073405304,49.92471258454316 188.07837380014826,51.41980781627353" stroke="#4DD2FF" stroke-linecap="round" stroke-linejoin="round" stroke-width="0.5"><title>2025-08-07 5.0km</title><desc>1754573743000</desc></polyline><polyline fill="none" points="42.57142857136205,85.76402904756833 34.41407215909567,84.13291047577513 25.09137911652215,79.85470502798853 23.901764639711473,79.49698923110554 11.714285714260768,77.09311380957661 14.955378217273392,77.77993984711065 15.222434528404847,77.6654690902069 15.938630999182351,77.96595461432298 24.42373833869351,79.69731019737083 34.52332246815786,84.2473755976389 42.025177025876474,85.74972107792564" stroke="#4DD2FF" stroke-linecap="round" stroke-linejoin="round" stroke-width="0.5"><title>2025-08-04 5.0km</title><desc>1754309955000</desc></polyline><polyline fill="none" points="78.99999999994179,85.01945092346432 72.83231509162579,83.78391574908892 65.71935525798472,80.51850024252053 64.65241128293565,80.16547604445077 53.36526712594787,77.93698239562946 51.38112569868099,77.83769193368062 48.96646301832516,78.02524050230568 48.14285714284051,77.84872421202454 48.32068113872083,77.98111145859002 49.45313921745401,78.05833727250138 52.71948524634354,77.88182103989675 57.202521773055196,78.7643991266159 57.92317691410426,78.77543130404229 59.16794488491723,79.15052462127642 64.53074223315343,80.1765080692785 66.01884830358904,80.70604384726903 72.720005199546,83.77288411717745 78.36357727803988,84.90913589558477" stroke="#4DD2FF" stroke-linecap="round" stroke-linejoin="round" stroke-width="0.5"><title>2025-08-03 6.5km</title><desc>1754227262000</desc></polyline><polyline fill="none" points="111.85447951487731,85.04269579837273 103.66589221963659,83.41241729656758 93.34753782511689,78.8244462274888 84.57142857142026,77.0353830003587 94.10642035474302,79.02643571898807 103.98413328046445,83.54226322226168 115.42857142857974,85.82175985677168 112.11152037174907,85.07155010444694 112.11152037174907,84.85514265569509" stroke="#4DD2FF" stroke-linecap="round" stroke-linejoin="round" stroke-width="0.5"><title>2025-08-01 5.0km</title><desc>1754057984000</desc></polyline><polyline fill="none" points="148.90497884803335,94.30899993523053 143.64106736087706,93.26877437008079 137.84607875041547,90.59911035387631 136.6042954767472,90.20325644221884 127.2323462414497,88.38966946863366 125.52196550602093,88.33443270647695 123.81939472828526,88.48173065865558 123.00715912791202,88.33443270647695 122.33550276604365,87.95698053226079 121.84347543117474,87.48746449955797 121.28115847706795,86.41953596665553 121.0,85.4896906504946 124.44419134399504,82.63564608316665 126.83403839895618,80.0853376131854 129.02082655386766,78.17025393612857 130.66872762775165,77.22190316111664 131.9573706475785,76.27354174125503 132.87113569804933,76.181467250055 133.19915392127587,75.97890301621374 134.19882850637077,74.82796065010916 134.97982427594252,73.09691380585718 135.74520013018628,72.40632670947525 139.40026033195318,70.39898816198547 143.68011714934255,68.5481429219144 143.75040676863864,69.1466794015505 144.37520338431932,69.57946467553847 145.0234298731084,70.73968659746606 145.42173771560192,71.8538529676589 146.40579238531063,73.88878006175219 148.96745850960724,78.68585765763419 149.31109664824908,79.71705566165474 150.32639114873018,81.84386180063302 151.01366742598475,84.20998581314052 151.06052717217244,85.68302566759667 150.96680767979706,86.21699627426278 151.2089163683704,86.39191694628244 150.98242759518325,87.78206309946108 151.8571428571595,88.11348529686074 151.8259030263289,88.56458564395871" stroke="#4DD2FF" stroke-linecap="round" stroke-linejoin="round" stroke-width="0.5"><title>2025-07-28 10.0km</title><desc>1753704756000</desc></polyline><polyline fill="none" points="185.25587812589947,85.21214317223348 177.0604196608183,83.57288382819388 167.67289450991666,79.26973291829927 166.1455590686528,78.75744387006853 157.42857142857974,77.01564649830107 167.10169588960707,79.0940911789221 175.1853981029126,82.89961080535431 177.28393216436962,83.68997444442357 188.28571428573923,85.84149635884387 185.38005173899,85.18287085929478 185.5290600747103,84.23151721745671" stroke="#4DD2FF" stroke-linecap="round" stroke-linejoin="round" stroke-width="0.5"><title>2025-07-22 5.0km</title><desc>1753194638000</desc></polyline><polyline fill="none" points="29.265887137735263,117.34307804885611 39.48754448391264,119.37084833435802 42.57142857136205,119.5542084944318 39.88103711232543,119.40320603432338 23.034062023391016,116.10266618693277 15.68581596337026,112.76965649383783 11.714285714260768,111.87436293414066 15.640061006590258,112.79122973277117 22.530757498694584,115.97323101063375 25.36756481952034,116.57726038624241" stroke="#4DD2FF" stroke-linecap="round" stroke-linejoin="round" stroke-width="0.5"><title>2025-07-19 6.4km</title><desc>1752877000000</desc></polyline><polyline fill="none" points="76.17411054988042,128.67875707601343 70.92266598829883,127.63323908875464 64.95689937131829,124.90372883603413 63.93643929209793,124.57988281700091 54.24206853948999,122.7108045261557 50.88239997095661,122.82184002900613 50.15237852965947,122.68304562777485 49.46945524585317,122.2851670873788 48.80223134791595,121.58193534194288 48.22135407204041,120.27723997304565 48.142857142869616,119.80532394702459 51.5731729476538,116.96451913848432 53.84173420071602,114.50302836752962 56.078896682098275,112.55044171329791 58.81058981723618,110.72737004502414 59.289421085151844,110.49601297381014 60.01944252647809,110.4589957839271 60.537522258993704,110.13509468406846 61.38528909403249,109.12636620063859 62.14670930703869,107.39576740142365 62.95522767750663,106.64613879140961 66.9271722935373,104.48050785073428 70.98546353168786,102.74981435255904 70.99331322457874,103.41618180149817 71.62128865794512,103.83265880107501 72.03732238252996,104.60082212995621 72.89293891051784,106.56284631509334 75.53043573067407,111.52323355633416 76.22120870737126,113.17971624869824 76.40960133739281,113.35554212366696 77.59490496787475,116.39079458307242 77.861794527038,116.77019351343188 78.28567794457194,118.3525463877886 78.36417487377184,119.39817860209587 78.23857978708111,120.98973567232315 77.85394483414711,122.47948009573884 79.0000000000291,122.73856341547071" stroke="#4DD2FF" stroke-linecap="round" stroke-linejoin="round" stroke-width="0.5"><title>2025-07-17 10.0km</title><desc>1752756134000</desc></polyline><polyline fill="none" points="115.42857142857974,120.06858522719995 107.24795394251123,118.43037781595194 96.87283400126034,113.81742136590765 84.57142857142026,111.35998620136525 97.42145961511414,114.04735447830171 107.01631201675627,118.41600748548808 115.05062933900626,120.05421507515712" stroke="#4DD2FF" stroke-linecap="round" stroke-linejoin="round" stroke-width="0.5"><title>2025-07-14 5.0km</title><desc>1752500928000</desc></polyline><polyline fill="none" points="151.85714285710128,120.03684400994098 143.67843181052012,118.4301468997437 135.22227186412783,114.50574162849807 133.21981458726805,113.78056687192293 121.0,111.39172741863877 134.01597229973413,113.99385398316372 143.82318775827298,118.48702147125732 150.98860717075877,119.92309619228763" stroke="#4DD2FF" stroke-linecap="round" stroke-linejoin="round" stroke-width="0.5"><title>2025-06-21 5.0km</title><desc>1750468889000</desc></polyline><polyline fill="none" points="178.5406078887754,117.60931485220499 186.56473982750322,119.21205122456013 188.28571428571013,119.30387364768103 186.8055346076726,119.21205122456013 173.68930128854117,116.6493264992605 172.27994360469165,116.0983712319503 168.06603495194577,114.0948641488576 167.32240401324816,113.85277016331383 158.72461392177502,112.18313564773416 157.42857142857974,112.12469778089871 158.57588773404132,112.14974258644361 161.92576805793215,112.76751186547335 167.95271976132062,114.06981997888943 172.43575199184124,116.19019738485804 173.58306829730282,116.63263094328431 174.82953539458686,116.88306390112848" stroke="#4DD2FF" stroke-linecap="round" stroke-linejoin="round" stroke-width="0.5"><title>2025-06-17 8.1km</title><desc>1750165544000</desc></polyline><polyline fill="none" points="42.571428571420256,154.3038875000493 34.791514749696944,152.75678069112473 24.648989061941393,148.22787058810354 11.714285714260768,145.69611249996524 24.67285382829141,148.2841313152021 34.624461385421455,152.74271599877102 41.18727212457452,154.07885493413778" stroke="#4DD2FF" stroke-linecap="round" stroke-linejoin="round" stroke-width="0.5"><title>2025-06-15 5.0km</title><desc>1749939796000</desc></polyline><polyline fill="none" points="69.46508375639678,151.7687179007553 76.74760587356286,153.2238446634874 79.0,153.36316374838498 77.22697838448221,153.25480448373128 65.03909646431566,150.8863392908388 63.8505153072183,150.4374056181623 59.877633539028466,148.5487570401092 58.991122731298674,148.2546187282278 50.97969172775629,146.70650228451996 50.007813212578185,146.6368362516223 48.142857142869616,146.78390890767332 50.789256072748685,146.69102094978734 58.64965190162184,148.20817572560918 59.601830176630756,148.4713523392129 61.87392454323708,149.54727012324292" stroke="#4DD2FF" stroke-linecap="round" stroke-linejoin="round" stroke-width="0.5"><title>2025-06-11 8.1km</title><desc>1749642919000</desc></polyline><polyline fill="none" points="115.42857142857974,154.29441378919 107.41217526170658,152.7431077760557 97.33783858636161,148.24421524399077 84.57142857142026,145.70558621081 97.48141583113465,148.30062865721993 107.4959286544472,152.81362208888459 114.10048191435635,154.13928402413148" stroke="#4DD2FF" stroke-linecap="round" stroke-linejoin="round" stroke-width="0.5"><title>2025-06-08 5.0km</title><desc>1749387304000</desc></polyline><polyline fill="none" points="132.95444555417635,158.2929684043047 136.27752247732133,156.30879909265786 143.26893106871285,155.0368912530248 146.80779220769182,152.39131184856524 150.64875124860555,152.49306517961668 151.68451548437588,151.6281611577724 144.86573426565155,140.53689698857488 140.24795204773545,141.45269942216692 135.84595404588617,144.04746322892606 133.38601398584433,144.04746322892606 129.458741258597,145.8790525283839 123.02837162814103,147.20186255380395 123.24415584397502,151.37377731702873 121.0,154.17199194300338 122.89890109864064,156.25792284551426 123.7188811188098,158.85260437821853 124.92727272724733,159.61574326141272 132.4365634364076,158.0385881945549 136.40699300682172,156.25792284551426 142.19000998977572,155.4947784744436 147.0235764235258,152.39131184856524 150.43296703277156,152.54394183700788 151.81398601387627,151.37377731702873 144.86573426565155,140.38426307501504 139.73006992973387,141.50357728241943 135.93226773198694,143.99658564585843 132.4797202795744,144.35272861117846 128.25034965015948,146.23519405775005 123.15784215764143,147.10010806948412 123.28731268714182,151.6281611577724 121.0,154.17199194300338 123.02837162814103,156.35967533427174 124.06413586391136,159.00523225445068 125.53146853134967,159.71749501832528 137.35644355602562,156.1052940710797 142.3194805192761,155.54565480459132 146.59200799185783,152.64569513499737 150.56243756227195,152.59481848881114 151.85714285704307,151.32290053216275 144.39100899081677,140.23162911151303 139.29850149829872,141.80884432786843 135.75964035955258,143.99658564585843 123.37362637324259,146.84572176175425 123.33046953054145,151.37377731702873 121.04315684293397,154.0702389778162 122.98521478497423,156.25792284551426 123.7188811188098,158.69997645184048 125.91988011961803,159.76837088848697 143.35524475504644,154.477250705997 145.5130869129207,151.5772844007879 144.86573426565155,148.67730008420767 142.01738261734135,145.11589119344717 139.6005994004663,143.89483046313399 137.52907092892565,143.7930752580287 135.1554445552174,144.75974881029106 131.3144855145365,149.38957860253868 125.18621378624812,150.4071174581768 121.51788211776875,153.3070910310489 121.38841158826835,154.52812714700121 123.45994005980901,157.0210659694858" stroke="#4DD2FF" stroke-linecap="round" stroke-linejoin="round" stroke-width="0.5"><title>2025-06-04 6.4km</title><desc>1749041988000</desc></polyline><polyline fill="none" points="188.28571428573923,154.32262011957937 180.3770010524895,152.74310871458147 171.36752894258825,148.58269629318966 170.00354511721525,148.13138928232365 157.42857142857974,145.67737988043518 170.36248822917696,148.27242289215792 180.19752949656686,152.71490297869605 186.76618844515178,154.0687713715888" stroke="#4DD2FF" stroke-linecap="round" stroke-linejoin="round" stroke-width="0.5"><title>2025-05-28 5.0km</title><desc>1748436903000</desc></polyline><polyline fill="none" points="42.57142857136205,188.5948230346694 34.00271247734781,186.8395724336151 24.07911392400274,182.35062874708092 11.714285714260768,179.96221833310847 23.676311030692887,182.26430141204037 25.16546112112701,182.73910105660616 34.7228752260562,187.11293266687426 42.42495479201898,188.6092102383118" stroke="#4DD2FF" stroke-linecap="round" stroke-linejoin="round" stroke-width="0.5"><title>2025-05-27 5.0km</title><desc>1748351986000</desc></polyline><polyline fill="none" points="70.994017206016,190.65112630651856 71.03525380953215,188.8037984491093 72.00431399233639,186.61007036053343 72.6434813470114,182.54005194648926 72.60224474337883,182.91530597805104 71.67442116409075,183.0307685891603 67.15901307808235,186.23482454268378 65.44769403175451,186.63893538895354 64.76729007356334,185.51319562511344 65.55078554048669,184.2431212374213 66.99406666401774,183.11736549566558 66.76726534462068,181.18335733370623 67.44766930281185,179.94211654034734 66.54046402522363,179.42252466084028 63.22091744141653,179.4802571709588 62.35494876734447,178.21013738887268 62.64360499207396,176.70907441528107 63.282772346632555,176.91114136231772 63.22091744141653,175.9296710678318 64.1693593225209,176.50700722633337 65.90129667054862,176.44927369934157 67.28272288863081,177.37300776148913 69.15898834913969,177.43074097261706 69.92186551436316,177.05547474787454 71.79813097475562,174.42858781386167 71.88060418178793,170.04072945012012 71.20020022359677,169.26129530987237 70.12804853194393,168.8571428571595 68.80847721907776,169.23242730964557 67.63323401869275,170.53148243261967 66.72602874098811,170.84902771975612 64.87038158241194,170.5026146495802 62.911642914870754,169.4345032076817 61.11785066162702,170.04072945012012 60.21064538392238,171.42638125672238 60.25188198755495,172.89862383702712 61.035377454478294,173.99558054823137 62.80855140613858,174.83272692620812 63.22091744141653,175.84307047376933 62.41680367256049,177.71940673155768 62.99411612201948,179.45139091843157 63.138444234384224,181.8472730811627 62.37556706904434,184.44517916567565 62.97349782020319,185.16681264889485 64.72605347004719,185.59979125806422 65.40645742823835,186.63893538895354 63.83946649427526,189.17903855629265 61.90134612843394,189.9583807290619 58.66427275177557,192.32524971527164 56.31378635088913,193.33548856743437 55.7777105049463,194.720949162147 54.45813919219654,196.16412519050937 55.592145789181814,199.3967947235651 56.62306087720208,199.62769732151355 57.983868793584406,198.79067390142882 59.57147802936379,199.45452040275268 60.72610292804893,199.3102061679674 61.63330820563715,198.357729124662 62.293093862128444,195.96208128922444 63.860084795975126,195.09617611640715 67.44766930281185,196.22185197504587 68.80847721907776,195.55799276131438 70.93216230068356,195.44253871860565 71.05587211123202,189.03471553695272 72.68471795052756,183.31942477138364 72.43729832931422,182.91530597805104 71.81874927645549,182.97303729350097 67.17963137978222,186.26368963519053 65.50954893708695,186.61007036053343 63.674520080094226,189.26563230877218 61.71578141266946,190.04497408172756 58.6436544500757,192.32524971527164 56.43749616143759,193.19116910157027 55.7777105049463,194.8075400718226 54.45813919219654,196.2795787397481 55.48905428033322,199.2524804395216 56.169458238524385,199.71428571428987 57.860158983035944,198.79067390142882 59.79827934876084,199.48338323483767 61.09723235981073,198.96385150129208" stroke="#4DD2FF" stroke-linecap="round" stroke-linejoin="round" stroke-width="0.5"><title>2025-05-23 6.4km</title><desc>1747958832000</desc></polyline><polyline fill="none" points="102.80352020007558,185.72675422931206 103.63861132354941,186.52009834515047 105.72633913205937,186.85413720172073 106.77020303637255,188.1902880580601 106.50178088946268,193.45131098118145 105.99476127885282,194.41164420102723 104.17545561725274,194.95443956766394 102.38597463839687,194.3281371145422 100.71579239144921,194.7039187791088 97.882447508513,193.03377362062747 96.18244057858828,193.70183305487444 94.92980389355216,193.49306467805582 95.28770008916035,192.28220457227144 94.39295959996525,189.94397496087186 94.66138174664229,188.27379724377533 93.70699189137667,186.6871178304864 94.12453745305538,184.18181355339766 100.14912341488525,183.931281711848 102.20702654053457,184.6828764652746 103.28071512770839,186.39483365601336 105.57721571717411,186.81238236959325 106.59125493839383,187.77274170081364 106.50178088946268,193.57657205013675 106.05441064480692,194.41164420102723 104.29475434904452,194.91268612079148 102.59474741911981,194.3698906613572 100.65614302549511,194.6621652894246 97.8227981425589,193.07552738877712 94.21401150198653,193.82709399529267 92.27540710824542,195.41372701233195 92.9017254508799,195.8730135931546 93.3789203785127,198.37819791736547 96.30173931049649,199.71428571428987 97.55437599564902,198.83747892206884 98.38946711923927,197.1256089679664 98.27016838721465,195.78950700630958 96.7192848721752,193.32604984789214 98.27016838721465,193.07552738877712 100.68596770858858,194.6621652894246 102.59474741911981,194.11936927310308 102.35614995541982,193.49306467805582 100.41754556179512,193.53481836766878 99.37368165736552,192.19869675743394 100.3578961957246,188.27379724377533 97.79297345946543,184.3488346383092 97.97192155732773,181.2171702843043 98.65788926591631,179.88098126805562 100.02982468286064,179.0876155799051 102.62457210221328,179.92273728561122 104.74212459370028,179.3799085018254 102.35614995541982,181.71823928026424 99.8807012680918,181.59297212770616 98.38946711923927,180.4655648625776 96.09296652977355,179.9644932958472 96.15261589561123,174.87020732970268 97.16665511694737,172.74059726567066 97.22630448278505,169.56702623360616 97.85262282553595,168.94065865554148 99.7614025361836,168.85714285714494 105.24914420442656,169.65054178930586 106.38248215755448,170.652726228931 106.77020303637255,172.74059726567066 107.72459289175458,173.7845260886388 107.0982745491201,174.6196659333218 107.48599542793818,175.1625053005264 105.60704040015116,176.2899370528612 105.3982676191954,178.92059089595568 102.62457210221328,181.6347278523026 100.44737024465576,181.71823928026424 98.29999307007529,180.34029706724687 96.21226526156534,180.0897612838744 96.1227912127506,175.1625053005264 97.40525258076377,170.9032716959773 98.74736331484746,170.40218050465046 98.77718799782451,169.14944802684477 104.89124800858553,169.52526844514068" stroke="#4DD2FF" stroke-linecap="round" stroke-linejoin="round" stroke-width="0.5"><title>2025-05-20 5.0km</title><desc>1747754393000</desc></polyline><polyline fill="none" points="147.7686790197622,186.44204555274337 150.65212193666957,186.79718886243063 151.85714285704307,185.52881865599193 144.71309025702067,174.77290042172535 139.72086072922684,175.99056401493726 135.84757919912226,178.27367466903524 133.4375373579096,178.37514599383576 127.58457860141061,180.60750954423565 122.89360430347733,181.26706945401384 123.28093245672062,185.5795535305224 121.0,188.52216679850244 122.89360430347733,190.19640397818875 123.582187686814,192.53017909338814 124.61506276135333,193.54486027779058 126.55170352663845,193.84926420194097 136.23490735213272,190.70374738963437 142.00179318594746,189.89199766609818 146.9940227137413,186.59424986163503 150.65212193666957,186.6957193731796 151.77106993435882,185.73175812119734 144.88523610285483,174.82363646826707 142.99163179914467,174.87437250930816 136.0197250447236,178.17220332223224 132.83502689772286,178.52735293962178 128.83263598312624,180.3538324070105 122.54931261204183,181.5207460935926 123.45307830255479,184.86926478313399 121.0,188.47143224457977 122.80753138079308,189.99346645880723 123.3670053796377,192.12430600062362 124.65809922292829,193.49412627113634 126.55170352663845,193.7477962494595 137.05260011949576,190.2978727047157 142.6903765690513,189.5875911549083 146.77884040633217,186.6957193731796 150.6951583980117,186.6957193731796 151.77106993435882,185.63028839966864 144.88523610285483,174.87437250930816 143.37895995215513,174.7221643695084 139.50567842205055,175.99056401493726 136.14883442921564,178.17220332223224 133.39450089633465,178.27367466903524 128.23012552317232,180.45530327846063 123.10878661088645,181.36854012633557 123.3670053796377,185.37661399904755 121.08607292291708,188.36996312002884 122.80753138079308,190.094935229572 124.01255230116658,193.0882540185703 126.72384937247261,193.69706226477865 135.4602510461118,190.75448170027812" stroke="#4DD2FF" stroke-linecap="round" stroke-linejoin="round" stroke-width="0.5"><title>2025-05-14 5.0km</title><desc>1747227249000</desc></polyline><polyline fill="none" points="168.35589828551747,199.37968466641905 168.98445045552216,198.80608168304025 169.89686489570886,195.41223334951792 172.63410821615253,195.84244238163228 174.11424719681963,189.91504368979076 173.83038492663763,186.11473205886432 170.97148634737823,178.96805579328793 171.09314160607755,177.36659473412146 173.08017749805003,176.2909799972549 176.04045545950066,175.78902464846033 177.94638784555718,174.47437424422242 179.50763033202384,174.61779103483423 180.09563074901234,173.99631759837212 176.95286989957094,168.97665991623944 176.16211071808357,168.85714285714494 173.99259193823673,169.6459542439552 172.63410821615253,170.57818222579954 171.4581073821755,170.60208545532078 169.0655539613217,171.5582124991488 166.61217291094363,171.91675906621094 166.77437992265914,173.7811917678191 165.61865496519022,175.2392627105728 165.82141372957267,175.76512198410637 166.5107935287524,176.21927216056793 167.20017332804855,177.82074159522017 168.07203601533547,177.91635134091484 175.85797257139347,175.57390057596785 176.7298352586804,174.80901327633183 177.05424928187858,173.7811917678191 176.66900762927253,172.44262630437152 175.31052390730474,170.984536772914 173.64790203853045,170.45866603929608 172.18803893425502,170.86502080781793 170.24155479529873,173.06410414249694 167.46375972195528,173.54216281985282 165.86196548247244,174.97633260099974 165.90251723537222,175.76512198410637 168.07203601533547,177.4383021958056 170.5456929418724,177.17537472193362 175.79714494210202,175.57390057596785 176.93259402317926,174.52217985149764 176.99342165258713,173.37484240128833 176.16211071808357,171.86895289113454 174.19535070261918,170.5303757590009 171.4581073821755,170.62598868220812 168.88307107321452,171.6538249743462 166.57162115816027,172.10798366229574 166.75410404615104,173.8768032740918 165.63893084146548,175.3348735813779 166.5310694052605,176.21927216056793 166.9771386870416,177.51000963394472 168.0112083859276,177.94025377086655 169.2277609728044,177.31878974675783 171.4783832585672,176.93634947226383 170.95121047098655,177.91635134091484 171.012038100278,178.6812278063153 173.5667985327309,185.08696351702383 174.1750748262275,188.0507480961096 173.95204018533695,191.37300741074432 172.93824636284262,195.1732279672724 170.32265830098186,194.79081881408638 169.28858860221226,198.28027763096907 168.49782942072488,198.61488035527873 168.1734153975267,199.71428571428987 167.74762199213728,199.54698525415733" stroke="#4DD2FF" stroke-linecap="round" stroke-linejoin="round" stroke-width="0.5"><title>2025-05-06 7.1km</title><desc>1746539597000</desc></polyline><polyline fill="none" points="23.504964130697772,234.0 23.29588981962297,233.75355387032323 24.27853908156976,230.4757948192273 26.76652338297572,231.06727364783 27.205579436267726,230.3032798696222 28.501840164652094,224.85666882561054 28.4600253024837,222.14563707810885 24.75940999703016,211.89271415969415 23.755853303940967,211.67089098028373 22.334147988818586,212.3610068243288 21.45603588235099,212.18847806066333 19.804348825127818,209.6251780717139 20.93335010483861,208.39281196848606 20.66155350045301,206.421012237799 22.125073677743785,206.3470694134885 27.017412556218915,204.96679892348766 28.606377320131287,203.98088627388643 31.219806208158843,203.19215306005208 34.585902616148815,208.34351718463586 34.16775399399921,209.00899585935986 32.327900056843646,208.83646453908295 30.362601532950066,210.26600579208753 27.372838885057718,210.7096546888497 25.616614672122523,211.5476557865186 23.379519544076174,211.8434201386699 22.020536522264592,212.4103007325466 21.14242441591341,212.04059615853475 20.640646069310606,210.66036040995095 19.84616368729621,210.06882822529587 19.84616368729621,209.6005308154563 20.93335010483861,208.1463379421184 20.640646069310606,206.44565984049405 22.94046349078417,206.149888430562 26.954690262908116,204.86820785190503 30.759842723957263,203.14285714285506 31.345250794896856,203.3400407471927 34.56499518500641,208.34351718463586 34.251383718452416,208.95970120988204 32.47425207449123,208.83646453908295 29.90263804863207,210.43853602197487 27.811894938116893,210.58641897141933 22.125073677743785,212.3610068243288 21.246961571392603,212.11453712169896 20.682460931479,210.66036040995095 19.84616368729621,210.01953380681516 20.912442673696205,208.195632768824 20.66155350045301,206.421012237799 22.85683376644738,206.149888430562 26.787430814118125,204.9421511596738 28.1882286980981,204.07947773222986 30.801657586125657,203.14285714285506 31.282528501586057,203.3400407471927 34.544087753864005,208.31886978875264 34.23047628731001,208.9350538809813 32.327900056843646,208.81181719688175 30.299879239755683,210.29065297587658 27.351931453915313,210.7096546888497 25.240280912374146,211.62159691084526 23.504964130697772,211.76947908685543 22.16688853991218,212.3856537797983 21.18423927796539,212.01594916547765 20.66155350045301,210.66036040995095 19.825256256153807,210.04418101740885 19.804348825127818,209.6251780717139 20.640646069310606,208.81181719688175 19.657996807363816,209.7237670699251 20.577923775999807,210.8082432144438 20.99607239814941,211.94200817005185 21.895091935642995,212.48424157497357 27.101042280555703,210.8575374610955 30.216249515186064,210.48783034921507 32.22336290124804,208.95970120988204 34.08412426954601,208.95970120988204 34.62771747831721,208.39281196848606 31.13617648393847,203.14285714285506 28.48093273350969,203.9315905286494 26.82924567628652,204.99144668465306 25.34481806785334,205.09003770258278 23.065908077405766,206.02665022897418 20.368849464925006,206.56889781383506 20.828812949359417,208.1463379421184 19.762533962959424,209.4526472214202 19.720719100674614,210.0934754305781 20.557016344857402,210.73430182423908 20.93335010483861,211.89271415969415 21.727832486853004,212.3856537797983 24.75940999703016,211.86806715052808 28.02096924930811,220.34647989386576 28.397303009056486,222.26886649872176 28.48093273350969,224.75808642219636 26.99650512507651,230.8454692683008 24.153094494948164,230.50043980126793 23.52587156172376,233.48246281764295 23.19135266414378,233.75355387032323" stroke="#4DD2FF" stroke-linecap="round" stroke-linejoin="round" stroke-width="0.5"><title>2025-04-29 10.1km</title><desc>1745929124000</desc></polyline><polyline fill="none" points="77.81472347251838,215.62814141405397 77.2953326345887,215.18859242422332 77.58832233800786,213.57166853347735 76.85584807943087,215.9891985100403 76.29650410014438,216.0676890634204 74.63178987603169,222.5979533919308 74.4453418829944,222.64504556989414 65.96195819717832,220.96541504572087 55.14797459769761,216.09908527278458 48.14285714284051,214.60775777451636 55.09470374247758,216.1147833749128 63.631358283455484,220.11774361172866 66.05518219369696,221.0282053239789 79.0,223.5711886093777 74.56520130712306,222.61365078628296 74.8448732967372,221.46773650616524 75.63061841047602,221.27936616363877 77.41519205865916,213.77574730635388 77.76145261729835,213.65016040341288 77.2953326345887,214.87462803936796" stroke="#4DD2FF" stroke-linecap="round" stroke-linejoin="round" stroke-width="0.5"><title>2025-04-22 6.3km</title><desc>1745328842000</desc></polyline><polyline fill="none" points="95.52332449762616,233.0932365685585 96.03616560541559,232.866545155106 97.10458457970526,229.3653939953365 99.83973715384491,229.76840690041718 101.27141857938841,224.554373201594 101.03636640508194,219.28984308328654 98.0661616565194,212.0099843430653 98.00205651798751,210.7504699522833 99.60468497953843,209.4405677070754 102.98088893818203,208.88637606146222 105.41688419959974,207.29936536352034 107.01951266103424,207.4505097088695 107.68193242512643,206.87112251512008 106.25025099946652,204.62913230223057 104.32709684583824,205.61158012801025 102.7885735228192,203.8230181473773 101.14320830244105,203.14285714286962 98.0661616565194,203.39476885939075 95.9720604668837,204.32683982353774 93.15143437474035,204.8054693988961 93.57880196452606,206.56883296805609 92.33943595434539,208.3573737059778 93.25827627221588,209.13828151958296 93.72838062094525,210.44818547753675 94.68995769775938,210.95199271594174 98.19437193346675,210.12071018382267 100.22436798457056,209.23904362598842 102.89541542017832,208.88637606146222 105.09635850728955,207.4001282714744 107.01951266103424,207.4253189916344 107.6605640455382,206.82074095138523 106.27161937905475,204.62913230223057 104.34846522531006,205.56119828982628 102.7885735228192,203.79782703478122 101.27141857938841,203.1680483268865 97.95931975916028,203.39476885939075 96.01479722594377,204.3016487658315 93.6856438620016,204.65432332425553 93.36511816969141,204.9062333937909 93.53606520558242,206.64440539186762 92.33943595434539,208.23142058579833 93.21553951327223,209.13828151958296 93.66427548252977,210.4733758654911 94.58311580040026,211.00237337933504 100.26710474363063,209.2138531035598 102.80994190240745,208.93675717507722 105.11772688676137,207.4001282714744 107.10498617892154,207.4001282714744 107.63919566618279,206.7703593767219 106.22888261999469,204.57875024991517 104.24162332783453,205.53600736653607 102.76720514334738,203.79782703478122 101.46373399463482,203.2436218623916 98.60037114366423,203.26881303539267 95.80111343110912,204.32683982353774 93.64290710294154,204.65432332425553 93.34374979010317,204.8810423991963 93.49332844663877,206.87112251512008 92.31806757487357,208.3069924661395 93.2796446516877,209.18866257836635 93.707012241357,210.4733758654911 94.41216876439285,210.9268023801269 103.00225731777027,208.55889855552232 104.0493079124717,207.70241673156852 104.41257036372554,206.41768804633466 104.11341305100359,205.46043458035274 103.06636245618574,204.175693436031 101.42099723580759,203.1932395081676 98.57900276419241,203.29400420570164 95.7156399131054,204.40241298030014 93.32238141074777,204.8054693988961 93.57880196452606,206.51845133844472 92.33943595434539,208.25661121528537 93.38648654916324,209.54132968177146 92.98048733896576,210.32223349632113 94.04890631325543,212.51378817818477 94.88227311312221,216.19152291689534 95.24553556437604,220.32260724596563 95.16006204637233,223.04303710800014 93.06596085696947,233.2947398605611 94.58311580040026,234.0" stroke="#4DD2FF" stroke-linecap="round" stroke-linejoin="round" stroke-width="0.5"><title>2025-04-15 8.8km</title><desc>1744723077000</desc></polyline><polyline fill="none" points="151.65435769065516,215.2749149510928 150.758723204548,215.21515681115852 151.41777499613818,213.2829664300225 150.64043185743503,216.5099121384992 150.82631826016586,217.00789251597598 149.79549366299761,220.4339607584261 148.7984665937256,220.45387957216008 148.8153653575573,221.29046779124474 147.6662494133925,225.01523079657636 136.46236895641778,222.78436580755806 123.61930840241257,216.82861973629042 121.0,216.07168828466092 123.80519480525982,216.96805413566472 136.44547019246966,222.80428436538205 147.70004694111412,224.99531247955747 148.07181974657578,223.5014325214288 148.916757940955,223.40184009038785 149.6434047879884,221.29046779124474 151.8571428571595,212.12762634629325 151.26568612124538,215.4143505351094" stroke="#4DD2FF" stroke-linecap="round" stroke-linejoin="round" stroke-width="0.5"><title>2025-04-11 5.1km</title><desc>1744377642000</desc></polyline><polyline fill="none" points="166.30775050469674,234.0 167.3513935136143,232.84512846804864 167.62827839364763,233.6987297233718 168.67192140268162,232.84512846804864 169.8433574330993,229.30516011276632 172.5909073955845,229.93281804166327 173.08078064466827,229.75707399386738 174.3587108597858,224.25872824942053 174.44390620756894,221.24588043233962 173.9114352845354,218.5593912453187 170.84440276829991,211.88069364320836 170.75920742063317,210.75081964377023 172.25012600491755,209.49539759146865 175.67923874873668,208.94300972174096 178.06470848363824,207.31094691669568 179.61952357867267,207.46159935212927 180.40758054470643,206.8087714203284 178.72497242805548,204.1723321101308 176.9571689638542,205.2018024780118 174.86988294590265,203.4441673654801 172.99558529700153,203.34373066837725 171.99453996191733,203.82080458960263 169.9711504545994,206.03039723835536 167.0745086336974,206.45724792177498 165.39190051716287,207.91355606765137 165.30670516949613,208.39062052796362 166.17995748319663,209.11876964208204 166.54203771078028,210.29886849276954 167.50048537214752,210.85125311241427 175.91352595493663,208.491055025268 177.06366314855404,207.38627314670885 177.19145616993774,206.155941639081 175.9348247917369,204.19744119817915 173.9114352845354,203.14285714285506 171.18518415896688,203.29351230341126 168.5228295441484,204.3229865975445 166.22255515703,204.7247314159613 166.41424468928017,206.48235676092736 165.30670516949613,207.838230009962 165.30670516949613,208.3152946261689 166.17995748319663,209.04344397837122 167.0958074707305,210.8261447492987 168.03295629506465,210.85125311241427 169.2895876732655,210.1984347833495 170.4397248668829,210.29886849276954 173.80494109995198,219.21218589058844 174.209619001369,221.5471669864346 174.08182597986888,223.95744524004112 172.8890911124181,229.05409646268527 170.1415411499329,228.6272876298026 169.05530046718195,231.941311928691" stroke="#4DD2FF" stroke-linecap="round" stroke-linejoin="round" stroke-width="0.5"><title>2025-04-08 5.6km</title><desc>1744119870000</desc></polyline><polyline fill="none" points="22.7867554750992,265.6831929619948 23.622172233299352,264.4639829607768 24.258680239436217,261.7441819198575 26.904166640364565,262.2365622420184 28.316418779315427,256.7968695047748 28.376091404818,254.59281693365483 27.99816477613058,252.43563724345586 25.29300574969966,245.72948403769988 25.29300574969966,244.4398152337526 26.784821389359422,243.33772849549132 29.907688795006834,242.86875370357302 31.976339815184474,241.46182319590298 33.76651858270634,241.46182319590298 34.2438995874254,240.85215045281802 32.67252044705674,238.36654370142787 30.743105553090572,239.11691857622645 28.91314503515605,237.5927168714552 25.969295506249182,237.52236883986916 23.244245604495518,238.53068842891662 20.97668583225459,238.95277429597627 21.096031083492562,240.85215045281802 20.04181469825562,242.11839191081526 20.817558830836788,243.00944624847034 21.275048960233107,244.32257223200577 22.50828322232701,244.74464673941839 23.602281357976608,244.15843192221655 25.452132751233876,243.94739419713733 27.26220239396207,243.150138701385 30.027034046128392,242.75150984591164 32.11557594151236,241.36802750173956 31.79732193844393,242.00114764439058 32.314484693459235,241.22733388376946 33.846082083531655,241.34457857183588 34.18422696180642,240.75835449284932 32.950992699712515,238.76518067950383 31.200595682603307,239.67969801521394 29.808234418858774,238.06170316123462 28.336309654521756,237.42857142857974 25.830059379921295,237.49891949088487 23.38348173093982,238.48378994813538 21.036358457873575,238.8589775081491 21.016467582667246,240.9459463718813 20.101487323758192,241.8839033140539 20.04181469825562,242.3528802521323 20.8374497059267,243.05634374299552 21.05624933319632,244.0411887671653 22.13035659363959,244.72119817743078 23.542608732474037,244.13498329627328 25.37256925040856,243.94739419713733 27.043402766808867,243.1970361651911 28.63467278238386,242.98599749739515 28.81369065924082,244.32257223200577 32.89132007420994,252.599771240697 28.73412715829909,254.0535240379977 28.495436656055972,257.7347573705774 27.481002020998858,261.6972884971037 26.96383926598355,262.09588226495543 25.531696251942776,268.2857142857101 20.04181469825562,266.87894990966015 20.87723145633936,263.2916591397516 21.15570370911155,263.15097985215834 20.678322704392485,265.44873003645625" stroke="#4DD2FF" stroke-linecap="round" stroke-linejoin="round" stroke-width="0.5"><title>2025-04-02 6.9km</title><desc>1743601029000</desc></polyline><polyline fill="none" points="58.72035857231822,268.2857142857101 59.45832895243075,267.6205118386133 60.47846447804477,263.96186470633256 63.88615123357158,264.7805878950021 65.29697696038056,258.3074797712907 64.86287673667539,253.52289388689678 61.54201002593618,245.94923247917905 61.52030501468107,245.25837958687043 62.171455350122415,244.33723923563957 63.32182094268501,243.7743183534767 67.0116728435969,243.10904648028372 68.72636872692965,241.7273219524941 69.39922407350969,241.62497166403045 69.4209290847648,240.70381706063927 68.55272863747086,238.9382606374129 67.85816827963572,238.98943637279444 67.18531293305568,238.22179917212634 66.62098264228553,238.34973887981323 65.36209199379664,237.58209958802036 64.01638130052015,237.47974749282002 62.62726058496628,237.96591954762698 60.76062962342985,240.26882613076305 57.93897816981189,240.6782293811557 55.83359208528418,242.36701024448848 57.09248273365665,244.72104815440252 58.52501347172074,245.3095539449132 63.49546103226021,243.64638160112372 66.70780268707313,243.18580871575978 69.1604689505184,241.4970337406994 70.78834478917997,241.7017343845073 71.35267507995013,241.08763191782054 69.59456917422358,238.45209059579065 67.66282317903824,239.50119311244634 66.49075257522054,238.14503531406808 64.97140179260168,237.4285714285652 62.12804532784503,237.55651156838576 59.54514899721835,238.63120599144895 56.78861257713288,239.09178780989896 56.96225266659167,241.1132195526152 55.790182062773965,242.62288507347694 56.745202554855496,243.5184447792126 57.17930277844425,244.79780986293918 58.45989843807183,245.3351411196927 59.78390412020963,244.66987366812828 61.04279476869851,244.59311191787128 62.518735529039986,248.76379733072827 63.669101121718995,249.76168040565972 67.46747807832435,248.96849164048035 69.85502930846997,253.98344650040963 65.25356693787035,255.54420141853916 65.01481181487907,259.4588361567148 64.53730156901293,260.04730501867016 63.32182094268501,264.3712266573857 63.06136080867145,264.57590736533166 60.47846447804477,264.11537552157824 59.675379064283334,267.1855707585637" stroke="#4DD2FF" stroke-linecap="round" stroke-linejoin="round" stroke-width="0.5"><title>2025-03-25 6.1km</title><desc>1742909450000</desc></polyline></svg>