<?xml version="1.0" encoding="utf-8" ?>
<svg baseProfile="full" height="300mm" version="1.1" viewBox="0,0,200,300" width="200mm" xmlns="http://www.w3.org/2000/svg" xmlns:ev="http://www.w3.org/2001/xml-events" xmlns:xlink="http://www.w3.org/1999/xlink"><defs /><rect fill="#222222" height="300" width="200" x="0" y="0" /><text fill="#FFFFFF" style="font-size:12px; font-family:Arial; font-weight:bold;" x="10" y="20">Over 5km Runs</text><text fill="#FFFFFF" style="font-size:4px; font-family:Arial" x="10" y="280">Runner</text><text fill="#FFFFFF" style="font-size:9px; font-family:Arial" x="10" y="290">Elliont</text><text fill="#FFFFFF" style="font-size:4px; font-family:Arial" x="65" y="280">SPECIAL TRACKS</text><rect fill="yellow" height="2.6" width="2.6" x="65" y="283" /><text fill="#FFFFFF" style="font-size:3px; font-family:Arial" x="70" y="285.5">Over 20.0 km</text><rect fill="red" height="2.6" width="2.6" x="65" y="287" /><text fill="#FFFFFF" style="font-size:3px; font-family:Arial" x="70" y="289.5">Over 40.0 km</text><text fill="#FFFFFF" style="font-size:4px; font-family:Arial" x="120" y="280">STATISTICS</text><text fill="#FFFFFF" style="font-size:3px; font-family:Arial" x="120" y="285">Number: 26</text><text fill="#FFFFFF" style="font-size:3px; font-family:Arial" x="120" y="290">Weekly: 1.6</text><text fill="#FFFFFF" style="font-size:3px; font-family:Arial" x="141" y="285">Total: 168.0 km</text><text fill="#FFFFFF" style="font-size:3px; font-family:Arial" x="141" y="290">Avg: 6.5 km</text><text fill="#FFFFFF" style="font-size:3px; font-family:Arial" x="167" y="285">Min: 5.0 km</text><text fill="#FFFFFF" style="font-size:3px; font-family:Arial" x="167" y="290">Max: 10.1 km</text><polyline fill="none" points="44.20000000001164,51.77042346964299 37.723930846201256,50.473111536543 30.255323020915966,47.04442525465129 29.13503184716683,46.67374984667549 17.283530482265633,44.333831515410566 15.200181983644143,44.229576530364284 12.664786169305444,44.42650252742169 11.799999999988358,44.24116042262176 11.986715195700526,44.38016703152243 13.175796178344171,44.461254136127536 16.605459508660715,44.27591209189268 21.312647861719597,45.202619082941965 22.06933575979201,45.21420286924695 23.37634212919511,45.60805085233733 29.007279344834387,46.68533347274206 30.56979071884416,47.241346039634664 37.60600545955822,50.46152832303778 43.53175614197971,51.65459269036364" stroke="#4DD2FF" stroke-linecap="round" stroke-linejoin="round" stroke-width="0.5"><title>2025-08-03 6.5km</title><desc>1754227262000</desc></polyline><polyline fill="none" points="76.44720349065028,51.79483058828919 67.84918683063006,50.083038161392324 57.01491471636109,45.2656685388647 47.79999999998836,43.38715215037519 57.81174137245398,45.47775750492292 68.18333994445857,50.2193763833784 80.20000000001164,52.61284784961026 76.71709639031906,51.825127609670744 76.71709639031906,51.5978997884813" stroke="#4DD2FF" stroke-linecap="round" stroke-linejoin="round" stroke-width="0.5"><title>2025-08-01 5.0km</title><desc>1754057984000</desc></polyline><polyline fill="none" points="113.10022779041901,61.524449931988784 107.57312072892091,60.43221308858483 101.4883826879086,57.6290658715734 100.18451025054674,57.21341926432797 90.34396355351782,55.30915294206352 88.54806378131616,55.25115434180043 86.76036446468788,55.40581719158217 85.90751708426978,55.25115434180043 85.20227790431818,54.854829558869824 84.6856492027,54.3618377245366 84.09521640089224,53.240512764990854 83.79999999998836,52.26417518301605 87.41640091114095,49.26742838732025 89.92574031889671,46.58960449384176 92.22186788154067,44.578766632934276 93.95216400909703,43.582998319172475 95.30523917995743,42.58721882831014 96.26469248291687,42.49054061255447 96.60911161731929,42.277848167024786 97.6587699316733,41.06935868260916 98.47881548971054,39.25175949615368 99.28246013668831,38.52664304494829 103.1202733485261,36.41893757008074 107.61412300678785,34.475550068011216 107.68792710703565,35.10401337163057 108.34396355351782,35.55843790931249 109.02460136672016,36.77667092734191 109.44282460134127,37.94654561603966 110.47608200454852,40.08321906484343 113.16583143506432,45.12015054051153 113.52665148061351,46.20290844473493 114.59271070614341,48.43605489066249 115.31435079724179,50.92048510379391 115.36355353074032,52.467176950973226 115.26514806377236,53.02784608797083 115.5193621867511,53.21151279359037 115.28154897489003,54.67116625442577 116.19999999998254,55.01915956169978 116.16719817763078,55.4928149261541" stroke="#4DD2FF" stroke-linecap="round" stroke-linejoin="round" stroke-width="0.5"><title>2025-07-28 10.0km</title><desc>1753704756000</desc></polyline><polyline fill="none" points="149.01867203216534,51.97275033085316 140.41344064386794,50.25152801962395 130.55653923540376,45.73321956422296 128.95283702207962,45.195316063574865 119.79999999998836,43.36642882322485 129.95678068406414,45.548795737864566 138.44466800807277,49.544591345635126 140.6481287726201,50.374473166652024 152.20000000001164,52.6335711767897 149.14905432594242,51.942014402273344 149.30551307846326,50.94309307834192" stroke="#4DD2FF" stroke-linecap="round" stroke-linejoin="round" stroke-width="0.5"><title>2025-07-22 5.0km</title><desc>1753194638000</desc></polyline><polyline fill="none" points="174.22918149462203,49.71023195129237 184.96192170813447,51.83939075106173 188.19999999995343,52.031918919150485 185.37508896790678,51.87336633603263 167.6857651245664,48.407799496271764 159.97010676155332,44.908139318518806 155.79999999998836,43.96808108084224 159.92206405696925,44.930791219405364 167.15729537361767,48.271892561155255 170.135943060508,48.90612340554799" stroke="#4DD2FF" stroke-linecap="round" stroke-linejoin="round" stroke-width="0.5"><title>2025-07-19 6.4km</title><desc>1752877000000</desc></polyline><polyline fill="none" points="41.232816077332245,102.41269492981519 35.718799287686124,101.31490104319528 29.454744339862373,98.44891527784057 28.383261256676633,98.10887695785641 18.204171966412105,96.14634475246567 14.676519969449146,96.26293203046225 13.90999745609588,96.11719790916686 13.192928008124,95.69942544175137 12.492342915269546,94.96103210904403 11.882421775604598,93.59110197170958 11.799999999988358,93.09559014438128 15.401831594994292,90.11274509541545 17.783820910699433,87.52817978591338 20.13284151616972,85.47796379897045 23.001119308086345,83.56373854728008 23.503892139386153,83.32081362250756 24.270414652768523,83.28194557312236 24.814398371905554,82.9418494182828 25.704553548712283,81.88268451067415 26.504044772329507,80.0655557715072 27.352989061328117,79.27844573098992 31.523530908161774,77.00453324327827 35.784736708243145,75.18730507019063 35.7929788857582,75.88699089158035 36.452353090804536,76.3242917411335 36.88918850160553,77.13086323645985 37.787585855985526,79.19098863085674 40.556957517168485,84.39939523415524 41.28226914271363,86.13870206113643 41.48008140421007,86.32331922985759 42.72465021623066,89.51033431223186 43.00488425337244,89.90870318910311 43.4499618417467,91.57017370717949 43.53238361742115,92.66808753220539 43.40050877639442,94.33922245594295 42.99664207579917,95.90345410053123 44.19999999998254,96.17549158624752" stroke="#4DD2FF" stroke-linecap="round" stroke-linejoin="round" stroke-width="0.5"><title>2025-07-17 10.0km</title><desc>1752756134000</desc></polyline><polyline fill="none" points="80.19999999995343,93.37201448855922 71.61035163962515,91.65189670675318 60.7164757012506,86.80829243420158 47.79999999998836,84.22798551143205 61.292532595805824,87.04972220222407 71.36712761753006,91.63680785975885 79.80316080595367,93.3569258289208" stroke="#4DD2FF" stroke-linecap="round" stroke-linejoin="round" stroke-width="0.5"><title>2025-07-14 5.0km</title><desc>1752500928000</desc></polyline><polyline fill="none" points="116.20000000001164,93.33868621043803 107.61235340102576,91.6516542447207 98.73338545736624,87.53102870992734 96.63080531661399,86.76959521551908 83.79999999998836,84.2613137895678 97.46677091473248,86.99354668233718 107.764347146207,91.71137254482892 115.28803752933163,93.21925100189401" stroke="#4DD2FF" stroke-linecap="round" stroke-linejoin="round" stroke-width="0.5"><title>2025-06-21 5.0km</title><desc>1750468889000</desc></polyline><polyline fill="none" points="141.96763828318217,90.78978059480869 150.3929768188682,92.47265378577868 152.19999999998254,92.56906733006326 150.64581133803586,92.47265378577868 136.8737663529464,89.78179282421479 135.39394078491023,89.20328979354235 130.96933669951977,87.09960735629284 130.18852421388146,86.84540867147734 121.1608446178434,85.09229243011214 119.79999999998836,85.03093266993528 121.00468212072155,85.05722971576324 124.52205646081711,85.70588745874556 130.85035574936774,87.07331097783026 135.5575395914202,89.29970725409657 136.7622217121534,89.76426249044744 138.07101216429146,90.02721709617617" stroke="#4DD2FF" stroke-linecap="round" stroke-linejoin="round" stroke-width="0.5"><title>2025-06-17 8.1km</title><desc>1750165544000</desc></polyline><polyline fill="none" points="188.19999999995343,93.3190818750445 180.03109048720216,91.6946197256766 169.38143851503264,86.93926411750726 155.79999999998836,84.28091812494677 169.40649651968852,86.99833788095566 179.85568445472745,91.67985179870448 186.74663573078578,93.08279768083594" stroke="#4DD2FF" stroke-linecap="round" stroke-linejoin="round" stroke-width="0.5"><title>2025-06-15 5.0km</title><desc>1749939796000</desc></polyline><polyline fill="none" points="34.188337944215164,131.45715379578905 41.83498616723227,132.98503689665813 44.19999999998254,133.13132193580532 42.338327303674305,133.0175447079164 29.541051287495065,130.5306562553742 28.293041072553024,130.05927589906787 24.121515215956606,128.07619489211356 23.190678867831593,127.76734966463846 14.778676314104814,126.14182739874377 13.75820387317799,126.06867806419905 11.799999999988358,126.22310435305553 14.57871887634974,126.12557199727598 22.832134496682556,127.71858451188746 23.831921685457928,127.994919956167 26.21762077038875,129.1246336293989" stroke="#4DD2FF" stroke-linecap="round" stroke-linejoin="round" stroke-width="0.5"><title>2025-06-11 8.1km</title><desc>1749642919000</desc></polyline><polyline fill="none" points="80.19999999995343,134.1091344786546 71.78278402477736,132.48026316486357 61.20473051565932,127.75642600619176 47.79999999998836,125.0908655213425 61.35548662266228,127.81566009008384 71.8707250871812,132.5543031933339 78.80550601007417,133.94624822532933" stroke="#4DD2FF" stroke-linecap="round" stroke-linejoin="round" stroke-width="0.5"><title>2025-06-08 5.0km</title><desc>1749387304000</desc></polyline><polyline fill="none" points="96.35216783173382,138.30761682454613 99.8413986011874,136.22423904729658 107.18237762222998,134.88873581567896 110.89818181819282,132.1108774410095 114.9311888110824,132.2177184386237 116.01874125842005,131.30956921569305 108.85902097891085,119.66374183804146 104.01034965016879,120.62533439332037 99.38825174816884,123.34983639040729 96.80531468521804,123.34983639040729 92.68167832144536,125.27300515482784 85.92979020951316,126.66195568151306 86.15636363625526,131.042466182902 83.80000000004657,133.98059154016664 85.79384615365416,136.17081898782635 86.65482517471537,138.89523459714837 87.92363636358641,139.696530424495 95.808391608065,138.04051760429866 99.97734265727922,136.17081898782635 106.04951048921794,135.36951739818323 111.12475524446927,132.1108774410095 114.70461538434029,132.27113892888883 116.15468531451188,131.042466182902 108.85902097891085,119.50347622879781 103.46657342626713,120.67875614657532 99.47888111858629,123.29641492819064 95.85370629350655,123.67036504176212 91.41286713257432,125.64695376067539 86.06573426560499,126.55511347297579 86.20167832146399,131.30956921569305 83.80000000004657,133.98059154016664 85.92979020951316,136.27765910100425 87.01734265708365,139.0554938671994 88.55804195790552,139.80336976927356 100.9742657339666,136.0105587746657 106.18545454507694,135.42293754484854 110.67160839145072,132.37797989178216 114.84055944019929,132.32455941327498 116.19999999995343,130.98904555878835 108.36055944045074,119.34321056710905 103.01342657301575,120.9992865442764 99.29762237751856,123.29641492819064 86.29230769188143,126.28800784988562 86.24699300690554,131.042466182902 83.84531468502246,133.8737509267521 85.88447552430443,136.17081898782635 86.65482517471537,138.73497527444852 88.96587412571535,139.8567894329317 107.27300699264742,134.30111324132304 109.53874125843868,131.25614862082875 108.85902097891085,128.2111650884326 105.86825174815021,124.47168575314572 103.33062937040813,123.18957198632415 101.15552447526716,123.08272902094177 98.66321678296663,124.09773625084199 94.63020979007706,128.95905753268744 88.19552447553724,130.02747333110892 84.3437762237154,133.07244558262755 84.20783216762356,134.35453350437456 86.38293706276454,136.97211926797172" stroke="#4DD2FF" stroke-linecap="round" stroke-linejoin="round" stroke-width="0.5"><title>2025-06-04 6.4km</title><desc>1749041988000</desc></polyline><polyline fill="none" points="152.19999999995343,134.1387511255598 143.89585110504413,132.48026415031927 134.43590538966237,128.11183110786078 133.0037223729887,127.63795874643256 119.79999999998836,125.06124887445185 133.38061264058342,127.78604403676582 143.70740597130498,132.45064812763303 150.60449786734534,133.87220994017844" stroke="#4DD2FF" stroke-linecap="round" stroke-linejoin="round" stroke-width="0.5"><title>2025-05-28 5.0km</title><desc>1748436903000</desc></polyline><polyline fill="none" points="188.20000000001164,134.12456418640795 179.2028481012676,132.2815510553046 168.78306962025817,127.56816018444079 155.79999999998836,125.06032924975443 168.36012658226537,127.47751648264239 169.9237341772532,127.97605610944447 179.95901898737065,132.56857930020487 188.0462025316665,134.1396707502281" stroke="#4DD2FF" stroke-linecap="round" stroke-linejoin="round" stroke-width="0.5"><title>2025-05-27 5.0km</title><desc>1748351986000</desc></polyline><polyline fill="none" points="35.79371806641575,177.08368262184376 35.837016500066966,175.14398837155022 36.85452969209291,172.84057387856592 37.52565541444346,168.56705454380426 37.48235698067583,168.96107127694995 36.50814222241752,169.08230701861612 31.766963732079603,172.44656576981652 29.970078733516857,172.87088215838594 29.255654577398673,171.68885540636256 30.078324817703106,170.3552772992989 31.593769997358322,169.17323377044522 31.35562861186918,167.14252520039736 32.07005276798736,165.83922236735816 31.117487226612866,165.2936508938874 27.631963313557208,165.35427002950746 26.722696205833927,164.02064425831486 27.025785241741687,162.44452813603857 27.69691096409224,162.65669843043725 27.631963313557208,161.62615462121903 28.627827288699336,162.23235758765077 30.446361504262313,162.17173738431302 31.896859033266082,163.14165814955777 33.866937766666524,163.20227802124282 34.667958790203556,162.8082484852639 36.638037523604,160.0500172045431 36.72463439090643,155.4427659226203 36.01021023490466,154.62436007535143 34.88445095869247,154.20000000001164 33.49890108022373,154.59404867512058 32.264895719708875,155.95805655424192 31.312330178217962,156.29147910574102 29.363900661701337,155.92774538205413 27.30722506076563,154.80622836806288 25.423743194784038,155.4427659226203 24.471177653293125,156.8977003195614 24.514476087060757,158.44355502886174 25.33714632736519,159.59535957562912 27.198978976579383,160.4743632725149 27.631963313557208,161.53522399745998 26.78764385636896,163.5053770681261 27.393821928300895,165.32396046434587 27.54536644613836,167.83963673521066 26.744345422601327,170.56743812395143 27.372172711300664,171.32515328133013 29.212356143747456,171.77978082097252 29.926780299749225,172.87088215838594 28.28143981914036,175.5379904841102 26.24641343508847,176.3562997655099 22.847486389568076,178.8415122010192 20.379475668538362,179.90226299580536 19.816596030374058,181.35699662024854 18.43104615190532,182.87233145003847 19.62175307876896,186.26663445973827 20.704213921213523,186.50908218759287 22.13306223344989,185.63020759649226 23.800051930942573,186.3272464228794 25.012408074573614,186.17571647636942 25.964973616064526,185.175615580898 26.657748555298895,182.66018535368494 28.30308903590776,181.75098492222605 32.07005276798736,182.9329445737967 33.49890108022373,182.23589239937428 35.7287704157643,182.11466565453156 35.85866571695078,175.386451313796 37.568953848211095,169.38539600995136 37.30916324595455,168.96107127694995 36.6596867403714,169.02168915818038 31.78861294896342,172.4768741169537 30.03502638405189,172.84057387856592 28.108246084302664,175.62891392421443 26.051570483483374,176.44722278580593 22.82583717268426,178.8415122010192 20.509370969608426,179.75072755664587 19.816596030374058,181.44791707542026 18.43104615190532,182.99355767673114 19.513506994466297,186.11510446149623 20.22793115058448,186.60000000000582 22.00316693226341,185.63020759649226 24.0381933163153,186.35755239658465 25.402093977900222,185.8120440763596" stroke="#4DD2FF" stroke-linecap="round" stroke-linejoin="round" stroke-width="0.5"><title>2025-05-23 6.4km</title><desc>1747958832000</desc></polyline><polyline fill="none" points="66.94369621016085,171.91309194079076 67.82054188963957,172.74610326241236 70.01265608868562,173.09684406181623 71.10871318809222,174.49980246096675 70.82686993398238,180.02387653024925 70.29449934279546,181.03222641107277 68.38422839809209,181.6021615460486 66.50527337042149,180.94454397028312 64.75158201099839,181.3391147180664 61.776569883921184,179.58546230166394 59.99156260758173,180.28692470761598 58.67629408824723,180.06771791195206 59.05208509368822,178.79631480088574 58.11260757991113,176.3411737089191 58.39445083402097,174.5874871059641 57.39234148594551,172.92147372201725 57.83076432568487,170.29090423107846 64.15657958562952,170.02784579743457 66.31737786752637,170.81702028855216 67.44475088408217,172.6145753388264 69.85607650293969,173.05300148807873 70.92081768531352,174.06137878586014 70.82686993398238,180.15540065265668 70.35713117709383,181.03222641107277 68.509492066456,181.55832042684779 66.72448479011655,180.98838519443234 64.68895017681643,181.2952735539002 61.71393804962281,179.6293037582218 57.924712077132426,180.4184486950544 55.889177463715896,182.08441336294345 56.54681172338314,182.56666427281743 57.047866397420876,185.19710781323374 60.116826276062056,186.60000000000582 61.43209479551297,185.67935286817374 62.3089404751081,183.88188941637054 62.18367680651136,182.47898235663888 60.555249115801416,179.89235234029184 62.18367680651136,179.6293037582218 64.72026609408204,181.2952735539002 66.72448479011655,180.72533773675968 66.47395745315589,180.06771791195206 64.43842283985578,180.11155928605876 63.34236574033275,178.70863159530563 64.3757910055574,174.5874871059641 61.682622132473625,170.46627637022175 61.87051763525233,167.1780287985166 62.59078372921795,165.77503033146786 64.03131591703277,164.94199635890254 66.75580070738215,165.81887414988887 68.97923082346097,165.24890392691304 66.47395745315589,167.7041512442811 63.874736331403255,167.5726207340922 62.3089404751081,166.38884310571302 59.897614856250584,165.86271796064102 59.96024669043254,160.5137176961871 61.02498787280638,158.2776271289622 61.087619706988335,154.94537754528574 61.745253966772,154.28769158832438 63.749472662922926,154.20000000001164 69.51160141464788,155.03306887876533 70.70160626550205,156.08536254038336 71.10871318809222,158.2776271289622 72.1108225362841,159.37375239307585 71.45318827650044,160.25064923000173 71.86029519932345,160.82063056556217 69.88739242020529,162.00443390550208 69.66818100016098,164.76662044075783 66.75580070738215,167.61646424492938 64.46973875688855,167.7041512442811 62.214992723660544,166.2573119206063 60.0228785246145,165.99424934806302 59.92893077339977,160.82063056556217 61.275515209767036,156.34843528078636 62.684731480665505,155.82228952988226 62.716047397698276,154.50692042818991 69.13581040897407,154.90153186740645" stroke="#4DD2FF" stroke-linecap="round" stroke-linejoin="round" stroke-width="0.5"><title>2025-05-20 5.0km</title><desc>1747754393000</desc></polyline><polyline fill="none" points="111.90711297094822,172.66414783036453 114.93472803360783,173.03704830553033 116.20000000018626,171.70525958877988 108.69874477013946,160.4115454427956 103.45690376590937,161.69009221566375 99.38995815929957,164.08735840246663 96.85941422590986,164.19390329351882 90.71380753163248,166.53788502144744 85.7882845189888,167.23042292671744 86.19497907953337,171.75853120701504 83.80000000004657,174.84827513841446 85.7882845189888,176.6062241770851 86.5112970713526,179.0566880480328 87.59581589954905,180.1221032916801 89.6292887032032,180.44172741202055 99.79665271984413,177.138934759103 105.85188284539618,176.28659754939144 111.09372384962626,172.82396235471242 114.93472803360783,172.93050534185022 116.1096234312281,171.91834602723247 108.87949790805578,160.46481829168624 106.89121338911355,160.5180911347561 99.5707112972159,163.98081348833512 96.22677824273705,164.3537205866014 92.02426778245717,166.27152402733918 85.42677824292332,167.49678339826642 86.37573221791536,171.01272802229505 83.80000000004657,174.7950038568233 85.69790795003064,176.3931397817505 86.28535564872436,178.63052130065626 87.64100418426096,180.06883258468588 89.6292887032032,180.3351860619441 100.65523012564518,176.7127663399442 106.57489539775997,175.96697071264498 110.86778242676519,172.93050534185022 114.97991631808691,172.93050534185022 116.1096234312281,171.81180281963316 108.87949790805578,160.5180911347561 107.29790794989094,160.3582725879678 103.23096234328113,161.69009221566375 99.70627615065314,163.98081348833512 96.81422594143078,164.08735840246663 91.3916317995172,166.3780684423691 86.01422594161704,167.33696713263635 86.28535564872436,171.5454446989752 83.89037656923756,174.6884612760041 85.69790795003064,176.49968199103023 86.96317991637625,179.64266671947553 89.81004184111953,180.28191537800012 98.98326359852217,177.19220578527893" stroke="#4DD2FF" stroke-linecap="round" stroke-linejoin="round" stroke-width="0.5"><title>2025-05-14 5.0km</title><desc>1747227249000</desc></polyline><polyline fill="none" points="131.27369319985155,186.2486688997451 131.93367297830991,185.64638576719153 132.8917081404943,182.08284501699382 135.76581362693105,182.53456450071826 137.3199595566839,176.31079587427666 137.02190417295787,172.3204686618119 134.02006066485774,164.81645858295087 134.14779868652113,163.13492447082535 136.23418637306895,162.005528997106 139.34247823245823,161.4784758808819 141.34370723797474,160.0980929564248 142.9830118486425,160.2486805865774 143.6004122865852,159.59613347829145 140.30051339464262,154.32549291204487 139.4702162540052,154.1999999999971 137.19222153513692,155.02825195615878 135.76581362693105,156.00709133708733 134.53101275127847,156.03218972809555 132.01883165934123,157.03612312411133 129.4427815566305,157.4125970195164 129.61309891880956,159.3702513562166 128.3995877134148,160.90122584610071 128.6124844161095,161.45337808331533 129.33633320522495,161.9302357685956 130.0601819945732,163.6117786749819 130.97563781612553,163.7121689079504 139.15087120002136,161.25259560476115 140.06632702169009,160.44946394015278 140.40696174604818,159.3702513562166 140.00245801080018,157.96475761960028 138.57605010271072,156.43376361156697 136.830297140521,155.88159934125724 135.29744088102598,156.30827184820373 133.25363253511023,158.61730934961815 130.3369477080414,159.119270960844 128.65506375662517,160.62514923104027 128.69764309725724,161.45337808331533 130.97563781612553,163.21021730559005 133.57297758909408,162.9341434580274 139.08700218924787,161.25259560476115 140.2792237243848,160.14828884408053 140.34309273515828,158.94358452134475 139.4702162540052,157.36240053568326 137.40511823783163,155.95689454695093 134.53101275127847,156.05728811632434 131.82722462690435,157.13651622306497 129.40020221611485,157.61338284540398 129.59180924855173,159.4706434378022 128.42087738367263,161.00161726043734 129.3576228755992,161.9302357685956 129.82599562150426,163.2855101156456 130.91176880523562,163.73726645940042 132.18914902152028,163.08472923409136 134.5523024215363,162.68316694587702 133.9987709945999,163.7121689079504 134.06264000525698,164.5152891966427 136.74513845948968,171.24131169286557 137.3838285675738,174.35328550091072 137.14964219462126,177.841657781275 136.08515868103132,181.83188936563965 133.33879121614154,181.43035975478415 132.25301803229377,185.09429151250515 131.42272089188918,185.4456243730383 131.0820861675311,186.60000000000582 130.63500309188385,186.4243345168652" stroke="#4DD2FF" stroke-linecap="round" stroke-linejoin="round" stroke-width="0.5"><title>2025-05-06 7.1km</title><desc>1746539597000</desc></polyline><polyline fill="none" points="168.18021233729087,186.60000000000582 167.96068431064487,186.34123156384157 168.99246603576466,182.89958456020395 171.60484955227003,183.52063733022078 172.06585840811022,182.7184438631084 173.4269321729662,176.9995022669027 173.383026567637,174.15291893201356 169.49738049693406,163.3873498676694 168.44364596926607,163.15443552930083 166.9508553884225,163.87905716554087 166.0288376766257,163.6979019637074 164.29456626658794,161.0064369752945 165.4800176101271,159.71245256692055 165.19463117560372,157.64206284968532 166.7313273617765,157.56442288415565 171.8682831841288,156.11513886965986 173.5366961862892,155.07993058758439 176.28079651866574,154.2517607130576 179.8151977470843,159.66069304387202 179.3761416937923,160.3594456523424 177.44429505977314,160.17828776602983 175.38073160964996,161.6793060816999 172.24148082942702,162.14513742330018 170.39744540583342,163.02503857584088 168.04849552141968,163.3355911456165 166.6215633484535,163.93081576918485 165.6995456367731,163.54262596645276 165.17267837293912,162.09337843045068 164.33847187180072,161.4722696365643 164.33847187180072,160.98055735623348 165.4800176101271,159.4536548392207 165.17267837293912,157.66794283252966 167.58748666546308,157.35738285208936 171.80242477625143,156.01161824450537 175.79783486027736,154.1999999999971 176.41251333465334,154.40704278455814 179.7932449443033,159.66069304387202 179.4639529044507,160.3076862703747 177.59796467830893,160.17828776602983 174.89776995114516,161.8604628230678 172.7024896851508,162.01573991999612 166.7313273617765,163.87905716554087 165.8093096499797,163.62026397779118 165.2165839781519,162.09337843045068 164.33847187180072,161.42051049716247 165.4580648074625,159.50541440726374 165.19463117560372,157.64206284968532 167.4996754549211,157.35738285208936 171.62680235493463,156.08925871766405 173.0976401331136,155.18345161883917 175.84174046549015,154.1999999999971 176.34665492665954,154.40704278455814 179.7712921416387,159.6348132781859 179.4420001017861,160.28180657503253 177.44429505977314,160.15240805671783 175.31487320177257,161.70518562466896 172.219528026646,162.14513742330018 170.00229495798703,163.10267675638897 168.18021233729087,163.25795304120402 166.77523296698928,163.90493646879622 165.7434512419859,163.51674662374717 165.19463117560372,162.09337843045068 164.31651906913612,161.44639006827492 164.29456626658794,161.0064369752945 165.17267837293912,160.15240805671783 164.14089664781932,161.10995542342425 165.10681996494532,162.24865537516598 165.5458760181209,163.43910857854644 166.4898465325823,164.00845365373243 171.9560943946708,162.30041433415317 175.22706199111417,161.91222186668892 177.33453104645014,160.3076862703747 179.2883304831339,160.3076862703747 179.8591033522971,159.71245256692055 176.19298530824017,154.1999999999971 173.4049793703016,155.02817005508405 171.67070796026383,156.14101901887625 170.11205897142645,156.24453958771483 167.71920348145068,157.22798274042725 164.8872919382993,157.79734270453628 165.37025359692052,159.4536548392207 164.25066066114232,160.82527958249557 164.20675505581312,161.49814920211793 165.08486716228072,162.17101691545395 165.4800176101271,163.3873498676694 166.3142241112655,163.90493646879622 169.49738049693406,163.36147050805448 172.9220177117968,172.26380388856342 173.3171681596432,174.28230982365494 173.4049793703016,176.89599074331636 171.8463303814642,183.2877427317144 168.86074921977706,182.92546179132478 168.20216513983905,186.0565859585331 167.85092029743828,186.34123156384157" stroke="#4DD2FF" stroke-linecap="round" stroke-linejoin="round" stroke-width="0.5"><title>2025-04-29 10.1km</title><desc>1745929124000</desc></polyline><polyline fill="none" points="42.95545964606572,208.10954848476104 42.41009926627157,207.64802204543957 42.71773845492862,205.95025196015195 41.94864048337331,208.48865843554086 41.361329305160325,208.57107351659215 39.613379369839095,215.42785106152587 39.41760897717904,215.47729784838157 30.510056107013952,213.7136857979931 19.15537332755048,208.60403953642526 11.799999999988358,207.0381456632458 19.099438929581083,208.620522543657 28.062926197599154,212.82363079232164 30.607941303343978,213.77961559017422 44.199999999953434,216.44974803984223 39.54346137243556,215.4443333255913 39.83711696154205,214.24112333147787 40.66214933095034,214.04333447181853 42.535951661586296,206.16453467166866 42.899525248096325,206.03266842357698 42.41009926627157,207.31835944132763" stroke="#4DD2FF" stroke-linecap="round" stroke-linejoin="round" stroke-width="0.5"><title>2025-04-22 6.3km</title><desc>1745328842000</desc></polyline><polyline fill="none" points="59.29949072259478,226.44789839697478 59.83797388570383,226.20987241284456 60.95981380867306,222.53366369509604 63.83172401157208,222.95682724541984 65.33498950838111,217.4820918616606 65.08818472537678,211.95433523743122 61.96946973935701,204.31048356019892 61.902159343939275,202.98799344987492 63.58491922856774,201.61259609241097 67.12993338517845,201.03069486451568 69.68772840965539,199.36433363167453 71.37048829416744,199.5230351943028 72.06602904642932,198.91467864086735 70.56276354950387,196.5605889173312 68.54345168813597,197.59215913439402 66.92800219904166,195.7141690547287 65.20036871766206,194.99999999998545 61.96946973935701,195.264507302345 59.7706634902861,196.24318181470153 56.80900609353557,196.7457428688358 57.25774206279311,198.59727461643342 55.95640775212087,200.47524239125778 56.92119008593727,201.29519559555047 57.41479965206236,202.6705947513983 58.424455582746305,203.19959235172428 62.10409053019248,202.32674569300434 64.23558638384566,201.4009958072711 67.04018619132694,201.03069486451568 69.35117643268313,199.47013468503428 71.37048829416744,199.4965849411965 72.04359224787913,198.86177799894358 70.58520034805406,196.5605889173312 68.56588848656975,197.53925820429868 66.92800219904166,195.6877183864999 65.33498950838111,195.0264507432148 61.85728574707173,195.264507302345 59.81553708727006,196.21673120411288 57.36992605519481,196.5870394904632 57.03337407822255,196.85154506345862 57.21286846592557,198.6766256614501 55.95640775212087,200.34299161507806 56.87631648895331,201.29519559555047 57.34748925664462,202.6970446587511 58.31227159046102,203.25249204829743 64.28045998082962,201.37454575873562 66.95043899759185,201.0835950338078 69.37361323123332,199.47013468503428 71.46023548790254,199.47013468503428 72.02115544956177,198.80887734553835 70.5403267510701,196.5076877623942 68.45370449428447,197.51280773484905 66.90556540060788,195.6877183864999 65.5369206945179,195.1058029554988 62.53038970089983,195.13225368714484 59.591169102699496,196.24318181470153 57.32505245809443,196.5870394904632 57.01093727967236,196.82509451913938 57.16799486905802,198.91467864086735 55.933970953687094,200.42234208942682 56.94362688437104,201.34809570726065 57.39236285351217,202.6970446587511 58.13277720275801,203.17314249911578 67.15237018372864,200.6868434832868 68.25177330814768,199.7875375681324 68.63319888187107,198.43857244863466 68.31908370356541,197.433456309358 67.21968057902995,196.08447810781945 65.49204709765036,195.0529014835629 62.50795290234964,195.15870441598236 59.50142190873157,196.32253362929623 56.98850048123859,196.7457428688358 57.25774206279311,198.54437390535895 55.95640775212087,200.3694417760271 57.055810876656324,201.71839616584475 56.62951170594897,202.5383451711241 57.7513516289182,204.83947758708382 58.626386768883094,208.70109906271682 59.0078123427229,213.03873760823626 58.91806514875498,215.8951889633754 56.71925889980048,226.65947685357241 58.31227159046102,227.39999999999418" stroke="#4DD2FF" stroke-linecap="round" stroke-linejoin="round" stroke-width="0.5"><title>2025-04-15 8.8km</title><desc>1744723077000</desc></polyline><polyline fill="none" points="115.98707557527814,207.73866069864016 115.0466593648307,207.67591465171427 115.73866374604404,205.64711475151125 114.92245345038828,209.03540774541034 115.11763417324983,209.55828714175732 114.03526834619697,213.15565879632777 112.9883899234701,213.17657355075062 113.00613362551667,214.0549911808048 111.7995618841378,217.96599233639427 100.03548740432598,215.62358409792068 86.55027382262051,209.37005072309694 83.80000000004657,208.5752726988867 86.74545454559848,209.5164568424516 100.01774370216299,215.64449858364242 111.83504928823095,217.9450781035266 112.22541073395405,216.37650414749805 113.11259583802894,216.27193209489633 113.87557502742857,214.0549911808048 116.20000000006985,204.4340076635999 115.57897042739205,207.88506806186342" stroke="#4DD2FF" stroke-linecap="round" stroke-linejoin="round" stroke-width="0.5"><title>2025-04-11 5.1km</title><desc>1744377642000</desc></polyline><polyline fill="none" points="129.12313802994322,227.39999999999418 130.2189631892834,226.1873848914547 130.509692313266,227.08366620952438 131.60551747272257,226.1873848914547 132.83552530466113,222.4704181184061 135.7204527653521,223.1294589437457 136.23481967684347,222.94492769356293 137.57664640271105,217.17166466187336 137.66610151785426,214.00817445394932 137.10700704879127,211.1873608075839 133.88662290666252,204.1747283253644 133.79716779163573,202.98836062595365 135.3626323051285,201.67016747104935 138.96320068615023,201.09016020782292 141.46794390771538,199.376494262513 143.10049975756556,199.53467931973864 143.92795957194176,198.84920999132737 142.16122104949318,196.08094871563662 140.3050274120178,197.16189260190004 138.11337709322106,195.3163757337461 136.14536456181668,195.21091720178083 135.0942669599317,195.71184481907403 132.96970797725953,198.0319171002775 129.92823406530079,198.48011031786154 128.16149554296862,200.00923387102375 128.07204042794183,200.5101515543647 128.98895535734482,201.27470812418323 129.3691395962378,202.51381191739347 130.3755096406676,203.0938157680357 139.20920225267764,200.61560777653358 140.41684630594682,199.45558680404793 140.5510289783124,198.16373872103577 139.23156603134703,196.10731325807865 137.10700704879127,195.0 134.2444433667697,195.15818791858328 131.44897102133837,196.23913592741883 129.0336829148,196.66096798675426 129.2349569236394,198.50647459896572 128.07204042794183,199.93014151045645 128.07204042794183,200.43105935747735 128.98895535734482,201.19561617728323 129.950597844203,203.06745198676072 130.93460410973057,203.0938157680357 132.25406705692876,202.40835652251553 133.46171111019794,202.51381191739347 136.99518815486226,211.87279518511787 137.42009995144326,214.32452533574542 137.28591727884486,216.85531750203518 136.03354566800408,222.20680128580716 133.14861820742954,221.7586520112818 132.00806549051777,225.2383775251219" stroke="#4DD2FF" stroke-linecap="round" stroke-linejoin="round" stroke-width="0.5"><title>2025-04-08 5.6km</title><desc>1744119870000</desc></polyline><polyline fill="none" points="167.42609324876685,224.66735261009308 168.30328084493522,223.38718210881052 168.97161425137892,220.53139101584384 171.74937497230712,221.04839035411715 173.2322397181997,215.33671298001718 173.29489597503562,213.02245778033102 172.89807301491965,210.7574191056192 170.05765603715554,203.71595823956886 170.05765603715554,202.3618059954315 171.62406245875172,201.2046149202506 174.90307323471643,200.71219138873857 177.07515680592041,199.23491435569304 178.95484451181255,199.23491435569304 179.45609456673265,198.59475797545747 177.80614646931645,195.98487088648835 175.78026083076838,196.77276450503268 173.85880228690803,195.1723527150316 170.76776028156746,195.09848728186626 167.90645788470283,196.15722285035008 165.5255201238906,196.60041301076126 165.65083263767883,198.59475797545747 164.54390543315094,199.92431150634366 165.35843677225057,200.85991856089095 165.83880140830297,202.23870084360533 167.133697383455,202.68187907637912 168.2823954259511,202.0663535183121 170.22473938867915,201.84476390699274 172.1253125135554,201.0076456364477 175.02838574838825,200.58908533820068 177.22135473857634,199.13642887682363 176.88718803529628,199.80120502659702 177.43020892806817,198.98870057794556 179.03838618763257,199.11180750043422 179.39343830989674,198.49627221749688 178.0985423347447,196.40343971348193 176.26062546670437,197.3636829159659 174.7986461397959,195.6647883192927 173.25312513718382,195.0 170.62156234891154,195.07386546542693 168.05265581747517,196.1079794455436 165.5881763807265,196.50192638355657 165.5672909617424,198.69324369047536 164.60656168987043,199.6780984797515 164.54390543315094,200.17052426474402 165.37932219123468,200.90916093013948 165.60906179982703,201.9432482055272 166.73687442333903,202.65725808628486 168.2197391691152,202.04173246108985 170.14119771285914,201.84476390699274 171.89557290507946,201.0568879734492 173.56640642147977,200.83529737225035 173.7543751921039,202.23870084360533 178.03588607779238,210.92975980271876 173.6708335162839,212.45620023988886 173.42020848882385,216.32149523909902 172.35505212203134,220.482152921948 171.81203122925945,220.90067637819448 170.30828106449917,227.39999999999418 164.54390543315094,225.9228974051366 165.4210930292029,222.15624209672387 165.71348889451474,222.00852884477354 165.21223883947823,224.42116653827543" stroke="#4DD2FF" stroke-linecap="round" stroke-linejoin="round" stroke-width="0.5"><title>2025-04-02 6.9km</title><desc>1743601029000</desc></polyline><polyline fill="none" points="22.906376500963233,268.1999999999971 23.68124540010467,267.50153743055125 24.75238770188298,263.65995794165065 28.330458795186132,264.51961728975584 29.811825808370486,257.72285375985666 29.35602057352662,252.69903858125326 25.869110527215526,244.74669410314527 25.846320265438408,244.02129856622196 26.530028117704205,243.05410119742737 27.737911989795975,242.46303427116072 31.612256485852413,241.764498804303 33.41268716333434,240.31368805012607 34.11918527726084,240.20622024724435 34.14197553903796,239.23900791368214 33.23036506946664,237.38517366928863 32.50107669364661,237.43890819144144 31.79457857972011,236.63288913073484 31.202031774446368,236.7672258238017 29.880196593585424,235.96120456742938 28.46720036561601,235.85373486747267 27.008623614325188,236.3642155250127 25.04866110451985,238.78226743731648 22.085927078383975,239.21214085022802 19.875271689496003,240.98536075670563 21.197106870356947,243.45710056212556 22.70126414531842,244.07503164216178 27.920234083896503,242.3287006811879 31.29319282155484,241.8450991515565 33.868492398178205,240.07188542773656 35.577762028668076,240.2868211037421 36.17030883394182,239.6420135137014 34.324297632905655,236.87469512558891 32.295964338001795,237.9762527680723 31.06529020401649,236.5522870797722 29.469971882295795,235.79999999998836 26.484447594266385,235.93433714681305 23.772406447096728,237.06276629101194 20.878043206059374,237.54637720040046 21.060365300043486,239.66888053025468 19.829691165941767,241.25402932714496 20.832462682621554,242.19436701817904 21.288267917349003,243.53770035608613 22.632893359987065,244.1018981756788 24.023099326295778,243.40336735155142 25.344934507156722,243.32276751377503 26.894672305556014,247.70198719725886 28.1025561777642,248.74976442594198 32.090851982240565,247.91691622250073 34.59778077388182,253.18261882543447 29.76624528481625,254.82141148947994 29.515552405733615,258.93177796454984 29.01416664745193,259.54967026961094 27.737911989795975,264.08978799026227 27.464428849052638,264.3047027335997 24.75238770188298,263.8211442976608 23.909148017526604,267.04484929649334" stroke="#4DD2FF" stroke-linecap="round" stroke-linejoin="round" stroke-width="0.5"><title>2025-03-25 6.1km</title><desc>1742909450000</desc></polyline></svg>