<?xml version="1.0" encoding="utf-8" ?>
<svg baseProfile="full" height="300mm" version="1.1" viewBox="0,0,200,300" width="200mm" xmlns="http://www.w3.org/2000/svg" xmlns:ev="http://www.w3.org/2001/xml-events" xmlns:xlink="http://www.w3.org/1999/xlink"><defs /><rect fill="#222222" height="300" width="200" x="0" y="0" /><text fill="#FFFFFF" style="font-size:12px; font-family:Arial; font-weight:bold;" x="10" y="20">Over 5km Runs</text><text fill="#FFFFFF" style="font-size:4px; font-family:Arial" x="10" y="280">Runner</text><text fill="#FFFFFF" style="font-size:9px; font-family:Arial" x="10" y="290">Elliont</text><text fill="#FFFFFF" style="font-size:4px; font-family:Arial" x="65" y="280">SPECIAL TRACKS</text><rect fill="yellow" height="2.6" width="2.6" x="65" y="283" /><text fill="#FFFFFF" style="font-size:3px; font-family:Arial" x="70" y="285.5">Over 20.0 km</text><rect fill="red" height="2.6" width="2.6" x="65" y="287" /><text fill="#FFFFFF" style="font-size:3px; font-family:Arial" x="70" y="289.5">Over 40.0 km</text><text fill="#FFFFFF" style="font-size:4px; font-family:Arial" x="120" y="280">STATISTICS</text><text fill="#FFFFFF" style="font-size:3px; font-family:Arial" x="120" y="285">Number: 61</text><text fill="#FFFFFF" style="font-size:3px; font-family:Arial" x="120" y="290">Weekly: 2.1</text><text fill="#FFFFFF" style="font-size:3px; font-family:Arial" x="141" y="285">Total: 413.2 km</text><text fill="#FFFFFF" style="font-size:3px; font-family:Arial" x="141" y="290">Avg: 6.8 km</text><text fill="#FFFFFF" style="font-size:3px; font-family:Arial" x="167" y="285">Min: 5.0 km</text><text fill="#FFFFFF" style="font-size:3px; font-family:Arial" x="167" y="290">Max: 11.4 km</text><polyline fill="none" points="20.239026336814277,48.877665006235475 23.180367118911818,47.429719196865335 27.57621707918588,46.82005600971752 30.646847565774806,44.61001804712578 33.49122106935829,44.76243490676279 34.29928172391374,44.0384542318352 29.321628092671745,35.96025240296149 27.996408619335853,35.693516141036525 22.339984038262628,38.36086960454122 12.707901037530974,40.5709470610891 13.192737430217676,43.46688948239898 11.318036712007597,46.01987146382453 12.643256185227074,47.23919956499594 13.322027134825476,49.296806095400825 14.647246608277783,50.05887951600016 17.16839584999252,49.144391211972106 19.94812450115569,48.877665006235475 23.374301675939932,47.39161527872784 27.479249800438993,46.97247190613416 30.517557861167006,44.724330697994446 33.58818834787235,44.838643311552005 34.428571428521536,43.84793275242555 29.450917797279544,35.96025240296149 28.093375897733495,35.579200538020814 24.537909018341452,36.989090364513686 22.372306464472786,38.47518429820775 20.239026336814277,38.55139407329261 16.36033519555349,40.11369080233271 12.513966480502859,40.76147032575682 13.192737430217676,42.39996611731476 13.095770151820034,43.77172413171502 11.479648842825554,45.410205818974646 11.318036712007597,46.21039175987244 12.804868316161446,47.505927020392846 13.386671987362206,49.41111721438938 14.711891460465267,50.173190385714406 17.071428571478464,49.22059866198106 20.335993615328334,48.877665006235475 23.568236233084463,47.429719196865335 27.25299281720072,47.08678378482 30.937749401433393,44.68622648520977 34.04070231446531,44.53380959239439 34.428571428521536,43.733619815146085 33.879090183530934,42.78101054998115 29.450917797279544,35.96025240296149 28.319632881088182,35.541095328575466 24.69952114939224,36.874775184929604 22.40462889079936,38.36086960454122 12.546288906596601,40.68526103242766 13.160415004007518,43.46688948239898 11.285714285681024,46.01987146382453 12.707901037530974,47.39161527872784 13.160415004007518,49.06818374549039 14.291699920315295,49.94456860862556 15.58459696744103,49.90646496464615 23.53591380675789,47.429719196865335 27.38228252204135,47.048679829458706 30.646847565774806,44.76243490676279 33.52354349568486,44.838643311552005 34.26695929770358,44.22897560734418 33.68515562650282,42.51427949074423 28.836791699985042,35.61730574307148 24.408619313733652,37.103405506757554 21.564245810033754,39.046757206495386 20.045091779786162,41.0282027219946" stroke="#4DD2FF" stroke-linecap="round" stroke-linejoin="round" stroke-width="0.5"><title>2025-11-04 6.4km</title><desc>1762251473000</desc></polyline><polyline fill="none" points="60.142857142869616,46.05764981113316 54.433270676701795,44.871202830196125 47.24342105264077,41.660739787585044 37.0,39.656635903149436 47.015037593984744,41.67071034399123 48.046992481220514,41.99973809619405 54.230263157893205,44.871202830196125 60.09210526314564,46.05764981113316" stroke="#4DD2FF" stroke-linecap="round" stroke-linejoin="round" stroke-width="0.5"><title>2025-10-28 5.4km</title><desc>1761648009000</desc></polyline><polyline fill="none" points="85.85714285715949,45.53898521020892 81.18809236600646,44.601190512257745 75.19998276751721,41.93581569608068 66.42719283129554,40.21643450480042 65.15698776495992,40.17530050408823 63.45407547819195,40.31515601512365 62.71428571428987,40.17530050408823 62.90272272963193,40.265795276085555 63.47501292437664,40.3645167219147 65.06625883164816,40.21643450480042 66.41323453385849,40.2493416892612 75.07435809067101,41.95226891554921 76.02352231604164,42.27310597874748 81.19507151472499,44.65054841818346 84.69860417026212,45.35800819260476" stroke="#4DD2FF" stroke-linecap="round" stroke-linejoin="round" stroke-width="0.5"><title>2025-10-17 6.4km</title><desc>1760694739000</desc></polyline><polyline fill="none" points="111.57142857142026,50.823056854824245 109.624086117954,50.463341598180705 103.91285041489755,47.859639256465016 103.1063018614077,47.61125525270472 94.08167750618304,45.88111042649689 90.70289302535821,45.949631737632444 89.71468939224724,45.512807356186386 89.20605516931391,45.033154259792354 88.6029603049974,43.834008717749384 88.49396725720726,43.14877448276093 91.6620318457135,40.58765865717578 93.66023772145854,38.39479753913474 95.71657322268584,36.56165575955674 98.2960753532243,34.87409960252262 95.8183000673016,36.4588614968452 93.79829558197525,38.23204368968436 91.77102489347453,40.43347510892636 88.51576586678857,43.09738167438627 88.42857142857974,43.27725635671959 88.52303206996294,43.66270071885083 89.19152276296518,45.05028477789165 90.2596546310815,45.83828457674099 90.94267773043248,46.035283292570966 94.0671450997761,45.906805925187655 103.17896389326779,47.67977505623276 104.03637586903642,47.95385367336712 109.40610002246103,50.43764758832549 111.258981834515,50.8401861117527 111.33891006952035,50.703151952089684" stroke="#4DD2FF" stroke-linecap="round" stroke-linejoin="round" stroke-width="0.5"><title>2025-10-12 10.0km</title><desc>1760258276000</desc></polyline><polyline fill="none" points="136.6713021491887,45.72274678230315 131.63463969662553,44.71243898902321 124.97471554996446,41.74402911939251 115.69026548671536,39.96471994510648 114.14285714286962,39.92001318776602 115.87231352718663,40.03625070623093 125.33122629582067,41.90496975577116 129.30594184578513,43.77364626744384 129.6169405815599,43.80940999635641 130.53476611885708,44.34586406095332 131.89254108726163,44.85549217548396 136.62579013907816,45.79427252651658 136.75474083441077,45.72274678230315 136.83817951960373,45.052189899855875 137.28571428573923,45.02536751066509" stroke="#4DD2FF" stroke-linecap="round" stroke-linejoin="round" stroke-width="0.5"><title>2025-10-09 6.0km</title><desc>1760007351000</desc></polyline><polyline fill="none" points="163.0000000000582,46.09081330116169 156.9563820794574,44.90713863061683 149.1964497041772,41.43135741948936 139.8571428571595,39.623472413128184 149.67117497889558,41.66810181589972 153.9893491124385,43.71268890768988 154.47320371936075,43.788014992496755 154.9114116653218,44.15388373031601 156.18038884195266,44.69192353075778 156.31732882506913,44.63811968258233 156.91986475064186,42.55050775037671 158.106677937496,42.884098185022594 158.36229923926294,42.690400650426454 160.00557903636945,42.92714203004289 160.45291631447617,41.90484564501821" stroke="#4DD2FF" stroke-linecap="round" stroke-linejoin="round" stroke-width="0.5"><title>2025-10-05 5.0km</title><desc>1759662272000</desc></polyline><polyline fill="none" points="188.71428571426077,44.900960912818846 188.532915360498,45.636362637756974 183.96238244514097,44.712833783836686 182.7145544110681,44.251065283642674 181.6190774742572,43.66102380371012 177.48383340792498,41.86521810326667 168.7272727272648,40.14633703217987 167.09493954319623,40.07792307652562 165.57142857142026,40.21475092824403 168.29198387818178,40.13778529098636 177.01227048810688,41.83956343855971 178.23107926553348,42.215831014364085 182.61298701295163,44.302373028884176 183.80277653381927,44.75558998911583 185.79059561126633,45.0976387930059 185.95745633679326,44.78979493655061 185.8631437527947,44.65297505738272 185.9356918943231,44.473398604204704 186.45803851319943,44.46484733430407 187.29234214060125,44.68718004953553" stroke="#4DD2FF" stroke-linecap="round" stroke-linejoin="round" stroke-width="0.5"><title>2025-10-02 6.2km</title><desc>1759399141000</desc></polyline><polyline fill="none" points="33.4790592424979,78.04171510107699 33.2086285566038,79.02632229698065 32.884111733495956,79.03340574798494 32.775939459126676,79.56466237510904 29.278369254723657,78.91298697594902 28.010349816351663,78.50214478177077 24.404607337579364,76.78082944489142 23.376970731158508,76.41955994835007 16.219571910769446,75.0311330108234 15.11982045476907,74.96029410704068 13.44915977292112,75.08072019756219 12.80613569758134,74.9532102124067 12.325370033737272,74.68402164495637 11.928738361079013,74.308572571681 11.616240679548355,73.79144105398154 11.285714285710128,72.80675460229395 12.169121192971943,71.97790624742629 13.929925436765188,70.58938447487162 15.738806246954482,68.66240717325854 17.331342508405214,67.25256039699889 19.57291241607163,65.778919027558 19.831323960388545,65.65847570824553 20.378194902965333,65.63722098167636 20.64261601807084,65.49552262694488 21.477946358994814,64.52488059300231 22.018807730812114,63.270817966789764 22.649812664603814,62.70400206154591 25.498349222820252,61.13106203553616 28.76154616608983,59.72105191060837 28.76154616608983,60.18869684966921 29.380531958275242,60.70593657554855 30.251919723988976,62.67566113653447 32.78795860073296,67.5217797308942 34.03794932668097,70.47603444971901 34.36246614975971,71.68745261478034 34.428571428579744,72.6650718714518 34.33241829578765,73.74185288415902 34.110064176260494,74.46441961994424" stroke="#4DD2FF" stroke-linecap="round" stroke-linejoin="round" stroke-width="0.5"><title>2025-09-30 10.1km</title><desc>1759229695000</desc></polyline><polyline fill="none" points="60.12902812752873,72.32838792013354 55.24738571853959,71.33407804872695 50.317341755959205,69.04385505512619 49.342396175692556,68.70968854536477 40.913611336407484,67.07143601652206 39.55145332709071,67.03068300885934 37.93345853430219,67.17739373258519 37.0,66.94102631382702 37.83665542706149,67.22629724325816 40.45033932305523,67.05513481611706 41.25242221177905,67.15294196527248 49.32856716035167,68.73413980396435 50.013103418838,68.93789998188731 53.67087797171553,70.6820644041436 55.57928208634257,71.4644800959868 59.97690895895357,72.34468797189038 60.142857142869616,72.29578780593874" stroke="#4DD2FF" stroke-linecap="round" stroke-linejoin="round" stroke-width="0.5"><title>2025-09-29 6.6km</title><desc>1759141711000</desc></polyline><polyline fill="none" points="84.17131825702381,79.79763785851537 84.01643684500596,80.53488909002044 83.51009376725415,80.44361082337127 80.15631549915997,79.79061637768609 75.55752895752084,77.68413760402473 74.33634859346785,77.32602936771582 67.21180364035536,75.96379554811574 64.9362382790714,76.07614581822418 64.4239382239175,76.01997070765356 63.62570325424895,75.60567775530217 63.37551020405954,75.34586556235445 63.03596249310067,74.7841058897975 62.71428571428987,73.82910321110103 63.00617760614841,73.49204006404034 65.59746276887017,71.41344504148583 67.03309431878733,69.81934195546637 68.77253171536722,68.28840407870302 70.91108659678139,66.87681904034253 71.71527854382293,66.74338402922149 71.98334252618952,66.59590290598135 72.66839492550935,65.88658421686705 73.34749034748529,64.41876134156337 73.96105901818373,63.82881354114943 77.99393270822475,61.72181301563978 81.46685052398243,60.36627292020421 82.39018201874569,60.1485410236055 84.55256480971002,59.361890620064514 85.85714285713038,58.75082519569696 82.64633204633719,59.9869975280526 81.37153888583998,60.32413132021611 80.18014340871014,60.76661674516072 80.0133480419172,61.14588754772558 80.1384445669828,61.45492136570101 80.50182018752093,61.60943771884922 80.85328185325488,62.234522820108396 82.09233314945595,64.93847278592148 84.02835079978104,68.59740364373283 84.02835079978104,68.78701627968985 84.46916712628445,69.57355162772001 85.26144511858001,71.49069132603472 85.47589630447328,72.29826057591708 85.76778819633182,72.3684835107706" stroke="#4DD2FF" stroke-linecap="round" stroke-linejoin="round" stroke-width="0.5"><title>2025-09-26 11.4km</title><desc>1758886655000</desc></polyline><polyline fill="none" points="111.57142857144936,73.62289859772136 107.17746129535954,72.72915312040277 102.27799335922464,70.46036345522589 101.48733848065604,70.2159103575541 93.59375125018414,68.69569853179564 92.30407648920664,68.65750183039927 90.8459015082044,68.77973120161914 90.13949673963361,68.67278051344329 89.16089930795715,67.94703939242027 88.81741809018422,67.42755692557694 88.47393687244039,66.55665121563652 88.499859983247,66.22814888429275 89.1479377525684,65.66281568799604 88.50634076091228,66.18995083891059 88.42857142857974,66.42677838484815 89.1155338640965,67.95467881174409 89.47197663722909,68.31373058168538 90.08116974038421,68.64986248761124 90.83293995281565,68.81028851115843 92.7512501500023,68.66514117232873 93.6067128055729,68.71097720653052 101.05312637516181,70.15479694998066 102.26503180386499,70.47564174557192 107.16449973999988,72.76734760451654 108.830059607164,73.11109702548129" stroke="#4DD2FF" stroke-linecap="round" stroke-linejoin="round" stroke-width="0.5"><title>2025-09-25 7.3km</title><desc>1758798919000</desc></polyline><polyline fill="none" points="137.28571428571013,70.7534659341909 136.85034013609402,72.28497076032363 132.3945578231651,71.4189928875494 127.1972789115971,69.02146397621254 125.89115646260325,68.62053178945644 117.86394557822496,67.08895073454187 116.48979591837269,67.06489423344465 115.03401360544376,67.20121430240397 114.14285714286962,67.00074352539377 114.9047619047924,67.23328957606282 116.63945578230778,67.10498839757201 118.08843537417124,67.17715783799213 126.23129251704086,68.71675571342348 126.96598639458534,68.94127771354397 132.32653061224846,71.42701124789892 136.25170068032457,72.196769776172" stroke="#4DD2FF" stroke-linecap="round" stroke-linejoin="round" stroke-width="0.5"><title>2025-09-23 6.7km</title><desc>1758623965000</desc></polyline><polyline fill="none" points="163.0,72.35558083016076 158.289823693136,71.43589771484403 152.93539834738476,68.97210566345166 151.7399584640516,68.59240471488738 143.1857628916041,66.93013643295126 141.84715655515902,66.88794641853019 139.85714285713038,67.02295438384317 142.95669656663085,66.93013643295126 151.49657549380208,68.55865342941979 152.80654853960732,68.92147897782706 158.3900402103318,71.48652275741915 163.0,72.39776786717994" stroke="#4DD2FF" stroke-linecap="round" stroke-linejoin="round" stroke-width="0.5"><title>2025-09-22 6.4km</title><desc>1758538508000</desc></polyline><polyline fill="none" points="187.73449701422942,79.88468530259706 183.70372071658494,79.08797186731681 178.95360587965115,76.93168164844974 178.04203031695215,76.6319883718752 170.70601745523163,75.19928982641432 169.27974276526948,75.13350191382779 167.8472668810282,75.25776791679527 167.2457510335371,75.14812145553151 166.66283876894158,74.84111041088909 166.22875516765635,74.43907001420303 165.57142857142026,72.91860455241113 165.68305006891023,72.73585398053547 168.36196600826224,70.59398017694184 170.0796968305076,68.71521546559961 171.94625631603412,67.06302870304353 174.19108865413,65.60819339626323 175.0468534680549,65.49122034297034 175.3755167662166,65.23534107779415 176.070050528273,64.40189898996323 176.66536518145585,63.07129454482492 177.3164905833837,62.47178281797824 180.1070280202257,60.929112155063194 183.62930638494436,59.401028983113065 183.63550757922349,59.86165102108498 184.1254019292537,60.23453321100533 184.59669269635924,61.06802708074247 184.83233807992656,61.74797493467486 186.37643546162872,64.73820142945624 186.413642627449,64.97946083657007 187.30041341294418,66.44893121554196 188.71428571428987,69.61439735846216" stroke="#4DD2FF" stroke-linecap="round" stroke-linejoin="round" stroke-width="0.5"><title>2025-09-21 9.0km</title><desc>1758451095000</desc></polyline><polyline fill="none" points="33.094793057389325,105.0518647143108 32.79439252335578,106.32655732265266 32.686248331097886,106.35488354127301 28.744993324420648,105.58298967104201 24.070761014678283,103.43721820502105 23.295727636810625,103.2035160465748 16.188251001323806,101.8225315992895 13.04606141516706,101.8225315992895 12.487316421873402,101.58882363700832 11.9345794392284,101.10015881942672 11.634178905165754,100.62565468471439 11.285714285710128,99.61289547006163 11.772363150812453,99.09588643167808 14.031375166843645,97.31819384339906 15.845794392487733,95.36338412075565 17.347797062713653,94.05306208573893 19.726969292358262,92.49480690207565 20.429906542034587,92.42397623332363 20.73631508674589,92.21856685742387 21.457276368455496,91.36150693881063 22.02803738313378,90.07235420503275 22.682910547358915,89.48443540193693 25.518691588775255,87.9260706717323 28.769025367160793,86.50225931587192 28.781041388516314,86.99811755749397 29.261682242969982,87.31688157184544 29.556074766354868,87.86940215918003 30.415220293711172,89.781937147789 32.391855807713,93.52184292471065 34.04405874497024,97.28278114661225 34.36248331106617,98.51513164965581 34.42857142855064,99.3296033555016 34.30841121493722,100.5760794260641 33.971962616808014,101.7729572532553" stroke="#4DD2FF" stroke-linecap="round" stroke-linejoin="round" stroke-width="0.5"><title>2025-09-18 10.1km</title><desc>1758194958000</desc></polyline><polyline fill="none" points="51.661882389424136,97.72994445372024 51.59497134597041,97.91725359671545 52.10516805204679,98.06512896213826 60.142857142869616,99.63259298585035 45.30533326452132,96.68494949102023 39.03242294388474,93.76678647209337 37.0,93.22454987129458 38.990603541751625,93.79636292053328 45.40569982962916,96.72438348221476 50.29856987972744,97.71022767928662" stroke="#4DD2FF" stroke-linecap="round" stroke-linejoin="round" stroke-width="0.5"><title>2025-09-16 5.4km</title><desc>1758020593000</desc></polyline><polyline fill="none" points="85.85007849292015,99.10985070835159 81.1452119309397,98.16893249398709 75.74097331240773,95.67919038992841 74.65306122449692,95.37108957586315 66.0557299843058,93.72231276737875 62.71428571428987,93.78893070150662 63.15227629514993,93.86387580798328 64.96781789639499,93.71398552152095 66.2111459968728,93.75562174167862 74.91444270015927,95.42937901429104 75.8328100471117,95.74580661889195 81.20172684459249,98.21056628812221 85.85714285715949,99.1431573356167" stroke="#4DD2FF" stroke-linecap="round" stroke-linejoin="round" stroke-width="0.5"><title>2025-09-15 6.5km</title><desc>1757932870000</desc></polyline><polyline fill="none" points="111.57142857142026,106.88089043473155 107.3017917133111,106.02557998204429 102.2546792513167,103.7116074493606 101.59382498799823,103.50540817170986 93.5015997440205,101.9321640904891 92.27707566789468,101.90161531235208 90.84522476402344,102.03144752752269 90.21676531754201,101.93980128295516 89.52999520074809,101.58085233828024 89.15421532554319,101.22190155596036 88.78491441372898,100.61091727474559 88.47392417211086,99.81662974902429 88.42857142857974,99.5798692263852 88.53871380578494,99.427120077773 91.27931530951173,97.18166918732459 93.10638297873084,95.19583636072639 95.02415613504127,93.50019611298922 97.49264117740677,91.91908919534035 98.29603263476747,91.81979143532226 98.65237561988761,91.5677272588 99.32618780995836,90.81916769409145 99.97408414655365,89.35257883964368 100.64789633656619,88.6956592962888 103.71892497199588,87.01513941535086 105.99952007678803,85.9762524224061" stroke="#4DD2FF" stroke-linecap="round" stroke-linejoin="round" stroke-width="0.5"><title>2025-09-13 7.0km</title><desc>1757768754000</desc></polyline><polyline fill="none" points="137.28571428573923,99.24809483383433 132.16968652477954,98.24305741984426 126.5405468349636,95.64591231398663 125.61996366854873,95.34349963860586 116.37640318603371,93.54678947526554 114.14285714286962,93.55568417741597 116.4971354045847,93.61794706523506 125.34831617685268,95.32571062284842 126.42736038012663,95.64591231398663 132.21496110671433,98.29642254920327 137.25553123108693,99.31035338188667" stroke="#4DD2FF" stroke-linecap="round" stroke-linejoin="round" stroke-width="0.5"><title>2025-09-11 6.0km</title><desc>1757587445000</desc></polyline><polyline fill="none" points="160.78893635503482,106.12533690417331 156.85359496049932,105.35109203142929 152.49011657369556,103.32556747212948 151.48722033161903,103.02830074961093 144.5431902106793,101.68712659828452 143.33502280787798,101.64564653354319 141.97436825715704,101.75625997925818 141.29990587211796,101.63181983929098 140.4670914488088,100.98196181087405 140.12106292083627,100.36666456620151 139.85714285713038,99.50247296995803 142.44355948155862,97.35231321462197 143.23531967270537,96.59870300394687 144.16197234089486,95.50629800150637 145.86865541955922,94.00593895906059 147.12960683510755,93.26611752319877 147.9800159293227,92.63691680359625 148.7365867786284,92.51245877917972 149.07675041630864,92.31194255968148 149.75121280137682,91.53752914116194 150.3259720512433,90.22377047128248 150.97110998476273,89.65677148282703 153.62204040255165,88.18393335770088 156.9181087538891,86.73180595297163 156.9122438635677,87.22276703330135 157.39902975887526,87.52010781178979 157.7333285062341,88.12861482753215 158.38433133007493,89.64985682973929 160.98834262540913,94.6904389597621 161.12909999271506,95.174424402765 161.305046701862,95.36801754630142 162.0733473317814,97.2486059185394 162.26688871186343,97.99529466751846 162.54840344647528,98.07134580634738 162.63051191077102,99.42642354615236 162.32553761490271,101.44515917183162 162.55426833679667,101.61107979222288 162.98827021935722,101.6940399397572 162.9999999999709,101.81847995777207" stroke="#4DD2FF" stroke-linecap="round" stroke-linejoin="round" stroke-width="0.5"><title>2025-09-09 10.0km</title><desc>1757415422000</desc></polyline><polyline fill="none" points="188.6824085006083,99.47210728898062 183.18358913814882,98.35429761496925 177.34208972839406,95.63955666621769 176.2742030696536,95.30138225857081 166.54368358911597,93.40382348750427 165.57142857142026,93.38503556816431 168.63961038956768,93.80776276329561 176.44155844152556,95.36713849724038 183.46251475793542,98.45762516725517 188.71428571426077,99.47210728898062" stroke="#4DD2FF" stroke-linecap="round" stroke-linejoin="round" stroke-width="0.5"><title>2025-09-08 5.7km</title><desc>1757333196000</desc></polyline><polyline fill="none" points="34.42857142855064,126.20377768302569 29.237279843422584,125.2228798548822 23.182093933428405,122.42959506731859 22.302348336583236,122.13064281191328 12.775733855174622,120.27151008577493 11.285714285710128,120.16874277984607 12.411154598812573,120.24348265091248 22.072504892363213,122.11195826135372 23.277201565506402,122.50433296835399 29.17387475533178,125.23222179185541 34.357240704470314,126.2598286487264" stroke="#4DD2FF" stroke-linecap="round" stroke-linejoin="round" stroke-width="0.5"><title>2025-09-04 5.8km</title><desc>1756983645000</desc></polyline><polyline fill="none" points="60.142857142869616,125.91104938605713 55.58799793955404,125.00122612973792 50.143028846156085,122.51759854939155 47.19453983515268,121.82905362054589 40.76905906593311,120.60769057020661 39.45475618130877,120.58309916429425 37.862293956044596,120.71425323637231 37.0,120.51752204251534 37.39637706044596,120.6978589898572 37.94574175821617,120.77163307101728 39.45475618130877,120.62408483635954 40.85250686816289,120.66507048611675 49.57280219782842,122.3618567953672 50.5046359890257,122.6979307040965 55.601905906631146,125.05860269603 58.45999313183711,125.57498982451943" stroke="#4DD2FF" stroke-linecap="round" stroke-linejoin="round" stroke-width="0.5"><title>2025-09-02 6.2km</title><desc>1756809719000</desc></polyline><polyline fill="none" points="85.85714285715949,126.21225115565176 80.63417890519486,125.19250117793854 73.57676902535604,122.06708162709401 64.0200267022883,120.21632690599654 62.71428571428987,120.12189958536328 63.97196261683712,120.23521235780936 73.0881174899987,122.00098392455402 74.3217623498058,122.36924191131402 80.76234979974106,125.31524949539744 85.8491321762267,126.30667184320919" stroke="#4DD2FF" stroke-linecap="round" stroke-linejoin="round" stroke-width="0.5"><title>2025-08-29 5.7km</title><desc>1756465472000</desc></polyline><polyline fill="none" points="111.57142857144936,126.09758922240871 106.5572698622127,125.10957013034204 100.63629521621624,122.39694776729448 99.71423867542762,122.118494727074 90.4174702479504,120.31301833219186 88.42857142857974,120.31301833219186 90.51653417380294,120.39386140418355 99.96570864110254,122.21730075219966 106.44296533238958,125.11855217539414 111.44950373962638,126.11555309637333" stroke="#4DD2FF" stroke-linecap="round" stroke-linejoin="round" stroke-width="0.5"><title>2025-08-27 6.0km</title><desc>1756291993000</desc></polyline><polyline fill="none" points="136.2404042321432,126.1088989103373 132.34354984105448,125.39319533271919 130.65260710730217,124.95833445563039 125.31845139255165,122.4578402967818 124.21933861554135,122.1045035395 115.54941405323916,120.41027823583136 114.14285714286962,120.25625604249217 116.45637424683082,120.59148045108304 124.20396640888066,122.11356347511901 125.14935711913859,122.4125407963802 130.21449921716703,124.82243996534817 131.4827062675031,125.26636114505527 136.2327181287692,126.1723153860803 136.41718460881384,125.46567192454677 137.28571428573923,125.61062491883786 136.8552924989781,125.5109697624066 136.88603691227036,125.29353991581593" stroke="#4DD2FF" stroke-linecap="round" stroke-linejoin="round" stroke-width="0.5"><title>2025-08-26 6.0km</title><desc>1756205162000</desc></polyline><polyline fill="none" points="163.0,127.536069839618 158.5835229313816,126.66718796356872 153.77906837503542,124.45682579431013 152.78325948989368,124.14432068241149 144.842653574422,122.61226323538722 142.19147407496348,122.72659703886166 141.48664830558118,122.56652966168622 140.80768770206487,122.15492615342373 140.45850796310697,121.73569786920416 139.88300802296726,120.30268040420196 140.3033169679984,119.83770566522435 141.4801820141147,118.89250158895447 140.0834630582831,120.00540182894474 139.85714285713038,120.31792542530457 140.22572147048777,121.37744625427877 140.5296371691802,121.88052246953157 141.5965752604243,122.63513001101092 142.26260328103672,122.77233050791983 143.71105256854207,122.64275226790778 144.90731648899964,122.66561903358524 152.90611902764067,124.20529739920312 153.78553466650192,124.50255813264812 158.50592743384186,126.66718796356872" stroke="#4DD2FF" stroke-linecap="round" stroke-linejoin="round" stroke-width="0.5"><title>2025-08-23 7.3km</title><desc>1755948655000</desc></polyline><polyline fill="none" points="188.71428571426077,125.2142163855242 188.36418042780133,126.42047196339263 182.44829879200552,125.25654139614198 175.20381247921614,121.95513519766973 168.15682145627216,120.43137142205524 165.57142857142026,120.00809946518712 174.74598248919938,121.8599006618897 182.18796409177594,125.2142163855242 187.02659869223135,126.19826811373787" stroke="#4DD2FF" stroke-linecap="round" stroke-linejoin="round" stroke-width="0.5"><title>2025-08-19 5.0km</title><desc>1755607675000</desc></polyline><polyline fill="none" points="33.76177532711881,156.02485532210267 29.559701782302,155.19442061980953 24.68454160678084,152.94033251106885 23.860482273914386,152.7030557371545 16.1671649904456,151.22747223635815 13.292393119219923,151.30903798860527 12.342523201165022,150.86413269812329 11.688308158249129,150.07071104692295 11.32345746125793,148.8842688942823 14.047256630263291,146.66704968768317 16.613792567834025,143.97514467789733 15.858929056761554,144.64998485945398 14.122742981358897,146.53356930342852 11.285714285710128,148.89168422196963 11.424105929385405,149.45524676152854 11.952510387141956,150.48596091502986 12.399137964501278,150.90120825007034 13.1728730633331,151.2793777263796 13.600629052903969,151.34611329822656 15.08519395798794,151.21264208907814 16.324428221967537,151.22747223635815 19.444530734297587,151.82067547807674 19.715023492404725,151.7242803030531 20.95425775635522,151.95414549510315 21.325398982618935,152.11727516055544 23.206267230998492,152.39904366198607 24.420339377917117,152.79203462428268 25.04939230380114,152.77720481783763 25.036811245256104,152.9477473969455 25.439405117853312,152.93291762439185 25.13745971341268,153.13311928097392 25.59666834928794,153.414883578007 29.282918494922342,155.07578626408213 29.98745777187287,155.27598161948117 30.20762629591627,155.17217669386446 31.409117384348065,155.26115235406905 31.409117384348065,155.54290784433397 33.447248864220455,155.95070977832802 33.805809031939134,155.98778256029618 33.90645750006661,155.47617638622614 34.24614608005504,155.4168594796647 34.42857142855064,154.80144352469506" stroke="#4DD2FF" stroke-linecap="round" stroke-linejoin="round" stroke-width="0.5"><title>2025-08-16 10.0km</title><desc>1755297330000</desc></polyline><polyline fill="none" points="50.92751583392965,149.19378679780493 50.50950035190908,151.32141272515582 60.14285714289872,153.2138430054256 44.163265306153335,150.0448424515489 37.0,146.7861569945744 43.94475721323397,150.03364439657162 49.9774806475034,151.2430272878628" stroke="#4DD2FF" stroke-linecap="round" stroke-linejoin="round" stroke-width="0.5"><title>2025-08-13 5.0km</title><desc>1755095249000</desc></polyline><polyline fill="none" points="85.72756358984043,154.30734823200328 81.48384258517763,153.45967351051513 76.65701487759361,151.2373424862817 75.75643896975089,150.94713598488306 67.82618780995836,149.41971354861744 65.0143177091959,149.51135983311542 64.39233722604695,149.3815275613888 63.75091985281324,148.99966654519812 63.41401375780697,148.66362713056878 63.10302351624705,148.14429032184125 62.733722604374634,147.1056051634223 63.53711406176444,146.3113061294498 64.4700847864442,145.6010118713093 63.76387777956552,146.09745485191524 62.71428571428987,147.1132426104523 63.401055831083795,148.67126440789434 63.93880979044479,149.17532287095673 64.38585826268536,149.40443915622018 65.0143177091959,149.54190856799687 67.21716525353258,149.41207635282626 68.0140777475608,149.46553670582944 76.1257398816233,151.09223938571085 81.36074228122015,153.45967351051513 85.85714285713038,154.39898812869797" stroke="#4DD2FF" stroke-linecap="round" stroke-linejoin="round" stroke-width="0.5"><title>2025-08-12 8.1km</title><desc>1754996616000</desc></polyline><polyline fill="none" points="111.57142857142026,152.68413782557036 106.90502140906756,151.75091104075545 101.63604515374755,149.32281586006866 100.76722460100427,149.03375173120003 95.81354612691212,147.99311174312606 92.07901907357154,147.34889887909958 90.76177500974154,147.31586217442964 89.09420007784502,147.4562680698582 88.42857142857974,147.34063970428542 89.03814713898464,147.4562680698582 90.69170883612242,147.3323805285545 92.09303230830119,147.35715805303334 100.69015181000577,149.04201072160504 101.69209809263702,149.39714645795175 106.68781627088902,151.70135885498166 111.17205138184363,152.62632765043963" stroke="#4DD2FF" stroke-linecap="round" stroke-linejoin="round" stroke-width="0.5"><title>2025-08-10 6.4km</title><desc>1754781124000</desc></polyline><polyline fill="none" points="134.9907484370051,159.6830436289565 131.13848433378735,158.91016996276085 126.77102381555596,156.89513357656324 125.93968414585106,156.619096204402 118.7444978497515,155.21128689936086 118.10050233098445,155.16988026979016 116.08655270861345,155.28719898332565 115.64746485490468,155.18368248266415 115.03274185972987,154.83172511522207 114.6053630154347,154.34864319205735 114.20140219002496,153.4031721971587 114.14285714286962,153.0443035996759 116.70127570381737,150.94626188410984 118.46933612809516,149.0414006683386 120.13786997218267,147.58510943411602 122.23963716527214,146.21160976763713 122.47381735392264,146.1011763399256 123.06512233024114,146.08047005078333 123.29344801418483,145.92862372361924 123.93744353295187,145.21770198580998 124.59900256586843,143.79583456811451 125.19616204692284,143.22983962543003 127.8716707022104,141.78721988014513 131.17946586679318,140.3169563710435 131.17946586679318,140.8208533437246 131.76491633840487,141.20049909904992 131.94055147990002,141.42138285470355 132.0342235553544,141.78031731430747 134.10086372014484,145.45927822876183 134.94976690397016,147.3228354166895 135.4825268331624,148.06134105770252 135.4883813378692,148.27529902720198 135.72841603125562,148.64109646222278 136.1616493802576,149.90411664916974 136.49535614904016,150.49765842114357 136.7763723754033,151.72613418836772 136.87004445088678,152.96838882816155 136.60659173867316,154.74891133283745 136.67684579527122,154.85242854389435 137.28571428571013,155.0387590975697 137.21546022914117,155.59084640962465" stroke="#4DD2FF" stroke-linecap="round" stroke-linejoin="round" stroke-width="0.5"><title>2025-08-08 10.0km</title><desc>1754654808000</desc></polyline><polyline fill="none" points="163.0000000000582,153.24005862693593 156.82552230381407,151.97857154429948 149.74545454548206,148.7115687426558 142.43670242803637,147.13733088164736 139.8571428571595,146.75994137307134 149.5808018069365,148.7115687426558 157.00846979109338,152.08639158127335 162.84449463582132,153.2077130050675" stroke="#4DD2FF" stroke-linecap="round" stroke-linejoin="round" stroke-width="0.5"><title>2025-08-07 5.0km</title><desc>1754573743000</desc></polyline><polyline fill="none" points="188.71428571426077,153.25159321424144 182.5962684050901,152.02825428539654 175.60424862313084,148.81960019956023 174.71203776547918,148.5513133518907 165.57142857142026,146.74840678575129 168.00224794872338,147.26352631389454 168.20254018204287,147.177673246224 168.7396875350969,147.40303738931107 175.1035180397448,148.7015540766006 182.67820613685763,152.114103126798 188.30459705513204,153.24086223701306" stroke="#4DD2FF" stroke-linecap="round" stroke-linejoin="round" stroke-width="0.5"><title>2025-08-04 5.0km</title><desc>1754309955000</desc></polyline><polyline fill="none" points="34.428571428579744,179.47887390688265 29.802807747299084,178.5522225261011 24.468087872111937,176.10316089617845 23.667879890825134,175.8383927476243 15.202521773055196,174.1670225110065 13.71441570261959,174.09255466454488 11.903418692352716,174.2332160910155 11.285714285710128,174.10082887329918 11.419082282634918,174.2001193082324 12.268425841699354,174.25803866866045 14.718185363337398,174.12565149420698 18.08046275837114,174.78758505924634 18.62095411415794,174.79585919231613 19.554530092311325,175.0771791802399 23.576628103473922,175.8466667662433 24.692707656300627,176.243818599738 29.71857532823924,178.5439488021657 33.95125438712421,179.396137635973" stroke="#4DD2FF" stroke-linecap="round" stroke-linejoin="round" stroke-width="0.5"><title>2025-08-03 6.5km</title><desc>1754227262000</desc></polyline><polyline fill="none" points="57.462288207607344,179.49630756306578 51.3208477361477,178.27359868671192 43.58208194025792,174.8326203848992 37.0,173.4908229645589 44.151243837492075,174.98411250352365 51.559528531797696,178.3709831309825 60.14285714284051,180.08060560686863 57.65506885026116,179.51794829262508 57.65506885026116,179.3556427060612" stroke="#4DD2FF" stroke-linecap="round" stroke-linejoin="round" stroke-width="0.5"><title>2025-08-01 5.0km</title><desc>1754057984000</desc></polyline><polyline fill="none" points="83.64301985030761,186.4460356657073 79.69508623494767,185.6658664918432 75.3488447771233,183.663618479688 74.41750732183573,183.36672804594855 67.38854539539898,182.00653781575966 66.10575984380557,181.96511024413485 64.82883176050382,182.07558370826882 64.21965506020933,181.96511024413485 63.71591278881533,181.68202111347637 63.34689228766365,181.32988408894744 62.92515457209083,180.52893768927606 62.71428571428987,179.83155370215536 65.29742922229343,177.69102027665213 67.08981451351428,175.77828892417165 68.72990562970517,174.3419761663754 69.96583143511089,173.63071308512008 70.93231370000285,172.9194420202184 71.61763748782687,172.85038615182566 71.86365115526132,172.69846297644108 72.61340709406068,171.83525620186265 73.19915392124676,170.53697106867912 73.77318581193686,170.0190307463854 76.51448096326203,168.51352683576988 79.72437357631861,167.12539290572022 79.77709079076885,167.5742952654473 80.24568825252936,167.89888422092918 80.73185811910662,168.76905066238396 81.03058900099131,169.60467544002313 81.76863000326557,171.13087076060037 83.6898795964953,174.72867895750824 83.94760820048396,175.50207746052183 84.70907907583751,177.09718206475372 85.22453628378571,178.87177507413435 85.2596810934192,179.97655496497464 85.18939147415222,180.37703291997605 85.37097299058223,180.50822342399624 85.20110641067731,181.5508330388766 85.85714285715949,181.79939968692634 85.83371298405109,182.1377249472498" stroke="#4DD2FF" stroke-linecap="round" stroke-linejoin="round" stroke-width="0.5"><title>2025-07-28 10.0km</title><desc>1753704756000</desc></polyline><polyline fill="none" points="109.29905145155499,179.62339309346135 103.15245760278776,178.39394858543528 96.11181373958243,175.16658540300705 94.96631215867819,174.78236861684127 88.42857142857974,173.4760205880084 95.68341477436479,175.03485409847053 101.74619143432938,177.8889938183056 103.32009198045125,178.48176654760755 111.57142857142026,180.09540798341914 109.39218166138744,179.60143885875732 109.5039379131631,178.88792362737877" stroke="#4DD2FF" stroke-linecap="round" stroke-linejoin="round" stroke-width="0.5"><title>2025-07-22 5.0km</title><desc>1753194638000</desc></polyline><polyline fill="none" points="127.30655821049004,178.00730853663117 134.97280122013763,179.52813625075942 137.28571428571013,179.66565637082385 135.26792069140356,179.5524045257407 122.63268937470275,177.07699964019412 117.12150482970173,174.57724237036746 114.14285714286962,173.90577220060368 117.08718861211673,174.59342229957838 122.25521098118043,176.97992325796804 124.38281647179974,177.43294528967817" stroke="#4DD2FF" stroke-linecap="round" stroke-linejoin="round" stroke-width="0.5"><title>2025-07-19 6.4km</title><desc>1752877000000</desc></polyline><polyline fill="none" points="160.8805829123594,186.5090678070119 156.94199949118774,185.72492931657325 152.46767452845233,183.67779662703106 151.7023294690298,183.43491211275978 144.4315514045884,182.0331033946204 141.9117999781738,182.11638002176187 141.3642838971864,182.0122842208366 140.8520914343535,181.71387531553773 140.35167351088603,181.18645150646626 139.91601555401576,180.20792997979152 139.85714285713038,179.85399296027026 142.42987971068942,177.72338935386506 144.1313006505079,175.8772712756545 145.80917251153733,174.4128312849789 147.85794236289803,173.04552753377357 148.21706581383478,172.8720097303667 148.7645818948222,172.84424683795078 149.15314169420162,172.60132101306226 149.78896682048799,171.84477465048258 150.36003198023536,170.54682555107865 150.96642075807904,169.9846040935663 153.94537922012387,168.360380888058 156.9890976487368,167.06236076442292 156.9949849183904,167.5621363511309 157.46596649341518,167.87449410081172 157.7779917868611,168.45061659747444 158.41970418285928,169.92213473632728 160.39782679796917,173.6424251672579 160.9159065305139,174.88478718652914 161.0572010030155,175.0166565927575 161.9461787258624,177.2930959373116 162.1463458952494,177.57764513507573 162.46425845837803,178.76440979084873 162.5231311552925,179.54863395157736 162.42893484028173,180.742301754246 162.14045862556668,181.85961007181322 162.9999999999709,182.0539225616085" stroke="#4DD2FF" stroke-linecap="round" stroke-linejoin="round" stroke-width="0.5"><title>2025-07-17 10.0km</title><desc>1752756134000</desc></polyline><polyline fill="none" points="188.71428571426077,180.0514389204036 182.57882259972394,178.8227833619676 174.79748264380032,175.363066024438 165.57142857142026,173.5199896510312 175.20895185420522,175.53551585873356 182.4050911553786,178.8120056141197 188.43082914710976,180.0406613063751" stroke="#4DD2FF" stroke-linecap="round" stroke-linejoin="round" stroke-width="0.5"><title>2025-07-14 5.0km</title><desc>1752500928000</desc></polyline><polyline fill="none" points="34.428571428579744,206.81334729316586 28.294538143614773,205.60832446050335 21.95241818384966,202.6650205070764 20.450575226161163,202.12113943965232 11.285714285739232,200.32950984968193 21.04769351053983,202.28110477307928 28.40310510440031,205.65098038915312 33.77716966380831,206.72803642991494" stroke="#4DD2FF" stroke-linecap="round" stroke-linejoin="round" stroke-width="0.5"><title>2025-06-21 5.0km</title><desc>1750468889000</desc></polyline><polyline fill="none" points="52.83402734514675,204.99270042486387 58.85212629919988,206.19475270412659 60.14285714284051,206.26361952147272 59.03272238431964,206.19475270412659 49.19554739497835,204.27270916015186 48.13852913209121,203.85949270967103 44.97809764253907,202.3568623973515 44.42037443848676,202.1752919081955 37.972031869896455,200.9230660215071 37.0,200.8792376213787 37.860487229103455,200.89802122554465 40.37289747202885,201.3613481848115 44.89311124954838,202.3380792698772 48.25538542243885,203.92836232435366 49.115872651542304,204.26018749317154 50.05072297449806,204.44801221155285" stroke="#4DD2FF" stroke-linecap="round" stroke-linejoin="round" stroke-width="0.5"><title>2025-06-17 8.1km</title><desc>1750165544000</desc></polyline><polyline fill="none" points="85.85714285710128,206.79934419646452 80.022207490867,205.6390140897638 72.41531322500668,202.2423315125052 62.71428571426077,200.34351294639782 72.4332117997692,202.28452705782547 79.89691746764584,205.62846557050216 84.81902552198153,206.63056977203087" stroke="#4DD2FF" stroke-linecap="round" stroke-linejoin="round" stroke-width="0.5"><title>2025-06-15 5.0km</title><desc>1749939796000</desc></polyline><polyline fill="none" points="104.42024138872512,204.89796699699582 109.88213297660695,205.98931206904308 111.57142857142026,206.09380138271808 110.24166235976736,206.012531934226 101.10075091966428,204.23618303955664 100.20931505181943,203.89948278505108 97.2296537256916,202.48299635151125 96.56477061990881,202.26239261760202 90.5561973672302,201.1013052848175 89.8272884808539,201.04905576014426 88.42857142857974,201.15936025218616 90.41337062598905,201.08969428377168 96.30866749765119,202.22756036563806 97.02280120388605,202.4249428258372 98.72687197884079,203.23188116386154" stroke="#4DD2FF" stroke-linecap="round" stroke-linejoin="round" stroke-width="0.5"><title>2025-06-11 8.1km</title><desc>1749642919000</desc></polyline><polyline fill="none" points="137.28571428573923,206.79223891332367 131.27341716061346,205.62875940347294 123.71766465407563,202.2545900044206 114.14285714284051,200.3506182295314 123.82534758764086,202.29690006434976 131.33623220515437,205.6816451380946 136.28964715008624,206.67589158952615" stroke="#4DD2FF" stroke-linecap="round" stroke-linejoin="round" stroke-width="0.5"><title>2025-06-08 5.0km</title><desc>1749387304000</desc></polyline><polyline fill="none" points="148.82297702273354,209.79115487463423 151.31528471503407,208.30302789091365 156.55884115875233,207.3490970111743 159.21298701292835,205.36491245785146 162.09370629361365,205.44122745614732 162.8705294703832,204.79254943976412 157.75644355628174,196.47410131286597 154.29310689296108,197.16095313805272 150.9916083915159,199.1070259931148 149.14665334660094,199.1070259931148 146.20119880116545,200.4807179677009 141.37842157820705,201.47282548676594 141.54025974019896,204.60176155919908 139.8571428571595,206.7004225286655 141.28131868119817,208.26487070554867 141.89630369632505,210.21088185510598 142.80259740259498,210.7832360174798 148.43456543446518,209.6003697173437 151.41238761227578,208.26487070554867 155.74965034949128,207.69251242725295 159.37482517468743,205.36491245785146 161.93186813173816,205.479384949198 162.9676323675085,204.60176155919908 157.75644355628174,196.3596258776961 153.9046953044599,197.19911153326393 151.0563436561497,199.06886780582136 148.46693306672387,199.33597502979683 145.2949050947791,200.74782411474735 141.47552447533235,201.39650962353335 141.57262737245765,204.79254943976412 139.8571428571595,206.7004225286655 141.37842157820705,208.3411850721168 142.155244755093,210.32535276227281 143.25574425572995,210.85954983517877 152.1244755241787,208.15039912474458 155.84675324661657,207.73066967487102 159.05114885105286,205.55569992266828 162.02897102874704,205.5175424380286 163.0,204.56360397054232 157.40039960027207,196.24515040504048 153.58101898082532,197.42806181733613 150.92687312688213,199.06886780582136 141.63736263709143,201.2057198927505 141.60499500494916,204.60176155919908 139.88951048930176,206.62410780478967 141.34605394594837,208.26487070554867 141.89630369632505,210.0964109103079 143.547052946873,210.89770673780004 156.6235764233861,206.92936660093255 158.2419580417918,204.7543918720039 157.75644355628174,202.57940363459056 155.6201798201073,199.90834696652018 153.807592407451,198.99255141877802 152.25394605379552,198.91623501494178 150.47372627363075,199.64124017916038 147.59300699294545,203.11361252333154 142.99680319672916,203.87676666505286 140.24555444542784,206.0517468447215 140.14845154830255,206.96752393167117 141.70209790195804,208.8372280485346" stroke="#4DD2FF" stroke-linecap="round" stroke-linejoin="round" stroke-width="0.5"><title>2025-06-04 6.4km</title><desc>1749041988000</desc></polyline><polyline fill="none" points="188.71428571426077,206.81339366111206 182.78275078936713,205.62876010735636 176.02564670692664,202.50845079131977 175.00265883788234,202.169970533163 165.57142857142026,200.32946348175028 175.27186617185362,202.2757457405387 182.6481471224106,205.60760580544593 187.57464133383473,206.62300710011914" stroke="#4DD2FF" stroke-linecap="round" stroke-linejoin="round" stroke-width="0.5"><title>2025-05-28 5.0km</title><desc>1748436903000</desc></polyline><polyline fill="none" points="34.42857142863795,233.58897441886074 28.00203435809817,232.27253646807367 20.559335443074815,228.90582870317303 11.285714285739232,227.11452089269005 20.25723327306332,228.84108320189262 21.374095840903465,229.1971829353206 28.54215641960036,232.47755664301076 34.31871609407244,233.59976482159254" stroke="#4DD2FF" stroke-linecap="round" stroke-linejoin="round" stroke-width="0.5"><title>2025-05-27 5.0km</title><desc>1748351986000</desc></polyline><polyline fill="none" points="54.13837004743982,235.13120187274035 54.16929750004783,233.7457059796725 54.896092637151014,232.10040991324786 55.37546815315727,229.0478961027111 55.34454070049105,229.3293366263897 54.64867301599588,229.41593358471437 51.262116951460484,231.81897554986062 49.9786276667146,232.1220586845593 49.46832469810033,231.27775386167923 50.05594629829284,230.3251980709174 51.13840714091202,229.48088126459334 50.96830615133513,228.03037514313473 51.4786091199494,227.09944454810466 50.79820516181644,226.70975063848164 48.30854522396112,226.75305002106325 47.659068718377966,225.8004601845023 47.875560886983294,224.67466295431223 48.354936402931344,224.82621316458972 48.30854522396112,224.09011044372164 49.019876634760294,224.52311256260145 50.31882964586839,224.47981241735397 51.354899309400935,225.17261296395736 52.76209840475349,225.21591287230694 53.33425627864199,224.9344632037537 54.74145537393633,222.96429800324404 54.803310279210564,219.67340423043788 54.293007310596295,219.0888286252448 53.48889354185667,218.78571428571013 52.49921505723614,219.0671776250747 51.61778265691828,220.04146896731254 50.93737869866891,220.27962793266488 49.54564332973678,220.0198181300293 48.07658932910999,219.2187345486018 46.731245139148086,219.67340423043788 46.050841180898715,220.71264308538957 46.081768633564934,221.8168250206145 46.66939023375744,222.63954255401768 47.999270697531756,223.26740233750752 48.30854522396112,224.02515999817842 47.70545989734819,225.4324121915124 48.13844423444243,226.7314003316642 48.24669031868689,228.52831195371255 47.67453244468197,230.4767415171009 48.12298050808022,231.01796662951529 49.43739724549232,231.3427005863996 49.94770021404838,232.1220586845593 48.77245701360516,234.02713606006728 47.318866739282385,234.61164268964058 44.8910617067595,236.38679442929424 43.12819690606557,237.1444735684272 42.72614002163755,238.18356901445804 41.73646153701702,239.26595103572618 42.58696648478508,241.69045318551798 43.360152800858486,241.8636301339866 44.38075873814523,241.23586256891576 45.571465664950665,241.73374744490866 46.43743433896452,241.62551176882698 47.117838297155686,240.91115398635156 47.61267753946595,239.11441810976248 48.78792073990917,238.46498923015315 51.4786091199494,239.3092461241322 52.49921505723614,238.8113517138263 54.09197886841139,238.72476118179475 54.18476122635184,233.91889379556233 55.40639560582349,229.63242572138552 55.22083088994259,229.3293366263897 54.75691910024034,229.3726351129735 51.27758067776449,231.84062436924432 50.025018845684826,232.10040991324786 48.64874720299849,234.09208137443056 47.17969320242992,234.6765877041471 44.875597980455495,236.38679442929424 43.22097926400602,237.0362339690182 42.72614002163755,238.24851219671837 41.73646153701702,239.3525411976516 42.509647853148635,241.582217472489 43.019950821762905,241.92857142857247 44.287976380146574,241.23586256891576 45.74156665446935,241.75539456897968 46.71578141278587,241.36574576881685" stroke="#4DD2FF" stroke-linecap="round" stroke-linejoin="round" stroke-width="0.5"><title>2025-05-23 6.4km</title><desc>1747958832000</desc></polyline><polyline fill="none" points="76.38835443579592,231.43792281483184 77.01467277831398,232.03293090171064 78.58046863472555,232.28346004414198 79.36336656287313,233.2855731863965 79.16204995277803,237.23134037874115 78.78178524482064,237.95159029361093 77.41730599862058,238.35868681859574 76.07519526453689,237.88895997876534 74.82255857926793,238.1707962271903 72.69754991703667,236.9181873583293 71.42254471965134,237.41923193400726 70.48306720587425,237.262655651386 70.75148935255129,236.354510572055 70.08043398568407,234.60083836350532 70.28175059566274,233.34820507568656 69.56595820421353,232.15819551571622 69.87911737547256,230.27921730790695 74.39755684684496,230.0913184267265 75.94098419114016,230.65501449181465 76.74625063140411,231.93898238486145 78.46862607356161,232.25214392005 79.2291554894764,232.9724134184653 79.16204995277803,237.32528618045035 78.82652226928622,237.95159029361093 77.50678004743531,238.3273717334523 76.23177485004999,237.9202751388657 74.77782155480236,238.13948110991623 72.65281289257109,236.9495026844379 69.94622291217092,237.51317763931002 68.4922696169233,238.7031524021004 68.96200837381184,239.0476173377101 69.31990456953645,240.92650558087917 71.5120187685825,241.9285714285652 72.451496282476,241.27096633439942 73.07781462511048,239.98706386882986 72.98834057606291,238.98498739759088 71.82517793984152,237.1373945287778 72.98834057606291,236.9495026844379 74.80019006715156,238.13948110991623 76.23177485004999,237.7323840976751 76.05282675218768,237.262655651386 74.59887345694005,237.293970918603 73.81597552879248,236.29187971091596 74.55413643247448,233.34820507568656 72.6304443803383,230.4044831215724 72.76465545373503,228.05573485606874 73.27913123508915,227.05359309389314 74.3080827977974,226.45856882778753 76.25414336239919,227.08491010704893 77.84230773104355,226.6777885192132 76.05282675218768,228.4315366030496 74.19624023674987,228.33758623863105 73.07781462511048,227.49203078978462 71.35543918295298,227.1162271147332 71.40017620741855,223.29551264012116 72.16070562333334,221.6983050921117 72.20544264779892,219.31812681804877 72.67518140480388,218.84835113451118 74.10676618781872,218.78571428571013 78.22257243900094,219.3807634848199 79.07257590384688,220.1324018145533 79.36336656287313,221.6983050921117 80.07915895443875,222.48125170932326 79.60942019743379,223.10760659285006 79.90021085657645,223.51473611824622 78.4909945857944,224.36030993249733 78.33441500004847,226.33330031481455 76.25414336239919,228.36890303208202 74.62124196917284,228.4315366030496 73.0107090882957,227.3980799432902 71.44491323188413,227.21017810575722 71.37780769518577,223.51473611824622 72.33965372119565,220.32031091483077 73.34623677178752,219.944492521332 73.3686052840203,219.00494316298864 77.95415029209107,219.28680847671058" stroke="#4DD2FF" stroke-linecap="round" stroke-linejoin="round" stroke-width="0.5"><title>2025-05-20 5.0km</title><desc>1747754393000</desc></polyline><polyline fill="none" points="108.5050806934014,231.97439130741986 110.66766288108192,232.2407487896562 111.57142857136205,231.28947113483446 106.21338912134524,223.22253245912725 102.46921697549988,224.1357801540289 99.56425582792144,225.8481131446024 97.75672444701195,225.92421663823188 93.36700537952129,227.59848930101725 89.84877465630416,228.09315923336544 90.139270771062,231.32752229072503 88.42857142852154,233.53448224172462 89.84877465630416,234.79016012648935 90.36521219369024,236.5404914628889 91.13986849959474,237.30150235118344 92.59234907350037,237.52980529429624 99.85475194267929,235.17066768507357 104.17991631804034,234.56185539241415 107.92408846388571,232.0885445390595 110.66766288108192,232.1646466727252 111.50687387934886,231.4416757337458 106.34249850572087,223.2605844940408 104.92229527782183,223.29863652482163 99.69336521218065,225.77200963452924 97.30484160187189,226.03837184756412 94.30304841592442,227.4082314480911 89.59055588766932,228.28341671303497 90.26838015555404,230.79480573019828 88.42857142852154,233.4964313262899 89.78421996417455,234.6379569869605 90.20382546330802,236.23608664330095 91.17214584583417,237.26345184620004 92.59234907350037,237.45370432993514 100.46802151820157,234.86626167138456 104.69635385542642,234.33355050900718 107.76270173327066,232.1646466727252 110.69994022708852,232.1646466727252 111.50687387934886,231.36557344259927 106.34249850572087,223.29863652482163 105.21279139269609,223.18448041996453 102.30783024511766,224.1357801540289 99.79019725043327,225.77200963452924 97.72444710088894,225.8481131446024 93.85116557090078,227.48433460170054 90.01016138668638,228.16926223758492 90.20382546330802,231.17531764213345 88.49312612076756,233.4203294828476 89.78421996417455,234.71405856503407 90.68798565445468,236.95904765676823 92.721458457876,237.4156538414245 99.2737597131636,235.20871841805638" stroke="#4DD2FF" stroke-linecap="round" stroke-linejoin="round" stroke-width="0.5"><title>2025-05-14 5.0km</title><desc>1747227249000</desc></polyline><polyline fill="none" points="122.33835228561657,241.677620642673 122.80976641306188,241.2474184051389 123.49407724326011,238.7020321549935 125.54700973356375,239.024688929072 126.65711396909319,234.57913991018722 126.44421726639848,231.72890618699603 124.30004333204124,226.36889898781374 124.39128477603663,225.16780319344252 125.88156169501599,224.3610921407817 128.10177016607486,223.98462562919303 129.53121945564635,222.99863782600733 130.70215132046724,223.10620041897346 131.14315163326683,222.6400953416305 128.78608099615667,218.87535208002373 128.19301161001204,218.78571428571013 126.56587252515601,219.37732282582147 125.54700973356375,220.07649381220108 124.665009108081,220.09442123434565 122.87059404241154,220.8115165172203 121.03055825468618,221.08042644250963 121.15221351344371,222.47875096871576 120.28541979531292,223.57230417577375 120.43748886859976,223.9666986309312 120.95452371804276,224.3073112632701 121.47155856754398,225.50841333926655 122.12545558292186,225.58012064853392 127.96490800002357,223.82328257482732 128.61880501545966,223.24961710009666 128.8621155328583,222.47875096871576 128.57318429340376,221.47482687112642 127.55432150192792,220.38125972254784 126.3073551003472,219.9868566723162 125.21245777216973,220.29162274871487 123.7525946678943,221.94093524971686 121.66924836288672,222.2994792577374 120.46790268330369,223.37510659359396 120.49831649800763,223.9666986309312 122.12545558292186,225.22158378970926 123.98069827788277,225.02438818430528 127.91928727808408,223.82328257482732 128.7708740888629,223.03449203148193 128.8164948108606,222.17398894381768 128.19301161001204,221.04457181120233 126.71794159844285,220.04063896210573 124.665009108081,220.11234865451115 122.73373187636025,220.88322587360744 121.00014444004046,221.22384488956595 121.13700660609175,222.5504595984239 120.30062670260668,223.64401232887758 120.96973062539473,224.3073112632701 121.30428258678876,225.27536436830997 122.07983486092417,225.59804747099406 122.99224930111086,225.13194945291616 124.68021601537475,224.84511924705293 124.28483642468927,225.58012064853392 124.33045714662876,226.15377799759153 126.24652747099753,230.95807978061202 126.70273469109088,233.18091821493 126.53545871045208,235.6726127009024 125.77511334361043,238.52277811830572 123.81342229724396,238.23597125340893 123.03787002310855,240.85306536607095 122.44480063702213,241.10401740930683 122.20149011962349,241.9285714285652 121.88214506558143,241.8030960834585" stroke="#4DD2FF" stroke-linecap="round" stroke-linejoin="round" stroke-width="0.5"><title>2025-05-06 7.1km</title><desc>1746539597000</desc></polyline><polyline fill="none" points="148.7001516695018,241.9285714285652 148.5433459361666,241.7437368312967 149.28033288265578,239.28541754298203 151.14632110868115,239.72902666444134 151.47561314865015,239.15603133078548 152.44780869496753,235.0710730477731 152.41644754831214,233.03779923715047 149.64098606922198,225.3481070483249 148.88831854937598,225.181739663778 147.8220395630924,225.6993265468045 147.1634554832708,225.56992997406633 145.92469019035343,223.64745498234697 146.77144115010742,222.723180404937 146.56759369681822,221.24433060690353 147.6652338298154,221.1888734886743 151.33448798867175,220.1536706211773 152.52621156157693,219.41423613397637 154.4862832276267,218.82268622360425 157.01085553359007,222.6862093170348 156.69724406697787,223.18531832308508 155.3173536140821,223.05591983287013 153.8433797211619,224.12807577263447 151.60105773527175,224.4608124452061 150.28388957562856,225.08931326845777 148.6060682295356,225.3111365325749 147.5868309631478,225.73629697797878 146.92824688338442,225.4590185474517 146.55191312351963,224.4238417360175 145.95605133695062,223.98019259753346 145.95605133695062,223.62896954015014 146.77144115010742,222.53832488514308 146.55191312351963,221.26281630893936 148.2767761895666,221.04098775147577 151.28744626865955,220.0797273174976 154.1413106144173,218.78571428571013 154.5803666675929,218.9336019889597 156.99517496017506,222.6862093170348 156.75996636028867,223.14834733596945 155.4271176273469,223.05591983287013 153.4984071078943,224.25747344504634 151.93034977506613,224.3683856571297 147.6652338298154,225.6993265468045 147.0066497499938,225.5144742698467 146.58327427011682,224.4238417360175 145.95605133695062,223.94322178367293 146.7557605766924,222.57529600517591 146.56759369681822,221.24433060690353 148.214053896314,221.04098775147577 151.16200168209616,220.1351847983169 152.21260009502294,219.48817972773395 154.1726717610727,218.78571428571013 154.5333249476389,218.9336019889597 156.97949438687647,222.6677237701224 156.74428578699008,223.1298618393048 155.3173536140821,223.03743432622286 153.79633800126612,224.14656116046535 151.58537716185674,224.4608124452061 150.00163925572997,225.14476911169186 148.7001516695018,225.25568074370676 147.6965949764126,225.71781176341756 146.9596080299816,225.44053330266615 146.56759369681822,224.4238417360175 145.94037076359382,223.96170719161455 145.92469019035343,223.64745498234697 146.55191312351963,223.03743432622286 145.81492617697222,223.721396731009 146.50487140350742,224.53475383938348 146.81848287006142,225.38507755610044 147.4927475231816,225.79175260980264 151.39721028192434,224.5717245243868 153.73361570789712,224.29444419048377 155.2389507474145,223.14834733596945 156.63452177360887,223.14834733596945 157.04221668018727,222.723180404937 154.4235609343741,218.78571428571013 152.43212812161073,219.37726432505588 151.19336282869335,220.17215644204407 150.08004212239757,220.24609970550227 148.3708596295328,220.94855910028855 146.34806567017222,221.35524478893785 146.69303828349803,222.53832488514308 145.89332904369803,223.51805684462306 145.86196789698442,223.9986780015024 146.48919083015062,224.4792977967445 146.77144115010742,225.3481070483249 147.36730293661822,225.71781176341756 149.64098606922198,225.32962179146125 152.08715550840134,231.68843134895724 152.36940582829993,233.13022130260651 152.43212812161073,234.99713624521974 151.31880741531495,239.56267337978352 149.1862494426896,239.30390127950523 148.71583224274218,241.54041854180105 148.4649430695572,241.7437368312967" stroke="#4DD2FF" stroke-linecap="round" stroke-linejoin="round" stroke-width="0.5"><title>2025-04-29 10.1km</title><desc>1745929124000</desc></polyline><polyline fill="none" points="187.8253283186932,228.14967748911295 187.4357851902023,227.8200157467436 187.65552746783942,226.60732282868412 187.10617177386303,228.4204703111027 186.6866637894418,228.47933822613413 185.43812812137185,233.37703647252783 185.29829212656477,233.41235560599307 178.93575436220272,232.15263271285949 170.82526666257763,228.5028853831609 165.57142857142026,227.38438975946337 170.7853135211626,228.51465895975707 177.18780442688148,231.5168791373726 179.00567235960625,232.199725421553 188.71428571431898,234.10696288560575 185.38818669464672,233.3888095182847 185.59794068685733,232.52937380820367 186.18724952213233,232.38809605130518 187.52567975828424,226.76038190833788 187.78537517727818,226.6661917311285 187.4357851902023,227.58454245809844" stroke="#4DD2FF" stroke-linecap="round" stroke-linejoin="round" stroke-width="0.5"><title>2025-04-22 6.3km</title><desc>1745328842000</desc></polyline><polyline fill="none" points="19.499636230408214,268.0342131406942 19.884267061250284,267.86419458061573 20.685581291967537,265.23833121078496 22.73694572254317,265.54059088959184 23.810706791700795,261.6300656154781 23.634417660941835,257.68166802675114 21.406764099549036,252.2217739715852 21.358685245679226,251.27713817849872 22.56065659178421,250.2947114945855 25.092809560825117,249.8790677603829 26.919806006888393,248.68880973692285 28.121777352993377,248.80216799593472 28.618592176004313,248.36762760062993 27.54483110678848,246.68613494095916 26.102465491567273,247.42297081029392 24.948572999273892,246.08154932482284 23.71454908401938,245.5714285714348 21.406764099549036,245.76036235882202 19.836188207380474,246.4594155819359 17.720718638272956,246.8183877634583 18.041244330524933,248.1409104403283 17.11171982291853,249.48231599376595 17.800850061350502,250.0679968539771 18.15342832292663,251.05042482243152 18.87461113050813,251.42828025124618 21.50292180723045,250.80481835214596 23.02541884558741,250.14356843377755 25.02870442235144,249.8790677603829 26.679411737597547,248.76438191789202 28.121777352993377,248.78327495801204 28.602565891342238,248.32984142782516 27.560857391450554,246.68613494095916 26.11849177617114,247.3851844316523 24.948572999273892,246.06265599036124 23.810706791700795,245.59032195944746 21.326632676529698,245.76036235882202 19.868240776646417,246.4405222886562 18.121375753718894,246.70502820747788 17.880981484486256,246.89396075962577 18.009191761375405,248.19758975818695 17.11171982291853,249.38785115363135 17.76879749208456,250.0679968539771 18.10534946905682,251.06931761339365 18.79447970748879,251.46606574878388 23.05747141491156,250.1246755419561 24.964599283935968,249.91685359558323 26.695438022259623,248.76438191789202 28.18588249135064,248.76438191789202 28.586539606796578,248.29205524682766 27.52880482218461,246.64834840172261 26.038360353035387,247.36629123918829 24.932546714728232,246.06265599036124 23.954943353193812,245.64700211107265 21.807421214936767,245.66589549083437 19.707977930491325,246.4594155819359 18.089323184394743,246.70502820747788 17.86495519982418,246.87506751368346 17.97713919216767,248.36762760062993 17.095693538314663,249.44453006389085 17.81687634595437,250.10578264805372 18.137402038264554,251.06931761339365 18.666269430541433,251.40938749938505 25.108835845487192,249.6334596309316 25.894123791484162,248.99109826296626 26.166570629924536,248.02755174903723 25.94220264541218,247.3096116495435 25.156914699298795,246.34605579130584 23.922890783986077,245.6092153454083 21.79139493027469,245.68478886855883 19.64387279195944,246.5160954495077 17.848928915220313,246.8183877634583 18.041244330524933,248.10312421811977 17.11171982291853,249.40674412575027 17.897007769031916,250.37028297560755 17.592508361383807,250.95596083652345 18.39382259210106,252.59962684792117 19.018847692059353,255.35792790194682 19.291294530499727,258.4562411487568 19.22718939196784,260.4965635452827 17.656613499857485,268.18534060970705 18.79447970748879,268.7142857142899" stroke="#4DD2FF" stroke-linecap="round" stroke-linejoin="round" stroke-width="0.5"><title>2025-04-15 8.8km</title><desc>1744723077000</desc></polyline><polyline fill="none" points="59.990768267947715,254.67047192761675 59.31904240336735,254.62565332266968 59.81333124707453,253.17651053681038 59.23032389301807,255.59671981816064 59.36973869509529,255.97020510127186 58.59662024723366,258.5397562831058 57.848849945294205,258.55469539340993 57.861524018109776,259.18213655773434 56.999687060015276,261.9757088117185 48.59677671728423,260.30256006996206 38.964481301780324,255.83575051650405 37.0,255.26805192779284 39.10389610391576,255.94032631604932 48.584102644294035,260.3174989883264 57.02503520582104,261.9607700739725 57.303864809917286,260.8403601053724 57.937568455643486,260.7656657820771 58.4825535909622,259.18213655773434 60.14285714284051,252.31000547400618 59.699264590861276,254.7750486156292" stroke="#4DD2FF" stroke-linecap="round" stroke-linejoin="round" stroke-width="0.5"><title>2025-04-11 5.1km</title><desc>1744377642000</desc></polyline><polyline fill="none" points="69.37367002147948,268.7142857142899 70.15640227816766,267.8481320653227 70.36406593810534,268.48833300681144 71.14679819490993,267.8481320653227 72.0253752177232,265.19315579885733 74.0860376895871,265.66389924554096 74.45344262645813,265.53209120969404 75.41189028776716,261.40833190134435 75.47578679857543,259.1486960385373 75.07643360632937,257.13382914828253 72.77615921915276,252.12480594670342 72.7122627084027,251.2774004471139 73.83045164664509,250.33583390789863 76.40228620445123,249.92154300559196 78.1913885056274,248.69749590181164 79.35749982693233,248.81048522838682 79.94854255148675,248.32086427953618 78.68658646399854,246.34353479689162 77.36073386581847,247.11563757278782 75.79526935238391,245.7974112383963 74.38954611570807,245.7220837155619 73.63876211433671,246.07988915649184 72.12121998384828,247.73708364306367 69.94873861822998,248.05722165561747 68.68678253079997,249.14945276502112 68.62288601999171,249.5072511102626 69.2778252552962,250.0533629458514 69.54938542598393,250.93843708386703 70.26822117198026,251.35272554859694 76.5780016091303,249.5825769832445 77.44060450431425,248.75399057431787 77.53644927032292,247.83124194359698 76.5939757367596,246.36236661291332 75.07643360632937,245.5714285714348 73.03174526209477,245.68441994184104 71.03497930103913,246.45652566244826 69.30977351067122,246.7578342762572 69.45354065985885,248.07605328498175 68.62288601999171,249.092958221765 68.62288601999171,249.45075668391655 69.2778252552962,249.99686869807192 69.9647127459175,251.3338942762639 70.6675743641681,251.35272554859694 71.61004789790604,250.86311180179473 72.47265079309,250.93843708386703 74.9965629678336,257.6234251322312 75.30007139395457,259.3746609541122 75.20422662782948,261.1823696443171 74.3096754772123,265.00485806130746 72.2490130054066,264.6847514366382 71.43433249328518,267.1702696607972" stroke="#4DD2FF" stroke-linecap="round" stroke-linejoin="round" stroke-width="0.5"><title>2025-04-08 5.6km</title><desc>1744119870000</desc></polyline><polyline fill="none" points="96.73292374919401,266.76239472150337 97.35948631784413,265.84798722057894 97.83686732250499,263.8081364398822 99.82098212320125,264.17742168151017 100.88017122738529,260.09765212857747 100.92492569657043,258.44461270024476 100.64148072502576,256.826727932581 98.61261145514436,251.79711302826763 98.61261145514436,250.82986142531445 99.73147318488918,250.00329637160758 102.07362373912474,249.6515652776725 103.62511200428708,248.5963673969236 104.96774607989937,248.5963673969236 105.32578183343867,248.13911283960624 104.14724747819128,246.27490777606727 102.70018630777486,246.8376889321662 101.32771591923665,245.69453765358776 99.11982877261471,245.64177662989823 97.07604134629946,246.39801632167655 95.37537151714787,246.71458072197856 95.46488045551814,248.13911283960624 94.67421816656133,249.08879393310053 95.25602626602631,249.75708468635275 95.59914386313176,250.7419291739934 96.52406955964398,251.0584850545565 97.34456816141028,250.6188239416515 98.73195670632413,250.46054564784572 100.08950893837027,249.86260402602784 102.16313267755322,249.56363238442282 103.72953909903299,248.52602062630467 103.49084859667346,249.00086073328566 103.87872066302225,248.42050041281618 105.02741870551836,248.50843392887327 105.28102736425353,248.06876586964063 104.35610166774131,246.57388550962787 103.0433039048803,247.2597735113959 101.9990329570719,246.04627737091505 100.89508938381914,245.57142857142026 99.0154016778688,245.62418961816002 97.18046844110359,246.36284246109426 95.420125986333,246.64423313111183 95.40520782989915,248.20945977891097 94.71897263568826,248.91292748553678 94.67421816656133,249.26466018910287 95.27094442240195,249.7922578072321 95.43504414276686,250.53089157537033 96.24062458815752,251.04089863305853 97.29981369228335,250.60123747220496 98.67228408070514,250.46054564784572 99.92540921800537,249.89777712388604 101.11886172974482,249.7394981230318 101.25312513730023,250.7419291739934 104.31134719855618,256.9498284305155 101.19345251168124,258.0401430284837 101.0144346349407,260.8010680279258 100.25360865867697,263.77296637282416 99.86573659244459,264.0719116987166 98.7916293318849,268.7142857142899 94.67421816656133,267.65921243224875 95.30078073521145,264.96874435480277 95.50963492470328,264.86323488912603 95.15159917116398,266.58654752734583" stroke="#4DD2FF" stroke-linecap="round" stroke-linejoin="round" stroke-width="0.5"><title>2025-04-02 6.9km</title><desc>1743601029000</desc></polyline><polyline fill="none" points="122.075983215007,268.7142857142899 122.6294610001496,268.2153838789818 123.39456264430191,265.47139852977125 125.95032771094702,266.0854409212625 127.00844700605376,261.2306098284753 126.68287183827488,257.6421704152017 124.19222180522047,251.9619243594061 124.17594304680824,251.44378469017101 124.66430579841835,250.75292942674423 125.5270799928112,250.33073876512935 128.29446891852422,249.83178486023098 129.58049083099468,248.7954914643924 130.0851323409588,248.7187287480483 130.10141109937103,248.02786279549764 129.4502607639297,246.70369547807786 128.92934049555333,246.74207727961766 128.4246989855892,246.16634937911294 128.00145126751158,246.26230415987084 127.05728328117402,245.68657469103346 126.04800026118755,245.60981061962957 125.00615972455125,245.97443966074206 123.60618650331162,247.70161959809775 121.48994791315636,248.00867203589587 119.91090834973147,249.27525768337364 120.85507633601082,251.04078611581645 121.92947438952979,251.48216545869946 125.6573100599926,250.23478620086098 128.06656630110228,249.88935653683438 129.90606599871535,248.62277530554275 131.12697287771152,248.77630078840593 131.55022059578914,248.31572393837268 130.23164116643602,246.3390679468721 128.7828316700179,247.12589483434567 127.90377871721284,246.10877648556198 126.7642656302196,245.5714285714348 124.63174828165211,245.6673836763075 122.6945760336821,246.4734044936049 120.6271737186471,246.81884085743513 120.7574037857703,248.33491466447595 119.87835083284881,249.46716380512225 120.59461620188085,250.138833584424 120.92019136960153,251.09835739721893 121.88063811435131,251.50135583979136 122.87364237598376,251.0024052511144 123.81781036226312,250.9448339384253 124.92476593260653,254.07284799806075 125.78754012705758,254.82126030426298 128.6363228445407,254.22636873037845 130.4269862670917,257.9875848753145 126.9758894891711,259.15815106392256 126.79682314698584,262.0941271175543 126.43869046249893,262.53547876402445 125.5270799928112,265.7784199930611 125.33173489227192,265.9319305240206 123.39456264430191,265.58653164120915 122.79224858398084,267.88917806893005" stroke="#4DD2FF" stroke-linecap="round" stroke-linejoin="round" stroke-width="0.5"><title>2025-03-25 6.1km</title><desc>1742909450000</desc></polyline></svg>