<?xml version="1.0" encoding="utf-8" ?>
<svg baseProfile="full" height="300mm" version="1.1" viewBox="0,0,200,300" width="200mm" xmlns="http://www.w3.org/2000/svg" xmlns:ev="http://www.w3.org/2001/xml-events" xmlns:xlink="http://www.w3.org/1999/xlink"><defs /><rect fill="#222222" height="300" width="200" x="0" y="0" /><text fill="#FFFFFF" style="font-size:12px; font-family:Arial; font-weight:bold;" x="10" y="20">Over 5km Runs</text><text fill="#FFFFFF" style="font-size:4px; font-family:Arial" x="10" y="280">Runner</text><text fill="#FFFFFF" style="font-size:9px; font-family:Arial" x="10" y="290">Elliont</text><text fill="#FFFFFF" style="font-size:4px; font-family:Arial" x="65" y="280">SPECIAL TRACKS</text><rect fill="yellow" height="2.6" width="2.6" x="65" y="283" /><text fill="#FFFFFF" style="font-size:3px; font-family:Arial" x="70" y="285.5">Over 20.0 km</text><rect fill="red" height="2.6" width="2.6" x="65" y="287" /><text fill="#FFFFFF" style="font-size:3px; font-family:Arial" x="70" y="289.5">Over 40.0 km</text><text fill="#FFFFFF" style="font-size:4px; font-family:Arial" x="120" y="280">STATISTICS</text><text fill="#FFFFFF" style="font-size:3px; font-family:Arial" x="120" y="285">Number: 55</text><text fill="#FFFFFF" style="font-size:3px; font-family:Arial" x="120" y="290">Weekly: 2.2</text><text fill="#FFFFFF" style="font-size:3px; font-family:Arial" x="141" y="285">Total: 374.0 km</text><text fill="#FFFFFF" style="font-size:3px; font-family:Arial" x="141" y="290">Avg: 6.8 km</text><text fill="#FFFFFF" style="font-size:3px; font-family:Arial" x="167" y="285">Min: 5.0 km</text><text fill="#FFFFFF" style="font-size:3px; font-family:Arial" x="167" y="290">Max: 11.4 km</text><polyline fill="none" points="34.42857142855064,44.900960912818846 34.24720107478788,45.636362637756974 29.676668159430847,44.712833783836686 28.428840125357965,44.251065283642674 27.333363188547082,43.66102380371012 23.198119122214848,41.86521810326667 14.441558441554662,40.14633703217987 12.809225257486105,40.07792307652562 11.285714285710128,40.21475092824403 14.006269592471654,40.13778529098636 22.72655620239675,41.83956343855971 23.945364979823353,42.215831014364085 28.327272727241507,44.302373028884176 29.51706224810914,44.75558998911583 31.504881325556198,45.0976387930059 31.67174205108313,44.78979493655061 31.577429467084585,44.65297505738272 31.64997760861297,44.473398604204704 32.1723242274893,44.46484733430407 33.00662785489112,44.68718004953553" stroke="#4DD2FF" stroke-linecap="round" stroke-linejoin="round" stroke-width="0.5"><title>2025-10-02 6.2km</title><desc>1759399141000</desc></polyline><polyline fill="none" points="59.19334495678777,51.256000815359585 58.92291427089367,52.24060801126325 58.59839744778583,52.24769146226754 58.49022517341655,52.77894808939163 54.99265496901353,52.12727269023162 53.724635530641535,51.71643049605336 50.118893051869236,49.99511515917402 49.09125644544838,49.633845662632666 41.93385762505932,48.24541872510599 40.83410616905894,48.17457982132328 39.16344548721099,48.29500591184478 38.52042141187121,48.1674959266893 38.039655748027144,47.89830735923897 37.643024075368885,47.52285828596359 37.33052639383823,47.00572676826414 37.0,46.021040316576546 37.883406907261815,45.192191961708886 39.64421115105506,43.80367018915422 41.453091961244354,41.87669288754114 43.045628222695086,40.466846111281484 45.2871981303615,38.9932047418406 45.54560967467842,38.87276142252813 46.092480617255205,38.85150669595896 46.35690173236071,38.70980834122747 47.192232073284686,37.739166307284904 47.733093445101986,36.48510368107236 48.36409837889369,35.9182877758285 51.212634937110124,34.34534774981876 54.4758318803797,32.93533762489096 54.4758318803797,33.40298256395181 55.094817672565114,33.920222289831145 55.96620543827885,35.88994685081707 58.502244315022836,40.73606544517679 59.752235040970845,43.690320164001605 60.076751864049584,44.90173832906294 60.142857142869616,45.8793575857344 60.04670401007752,46.95613859844161 59.824349890550366,47.678705334226834" stroke="#4DD2FF" stroke-linecap="round" stroke-linejoin="round" stroke-width="0.5"><title>2025-09-30 10.1km</title><desc>1759229695000</desc></polyline><polyline fill="none" points="85.8433138418186,45.54267363442341 80.96167143282946,44.54836376301682 76.03162747024908,42.25814076941606 75.05668188998243,41.92397425965464 66.62789705069736,40.28572173081193 65.26573904138058,40.24496872314921 63.64774424859206,40.39167944687506 62.71428571428987,40.155312028116896 63.55094114135136,40.44058295754803 66.1646250373451,40.26942053040693 66.96670792606892,40.36722767956235 75.04285287464154,41.948425518254226 75.72738913312787,42.152185696177185 79.3851636860054,43.896350118433475 81.29356780063245,44.67876581027667 85.69119467324344,45.55897368618025 85.85714285715949,45.510073520228616" stroke="#4DD2FF" stroke-linecap="round" stroke-linejoin="round" stroke-width="0.5"><title>2025-09-29 6.6km</title><desc>1759141711000</desc></polyline><polyline fill="none" points="109.88560397131369,53.01192357279797 109.73072255929583,53.74917480430304 109.22437948154402,53.65789653765387 105.87060121344985,53.00490209196869 101.27181467181072,50.89842331830732 100.05063430775772,50.540315081998415 92.92608935464523,49.17808126239834 90.65052399336128,49.29043153250677 90.13822393820737,49.23425642193615 89.33998896853882,48.81996346958476 89.08979591834941,48.56015127663704 88.75024820739054,47.9983916040801 88.42857142857974,47.043388925383624 88.72046332043828,46.706325778322935 91.31174848316004,44.627730755768425 92.7473800330772,43.03362766974897 94.4868174296571,41.50268979298562 96.62537231107126,40.09110475462512 97.4295642581128,39.957669743504084 97.69762824047939,39.81018862026394 98.38268063979922,39.100869931149646 99.06177606177516,37.633047055845964 99.6753447324736,37.043099255432026 103.70821842251462,34.93609872992238 107.1811362382723,33.580558634486806 108.10446773303556,33.3628267378881 110.26685052399989,32.57617633434711 111.57142857142026,31.965110909979558 108.36061776062706,33.201283242335194 107.08582460012985,33.53841703449871 105.89442912300001,33.980902459443314 105.72763375620707,34.360173262008175 105.85273028127267,34.66920707998361 106.2161059018108,34.82372343313182 106.56756756754476,35.44880853439099 107.80661886374583,38.15275850020407 109.74263651407091,41.81168935801543 109.74263651407091,42.00130199397245 110.18345284057432,42.787837342002604 110.97573083286989,44.70497704031732 111.19018201876315,45.51254629019968 111.4820739106217,45.5827692250532" stroke="#4DD2FF" stroke-linecap="round" stroke-linejoin="round" stroke-width="0.5"><title>2025-09-26 11.4km</title><desc>1758886655000</desc></polyline><polyline fill="none" points="137.28571428573923,46.837184312003956 132.8917470096494,45.94343883468537 127.99227907351451,43.674649169508484 127.20162419494591,43.43019607183669 119.30803696447401,41.90998424607824 118.01836220349651,41.871787544681865 116.56018722249428,41.99401691590174 115.85378245392349,41.88706622772588 114.87518502224702,41.16132510670286 114.53170380447409,40.64184263985953 114.18822258673026,39.77093692991912 114.21414569753688,39.442434598575346 114.86222346685827,38.87710140227864 114.22062647520215,39.404236553193186 114.14285714286962,39.641064099130745 114.82981957838638,41.168964526026684 115.18626235151896,41.52801629596797 115.79545545467408,41.86414820189384 116.54722566710552,42.02457422544103 118.46553586429218,41.87942688661133 119.32099851986277,41.92526292081311 126.76741208945168,43.36908266426326 127.97931751815486,43.689927459854516 132.87878545428975,45.98163331879914 134.54434532145387,46.32538273976388" stroke="#4DD2FF" stroke-linecap="round" stroke-linejoin="round" stroke-width="0.5"><title>2025-09-25 7.3km</title><desc>1758798919000</desc></polyline><polyline fill="none" points="162.9999999999709,43.967751648473495 162.5646258503548,45.49925647460623 158.10884353742586,44.63327860183199 152.91156462585786,42.23574969049514 151.60544217686402,41.83481750373903 143.57823129248573,40.303236448824464 142.20408163263346,40.27917994772724 140.74829931970453,40.415500016686565 139.85714285713038,40.21502923967637 140.61904761905316,40.44757529034541 142.35374149656855,40.31927411185461 143.802721088432,40.39144355227472 151.94557823130162,41.93104142770608 152.6802721088461,42.155563427826564 158.04081632650923,44.641296962181514 161.96598639458534,45.4110554904546" stroke="#4DD2FF" stroke-linecap="round" stroke-linejoin="round" stroke-width="0.5"><title>2025-09-23 6.7km</title><desc>1758623965000</desc></polyline><polyline fill="none" points="188.71428571428987,45.56986654445063 184.00410940742586,44.650183429133904 178.64968406167463,42.18639137774153 177.45424417834147,41.80669042917725 168.90004860589397,40.14442214724113 167.5614422694489,40.10223213282006 165.57142857142026,40.23724009813304 168.67098228092073,40.14442214724113 177.21086120809196,41.772939143709664 178.5208342538972,42.135764692116936 184.10432592462166,44.700808471709024 188.71428571428987,45.61205358146981" stroke="#4DD2FF" stroke-linecap="round" stroke-linejoin="round" stroke-width="0.5"><title>2025-09-22 6.4km</title><desc>1758538508000</desc></polyline><polyline fill="none" points="33.44878272851929,83.71121591484552 29.41800643087481,82.91450247956527 24.66789159394102,80.7582122606982 23.756316031242022,80.45851898412366 16.420303169521503,79.02582043866278 14.994028479559347,78.96003252607625 13.561552595318062,79.08429852904374 12.960036747826962,78.97465206777997 12.377124483231455,78.66764102313755 11.943040881946217,78.26560062645149 11.285714285710128,76.74513516465959 11.397335783200106,76.56238459278393 14.076251722552115,74.4205107891903 15.793982544797473,72.54174607784807 17.660542030323995,70.88955931529199 19.90537436841987,69.4347240085117 20.761139182344778,69.3177509552188 21.089802480506478,69.06187169004261 21.78433624256286,68.22842960221169 22.379650895745726,66.89782515707338 23.030776297673583,66.2983134302267 25.82131373451557,64.75564276731166 29.34359209923423,63.22755959536153 29.349793293513358,63.68818163333344 29.839687643543584,64.06106382325379 30.310978410649113,64.89455769299093 30.54662379421643,65.57450554692332 32.09072117591859,68.5647320417047 32.12792834173888,68.80599144881853 33.01469912723405,70.27546182779042 34.428571428579744,73.44092797071062" stroke="#4DD2FF" stroke-linecap="round" stroke-linejoin="round" stroke-width="0.5"><title>2025-09-21 9.0km</title><desc>1758451095000</desc></polyline><polyline fill="none" points="58.8090787716792,82.09268104084185 58.508678237645654,83.36737364918372 58.40053404538776,83.39569986780407 54.45927903871052,82.62380599757307 49.785046728968155,80.47803453155211 49.0100133511005,80.24433237310586 41.90253671561368,78.86334792582056 38.76034712945693,78.86334792582056 38.201602136163274,78.62963996353938 37.64886515351827,78.14097514595778 37.348464619455626,77.66647101124545 37.0,76.65371179659269 37.486648865102325,76.13670275820914 39.74566088113352,74.35901016993012 41.560080106777605,72.40420044728671 43.062082777003525,71.09387841226999 45.441255006648134,69.53562322860671 46.14419225632446,69.46479255985469 46.45060080103576,69.25938318395492 47.17156208274537,68.40232326534169 47.74232309742365,67.11317053156381 48.39719626164879,66.52525172846799 51.23297730306513,64.96688699826336 54.483311081450665,63.54307564240298 54.495327102806186,64.03893388402503 54.975967957259854,64.3576978983765 55.27036048064474,64.91021848571108 56.129506008001044,66.82275347432005 58.10614152200287,70.56265925124171 59.758344459260115,74.32359747314331 60.07676902535604,75.55594797618687 60.14285714284051,76.37041968203266 60.022696929227095,77.61689575259516 59.686248331097886,78.81377357978636" stroke="#4DD2FF" stroke-linecap="round" stroke-linejoin="round" stroke-width="0.5"><title>2025-09-18 10.1km</title><desc>1758194958000</desc></polyline><polyline fill="none" points="77.37616810371401,74.7707607802513 77.30925706026028,74.95806992324651 77.81945376633666,75.10594528866932 85.85714285715949,76.67340931238141 71.0196189788112,73.72576581755129 64.74670865817461,70.80760279862443 62.71428571428987,70.26536619782564 64.7048892560415,70.83717924706434 71.11998554391903,73.76519980874582 76.01285559401731,74.75104400581768" stroke="#4DD2FF" stroke-linecap="round" stroke-linejoin="round" stroke-width="0.5"><title>2025-09-16 5.4km</title><desc>1758020593000</desc></polyline><polyline fill="none" points="111.56436420721002,76.15066703488264 106.85949764522957,75.20974882051814 101.4552590266976,72.72000671645947 100.3673469387868,72.41190590239421 91.77001569859567,70.76312909390981 88.42857142857974,70.82974702803767 88.8665620094398,70.90469213451433 90.68210361068486,70.75480184805201 91.92543171116267,70.79643806820968 100.62872841444914,72.4701953408221 101.54709576140158,72.786622945423 106.91601255888236,75.25138261465327 111.57142857144936,76.18397366214776" stroke="#4DD2FF" stroke-linecap="round" stroke-linejoin="round" stroke-width="0.5"><title>2025-09-15 6.5km</title><desc>1757932870000</desc></polyline><polyline fill="none" points="137.28571428571013,83.92170676126261 133.01607742760098,83.06639630857535 127.96896496560657,80.75242377589166 127.3081107022881,80.54622449824092 119.21588545831037,78.97298041702015 117.99136138218455,78.94243163888314 116.55951047831331,79.07226385405374 115.93105103183188,78.98061760948622 115.24428091503796,78.6216686648113 114.86850103983306,78.26271788249142 114.49920012801886,77.65173360127665 114.18820988640073,76.85744607555534 114.14285714286962,76.62068555291626 114.25299952007481,76.46793640430406 116.9936010238016,74.22248551385564 118.8206686930207,72.23665268725745 120.73844184933114,70.54101243952027 123.20692689169664,68.9599055218714 124.01031834905734,68.86060776185332 124.36666133417748,68.60854358533106 125.04047352424823,67.8599840206225 125.68836986084352,66.39339516617474 126.36218205085606,65.73647562281985 129.43321068628575,64.05595574188192 131.7138057910779,63.01706874893716" stroke="#4DD2FF" stroke-linecap="round" stroke-linejoin="round" stroke-width="0.5"><title>2025-09-13 7.0km</title><desc>1757768754000</desc></polyline><polyline fill="none" points="163.0,76.28891116036539 157.8839722390403,75.28387374637532 152.25483254922437,72.68672864051769 151.3342493828095,72.38431596513692 142.09068890029448,70.5876058017966 139.85714285713038,70.59650050394703 142.21142111884546,70.65876339176612 151.06260189111345,72.36652694937948 152.1416460943874,72.68672864051769 157.9292468209751,75.33723887573433 162.9698169453477,76.35116970841773" stroke="#4DD2FF" stroke-linecap="round" stroke-linejoin="round" stroke-width="0.5"><title>2025-09-11 6.0km</title><desc>1757587445000</desc></polyline><polyline fill="none" points="186.5032220693247,83.16615323070437 182.5678806747892,82.39190835796035 178.20440228798543,80.36638379866054 177.2015060459089,80.06911707614199 170.25747592496919,78.72794292481558 169.04930852216785,78.68646286007424 167.6886539714469,78.79707630578923 167.01419158640783,78.67263616582204 166.18137716309866,78.02277813740511 165.83534863512614,77.40748089273256 165.57142857142026,76.54328929648909 168.1578451958485,74.39312954115303 168.94960538699524,73.63951933047792 169.87625805518473,72.54711432803742 171.5829411338491,71.04675528559164 172.84389254939742,70.30693384972983 173.69430164361256,69.67773313012731 174.45087249291828,69.55327510571078 174.7910361305985,69.35275888621254 175.4654985156667,68.578345467693 176.04025776553317,67.26458679781354 176.6853956990526,66.69758780935808 179.33632611684152,65.22474968423194 182.63239446817897,63.772622279502684 182.62652957785758,64.26358335983241 183.11331547316513,64.56092413832084 183.44761422052397,65.1694311540632 184.0986170443648,66.69067315627035 186.702628339699,71.73125528629316 186.84338570700493,72.21524072929606 187.01933241615188,72.40883387283247 187.78763304607128,74.28942224507045 187.9811744261533,75.03611099404952 188.26268916076515,75.11216213287844 188.3447976250609,76.46723987268342 188.0398233291926,78.48597549836268 188.26855405108654,78.65189611875394 188.7025559336471,78.73485626628826 188.71428571426077,78.85929628430313" stroke="#4DD2FF" stroke-linecap="round" stroke-linejoin="round" stroke-width="0.5"><title>2025-09-09 10.0km</title><desc>1757415422000</desc></polyline><polyline fill="none" points="34.39669421489816,107.12516851347027 28.89787485243869,106.0073588394589 23.05637544268393,103.29261789070733 21.988488783943467,102.95444348306046 12.257969303405844,101.05688471199392 11.285714285710128,101.03809679265396 14.35389610385755,101.46082398778526 22.15584415581543,103.02019972173002 29.176800472225295,106.11068639174482 34.42857142855064,107.12516851347027" stroke="#4DD2FF" stroke-linecap="round" stroke-linejoin="round" stroke-width="0.5"><title>2025-09-08 5.7km</title><desc>1757333196000</desc></polyline><polyline fill="none" points="60.14285714284051,107.07112462179794 54.951565557712456,106.09022679365444 48.89637964771828,103.29694200609083 48.01663405087311,102.99798975068552 38.49001956946449,101.13885702454718 37.0,101.03608971861831 38.125440313102445,101.11082958968473 47.786790606653085,102.97930520012596 48.991487279796274,103.37167990712624 54.88816046962165,106.09956873062765 60.071526418760186,107.12717558749864" stroke="#4DD2FF" stroke-linecap="round" stroke-linejoin="round" stroke-width="0.5"><title>2025-09-04 5.8km</title><desc>1756983645000</desc></polyline><polyline fill="none" points="85.85714285715949,106.77839632482937 81.30228365384392,105.86857306851016 75.85731456044596,103.3849454881638 72.90882554944255,102.69640055931814 66.48334478022298,101.47503750897886 65.16904189559864,101.4504461030665 63.57657967033447,101.58160017514456 62.71428571428987,101.38486898128758 63.11066277473583,101.56520592862944 63.660027472506044,101.63898000978952 65.16904189559864,101.49143177513179 66.56679258245276,101.53241742488899 75.2870879121183,103.22920373413945 76.21892170331557,103.56527764286875 81.31619162092102,105.92594963480224 84.17427884612698,106.44233676329168" stroke="#4DD2FF" stroke-linecap="round" stroke-linejoin="round" stroke-width="0.5"><title>2025-09-02 6.2km</title><desc>1756809719000</desc></polyline><polyline fill="none" points="111.57142857144936,107.079598094424 106.34846461948473,106.05984811671078 99.29105473964592,102.93442856586626 89.73431241657818,101.08367384476878 88.42857142857974,100.98924652413552 89.68624833112699,101.1025592965816 98.80240320428857,102.86833086332626 100.03604806409567,103.23658885008626 106.47663551403093,106.18259643416968 111.56341789051658,107.17401878198143" stroke="#4DD2FF" stroke-linecap="round" stroke-linejoin="round" stroke-width="0.5"><title>2025-08-29 5.7km</title><desc>1756465472000</desc></polyline><polyline fill="none" points="137.28571428573923,106.96493616118823 132.27155557650258,105.97691706912155 126.35058093050611,103.264294706074 125.4285243897175,102.98584166585351 116.13175596224028,101.18036527097138 114.14285714286962,101.18036527097138 116.23081988809281,101.26120834296307 125.67999435539241,103.08464769097918 132.15725104667945,105.98589911417366 137.16378945391625,106.98290003515285" stroke="#4DD2FF" stroke-linecap="round" stroke-linejoin="round" stroke-width="0.5"><title>2025-08-27 6.0km</title><desc>1756291993000</desc></polyline><polyline fill="none" points="161.95468994640396,106.97624584910955 158.05783555531525,106.26054227149143 156.36689282156294,105.82568139440264 151.03273710681242,103.32518723555404 149.93362432980211,102.97185047827224 141.26369976749993,101.2776251746036 139.85714285713038,101.12360298126441 142.1706599610916,101.45882738985529 149.91825212314143,102.98091041389125 150.86364283339935,103.27988773515244 155.9287849314278,105.68978690412041 157.19699198176386,106.13370808382751 161.94700384302996,107.03966232485254 162.1314703230746,106.33301886331901 163.0,106.4779718576101 162.56957821323886,106.37831670117885 162.60032262653112,106.16088685458817" stroke="#4DD2FF" stroke-linecap="round" stroke-linejoin="round" stroke-width="0.5"><title>2025-08-26 6.0km</title><desc>1756205162000</desc></polyline><polyline fill="none" points="188.71428571428987,108.40341677839751 184.29780864567147,107.53453490234824 179.4933540893253,105.32417273308965 178.49754520418355,105.01166762119101 170.55693928871187,103.47961017416674 167.90575978925335,103.59394397764117 167.20093401987106,103.43387660046574 166.52197341635474,103.02227309220325 166.17279367739684,102.60304480798368 165.59729373725713,101.17002734298148 166.01760268228827,100.70505260400387 167.19446772840456,99.759848527734 165.79774877257296,100.87274876772426 165.57142857142026,101.18527236408408 165.94000718477764,102.24479319305829 166.24392288347008,102.74786940831109 167.31086097471416,103.50247694979043 167.9768889953266,103.63967744669935 169.42533828283194,103.5100992066873 170.6216022032895,103.53296597236476 178.62040474193054,105.07264433798264 179.4998203807918,105.36990507142764 184.22021314813173,107.53453490234824" stroke="#4DD2FF" stroke-linecap="round" stroke-linejoin="round" stroke-width="0.5"><title>2025-08-23 7.3km</title><desc>1755948655000</desc></polyline><polyline fill="none" points="34.428571428579744,136.69380822225503 34.078466142120305,137.90006380012346 28.162584506324492,136.73613323287282 20.918098193535116,133.43472703440057 13.87110717059113,131.91096325878607 11.285714285739232,131.48769130191795 20.460268203518353,133.33949249862053 27.902249806094915,136.69380822225503 32.74088440655032,137.6778599504687" stroke="#4DD2FF" stroke-linecap="round" stroke-linejoin="round" stroke-width="0.5"><title>2025-08-19 5.0km</title><desc>1755607675000</desc></polyline><polyline fill="none" points="59.476061041408684,140.71873287312337 55.27398749659187,139.88829817083024 50.39882732107071,137.63421006208955 49.57476798820426,137.3969332881752 41.88145070473547,135.92134978737886 39.006678833509795,136.00291553962597 38.056808915454894,135.558010249144 37.402593872539,134.76458859794366 37.0377431755478,133.578146445303 39.76154234455316,131.36092723870388 42.3280782821239,128.66902222891804 41.573214771051425,129.34386241047469 39.83702869564877,131.22744685444923 37.0,133.58556177299033 37.13839164367528,134.14912431254925 37.66679610143183,135.17983846605057 38.11342367879115,135.59508580109105 38.88715877762297,135.9732552774003 39.31491476719384,136.03999084924726 40.79947967227781,135.90651964009885 42.03871393625741,135.92134978737886 45.15881644858746,136.51455302909744 45.4293092066946,136.4181578540738 46.66854347064509,136.64802304612385 47.03968469690881,136.81115271157614 48.920552945288364,137.09292121300678 50.13462509220699,137.48591217530338 50.763678018091014,137.47108236885833 50.751096959545976,137.6416249479662 51.153690832143184,137.62679517541255 50.851745427702554,137.82699683199462 51.31095406357781,138.1087611290277 54.997204209212214,139.76966381510283 55.70174348616274,139.96985917050188 55.92191201020614,139.86605424488516 57.12340309863794,139.95502990508976 57.12340309863794,140.23678539535467 59.16153457851033,140.64458732934872 59.520094746229006,140.6816601113169 59.62074321435648,140.17005393724685 59.96043179434491,140.1107370306854 60.14285714284051,139.49532107571576" stroke="#4DD2FF" stroke-linecap="round" stroke-linejoin="round" stroke-width="0.5"><title>2025-08-16 10.0km</title><desc>1755297330000</desc></polyline><polyline fill="none" points="76.64180154819041,133.88766434882564 76.22378606616985,136.01529027617653 85.85714285715949,137.9077205564463 69.8775510204141,134.7387200025696 62.71428571426077,131.48003454559512 69.65904292749474,134.72752194759232 75.69176636176417,135.9369048388835" stroke="#4DD2FF" stroke-linecap="round" stroke-linejoin="round" stroke-width="0.5"><title>2025-08-13 5.0km</title><desc>1755095249000</desc></polyline><polyline fill="none" points="111.4418493041303,139.00122578302398 107.1981282994675,138.15355106153584 102.37130059188348,135.9312200373024 101.47072468404076,135.64101353590377 93.54047352424823,134.11359109963814 90.72860342348577,134.20523738413613 90.10662294033682,134.0754051124095 89.46520556710311,133.69354409621883 89.12829947209684,133.3575046815895 88.81730923053692,132.83816787286196 88.4480083186645,131.799482714443 89.25139977605431,131.0051836804705 90.18437050073408,130.29488942233002 89.47816349385539,130.79133240293595 88.42857142857974,131.807120161473 89.11534154537367,133.36514195891505 89.65309550473467,133.86920042197744 90.10014397697523,134.09831670724088 90.72860342348577,134.23578611901758 92.93145096782246,134.10595390384697 93.72836346185068,134.15941425685014 101.84002559591318,135.78611693673156 107.07502799551003,138.15355106153584 111.57142857142026,139.09286567971867" stroke="#4DD2FF" stroke-linecap="round" stroke-linejoin="round" stroke-width="0.5"><title>2025-08-12 8.1km</title><desc>1754996616000</desc></polyline><polyline fill="none" points="137.28571428571013,137.37801537659107 132.61930712335743,136.44478859177616 127.35033086803742,134.01669341108936 126.48151031529414,133.72762928222073 121.52783184120199,132.68698929414677 117.79330478786142,132.04277643012028 116.47606072403141,132.00973972545034 114.80848579213489,132.1501456208789 114.14285714286962,132.03451725530613 114.75243285327451,132.1501456208789 116.40599455041229,132.0262580795752 117.80731802259106,132.05103560405405 126.40443752429564,133.73588827262574 127.4063838069269,134.09102400897245 132.4021019851789,136.39523640600237 136.8863370961335,137.32020520146034" stroke="#4DD2FF" stroke-linecap="round" stroke-linejoin="round" stroke-width="0.5"><title>2025-08-10 6.4km</title><desc>1754781124000</desc></polyline><polyline fill="none" points="160.70503415126586,144.37692117997358 156.85277004804811,143.6040475137779 152.48530952981673,141.5890111275803 151.65396986011183,141.31297375541908 144.45878356401226,139.90516445037792 143.81478804524522,139.86375782080722 141.80083842287422,139.98107653434272 141.36175056916545,139.87756003368122 140.74702757399064,139.52560266623914 140.31964872969547,139.04252074307442 139.91568790428573,138.09704974817578 139.85714285713038,137.73818115069298 142.41556141807814,135.6401394351269 144.18362184235593,133.73527821935568 145.85215568644344,132.2789869851331 147.9539228795329,130.9054873186542 148.1881030681834,130.79505389094265 148.7794080445019,130.7743476018004 149.0077337284456,130.6225012746363 149.65172924721264,129.91157953682705 150.3132882801292,128.48971211913158 150.9104477611836,127.9237171764471 153.58595641647116,126.4810974311622 156.89375158105395,125.01083392206056 156.89375158105395,125.51473089474166 157.47920205266564,125.89437665006699 157.6548371941608,126.11526040572062 157.74850926961517,126.47419486532453 159.8151494344056,130.1531557797789 160.66405261823093,132.01671296770655 161.19681254742318,132.7552186087196 161.20266705212998,132.96917657821905 161.4427017455164,133.33497401323984 161.87593509451835,134.5979942001868 162.20964186330093,135.19153597216064 162.49065808966407,136.4200117393848 162.58433016514755,137.66226637917862 162.32087745293393,139.44278888385452 162.391131509532,139.54630609491142 162.9999999999709,139.73263664858678 162.92974594340194,140.2847239606417" stroke="#4DD2FF" stroke-linecap="round" stroke-linejoin="round" stroke-width="0.5"><title>2025-08-08 10.0km</title><desc>1754654808000</desc></polyline><polyline fill="none" points="188.71428571431898,137.93393617795664 182.53980801807484,136.6724490953202 175.45974025974283,133.4054462936765 168.15098814229714,131.83120843266806 165.57142857142026,131.45381892409205 175.29508752119727,133.4054462936765 182.72275550535414,136.78026913229405 188.5587803500821,137.9015905560882" stroke="#4DD2FF" stroke-linecap="round" stroke-linejoin="round" stroke-width="0.5"><title>2025-08-07 5.0km</title><desc>1754573743000</desc></polyline><polyline fill="none" points="34.428571428579744,168.55771566322073 28.310554119409062,167.33437673437584 21.31853433744982,164.12572264853952 20.426323479798157,163.85743580087 11.285714285739232,162.05452923473058 13.716533663042355,162.56964876287384 13.916825896361843,162.4837956952033 14.453973249415867,162.70915983829036 20.81780375406379,164.00767652557988 28.3924918511766,167.4202255757773 34.01888276945101,168.54698468599236" stroke="#4DD2FF" stroke-linecap="round" stroke-linejoin="round" stroke-width="0.5"><title>2025-08-04 5.0km</title><desc>1754309955000</desc></polyline><polyline fill="none" points="60.142857142869616,167.99928207015182 55.517093461588956,167.07263068937027 50.18237358640181,164.62356905944762 49.382165605115006,164.35880091089348 40.91680748734507,162.68743067427567 39.42870141690946,162.61296282781404 37.61770440664259,162.75362425428466 37.0,162.62123703656835 37.13336799692479,162.72052747150155 37.982711555989226,162.7784468319296 40.43247107762727,162.64605965747614 43.79474847266101,163.3079932225155 44.33523982844781,163.3162673555853 45.2688158066012,163.59758734350908 49.290913817763794,164.36707492951246 50.4069933705905,164.76422676300717 55.43286104252911,167.06435696543485 59.66554010141408,167.91654579924216" stroke="#4DD2FF" stroke-linecap="round" stroke-linejoin="round" stroke-width="0.5"><title>2025-08-03 6.5km</title><desc>1754227262000</desc></polyline><polyline fill="none" points="83.17657392186811,168.01671572633495 77.03513345040847,166.7940068499811 69.29636765451869,163.35302854816837 62.71428571426077,162.01123112782807 69.86552955175284,163.5045206667928 77.27381424605846,166.89139129425166 85.85714285710128,168.6010137701378 83.36935456452193,168.03835645589425 83.36935456452193,167.87605086933036" stroke="#4DD2FF" stroke-linecap="round" stroke-linejoin="round" stroke-width="0.5"><title>2025-08-01 5.0km</title><desc>1754057984000</desc></polyline><polyline fill="none" points="109.35730556459748,174.96644382897284 105.40937194923754,174.18627465510872 101.06313049141318,172.18402664295354 100.1317930361256,171.88713620921408 93.10283110968885,170.5269459790252 91.82004555809544,170.48551840740038 90.54311747479369,170.59599187153435 89.9339407744992,170.48551840740038 89.4301985031052,170.2024292767419 89.06117800195352,169.85029225221297 88.6394402863807,169.0493458525416 88.42857142857974,168.3519618654209 91.0117149365833,166.21142843991765 92.80410022780416,164.29869708743718 94.44419134399504,162.86238432964092 95.68011714940076,162.1511212483856 96.64659941429272,161.43985018348394 97.33192320211674,161.3707943150912 97.5779368695512,161.2188711397066 98.32769280835055,160.35566436512818 98.91343963553663,159.05737923194465 99.48747152622673,158.53943890965093 102.2287666775519,157.0339349990354 105.43865929060848,155.64580106898575 105.49137650505872,156.09470342871282 105.95997396681923,156.4192923841947 106.44614383339649,157.2894588256495 106.74487471528118,158.12508360328866 107.48291571755544,159.6512789238659 109.40416531078517,163.24908712077377 109.66189391477383,164.02248562378736 110.42336479012738,165.61759022801925 110.93882199807558,167.39218323739988 110.97396680770908,168.49696312824017 110.90367718844209,168.89744108324157 111.0852587048721,169.02863158726177 110.91539212496718,170.07124120214212 111.57142857144936,170.31980785019186 111.54799869834096,170.65813311051534" stroke="#4DD2FF" stroke-linecap="round" stroke-linejoin="round" stroke-width="0.5"><title>2025-07-28 10.0km</title><desc>1753704756000</desc></polyline><polyline fill="none" points="135.01333716581576,168.14380125672324 128.86674331704853,166.91435674869717 121.8260994538432,163.68699356626894 120.68059787293896,163.30277678010316 114.14285714284051,161.9964287512703 121.39770048862556,163.55526226173242 127.46047714859014,166.4094019815675 129.03437769471202,167.00217471086944 137.28571428568102,168.61581614668103 135.1064673756482,168.1218470220192 135.21822362742387,167.40833179064066" stroke="#4DD2FF" stroke-linecap="round" stroke-linejoin="round" stroke-width="0.5"><title>2025-07-22 5.0km</title><desc>1753194638000</desc></polyline><polyline fill="none" points="153.0208439247508,166.52771669989306 160.6870869343984,168.0485444140213 162.9999999999709,168.18606453408574 160.98220640566433,168.0728126890026 148.34697508896352,165.597407803456 142.8357905439625,163.09765053362935 139.85714285713038,162.42618036386557 142.8014743263775,163.11383046284027 147.9694966954412,165.50033142122993 150.0971021860605,165.95335345294006" stroke="#4DD2FF" stroke-linecap="round" stroke-linejoin="round" stroke-width="0.5"><title>2025-07-19 6.4km</title><desc>1752877000000</desc></polyline><polyline fill="none" points="186.59486862664926,175.02947597027378 182.65628520547762,174.24533747983514 178.1819602427422,172.19820479029295 177.41661518331966,171.95532027602167 170.14583711887826,170.5535115578823 167.62608569246368,170.63678818502376 167.07856961147627,170.53269238409848 166.56637714864337,170.23428347879963 166.0659592251759,169.70685966972815 165.63030126830563,168.7283381430534 165.57142857142026,168.37440112353215 168.1441654249793,166.24379751712695 169.84558636479778,164.39767943891638 171.5234582258272,162.93323944824078 173.5722280771879,161.56593569703546 173.93135152812465,161.3924178936286 174.47886760911206,161.36465500121267 174.8674274084915,161.12172917632415 175.50325253477786,160.36518281374447 176.07431769452523,159.06723371434055 176.6807064723689,158.5050122568282 179.65966493441374,156.88078905131988 182.70338336302666,155.5827689276848 182.70927063268027,156.0825445143928 183.18025220770505,156.3949022640736 183.49227750115097,156.97102476073633 184.13398989714915,158.44254289958917 186.11211251225905,162.1628333305198 186.63019224480377,163.40519534979103 186.77148671730538,163.5370647560194 187.66046444015228,165.81350410057348 187.86063160953927,166.09805329833762 188.1785441726679,167.28481795411062 188.23741686958238,168.06904211483925 188.1432205545716,169.2627099175079 187.85474433985655,170.3800182350751 188.71428571426077,170.57433072487038" stroke="#4DD2FF" stroke-linecap="round" stroke-linejoin="round" stroke-width="0.5"><title>2025-07-17 10.0km</title><desc>1752756134000</desc></polyline><polyline fill="none" points="34.428571428579744,199.18409198162408 28.29310831404291,197.95543642318808 20.511768358119298,194.4957190856585 11.285714285739232,192.6526427122517 20.9232375685242,194.66816891995404 28.11937686969759,197.94465867534018 34.14511486142874,199.1733143675956" stroke="#4DD2FF" stroke-linecap="round" stroke-linejoin="round" stroke-width="0.5"><title>2025-07-14 5.0km</title><desc>1752500928000</desc></polyline><polyline fill="none" points="60.14285714284051,199.1602860686762 54.00882385787554,197.9552632360137 47.66670389811043,195.01195928258676 46.16486094042193,194.46807821516268 37.0,192.67644862519228 46.7619792248006,194.62804354858963 54.11739081866108,197.99791916466347 59.49145537806908,199.0749752054253" stroke="#4DD2FF" stroke-linecap="round" stroke-linejoin="round" stroke-width="0.5"><title>2025-06-21 5.0km</title><desc>1750468889000</desc></polyline><polyline fill="none" points="78.54831305943662,197.33963920037422 84.56641201348975,198.54169147963694 85.85714285713038,198.61055829698307 84.74700809860951,198.54169147963694 74.90983310926822,196.61964793566221 73.85281484638108,196.20643148518138 70.69238335682894,194.70380117286186 70.13466015277663,194.52223068370586 63.68631758418633,193.27000479701746 62.71428571428987,193.22617639688906 63.57477294339333,193.244960001055 66.08718318631873,193.70828696032186 70.60739696383826,194.68501804538755 73.96967113672872,196.275301099864 74.83015836583218,196.6071262686819 75.76500868878793,196.7949509870632" stroke="#4DD2FF" stroke-linecap="round" stroke-linejoin="round" stroke-width="0.5"><title>2025-06-17 8.1km</title><desc>1750165544000</desc></polyline><polyline fill="none" points="111.57142857142026,199.14628297197487 105.73649320518598,197.98595286527416 98.12959893932566,194.58927028801554 88.42857142857974,192.69045172190818 98.14749751408817,194.63146583333582 105.61120318196481,197.9754043460125 110.5333112363005,198.97750854754122" stroke="#4DD2FF" stroke-linecap="round" stroke-linejoin="round" stroke-width="0.5"><title>2025-06-15 5.0km</title><desc>1749939796000</desc></polyline><polyline fill="none" points="130.134527103015,197.24490577250617 135.59641869089683,198.33625084455343 137.28571428571013,198.44074015822844 135.95594807405723,198.35947070973634 126.81503663395415,196.583121815067 125.9236007661093,196.24642156056143 122.94393943998148,194.8299351270216 122.27905633419869,194.60933139311237 116.27048308152007,193.44824406032785 115.54157419514377,193.3959945356546 114.14285714286962,193.5062990276965 116.12765634027892,193.43663305928203 122.02295321194106,194.5744991411484 122.73708691817592,194.77188160134756 124.44115769313066,195.5788199393719" stroke="#4DD2FF" stroke-linecap="round" stroke-linejoin="round" stroke-width="0.5"><title>2025-06-11 8.1km</title><desc>1749642919000</desc></polyline><polyline fill="none" points="163.0000000000582,199.13917768883402 156.98770287493244,197.9756981789833 149.4319503683946,194.60152877993096 139.8571428571595,192.69755700504174 149.53963330195984,194.6438388398601 157.05051791947335,198.02858391360496 162.00393286440521,199.0228303650365" stroke="#4DD2FF" stroke-linecap="round" stroke-linejoin="round" stroke-width="0.5"><title>2025-06-08 5.0km</title><desc>1749387304000</desc></polyline><polyline fill="none" points="174.53726273705252,202.1380936501373 177.02957042935304,200.64996666641673 182.2731268730713,199.69603578667738 184.92727272724733,197.71185123335454 187.80799200793263,197.7881662316504 188.58481518470217,197.1394882152672 183.4707292706007,188.82104008836905 180.00739260728005,189.5078919135558 176.7058941058349,191.45396476861788 174.86093906091992,191.45396476861788 171.91548451548442,192.827656743204 167.09270729252603,193.81976426226902 167.25454545451794,196.94870033470215 165.57142857147846,199.0473613041686 166.99560439551715,200.61180948105175 167.61058941064402,202.55782063060906 168.51688311691396,203.13017479298287 174.14885114878416,201.9473084928468 177.12667332659476,200.61180948105175 181.46393606381025,200.03945120275603 185.0891108890064,197.71185123335454 187.64615384605713,197.82632372470107 188.68191808182746,196.94870033470215 183.4707292706007,188.70656465319917 179.61898101877887,189.546050308767 176.77062937046867,191.41580658132443 174.18121878104284,191.6829138052999 171.00919080909807,193.09476289025042 167.18981018965133,193.74344839903642 167.28691308677662,197.1394882152672 165.57142857147846,199.0473613041686 167.09270729252603,200.68812384761986 167.86953046941198,202.6722915377759 168.97002997004893,203.20648861068184 177.83876123849768,200.49733790024766 181.56103896093555,200.0776084503741 184.76543456537183,197.90263869817136 187.743256743066,197.8644812135317 188.71428571431898,196.9105427460454 183.11468531459104,188.59208918054355 179.2953046951443,189.7750005928392 176.6411588412011,191.41580658132443 167.3516483514104,193.55265866825357 167.31928071926814,196.94870033470215 165.60379620362073,198.97104658029275 167.06033966026735,200.61180948105175 167.61058941064402,202.44334968581097 169.26133866119199,203.2446455133031 182.3378621377051,199.27630537643563 183.95624375611078,197.10133064750698 183.4707292706007,194.92634241009364 181.33446553442627,192.25528574202326 179.52187812177,191.3394901942811 177.9682317681145,191.26317379044485 176.18801198794972,191.98817895466345 173.30729270726442,195.46055129883462 168.71108891104814,196.22370544055593 165.95984015974682,198.39868562022457 165.86273726262152,199.31446270717424 167.41638361627702,201.18416682403767" stroke="#4DD2FF" stroke-linecap="round" stroke-linejoin="round" stroke-width="0.5"><title>2025-06-04 6.4km</title><desc>1749041988000</desc></polyline><polyline fill="none" points="34.428571428579744,229.772577334581 28.497036503686104,228.5879437808253 21.739932421245612,225.46763446478872 20.716944552201312,225.12915420663194 11.285714285739232,223.28864715521922 20.986151886172593,225.23492941400764 28.362432836729567,228.56678947891487 33.28892704815371,229.58219077358808" stroke="#4DD2FF" stroke-linecap="round" stroke-linejoin="round" stroke-width="0.5"><title>2025-05-28 5.0km</title><desc>1748436903000</desc></polyline><polyline fill="none" points="60.14285714289872,229.76244380661956 53.71632007235894,228.44600585583248 46.27362115733558,225.07929809093184 37.0,223.28799028044887 45.97151898732409,225.01455258965143 47.08838155516423,225.3706523230794 54.25644213386113,228.65102603076957 60.03300180833321,229.77323420935136" stroke="#4DD2FF" stroke-linecap="round" stroke-linejoin="round" stroke-width="0.5"><title>2025-05-27 5.0km</title><desc>1748351986000</desc></polyline><polyline fill="none" points="79.8526557617588,231.3046712604919 79.88358321436681,229.91917536742403 80.61037835146999,228.2738793009994 81.08975386747625,225.22136549046263 81.05882641481003,225.50280601414124 80.36295873031486,225.5894029724659 76.97640266577946,227.99244493761216 75.69291338103358,228.29552807231084 75.18261041241931,227.45122324943077 75.77023201261181,226.49866745866893 76.852692855231,225.65435065234487 76.6825918656541,224.20384453088627 77.19289483426837,223.2729139358562 76.51249087613542,222.88322002623318 74.0228309382801,222.92651940881478 73.37335443269694,221.97392957225384 73.58984660130227,220.84813234206376 74.06922211725032,220.99968255234126 74.0228309382801,220.26357983147318 74.73416234907927,220.696581950353 76.03311536018737,220.6532818051055 77.06918502371991,221.3460823517089 78.47638411907246,221.38938226005848 79.04854199296096,221.10793259150523 80.45574108825531,219.13776739099558 80.51759599352954,215.84687361818942 80.00729302491527,215.26229801299633 79.20317925617564,214.95918367346167 78.21350077155512,215.24064701282623 77.33206837123726,216.21493835506408 76.65166441298788,216.45309732041642 75.25992904405575,216.19328751778085 73.79087504342897,215.39220393635333 72.44553085346706,215.84687361818942 71.76512689521769,216.8861124731411 71.79605434788391,217.99029440836603 72.38367594807642,218.81301194176922 73.71355641185073,219.44087172525906 74.0228309382801,220.19862938592996 73.41974561166717,221.60588157926395 73.85272994876141,222.90486971941573 73.96097603300586,224.70178134146408 73.38881815900095,226.65021090485243 73.8372662223992,227.19143601726682 75.1516829598113,227.51616997415113 75.66198592836736,228.29552807231084 74.48674272792414,230.20060544781882 73.03315245360136,230.7851120773921 70.60534742107848,232.56026381704578 68.84248262038454,233.31794295617874 68.44042573595652,234.35703840220958 67.450747251336,235.4394204234777 68.30125219910406,237.86392257326952 69.07443851517746,238.03709952173813 70.09504445246421,237.4093319566673 71.28575137926964,237.9072168326602 72.1517200532835,237.79898115657852 72.83212401147466,237.0846233741031 73.32696325378492,235.28788749751402 74.50220645422814,234.6384586179047 77.19289483426837,235.48271551188373 78.21350077155512,234.98482110157784 79.80626458273036,234.89823056954629 79.89904694067081,230.09236318331386 81.12068132014247,225.80589510913705 80.93511660426157,225.50280601414124 80.47120481455931,225.54610450072505 76.99186639208347,228.01409375699586 75.7393045600038,228.2738793009994 74.36303291731747,230.2655507621821 72.89397891674889,230.85005709189863 70.58988369477447,232.56026381704578 68.935264978325,233.20970335676975 68.44042573595652,234.4219815844699 67.450747251336,235.52601058540313 68.22393356746761,237.75568686024053 68.73423653608188,238.102040816324 70.00226209446555,237.4093319566673 71.45585236878833,237.92886395673122 72.43006712710485,237.5392151565684" stroke="#4DD2FF" stroke-linecap="round" stroke-linejoin="round" stroke-width="0.5"><title>2025-05-23 6.4km</title><desc>1747958832000</desc></polyline><polyline fill="none" points="102.1026401501149,227.61139220259793 102.72895849263296,228.20640028947673 104.29475434904452,228.45692943190807 105.0776522771921,229.4590425741626 104.87633566709701,233.40480976650724 104.49607095913962,234.12505968137702 103.13159171293955,234.53215620636183 101.78948097885586,234.06242936653143 100.53684429358691,234.34426561495638 98.41183563135564,233.0916567460954 97.13683043397032,233.59270132177335 96.19735292019323,233.4361250391521 96.46577506687026,232.5279799598211 95.79471970000304,230.7743077512714 95.99603630998172,229.52167446345265 95.2802439185325,228.3316649034823 95.59340308979154,226.45268669567304 100.11184256116394,226.2647878144926 101.65526990545914,226.82848387958074 102.46053634572309,228.11245177262754 104.18291178788058,228.4256133078161 104.94344120379537,229.14588280623138 104.87633566709701,233.49875556821644 104.54080798360519,234.12505968137702 103.22106576175429,234.5008411212184 101.94606056436896,234.09374452663178 100.49210726912133,234.31295049768232 98.36709860689007,233.122972072204 95.6605086264899,233.6866470270761 94.20655533124227,234.87662178986648 94.67629408813082,235.2210867254762 95.03419028385542,237.09997496864526 97.22630448290147,238.10204081633128 98.16578199679498,237.4444357221655 98.79210033942945,236.16053325659595 98.70262629038189,235.15845678535698 97.5394636541605,233.3108639165439 98.70262629038189,233.122972072204 100.51447578147054,234.31295049768232 101.94606056436896,233.90585348544118 101.76711246650666,233.4361250391521 100.31315917125903,233.4674403063691 99.53026124311145,232.46534909868205 100.26842214679345,229.52167446345265 98.34473009465728,226.5779525093385 98.478941168054,224.22920424383483 98.99341694940813,223.22706248165923 100.02236851211637,222.63203821555362 101.96842907671817,223.25837949481502 103.55659344536252,222.8512579069793 101.76711246650666,224.6050059908157 99.91052595106885,224.51105562639714 98.79210033942945,223.6655001775507 97.06972489727195,223.28969650249928 97.11446192173753,219.46898202788725 97.87499133765232,217.87177447987779 97.9197283621179,215.49159620581486 98.38946711912286,215.02182052227727 99.8210519021377,214.95918367347622 103.93685815331992,215.554232872586 104.78686161816586,216.3058712023194 105.0776522771921,217.87177447987779 105.79344466875773,218.65472109708935 105.32370591175277,219.28107598061615 105.61449657089543,219.6882055060123 104.20528030011337,220.53377932026342 104.04870071436744,222.50676970258064 101.96842907671817,224.5423724198481 100.33552768349182,224.6050059908157 98.72499480261467,223.5715493310563 97.1591989462031,223.3836474935233 97.09209340950474,219.6882055060123 98.05393943551462,216.49378030259686 99.06052248610649,216.11796190909809 99.08289099833928,215.17841255075473 103.66843600641005,215.46027786447667" stroke="#4DD2FF" stroke-linecap="round" stroke-linejoin="round" stroke-width="0.5"><title>2025-05-20 5.0km</title><desc>1747754393000</desc></polyline><polyline fill="none" points="134.21936640772037,228.1478606951714 136.3819485954009,228.41421817740775 137.28571428568102,227.462940522586 131.92767483566422,219.3960018468788 128.18350268981885,220.30924954178045 125.27854154224042,222.02158253235393 123.47101016133092,222.09768602598342 119.08129109384026,223.7719586887688 115.56306037062313,224.26662862111698 115.85355648538098,227.50099167847657 114.14285714284051,229.70795162947616 115.56306037062313,230.9636295142409 116.07949790800922,232.71396085064043 116.85415421391372,233.47497173893498 118.30663478781935,233.70327468204778 125.56903765699826,231.3441370728251 129.89420203235932,230.73532478016568 133.63837417820469,228.26201392681105 136.3819485954009,228.33811606047675 137.22115959366783,227.61514512149733 132.05678422003984,219.43405388179235 130.6365809921408,219.47210591257317 125.40765092649963,221.94547902228078 123.01912731619086,222.21184123531566 120.0173341302434,223.58170083584264 115.3048416019883,224.4568861007865 115.98266586987302,226.96827511794982 114.14285714284051,229.66990071404143 115.49850567849353,230.81142637471203 115.918111177627,232.4095560310525 116.88643156015314,233.43692123395158 118.30663478781935,233.62717371768667 126.18230723252054,231.0397310591361 130.4106395697454,230.50701989675872 133.47698744758964,228.33811606047675 136.4142259414075,228.33811606047675 137.22115959366783,227.5390428303508 132.05678422003984,219.47210591257317 130.92707710701507,219.35794980771607 128.02211595943663,220.30924954178045 125.50448296475224,221.94547902228078 123.43873281520791,222.02158253235393 119.56545128521975,223.65780398945208 115.72444710100535,224.34273162533646 115.918111177627,227.348787029885 114.20741183508653,229.59379887059913 115.49850567849353,230.8875279527856 116.40227136877365,233.13251704451977 118.43574417219497,233.58912322917604 124.98804542748258,231.38218780580792" stroke="#4DD2FF" stroke-linecap="round" stroke-linejoin="round" stroke-width="0.5"><title>2025-05-14 5.0km</title><desc>1747227249000</desc></polyline><polyline fill="none" points="148.05263799993554,237.85109003043908 148.52405212738086,237.42088779290498 149.20836295757908,234.8755015427596 151.26129544788273,235.1981583168381 152.37139968341216,230.7526092979533 152.15850298071746,227.90237557476212 150.01432904636022,222.54236837557983 150.1055704903556,221.3412725812086 151.59584740933497,220.53456152854778 153.81605588039383,220.15809501695912 155.24550516996533,219.17210721377342 156.4164370347862,219.27966980673955 156.8574373475858,218.8135647293966 154.50036671047565,215.04882146778982 153.907297324331,214.95918367347622 152.28015823947499,215.55079221358756 151.26129544788273,216.24996319996717 150.37929482239997,216.26789062211174 148.58487975673052,216.9849859049864 146.74484396900516,217.25389583027572 146.8664992277627,218.65222035648185 145.9997055096319,219.74577356353984 146.15177458291873,220.1401680186973 146.66880943236174,220.48078065103618 147.18584428186296,221.68188272703264 147.83974129724083,221.7535900363 153.67919371434255,219.9967519625934 154.33309072977863,219.42308648786275 154.57640124717727,218.65222035648185 154.28747000772273,217.64829625889251 153.2686072162469,216.55472911031393 152.02164081466617,216.1603260600823 150.9267434864887,216.46509213648096 149.46688038221328,218.11440463748295 147.3835340772057,218.4729486455035 146.18218839762267,219.54857598136005 146.2126022123266,220.1401680186973 147.83974129724083,221.39505317747535 149.69498399220174,221.19785757207137 153.63357299240306,219.9967519625934 154.4851598031819,219.20796141924802 154.53078052517958,218.34745833158377 153.907297324331,217.21804119896842 152.43222731276182,216.21410834987182 150.37929482239997,216.28581804227724 148.44801759067923,217.05669526137353 146.71443015435943,217.39731427733204 146.85129232041072,218.72392898619 146.01491241692565,219.81748171664367 146.6840163397137,220.48078065103618 147.01856830110773,221.44883375607606 147.79412057524314,221.77151685876015 148.70653501542984,221.30541884068225 150.39450172969373,221.01858863481903 149.99912213900825,221.7535900363 150.04474286094774,222.32724738535762 151.9608131853165,227.13154916837811 152.41702040540986,229.35438760269608 152.24974442477105,231.84608208866848 151.4893990579294,234.6962475060718 149.52770801156294,234.40944064117502 148.75215573742753,237.02653475383704 148.1590863513411,237.27748679707292 147.91577583394246,238.10204081633128 147.5964307799004,237.9765654712246" stroke="#4DD2FF" stroke-linecap="round" stroke-linejoin="round" stroke-width="0.5"><title>2025-05-06 7.1km</title><desc>1746539597000</desc></polyline><polyline fill="none" points="174.41443738376256,238.10204081633128 174.25763165042736,237.9172062190628 174.99461859691655,235.45888693074812 176.86060682294192,235.90249605220743 177.18989886291092,235.32950071855157 178.1620944092283,231.2445424355392 178.1307332625729,229.21126862491656 175.35527178348275,221.52157643609098 174.60260426363675,221.35520905154408 173.53632527735317,221.8727959345706 172.87774119753158,221.74339936183242 171.6389759046142,219.82092437011306 172.4857268643682,218.8966497927031 172.281879411079,217.41779999466962 173.37951954407617,217.36234287644038 177.04877370293252,216.3271400089434 178.2404972758377,215.58770552174246 180.20056894188747,214.99615561137034 182.72514124785084,218.8596787048009 182.41152978123864,219.35878771085117 181.03163932834286,219.22938922063622 179.55766543542268,220.30154516040056 177.31534344953252,220.6342818329722 175.99817528988933,221.26278265622386 174.32035394379636,221.48460592034098 173.30111667740857,221.90976636574487 172.6425325976452,221.6324879352178 172.2661988377804,220.59731112378358 171.6703370512114,220.15366198529955 171.6703370512114,219.80243892791623 172.4857268643682,218.71179427290917 172.2661988377804,217.43628569670545 173.99106190382736,217.21445713924186 177.00173198292032,216.2531967052637 179.85559632867808,214.95918367347622 180.29465238185367,215.1070713767258 182.70946067443583,218.8596787048009 182.47425207454944,219.32181672373554 181.14140334160766,219.22938922063622 179.21269282215508,220.43094283281243 177.6446354893269,220.54185504489578 173.37951954407617,221.8727959345706 172.72093546425458,221.68794365761278 172.29755998437759,220.59731112378358 171.6703370512114,220.11669117143902 172.47004629095318,218.748765392942 172.281879411079,217.41779999466962 173.92833961057477,217.21445713924186 176.87628739635693,216.308654186083 177.9268858092837,215.66164911550004 179.88695747533347,214.95918367347622 180.24761066189967,215.1070713767258 182.69378010113724,218.84119315788848 182.45857150125084,219.30333122707088 181.03163932834286,219.21090371398896 179.5106237155269,220.32003054823144 177.2996628761175,220.6342818329722 175.71592496999074,221.31823849945795 174.41443738376256,221.42915013147285 173.41088069067337,221.89128115118365 172.67389374424238,221.61400269043224 172.281879411079,220.59731112378358 171.6546564778546,220.13517657938064 171.6389759046142,219.82092437011306 172.2661988377804,219.21090371398896 171.529211891233,219.8948661187751 172.2191571177682,220.70822322714957 172.53276858432218,221.55854694386653 173.20703323744237,221.96522199756873 177.1114959961851,220.7451939121529 179.44790142215788,220.46791357824986 180.95323646167526,219.32181672373554 182.34880748786964,219.32181672373554 182.75650239444803,218.8966497927031 180.13784664863488,214.95918367347622 178.1464138358715,215.55073371282197 176.90764854295412,216.34562582981016 175.79432783665834,216.41956909326836 174.08514534379356,217.12202848805464 172.062351384433,217.52871417670394 172.4073239977588,218.71179427290917 171.6076147579588,219.69152623238915 171.5762536112452,220.1721473892685 172.2034765444114,220.6527671845106 172.4857268643682,221.52157643609098 173.08158865087898,221.89128115118365 175.35527178348275,221.50309117922734 177.8014412226621,227.86190073672333 178.0836915425607,229.3036906903726 178.1464138358715,231.17060563298583 177.03309312957572,235.7361427675496 174.90053515695035,235.47737066727132 174.43011795700295,237.71388792956714 174.17922878381796,237.9172062190628" stroke="#4DD2FF" stroke-linecap="round" stroke-linejoin="round" stroke-width="0.5"><title>2025-04-29 10.1km</title><desc>1745929124000</desc></polyline><polyline fill="none" points="33.539614033012185,254.93539177483035 33.15007090452127,254.605730032461 33.369813182158396,253.39303711440152 32.820457488182,255.2061845968201 32.400949503760785,255.26505251185154 31.152413835690822,260.16275075824524 31.01257784088375,260.1980698917105 24.65004007652169,258.9383469985769 16.53955237689661,255.2885996688783 11.285714285739232,254.17010404518078 16.499599235481583,255.30037324547447 22.90209014120046,258.30259342309 24.719958073925227,258.9854397072704 34.42857142863795,260.89267717132316 31.102472408965696,260.1745238040021 31.312226401176304,259.3150880939211 31.90153523645131,259.1738103370226 33.23996547260322,253.54609619405528 33.49966089159716,253.4519060168459 33.15007090452127,254.37025674381584" stroke="#4DD2FF" stroke-linecap="round" stroke-linejoin="round" stroke-width="0.5"><title>2025-04-22 6.3km</title><desc>1745328842000</desc></polyline><polyline fill="none" points="45.21392194466898,268.0342131406942 45.59855277551105,267.86419458061573 46.399867006228305,265.23833121078496 48.45123143680394,265.54059088959184 49.52499250596156,261.6300656154781 49.348703375202604,257.68166802675114 47.121049813809805,252.2217739715852 47.072970959939994,251.27713817849872 48.27494230604498,250.2947114945855 50.807095275085885,249.8790677603829 52.63409172114916,248.68880973692285 53.836063067254145,248.80216799593472 54.33287789026508,248.36762760062993 53.25911682104925,246.68613494095916 51.81675120582804,247.42297081029392 50.66285871353466,246.08154932482284 49.42883479828015,245.5714285714348 47.121049813809805,245.76036235882202 45.55047392164124,246.4594155819359 43.435004352533724,246.8183877634583 43.7555300447857,248.1409104403283 42.8260055371793,249.48231599376595 43.51513577561127,250.0679968539771 43.8677140371874,251.05042482243152 44.5888968447689,251.42828025124618 47.21720752149122,250.80481835214596 48.73970455984818,250.14356843377755 50.74299013661221,249.8790677603829 52.393697451858316,248.76438191789202 53.836063067254145,248.78327495801204 54.316851605603006,248.32984142782516 53.27514310571132,246.68613494095916 51.83277749043191,247.3851844316523 50.66285871353466,246.06265599036124 49.52499250596156,245.59032195944746 47.040918390790466,245.76036235882202 45.582526490907185,246.4405222886562 43.83566146797966,246.70502820747788 43.595267198747024,246.89396075962577 43.72347747563617,248.19758975818695 42.8260055371793,249.38785115363135 43.48308320634533,250.0679968539771 43.81963518331759,251.06931761339365 44.50876542174956,251.46606574878388 48.77175712917233,250.1246755419561 50.678884998196736,249.91685359558323 52.40972373652039,248.76438191789202 53.90016820561141,248.76438191789202 54.300825321057346,248.29205524682766 53.24309053644538,246.64834840172261 51.752646067296155,247.36629123918829 50.646832428989,246.06265599036124 49.66922906745458,245.64700211107265 47.521706929197535,245.66589549083437 45.42226364475209,246.4594155819359 43.80360889865551,246.70502820747788 43.57924091408495,246.87506751368346 43.69142490642844,248.36762760062993 42.80997925257543,249.44453006389085 43.53116206021514,250.10578264805372 43.85168775252532,251.06931761339365 44.3805551448022,251.40938749938505 50.82312155974796,249.6334596309316 51.60840950574493,248.99109826296626 51.880856344185304,248.02755174903723 51.65648835967295,247.3096116495435 50.87120041355956,246.34605579130584 49.637176498246845,245.6092153454083 47.50568064453546,245.68478886855883 45.35815850622021,246.5160954495077 43.56321462948108,246.8183877634583 43.7555300447857,248.10312421811977 42.8260055371793,249.40674412575027 43.611293483292684,250.37028297560755 43.306794075644575,250.95596083652345 44.10810830636183,252.59962684792117 44.73313340632012,255.35792790194682 45.005580244760495,258.4562411487568 44.94147510622861,260.4965635452827 43.37089921411825,268.18534060970705 44.50876542174956,268.7142857142899" stroke="#4DD2FF" stroke-linecap="round" stroke-linejoin="round" stroke-width="0.5"><title>2025-04-15 8.8km</title><desc>1744723077000</desc></polyline><polyline fill="none" points="85.70505398220848,254.67047192761675 85.03332811762812,254.62565332266968 85.5276169613353,253.17651053681038 84.94460960727884,255.59671981816064 85.08402440935606,255.97020510127186 84.31090596149443,258.5397562831058 83.56313565955497,258.55469539340993 83.57580973237054,259.18213655773434 82.71397277427604,261.9757088117185 74.311062431545,260.30256006996206 64.67876701604109,255.83575051650405 62.71428571426077,255.26805192779284 64.81818181817653,255.94032631604932 74.2983883585548,260.3174989883264 82.73932092008181,261.9607700739725 83.01815052417805,260.8403601053724 83.65185416990425,260.7656657820771 84.19683930522297,259.18213655773434 85.85714285710128,252.31000547400618 85.41355030512204,254.7750486156292" stroke="#4DD2FF" stroke-linecap="round" stroke-linejoin="round" stroke-width="0.5"><title>2025-04-11 5.1km</title><desc>1744377642000</desc></polyline><polyline fill="none" points="95.08795573574025,268.7142857142899 95.87068799242843,267.8481320653227 96.07835165236611,268.48833300681144 96.8610839091707,267.8481320653227 97.73966093198396,265.19315579885733 99.80032340384787,265.66389924554096 100.1677283407189,265.53209120969404 101.12617600202793,261.40833190134435 101.1900725128362,259.1486960385373 100.79071932059014,257.13382914828253 98.49044493341353,252.12480594670342 98.42654842266347,251.2774004471139 99.54473736090586,250.33583390789863 102.116571918712,249.92154300559196 103.90567421988817,248.69749590181164 105.0717855411931,248.81048522838682 105.66282826574752,248.32086427953618 104.4008721782593,246.34353479689162 103.07501958007924,247.11563757278782 101.50955506664468,245.7974112383963 100.10383182996884,245.7220837155619 99.35304782859748,246.07988915649184 97.83550569810905,247.73708364306367 95.66302433249075,248.05722165561747 94.40106824506074,249.14945276502112 94.33717173425248,249.5072511102626 94.99211096955696,250.0533629458514 95.2636711402447,250.93843708386703 95.98250688624103,251.35272554859694 102.29228732339107,249.5825769832445 103.15489021857502,248.75399057431787 103.25073498458369,247.83124194359698 102.30826145102037,246.36236661291332 100.79071932059014,245.5714285714348 98.74603097635554,245.68441994184104 96.7492650152999,246.45652566244826 95.02405922493199,246.7578342762572 95.16782637411961,248.07605328498175 94.33717173425248,249.092958221765 94.33717173425248,249.45075668391655 94.99211096955696,249.99686869807192 95.67899846017826,251.3338942762639 96.38186007842887,251.35272554859694 97.32433361216681,250.86311180179473 98.18693650735077,250.93843708386703 100.71084868209437,257.6234251322312 101.01435710821534,259.3746609541122 100.91851234209025,261.1823696443171 100.02396119147306,265.00485806130746 97.96329871966736,264.6847514366382 97.14861820754595,267.1702696607972" stroke="#4DD2FF" stroke-linecap="round" stroke-linejoin="round" stroke-width="0.5"><title>2025-04-08 5.6km</title><desc>1744119870000</desc></polyline><polyline fill="none" points="122.44720946345478,266.76239472150337 123.0737720321049,265.84798722057894 123.55115303676575,263.8081364398822 125.53526783746202,264.17742168151017 126.59445694164606,260.09765212857747 126.6392114108312,258.44461270024476 126.35576643928653,256.826727932581 124.32689716940513,251.79711302826763 124.32689716940513,250.82986142531445 125.44575889914995,250.00329637160758 127.78790945338551,249.6515652776725 129.33939771854784,248.5963673969236 130.68203179416014,248.5963673969236 131.04006754769944,248.13911283960624 129.86153319245204,246.27490777606727 128.41447202203562,246.8376889321662 127.04200163349742,245.69453765358776 124.83411448687548,245.64177662989823 122.79032706056023,246.39801632167655 121.08965723140864,246.71458072197856 121.17916616977891,248.13911283960624 120.3885038808221,249.08879393310053 120.97031198028708,249.75708468635275 121.31342957739253,250.7419291739934 122.23835527390474,251.0584850545565 123.05885387567105,250.6188239416515 124.4462424205849,250.46054564784572 125.80379465263104,249.86260402602784 127.87741839181399,249.56363238442282 129.44382481329376,248.52602062630467 129.20513431093423,249.00086073328566 129.59300637728302,248.42050041281618 130.74170441977913,248.50843392887327 130.9953130785143,248.06876586964063 130.07038738200208,246.57388550962787 128.75758961914107,247.2597735113959 127.71331867133267,246.04627737091505 126.60937509807991,245.57142857142026 124.72968739212956,245.62418961816002 122.89475415536435,246.36284246109426 121.13441170059377,246.64423313111183 121.11949354415992,248.20945977891097 120.43325834994903,248.91292748553678 120.3885038808221,249.26466018910287 120.98523013666272,249.7922578072321 121.14932985702762,250.53089157537033 121.95491030241828,251.04089863305853 123.01409940654412,250.60123747220496 124.38656979496591,250.46054564784572 125.63969493226614,249.89777712388604 126.83314744400559,249.7394981230318 126.967410851561,250.7419291739934 130.02563291281695,256.9498284305155 126.90773822594201,258.0401430284837 126.72872034920147,260.8010680279258 125.96789437293774,263.77296637282416 125.58002230670536,264.0719116987166 124.50591504614567,268.7142857142899 120.3885038808221,267.65921243224875 121.01506644947222,264.96874435480277 121.22392063896405,264.86323488912603 120.86588488542475,266.58654752734583" stroke="#4DD2FF" stroke-linecap="round" stroke-linejoin="round" stroke-width="0.5"><title>2025-04-02 6.9km</title><desc>1743601029000</desc></polyline><polyline fill="none" points="147.79026892926777,268.7142857142899 148.34374671441037,268.2153838789818 149.10884835856268,265.47139852977125 151.6646134252078,266.0854409212625 152.72273272031453,261.2306098284753 152.39715755253565,257.6421704152017 149.90650751948124,251.9619243594061 149.890228761069,251.44378469017101 150.37859151267912,250.75292942674423 151.24136570707196,250.33073876512935 154.00875463278499,249.83178486023098 155.29477654525544,248.7954914643924 155.79941805521958,248.7187287480483 155.8156968136318,248.02786279549764 155.16454647819046,246.70369547807786 154.6436262098141,246.74207727961766 154.13898469984997,246.16634937911294 153.71573698177235,246.26230415987084 152.7715689954348,245.68657469103346 151.76228597544832,245.60981061962957 150.72044543881202,245.97443966074206 149.3204722175724,247.70161959809775 147.20423362741712,248.00867203589587 145.62519406399224,249.27525768337364 146.5693620502716,251.04078611581645 147.64376010379056,251.48216545869946 151.37159577425336,250.23478620086098 153.78085201536305,249.88935653683438 155.62035171297612,248.62277530554275 156.8412585919723,248.77630078840593 157.2645063100499,248.31572393837268 155.9459268806968,246.3390679468721 154.49711738427868,247.12589483434567 153.6180644314736,246.10877648556198 152.47855134448037,245.5714285714348 150.34603399591288,245.6673836763075 148.40886174794286,246.4734044936049 146.34145943290787,246.81884085743513 146.47168950003106,248.33491466447595 145.59263654710958,249.46716380512225 146.30890191614162,250.138833584424 146.6344770838623,251.09835739721893 147.59492382861208,251.50135583979136 148.58792809024453,251.0024052511144 149.53209607652389,250.9448339384253 150.6390516468673,254.07284799806075 151.50182584131835,254.82126030426298 154.35060855880147,254.22636873037845 156.14127198135247,257.9875848753145 152.69017520343186,259.15815106392256 152.5111088612466,262.0941271175543 152.1529761767597,262.53547876402445 151.24136570707196,265.7784199930611 151.0460206065327,265.9319305240206 149.10884835856268,265.58653164120915 148.5065342982416,267.88917806893005" stroke="#4DD2FF" stroke-linecap="round" stroke-linejoin="round" stroke-width="0.5"><title>2025-03-25 6.1km</title><desc>1742909450000</desc></polyline></svg>