<?xml version="1.0" encoding="utf-8" ?>
<svg baseProfile="full" height="300mm" version="1.1" viewBox="0,0,200,300" width="200mm" xmlns="http://www.w3.org/2000/svg" xmlns:ev="http://www.w3.org/2001/xml-events" xmlns:xlink="http://www.w3.org/1999/xlink"><defs /><rect fill="#222222" height="300" width="200" x="0" y="0" /><text fill="#FFFFFF" style="font-size:12px; font-family:Arial; font-weight:bold;" x="10" y="20">Over 5km Runs</text><text fill="#FFFFFF" style="font-size:4px; font-family:Arial" x="10" y="280">Runner</text><text fill="#FFFFFF" style="font-size:9px; font-family:Arial" x="10" y="290">Elliont</text><text fill="#FFFFFF" style="font-size:4px; font-family:Arial" x="65" y="280">SPECIAL TRACKS</text><rect fill="yellow" height="2.6" width="2.6" x="65" y="283" /><text fill="#FFFFFF" style="font-size:3px; font-family:Arial" x="70" y="285.5">Over 20.0 km</text><rect fill="red" height="2.6" width="2.6" x="65" y="287" /><text fill="#FFFFFF" style="font-size:3px; font-family:Arial" x="70" y="289.5">Over 40.0 km</text><text fill="#FFFFFF" style="font-size:4px; font-family:Arial" x="120" y="280">STATISTICS</text><text fill="#FFFFFF" style="font-size:3px; font-family:Arial" x="120" y="285">Number: 56</text><text fill="#FFFFFF" style="font-size:3px; font-family:Arial" x="120" y="290">Weekly: 2.2</text><text fill="#FFFFFF" style="font-size:3px; font-family:Arial" x="141" y="285">Total: 379.0 km</text><text fill="#FFFFFF" style="font-size:3px; font-family:Arial" x="141" y="290">Avg: 6.8 km</text><text fill="#FFFFFF" style="font-size:3px; font-family:Arial" x="167" y="285">Min: 5.0 km</text><text fill="#FFFFFF" style="font-size:3px; font-family:Arial" x="167" y="290">Max: 11.4 km</text><polyline fill="none" points="34.42857142863795,46.09081330116169 28.384953508037142,44.90713863061683 20.625021132756956,41.43135741948936 11.285714285739232,39.623472413128184 21.099746407475322,41.66810181589972 25.417920541018248,43.71268890768988 25.901775147940498,43.788014992496755 26.339983093901537,44.15388373031601 27.608960270532407,44.69192353075778 27.74590025364887,44.63811968258233 28.348436179221608,42.55050775037671 29.535249366075732,42.884098185022594 29.790870667842682,42.690400650426454 31.434150464949198,42.92714203004289 31.881487743055914,41.90484564501821" stroke="#4DD2FF" stroke-linecap="round" stroke-linejoin="round" stroke-width="0.5"><title>2025-10-05 5.0km</title><desc>1759662272000</desc></polyline><polyline fill="none" points="60.14285714284051,44.900960912818846 59.96148678907775,45.636362637756974 55.39095387372072,44.712833783836686 54.14312583964784,44.251065283642674 53.047648902836954,43.66102380371012 48.91240483650472,41.86521810326667 40.155844155844534,40.14633703217987 38.52351097177598,40.07792307652562 37.0,40.21475092824403 39.720555306761526,40.13778529098636 48.44084191668662,41.83956343855971 49.659650694113225,42.215831014364085 54.04155844153138,44.302373028884176 55.23134796239901,44.75558998911583 57.21916703984607,45.0976387930059 57.386027765373,44.78979493655061 57.29171518137446,44.65297505738272 57.36426332290284,44.473398604204704 57.88660994177917,44.46484733430407 58.72091356918099,44.68718004953553" stroke="#4DD2FF" stroke-linecap="round" stroke-linejoin="round" stroke-width="0.5"><title>2025-10-02 6.2km</title><desc>1759399141000</desc></polyline><polyline fill="none" points="84.90763067107764,51.256000815359585 84.63719998518354,52.24060801126325 84.3126831620757,52.24769146226754 84.20451088770642,52.77894808939163 80.7069406833034,52.12727269023162 79.43892124493141,51.71643049605336 75.83317876615911,49.99511515917402 74.80554215973825,49.633845662632666 67.64814333934919,48.24541872510599 66.54839188334881,48.17457982132328 64.87773120150086,48.29500591184478 64.23470712616108,48.1674959266893 63.753941462317016,47.89830735923897 63.35730978965876,47.52285828596359 63.0448121081281,47.00572676826414 62.71428571428987,46.021040316576546 63.59769262155169,45.192191961708886 65.35849686534493,43.80367018915422 67.16737767553423,41.87669288754114 68.75991393698496,40.466846111281484 71.00148384465137,38.9932047418406 71.25989538896829,38.87276142252813 71.80676633154508,38.85150669595896 72.07118744665058,38.70980834122747 72.90651778757456,37.739166307284904 73.44737915939186,36.48510368107236 74.07838409318356,35.9182877758285 76.9269206514,34.34534774981876 80.19011759466957,32.93533762489096 80.19011759466957,33.40298256395181 80.80910338685499,33.920222289831145 81.68049115256872,35.88994685081707 84.21653002931271,40.73606544517679 85.46652075526072,43.690320164001605 85.79103757833946,44.90173832906294 85.85714285715949,45.8793575857344 85.76098972436739,46.95613859844161 85.53863560484024,47.678705334226834" stroke="#4DD2FF" stroke-linecap="round" stroke-linejoin="round" stroke-width="0.5"><title>2025-09-30 10.1km</title><desc>1759229695000</desc></polyline><polyline fill="none" points="111.55759955610847,45.54267363442341 106.67595714711933,44.54836376301682 101.74591318453895,42.25814076941606 100.7709676042723,41.92397425965464 92.34218276498723,40.28572173081193 90.98002475567046,40.24496872314921 89.36202996288193,40.39167944687506 88.42857142857974,40.155312028116896 89.26522685564123,40.44058295754803 91.87891075163498,40.26942053040693 92.68099364035879,40.36722767956235 100.75713858893141,41.948425518254226 101.44167484741774,42.152185696177185 105.09944940029527,43.896350118433475 107.00785351492232,44.67876581027667 111.40548038753332,45.55897368618025 111.57142857144936,45.510073520228616" stroke="#4DD2FF" stroke-linecap="round" stroke-linejoin="round" stroke-width="0.5"><title>2025-09-29 6.6km</title><desc>1759141711000</desc></polyline><polyline fill="none" points="135.59988968560356,53.01192357279797 135.4450082735857,53.74917480430304 134.9386651958339,53.65789653765387 131.58488692773972,53.00490209196869 126.98610038610059,50.89842331830732 125.76492002204759,50.540315081998415 118.6403750689351,49.17808126239834 116.36480970765115,49.29043153250677 115.85250965249725,49.23425642193615 115.05427468282869,48.81996346958476 114.80408163263928,48.56015127663704 114.46453392168041,47.9983916040801 114.14285714286962,47.043388925383624 114.43474903472816,46.706325778322935 117.02603419744992,44.627730755768425 118.46166574736708,43.03362766974897 120.20110314394697,41.50268979298562 122.33965802536113,40.09110475462512 123.14384997240268,39.957669743504084 123.41191395476926,39.81018862026394 124.09696635408909,39.100869931149646 124.77606177606503,37.633047055845964 125.38963044676348,37.043099255432026 129.4225041368045,34.93609872992238 132.89542195256217,33.580558634486806 133.81875344732543,33.3628267378881 135.98113623828976,32.57617633434711 137.28571428571013,31.965110909979558 134.07490347491694,33.201283242335194 132.80011031441973,33.53841703449871 131.60871483728988,33.980902459443314 131.44191947049694,34.360173262008175 131.56701599556254,34.66920707998361 131.93039161610068,34.82372343313182 132.28185328183463,35.44880853439099 133.5209045780357,38.15275850020407 135.45692222836078,41.81168935801543 135.45692222836078,42.00130199397245 135.8977385548642,42.787837342002604 136.69001654715976,44.70497704031732 136.90446773305302,45.51254629019968 137.19635962491157,45.5827692250532" stroke="#4DD2FF" stroke-linecap="round" stroke-linejoin="round" stroke-width="0.5"><title>2025-09-26 11.4km</title><desc>1758886655000</desc></polyline><polyline fill="none" points="163.0,46.837184312003956 158.60603272391018,45.94343883468537 153.70656478777528,43.674649169508484 152.91590990920668,43.43019607183669 145.02232267873478,41.90998424607824 143.73264791775728,41.871787544681865 142.27447293675505,41.99401691590174 141.56806816818425,41.88706622772588 140.5894707365078,41.16132510670286 140.24598951873486,40.64184263985953 139.90250830099103,39.77093692991912 139.92843141179765,39.442434598575346 140.57650918111904,38.87710140227864 139.93491218946292,39.404236553193186 139.85714285713038,39.641064099130745 140.54410529264715,41.168964526026684 140.90054806577973,41.52801629596797 141.50974116893485,41.86414820189384 142.2615113813663,42.02457422544103 144.17982157855295,41.87942688661133 145.03528423412354,41.92526292081311 152.48169780371245,43.36908266426326 153.69360323241563,43.689927459854516 158.59307116855052,45.98163331879914 160.25863103571464,46.32538273976388" stroke="#4DD2FF" stroke-linecap="round" stroke-linejoin="round" stroke-width="0.5"><title>2025-09-25 7.3km</title><desc>1758798919000</desc></polyline><polyline fill="none" points="188.71428571426077,43.967751648473495 188.27891156464466,45.49925647460623 183.82312925171573,44.63327860183199 178.62585034014774,42.23574969049514 177.3197278911539,41.83481750373903 169.2925170067756,40.303236448824464 167.91836734692333,40.27917994772724 166.4625850339944,40.415500016686565 165.57142857142026,40.21502923967637 166.33333333334303,40.44757529034541 168.06802721085842,40.31927411185461 169.51700680272188,40.39144355227472 177.6598639455915,41.93104142770608 178.39455782313598,42.155563427826564 183.7551020407991,44.641296962181514 187.68027210887522,45.4110554904546" stroke="#4DD2FF" stroke-linecap="round" stroke-linejoin="round" stroke-width="0.5"><title>2025-09-23 6.7km</title><desc>1758623965000</desc></polyline><polyline fill="none" points="34.428571428579744,76.18211144240922 29.71839512171573,75.2624283270925 24.363969775964506,72.79863627570012 23.16852989263134,72.41893532713584 14.614334320183843,70.75666704519972 13.275727983738761,70.71447703077865 11.285714285710128,70.84948499609163 14.385267995210597,70.75666704519972 22.925146922381828,72.38518404166825 24.235119968187064,72.74800959007553 29.818611638911534,75.31305336966761 34.428571428579744,76.2242984794284" stroke="#4DD2FF" stroke-linecap="round" stroke-linejoin="round" stroke-width="0.5"><title>2025-09-22 6.4km</title><desc>1758538508000</desc></polyline><polyline fill="none" points="59.16306844280916,83.71121591484552 55.13229214516468,82.91450247956527 50.382177308230894,80.7582122606982 49.470601745531894,80.45851898412366 42.134588883811375,79.02582043866278 40.70831419384922,78.96003252607625 39.275838309607934,79.08429852904374 38.674322462116834,78.97465206777997 38.09141019752133,78.66764102313755 37.65732659623609,78.26560062645149 37.0,76.74513516465959 37.11162149748998,76.56238459278393 39.79053743684199,74.4205107891903 41.508268259087345,72.54174607784807 43.37482774461387,70.88955931529199 45.61966008270974,69.4347240085117 46.47542489663465,69.3177509552188 46.80408819479635,69.06187169004261 47.49862195685273,68.22842960221169 48.0939366100356,66.89782515707338 48.745062011963455,66.2983134302267 51.53559944880544,64.75564276731166 55.0578778135241,63.22755959536153 55.06407900780323,63.68818163333344 55.553973357833456,64.06106382325379 56.025264124938985,64.89455769299093 56.2609095085063,65.57450554692332 57.80500689020846,68.5647320417047 57.84221405602875,68.80599144881853 58.728984841523925,70.27546182779042 60.142857142869616,73.44092797071062" stroke="#4DD2FF" stroke-linecap="round" stroke-linejoin="round" stroke-width="0.5"><title>2025-09-21 9.0km</title><desc>1758451095000</desc></polyline><polyline fill="none" points="84.52336448596907,82.09268104084185 84.22296395193553,83.36737364918372 84.11481975967763,83.39569986780407 80.17356475300039,82.62380599757307 75.49933244325803,80.47803453155211 74.72429906539037,80.24433237310586 67.61682242990355,78.86334792582056 64.4746328437468,78.86334792582056 63.915887850453146,78.62963996353938 63.363150867808145,78.14097514595778 63.0627503337455,77.66647101124545 62.71428571428987,76.65371179659269 63.2009345793922,76.13670275820914 65.45994659542339,74.35901016993012 67.27436582106748,72.40420044728671 68.7763684912934,71.09387841226999 71.155540720938,69.53562322860671 71.85847797061433,69.46479255985469 72.16488651532563,69.25938318395492 72.88584779703524,68.40232326534169 73.45660881171352,67.11317053156381 74.11148197593866,66.52525172846799 76.947263017355,64.96688699826336 80.19759679574054,63.54307564240298 80.20961281709606,64.03893388402503 80.69025367154973,64.3576978983765 80.98464619493461,64.91021848571108 81.84379172229092,66.82275347432005 83.82042723629274,70.56265925124171 85.47263017354999,74.32359747314331 85.79105473964592,75.55594797618687 85.85714285713038,76.37041968203266 85.73698264351697,77.61689575259516 85.40053404538776,78.81377357978636" stroke="#4DD2FF" stroke-linecap="round" stroke-linejoin="round" stroke-width="0.5"><title>2025-09-18 10.1km</title><desc>1758194958000</desc></polyline><polyline fill="none" points="103.09045381800388,74.7707607802513 103.02354277455015,74.95806992324651 103.53373948062654,75.10594528866932 111.57142857144936,76.67340931238141 96.73390469310107,73.72576581755129 90.46099437246448,70.80760279862443 88.42857142857974,70.26536619782564 90.41917497033137,70.83717924706434 96.8342712582089,73.76519980874582 101.72714130830718,74.75104400581768" stroke="#4DD2FF" stroke-linecap="round" stroke-linejoin="round" stroke-width="0.5"><title>2025-09-16 5.4km</title><desc>1758020593000</desc></polyline><polyline fill="none" points="137.2786499214999,76.15066703488264 132.57378335951944,75.20974882051814 127.16954474098748,72.72000671645947 126.08163265307667,72.41190590239421 117.48430141288554,70.76312909390981 114.14285714286962,70.82974702803767 114.58084772372968,70.90469213451433 116.39638932497473,70.75480184805201 117.63971742545255,70.79643806820968 126.34301412873901,72.4701953408221 127.26138147569145,72.786622945423 132.63029827317223,75.25138261465327 137.28571428573923,76.18397366214776" stroke="#4DD2FF" stroke-linecap="round" stroke-linejoin="round" stroke-width="0.5"><title>2025-09-15 6.5km</title><desc>1757932870000</desc></polyline><polyline fill="none" points="162.9999999999709,83.92170676126261 158.73036314186174,83.06639630857535 153.68325067986734,80.75242377589166 153.02239641654887,80.54622449824092 144.93017117257114,78.97298041702015 143.70564709644532,78.94243163888314 142.27379619257408,79.07226385405374 141.64533674609265,78.98061760948622 140.95856662929873,78.6216686648113 140.58278675409383,78.26271788249142 140.21348584227962,77.65173360127665 139.9024956006615,76.85744607555534 139.85714285713038,76.62068555291626 139.96728523433558,76.46793640430406 142.70788673806237,74.22248551385564 144.53495440728148,72.23665268725745 146.4527275635919,70.54101243952027 148.9212126059574,68.9599055218714 149.7246040633181,68.86060776185332 150.08094704843825,68.60854358533106 150.754759238509,67.8599840206225 151.4026555751043,66.39339516617474 152.07646776511683,65.73647562281985 155.14749640054652,64.05595574188192 157.42809150533867,63.01706874893716" stroke="#4DD2FF" stroke-linecap="round" stroke-linejoin="round" stroke-width="0.5"><title>2025-09-13 7.0km</title><desc>1757768754000</desc></polyline><polyline fill="none" points="188.71428571428987,76.28891116036539 183.59825795333018,75.28387374637532 177.96911826351425,72.68672864051769 177.04853509709937,72.38431596513692 167.80497461458435,70.5876058017966 165.57142857142026,70.59650050394703 167.92570683313534,70.65876339176612 176.77688760540332,72.36652694937948 177.85593180867727,72.68672864051769 183.64353253526497,75.33723887573433 188.68410265963757,76.35116970841773" stroke="#4DD2FF" stroke-linecap="round" stroke-linejoin="round" stroke-width="0.5"><title>2025-09-11 6.0km</title><desc>1757587445000</desc></polyline><polyline fill="none" points="32.217507783614565,113.77839812866296 28.282166389079066,113.00415325591894 23.918688002275303,110.97862869661913 22.915791760198772,110.68136197410058 15.971761639259057,109.34018782277417 14.76359423645772,109.29870775803283 13.402939685736783,109.40932120374782 12.728477300697705,109.28488106378063 11.895662877388531,108.6350230353637 11.54963434941601,108.01972579069115 11.285714285710128,107.15553419444768 13.872130910138367,105.00537443911162 14.663891101285117,104.25176422843651 15.590543769474607,103.15935922599601 17.297226848138962,101.65900018355023 18.558178263687296,100.91917874768842 19.408587357902434,100.2899780280859 20.16515820720815,100.16552000366937 20.505321844888385,99.96500378417113 21.179784229956567,99.19059036565159 21.75454347982304,97.87683169577213 22.399681413342478,97.30983270731667 25.05061183113139,95.83699458219053 28.346680182468845,94.38486717746127 28.340815292147454,94.875828257791 28.827601187455002,95.17316903627943 29.161899934813846,95.7816760520218 29.812902758654673,97.30291805422894 32.416914053988876,102.34350018425175 32.5576714212948,102.82748562725465 32.733618130441755,103.02107877079106 33.50191876036115,104.90166714302904 33.695460140443174,105.64835589200811 33.97697487505502,105.72440703083703 34.059083339350764,107.07948477064201 33.75410904348246,109.09822039632127 33.98283976537641,109.26414101671253 34.41684164793696,109.34710116424685 34.42857142855064,109.47154118226172" stroke="#4DD2FF" stroke-linecap="round" stroke-linejoin="round" stroke-width="0.5"><title>2025-09-09 10.0km</title><desc>1757415422000</desc></polyline><polyline fill="none" points="60.110979929188034,107.12516851347027 54.61216056672856,106.0073588394589 48.7706611569738,103.29261789070733 47.70277449823334,102.95444348306046 37.972255017695716,101.05688471199392 37.0,101.03809679265396 40.06818181814742,101.46082398778526 47.8701298701053,103.02019972173002 54.89108618651517,106.11068639174482 60.14285714284051,107.12516851347027" stroke="#4DD2FF" stroke-linecap="round" stroke-linejoin="round" stroke-width="0.5"><title>2025-09-08 5.7km</title><desc>1757333196000</desc></polyline><polyline fill="none" points="85.85714285713038,107.07112462179794 80.66585127200233,106.09022679365444 74.61066536200815,103.29694200609083 73.73091976516298,102.99798975068552 64.20430528375437,101.13885702454718 62.71428571428987,101.03608971861831 63.83972602739232,101.11082958968473 73.50107632094296,102.97930520012596 74.70577299408615,103.37167990712624 80.60244618391152,106.09956873062765 85.78581213305006,107.12717558749864" stroke="#4DD2FF" stroke-linecap="round" stroke-linejoin="round" stroke-width="0.5"><title>2025-09-04 5.8km</title><desc>1756983645000</desc></polyline><polyline fill="none" points="111.57142857144936,106.77839632482937 107.01656936813379,105.86857306851016 101.57160027473583,103.3849454881638 98.62311126373243,102.69640055931814 92.19763049451285,101.47503750897886 90.88332760988851,101.4504461030665 89.29086538462434,101.58160017514456 88.42857142857974,101.38486898128758 88.8249484890257,101.56520592862944 89.37431318679592,101.63898000978952 90.88332760988851,101.49143177513179 92.28107829674263,101.53241742488899 101.00137362640817,103.22920373413945 101.93320741760544,103.56527764286875 107.03047733521089,105.92594963480224 109.88856456041685,106.44233676329168" stroke="#4DD2FF" stroke-linecap="round" stroke-linejoin="round" stroke-width="0.5"><title>2025-09-02 6.2km</title><desc>1756809719000</desc></polyline><polyline fill="none" points="137.28571428573923,107.079598094424 132.0627503337746,106.05984811671078 125.00534045393579,102.93442856586626 115.44859813086805,101.08367384476878 114.14285714286962,100.98924652413552 115.40053404541686,101.1025592965816 124.51668891857844,102.86833086332626 125.75033377838554,103.23658885008626 132.1909212283208,106.18259643416968 137.27770360480645,107.17401878198143" stroke="#4DD2FF" stroke-linecap="round" stroke-linejoin="round" stroke-width="0.5"><title>2025-08-29 5.7km</title><desc>1756465472000</desc></polyline><polyline fill="none" points="163.0,106.96493616118823 157.98584129076335,105.97691706912155 152.06486664476688,103.264294706074 151.14281010397826,102.98584166585351 141.84604167650105,101.18036527097138 139.85714285713038,101.18036527097138 141.94510560235358,101.26120834296307 151.39428006965318,103.08464769097918 157.87153676094022,105.98589911417366 162.87807516817702,106.98290003515285" stroke="#4DD2FF" stroke-linecap="round" stroke-linejoin="round" stroke-width="0.5"><title>2025-08-27 6.0km</title><desc>1756291993000</desc></polyline><polyline fill="none" points="187.66897566069383,106.97624584910955 183.77212126960512,106.26054227149143 182.0811785358528,105.82568139440264 176.7470228211023,103.32518723555404 175.647910044092,102.97185047827224 166.9779854817898,101.2776251746036 165.57142857142026,101.12360298126441 167.88494567538146,101.45882738985529 175.6325378374313,102.98091041389125 176.57792854768923,103.27988773515244 181.64307064571767,105.68978690412041 182.91127769605373,106.13370808382751 187.66128955731983,107.03966232485254 187.84575603736448,106.33301886331901 188.71428571428987,106.4779718576101 188.28386392752873,106.37831670117885 188.314608340821,106.16088685458817" stroke="#4DD2FF" stroke-linecap="round" stroke-linejoin="round" stroke-width="0.5"><title>2025-08-26 6.0km</title><desc>1756205162000</desc></polyline><polyline fill="none" points="34.428571428579744,139.0156616763561 30.01209435996134,138.14677980030683 25.207639803615166,135.93641763104824 24.211830918473424,135.6239125191496 16.271225003001746,134.09185507212533 13.620045503543224,134.20618887559976 12.915219734160928,134.04612149842433 12.236259130644612,133.63451799016184 11.887079391686711,133.21528970594227 11.311579451547004,131.78227224094007 11.731888396578142,131.31729750196246 12.908753442694433,130.37209342569258 11.51203448686283,131.48499366568285 11.285714285710128,131.79751726204267 11.654292899067514,132.85703809101688 11.958208597759949,133.36011430626968 13.025146689004032,134.11472184774902 13.691174709616462,134.25192234465794 15.139623997121817,134.1223441046459 16.335887917579385,134.14521087032335 24.334690456220414,135.68488923594123 25.21410609508166,135.98214996938623 29.934498862421606,138.14677980030683" stroke="#4DD2FF" stroke-linecap="round" stroke-linejoin="round" stroke-width="0.5"><title>2025-08-23 7.3km</title><desc>1755948655000</desc></polyline><polyline fill="none" points="60.14285714284051,136.69380822225503 59.792751856381074,137.90006380012346 53.87687022058526,136.73613323287282 46.632383907795884,133.43472703440057 39.5853928848519,131.91096325878607 37.0,131.48769130191795 46.17455391777912,133.33949249862053 53.61653552035568,136.69380822225503 58.45517012081109,137.6778599504687" stroke="#4DD2FF" stroke-linecap="round" stroke-linejoin="round" stroke-width="0.5"><title>2025-08-19 5.0km</title><desc>1755607675000</desc></polyline><polyline fill="none" points="85.19034675569856,140.71873287312337 80.98827321088174,139.88829817083024 76.11311303536058,137.63421006208955 75.28905370249413,137.3969332881752 67.59573641902534,135.92134978737886 64.72096454779967,136.00291553962597 63.771094629744766,135.558010249144 63.11687958682887,134.76458859794366 62.752028889837675,133.578146445303 65.47582805884304,131.36092723870388 68.04236399641377,128.66902222891804 67.2875004853413,129.34386241047469 65.55131440993864,131.22744685444923 62.71428571428987,133.58556177299033 62.85267735796515,134.14912431254925 63.3810818157217,135.17983846605057 63.82770939308102,135.59508580109105 64.60144449191284,135.9732552774003 65.02920048148371,136.03999084924726 66.51376538656768,135.90651964009885 67.75299965054728,135.92134978737886 70.87310216287733,136.51455302909744 71.14359492098447,136.4181578540738 72.38282918493496,136.64802304612385 72.75397041119868,136.81115271157614 74.63483865957824,137.09292121300678 75.84891080649686,137.48591217530338 76.47796373238089,137.47108236885833 76.46538267383585,137.6416249479662 76.86797654643306,137.62679517541255 76.56603114199243,137.82699683199462 77.02523977786768,138.1087611290277 80.71148992350209,139.76966381510283 81.41602920045261,139.96985917050188 81.63619772449601,139.86605424488516 82.83768881292781,139.95502990508976 82.83768881292781,140.23678539535467 84.8758202928002,140.64458732934872 85.23438046051888,140.6816601113169 85.33502892864635,140.17005393724685 85.67471750863479,140.1107370306854 85.85714285713038,139.49532107571576" stroke="#4DD2FF" stroke-linecap="round" stroke-linejoin="round" stroke-width="0.5"><title>2025-08-16 10.0km</title><desc>1755297330000</desc></polyline><polyline fill="none" points="102.35608726250939,133.88766434882564 101.93807178048883,136.01529027617653 111.57142857147846,137.9077205564463 95.59183673473308,134.7387200025696 88.42857142857974,131.48003454559512 95.37332864181371,134.72752194759232 101.40605207608314,135.9369048388835" stroke="#4DD2FF" stroke-linecap="round" stroke-linejoin="round" stroke-width="0.5"><title>2025-08-13 5.0km</title><desc>1755095249000</desc></polyline><polyline fill="none" points="137.15613501842017,139.00122578302398 132.91241401375737,138.15355106153584 128.08558630617335,135.9312200373024 127.18501039833063,135.64101353590377 119.2547592385381,134.11359109963814 116.44288913777564,134.20523738413613 115.82090865462669,134.0754051124095 115.17949128139298,133.69354409621883 114.84258518638671,133.3575046815895 114.5315949448268,132.83816787286196 114.16229403295438,131.799482714443 114.96568549034419,131.0051836804705 115.89865621502395,130.29488942233002 115.19244920814526,130.79133240293595 114.14285714286962,131.807120161473 114.82962725966354,133.36514195891505 115.36738121902454,133.86920042197744 115.8144296912651,134.09831670724088 116.44288913777564,134.23578611901758 118.64573668211233,134.10595390384697 119.44264917614055,134.15941425685014 127.55431131020305,135.78611693673156 132.7893137097999,138.15355106153584 137.28571428571013,139.09286567971867" stroke="#4DD2FF" stroke-linecap="round" stroke-linejoin="round" stroke-width="0.5"><title>2025-08-12 8.1km</title><desc>1754996616000</desc></polyline><polyline fill="none" points="162.9999999999709,137.37801537659107 158.3335928376182,136.44478859177616 153.06461658229819,134.01669341108936 152.1957960295549,133.72762928222073 147.24211755546276,132.68698929414677 143.50759050212218,132.04277643012028 142.19034643829218,132.00973972545034 140.52277150639566,132.1501456208789 139.85714285713038,132.03451725530613 140.46671856753528,132.1501456208789 142.12028026467306,132.0262580795752 143.52160373685183,132.05103560405405 152.1187232385564,133.73588827262574 153.12066952118766,134.09102400897245 158.11638769943966,136.39523640600237 162.60062281039427,137.32020520146034" stroke="#4DD2FF" stroke-linecap="round" stroke-linejoin="round" stroke-width="0.5"><title>2025-08-10 6.4km</title><desc>1754781124000</desc></polyline><polyline fill="none" points="186.41931986555574,144.37692117997358 182.567055762338,143.6040475137779 178.1995952441066,141.5890111275803 177.3682555744017,141.31297375541908 170.17306927830214,139.90516445037792 169.5290737595351,139.86375782080722 167.5151241371641,139.98107653434272 167.07603628345532,139.87756003368122 166.4613132882805,139.52560266623914 166.03393444398534,139.04252074307442 165.6299736185756,138.09704974817578 165.57142857142026,137.73818115069298 168.129847132368,135.6401394351269 169.8979075566458,133.73527821935568 171.5664414007333,132.2789869851331 173.66820859382278,130.9054873186542 173.90238878247328,130.79505389094265 174.49369375879178,130.7743476018004 174.72201944273547,130.6225012746363 175.36601496150251,129.91157953682705 176.02757399441907,128.48971211913158 176.62473347547348,127.9237171764471 179.30024213076103,126.4810974311622 182.60803729534382,125.01083392206056 182.60803729534382,125.51473089474166 183.1934877669555,125.89437665006699 183.36912290845066,126.11526040572062 183.46279498390504,126.47419486532453 185.52943514869548,130.1531557797789 186.3783383325208,132.01671296770655 186.91109826171305,132.7552186087196 186.91695276641985,132.96917657821905 187.15698745980626,133.33497401323984 187.59022080880823,134.5979942001868 187.9239275775908,135.19153597216064 188.20494380395394,136.4200117393848 188.29861587943742,137.66226637917862 188.0351631672238,139.44278888385452 188.10541722382186,139.54630609491142 188.71428571426077,139.73263664858678 188.6440316576918,140.2847239606417" stroke="#4DD2FF" stroke-linecap="round" stroke-linejoin="round" stroke-width="0.5"><title>2025-08-08 10.0km</title><desc>1754654808000</desc></polyline><polyline fill="none" points="34.42857142863795,168.54618107591523 28.254093732393812,167.28469399327878 21.174025974061806,164.0176911916351 13.865273856616113,162.44345333062665 11.285714285739232,162.06606382205064 21.00937323551625,164.0176911916351 28.43704121967312,167.39251403025264 34.273066064401064,168.51383545404678" stroke="#4DD2FF" stroke-linecap="round" stroke-linejoin="round" stroke-width="0.5"><title>2025-08-07 5.0km</title><desc>1754573743000</desc></polyline><polyline fill="none" points="60.14285714284051,168.55771566322073 54.02483983366983,167.33437673437584 47.03282005171059,164.12572264853952 46.140609194058925,163.85743580087 37.0,162.05452923473058 39.43081937730312,162.56964876287384 39.63111161062261,162.4837956952033 40.168258963676635,162.70915983829036 46.53208946832456,164.00767652557988 54.10677756543737,167.4202255757773 59.73316848371178,168.54698468599236" stroke="#4DD2FF" stroke-linecap="round" stroke-linejoin="round" stroke-width="0.5"><title>2025-08-04 5.0km</title><desc>1754309955000</desc></polyline><polyline fill="none" points="85.85714285715949,167.99928207015182 81.23137917587883,167.07263068937027 75.89665930069168,164.62356905944762 75.09645131940488,164.35880091089348 66.63109320163494,162.68743067427567 65.14298713119933,162.61296282781404 63.33199012093246,162.75362425428466 62.71428571428987,162.62123703656835 62.84765371121466,162.72052747150155 63.6969972702791,162.7784468319296 66.14675679191714,162.64605965747614 69.50903418695088,163.3079932225155 70.04952554273768,163.3162673555853 70.98310152089107,163.59758734350908 75.00519953205367,164.36707492951246 76.12127908488037,164.76422676300717 81.14714675681898,167.06435696543485 85.37982581570395,167.91654579924216" stroke="#4DD2FF" stroke-linecap="round" stroke-linejoin="round" stroke-width="0.5"><title>2025-08-03 6.5km</title><desc>1754227262000</desc></polyline><polyline fill="none" points="108.89085963618709,168.01671572633495 102.74941916472744,166.7940068499811 95.01065336883767,163.35302854816837 88.42857142857974,162.01123112782807 95.57981526607182,163.5045206667928 102.98809996037744,166.89139129425166 111.57142857142026,168.6010137701378 109.0836402788409,168.03835645589425 109.0836402788409,167.87605086933036" stroke="#4DD2FF" stroke-linecap="round" stroke-linejoin="round" stroke-width="0.5"><title>2025-08-01 5.0km</title><desc>1754057984000</desc></polyline><polyline fill="none" points="135.07159127888735,174.96644382897284 131.1236576635274,174.18627465510872 126.77741620570305,172.18402664295354 125.84607875041547,171.88713620921408 118.81711682397872,170.5269459790252 117.53433127238532,170.48551840740038 116.25740318908356,170.59599187153435 115.64822648878908,170.48551840740038 115.14448421739507,170.2024292767419 114.7754637162434,169.85029225221297 114.35372600067058,169.0493458525416 114.14285714286962,168.3519618654209 116.72600065087317,166.21142843991765 118.51838594209403,164.29869708743718 120.15847705828492,162.86238432964092 121.39440286369063,162.1511212483856 122.3608851285826,161.43985018348394 123.04620891640661,161.3707943150912 123.29222258384107,161.2188711397066 124.04197852264042,160.35566436512818 124.6277253498265,159.05737923194465 125.2017572405166,158.53943890965093 127.94305239184177,157.0339349990354 131.15294500489836,155.64580106898575 131.2056622193486,156.09470342871282 131.6742596811091,156.4192923841947 132.16042954768636,157.2894588256495 132.45916042957106,158.12508360328866 133.19720143184531,159.6512789238659 135.11845102507505,163.24908712077377 135.3761796290637,164.02248562378736 136.13765050441725,165.61759022801925 136.65310771236545,167.39218323739988 136.68825252199895,168.49696312824017 136.61796290273196,168.89744108324157 136.79954441916198,169.02863158726177 136.62967783925706,170.07124120214212 137.28571428573923,170.31980785019186 137.26228441263083,170.65813311051534" stroke="#4DD2FF" stroke-linecap="round" stroke-linejoin="round" stroke-width="0.5"><title>2025-07-28 10.0km</title><desc>1753704756000</desc></polyline><polyline fill="none" points="160.72762288013473,168.14380125672324 154.5810290313675,166.91435674869717 147.54038516816217,163.68699356626894 146.39488358725794,163.30277678010316 139.8571428571595,161.9964287512703 147.11198620294454,163.55526226173242 153.17476286290912,166.4094019815675 154.748663409031,167.00217471086944 163.0,168.61581614668103 160.82075308996718,168.1218470220192 160.93250934174284,167.40833179064066" stroke="#4DD2FF" stroke-linecap="round" stroke-linejoin="round" stroke-width="0.5"><title>2025-07-22 5.0km</title><desc>1753194638000</desc></polyline><polyline fill="none" points="178.73512963904068,166.52771669989306 186.40137264868827,168.0485444140213 188.71428571426077,168.18606453408574 186.6964921199542,168.0728126890026 174.0612608032534,165.597407803456 168.55007625825237,163.09765053362935 165.57142857142026,162.42618036386557 168.51576004066737,163.11383046284027 173.68378240973107,165.50033142122993 175.81138790035038,165.95335345294006" stroke="#4DD2FF" stroke-linecap="round" stroke-linejoin="round" stroke-width="0.5"><title>2025-07-19 6.4km</title><desc>1752877000000</desc></polyline><polyline fill="none" points="32.30915434093913,205.64172086823237 28.370570919767488,204.85758237779373 23.89624595703208,202.81044968825154 23.130900897609536,202.56756517398026 15.860122833168134,201.1657564558409 13.340371406753547,201.24903308298235 12.79285532576614,201.14493728205707 12.28066286293324,200.84652837675822 11.780244939465774,200.31910456768674 11.344586982595501,199.340583041012 11.285714285710128,198.98664602149074 13.858451139269164,196.85604241508554 15.559872079087654,195.00992433687497 17.23774394011707,193.54548434619937 19.286513791477773,192.17818059499405 19.645637242414523,192.00466279158718 20.19315332340193,191.97689989917126 20.581713122781366,191.73397407428274 21.21753824906773,190.97742771170306 21.788603408815106,189.67947861229914 22.394992186658783,189.11725715478678 25.373950648703612,187.49303394927847 28.417669077316532,186.1950138256434 28.423556346970145,186.69478941235138 28.894537921994925,187.0071471620322 29.206563215440838,187.58326965869492 29.84827561143902,189.05478779754776 31.826398226548918,192.77507822847838 32.34447795909364,194.01744024774962 32.48577243159525,194.14930965397798 33.374750154442154,196.42574899853207 33.57491732382914,196.7102981962962 33.89282988695777,197.8970628520692 33.95170258387225,198.68128701279784 33.85750626886147,199.87495481546648 33.569030054146424,200.9922631330337 34.42857142855064,201.18657562282897" stroke="#4DD2FF" stroke-linecap="round" stroke-linejoin="round" stroke-width="0.5"><title>2025-07-17 10.0km</title><desc>1752756134000</desc></polyline><polyline fill="none" points="60.14285714284051,199.18409198162408 54.00739402830368,197.95543642318808 46.226054072380066,194.4957190856585 37.0,192.6526427122517 46.63752328278497,194.66816891995404 53.83366258395836,197.94465867534018 59.859400575689506,199.1733143675956" stroke="#4DD2FF" stroke-linecap="round" stroke-linejoin="round" stroke-width="0.5"><title>2025-07-14 5.0km</title><desc>1752500928000</desc></polyline><polyline fill="none" points="85.85714285710128,199.1602860686762 79.72310957213631,197.9552632360137 73.3809896123712,195.01195928258676 71.8791466546827,194.46807821516268 62.71428571426077,192.67644862519228 72.47626493906137,194.62804354858963 79.83167653292185,197.99791916466347 85.20574109232984,199.0749752054253" stroke="#4DD2FF" stroke-linecap="round" stroke-linejoin="round" stroke-width="0.5"><title>2025-06-21 5.0km</title><desc>1750468889000</desc></polyline><polyline fill="none" points="104.2625987737265,197.33963920037422 110.28069772777962,198.54169147963694 111.57142857142026,198.61055829698307 110.46129381289938,198.54169147963694 100.62411882355809,196.61964793566221 99.56710056067095,196.20643148518138 96.40666907111881,194.70380117286186 95.8489458670665,194.52223068370586 89.4006032984762,193.27000479701746 88.42857142857974,193.22617639688906 89.2890586576832,193.244960001055 91.8014689006086,193.70828696032186 96.32168267812813,194.68501804538755 99.68395685101859,196.275301099864 100.54444408012205,196.6071262686819 101.4792944030778,196.7949509870632" stroke="#4DD2FF" stroke-linecap="round" stroke-linejoin="round" stroke-width="0.5"><title>2025-06-17 8.1km</title><desc>1750165544000</desc></polyline><polyline fill="none" points="137.28571428568102,199.14628297197487 131.45077891944675,197.98595286527416 123.84388465358643,194.58927028801554 114.14285714284051,192.69045172190818 123.86178322834894,194.63146583333582 131.32548889622558,197.9754043460125 136.24759695056127,198.97750854754122" stroke="#4DD2FF" stroke-linecap="round" stroke-linejoin="round" stroke-width="0.5"><title>2025-06-15 5.0km</title><desc>1749939796000</desc></polyline><polyline fill="none" points="155.84881281727576,197.24490577250617 161.3107044051576,198.33625084455343 162.9999999999709,198.44074015822844 161.670233788318,198.35947070973634 152.52932234821492,196.583121815067 151.63788648037007,196.24642156056143 148.65822515424225,194.8299351270216 147.99334204845945,194.60933139311237 141.98476879578084,193.44824406032785 141.25585990940453,193.3959945356546 139.85714285713038,193.5062990276965 141.8419420545397,193.43663305928203 147.73723892620183,194.5744991411484 148.4513726324367,194.77188160134756 150.15544340739143,195.5788199393719" stroke="#4DD2FF" stroke-linecap="round" stroke-linejoin="round" stroke-width="0.5"><title>2025-06-11 8.1km</title><desc>1749642919000</desc></polyline><polyline fill="none" points="188.71428571431898,199.13917768883402 182.7019885891932,197.9756981789833 175.14623608265538,194.60152877993096 165.57142857142026,192.69755700504174 175.2539190162206,194.6438388398601 182.76480363373412,198.02858391360496 187.71821857866598,199.0228303650365" stroke="#4DD2FF" stroke-linecap="round" stroke-linejoin="round" stroke-width="0.5"><title>2025-06-08 5.0km</title><desc>1749387304000</desc></polyline><polyline fill="none" points="20.251548451255076,232.7503385480959 22.743856143555604,231.26221156437532 27.987412587273866,230.30828068463597 30.641558441449888,228.32409613131313 33.522277722135186,228.40041112960898 34.299100898904726,227.75173311322578 29.185014984803274,219.43328498632764 25.721678321482614,220.12013681151439 22.420179820037447,222.06620966657647 20.57522477512248,222.06620966657647 17.629770229686983,223.43990164116258 12.80699300672859,224.4320091602276 12.968831168720499,227.56094523266074 11.285714285681024,229.65960620212718 12.709890109719709,231.22405437901034 13.324875124846585,233.17006552856765 14.23116883111652,233.74241969094146 19.86313686298672,232.55955339080538 22.840959040797316,231.22405437901034 27.178221778012812,230.65169610071462 30.803396603208967,228.32409613131313 33.36043956025969,228.43856862265966 34.39620379603002,227.56094523266074 29.185014984803274,219.31880955115776 25.33326673298143,220.1582952067256 22.48491508467123,222.02805147928302 19.895504495245405,222.2951587032585 16.723476523300633,223.707007788209 12.904095903853886,224.355693296995 13.001198800979182,227.75173311322578 11.285714285681024,229.65960620212718 12.80699300672859,231.30036874557845 13.583816183614545,233.28453643573448 14.684315684251487,233.81873350864043 23.553046952700242,231.10958279820625 27.27532467513811,230.6898533483327 30.479720279574394,228.51488359612995 33.45754245726857,228.47672611149028 34.428571428521536,227.52278764400398 28.828971028793603,219.20433407850214 25.009590409346856,220.3872454907978 22.355444555403665,222.02805147928302 13.065934065612964,224.16490356621216 13.033566433470696,227.56094523266074 11.318081917823292,229.58329147825134 12.774625374469906,231.22405437901034 13.324875124846585,233.05559458376956 14.975624375394545,233.8568904112617 28.052147851907648,229.88855027439422 29.67052947031334,227.71357554546557 29.185014984803274,225.53858730805223 27.048751248628832,222.86753063998185 25.236163835972548,221.9517350922397 23.682517482317053,221.87541868840344 21.902297702152282,222.60042385262204 19.021578421466984,226.0727961967932 14.425374625250697,226.83595033851452 11.674125873949379,229.01093051818316 11.577022976824082,229.92670760513283 13.130669330479577,231.79641172199626" stroke="#4DD2FF" stroke-linecap="round" stroke-linejoin="round" stroke-width="0.5"><title>2025-06-04 6.4km</title><desc>1749041988000</desc></polyline><polyline fill="none" points="60.14285714284051,229.772577334581 54.21132221794687,228.5879437808253 47.45421813550638,225.46763446478872 46.43123026646208,225.12915420663194 37.0,223.28864715521922 46.70043760043336,225.23492941400764 54.076718550990336,228.56678947891487 59.00321276241448,229.58219077358808" stroke="#4DD2FF" stroke-linecap="round" stroke-linejoin="round" stroke-width="0.5"><title>2025-05-28 5.0km</title><desc>1748436903000</desc></polyline><polyline fill="none" points="85.85714285715949,229.76244380661956 79.43060578661971,228.44600585583248 71.98790687159635,225.07929809093184 62.71428571426077,223.28799028044887 71.68580470158486,225.01455258965143 72.802667269425,225.3706523230794 79.9707278481219,228.65102603076957 85.74728752259398,229.77323420935136" stroke="#4DD2FF" stroke-linecap="round" stroke-linejoin="round" stroke-width="0.5"><title>2025-05-27 5.0km</title><desc>1748351986000</desc></polyline><polyline fill="none" points="105.56694147601957,231.3046712604919 105.59786892862758,229.91917536742403 106.32466406573076,228.2738793009994 106.80403958173702,225.22136549046263 106.7731121290708,225.50280601414124 106.07724444457563,225.5894029724659 102.69068838004023,227.99244493761216 101.40719909529435,228.29552807231084 100.89689612668008,227.45122324943077 101.48451772687258,226.49866745866893 102.56697856949177,225.65435065234487 102.39687757991487,224.20384453088627 102.90718054852914,223.2729139358562 102.22677659039618,222.88322002623318 99.73711665254086,222.92651940881478 99.08764014695771,221.97392957225384 99.30413231556304,220.84813234206376 99.78350783151109,220.99968255234126 99.73711665254086,220.26357983147318 100.44844806334004,220.696581950353 101.74740107444813,220.6532818051055 102.78347073798068,221.3460823517089 104.19066983333323,221.38938226005848 104.76282770722173,221.10793259150523 106.17002680251608,219.13776739099558 106.23188170779031,215.84687361818942 105.72157873917604,215.26229801299633 104.91746497043641,214.95918367346167 103.92778648581589,215.24064701282623 103.04635408549802,216.21493835506408 102.36595012724865,216.45309732041642 100.97421475831652,216.19328751778085 99.50516075768974,215.39220393635333 98.15981656772783,215.84687361818942 97.47941260947846,216.8861124731411 97.51034006214468,217.99029440836603 98.09796166233718,218.81301194176922 99.4278421261115,219.44087172525906 99.73711665254086,220.19862938592996 99.13403132592794,221.60588157926395 99.56701566302218,222.90486971941573 99.67526174726663,224.70178134146408 99.10310387326172,226.65021090485243 99.55155193665996,227.19143601726682 100.86596867407206,227.51616997415113 101.37627164262813,228.29552807231084 100.2010284421849,230.20060544781882 98.74743816786213,230.7851120773921 96.31963313533925,232.56026381704578 94.55676833464531,233.31794295617874 94.15471145021729,234.35703840220958 93.16503296559677,235.4394204234777 94.01553791336482,237.86392257326952 94.78872422943823,238.03709952173813 95.80933016672498,237.4093319566673 97.00003709353041,237.9072168326602 97.86600576754427,237.79898115657852 98.54640972573543,237.0846233741031 99.04124896804569,235.28788749751402 100.21649216848891,234.6384586179047 102.90718054852914,235.48271551188373 103.92778648581589,234.98482110157784 105.52055029699113,234.89823056954629 105.61333265493158,230.09236318331386 106.83496703440323,225.80589510913705 106.64940231852233,225.50280601414124 106.18549052882008,225.54610450072505 102.70615210634423,228.01409375699586 101.45359027426457,228.2738793009994 100.07731863157824,230.2655507621821 98.60826463100966,230.85005709189863 96.30416940903524,232.56026381704578 94.64955069258576,233.20970335676975 94.15471145021729,234.4219815844699 93.16503296559677,235.52601058540313 93.93821928172838,237.75568686024053 94.44852225034265,238.102040816324 95.71654780872632,237.4093319566673 97.1701380830491,237.92886395673122 98.14435284136562,237.5392151565684" stroke="#4DD2FF" stroke-linecap="round" stroke-linejoin="round" stroke-width="0.5"><title>2025-05-23 6.4km</title><desc>1747958832000</desc></polyline><polyline fill="none" points="127.81692586431745,227.61139220259793 128.44324420683552,228.20640028947673 130.00904006324708,228.45692943190807 130.79193799139466,229.4590425741626 130.59062138129957,233.40480976650724 130.21035667334218,234.12505968137702 128.8458774271421,234.53215620636183 127.50376669305842,234.06242936653143 126.25113000778947,234.34426561495638 124.1261213455582,233.0916567460954 122.85111614817288,233.59270132177335 121.91163863439579,233.4361250391521 122.18006078107283,232.5279799598211 121.5090054142056,230.7743077512714 121.71032202418428,229.52167446345265 120.99452963273507,228.3316649034823 121.3076888039941,226.45268669567304 125.8261282753665,226.2647878144926 127.3695556196617,226.82848387958074 128.17482205992565,228.11245177262754 129.89719750208315,228.4256133078161 130.65772691799793,229.14588280623138 130.59062138129957,233.49875556821644 130.25509369780775,234.12505968137702 128.93535147595685,234.5008411212184 127.66034627857152,234.09374452663178 126.2063929833239,234.31295049768232 124.08138432109263,233.122972072204 121.37479434069246,233.6866470270761 119.92084104544483,234.87662178986648 120.39057980233338,235.2210867254762 120.74847599805798,237.09997496864526 122.94059019710403,238.10204081633128 123.88006771099754,237.4444357221655 124.50638605363201,236.16053325659595 124.41691200458445,235.15845678535698 123.25374936836306,233.3108639165439 124.41691200458445,233.122972072204 126.2287614956731,234.31295049768232 127.66034627857152,233.90585348544118 127.48139818070922,233.4361250391521 126.02744488546159,233.4674403063691 125.24454695731401,232.46534909868205 125.98270786099602,229.52167446345265 124.05901580885984,226.5779525093385 124.19322688225657,224.22920424383483 124.70770266361069,223.22706248165923 125.73665422631893,222.63203821555362 127.68271479092073,223.25837949481502 129.27087915956508,222.8512579069793 127.48139818070922,224.6050059908157 125.62481166527141,224.51105562639714 124.50638605363201,223.6655001775507 122.78401061147451,223.28969650249928 122.82874763594009,219.46898202788725 123.58927705185488,217.87177447987779 123.63401407632045,215.49159620581486 124.10375283332542,215.02182052227727 125.53533761634026,214.95918367347622 129.65114386752248,215.554232872586 130.50114733236842,216.3058712023194 130.79193799139466,217.87177447987779 131.5077303829603,218.65472109708935 131.03799162595533,219.28107598061615 131.328782285098,219.6882055060123 129.91956601431593,220.53377932026342 129.76298642857,222.50676970258064 127.68271479092073,224.5423724198481 126.04981339769438,224.6050059908157 124.43928051681723,223.5715493310563 122.87348466040567,223.3836474935233 122.8063791237073,219.6882055060123 123.76822514971718,216.49378030259686 124.77480820030905,216.11796190909809 124.79717671254184,215.17841255075473 129.3827217206126,215.46027786447667" stroke="#4DD2FF" stroke-linecap="round" stroke-linejoin="round" stroke-width="0.5"><title>2025-05-20 5.0km</title><desc>1747754393000</desc></polyline><polyline fill="none" points="159.93365212203935,228.1478606951714 162.09623430971988,228.41421817740775 163.0,227.462940522586 157.6419605499832,219.3960018468788 153.89778840413783,220.30924954178045 150.9928272565594,222.02158253235393 149.1852958756499,222.09768602598342 144.79557680815924,223.7719586887688 141.2773460849421,224.26662862111698 141.56784219969995,227.50099167847657 139.8571428571595,229.70795162947616 141.2773460849421,230.9636295142409 141.7937836223282,232.71396085064043 142.5684399282327,233.47497173893498 144.02092050213832,233.70327468204778 151.28332337131724,231.3441370728251 155.6084877466783,230.73532478016568 159.35265989252366,228.26201392681105 162.09623430971988,228.33811606047675 162.9354453079868,227.61514512149733 157.77106993435882,219.43405388179235 156.35086670645978,219.47210591257317 151.1219366408186,221.94547902228078 148.73341303050984,222.21184123531566 145.73161984456237,223.58170083584264 141.01912731630728,224.4568861007865 141.696951584192,226.96827511794982 139.8571428571595,229.66990071404143 141.2127913928125,230.81142637471203 141.63239689194597,232.4095560310525 142.60071727447212,233.43692123395158 144.02092050213832,233.62717371768667 151.89659294683952,231.0397310591361 156.12492528406437,230.50701989675872 159.1912731619086,228.33811606047675 162.12851165572647,228.33811606047675 162.9354453079868,227.5390428303508 157.77106993435882,219.47210591257317 156.64136282133404,219.35794980771607 153.7364016737556,220.30924954178045 151.21876867907122,221.94547902228078 149.1530185295269,222.02158253235393 145.27973699953873,223.65780398945208 141.43873281532433,224.34273162533646 141.63239689194597,227.348787029885 139.9216975494055,229.59379887059913 141.2127913928125,230.8875279527856 142.11655708309263,233.13251704451977 144.15002988651395,233.58912322917604 150.70233114180155,231.38218780580792" stroke="#4DD2FF" stroke-linecap="round" stroke-linejoin="round" stroke-width="0.5"><title>2025-05-14 5.0km</title><desc>1747227249000</desc></polyline><polyline fill="none" points="173.7669237141963,237.85109003043908 174.23833784164162,237.42088779290498 174.92264867183985,234.8755015427596 176.9755811621435,235.1981583168381 178.08568539767293,230.7526092979533 177.87278869497823,227.90237557476212 175.72861476062099,222.54236837557983 175.81985620461637,221.3412725812086 177.31013312359573,220.53456152854778 179.5303415946546,220.15809501695912 180.9597908842261,219.17210721377342 182.13072274904698,219.27966980673955 182.57172306184657,218.8135647293966 180.2146524247364,215.04882146778982 179.62158303859178,214.95918367347622 177.99444395373575,215.55079221358756 176.9755811621435,216.24996319996717 176.09358053666074,216.26789062211174 174.29916547099128,216.9849859049864 172.45912968326593,217.25389583027572 172.58078494202346,218.65222035648185 171.71399122389266,219.74577356353984 171.8660602971795,220.1401680186973 172.3830951466225,220.48078065103618 172.90012999612372,221.68188272703264 173.5540270115016,221.7535900363 179.3934794286033,219.9967519625934 180.0473764440394,219.42308648786275 180.29068696143804,218.65222035648185 180.0017557219835,217.64829625889251 178.98289293050766,216.55472911031393 177.73592652892694,216.1603260600823 176.64102920074947,216.46509213648096 175.18116609647404,218.11440463748295 173.09781979146646,218.4729486455035 171.89647411188344,219.54857598136005 171.92688792658737,220.1401680186973 173.5540270115016,221.39505317747535 175.4092697064625,221.19785757207137 179.34785870666383,219.9967519625934 180.19944551744265,219.20796141924802 180.24506623944035,218.34745833158377 179.62158303859178,217.21804119896842 178.1465130270226,216.21410834987182 176.09358053666074,216.28581804227724 174.16230330494,217.05669526137353 172.4287158686202,217.39731427733204 172.5655780346715,218.72392898619 171.72919813118642,219.81748171664367 172.39830205397448,220.48078065103618 172.7328540153685,221.44883375607606 173.5084062895039,221.77151685876015 174.4208207296906,221.30541884068225 176.1087874439545,221.01858863481903 175.71340785326902,221.7535900363 175.7590285752085,222.32724738535762 177.67509889957728,227.13154916837811 178.13130611967063,229.35438760269608 177.96403013903182,231.84608208866848 177.20368477219017,234.6962475060718 175.2419937258237,234.40944064117502 174.4664414516883,237.02653475383704 173.87337206560187,237.27748679707292 173.63006154820323,238.10204081633128 173.31071649416117,237.9765654712246" stroke="#4DD2FF" stroke-linecap="round" stroke-linejoin="round" stroke-width="0.5"><title>2025-05-06 7.1km</title><desc>1746539597000</desc></polyline><polyline fill="none" points="20.128723098081537,268.7142857142899 19.971917364746332,268.5294511170214 20.70890431123553,266.0711318287067 22.574892537260894,266.514740950166 22.9041845772299,265.94174561651016 23.87638012354728,261.8567873334978 23.84501897689188,259.82351352287515 21.069557497801725,252.13382133404957 20.316889977955725,251.96745394950267 19.250610991672147,252.4850408325292 18.592026911850553,252.355644259791 17.353261618933175,250.43316926807165 18.200012578687165,249.5088946906617 17.996165125397965,248.0300448926282 19.09380525839515,247.97458777439897 22.763059417251498,246.93938490690198 23.954782990156673,246.19995041970105 25.914854656206444,245.60840050932893 28.43942696216982,249.4719236027595 28.125815495557617,249.97103260880976 26.74592504266184,249.8416341185948 25.271951149741653,250.91379005835915 23.029629163851496,251.24652673093078 21.712461004208308,251.87502755418245 20.03463965811534,252.09685081829957 19.015402391727548,252.52201126370346 18.35681831196416,252.24473283317639 17.98048455209937,251.20955602174217 17.384622765530366,250.76590688325814 17.384622765530366,250.41468382587482 18.200012578687165,249.32403917086776 17.98048455209937,248.04853059466404 19.705347618146334,247.82670203720045 22.716017697239295,246.86544160322228 25.56988204299705,245.5714285714348 26.008938096172642,245.7193162746844 28.423746388754807,249.4719236027595 28.188537788868416,249.93406162169413 26.855689055926632,249.8416341185948 24.926978536474053,251.04318773077102 23.358921203645878,251.15409994285437 19.09380525839515,252.4850408325292 18.435221178573556,252.30018855557137 18.01184569869656,251.20955602174217 17.384622765530366,250.7289360693976 18.184332005272154,249.3610102909006 17.996165125397965,248.0300448926282 19.642625324893743,247.82670203720045 22.590573110675905,246.9208990840416 23.64117152360268,246.27389401345863 25.60124318965245,245.5714285714348 25.961896376218647,245.7193162746844 28.40806581545621,249.45343805584707 28.17285721556982,249.91557612502947 26.74592504266184,249.82314861194754 25.224909429845866,250.93227544619003 23.013948590436485,251.24652673093078 21.430210684309714,251.93048339741654 20.128723098081537,252.04139502943144 19.125166404992342,252.50352604914224 18.388179458561353,252.22624758839083 17.996165125397965,251.20955602174217 17.368942192173563,250.74742147733923 17.353261618933175,250.43316926807165 17.98048455209937,249.82314861194754 17.243497605551966,250.5071110167337 17.933442832087167,251.32046812510816 18.24705429864116,252.17079184182512 18.92131895176135,252.57746689552732 22.82578171050409,251.3574388101115 25.16218713647686,251.08015847620845 26.667522175994236,249.93406162169413 28.06309320218861,249.93406162169413 28.47078810876701,249.5088946906617 25.852132362953853,245.5714285714348 23.860699550190475,246.16297861078056 22.621934257273097,246.95787072776875 21.508613550977316,247.03181399122695 19.799431058112532,247.73427338601323 17.776637098751962,248.14095907466253 18.12160971207777,249.32403917086776 17.321900472277775,250.30377113034774 17.29053932556417,250.7843922872271 17.917762258730363,251.26501208246918 18.200012578687165,252.13382133404957 18.79587436519796,252.50352604914224 21.069557497801725,252.11533607718593 23.515726936981082,258.4741456346819 23.797977256879676,259.9159355883312 23.860699550190475,261.7828505309444 22.747378843894694,266.3483876655082 20.61482087126933,266.0896155652299 20.144403671321925,268.3261328275257 19.893514498136938,268.5294511170214" stroke="#4DD2FF" stroke-linecap="round" stroke-linejoin="round" stroke-width="0.5"><title>2025-04-29 10.1km</title><desc>1745929124000</desc></polyline><polyline fill="none" points="59.25389974727295,254.93539177483035 58.86435661878204,254.605730032461 59.084098896419164,253.39303711440152 58.53474320244277,255.2061845968201 58.11523521802155,255.26505251185154 56.86669954995159,260.16275075824524 56.72686355514452,260.1980698917105 50.36432579078246,258.9383469985769 42.25383809115738,255.2885996688783 37.0,254.17010404518078 42.21388494974235,255.30037324547447 48.61637585546123,258.30259342309 50.434243788185995,258.9854397072704 60.14285714289872,260.89267717132316 56.816758123226464,260.1745238040021 57.02651211543707,259.3150880939211 57.61582095071208,259.1738103370226 58.954251186863985,253.54609619405528 59.21394660585793,253.4519060168459 58.86435661878204,254.37025674381584" stroke="#4DD2FF" stroke-linecap="round" stroke-linejoin="round" stroke-width="0.5"><title>2025-04-22 6.3km</title><desc>1745328842000</desc></polyline><polyline fill="none" points="70.92820765898796,268.0342131406942 71.31283848983003,267.86419458061573 72.11415272054728,265.23833121078496 74.16551715112291,265.54059088959184 75.23927822028054,261.6300656154781 75.06298908952158,257.68166802675114 72.83533552812878,252.2217739715852 72.78725667425897,251.27713817849872 73.98922802036395,250.2947114945855 76.52138098940486,249.8790677603829 78.34837743546814,248.68880973692285 79.55034878157312,248.80216799593472 80.04716360458406,248.36762760062993 78.97340253536822,246.68613494095916 77.53103692014702,247.42297081029392 76.37714442785364,246.08154932482284 75.14312051259913,245.5714285714348 72.83533552812878,245.76036235882202 71.26475963596022,246.4594155819359 69.1492900668527,246.8183877634583 69.46981575910468,248.1409104403283 68.54029125149827,249.48231599376595 69.22942148993025,250.0679968539771 69.58199975150637,251.05042482243152 70.30318255908787,251.42828025124618 72.9314932358102,250.80481835214596 74.45399027416715,250.14356843377755 76.45727585093118,249.8790677603829 78.10798316617729,248.76438191789202 79.55034878157312,248.78327495801204 80.03113731992198,248.32984142782516 78.9894288200303,246.68613494095916 77.54706320475088,247.3851844316523 76.37714442785364,246.06265599036124 75.23927822028054,245.59032195944746 72.75520410510944,245.76036235882202 71.29681220522616,246.4405222886562 69.54994718229864,246.70502820747788 69.309552913066,246.89396075962577 69.43776318995515,248.19758975818695 68.54029125149827,249.38785115363135 69.1973689206643,250.0679968539771 69.53392089763656,251.06931761339365 70.22305113606853,251.46606574878388 74.4860428434913,250.1246755419561 76.39317071251571,249.91685359558323 78.12400945083937,248.76438191789202 79.61445391993038,248.76438191789202 80.01511103537632,248.29205524682766 78.95737625076436,246.64834840172261 77.46693178161513,247.36629123918829 76.36111814330798,246.06265599036124 75.38351478177356,245.64700211107265 73.23599264351651,245.66589549083437 71.13654935907107,246.4594155819359 69.51789461297449,246.70502820747788 69.29352662840392,246.87506751368346 69.40571062074741,248.36762760062993 68.5242649668944,249.44453006389085 69.24544777453411,250.10578264805372 69.5659734668443,251.06931761339365 70.09484085912118,251.40938749938505 76.53740727406694,249.6334596309316 77.3226952200639,248.99109826296626 77.59514205850428,248.02755174903723 77.37077407399192,247.3096116495435 76.58548612787854,246.34605579130584 75.35146221256582,245.6092153454083 73.21996635885444,245.68478886855883 71.07244422053918,246.5160954495077 69.27750034380006,246.8183877634583 69.46981575910468,248.10312421811977 68.54029125149827,249.40674412575027 69.32557919761166,250.37028297560755 69.02107978996355,250.95596083652345 69.8223940206808,252.59962684792117 70.4474191206391,255.35792790194682 70.71986595907947,258.4562411487568 70.65576082054758,260.4965635452827 69.08518492843723,268.18534060970705 70.22305113606853,268.7142857142899" stroke="#4DD2FF" stroke-linecap="round" stroke-linejoin="round" stroke-width="0.5"><title>2025-04-15 8.8km</title><desc>1744723077000</desc></polyline><polyline fill="none" points="111.41933969652746,254.67047192761675 110.74761383194709,254.62565332266968 111.24190267565427,253.17651053681038 110.65889532159781,255.59671981816064 110.79831012367504,255.97020510127186 110.0251916758134,258.5397562831058 109.27742137387395,258.55469539340993 109.29009544668952,259.18213655773434 108.42825848859502,261.9757088117185 100.02534814586397,260.30256006996206 90.39305273036007,255.83575051650405 88.42857142857974,255.26805192779284 90.5324675324955,255.94032631604932 100.01267407287378,260.3174989883264 108.45360663440078,261.9607700739725 108.73243623849703,260.8403601053724 109.36613988422323,260.7656657820771 109.91112501954194,259.18213655773434 111.57142857142026,252.31000547400618 111.12783601944102,254.7750486156292" stroke="#4DD2FF" stroke-linecap="round" stroke-linejoin="round" stroke-width="0.5"><title>2025-04-11 5.1km</title><desc>1744377642000</desc></polyline><polyline fill="none" points="120.80224145005923,268.7142857142899 121.5849737067474,267.8481320653227 121.79263736668508,268.48833300681144 122.57536962348968,267.8481320653227 123.45394664630294,265.19315579885733 125.51460911816685,265.66389924554096 125.88201405503787,265.53209120969404 126.84046171634691,261.40833190134435 126.90435822715517,259.1486960385373 126.50500503490912,257.13382914828253 124.2047306477325,252.12480594670342 124.14083413698245,251.2774004471139 125.25902307522483,250.33583390789863 127.83085763303097,249.92154300559196 129.61995993420715,248.69749590181164 130.78607125551207,248.81048522838682 131.3771139800665,248.32086427953618 130.11515789257828,246.34353479689162 128.78930529439822,247.11563757278782 127.22384078096366,245.7974112383963 125.81811754428782,245.7220837155619 125.06733354291646,246.07988915649184 123.54979141242802,247.73708364306367 121.37731004680973,248.05722165561747 120.11535395937972,249.14945276502112 120.05145744857145,249.5072511102626 120.70639668387594,250.0533629458514 120.97795685456367,250.93843708386703 121.69679260056,251.35272554859694 128.00657303771004,249.5825769832445 128.869175932894,248.75399057431787 128.96502069890266,247.83124194359698 128.02254716533935,246.36236661291332 126.50500503490912,245.5714285714348 124.46031669067452,245.68441994184104 122.46355072961887,246.45652566244826 120.73834493925096,246.7578342762572 120.88211208843859,248.07605328498175 120.05145744857145,249.092958221765 120.05145744857145,249.45075668391655 120.70639668387594,249.99686869807192 121.39328417449724,251.3338942762639 122.09614579274785,251.35272554859694 123.03861932648579,250.86311180179473 123.90122222166974,250.93843708386703 126.42513439641334,257.6234251322312 126.72864282253431,259.3746609541122 126.63279805640923,261.1823696443171 125.73824690579204,265.00485806130746 123.67758443398634,264.6847514366382 122.86290392186493,267.1702696607972" stroke="#4DD2FF" stroke-linecap="round" stroke-linejoin="round" stroke-width="0.5"><title>2025-04-08 5.6km</title><desc>1744119870000</desc></polyline><polyline fill="none" points="148.16149517777376,266.76239472150337 148.78805774642387,265.84798722057894 149.26543875108473,263.8081364398822 151.249553551781,264.17742168151017 152.30874265596503,260.09765212857747 152.35349712515017,258.44461270024476 152.0700521536055,256.826727932581 150.0411828837241,251.79711302826763 150.0411828837241,250.82986142531445 151.16004461346893,250.00329637160758 153.50219516770449,249.6515652776725 155.05368343286682,248.5963673969236 156.39631750847911,248.5963673969236 156.7543532620184,248.13911283960624 155.57581890677102,246.27490777606727 154.1287577363546,246.8376889321662 152.7562873478164,245.69453765358776 150.54840020119445,245.64177662989823 148.5046127748792,246.39801632167655 146.8039429457276,246.71458072197856 146.89345188409789,248.13911283960624 146.10278959514108,249.08879393310053 146.68459769460605,249.75708468635275 147.0277152917115,250.7419291739934 147.95264098822372,251.0584850545565 148.77313958999002,250.6188239416515 150.16052813490387,250.46054564784572 151.51808036695002,249.86260402602784 153.59170410613297,249.56363238442282 155.15811052761273,248.52602062630467 154.9194200252532,249.00086073328566 155.307292091602,248.42050041281618 156.4559901340981,248.50843392887327 156.70959879283328,248.06876586964063 155.78467309632106,246.57388550962787 154.47187533346005,247.2597735113959 153.42760438565165,246.04627737091505 152.32366081239888,245.57142857142026 150.44397310644854,245.62418961816002 148.60903986968333,246.36284246109426 146.84869741491275,246.64423313111183 146.8337792584789,248.20945977891097 146.147544064268,248.91292748553678 146.10278959514108,249.26466018910287 146.6995158509817,249.7922578072321 146.8636155713466,250.53089157537033 147.66919601673726,251.04089863305853 148.7283851208631,250.60123747220496 150.10085550928488,250.46054564784572 151.35398064658511,249.89777712388604 152.54743315832457,249.7394981230318 152.68169656587997,250.7419291739934 155.73991862713592,256.9498284305155 152.622023940261,258.0401430284837 152.44300606352044,260.8010680279258 151.6821800872567,263.77296637282416 151.29430802102434,264.0719116987166 150.22020076046465,268.7142857142899 146.10278959514108,267.65921243224875 146.7293521637912,264.96874435480277 146.93820635328302,264.86323488912603 146.58017059974372,266.58654752734583" stroke="#4DD2FF" stroke-linecap="round" stroke-linejoin="round" stroke-width="0.5"><title>2025-04-02 6.9km</title><desc>1743601029000</desc></polyline><polyline fill="none" points="173.50455464358674,268.7142857142899 174.05803242872935,268.2153838789818 174.82313407288166,265.47139852977125 177.37889913952677,266.0854409212625 178.4370184346335,261.2306098284753 178.11144326685462,257.6421704152017 175.6207932338002,251.9619243594061 175.604514475388,251.44378469017101 176.0928772269981,250.75292942674423 176.95565142139094,250.33073876512935 179.72304034710396,249.83178486023098 181.00906225957442,248.7954914643924 181.51370376953855,248.7187287480483 181.52998252795078,248.02786279549764 180.87883219250944,246.70369547807786 180.35791192413308,246.74207727961766 179.85327041416895,246.16634937911294 179.43002269609133,246.26230415987084 178.48585470975377,245.68657469103346 177.4765716897673,245.60981061962957 176.434731153131,245.97443966074206 175.03475793189136,247.70161959809775 172.9185193417361,248.00867203589587 171.33947977831122,249.27525768337364 172.28364776459057,251.04078611581645 173.35804581810953,251.48216545869946 177.08588148857234,250.23478620086098 179.49513772968203,249.88935653683438 181.3346374272951,248.62277530554275 182.55554430629127,248.77630078840593 182.9787920243689,248.31572393837268 181.66021259501576,246.3390679468721 180.21140309859766,247.12589483434567 179.3323501457926,246.10877648556198 178.19283705879934,245.5714285714348 176.06031971023185,245.6673836763075 174.12314746226184,246.4734044936049 172.05574514722684,246.81884085743513 172.18597521435004,248.33491466447595 171.30692226142855,249.46716380512225 172.0231876304606,250.138833584424 172.34876279818127,251.09835739721893 173.30920954293106,251.50135583979136 174.3022138045635,251.0024052511144 175.24638179084286,250.9448339384253 176.35333736118628,254.07284799806075 177.21611155563733,254.82126030426298 180.06489427312044,254.22636873037845 181.85555769567145,257.9875848753145 178.40446091775084,259.15815106392256 178.2253945755656,262.0941271175543 177.86726189107867,262.53547876402445 176.95565142139094,265.7784199930611 176.76030632085167,265.9319305240206 174.82313407288166,265.58653164120915 174.22082001256058,267.88917806893005" stroke="#4DD2FF" stroke-linecap="round" stroke-linejoin="round" stroke-width="0.5"><title>2025-03-25 6.1km</title><desc>1742909450000</desc></polyline></svg>