<?xml version="1.0" encoding="utf-8" ?>
<svg baseProfile="full" height="300mm" version="1.1" viewBox="0,0,200,300" width="200mm" xmlns="http://www.w3.org/2000/svg" xmlns:ev="http://www.w3.org/2001/xml-events" xmlns:xlink="http://www.w3.org/1999/xlink"><defs /><rect fill="#222222" height="300" width="200" x="0" y="0" /><text fill="#FFFFFF" style="font-size:12px; font-family:Arial; font-weight:bold;" x="10" y="20">Over 5km Runs</text><text fill="#FFFFFF" style="font-size:4px; font-family:Arial" x="10" y="280">Runner</text><text fill="#FFFFFF" style="font-size:9px; font-family:Arial" x="10" y="290">Elliont</text><text fill="#FFFFFF" style="font-size:4px; font-family:Arial" x="65" y="280">SPECIAL TRACKS</text><rect fill="yellow" height="2.6" width="2.6" x="65" y="283" /><text fill="#FFFFFF" style="font-size:3px; font-family:Arial" x="70" y="285.5">Over 20.0 km</text><rect fill="red" height="2.6" width="2.6" x="65" y="287" /><text fill="#FFFFFF" style="font-size:3px; font-family:Arial" x="70" y="289.5">Over 40.0 km</text><text fill="#FFFFFF" style="font-size:4px; font-family:Arial" x="120" y="280">STATISTICS</text><text fill="#FFFFFF" style="font-size:3px; font-family:Arial" x="120" y="285">Number: 33</text><text fill="#FFFFFF" style="font-size:3px; font-family:Arial" x="120" y="290">Weekly: 1.8</text><text fill="#FFFFFF" style="font-size:3px; font-family:Arial" x="141" y="285">Total: 217.6 km</text><text fill="#FFFFFF" style="font-size:3px; font-family:Arial" x="141" y="290">Avg: 6.6 km</text><text fill="#FFFFFF" style="font-size:3px; font-family:Arial" x="167" y="285">Min: 5.0 km</text><text fill="#FFFFFF" style="font-size:3px; font-family:Arial" x="167" y="290">Max: 10.1 km</text><polyline fill="none" points="41.68236710285419,55.17599757233256 36.07960237641237,54.06875130260596 29.57938880904112,51.063300490954134 28.480643031885847,50.746931459070765 18.22288665396627,48.77948679133988 14.389857492322335,48.88824112767179 13.123364268249134,48.29503407369339 12.251077544351574,47.23713853875961 11.764609948353609,45.655215668572055 15.396342173742596,42.69892339310172 18.818390090484172,39.10971671339212 17.811905409034807,40.00950362213189 15.496990641840966,42.5209495474337 11.714285714289872,45.66510277215275 11.898807905905414,46.41651949156221 12.603347182855941,47.7908050295664 13.19885061934474,48.3444681429537 14.230497417796869,48.848694111373334 14.800838737253798,48.937674873828655 16.78025861066999,48.759713261635625 18.432570962642785,48.77948679133988 22.592707645730115,49.57042444696708 22.953364656539634,49.44189754693798 24.60567700851243,49.74838446966896 25.10053197684465,49.96589069026231 27.60835630801739,50.34158202550316 29.227119170565857,50.86556997524167 30.06585640506819,50.84579689997918 30.049081660370575,51.07318700545147 30.585873490490485,51.05341397538723 30.183279617893277,51.32034951749665 30.795557799108792,51.69603524686681 35.71055799323949,53.91057216163608 36.6499436958693,54.177499302168144 36.943501727917464,54.03909273468162 38.54548984582652,54.157726948287745 38.54548984582652,54.533400935310056 41.262998485646676,55.0771368472997 41.74107870925218,55.1265672232621 41.875276666803984,54.444425657828106 42.32819477340672,54.365336449074675 42.571428571420256,53.54478184245818" stroke="#4DD2FF" stroke-linecap="round" stroke-linejoin="round" stroke-width="0.5"><title>2025-08-16 10.0km</title><desc>1755297330000</desc></polyline><polyline fill="none" points="66.7128782547079,46.067906206604675 66.15552427864168,48.90474077640101 79.0,51.42798115008918 57.69387755100615,47.20264707825845 48.14285714284051,42.85773313562095 57.402533427171875,47.18771633828874 65.44616467278684,48.8002268600103" stroke="#4DD2FF" stroke-linecap="round" stroke-linejoin="round" stroke-width="0.5"><title>2025-08-13 5.0km</title><desc>1755095249000</desc></polyline><polyline fill="none" points="115.25579907215433,52.885988118854584 109.5975043992803,51.75575515687524 103.16173412252101,48.79264712456643 101.96096624538768,48.405705122699146 91.38729803232127,46.36914187434013 87.63813789794222,46.49133692034229 86.80883058710606,46.31822722470679 85.95360742279445,45.809079203121655 85.50439929612912,45.36102665028011 85.08974564069649,44.66857757197431 84.5973444248666,43.283664027418126 85.66853303473908,42.22459864879056 86.91249400094966,41.27753963793657 85.97088465845445,41.939463612077816 84.57142857142026,43.29384729012236 85.48712206046912,45.37120968671661 86.20412733961712,46.04328763746162 86.80019196929061,46.34877601781045 87.63813789794222,46.532068566848466 90.57526795708691,46.35895894662099 91.63781794911483,46.43023941729189 102.45336746118846,48.599176323805295 109.43337066067033,51.75575515687524 115.42857142855064,53.00817464778811" stroke="#4DD2FF" stroke-linecap="round" stroke-linejoin="round" stroke-width="0.5"><title>2025-08-12 8.1km</title><desc>1754996616000</desc></polyline><polyline fill="none" points="151.85714285710128,50.7217075769513 145.63526664063102,49.477405197198095 138.6099649668904,46.23994495627994 137.4515375632327,45.85452611778601 130.84663293109043,44.46700613368739 125.86726352665573,43.60805564832117 124.11093810817692,43.5640067087661 121.88750486564822,43.75121456933266 121.0,43.59704341524048 121.8127676138538,43.75121456933266 124.01751654339023,43.58603118093015 125.885947839648,43.61906788023043 137.34877384192077,45.86553810499754 138.68470221868483,46.33905242012406 145.3456597897457,49.4113356161688 151.32463993766578,50.64462734344124" stroke="#4DD2FF" stroke-linecap="round" stroke-linejoin="round" stroke-width="0.5"><title>2025-08-10 6.4km</title><desc>1754781124000</desc></polyline><polyline fill="none" points="185.22575982077979,60.05358198146132 180.08940768314642,59.02308375987195 174.26612699215184,56.33636857827514 173.15767409923137,55.96831874871714 163.56409237108892,54.09123967533378 162.70543167938013,54.036030835908605 160.0201655162382,54.19245578729169 159.4347150446556,54.05443378641212 158.6150843843934,53.585157296482066 158.0452459253138,52.94104806559335 157.50663149144384,51.68042007240001 157.42857142857974,51.20192860908719 160.8397961765295,48.4045396549991 163.19721007553744,45.86472470063745 165.42192186767352,43.92300305500976 168.22427812512615,42.09167016637366 168.53651837666985,41.94442559608433 169.32492501175147,41.91681721056375 169.62935925700003,41.71435544101405 170.48801994867972,40.766459790596855 171.37009865924483,38.87063656700775 172.1663113006798,38.11597664342844 175.73365617435775,36.19248364971281 180.1440497271542,34.23213230424881 180.1440497271542,34.903994934487855 180.9246503559698,35.41018927492405 181.1588305446203,35.704700949121616 181.28372664525523,36.18328022860078 184.03924686496612,41.088561447868415 185.1711177767429,43.57330436510529 185.88146434898954,44.557978553122666 185.88927035525558,44.843255845793465 186.20931661309442,45.3309857591521 186.78696107844007,47.01501267508138 187.23190343682654,47.80640170437255 187.60659173864406,49.44436939401203 187.7314878392499,51.10070891373471 187.3802175563178,53.47473891997652 187.47388963177218,53.61276186804025 188.28571428571013,53.86120260628377 188.19204221028485,54.59731902235217" stroke="#4DD2FF" stroke-linecap="round" stroke-linejoin="round" stroke-width="0.5"><title>2025-08-08 10.0km</title><desc>1754654808000</desc></polyline><polyline fill="none" points="42.571428571420256,85.7486495978228 34.338791643152945,84.0666668209742 24.898701298690867,79.71066308543959 15.153698475449346,77.61167927077622 11.714285714260768,77.10849325933668 24.679164313944057,79.71066308543959 34.58272162621142,84.21042687026784 42.36408808582928,85.70552210199821" stroke="#4DD2FF" stroke-linecap="round" stroke-linejoin="round" stroke-width="0.5"><title>2025-08-07 5.0km</title><desc>1754573743000</desc></polyline><polyline fill="none" points="78.99999999994179,85.76402904756833 70.84264358767541,84.13291047577513 61.51995054510189,79.85470502798853 60.33033606829122,79.49698923110554 48.14285714284051,77.09311380957661 51.383949645853136,77.77993984711065 51.65100595698459,77.6654690902069 52.367202427762095,77.96595461432298 60.852309767273255,79.69731019737083 70.9518938967376,84.2473755976389 78.45374845445622,85.74972107792564" stroke="#4DD2FF" stroke-linecap="round" stroke-linejoin="round" stroke-width="0.5"><title>2025-08-04 5.0km</title><desc>1754309955000</desc></polyline><polyline fill="none" points="115.42857142852154,85.01945092346432 109.26088652020553,83.78391574908892 102.14792668656446,80.51850024252053 101.08098271151539,80.16547604445077 89.79383855452761,77.93698239562946 87.80969712726073,77.83769193368062 85.3950344469049,78.02524050230568 84.57142857142026,77.84872421202454 84.74925256730057,77.98111145859002 85.88171064603375,78.05833727250138 89.14805667492328,77.88182103989675 93.63109320163494,78.7643991266159 94.351748342684,78.77543130404229 95.59651631349698,79.15052462127642 100.95931366173318,80.1765080692785 102.44741973216878,80.70604384726903 109.14857662812574,83.77288411717745 114.79214870661963,84.90913589558477" stroke="#4DD2FF" stroke-linecap="round" stroke-linejoin="round" stroke-width="0.5"><title>2025-08-03 6.5km</title><desc>1754227262000</desc></polyline><polyline fill="none" points="148.28305094345706,85.04269579837273 140.09446364821633,83.41241729656758 129.77610925369663,78.8244462274888 121.0,77.0353830003587 130.53499178332277,79.02643571898807 140.4127047090442,83.54226322226168 151.8571428571595,85.82175985677168 148.5400918003288,85.07155010444694 148.5400918003288,84.85514265569509" stroke="#4DD2FF" stroke-linecap="round" stroke-linejoin="round" stroke-width="0.5"><title>2025-08-01 5.0km</title><desc>1754057984000</desc></polyline><polyline fill="none" points="185.3335502766131,94.30899993523053 180.0696387894568,93.26877437008079 174.27465017899522,90.59911035387631 173.03286690532696,90.20325644221884 163.66091767002945,88.38966946863366 161.95053693460068,88.33443270647695 160.247966156865,88.48173065865558 159.43573055649176,88.33443270647695 158.7640741946234,87.95698053226079 158.27204685975448,87.48746449955797 157.7097299056477,86.41953596665553 157.42857142857974,85.4896906504946 160.8727627725748,82.63564608316665 163.26260982753593,80.0853376131854 165.4493979824474,78.17025393612857 167.0972990563314,77.22190316111664 168.38594207615824,76.27354174125503 169.29970712662907,76.181467250055 169.6277253498556,75.97890301621374 170.62739993495052,74.82796065010916 171.40839570452226,73.09691380585718 172.17377155876602,72.40632670947525 175.82883176053292,70.39898816198547 180.1086885779223,68.5481429219144 180.17897819721838,69.1466794015505 180.80377481289906,69.57946467553847 181.45200130168814,70.73968659746606 181.85030914418167,71.8538529676589 182.83436381389038,73.88878006175219 185.39602993818698,78.68585765763419 185.73966807682882,79.71705566165474 186.75496257730993,81.84386180063302 187.4422388545645,84.20998581314052 187.4890986007522,85.68302566759667 187.3953791083768,86.21699627426278 187.63748779695015,86.39191694628244 187.410999023763,87.78206309946108 188.28571428573923,88.11348529686074 188.25447445490863,88.56458564395871" stroke="#4DD2FF" stroke-linecap="round" stroke-linejoin="round" stroke-width="0.5"><title>2025-07-28 10.0km</title><desc>1753704756000</desc></polyline><polyline fill="none" points="39.541592411580496,119.49785745794361 31.34613394649932,117.85859811390401 21.958608795597684,113.5554472040094 20.431273354333825,113.04315815577866 11.714285714260768,111.3013607840112 21.387410175288096,113.37980546463223 29.47111238859361,117.18532509106444 31.56964645005064,117.9756887301337 42.571428571420256,120.127210644554 39.66576602467103,119.46858514500491 39.81477436039131,118.51723150316684" stroke="#4DD2FF" stroke-linecap="round" stroke-linejoin="round" stroke-width="0.5"><title>2025-07-22 5.0km</title><desc>1753194638000</desc></polyline><polyline fill="none" points="65.694458566315,117.34307804885611 75.91611591249239,119.37084833435802 78.99999999994179,119.5542084944318 76.30960854090517,119.40320603432338 59.46263345197076,116.10266618693277 52.114387391950004,112.76965649383783 48.14285714284051,111.87436293414066 52.06863243517,112.79122973277117 58.95932892727433,115.97323101063375 61.79613624810008,116.57726038624241" stroke="#4DD2FF" stroke-linecap="round" stroke-linejoin="round" stroke-width="0.5"><title>2025-07-19 6.4km</title><desc>1752877000000</desc></polyline><polyline fill="none" points="112.60268197843106,128.67875707601343 107.35123741684947,127.63323908875464 101.38547079986893,124.90372883603413 100.36501072064857,124.57988281700091 90.67063996804063,122.7108045261557 87.31097139950725,122.82184002900613 86.58094995821011,122.68304562777485 85.89802667440381,122.2851670873788 85.23080277646659,121.58193534194288 84.64992550059105,120.27723997304565 84.57142857142026,119.80532394702459 88.00174437620444,116.96451913848432 90.27030562926666,114.50302836752962 92.50746811064892,112.55044171329791 95.23916124578682,110.72737004502414 95.71799251370248,110.49601297381014 96.44801395502873,110.4589957839271 96.96609368754434,110.13509468406846 97.81386052258313,109.12636620063859 98.57528073558933,107.39576740142365 99.38379910605727,106.64613879140961 103.35574372208794,104.48050785073428 107.4140349602385,102.74981435255904 107.42188465312938,103.41618180149817 108.04986008649576,103.83265880107501 108.4658938110806,104.60082212995621 109.32151033906848,106.56284631509334 111.95900715922471,111.52323355633416 112.6497801359219,113.17971624869824 112.83817276594345,113.35554212366696 114.0234763964254,116.39079458307242 114.29036595558864,116.77019351343188 114.71424937312258,118.3525463877886 114.79274630232248,119.39817860209587 114.66715121563175,120.98973567232315 114.28251626269775,122.47948009573884 115.42857142857974,122.73856341547071" stroke="#4DD2FF" stroke-linecap="round" stroke-linejoin="round" stroke-width="0.5"><title>2025-07-17 10.0km</title><desc>1752756134000</desc></polyline><polyline fill="none" points="151.8571428571595,120.06858522719995 143.67652537109097,118.43037781595194 133.3014054298401,113.81742136590765 121.0,111.35998620136525 133.8500310436939,114.04735447830171 143.44488344533602,118.41600748548808 151.479200767586,120.05421507515712" stroke="#4DD2FF" stroke-linecap="round" stroke-linejoin="round" stroke-width="0.5"><title>2025-07-14 5.0km</title><desc>1752500928000</desc></polyline><polyline fill="none" points="188.28571428568102,120.03684400994098 180.10700323909987,118.4301468997437 171.65084329270758,114.50574162849807 169.6483860158478,113.78056687192293 157.42857142857974,111.39172741863877 170.44454372831387,113.99385398316372 180.25175918685272,118.48702147125732 187.4171785993385,119.92309619228763" stroke="#4DD2FF" stroke-linecap="round" stroke-linejoin="round" stroke-width="0.5"><title>2025-06-21 5.0km</title><desc>1750468889000</desc></polyline><polyline fill="none" points="32.82632217448554,151.89502913791512 40.850454113213345,153.49776551027026 42.571428571420256,153.58958793339116 41.091248893382726,153.49776551027026 27.9750155742513,150.93504078497062 26.56565789040178,150.38408551766042 22.351749237655895,148.38057843456772 21.60811829895829,148.13848444902396 13.010328207485145,146.4688499334443 11.714285714289872,146.41041206660884 12.861602019751444,146.43545687215374 16.211482343642274,147.05322615118348 22.23843404703075,148.35553426459956 26.72146627755137,150.47591167056817 27.868782583012944,150.91834522899444 29.115249680296984,151.1687781868386" stroke="#4DD2FF" stroke-linecap="round" stroke-linejoin="round" stroke-width="0.5"><title>2025-06-17 8.1km</title><desc>1750165544000</desc></polyline><polyline fill="none" points="79.0,154.3038875000493 71.22008617827669,152.75678069112473 61.07756049052114,148.22787058810354 48.14285714284051,145.69611249996524 61.10142525687115,148.2841313152021 71.0530328140012,152.74271599877102 77.61584355315426,154.07885493413778" stroke="#4DD2FF" stroke-linecap="round" stroke-linejoin="round" stroke-width="0.5"><title>2025-06-15 5.0km</title><desc>1749939796000</desc></polyline><polyline fill="none" points="105.89365518494742,151.7687179007553 113.1761773021135,153.2238446634874 115.42857142855064,153.36316374838498 113.65554981303285,153.25480448373128 101.4676678928663,150.8863392908388 100.27908673576894,150.4374056181623 96.3062049675791,148.5487570401092 95.41969415984931,148.2546187282278 87.40826315630693,146.70650228451996 86.43638464112883,146.6368362516223 84.57142857142026,146.78390890767332 87.21782750129933,146.69102094978734 95.07822333017248,148.20817572560918 96.0304016051814,148.4713523392129 98.30249597178772,149.54727012324292" stroke="#4DD2FF" stroke-linecap="round" stroke-linejoin="round" stroke-width="0.5"><title>2025-06-11 8.1km</title><desc>1749642919000</desc></polyline><polyline fill="none" points="151.8571428571595,154.29441378919 143.84074669028632,152.7431077760557 133.76641001494136,148.24421524399077 121.0,145.70558621081 133.9099872597144,148.30062865721993 143.92450008302694,152.81362208888459 150.5290533429361,154.13928402413148" stroke="#4DD2FF" stroke-linecap="round" stroke-linejoin="round" stroke-width="0.5"><title>2025-06-08 5.0km</title><desc>1749387304000</desc></polyline><polyline fill="none" points="169.3830169828143,158.2929684043047 172.70609390595928,156.30879909265786 179.6975024973508,155.0368912530248 183.23636363632977,152.39131184856524 187.0773226772435,152.49306517961668 188.11308691301383,151.6281611577724 181.2943056942895,140.53689698857488 176.6765234763734,141.45269942216692 172.27452547452413,144.04746322892606 169.81458541448228,144.04746322892606 165.88731268723495,145.8790525283839 159.45694305677898,147.20186255380395 159.67272727261297,151.37377731702873 157.42857142863795,154.17199194300338 159.3274725272786,156.25792284551426 160.14745254744776,158.85260437821853 161.35584415588528,159.61574326141272 168.86513486504555,158.0385881945549 172.83556443545967,156.25792284551426 178.61858141841367,155.4947784744436 183.45214785216376,152.39131184856524 186.8615384614095,152.54394183700788 188.24255744251423,151.37377731702873 181.2943056942895,140.38426307501504 176.15864135837182,141.50357728241943 172.3608391606249,143.99658564585843 168.90829170821235,144.35272861117846 164.67892107879743,146.23519405775005 159.58641358627938,147.10010806948412 159.71588411577977,151.6281611577724 157.42857142863795,154.17199194300338 159.45694305677898,156.35967533427174 160.4927072925493,159.00523225445068 161.96003995998763,159.71749501832528 173.78501498466358,156.1052940710797 178.74805194791406,155.54565480459132 183.02057942049578,152.64569513499737 186.9910089909099,152.59481848881114 188.28571428568102,151.32290053216275 180.81958041945472,140.23162911151303 175.72707292693667,141.80884432786843 172.18821178819053,143.99658564585843 159.80219780188054,146.84572176175425 159.7590409591794,151.37377731702873 157.47172827157192,154.0702389778162 159.41378621361218,156.25792284551426 160.14745254744776,158.69997645184048 162.34845154825598,159.76837088848697 179.7838161836844,154.477250705997 181.94165834155865,151.5772844007879 181.2943056942895,148.67730008420767 178.4459540459793,145.11589119344717 176.02917082910426,143.89483046313399 173.9576423575636,143.7930752580287 171.58401598385535,144.75974881029106 167.74305694317445,149.38957860253868 161.61478521488607,150.4071174581768 157.9464535464067,153.3070910310489 157.8169830169063,154.52812714700121 159.88851148844697,157.0210659694858" stroke="#4DD2FF" stroke-linecap="round" stroke-linejoin="round" stroke-width="0.5"><title>2025-06-04 6.4km</title><desc>1749041988000</desc></polyline><polyline fill="none" points="42.571428571420256,188.6083344052895 34.66271533817053,187.0288230002916 25.653243228269275,182.86841057889978 24.289259402896278,182.41710356803378 11.714285714260768,179.9630941661453 24.648202514857985,182.55813717786805 34.48324378224788,187.00061726440617 41.05190273083281,188.35448565729894" stroke="#4DD2FF" stroke-linecap="round" stroke-linejoin="round" stroke-width="0.5"><title>2025-05-28 5.0km</title><desc>1748436903000</desc></polyline><polyline fill="none" points="78.99999999994179,188.5948230346694 70.43128390592756,186.8395724336151 60.507685352582484,182.35062874708092 48.14285714284051,179.96221833310847 60.10488245927263,182.26430141204037 61.59403254970675,182.73910105660616 71.15144665463595,187.11293266687426 78.85352622059872,188.6092102383118" stroke="#4DD2FF" stroke-linecap="round" stroke-linejoin="round" stroke-width="0.5"><title>2025-05-27 5.0km</title><desc>1748351986000</desc></polyline><polyline fill="none" points="107.42258863465395,190.65112630651856 107.4638252381701,188.8037984491093 108.43288542097434,186.61007036053343 109.07205277564935,182.54005194648926 109.03081617201678,182.91530597805104 108.1029925927287,183.0307685891603 103.5875845067203,186.23482454268378 101.87626546039246,186.63893538895354 101.1958615022013,185.51319562511344 101.97935696912464,184.2431212374213 103.42263809265569,183.11736549566558 103.19583677325863,181.18335733370623 103.8762407314498,179.94211654034734 102.96903545386158,179.42252466084028 99.64948887005448,179.4802571709588 98.78352019598242,178.21013738887268 99.07217642071191,176.70907441528107 99.7113437752705,176.91114136231772 99.64948887005448,175.9296710678318 100.59793075115886,176.50700722633337 102.32986809918657,176.44927369934157 103.71129431726877,177.37300776148913 105.58755977777764,177.43074097261706 106.35043694300111,177.05547474787454 108.22670240339357,174.42858781386167 108.30917561042588,170.04072945012012 107.62877165223472,169.26129530987237 106.55661996058188,168.8571428571595 105.23704864771571,169.23242730964557 104.0618054473307,170.53148243261967 103.15460016962606,170.84902771975612 101.29895301104989,170.5026146495802 99.3402143435087,169.4345032076817 97.54642209026497,170.04072945012012 96.63921681256033,171.42638125672238 96.6804534161929,172.89862383702712 97.46394888311625,173.99558054823137 99.23712283477653,174.83272692620812 99.64948887005448,175.84307047376933 98.84537510119844,177.71940673155768 99.42268755065743,179.45139091843157 99.56701566302218,181.8472730811627 98.80413849768229,184.44517916567565 99.40206924884114,185.16681264889485 101.15462489868514,185.59979125806422 101.8350288568763,186.63893538895354 100.26803792291321,189.17903855629265 98.3299175570719,189.9583807290619 95.09284418041352,192.32524971527164 92.74235777952708,193.33548856743437 92.20628193358425,194.720949162147 90.88671062083449,196.16412519050937 92.02071721781977,199.3967947235651 93.05163230584003,199.62769732151355 94.41244022222236,198.79067390142882 96.00004945800174,199.45452040275268 97.15467435668688,199.3102061679674 98.0618796342751,198.357729124662 98.7216652907664,195.96208128922444 100.28865622461308,195.09617611640715 103.8762407314498,196.22185197504587 105.23704864771571,195.55799276131438 107.36073372932151,195.44253871860565 107.48444353986997,189.03471553695272 109.11328937916551,183.31942477138364 108.86586975795217,182.91530597805104 108.24732070509344,182.97303729350097 103.60820280842017,186.26368963519053 101.9381203657249,186.61007036053343 100.10309150873218,189.26563230877218 98.14435284130741,190.04497408172756 95.07222587871365,192.32524971527164 92.86606759007555,193.19116910157027 92.20628193358425,194.8075400718226 90.88671062083449,196.2795787397481 91.91762570897117,199.2524804395216 92.59802966716234,199.71428571428987 94.2887304116739,198.79067390142882 96.2268507773988,199.48338323483767 97.52580378844868,198.96385150129208" stroke="#4DD2FF" stroke-linecap="round" stroke-linejoin="round" stroke-width="0.5"><title>2025-05-23 6.4km</title><desc>1747958832000</desc></polyline><polyline fill="none" points="139.23209162871353,185.72675422931206 140.06718275218736,186.52009834515047 142.15491056069732,186.85413720172073 143.1987744650105,188.1902880580601 142.93035231810063,193.45131098118145 142.42333270749077,194.41164420102723 140.6040270458907,194.95443956766394 138.81454606703483,194.3281371145422 137.14436382008716,194.7039187791088 134.31101893715095,193.03377362062747 132.61101200722624,193.70183305487444 131.3583753221901,193.49306467805582 131.7162715177983,192.28220457227144 130.8215310286032,189.94397496087186 131.08995317528024,188.27379724377533 130.13556332001463,186.6871178304864 130.55310888169333,184.18181355339766 136.5776948435232,183.931281711848 138.63559796917252,184.6828764652746 139.70928655634634,186.39483365601336 142.00578714581206,186.81238236959325 143.01982636703178,187.77274170081364 142.93035231810063,193.57657205013675 142.48298207344487,194.41164420102723 140.72332577768248,194.91268612079148 139.02331884775776,194.3698906613572 137.08471445413306,194.6621652894246 134.25136957119685,193.07552738877712 130.64258293062449,193.82709399529267 128.70397853688337,195.41372701233195 129.33029687951785,195.8730135931546 129.80749180715065,198.37819791736547 132.73031073913444,199.71428571428987 133.98294742428698,198.83747892206884 134.81803854787722,197.1256089679664 134.6987398158526,195.78950700630958 133.14785630081315,193.32604984789214 134.6987398158526,193.07552738877712 137.11453913722653,194.6621652894246 139.02331884775776,194.11936927310308 138.78472138405778,193.49306467805582 136.84611699043307,193.53481836766878 135.80225308600347,192.19869675743394 136.78646762436256,188.27379724377533 134.22154488810338,184.3488346383092 134.40049298596568,181.2171702843043 135.08646069455426,179.88098126805562 136.4583961114986,179.0876155799051 139.05314353085123,179.92273728561122 141.17069602233823,179.3799085018254 138.78472138405778,181.71823928026424 136.30927269672975,181.59297212770616 134.81803854787722,180.4655648625776 132.5215379584115,179.9644932958472 132.58118732424919,174.87020732970268 133.59522654558532,172.74059726567066 133.654875911423,169.56702623360616 134.2811942541739,168.94065865554148 136.18997396482155,168.85714285714494 141.6777156330645,169.65054178930586 142.81105358619243,170.652726228931 143.1987744650105,172.74059726567066 144.15316432039253,173.7845260886388 143.52684597775806,174.6196659333218 143.91456685657613,175.1625053005264 142.03561182878911,176.2899370528612 141.82683904783335,178.92059089595568 139.05314353085123,181.6347278523026 136.8759416732937,181.71823928026424 134.72856449871324,180.34029706724687 132.6408366902033,180.0897612838744 132.55136264138855,175.1625053005264 133.83382400940172,170.9032716959773 135.1759347434854,170.40218050465046 135.20575942646246,169.14944802684477 141.3198194372235,169.52526844514068" stroke="#4DD2FF" stroke-linecap="round" stroke-linejoin="round" stroke-width="0.5"><title>2025-05-20 5.0km</title><desc>1747754393000</desc></polyline><polyline fill="none" points="184.19725044840015,186.44204555274337 187.08069336530752,186.79718886243063 188.28571428568102,185.52881865599193 181.14166168565862,174.77290042172535 176.1494321578648,175.99056401493726 172.27615062776022,178.27367466903524 169.86610878654756,178.37514599383576 164.01315003004856,180.60750954423565 159.32217573211528,181.26706945401384 159.70950388535857,185.5795535305224 157.42857142863795,188.52216679850244 159.32217573211528,190.19640397818875 160.01075911545195,192.53017909338814 161.04363418999128,193.54486027779058 162.9802749552764,193.84926420194097 172.66347878077067,190.70374738963437 178.43036461458541,189.89199766609818 183.42259414237924,186.59424986163503 187.08069336530752,186.6957193731796 188.19964136299677,185.73175812119734 181.31380753149278,174.82363646826707 179.42020322778262,174.87437250930816 172.44829647336155,178.17220332223224 169.2635983263608,178.52735293962178 165.2612074117642,180.3538324070105 158.97788404067978,181.5207460935926 159.88164973119274,184.86926478313399 157.42857142863795,188.47143224457977 159.23610280943103,189.99346645880723 159.79557680827565,192.12430600062362 161.08667065156624,193.49412627113634 162.9802749552764,193.7477962494595 173.48117154813372,190.2978727047157 179.11894799768925,189.5875911549083 183.20741183497012,186.6957193731796 187.12372982664965,186.6957193731796 188.19964136299677,185.63028839966864 181.31380753149278,174.87437250930816 179.80753138079308,174.7221643695084 175.9342498506885,175.99056401493726 172.5774058578536,178.17220332223224 169.8230723249726,178.27367466903524 164.65869695181027,180.45530327846063 159.5373580395244,181.36854012633557 159.79557680827565,185.37661399904755 157.51464435155503,188.36996312002884 159.23610280943103,190.094935229572 160.44112372980453,193.0882540185703 163.15242080111057,193.69706226477865 171.88882247474976,190.75448170027812" stroke="#4DD2FF" stroke-linecap="round" stroke-linejoin="round" stroke-width="0.5"><title>2025-05-14 5.0km</title><desc>1747227249000</desc></polyline><polyline fill="none" points="22.641612571198493,233.66539895212918 23.27016474120319,233.09179596875038 24.182579181389883,229.69794763522805 26.91982250183355,230.1281566673424 28.399961482500657,224.2007579755009 28.11609921231866,220.40044634457445 25.257200633059256,213.25377007899806 25.378855891758576,211.6523090198316 27.36589178373106,210.57669428296504 30.326169745181687,210.07473893417045 32.23210213123821,208.76008852993255 33.79334461770486,208.90350532054435 34.38134503469337,208.28203188408224 31.238584185251966,203.26237420194957 30.447825003764592,203.14285714285506 28.278306223917753,203.93166852966533 26.91982250183355,204.86389651150967 25.743821667856537,204.8877997410309 23.351268247002736,205.84392678485892 20.89788719662465,206.20247335192107 21.06009420834016,208.06690605352924 19.90436925087124,209.52497699628293 20.107128015253693,210.0508362698165 20.796507814433426,210.50498644627805 21.485887613729574,212.1064558809303 22.357750301016495,212.20206562662497 30.1436868570745,209.85961486167798 31.01554954436142,209.09472756204195 31.339963567559607,208.06690605352924 30.954721914953552,206.72834059008164 29.596238192985766,205.27025105862413 27.93361632421147,204.7443803250062 26.473753219936043,205.15073509352806 24.52726908097975,207.34981842820707 21.74947400763631,207.82787710556295 20.147679768153466,209.26204688670987 20.18823152105324,210.0508362698165 22.357750301016495,211.72401648151572 24.831407227553427,211.46108900764375 30.082859227783047,209.85961486167798 31.218308308860287,208.80789413720777 31.279135938268155,207.66055668699846 30.447825003764592,206.15466717684467 28.481064988300204,204.81609004471102 25.743821667856537,204.91170296791825 23.168785358895548,205.93953926005634 20.857335443841293,206.39369794800587 21.039818331832066,208.16251755980193 19.924645127146505,209.62058786708803 20.81678369094152,210.50498644627805 21.262852972722612,211.79572391965485 22.296922671608627,212.22596805657668 23.513475258485414,211.60450403246796 25.764097544248216,211.22206375797396 25.236924756667577,212.20206562662497 25.29775238595903,212.96694209202542 27.852512818411924,219.37267780273396 28.460789111908525,222.33646238181973 28.23775447101798,225.65872169645445 27.223960648523644,229.45894225298252 24.60837258666288,229.0765330997965 23.574302887893282,232.5659919166792 22.783543706405908,232.90059464098886 22.45912968320772,234.0 22.033336277818307,233.83269953986746" stroke="#4DD2FF" stroke-linecap="round" stroke-linejoin="round" stroke-width="0.5"><title>2025-05-06 7.1km</title><desc>1746539597000</desc></polyline><polyline fill="none" points="59.93353555933572,234.0 59.72446124826092,233.75355387032323 60.70711051020771,230.4757948192273 63.19509481161367,231.06727364783 63.63415086490568,230.3032798696222 64.93041159329005,224.85666882561054 64.88859673112165,222.14563707810885 61.18798142566811,211.89271415969415 60.18442473257892,211.67089098028373 58.76271941745654,212.3610068243288 57.88460731098894,212.18847806066333 56.23292025376577,209.6251780717139 57.36192153347656,208.39281196848606 57.09012492909096,206.421012237799 58.55364510638174,206.3470694134885 63.445983984856866,204.96679892348766 65.03494874876924,203.98088627388643 67.6483776367968,203.19215306005208 71.01447404478677,208.34351718463586 70.59632542263716,209.00899585935986 68.7564714854816,208.83646453908295 66.79117296158802,210.26600579208753 63.80141031369567,210.7096546888497 62.045186100760475,211.5476557865186 59.808090972714126,211.8434201386699 58.449107950902544,212.4103007325466 57.57099584455136,212.04059615853475 57.06921749794856,210.66036040995095 56.27473511593416,210.06882822529587 56.27473511593416,209.6005308154563 57.36192153347656,208.1463379421184 57.06921749794856,206.44565984049405 59.36903491942212,206.149888430562 63.38326169154607,204.86820785190503 67.18841415259521,203.14285714285506 67.77382222353481,203.3400407471927 70.99356661364436,208.34351718463586 70.67995514709037,208.95970120988204 68.90282350312918,208.83646453908295 66.33120947727002,210.43853602197487 64.24046636675484,210.58641897141933 58.55364510638174,212.3610068243288 57.675533000030555,212.11453712169896 57.11103236011695,210.66036040995095 56.27473511593416,210.01953380681516 57.34101410233416,208.195632768824 57.09012492909096,206.421012237799 59.28540519508533,206.149888430562 63.216002242756076,204.9421511596738 64.61680012673605,204.07947773222986 67.23022901476361,203.14285714285506 67.71109993022401,203.3400407471927 70.97265918250196,208.31886978875264 70.65904771594796,208.9350538809813 68.7564714854816,208.81181719688175 66.72845066839363,210.29065297587658 63.780502882553264,210.7096546888497 61.6688523410121,211.62159691084526 59.93353555933572,211.76947908685543 58.59545996855013,212.3856537797983 57.61281070660334,212.01594916547765 57.09012492909096,210.66036040995095 56.25382768479176,210.04418101740885 56.23292025376577,209.6251780717139 57.06921749794856,208.81181719688175 56.08656823600177,209.7237670699251 57.00649520463776,210.8082432144438 57.42464382678736,211.94200817005185 58.32366336428095,212.48424157497357 63.529613709193654,210.8575374610955 66.64482094382402,210.48783034921507 68.65193432988599,208.95970120988204 70.51269569818396,208.95970120988204 71.05628890695516,208.39281196848606 67.56474791257642,203.14285714285506 64.90950416214764,203.9315905286494 63.25781710492447,204.99144668465306 61.77338949649129,205.09003770258278 59.49447950604372,206.02665022897418 56.79742089356296,206.56889781383506 57.25738437799737,208.1463379421184 56.191105391597375,209.4526472214202 56.149290529312566,210.0934754305781 56.985587773495354,210.73430182423908 57.36192153347656,211.89271415969415 58.156403915490955,212.3856537797983 61.18798142566811,211.86806715052808 64.44954067794606,220.34647989386576 64.82587443769444,222.26886649872176 64.90950416214764,224.75808642219636 63.42507655371446,230.8454692683008 60.581665923586115,230.50043980126793 59.95444299036171,233.48246281764295 59.61992409278173,233.75355387032323" stroke="#4DD2FF" stroke-linecap="round" stroke-linejoin="round" stroke-width="0.5"><title>2025-04-29 10.1km</title><desc>1745929124000</desc></polyline><polyline fill="none" points="114.24329490109812,215.62814141405397 113.72390406316845,215.18859242422332 114.0168937665876,213.57166853347735 113.28441950801061,215.9891985100403 112.72507552872412,216.0676890634204 111.06036130461143,222.5979533919308 110.87391331157414,222.64504556989414 102.39052962575806,220.96541504572087 91.57654602627736,216.09908527278458 84.57142857142026,214.60775777451636 91.52327517105732,216.1147833749128 100.05992971203523,220.11774361172866 102.48375362227671,221.0282053239789 115.42857142857974,223.5711886093777 110.9937727357028,222.61365078628296 111.27344472531695,221.46773650616524 112.05918983905576,221.27936616363877 113.8437634872389,213.77574730635388 114.19002404587809,213.65016040341288 113.72390406316845,214.87462803936796" stroke="#4DD2FF" stroke-linecap="round" stroke-linejoin="round" stroke-width="0.5"><title>2025-04-22 6.3km</title><desc>1745328842000</desc></polyline><polyline fill="none" points="131.95189592626411,233.0932365685585 132.46473703405354,232.866545155106 133.5331560083432,229.3653939953365 136.26830858248286,229.76840690041718 137.69999000802636,224.554373201594 137.4649378337199,219.28984308328654 134.49473308515735,212.0099843430653 134.43062794662546,210.7504699522833 136.03325640817638,209.4405677070754 139.40946036681999,208.88637606146222 141.8454556282377,207.29936536352034 143.4480840896722,207.4505097088695 144.11050385376438,206.87112251512008 142.67882242810447,204.62913230223057 140.7556682744762,205.61158012801025 139.21714495145716,203.8230181473773 137.571779731079,203.14285714286962 134.49473308515735,203.39476885939075 132.40063189552166,204.32683982353774 129.5800058033783,204.8054693988961 130.00737339316402,206.56883296805609 128.76800738298334,208.3573737059778 129.68684770085383,209.13828151958296 130.1569520495832,210.44818547753675 131.11852912639733,210.95199271594174 134.6229433621047,210.12071018382267 136.65293941320851,209.23904362598842 139.32398684881628,208.88637606146222 141.5249299359275,207.4001282714744 143.4480840896722,207.4253189916344 144.08913547417615,206.82074095138523 142.7001908076927,204.62913230223057 140.77703665394802,205.56119828982628 139.21714495145716,203.79782703478122 137.69999000802636,203.1680483268865 134.38789118779823,203.39476885939075 132.44336865458172,204.3016487658315 130.11421529063955,204.65432332425553 129.79368959832937,204.9062333937909 129.96463663422037,206.64440539186762 128.76800738298334,208.23142058579833 129.64411094191018,209.13828151958296 130.09284691116773,210.4733758654911 131.01168722903822,211.00237337933504 136.69567617226858,209.2138531035598 139.2385133310454,208.93675717507722 141.54629831539933,207.4001282714744 143.5335576075595,207.4001282714744 144.06776709482074,206.7703593767219 142.65745404863264,204.57875024991517 140.67019475647248,205.53600736653607 139.19577657198533,203.79782703478122 137.89230542327277,203.2436218623916 135.02894257230218,203.26881303539267 132.22968485974707,204.32683982353774 130.0714785315795,204.65432332425553 129.77232121874113,204.8810423991963 129.92189987527672,206.87112251512008 128.74663900351152,208.3069924661395 129.70821608032566,209.18866257836635 130.13558366999496,210.4733758654911 130.8407401930308,210.9268023801269 139.43082874640822,208.55889855552232 140.47787934110966,207.70241673156852 140.8411417923635,206.41768804633466 140.54198447964154,205.46043458035274 139.4949338848237,204.175693436031 137.84956866444554,203.1932395081676 135.00757419283036,203.29400420570164 132.14421134174336,204.40241298030014 129.75095283938572,204.8054693988961 130.00737339316402,206.51845133844472 128.76800738298334,208.25661121528537 129.8150579778012,209.54132968177146 129.4090587676037,210.32223349632113 130.47747774189338,212.51378817818477 131.31084454176016,216.19152291689534 131.674106993014,220.32260724596563 131.58863347501028,223.04303710800014 129.49453228560742,233.2947398605611 131.01168722903822,234.0" stroke="#4DD2FF" stroke-linecap="round" stroke-linejoin="round" stroke-width="0.5"><title>2025-04-15 8.8km</title><desc>1744723077000</desc></polyline><polyline fill="none" points="188.0829291192349,215.2749149510928 187.18729463312775,215.21515681115852 187.84634642471792,213.2829664300225 187.06900328601478,216.5099121384992 187.2548896887456,217.00789251597598 186.22406509157736,220.4339607584261 185.22703802230535,220.45387957216008 185.24393678613706,221.29046779124474 184.09482084197225,225.01523079657636 172.89094038499752,222.78436580755806 160.04787983099231,216.82861973629042 157.42857142857974,216.07168828466092 160.23376623383956,216.96805413566472 172.8740416210494,222.80428436538205 184.12861836969387,224.99531247955747 184.50039117515553,223.5014325214288 185.34532936953474,223.40184009038785 186.07197621656815,221.29046779124474 188.28571428573923,212.12762634629325 187.69425754982512,215.4143505351094" stroke="#4DD2FF" stroke-linecap="round" stroke-linejoin="round" stroke-width="0.5"><title>2025-04-11 5.1km</title><desc>1744377642000</desc></polyline><polyline fill="none" points="20.593464790377766,268.2857142857101 21.637107799295336,267.13084275375877 21.913992679328658,267.9844440090819 22.957635688362643,267.13084275375877 24.129071718780324,263.59087439847644 26.876621681265533,264.2185323273734 27.36649493034929,264.0427882795775 28.644425145466812,258.54444253513066 28.729620493249968,255.53159471804975 28.197149570216425,252.84510553102882 25.13011705398094,246.1664079289185 25.0449217063142,245.03653392948036 26.53584029059857,243.78111187717877 29.964953034417704,243.2287240074511 32.350422769319266,241.5966612024058 33.905237864353694,241.7473136378394 34.69329483038746,241.09448570603854 33.010686713736504,238.45804639584094 31.242883249535225,239.48751676372194 29.15559723158367,237.72988165119023 27.28129958268255,237.62944495408738 26.28025424759835,238.10651887531276 24.256864740280434,240.3161115240655 21.36022291937843,240.7429622074851 19.67761480284389,242.1992703533615 19.59241945517715,242.67633481367375 20.465671768877655,243.40448392779217 20.827751996461302,244.58458277847967 21.786199657828547,245.1369673981244 30.199240240617655,242.77676931097812 31.349377434235066,241.67198743241897 31.47717045561876,240.44165592479112 30.220539077417925,238.48315548388928 28.197149570216425,237.4285714285652 25.4708984446479,237.5792265891214 22.808543829829432,238.60870088325464 20.508269442711025,239.01044570167142 20.69995897496119,240.7680710466375 19.59241945517715,242.12394429567212 19.59241945517715,242.60100891187903 20.465671768877655,243.32915826408134 21.38152175641153,245.11185903500882 22.318670580745675,245.1369673981244 23.57530195894651,244.48414906905964 24.725439152563922,244.58458277847967 28.090655385633,253.49790017629857 28.495333287050016,255.83288127214473 28.367540265549906,258.24315952575125 27.174805398099124,263.3398107483954 24.427255435613915,262.9130019155127 23.341014752862975,266.2270262144011" stroke="#4DD2FF" stroke-linecap="round" stroke-linejoin="round" stroke-width="0.5"><title>2025-04-08 5.6km</title><desc>1744119870000</desc></polyline><polyline fill="none" points="59.21532690373715,265.6831929619948 60.050743661937304,264.4639829607768 60.68725166807417,261.7441819198575 63.33273806900252,262.2365622420184 64.74499020795338,256.7968695047748 64.80466283345595,254.59281693365483 64.42673620476853,252.43563724345586 61.72157717833761,245.72948403769988 61.72157717833761,244.4398152337526 63.213392817997374,243.33772849549132 66.33626022364479,242.86875370357302 68.40491124382243,241.46182319590298 70.19509001134429,241.46182319590298 70.67247101606335,240.85215045281802 69.10109187569469,238.36654370142787 67.17167698172852,239.11691857622645 65.341716463794,237.5927168714552 62.39786693488713,237.52236883986916 59.67281703313347,238.53068842891662 57.40525726089254,238.95277429597627 57.524602512130514,240.85215045281802 56.47038612689357,242.11839191081526 57.24613025947474,243.00944624847034 57.70362038887106,244.32257223200577 58.93685465096496,244.74464673941839 60.03085278661456,244.15843192221655 61.88070417987183,243.94739419713733 63.69077382260002,243.150138701385 66.45560547476634,242.75150984591164 68.54414737015031,241.36802750173956 68.22589336708188,242.00114764439058 68.74305612209719,241.22733388376946 70.2746535121696,241.34457857183588 70.61279839044437,240.75835449284932 69.37956412835047,238.76518067950383 67.62916711124126,239.67969801521394 66.23680584749673,238.06170316123462 64.76488108315971,237.42857142857974 62.258630808559246,237.49891949088487 59.81205315957777,238.48378994813538 57.46492988651153,238.8589775081491 57.4450390113052,240.9459463718813 56.530058752396144,241.8839033140539 56.47038612689357,242.3528802521323 57.26602113456465,243.05634374299552 57.48482076183427,244.0411887671653 58.55892802227754,244.72119817743078 59.97118016111199,244.13498329627328 61.80114067904651,243.94739419713733 63.47197419544682,243.1970361651911 65.06324421102181,242.98599749739515 65.24226208787877,244.32257223200577 69.3198915028479,252.599771240697 65.16269858693704,254.0535240379977 64.92400808469392,257.7347573705774 63.90957344963681,261.6972884971037 63.3924106946215,262.09588226495543 61.96026768058073,268.2857142857101 56.47038612689357,266.87894990966015 57.30580288497731,263.2916591397516 57.5842751377495,263.15097985215834 57.10689413303044,265.44873003645625" stroke="#4DD2FF" stroke-linecap="round" stroke-linejoin="round" stroke-width="0.5"><title>2025-04-02 6.9km</title><desc>1743601029000</desc></polyline><polyline fill="none" points="95.14893000095617,268.2857142857101 95.8869003810687,267.6205118386133 96.90703590668272,263.96186470633256 100.31472266220953,264.7805878950021 101.72554838901851,258.3074797712907 101.29144816531334,253.52289388689678 97.97058145457413,245.94923247917905 97.94887644331902,245.25837958687043 98.60002677876037,244.33723923563957 99.75039237132296,243.7743183534767 103.44024427223485,243.10904648028372 105.1549401555676,241.7273219524941 105.82779550214764,241.62497166403045 105.84950051340275,240.70381706063927 104.98130006610882,238.9382606374129 104.28673970827367,238.98943637279444 103.61388436169364,238.22179917212634 103.04955407092348,238.34973887981323 101.79066342243459,237.58209958802036 100.4449527291581,237.47974749282002 99.05583201360423,237.96591954762698 97.1892010520678,240.26882613076305 94.36754959844984,240.6782293811557 92.26216351392213,242.36701024448848 93.5210541622946,244.72104815440252 94.95358490035869,245.3095539449132 99.92403246089816,243.64638160112372 103.13637411571108,243.18580871575978 105.58904037915636,241.4970337406994 107.21691621781792,241.7017343845073 107.78124650858808,241.08763191782054 106.02314060286153,238.45209059579065 104.0913946076762,239.50119311244634 102.91932400385849,238.14503531406808 101.39997322123963,237.4285714285652 98.55661675648298,237.55651156838576 95.9737204258563,238.63120599144895 93.21718400577083,239.09178780989896 93.39082409522962,241.1132195526152 92.21875349141192,242.62288507347694 93.17377398349345,243.5184447792126 93.6078742070822,244.79780986293918 94.88846986670978,245.3351411196927 96.21247554884758,244.66987366812828 97.47136619733647,244.59311191787128 98.94730695767794,248.76379733072827 100.09767255035695,249.76168040565972 103.8960495069623,248.96849164048035 106.28360073710792,253.98344650040963 101.6821383665083,255.54420141853916 101.44338324351702,259.4588361567148 100.96587299765088,260.04730501867016 99.75039237132296,264.3712266573857 99.4899322373094,264.57590736533166 96.90703590668272,264.11537552157824 96.10395049292129,267.1855707585637" stroke="#4DD2FF" stroke-linecap="round" stroke-linejoin="round" stroke-width="0.5"><title>2025-03-25 6.1km</title><desc>1742909450000</desc></polyline></svg>