<?xml version="1.0" encoding="utf-8" ?>
<svg baseProfile="full" height="300mm" version="1.1" viewBox="0,0,200,300" width="200mm" xmlns="http://www.w3.org/2000/svg" xmlns:ev="http://www.w3.org/2001/xml-events" xmlns:xlink="http://www.w3.org/1999/xlink"><defs /><rect fill="#222222" height="300" width="200" x="0" y="0" /><text fill="#FFFFFF" style="font-size:12px; font-family:Arial; font-weight:bold;" x="10" y="20">Over 5km Runs</text><text fill="#FFFFFF" style="font-size:4px; font-family:Arial" x="10" y="280">Runner</text><text fill="#FFFFFF" style="font-size:9px; font-family:Arial" x="10" y="290">Elliont</text><text fill="#FFFFFF" style="font-size:4px; font-family:Arial" x="65" y="280">SPECIAL TRACKS</text><rect fill="yellow" height="2.6" width="2.6" x="65" y="283" /><text fill="#FFFFFF" style="font-size:3px; font-family:Arial" x="70" y="285.5">Over 20.0 km</text><rect fill="red" height="2.6" width="2.6" x="65" y="287" /><text fill="#FFFFFF" style="font-size:3px; font-family:Arial" x="70" y="289.5">Over 40.0 km</text><text fill="#FFFFFF" style="font-size:4px; font-family:Arial" x="120" y="280">STATISTICS</text><text fill="#FFFFFF" style="font-size:3px; font-family:Arial" x="120" y="285">Number: 52</text><text fill="#FFFFFF" style="font-size:3px; font-family:Arial" x="120" y="290">Weekly: 2.2</text><text fill="#FFFFFF" style="font-size:3px; font-family:Arial" x="141" y="285">Total: 351.0 km</text><text fill="#FFFFFF" style="font-size:3px; font-family:Arial" x="141" y="290">Avg: 6.8 km</text><text fill="#FFFFFF" style="font-size:3px; font-family:Arial" x="167" y="285">Min: 5.0 km</text><text fill="#FFFFFF" style="font-size:3px; font-family:Arial" x="167" y="290">Max: 11.4 km</text><polyline fill="none" points="33.58507078507682,53.864217038455536 33.4244530244614,54.62877387113258 32.899356499372516,54.53411492793384 29.42136422137264,53.85693550277938 24.65225225224276,51.67243899676396 23.385842985851923,51.30106749243714 15.997425997396931,49.88838056840905 13.637580437585711,50.00489195963746 13.106306306290207,49.94663628940907 12.278507078503026,49.516999153645884 12.019047619018238,49.24756428688124 11.666924066928914,48.66499870052212 11.333333333343035,47.674625552244834 11.636036036012229,47.325078584923176 14.323294723290019,45.16949856153951 15.812097812071443,43.51635462047852 17.615958815964404,41.92871534087317 19.833719433721853,40.46484937516652 20.667696267657448,40.32647232658928 20.945688545674784,40.173528939529206 21.656113256089156,39.43793918785377 22.360360360355116,37.915752502354735 22.996653796639293,37.30395478341234 27.178893178905128,35.11891720139829 30.780437580426224,33.713171917246655 31.737966537999455,33.48737587632786 33.98043758046697,32.67159027265734 35.333333333343035,32.03789279553166 32.003603603632655,33.31984928834572 30.681595881615067,33.66946951725549 29.446074646082707,34.12834329126781 29.27310167311225,34.521661160593794 29.40283140281099,34.84214067552966 29.779665379668586,35.00237985658168 30.144144144142047,35.65061625788803 31.429086229065433,38.45471251872368 33.43680823681643,42.24915933423472 33.43680823681643,42.445794660408865 33.89395109395264,43.261460947258456 34.7155727155623,45.249605819590215 34.93796653798199,46.08708504169044 35.24066924065119,46.15990882598271" stroke="#4DD2FF" stroke-linecap="round" stroke-linejoin="round" stroke-width="0.5"><title>2025-09-26 11.4km</title><desc>1758886655000</desc></polyline><polyline fill="none" points="66.0,47.460783730966796 61.44329319515964,46.53393656929984 56.36236348361126,44.18111765726644 55.542425091029145,43.927610741164244 47.35648277794826,42.35109477370861 46.01904228510102,42.3114833796717 44.506860823283205,42.43823976463318 43.774292915157275,42.32732793986361 42.75945113415946,41.57470751805522 42.4032483898045,41.03598495985352 42.04704564547865,40.132823482883396 42.073928871483076,39.792154398521234 42.74600952115725,39.205882935697446 42.080649677984184,39.752541610716435 42.0,39.998140547242656 42.712405488680815,41.582629878837906 43.08204984597978,41.95497986248665 43.71380565667641,42.30356109825516 44.493419210310094,42.46992882638733 46.48277793332818,42.31940566018602 47.36992439095047,42.366939325285784 55.09213105571689,43.86423387404648 56.34892187063815,44.196961810215726 61.42985158218653,46.57354566393769 63.157098851836054,46.93002654493466" stroke="#4DD2FF" stroke-linecap="round" stroke-linejoin="round" stroke-width="0.5"><title>2025-09-25 7.3km</title><desc>1758798919000</desc></polyline><polyline fill="none" points="96.66666666665697,44.48507578361023 96.21516754850745,46.073303010707605 91.59435626104823,45.17525188338914 86.2045855379256,42.688925604961696 84.85008818341885,42.273144077953475 76.52557319222251,40.68483779878443 75.10052910051309,40.65989031616482 73.59082892414881,40.80125927656627 72.66666666665697,40.59336365596391 73.456790123455,40.834522523327905 75.25573192237061,40.70146944934095 76.75837742502335,40.77631183199264 85.20282186951954,42.372931850957684 85.96472663141321,42.60576948070957 91.52380952381645,45.183567220046825 95.59435626104823,45.981835323436826" stroke="#4DD2FF" stroke-linecap="round" stroke-linejoin="round" stroke-width="0.5"><title>2025-09-23 6.7km</title><desc>1758623965000</desc></polyline><polyline fill="none" points="127.33333333334303,46.14652826832025 122.44870605214965,45.192782815407554 116.8959686565504,42.637739206555125 115.65625322199776,42.243975259894796 106.78523559132009,40.520141486034845 105.3970512423839,40.476388878480066 103.33333333334303,40.616397138815955 106.54768532837625,40.520141486034845 115.4038560676563,42.20897392681218 116.76234663368086,42.58523745850107 122.55263429219485,45.24528285954875 127.33333333334303,46.19027778819145" stroke="#4DD2FF" stroke-linecap="round" stroke-linejoin="round" stroke-width="0.5"><title>2025-09-22 6.4km</title><desc>1758538508000</desc></polyline><polyline fill="none" points="156.98392282958957,53.95448846195359 152.80385852092877,53.12826712166134 147.8778135048342,50.8921143020998 146.9324758842704,50.58132127454155 139.32475884247106,49.09555981999438 137.84565916401334,49.027335318045516 136.36012861737981,49.156203765567625 135.73633440517006,49.042496324262174 135.13183279745863,48.72411450018262 134.68167202573386,48.307183718439774 134.0,46.7304047210273 134.1157556270482,46.54088560944365 136.89389067524462,44.31968314646656 138.67524115755805,42.371334556919464 140.61093247588724,40.657955692047835 142.9389067524462,39.14923759613157 143.8263665594859,39.027932207529375 144.1672025723965,38.762575932531036 144.8874598070979,37.89826561922382 145.50482315116096,36.51837952796632 146.180064308719,35.89666366309393 149.07395498393453,34.29685704969597 152.72668810293544,32.71217820471065 152.73311897105305,33.189860318161664 153.2411575562728,33.57655295956647 153.72990353699424,34.44091697262047 153.97427652732586,35.146048080408946 155.57556270094938,38.247023704621824 155.61414790997515,38.49721864533785 156.5337620578939,40.02111385315948 158.0,43.30381948284776" stroke="#4DD2FF" stroke-linecap="round" stroke-linejoin="round" stroke-width="0.5"><title>2025-09-21 9.0km</title><desc>1758451095000</desc></polyline><polyline fill="none" points="187.28348909656052,52.276007851876784 186.971962616808,53.59791129756195 186.85981308412738,53.62728663539019 182.77258566976525,52.82680410330795 177.92523364484077,50.601559620015905 177.12149532706826,50.359201826082426 169.75077881617472,48.92706980667572 166.4922118379618,48.92706980667572 165.91277258563787,48.68470599393186 165.33956386291538,48.17794247940765 165.02803738313378,47.685864117484016 164.66666666665697,46.635595302286674 165.17133956382168,46.099437780998414 167.51401869155234,44.25590472648764 169.39563862924115,42.22869464374526 170.95327102800366,40.86984216298879 173.42056074764696,39.25387382437475 174.14953271026025,39.18041979752161 174.4672897195851,38.967402666952694 175.21495327100274,38.078599788401334 175.80685358252958,36.74170065706858 176.48598130838946,36.132007083484496 179.4267912772484,34.51592514105869 182.79750778817106,33.03938003127405 182.80996884734486,33.55360339296021 183.30841121496633,33.88417348191433 183.61370716511738,34.45715779470629 184.5046728971938,36.44052741251653 186.55451713394723,40.31894821822061 188.26791277257144,44.21918044833728 188.5981308411283,45.497173562602256 188.66666666665697,46.34181088718469 188.54205607474432,47.63445273814432 188.1931464174413,48.87565937374893" stroke="#4DD2FF" stroke-linecap="round" stroke-linejoin="round" stroke-width="0.5"><title>2025-09-18 10.1km</title><desc>1758194958000</desc></polyline><polyline fill="none" points="26.538248403841862,71.34957202608348 26.46885917361942,71.54381854474195 26.997952053992776,71.69717077555106 35.333333333343035,73.32268902235955 19.946271533583058,70.26587354624644 13.441031201073201,67.23963041550451 11.333333333343035,66.67731097764045 13.397662932198728,67.27030228796502 20.050355378887616,70.30676805562689 25.124442838248797,71.32912500073871" stroke="#4DD2FF" stroke-linecap="round" stroke-linejoin="round" stroke-width="0.5"><title>2025-09-16 5.4km</title><desc>1758020593000</desc></polyline><polyline fill="none" points="65.9926739926741,72.78058591976878 61.11355311356601,71.80481888265058 55.50915750916465,69.22286410807283 54.38095238094684,68.90335215274536 45.46520146520925,67.19350953654066 42.0,67.26259480156295 42.45421245423495,67.34031565272016 44.33699633699143,67.18487387416826 45.62637362637906,67.22805217655696 54.652014652005164,68.96380045926344 55.60439560440136,69.29194760477549 61.17216117217322,71.84799466916593 66.0,72.81512612582446" stroke="#4DD2FF" stroke-linecap="round" stroke-linejoin="round" stroke-width="0.5"><title>2025-09-15 6.5km</title><desc>1757932870000</desc></polyline><polyline fill="none" points="96.66666666665697,80.83944193231582 92.23889511008747,79.95245331471233 87.00485255688545,77.55277809563268 86.31952220975654,77.33894180769857 77.92758491970017,75.70742942717334 76.65770810001413,75.67574921280902 75.17282568119117,75.81039002854232 74.52108995890012,75.71534947862528 73.80888391187182,75.34310612858826 73.4191862634907,74.97086087284697 73.03620754013536,74.33724754417926 72.71369914142997,73.51354196194734 72.66666666665697,73.26801253106532 72.7808883911639,73.10960600658291 75.62299365430954,70.78099026833661 77.51773049641633,68.72160807779437 79.50653228815645,66.96316633940296 82.06644270246034,65.323499906277 82.89958939899225,65.220524451448 83.26913027244154,64.95912456468068 83.9678984695638,64.18284057165147 84.63979096675757,62.6619336114818 85.33855916382163,61.980683714667975 88.52332960057538,60.23792235666042 90.88839119070326,59.1605580676769" stroke="#4DD2FF" stroke-linecap="round" stroke-linejoin="round" stroke-width="0.5"><title>2025-09-13 7.0km</title><desc>1757768754000</desc></polyline><polyline fill="none" points="127.33333333334303,72.92395019804098 122.02782306273002,71.88168917612347 116.19019671774004,69.18835351079179 115.23551787849283,68.87474036595813 105.64960330401664,67.01148538175039 103.33333333334303,67.02070951731002 105.77480708624353,67.0852784380113 114.95380936859874,68.85629249775957 116.07281817198964,69.18835351079179 122.074774481036,71.93703079175611 127.30203238778631,72.98851461824961" stroke="#4DD2FF" stroke-linecap="round" stroke-linejoin="round" stroke-width="0.5"><title>2025-09-11 6.0km</title><desc>1757587445000</desc></polyline><polyline fill="none" points="155.70704510895303,80.05590493766067 151.62595032944228,79.25298432889394 147.10086163200322,77.15244034146599 146.0608210846549,76.84416374033754 138.85960466295364,75.45331647229614 137.6066903193132,75.41030010885879 136.1956411555875,75.5250103488579 135.4961986822309,75.39596131481812 134.6325392802828,74.72203447053471 134.2736948808888,74.08394843902352 134.0,73.18774974661937 136.68220983273932,70.95795444479154 137.5032944754057,70.17643274483271 138.46426761278417,69.04356829785684 140.23416117587476,67.48764040198876 141.54181449569296,66.72041817220452 142.42372022301424,66.06791372224689 143.20831221490516,65.93884614136914 143.56107450582203,65.73090339522605 144.26051697920775,64.92780799824686 144.85656360871508,63.565391599848226 145.52559553977335,62.97739264885604 148.2747085656447,61.45000496353896 151.6928535225743,59.94409506233933 151.68677141406806,60.453239886388474 152.19158641662216,60.761593286297284 152.538266599091,61.392637598917645 153.2133806386264,62.97022189751442 155.9138367967389,68.19749225456326 156.0598073998699,68.69940308434889 156.24227065380546,68.90016634431231 157.03902686262154,70.85040613774618 157.2397364419303,71.62475002557767 157.53167764822138,71.70361787325237 157.61682716672658,73.1088836774943 157.30055752658518,75.20238728931145 157.5377597566985,75.37445311785996 157.98783578304574,75.46048586345569 158.0,75.5895347710175" stroke="#4DD2FF" stroke-linecap="round" stroke-linejoin="round" stroke-width="0.5"><title>2025-09-09 10.0km</title><desc>1757415422000</desc></polyline><polyline fill="none" points="188.63360881546396,73.15625941079634 182.93112947660848,71.99704937848583 176.87327823686064,69.1817624686737 175.7658402204106,68.83106308295828 165.67493112946977,66.86322435741022 164.66666666665697,66.84374058921094 167.84848484845133,67.28212434712623 175.93939393936307,68.89925473788026 183.22038567491109,72.10420387715567 188.66666666665697,73.15625941079634" stroke="#4DD2FF" stroke-linecap="round" stroke-linejoin="round" stroke-width="0.5"><title>2025-09-08 5.7km</title><desc>1757333196000</desc></polyline><polyline fill="none" points="35.333333333343035,99.76688056016428 29.949771689513,98.74965318283648 23.670319634722546,95.85291340314143 22.757990867597982,95.5428888419774 12.878538812801708,93.61489934820565 11.333333333343035,93.50832584575983 12.500456620997284,93.58583386019745 22.51963470323244,95.52351227102918 23.768949771678308,95.93041937458474 29.88401826482732,98.75934111747483 35.25936073058983,99.82500748756866" stroke="#4DD2FF" stroke-linecap="round" stroke-linejoin="round" stroke-width="0.5"><title>2025-09-04 5.8km</title><desc>1756983645000</desc></polyline><polyline fill="none" points="66.0,99.463310474428 61.276442307658726,98.51979006047623 55.62980769231217,95.94417627344956 52.572115384595236,95.23012968056719 45.908653846156085,93.9635309617006 44.545673076907406,93.93802876297559 42.894230769219575,94.07404039327957 42.0,93.87002285890776 42.41105769231217,94.05703895244369 42.98076923075132,94.13354540698492 44.545673076907406,93.98053242289461 45.995192307716934,94.02303605967609 55.038461538468255,95.7826663063097 56.00480769231217,96.13118739684433 61.29086538462434,98.57929168477858 64.25480769228307,99.11480426246271" stroke="#4DD2FF" stroke-linecap="round" stroke-linejoin="round" stroke-width="0.5"><title>2025-09-02 6.2km</title><desc>1756809719000</desc></polyline><polyline fill="none" points="96.66666666665697,99.77566786511306 91.25025960538187,98.71814936970623 83.93146417444223,95.47697353920375 74.02076843197574,93.55767234695668 72.66666666665697,93.45974771815236 73.97092419522232,93.57725725994533 83.42471443404793,95.40842777360376 84.70404984423658,95.790324945061 91.38317757009645,98.84544392114185 96.65835929385503,99.87358561517613" stroke="#4DD2FF" stroke-linecap="round" stroke-linejoin="round" stroke-width="0.5"><title>2025-08-29 5.7km</title><desc>1756465472000</desc></polyline><polyline fill="none" points="127.33333333334303,99.6567591936182 122.13346504227957,98.63214680185047 115.99319503901643,95.81905694387387 115.0369882559753,95.53029082808644 105.39589507193887,93.65794493709836 103.33333333334303,93.65794493709836 105.49862803210272,93.74178219694295 115.29777192408801,95.63275633562444 122.01492701133247,98.64146151523164 127.20689276701887,99.67538839624467" stroke="#4DD2FF" stroke-linecap="round" stroke-linejoin="round" stroke-width="0.5"><title>2025-08-27 6.0km</title><desc>1756291993000</desc></polyline><polyline fill="none" points="156.9159747592348,99.66848775887047 152.8747924277559,98.92627664133761 151.12122218532022,98.4753098058427 145.58950514780008,95.88220475221897 144.4496844901587,95.51578144836822 135.45865161073743,93.75880705937743 134.0,93.59908034036198 136.39920292262104,93.94672046778578 144.43374294252135,95.52517693716072 145.4141481235274,95.83522749254189 150.66688807701576,98.33438218628726 151.9820657588716,98.79474489116546 156.90800398535794,99.73425299297378 157.09930255726795,99.00143755137833 158.0,99.15175917508896 157.5536366655724,99.04841308694449 157.5855197608471,98.82293028307322" stroke="#4DD2FF" stroke-linecap="round" stroke-linejoin="round" stroke-width="0.5"><title>2025-08-26 6.0km</title><desc>1756205162000</desc></polyline><polyline fill="none" points="188.66666666665697,101.14851687071496 184.08661637327168,100.24745418444218 179.10421905561816,97.95522674965468 178.07152835986926,97.63114737435535 169.83682592902915,96.04234705892304 167.08745459624333,96.16091544771189 166.35652416874655,95.99491964915796 165.6524168762262,95.56807156651485 165.2903045543353,95.13331630880566 164.6934898016043,93.64722412288393 165.1293657445931,93.16502809726808 166.34981838503154,92.1848164626208 164.90136909749708,93.33893523002189 164.66666666665697,93.6630337743918 165.04889633978019,94.76179611554835 165.3640681754623,95.28350478321954 166.4705224923091,96.06606075215677 167.16121821737033,96.20834274896333 168.66331377479946,96.07396531487029 169.90388376638293,96.09767899779399 178.19893825089093,97.69438248805818 179.11092483933317,98.00265287830553 184.00614696842968,100.24745418444218" stroke="#4DD2FF" stroke-linecap="round" stroke-linejoin="round" stroke-width="0.5"><title>2025-08-23 7.3km</title><desc>1755948655000</desc></polyline><polyline fill="none" points="35.33333333331393,125.40733551089943 34.97026118438225,126.65826722128986 28.835272821306717,125.4512281145071 21.322472200670745,122.02754761239339 14.014481510210317,120.44734814138792 11.33333333331393,120.0083994453671 20.84768554434413,121.92878587158339 28.565296095155645,125.40733551089943 33.58313938451465,126.42783359942405" stroke="#4DD2FF" stroke-linecap="round" stroke-linejoin="round" stroke-width="0.5"><title>2025-08-19 5.0km</title><desc>1755607675000</desc></polyline><polyline fill="none" points="65.3085077466676,129.58133144514431 60.9508018483466,128.72013990202686 55.89508018482593,126.38256704851665 55.04050013591768,126.13650224594312 47.06224517530063,124.60626750437223 44.08100027180626,124.69085421040654 43.095949986425694,124.22947094620758 42.41750475674053,123.40666330792737 42.0391410709708,122.17627885333786 44.86382169069839,119.87694041685609 47.52541451482102,117.08533522151993 46.742593095928896,117.78516948388278 44.942103832552675,119.73851631466823 42.0,122.18396882278466 42.143517260148656,122.76840404899121 42.6914922533615,123.83729280077387 43.15466159285279,124.267919666745 43.95705354717211,124.660095419953 44.4006523512071,124.72930267964693 45.94020114163868,124.59088809238165 47.22533297096379,124.60626750437223 50.46099483559374,125.22144123652834 50.74150584399467,125.12147586984065 52.02663767329068,125.35985458752111 52.411524870898575,125.52902609242301 54.362054906232515,125.82123046428023 55.62109268823406,126.228776647411 56.27344387062476,126.21339758887189 56.26039684697753,126.3902565597964 56.677901603718055,126.37487753640744 56.364773036155384,126.58249406916002 56.8409893992939,126.87469408089237 60.66376732807839,128.5971116812725 61.39440065235249,128.80472167945845 61.622723566164495,128.6970721269754 62.86871432454791,128.78934318199754 62.86871432454791,129.0815340607951 64.9823321555159,129.50443977012037 65.35417232944747,129.5428856180879 65.45854851862532,129.01233106719883 65.81081815710058,128.95081723816838 66.0,128.31260809968808" stroke="#4DD2FF" stroke-linecap="round" stroke-linejoin="round" stroke-width="0.5"><title>2025-08-16 10.0km</title><desc>1755297330000</desc></polyline><polyline fill="none" points="87.11001642036717,122.49726038291556 86.67651888343971,124.70368727054301 96.66666666668607,126.66620756118209 80.09523809526581,123.3798366164192 72.66666666668607,120.00045910548943 79.86863711004844,123.36822381867387 86.12479474552674,124.62239866889286" stroke="#4DD2FF" stroke-linecap="round" stroke-linejoin="round" stroke-width="0.5"><title>2025-08-13 5.0km</title><desc>1755095249000</desc></polyline><polyline fill="none" points="127.19895483393339,127.80021298132488 122.79805897726328,126.92114289978053 117.79245987310424,124.61650331909914 116.85852930200053,124.3155484287563 108.63456513627898,122.73155479114939 105.71855169843184,122.82659538248117 105.07353490113746,122.69195450809639 104.40836132888217,122.29595049130876 104.05897723036469,121.94746517243766 103.7364688316884,121.40889366708143 103.35349010827485,120.33173868797894 104.18663680483587,119.50802117127023 105.15416200077743,118.77141971838864 104.42179917884641,119.28624947605567 103.33333333334303,120.33965900342446 104.04553938040044,121.95538531188504 104.60321015308728,122.4781126069065 105.06681597616989,122.71571468051116 105.71855169843184,122.85827555198921 108.00298618889065,122.72363473625592 108.82941396045499,122.7790751023349 117.24150802541408,124.46602602961502 122.6703994027921,126.92114289978053 127.33333333334303,127.8952469482756" stroke="#4DD2FF" stroke-linecap="round" stroke-linejoin="round" stroke-width="0.5"><title>2025-08-12 8.1km</title><desc>1754996616000</desc></polyline><polyline fill="none" points="158.0,126.11688367096212 153.16076294274535,125.1490929311476 147.6966394186893,122.63106829932804 146.79564032697817,122.33129809160891 141.65849227973376,121.25211588175443 137.78564940963406,120.58404328202596 136.41961852862732,120.54978299570212 134.69028156221611,120.69538910947449 134.0,120.5754782118529 134.63215258857235,120.69538910947449 136.34695731155807,120.56691314071941 137.80018165305955,120.59260835128953 146.71571298816707,122.33986297054798 147.75476839236217,122.7081518823179 152.93551316982484,125.09770547923836 157.5858310626354,126.05693237823289" stroke="#4DD2FF" stroke-linecap="round" stroke-linejoin="round" stroke-width="0.5"><title>2025-08-10 6.4km</title><desc>1754781124000</desc></polyline><polyline fill="none" points="186.28670208281255,133.37500820780406 182.29176153131993,132.57350959101313 177.76254321611486,130.48384222754976 176.90041318829753,130.19758124900545 169.43873851082753,128.73763085859537 168.77089130619424,128.69469065015437 166.68235095706768,128.8163545012285 166.2270005902683,128.70900405609427 165.5895100767375,128.34401123059797 165.14630238636164,127.84303738435119 164.72738004889106,126.86254894520243 164.66666666665697,126.49038891818054 167.31984147062758,124.3146419538898 169.1533856143069,122.3392303227156 170.88371700819698,120.82900237612193 173.06332743066014,119.40463235162315 173.30618095962564,119.29010879695852 173.91938612025115,119.26863560821948 174.15616831099032,119.11116534301254 174.8240155156236,118.37391317046422 175.51007673496497,116.89938399656239 176.1293532338459,116.31242627822212 178.9039548022556,114.81637617199885 182.33426089887507,113.29165845886018 182.33426089887507,113.81421828237944 182.94139472130337,114.20792499160598 183.12353486803477,114.43698962709459 183.2206762796268,114.80921795557515 185.36385867273202,118.62443668167543 186.2442027152283,120.55701450619381 186.79669449364883,121.32287220798753 186.80276583187515,121.54475454672502 187.05169069906697,121.92410003489204 187.50096972764004,123.23389874728309 187.84703600639477,123.84942354785017 188.13846024117083,125.1233984175633 188.23560165273375,126.41166248846275 187.96239143266575,128.2581302710896 188.0352474913816,128.3654814529218 188.66666666665697,128.5587131382199 188.59381060797023,129.13124812849856" stroke="#4DD2FF" stroke-linecap="round" stroke-linejoin="round" stroke-width="0.5"><title>2025-08-08 10.0km</title><desc>1754654808000</desc></polyline><polyline fill="none" points="35.33333333331393,153.36006079830258 28.930171278014313,152.05185197186802 21.587878787890077,148.66384906645544 14.008432147558779,147.03130609948857 11.33333333331393,146.6399392017047 21.417127799766604,148.66384906645544 29.119894598145038,152.16366534354165 35.172068511194084,153.32651719044225" stroke="#4DD2FF" stroke-linecap="round" stroke-linejoin="round" stroke-width="0.5"><title>2025-08-07 5.0km</title><desc>1754573743000</desc></polyline><polyline fill="none" points="66.0,153.3720225925499 59.65538945712615,152.10337481449824 52.40440597955603,148.77588168843795 51.47915027535055,148.49765829085663 42.0,146.6279774074501 44.520849724591244,147.16217543664243 44.728560188785195,147.0731426257189 45.28560188825941,147.30685358891787 51.88512981898384,148.65346348685125 59.74036191974301,152.19240324261045 65.57513768679928,153.3608941717248" stroke="#4DD2FF" stroke-linecap="round" stroke-linejoin="round" stroke-width="0.5"><title>2025-08-04 5.0km</title><desc>1754309955000</desc></polyline><polyline fill="none" points="96.66666666665697,152.79290627380396 91.869578404614,151.8319344715128 86.337276311795,149.29216685529536 85.50743099788087,149.01759247901646 76.72854109798209,147.28431964103947 75.1853199878824,147.20709372618876 73.30724901426584,147.35296483512502 72.66666666665697,147.215674387131 72.8049742190342,147.3186422455692 73.68577494693454,147.37870676750026 76.22626630272134,147.24141636436252 79.71307249017991,147.9278659873671 80.27358204431948,147.93644656980905 81.24173491052352,148.22818581654428 85.4127995147137,149.02617294277297 86.57021534728119,149.4380341034339 91.78222626631032,151.82335431336105 96.17167121625971,152.70710569656512" stroke="#4DD2FF" stroke-linecap="round" stroke-linejoin="round" stroke-width="0.5"><title>2025-08-03 6.5km</title><desc>1754227262000</desc></polyline><polyline fill="none" points="124.5534840671462,152.81098562095576 118.18458283750806,151.54299123066448 110.15919608616969,147.97456928804604 103.33333333331393,146.58307566694566 110.74943805369548,148.13167222587072 118.43210366257699,151.64398250620434 127.33333333331393,153.41692433304706 124.75340473355027,152.83342785901186 124.75340473355027,152.66511095443275" stroke="#4DD2FF" stroke-linecap="round" stroke-linejoin="round" stroke-width="0.5"><title>2025-08-01 5.0km</title><desc>1754057984000</desc></polyline><polyline fill="none" points="155.70387243735604,160.01811106073 151.60971905846964,159.20904673227778 147.10250569475465,157.13264138634258 146.13667425967287,156.8247550106098 138.84738041000674,155.41418736448395 137.51708428247366,155.3712254383645 136.1928625664441,155.48579051227716 135.56112376615056,155.3712254383645 135.0387243735604,155.07765152508364 134.65603644645307,154.7124723885354 134.21867881549406,153.88186130738904 134.0,153.15864828370832 136.6788154897513,150.93883584245486 138.53758542140713,148.9552625880242 140.23842065301142,147.46575306142768 141.5201214882254,146.72814690308587 142.52239939256106,145.99053246541007 143.23310554289492,145.91891897226014 143.48823082764284,145.76136901260907 144.2657555049518,144.86619161674025 144.8731966590567,143.5198218489968 145.46848899012548,142.98269855180843 148.31131359151914,141.42143523709092 151.64009111616178,139.98188893926272 151.69476082004257,140.44741731230897 152.18071374334977,140.78402808096143 152.6848899012839,141.68642290913704 152.9946848898835,142.5529967526163 153.76006074412726,144.13571782580402 155.75246772970422,147.8667781781478 156.01974183751736,148.66882107016863 156.80941533789155,150.32300362271053 157.34396355351782,152.1633222991004 157.38041002277168,153.30901996367902 157.30751708426396,153.72433043552883 157.49582384206587,153.86037984710129 157.31966590735829,154.9416046329061 158.0,155.19937745310745 157.97570235381136,155.55023327862727" stroke="#4DD2FF" stroke-linecap="round" stroke-linejoin="round" stroke-width="0.5"><title>2025-07-28 10.0km</title><desc>1753704756000</desc></polyline><polyline fill="none" points="186.31012743129395,152.9427780228507 179.9358819584595,151.66779853304615 172.63447350775823,148.3209033808962 171.44654594233725,147.92245634338906 164.66666666668607,146.5677250542285 172.19020791415824,148.1842931391584 178.47753185784677,151.14414173750265 180.10972501680953,151.75886901233025 188.66666666668607,153.4322749457715 186.40670690813567,152.920010668342 186.52260228036903,152.18006894691644" stroke="#4DD2FF" stroke-linecap="round" stroke-linejoin="round" stroke-width="0.5"><title>2025-07-22 5.0km</title><desc>1753194638000</desc></polyline><polyline fill="none" points="24.984578884934308,177.93350514910708 32.93475682087592,179.51065981560532 35.333333333343035,179.65327327344858 33.24080664294888,179.53582691558404 20.137603795999894,176.96874036761437 14.422301304875873,174.37639949520235 11.333333333343035,173.68006005988718 14.386714116291841,174.39317868104263 19.7461447212263,176.86806856382464 21.95255041521159,177.33786918930127" stroke="#4DD2FF" stroke-linecap="round" stroke-linejoin="round" stroke-width="0.5"><title>2025-07-19 6.4km</title><desc>1752877000000</desc></polyline><polyline fill="none" points="63.8020859832468,186.7501443924557 59.717629102029605,185.93696373570128 55.07758839993039,183.8140113169211 54.283897227200214,183.56213107989606 46.743831086263526,182.10840352034575 44.13075553296949,182.1947644670072 43.562961078598164,182.08681326605438 43.03179852454923,181.7773521790732 42.51284660393139,181.23039415485255 42.06105316715548,180.2156310901555 42.0,179.84858529212943 44.66802340373397,177.63907044104417 46.432459933887,175.72457761919213 48.172475197177846,174.20589911034767 50.29712541340268,172.78795447946322 50.66954973290558,172.6080100907493 51.2373441872769,172.57921894305764 51.640295090328436,172.32729586539062 52.299669295345666,171.54272926716658 52.89188501657918,170.19670797889557 53.520732638047775,169.6136635044386 56.61002289497992,167.9292838839101 59.76647163575399,166.58318894088734 59.77257695244043,167.10147473450343 60.261002289509634,167.42540128972905 60.58458407528815,168.02286165663827 61.25006359705003,169.54888046730048 63.3014500127465,173.4069594327084 63.83871788351098,174.69533486010187 63.98524548462592,174.8320883184133 64.9071483083535,177.1928402312842 65.11472907659481,177.4879282882248 65.44441617911798,178.7186471905079 65.50546934627346,179.53191669052467 65.4077842788538,180.76979441181174 65.10862375987926,181.92848451891768 66.0,182.129993767594" stroke="#4DD2FF" stroke-linecap="round" stroke-linejoin="round" stroke-width="0.5"><title>2025-07-17 10.0km</title><desc>1752756134000</desc></polyline><polyline fill="none" points="96.66666666668607,180.05334406559996 90.30396417755401,178.7791827457404 82.23442644544411,175.19132772903686 72.66666666668607,173.27998926772852 82.66113525623223,175.37016459424194 90.12379823526135,178.76800582204305 96.37271170812892,180.04216728068423" stroke="#4DD2FF" stroke-linecap="round" stroke-linejoin="round" stroke-width="0.5"><title>2025-07-14 5.0km</title><desc>1752500928000</desc></polyline><polyline fill="none" points="127.33333333331393,180.0286564521739 120.97211363044335,178.7790031442346 114.39510033879196,175.72668793326739 112.83763356792042,175.16266312260268 103.33333333331393,173.30467688116187 113.45686734427,175.3285530980138 121.08470158977434,178.8232389220866 126.65780557732796,179.94018592732755" stroke="#4DD2FF" stroke-linecap="round" stroke-linejoin="round" stroke-width="0.5"><title>2025-06-21 5.0km</title><desc>1750468889000</desc></polyline><polyline fill="none" points="150.42047280239058,178.14057821837923 156.66146431028028,179.38715095243242 158.0,179.4585683926416 156.84874913928797,179.38715095243242 146.64723433554173,177.3939206105315 145.5510672481032,176.96539984707124 142.2735827403958,175.40711656021813 141.6952031214023,175.21882123812975 135.0080330502533,173.9202166149007 134.0,173.87476494069415 134.8923571264604,173.89424423389937 137.49781960062683,174.37473145092008 142.18544870323967,175.38763776135602 145.67225154920015,177.03682018822292 146.56460867568967,177.3809351781092 147.53408308466896,177.57571636754074" stroke="#4DD2FF" stroke-linecap="round" stroke-linejoin="round" stroke-width="0.5"><title>2025-06-17 8.1km</title><desc>1750165544000</desc></polyline><polyline fill="none" points="188.66666666668607,180.01413472225977 182.61562258313643,178.81082942642388 174.72699149267282,175.28834379074397 164.66666666668607,173.319198611076 174.74555297760526,175.33210213404527 182.4856921887258,178.79989022126392 187.5901005413616,179.83910939321504" stroke="#4DD2FF" stroke-linecap="round" stroke-linejoin="round" stroke-width="0.5"><title>2025-06-15 5.0km</title><desc>1749939796000</desc></polyline><polyline fill="none" points="27.917287366115488,204.70900281169452 33.581471235025674,205.84076807159727 35.333333333343035,205.94912735985417 33.954316521267174,205.86484793178897 24.47485280557885,204.02270833731382 23.550400794512825,203.6735377030127 20.46038164148922,202.20458880897058 19.770873235480394,201.97581456639818 13.539760232699336,200.77172399906704 12.783854720910313,200.71753930681007 11.333333333343035,200.83192915041218 13.391643612150801,200.75968296094288 19.50528481238871,201.93969223102977 20.24586791516049,202.14438515271468 22.013052422524197,202.98121009585157" stroke="#4DD2FF" stroke-linecap="round" stroke-linejoin="round" stroke-width="0.5"><title>2025-06-11 8.1km</title><desc>1749642919000</desc></polyline><polyline fill="none" points="66.0,206.673432947151 59.7650252035819,205.46686160359968 51.92943001160165,201.9677229675508 42.0,199.99323371951323 52.04110120201949,202.0116000667258 59.83016673126258,205.5217060691357 64.9670414889697,206.55277646321338" stroke="#4DD2FF" stroke-linecap="round" stroke-linejoin="round" stroke-width="0.5"><title>2025-06-08 5.0km</title><desc>1749387304000</desc></polyline><polyline fill="none" points="81.96456876432057,209.78341987001477 84.54918414901476,208.24017707206076 89.9869463868672,207.2509154190193 92.73939393938053,205.1932425489067 95.72680652677082,205.27238402859075 96.53240093227942,204.59968090051552 91.22890442877542,195.9731421022443 87.63729603716638,196.68543288393994 84.2135198134929,198.70358251139987 82.30023310019169,198.70358251139987 79.24568764562719,200.12815196652082 74.24428904417437,201.15700420853682 74.41212121210992,204.4018268021464 72.66666666662786,206.5782159556693 74.14358974341303,208.20060665762867 74.78135198145173,210.21869229417644 75.72121212119237,210.81224475888303 81.56177156162448,209.58556859579403 84.64988344989251,208.20060665762867 89.14778554765508,207.6070499245834 92.90722610719968,205.1932425489067 95.55897435883526,205.31195476214634 96.63310023304075,204.4018268021464 91.22890442877542,195.85442683612928 87.23449883435387,196.72500455300906 84.2806526805507,198.66401105790283 81.5953379952116,198.94101114204386 78.30582750565372,200.40515093383146 74.3449883449357,201.07786183184362 74.44568764558062,204.59968090051552 72.66666666662786,206.5782159556693 74.24428904417437,208.2797474822146 75.04988344968297,210.33740286459215 76.19114219106268,210.89138501425623 85.38834498811048,208.0818953886337 89.2484848483,207.6466204035969 92.57156177144498,205.3910962161317 95.65967365959659,205.35152549130726 96.66666666662786,204.36225596946315 90.85967365966644,195.73571153118974 86.89883449871559,196.962434477231 84.14638694643509,198.66401105790283 74.51282051263843,200.88000581471715 74.47925407928415,204.4018268021464 72.70023310009856,206.4990747605334 74.21072261058725,208.20060665762867 74.78135198145173,210.0999816847907 76.49324009311385,210.93095513549633 90.05407925392501,206.8156394380203 91.73240093223285,204.56011008951464 91.22890442877542,202.30456673217122 89.01351981353946,199.53458203937043 87.13379953370895,198.58486813801574 85.52261072245892,198.50572520069545 83.67645687633194,199.2575824080268 80.68904428905807,202.85856113530463 75.92261072259862,203.6499802452454 73.06946386944037,205.9055152463843 72.96876456867903,206.85521000323934 74.57995337981265,208.79416242073057" stroke="#4DD2FF" stroke-linecap="round" stroke-linejoin="round" stroke-width="0.5"><title>2025-06-04 6.4km</title><desc>1749041988000</desc></polyline><polyline fill="none" points="127.33333333331393,206.69537120411405 121.18211192963645,205.46686233356013 114.17474473308539,202.2309860058158 113.11386842443608,201.87996944179758 103.33333333331393,199.97129546255746 113.39304640039336,201.98966224945616 121.04252294165781,205.4449245389842 126.15147990174592,206.49793328901433" stroke="#4DD2FF" stroke-linecap="round" stroke-linejoin="round" stroke-width="0.5"><title>2025-05-28 5.0km</title><desc>1748436903000</desc></polyline><polyline fill="none" points="158.0,206.68486236030003 151.33544303796953,205.319667448377 143.61708860757062,201.82826680329163 134.0,199.9706142590876 143.30379746836843,201.7611233204807 144.46202531649033,202.13041193292156 151.89556962030474,205.53228096312523 157.88607594941277,206.69605240757664" stroke="#4DD2FF" stroke-linecap="round" stroke-linejoin="round" stroke-width="0.5"><title>2025-05-27 5.0km</title><desc>1748351986000</desc></polyline><polyline fill="none" points="182.4397911602864,208.28420934951282 182.47186407411937,206.84739879374683 183.22557754965965,205.14116583597206 183.7227077143616,201.97559595837083 183.69063480052864,202.26746020514838 182.96899423882132,202.35726445823093 179.45701017190004,204.8493079776381 178.1259842470172,205.16361641362164 177.59678116842406,204.28804104174924 178.2061665315996,203.30020540688565 179.32871851650998,202.42461760773585 179.15231749031227,200.92038903733192 179.6815205689054,199.95497953137965 178.97591646411456,199.5508525139885 176.39404689893126,199.59575557740754 175.7205157079734,198.607884635785 175.94502610497875,197.4403912118869 176.44215626973892,197.5975543929162 176.39404689893126,196.83418860831443 177.13172391755506,197.2832278427013 178.4787862994126,197.23832398837112 179.55322891351534,197.9567838144867 181.01254649378825,198.00168742314418 181.6058954001055,197.70981369278888 183.06521298037842,195.6666794107732 183.12935880810255,192.2539006834195 182.60015572950942,191.64767412989022 181.76625996932853,191.33333333333576 180.73992672603345,191.62522124082898 179.82584868121194,192.63559744758822 179.1202445764211,192.88257711536426 177.67696345306467,192.61314472744561 176.15350004500942,191.78239138374192 174.75832829246065,192.2539006834195 174.0527241876116,193.33162986633397 174.08479710150277,194.47670742878836 174.6941824646783,195.32989598195127 176.0733177603688,195.98100983149197 176.39404689893126,196.76683259070705 175.76862507878104,198.22620523565274 176.21764587273356,199.57330404766253 176.32990107120713,201.43676795200736 175.73655216488987,203.4573615732952 176.20160941575887,204.01863206025155 177.5647082545911,204.35539320071985 178.09391133312602,205.16361641362164 176.87514060671674,207.13925221044337 175.36771365557797,207.7454072337132 172.8499899181188,209.5863053340945 171.0218338284758,210.37204666355683 170.60488594841445,211.44962712610868 169.57855270506116,212.57209737039375 170.4605578361079,215.0863958960981 171.26238068233943,215.26598680562165 172.32078683952568,214.61496858999453 173.55559402290964,215.13129364657652 174.45363561081467,215.01904924175324 175.1592397155473,214.27823376362358 175.67240633728215,212.4149521138388 176.89117706363322,211.74147031275788 179.6815205689054,212.61699598058476 180.73992672603345,212.10066103656573 182.39168178947875,212.0108634477947 182.48790053103585,207.02700097318302 183.75478062825277,202.58177482218161 183.56234314513858,202.26746020514838 183.0812494372949,202.31236233939126 179.47304662881652,204.87175860514253 178.17409361776663,205.14116583597206 176.74684895126848,207.2066029068228 175.22338554327143,207.8127576191182 172.83395346120233,209.5863053340945 171.1180525700911,210.25979819010536 170.60488594841445,211.51697561141918 169.57855270506116,212.66189457535074 170.3803755514091,214.97415145295963 170.90957863000222,215.33333333333576 172.2245680979686,214.61496858999453 173.73199504904915,215.15374251598405 174.74229183548596,214.7496622787803" stroke="#4DD2FF" stroke-linecap="round" stroke-linejoin="round" stroke-width="0.5"><title>2025-05-23 6.4km</title><desc>1747958832000</desc></polyline><polyline fill="none" points="25.51384904445149,231.1208088450221 26.16336436267011,231.73785426844552 27.787152658216655,231.99766226801148 28.59904680598993,233.03689071182453 28.390274025150575,237.1287974298175 27.99592543905601,237.87572326746886 26.58090992446523,238.2978974415164 25.189091385458596,237.81077331131382 23.890060748904943,238.10304793930845 21.686348062125035,236.80404614938016 20.36412044998724,237.3236479315674 19.389847472659312,237.1612725273735 19.668211180483922,236.21949244510324 18.972301910980605,234.4008694140066 19.18107469181996,233.101842300719 18.43877147103194,231.8677583125973 18.76352913014125,229.91918831931252 23.44931821152568,229.72433022032783 25.049909531488083,230.30890391743742 25.8850006548455,231.64042617690575 27.6711677799467,231.9651862874598 28.459864952019416,232.71213243396778 28.390274025150575,237.22622270566353 28.042319390340708,237.87572326746886 26.673697826918215,238.26542253840307 25.351470214896835,237.84324829216348 23.843666797620244,238.0705730028858 21.639954110840335,236.83652130237897 18.833120057126507,237.42107310744177 17.3253166397335,238.65512100957858 17.812453128397465,239.01234390577883 18.183604738791473,240.9608206023986 20.45690835255664,242.0 21.431181329884566,241.31803916160425 22.0806966482196,239.98658475287084 21.987908745533787,238.94739433824725 20.781666011665948,237.03137210392742 21.987908745533787,236.83652130237897 23.8668637733208,238.0705730028858 25.351470214896835,237.648398323523 25.165894409641623,237.1612725273735 23.658090992481448,237.19374761929794 22.84619684459176,236.15454192244215 23.611697041080333,233.101842300719 21.61675713513978,230.04909360756574 21.755938988993876,227.61335466556193 22.289469429058954,226.57409654182266 23.356530308839865,225.95703433992458 25.374667190597393,226.60657344435458 27.02165246172808,226.18437327918946 25.165894409641623,228.00307499575138 23.240545430686325,227.90564498821914 22.0806966482196,227.02877267089207 20.2945295231184,226.63905034121126 20.3409234744031,222.6768279231037 21.129620646475814,221.02046453996445 21.176014597760513,218.5521315150254 21.663151086424477,218.0649567320943 23.147757528116927,218.0 27.416001047822647,218.61708805835224 28.29748612246476,219.3965648447338 28.59904680598993,221.02046453996445 29.34135002689436,221.83240918004594 28.85421353811398,222.48196239258687 29.15577422163915,222.90417078930477 27.694364755647257,223.78106215222215 27.531985925976187,225.82712625240674 25.374667190597393,227.93812166289717 23.68128796806559,228.00307499575138 22.01110572111793,226.93134216341423 20.387317425571382,226.73648099855927 20.31772649870254,222.90417078930477 21.31519645161461,219.59143354131083 22.359060355927795,219.20169594806794 22.382257331628352,218.22734846532694 27.137637339998037,218.51965323511104" stroke="#4DD2FF" stroke-linecap="round" stroke-linejoin="round" stroke-width="0.5"><title>2025-05-20 5.0km</title><desc>1747754393000</desc></polyline><polyline fill="none" points="62.820083682076074,231.67714654104202 65.06276150629856,231.95336911521736 66.0,230.96685895466362 60.44351464440115,222.60114477245952 56.56066945614293,223.54821645605261 53.54811715497635,225.32396918704035 51.673640167340636,225.40289132855833 47.12133891216945,227.13917408997077 43.472803347278386,227.65216513091582 43.77405857748818,231.00631941264146 42.0,233.29501862105099 43.472803347278386,234.59720309413387 44.00836820085533,236.4123615170829 44.811715481220745,237.20155799385975 46.31799163192045,237.43831660150317 53.84937238495331,234.99180352527765 58.33472803351469,234.3604426292004 62.217573221889324,231.79552767018322 65.06276150629856,231.87444840138778 65.9330543933902,231.1247007609345 60.57740585785359,222.64060614199843 59.10460251045879,222.68006750725908 53.682008368195966,225.24504702840932 51.205020920489915,225.52127450858825 48.092050209175795,226.94186964989058 43.20502092060633,227.84946918391506 43.90794979094062,230.45387260912685 42.0,233.25555841246387 43.40585774066858,234.43936280132039 43.8410041842144,236.09668244494242 44.84518828464206,237.16209821088705 46.31799163192045,237.3593970829388 54.48535564856138,234.67612321479828 58.87029288709164,234.12368200937635 62.05020920489915,231.87444840138778 65.09623430960346,231.87444840138778 65.9330543933902,231.04577986639924 60.57740585785359,222.68006750725908 59.405857740552165,222.56168339849683 56.393305439385585,223.54821645605261 53.78242677822709,225.24504702840932 51.64016736391932,225.32396918704035 47.62343096244149,227.02079143881565 43.64016736403573,227.7310867649212 43.8410041842144,230.8484775548277 42.06694560672622,233.17663798225112 43.40585774066858,234.5182829563273 44.34309623437002,236.84641979221487 46.45188284525648,237.31993731705006 53.24686192476656,235.03126354466076" stroke="#4DD2FF" stroke-linecap="round" stroke-linejoin="round" stroke-width="0.5"><title>2025-05-14 5.0km</title><desc>1747227249000</desc></polyline><polyline fill="none" points="81.16569866653299,241.73975474055624 81.65457257651724,241.2936190868204 82.36422825220507,238.65395927184727 84.49319527921034,238.98856629682996 85.64441448642174,234.3783673142898 85.42363272065995,231.42256937912316 83.20004493684974,225.8640433947876 83.29466569365468,224.6184625709866 84.84013805404538,223.7818733312015 87.14257646846818,223.39146361548046 88.62496832438046,222.36895774550794 89.83926803601207,222.48050413820602 90.29660169372801,221.9971359098563 87.852232144156,218.09295771263714 87.23719722521491,218.0 85.54979372973321,218.61351996753365 84.49319527921034,219.3385861756251 83.57852796389489,219.3571775763703 81.71765308099566,220.1008319437824 79.80946781963576,220.37970149594184 79.93562882870901,221.82981581942295 79.03673163958592,222.9638709971041 79.19443290075287,223.37287265430496 79.73061718902318,223.726100569329 80.2668014774099,224.9716879073967 80.9449169007712,225.04605104292568 87.00064533331897,223.22414489241783 87.67876075679669,222.62923254826455 87.93108277482679,221.82981581942295 87.63145037833601,220.78870934784936 86.57485192792956,219.6546397122729 85.28170158551075,219.24562914167473 84.1462525044335,219.5616828505299 82.63232039631112,221.27208099971176 80.47181311703753,221.64390441543947 79.22597315302119,222.75936980078404 79.2575134052895,223.37287265430496 80.9449169007712,224.6742350411805 82.86887228814885,224.46973589484696 86.95333495497471,223.22414489241783 87.83646201802185,222.40613988450787 87.88377239642432,221.51376631211315 87.23719722521491,220.3425189153204 85.70749499095837,219.3014033681102 83.57852796389489,219.37576897504914 81.57572194584645,220.17519720227574 79.77792756742565,220.52843173734436 79.91985870257486,221.9041803243017 79.05250176560367,223.0382350077416 79.74638731521554,223.726100569329 80.09333008993417,224.73000749306811 80.89760652236873,225.06464182178024 81.8438140899525,224.58128091414983 83.59429808997083,224.283827367326 83.18427481077379,225.04605104292568 83.23158518905984,225.6409549604723 85.21862108103232,230.62319384657894 85.69172486482421,232.92835963031393 85.5182534774649,235.51233909724397 84.72974717110628,238.46806619677227 82.69540090078954,238.17063685540052 81.89112446835497,240.884660379641 81.27608954947209,241.14490694299457 81.02376753144199,242.0 80.69259488279931,241.86987741990015" stroke="#4DD2FF" stroke-linecap="round" stroke-linejoin="round" stroke-width="0.5"><title>2025-05-06 7.1km</title><desc>1746539597000</desc></polyline><polyline fill="none" points="112.50386099057505,242.0 112.34124763752334,241.80831967691483 113.10553039686056,239.25895152606245 115.04062929790234,239.71899061497243 115.38211733935168,239.1247732319316 116.39032012812095,234.88852019769547 116.35779745748732,232.77993994964345 113.4795411088271,224.8054443464207 112.69899701420218,224.63291520687926 111.59322621359024,225.16967197447957 110.91025013080798,225.0354829360731 109.62560464185663,223.0418051668821 110.50371674826602,222.0832981977146 110.29231938929297,220.54967618494993 111.43061286053853,220.49216509937833 115.23576532158768,219.4186213849316 116.4716268046177,218.65180043524015 118.50429371756036,218.03834126892616 121.12236870150082,222.04495781027072 120.7971419953974,222.5625523350609 119.36614448874025,222.4283613081643 117.83757897012401,223.54022672718565 115.51220802176977,223.88528698022128 114.14625585620524,224.5370656117302 112.40629297879059,224.76710455230204 111.34930618398357,225.20801168087928 110.66633010125952,224.92046367884905 110.27605805400526,223.84694698550447 109.65812731243204,223.3868663974572 109.65812731243204,223.02263507868338 110.50371674826602,221.89159617719997 110.27605805400526,220.56884654260648 112.06480493734125,220.33880211265932 115.18698131566634,219.34193944037543 118.14654434088152,218.0 118.60186172940303,218.15336502558785 121.1061073661549,222.04495781027072 120.86218733660644,222.52421205212886 119.47997383575421,222.4283613081643 117.47982959338697,223.67441690598207 115.85369606304448,223.78943697777868 111.43061286053853,225.16967197447957 110.74763677775627,224.97797331688344 110.30858072458068,223.84694698550447 109.65812731243204,223.34852629419765 110.4874554129201,221.92993659796775 110.29231938929297,220.54967618494993 111.99975959619042,220.33880211265932 115.05689063324826,219.39945090196852 116.14640009857249,218.72848268062808 118.17906701145694,218.0 118.55307772348169,218.15336502558785 121.08984603086719,222.02578761347104 120.84592600131873,222.50504190742504 119.36614448874025,222.40919115312863 117.78879496426089,223.55939675901027 115.49594668642385,223.88528698022128 113.85355182073545,224.59457537510025 112.50386099057505,224.70959484533523 111.46313553111395,225.18884182872716 110.69885277183494,224.90129379536666 110.29231938929297,223.84694698550447 109.64186597708613,223.36769634687516 109.62560464185663,223.0418051668821 110.27605805400526,222.40919115312863 109.51177529466804,223.11848549882416 110.22727404808393,223.9619669445674 110.55250075418735,224.84378413225932 111.25173817219911,225.26552122498106 115.30081066273851,224.00030691418215 117.72374962299364,223.71275693828647 119.28483781218529,222.52421205212886 120.73209665413015,222.52421205212886 121.15489137207624,222.0832981977146 118.43924837640952,218.0 116.37405879277503,218.61345930006064 115.08941330382368,219.43779186584288 113.9348584972904,219.51447376866417 112.16237294918392,220.24295017808618 110.06466069497401,220.66469829964626 110.42241007176926,221.89159617719997 109.593081971223,222.9076145055442 109.56055930058938,223.40603644600196 110.21101271273801,223.9044569744001 110.50371674826602,224.8054443464207 111.12164748983923,225.18884182872716 113.4795411088271,224.7862744504091 116.0163094161544,231.3805954730051 116.30901345156599,232.87578505456622 116.37405879277503,234.8118449950416 115.21950398624176,239.5464760975592 113.00796238501789,239.27811984541768 112.52012232580455,241.59747108038573 112.25994096102659,241.80831967691483" stroke="#4DD2FF" stroke-linecap="round" stroke-linejoin="round" stroke-width="0.5"><title>2025-04-29 10.1km</title><desc>1745929124000</desc></polyline><polyline fill="none" points="157.07811825635144,227.7107766553745 156.67414760461543,227.36890521884197 156.90202848508488,226.1112977482553 156.33232628396945,227.9915988411376 155.89728096674662,228.0526470493205 154.60250323690707,233.1317415270605 154.45748813124374,233.16836877658352 147.8593008199823,231.86198947999947 139.4484246870852,228.07706632327609 134.0,226.91714493573818 139.40699179971125,228.0892759582639 146.04661199823022,231.20268947578734 147.93180837284308,231.9108263630842 158.0,233.8887022517374 154.55071212776238,233.14395061154937 154.7682347863447,232.25268394924205 155.37936987477588,232.1061736828342 156.76737160113407,226.27002568271564 157.0366853689775,226.1723469804274 156.67414760461543,227.12471069728053" stroke="#4DD2FF" stroke-linecap="round" stroke-linejoin="round" stroke-width="0.5"><title>2025-04-22 6.3km</title><desc>1745328842000</desc></polyline><polyline fill="none" points="173.18480794259813,241.2947395533265 173.58368435967714,241.11842400951718 174.4146768952487,238.39530644081242 176.54201778623974,238.70876092254184 177.65554778388469,234.6534013790224 177.47272942611016,230.55876684255782 175.1625701772282,224.89665448905725 175.11271062510787,223.91703218511248 176.35919942846522,222.89821932771883 178.9851358407759,222.46718138114375 180.8797988218721,221.23283972717763 182.12628762522945,221.35039644023345 182.64150299725588,220.89976195619965 181.52797299955273,219.155991790627 180.03218643559376,219.92011787733645 178.83555718435673,218.52901411462517 177.55582867964404,218.0 175.1625701772282,218.1959313350817 173.5338248075568,218.9208754183055 171.34000451368047,219.29314286580484 171.67240152787417,220.6646478640323 170.7084501866484,222.05573510464455 171.42310376727255,222.66310784856614 171.788740482938,223.6819220380712 172.5366337649175,224.07377211240237 175.26228928152705,223.42721903185884 176.8411750990199,222.74147837577038 178.9186564378906,222.46718138114375 180.63050106115406,221.31121087781503 182.12628762522945,221.33080366016657 182.6248831464909,220.8605762955267 181.5445928503177,219.155991790627 180.04880628630053,219.8809320031869 178.83555718435673,218.5094210270472 177.65554778388469,218.01959314312262 175.07947092369432,218.1959313350817 173.56706450902857,218.90128237342287 171.75550078152446,219.17558480775915 171.50620302086463,219.37151486183575 171.63916182651883,220.72342641589057 170.7084501866484,221.95777156672557 171.3898640658008,222.66310784856614 171.73888093075948,223.70151456203894 172.45353451138362,224.1129570728226 176.87441480054986,222.72188574721804 178.8521770351217,222.50636669172673 180.64712091191905,221.31121087781503 182.19276702799834,221.31121087781503 182.60826329590054,220.82139062634087 181.51135314884596,219.1168057499308 179.96570703270845,219.86133906285977 178.81893733370816,218.5094210270472 177.80512644024566,218.07837255964114 175.57806644507218,218.09796569419268 173.4008660019026,218.9208754183055 171.7222610800527,219.17558480775915 171.48958317009965,219.35192186603672 171.60592212510528,220.89976195619965 170.69183033599984,222.0165496958798 171.43972361792112,222.70229311649746 171.77212063217303,223.70151456203894 172.32057570567122,224.05417962899082 179.0017556915409,222.21247665429837 179.81612837628927,221.54632412455976 180.09866583836265,220.54709070270474 179.865987928526,219.80256022916 179.05161524366122,218.8033171169227 177.77188673889032,218.0391862841352 175.5614465943072,218.1175588266633 173.3343865990173,218.97965454023506 171.47296331939287,219.29314286580484 171.67240152787417,220.62546215212205 170.7084501866484,221.97736427855853 171.5228228715132,222.9765897524776 171.20704570802627,223.58395938602916 172.03803824353963,225.28850191636593 172.68621242133668,228.14896226869314 172.96874988341006,231.36202785796195 172.90227048052475,233.47791775065707 171.27352511091158,241.4514643359871 172.45353451138362,242.0" stroke="#4DD2FF" stroke-linecap="round" stroke-linejoin="round" stroke-width="0.5"><title>2025-04-15 8.8km</title><desc>1744723077000</desc></polyline><polyline fill="none" points="35.175611537124496,254.10271162862773 34.479006936831865,254.05623307534552 34.99160277476767,252.5534183344571 34.38700255576987,255.06326499661373 34.53158086899202,255.45058306798455 33.7298284045537,258.11530281210435 32.95436290622456,258.1307952227944 32.96750638919184,258.78147494875884 32.07374954374973,261.67851284178323 23.359620299423113,259.9433956280991 13.370573201857042,255.3111486837879 11.33333333331393,254.7224242213997 13.515151515195612,255.41959766107902 23.34647681633942,259.95888783974806 32.100036509742495,261.6630208174465 32.38919313624501,260.50111418333836 33.046367287344765,260.42365340363176 33.61153705732431,258.78147494875884 35.33333333331393,251.6548204915598 34.87331142759649,254.21116152731702" stroke="#4DD2FF" stroke-linecap="round" stroke-linejoin="round" stroke-width="0.5"><title>2025-04-11 5.1km</title><desc>1744377642000</desc></polyline><polyline fill="none" points="48.90602817037143,268.6666666666715 49.71775051066652,267.7684332529316 49.93310541723622,268.4323453403922 50.74482775764773,267.7684332529316 51.65594467014307,265.01512453214673 53.79292797431117,265.50330292129365 54.17394050146686,265.36661310633644 55.1678862242843,261.09012197176344 55.23414927255362,258.7467958918278 54.820005221350584,256.65730430191616 52.43453548644902,251.4627617225051 52.36827243829612,250.58397083404998 53.52787578164134,249.60753146003117 56.1949634712073,249.1778964502446 58.050328820594586,247.90851426853624 59.259629450098146,248.02568838499428 59.87256264593452,247.51793332691886 58.563867444056086,245.46736941899871 57.18890919408295,246.2680685939995 55.56546451349277,244.901019062032 54.10767745325575,244.82290163096332 53.329086637008004,245.19395912524487 51.75533924245974,246.91253118540044 49.50239560403861,247.24452616139024 48.19370040227659,248.3772102748335 48.12743735406548,248.74826041063352 48.80663359805476,249.31459861050826 49.08825155283557,250.2324532721541 49.83371084497776,250.66208575411292 56.37718685384607,248.82637613077532 57.27173800446326,247.96710133632587 57.371132576605305,247.01017683040118 56.39375261584064,245.48689870969974 54.820005221350584,244.66666666667152 52.69958767917706,244.78384290265967 50.62886742322007,245.5845451314235 48.83976512210211,245.89701332352706 48.98885698057711,247.26405525850714 48.12743735406548,248.31862334108155 48.12743735406548,248.6896735981427 48.80663359805476,249.256011983176 49.51896136609139,250.6425570272404 50.24785489612259,250.66208575411292 51.22523485700367,250.15433816482255 52.11978600762086,250.2324532721541 54.737176411028486,257.1650334704609 55.05192588997306,258.98112987833156 54.952531317656394,260.855790742251 54.024848642991856,264.819852804314 51.887865338881966,264.4878903787321 51.04301147448132,267.0654648334312" stroke="#4DD2FF" stroke-linecap="round" stroke-linejoin="round" stroke-width="0.5"><title>2025-04-08 5.6km</title><desc>1744119870000</desc></polyline><polyline fill="none" points="81.27858759177616,266.6424834148929 81.92835618148092,265.69420896949305 82.42341796407709,263.57880815988756 84.48101849813247,263.9617706326826 85.57943682838231,259.73089850372344 85.62584887049161,258.01663539285073 85.33190593705513,256.3388289671275 83.22789336089045,251.1229320293205 83.22789336089045,250.1198562929203 84.38819441397209,249.26267771871062 86.81709128501825,248.89791954722023 88.42604207852855,247.8036402634898 89.81840334209846,247.8036402634898 90.18969967914745,247.32945035220473 88.96751590329222,245.3962006566726 87.46685987472301,245.97982555929048 86.04355724959169,244.79433534447162 83.75389650493162,244.73962020879844 81.63441324804444,245.5238687780511 79.87075564742554,245.85215778576094 79.96357973164413,247.32945035220473 79.14363365422469,248.3143048195343 79.74699020176195,249.00734708215168 80.10281585803023,250.02866729156813 81.06199806189397,250.3569474639953 81.91288550075842,249.90100260617328 83.35165880655404,249.73686215333873 84.75949075090466,249.11677454551682 86.90991536929505,248.80672988016158 88.53433684346965,247.73068805690855 88.28680595214246,248.22311483453086 88.68904365052003,247.6212596873811 89.88028606498847,247.7124500003265 90.14328763703816,247.25649793889897 89.18410543317441,245.7062516396254 87.8226855309913,246.41754290073004 86.73973788140574,245.15910245873965 85.59490750910481,244.66666666667152 83.64560173999052,244.7213818262535 81.74270801298553,245.4873921818944 79.91716768953484,245.77920472856204 79.90169700881233,247.4024027337 79.19004569627577,248.13192479983263 79.14363365422469,248.49668464055867 79.76246088248445,249.04382291121874 79.93263837031554,249.8098134855827 80.76805512845749,250.33870969356212 81.86647345864912,249.88276478600164 83.28977608372224,249.73686215333873 84.58931326313177,249.15325035070418 85.8269677197095,248.9891091646423 85.9662038460956,250.02866729156813 89.13769339106511,256.46648874276434 85.90432112320559,257.5971853628871 85.71867295476841,260.46036684379214 84.92966823861934,263.5423354977538 84.52743054029997,263.8523528727528 83.41354152932763,268.6666666666715 79.14363365422469,267.5725165964104 79.79340224392945,264.7824015531369 80.00999177381163,264.6729843294597 79.63869543676265,266.4601233616995" stroke="#4DD2FF" stroke-linecap="round" stroke-linejoin="round" stroke-width="0.5"><title>2025-04-02 6.9km</title><desc>1743601029000</desc></polyline><polyline fill="none" points="111.5602788896067,268.6666666666715 112.13425585196819,268.14928698560107 112.92769459402189,265.30367254938756 115.57811762607889,265.9404572516796 116.67542652471457,260.90581759989436 116.33779301738832,257.18447302315326 113.75489668687806,251.29384748381563 113.73801501141861,250.7565174564661 114.24446527234977,250.0400749610708 115.13919406657806,249.6022476082726 118.00907887838548,249.08481392911926 119.3427312320564,248.01013929639885 119.86606316833058,247.93053351648268 119.88294484373182,247.21407993606408 119.20767782919575,245.84086938467226 118.66746421752032,245.88067273440538 118.14413228130434,245.2836215783318 117.7052087218035,245.3831302398612 116.72607155074365,244.78607745736372 115.67940767819528,244.70647027221275 114.59898045501905,245.0846040926117 113.1471563737723,246.87575365728117 110.95253857655916,247.19417840757524 109.31501606630627,248.5076746346167 110.29415323730791,250.3385930089862 111.40834381128661,250.79631973494543 115.27424746955512,249.50274124533462 117.77273542335024,249.1445178900467 119.68036473932443,247.831026242784 120.94649039162323,247.99023785462487 121.38541395112406,247.5126026027574 120.01799824659247,245.46273713007395 118.51552913925843,246.27870575412817 117.60391866962891,245.22391635538952 116.42220139427809,244.66666666667152 114.21070192166371,244.76617566432105 112.20178255339852,245.6020491044619 110.05780978221446,245.96027940770728 110.19286318519153,247.53250409649627 109.2812527155038,248.70668839049176 110.0240464315284,249.40323482827807 110.36167993879644,250.3982965600735 111.35769878519932,250.8162208708818 112.38748098240467,250.2987906307826 113.3666181534063,250.23908704724454 114.51457207818748,253.48295347946987 115.40930087247398,254.25908475996403 118.36359406093834,253.6421601648326 120.22057835099986,257.542680611441 116.6416631739121,258.75660110331955 116.45596474496415,261.8013170107879 116.08456788701005,262.25901501454064 115.13919406657806,265.6220651779731 114.93661396228708,265.7812612841517 112.92769459402189,265.4230698501342 112.3030726055731,267.8109994788829" stroke="#4DD2FF" stroke-linecap="round" stroke-linejoin="round" stroke-width="0.5"><title>2025-03-25 6.1km</title><desc>1742909450000</desc></polyline></svg>