<?xml version="1.0" encoding="utf-8" ?>
<svg baseProfile="full" height="300mm" version="1.1" viewBox="0,0,200,300" width="200mm" xmlns="http://www.w3.org/2000/svg" xmlns:ev="http://www.w3.org/2001/xml-events" xmlns:xlink="http://www.w3.org/1999/xlink"><defs /><rect fill="#222222" height="300" width="200" x="0" y="0" /><text fill="#FFFFFF" style="font-size:12px; font-family:Arial; font-weight:bold;" x="10" y="20">Over 5km Runs</text><text fill="#FFFFFF" style="font-size:4px; font-family:Arial" x="10" y="280">Runner</text><text fill="#FFFFFF" style="font-size:9px; font-family:Arial" x="10" y="290">Elliont</text><text fill="#FFFFFF" style="font-size:4px; font-family:Arial" x="65" y="280">SPECIAL TRACKS</text><rect fill="yellow" height="2.6" width="2.6" x="65" y="283" /><text fill="#FFFFFF" style="font-size:3px; font-family:Arial" x="70" y="285.5">Over 20.0 km</text><rect fill="red" height="2.6" width="2.6" x="65" y="287" /><text fill="#FFFFFF" style="font-size:3px; font-family:Arial" x="70" y="289.5">Over 40.0 km</text><text fill="#FFFFFF" style="font-size:4px; font-family:Arial" x="120" y="280">STATISTICS</text><text fill="#FFFFFF" style="font-size:3px; font-family:Arial" x="120" y="285">Number: 34</text><text fill="#FFFFFF" style="font-size:3px; font-family:Arial" x="120" y="290">Weekly: 1.8</text><text fill="#FFFFFF" style="font-size:3px; font-family:Arial" x="141" y="285">Total: 222.6 km</text><text fill="#FFFFFF" style="font-size:3px; font-family:Arial" x="141" y="290">Avg: 6.5 km</text><text fill="#FFFFFF" style="font-size:3px; font-family:Arial" x="167" y="285">Min: 5.0 km</text><text fill="#FFFFFF" style="font-size:3px; font-family:Arial" x="167" y="290">Max: 10.1 km</text><polyline fill="none" points="42.571428571420256,49.8094313711772 42.104621522827074,51.41777214166359 34.21677934174659,49.86586471866758 24.55746425804682,45.46398978737125 15.161476227396633,43.432304753223434 11.714285714260768,42.86794214406109 23.947024271299597,45.33701040633605 33.86966640810715,49.8094313711772 40.32117920869496,51.12150034213846" stroke="#4DD2FF" stroke-linecap="round" stroke-linejoin="round" stroke-width="0.5"><title>2025-08-19 5.0km</title><desc>1755607675000</desc></polyline><polyline fill="none" points="78.11093853143393,55.17599757233256 72.50817380499211,54.06875130260596 66.00796023762086,51.063300490954134 64.90921446046559,50.746931459070765 54.651458082546014,48.77948679133988 50.81842892090208,48.88824112767179 49.55193569682888,48.29503407369339 48.67964897293132,47.23713853875961 48.19318137693335,45.655215668572055 51.82491360232234,42.69892339310172 55.246961519063916,39.10971671339212 54.24047683761455,40.00950362213189 51.92556207042071,42.5209495474337 48.142857142869616,45.66510277215275 48.32737933448516,46.41651949156221 49.031918611435685,47.7908050295664 49.62742204792448,48.3444681429537 50.65906884637661,48.848694111373334 51.22941016583354,48.937674873828655 53.20883003924973,48.759713261635625 54.86114239122253,48.77948679133988 59.02127907430986,49.57042444696708 59.38193608511938,49.44189754693798 61.034248437092174,49.74838446966896 61.529103405424394,49.96589069026231 64.03692773659714,50.34158202550316 65.6556905991456,50.86556997524167 66.49442783364793,50.84579689997918 66.47765308895032,51.07318700545147 67.01444491907023,51.05341397538723 66.61185104647302,51.32034951749665 67.22412922768854,51.69603524686681 72.13912942181923,53.91057216163608 73.07851512444904,54.177499302168144 73.37207315649721,54.03909273468162 74.97406127440627,54.157726948287745 74.97406127440627,54.533400935310056 77.69156991422642,55.0771368472997 78.16965013783192,55.1265672232621 78.30384809538373,54.444425657828106 78.75676620198647,54.365336449074675 79.0,53.54478184245818" stroke="#4DD2FF" stroke-linecap="round" stroke-linejoin="round" stroke-width="0.5"><title>2025-08-16 10.0km</title><desc>1755297330000</desc></polyline><polyline fill="none" points="103.14144968328765,46.067906206604675 102.58409570722142,48.90474077640101 115.42857142857974,51.42798115008918 94.1224489795859,47.20264707825845 84.57142857142026,42.85773313562095 93.83110485575162,47.18771633828874 101.87473610136658,48.8002268600103" stroke="#4DD2FF" stroke-linecap="round" stroke-linejoin="round" stroke-width="0.5"><title>2025-08-13 5.0km</title><desc>1755095249000</desc></polyline><polyline fill="none" points="151.68437050073408,52.885988118854584 146.02607582786004,51.75575515687524 139.59030555110076,48.79264712456643 138.38953767396742,48.405705122699146 127.81586946090101,46.36914187434013 124.06670932652196,46.49133692034229 123.2374020156858,46.31822722470679 122.38217885137419,45.809079203121655 121.93297072470887,45.36102665028011 121.51831706927624,44.66857757197431 121.02591585344635,43.283664027418126 122.09710446331883,42.22459864879056 123.34106542952941,41.27753963793657 122.3994560870342,41.939463612077816 121.0,43.29384729012236 121.91569348904886,45.37120968671661 122.63269876819686,46.04328763746162 123.22876339787035,46.34877601781045 124.06670932652196,46.532068566848466 127.00383938566665,46.35895894662099 128.06638937769458,46.43023941729189 138.8819388897682,48.599176323805295 145.86194208925008,51.75575515687524 151.85714285713038,53.00817464778811" stroke="#4DD2FF" stroke-linecap="round" stroke-linejoin="round" stroke-width="0.5"><title>2025-08-12 8.1km</title><desc>1754996616000</desc></polyline><polyline fill="none" points="188.28571428568102,50.7217075769513 182.06383806921076,49.477405197198095 175.03853639547015,46.23994495627994 173.88010899181245,45.85452611778601 167.27520435967017,44.46700613368739 162.29583495523548,43.60805564832117 160.53950953675667,43.5640067087661 158.31607629422797,43.75121456933266 157.42857142857974,43.59704341524048 158.24133904243354,43.75121456933266 160.44608797196997,43.58603118093015 162.31451926822774,43.61906788023043 173.77734527050052,45.86553810499754 175.11327364726458,46.33905242012406 181.77423121832544,49.4113356161688 187.75321136624552,50.64462734344124" stroke="#4DD2FF" stroke-linecap="round" stroke-linejoin="round" stroke-width="0.5"><title>2025-08-10 6.4km</title><desc>1754781124000</desc></polyline><polyline fill="none" points="39.51147410648991,94.33929626717872 34.37512196885655,93.30879804558936 28.551841277861968,90.62208286399255 27.4433883849415,90.25403303443454 17.849806656799046,88.37695396105119 16.991145965090254,88.32174512162601 14.305879801948322,88.4781700730091 13.720429330365732,88.34014807212952 12.90079867010354,87.87087158219947 12.330960211023921,87.22676235131075 11.792345777153969,85.96613435811742 11.714285714289872,85.4876428948046 15.125510462239617,82.6902539407165 17.48292436124757,80.15043898635486 19.707636153383646,78.20871734072716 22.509992410836276,76.37738445209106 22.822232662379974,76.23013988180173 23.610639297461603,76.20253149628115 23.91507354271016,76.00006972673145 24.77373423438985,75.05217407631426 25.65581294495496,73.15635085272515 26.452025586389937,72.40169092914584 30.019370460067876,70.47819793543022 34.429764012864325,68.51784658996621 34.429764012864325,69.18970922020526 35.21036464167992,69.69590356064145 35.444544830330415,69.99041523483902 35.56944093096536,70.46899451431818 38.324961150676245,75.37427573358582 39.45683206245303,77.85901865082269 40.16717863469967,78.84369283884007 40.174984640965704,79.12897013151087 40.49503089880454,79.6167000448695 41.0726753641502,81.30072696079878 41.51761772253667,82.09211599008995 41.892306024354184,83.73008367972943 42.01720212496002,85.38642319945211 41.66593184202793,87.76045320569392 41.75960391748231,87.89847615375766 42.571428571420256,88.14691689200117 42.47775649599498,88.88303330806957" stroke="#4DD2FF" stroke-linecap="round" stroke-linejoin="round" stroke-width="0.5"><title>2025-08-08 10.0km</title><desc>1754654808000</desc></polyline><polyline fill="none" points="79.0,85.7486495978228 70.76736307173269,84.0666668209742 61.32727272727061,79.71066308543959 51.58226990402909,77.61167927077622 48.14285714284051,77.10849325933668 61.1077357425238,79.71066308543959 71.01129305479117,84.21042687026784 78.79265951440902,85.70552210199821" stroke="#4DD2FF" stroke-linecap="round" stroke-linejoin="round" stroke-width="0.5"><title>2025-08-07 5.0km</title><desc>1754573743000</desc></polyline><polyline fill="none" points="115.42857142852154,85.76402904756833 107.27121501625516,84.13291047577513 97.94852197368164,79.85470502798853 96.75890749687096,79.49698923110554 84.57142857142026,77.09311380957661 87.81252107443288,77.77993984711065 88.07957738556433,77.6654690902069 88.79577385634184,77.96595461432298 97.280881195853,79.69731019737083 107.38046532531735,84.2473755976389 114.88231988303596,85.74972107792564" stroke="#4DD2FF" stroke-linecap="round" stroke-linejoin="round" stroke-width="0.5"><title>2025-08-04 5.0km</title><desc>1754309955000</desc></polyline><polyline fill="none" points="151.85714285710128,85.01945092346432 145.68945794878528,83.78391574908892 138.5764981151442,80.51850024252053 137.50955414009513,80.16547604445077 126.22240998310735,77.93698239562946 124.23826855584048,77.83769193368062 121.82360587548465,78.02524050230568 121.0,77.84872421202454 121.17782399588032,77.98111145859002 122.3102820746135,78.05833727250138 125.57662810350303,77.88182103989675 130.05966463021468,78.7643991266159 130.78031977126375,78.77543130404229 132.02508774207672,79.15052462127642 137.38788509031292,80.1765080692785 138.87599116074853,80.70604384726903 145.57714805670548,83.77288411717745 151.22072013519937,84.90913589558477" stroke="#4DD2FF" stroke-linecap="round" stroke-linejoin="round" stroke-width="0.5"><title>2025-08-03 6.5km</title><desc>1754227262000</desc></polyline><polyline fill="none" points="184.7116223720368,85.04269579837273 176.52303507679608,83.41241729656758 166.20468068227638,78.8244462274888 157.42857142857974,77.0353830003587 166.9635632119025,79.02643571898807 176.84127613762394,83.54226322226168 188.28571428573923,85.82175985677168 184.96866322890855,85.07155010444694 184.96866322890855,84.85514265569509" stroke="#4DD2FF" stroke-linecap="round" stroke-linejoin="round" stroke-width="0.5"><title>2025-08-01 5.0km</title><desc>1754057984000</desc></polyline><polyline fill="none" points="39.619264562323224,128.59471422094066 34.35535307516693,127.55448865579092 28.560364464705344,124.88482463958644 27.318581191037083,124.48897072792897 17.946631955739576,122.67538375434378 16.236251220310805,122.62014699218707 14.533680442575132,122.7674449443657 13.72144484220189,122.62014699218707 13.049788480333518,122.24269481797091 12.55776114546461,121.7731787852681 11.99544419135782,120.70525025236566 11.714285714289872,119.77540493620472 15.158477058284916,116.92136036887678 17.548324113246053,114.37105189889553 19.735112268157536,112.4559682218387 21.383013342041522,111.50761744682677 22.671656361868372,110.55925602696516 23.5854214123392,110.46718153576512 23.913439635565737,110.26461730192386 24.913114220660646,109.11367493581929 25.69410999023239,107.38262809156731 26.45948584447615,106.69204099518538 30.11454604624305,104.6847024476956 34.39440286363242,102.83385720762453 34.46469248292851,103.43239368726063 35.08948909860919,103.8651789612486 35.73771558739827,105.02540088317619 36.13602342989179,106.13956725336902 37.120078099600505,108.17449434746231 39.68174422389711,112.97157194334432 40.02538236253895,114.00276994736487 41.04067686302005,116.12957608634315 41.72795314027462,118.49570009885065 41.774812886462314,119.9687399533068 41.68109339408693,120.50271055997291 41.92320208266028,120.67763123199256 41.696713309473125,122.06777738517121 42.57142857144936,122.39919958257087 42.54018874061876,122.85029992966884" stroke="#4DD2FF" stroke-linecap="round" stroke-linejoin="round" stroke-width="0.5"><title>2025-07-28 10.0km</title><desc>1753704756000</desc></polyline><polyline fill="none" points="75.97016384016024,119.49785745794361 67.77470537507907,117.85859811390401 58.38718022417743,113.5554472040094 56.85984478291357,113.04315815577866 48.14285714284051,111.3013607840112 57.81598160386784,113.37980546463223 65.89968381717335,117.18532509106444 67.99821787863038,117.9756887301337 79.0,120.127210644554 76.09433745325077,119.46858514500491 76.24334578897106,118.51723150316684" stroke="#4DD2FF" stroke-linecap="round" stroke-linejoin="round" stroke-width="0.5"><title>2025-07-22 5.0km</title><desc>1753194638000</desc></polyline><polyline fill="none" points="102.12302999489475,117.34307804885611 112.34468734107213,119.37084833435802 115.42857142852154,119.5542084944318 112.73817996948492,119.40320603432338 95.8912048805505,116.10266618693277 88.54295882052975,112.76965649383783 84.57142857142026,111.87436293414066 88.49720386374975,112.79122973277117 95.38790035585407,115.97323101063375 98.22470767667983,116.57726038624241" stroke="#4DD2FF" stroke-linecap="round" stroke-linejoin="round" stroke-width="0.5"><title>2025-07-19 6.4km</title><desc>1752877000000</desc></polyline><polyline fill="none" points="149.0312534070108,128.67875707601343 143.77980884542922,127.63323908875464 137.81404222844867,124.90372883603413 136.7935821492283,124.57988281700091 127.09921139662038,122.7108045261557 123.739542828087,122.82184002900613 123.00952138678986,122.68304562777485 122.32659810298355,122.2851670873788 121.65937420504633,121.58193534194288 121.0784969291708,120.27723997304565 121.0,119.80532394702459 124.43031580478419,116.96451913848432 126.6988770578464,114.50302836752962 128.93603953922866,112.55044171329791 131.66773267436656,110.72737004502414 132.14656394228223,110.49601297381014 132.87658538360847,110.4589957839271 133.3946651161241,110.13509468406846 134.24243195116287,109.12636620063859 135.00385216416907,107.39576740142365 135.812370534637,106.64613879140961 139.78431515066768,104.48050785073428 143.84260638881824,102.74981435255904 143.85045608170913,103.41618180149817 144.4784315150755,103.83265880107501 144.89446523966035,104.60082212995621 145.75008176764823,106.56284631509334 148.38757858780446,111.52323355633416 149.07835156450165,113.17971624869824 149.2667441945232,113.35554212366696 150.45204782500514,116.39079458307242 150.71893738416838,116.77019351343188 151.14282080170233,118.3525463877886 151.22131773090223,119.39817860209587 151.0957226442115,120.98973567232315 150.7110876912775,122.47948009573884 151.8571428571595,122.73856341547071" stroke="#4DD2FF" stroke-linecap="round" stroke-linejoin="round" stroke-width="0.5"><title>2025-07-17 10.0km</title><desc>1752756134000</desc></polyline><polyline fill="none" points="188.28571428573923,120.06858522719995 180.10509679967072,118.43037781595194 169.72997685841983,113.81742136590765 157.42857142857974,111.35998620136525 170.27860247227363,114.04735447830171 179.87345487391576,118.41600748548808 187.90777219616575,120.05421507515712" stroke="#4DD2FF" stroke-linecap="round" stroke-linejoin="round" stroke-width="0.5"><title>2025-07-14 5.0km</title><desc>1752500928000</desc></polyline><polyline fill="none" points="42.57142857136205,154.3225582956511 34.39271752478089,152.71586118545383 25.9365575783886,148.7914559142082 23.934100301528815,148.06628115763306 11.714285714260768,145.6774417043489 24.7302580139949,148.27956826887385 34.53747347253375,152.77273575696745 41.70289288501954,154.20881047799776" stroke="#4DD2FF" stroke-linecap="round" stroke-linejoin="round" stroke-width="0.5"><title>2025-06-21 5.0km</title><desc>1750468889000</desc></polyline><polyline fill="none" points="69.25489360306528,151.89502913791512 77.27902554179309,153.49776551027026 79.0,153.58958793339116 77.51982032196247,153.49776551027026 64.40358700283105,150.93504078497062 62.994229318981525,150.38408551766042 58.78032066623564,148.38057843456772 58.03668972753803,148.13848444902396 49.43889963606489,146.4688499334443 48.142857142869616,146.41041206660884 49.29017344833119,146.43545687215374 52.64005377222202,147.05322615118348 58.667005475610495,148.35553426459956 63.150037706131116,150.47591167056817 64.29735401159269,150.91834522899444 65.54382110887673,151.1687781868386" stroke="#4DD2FF" stroke-linecap="round" stroke-linejoin="round" stroke-width="0.5"><title>2025-06-17 8.1km</title><desc>1750165544000</desc></polyline><polyline fill="none" points="115.42857142857974,154.3038875000493 107.64865760685643,152.75678069112473 97.50613191910088,148.22787058810354 84.57142857142026,145.69611249996524 97.5299966854509,148.2841313152021 107.48160424258094,152.74271599877102 114.04441498173401,154.07885493413778" stroke="#4DD2FF" stroke-linecap="round" stroke-linejoin="round" stroke-width="0.5"><title>2025-06-15 5.0km</title><desc>1749939796000</desc></polyline><polyline fill="none" points="142.32222661352716,151.7687179007553 149.60474873069325,153.2238446634874 151.85714285713038,153.36316374838498 150.0841212416126,153.25480448373128 137.89623932144605,150.8863392908388 136.7076581643487,150.4374056181623 132.73477639615885,148.5487570401092 131.84826558842906,148.2546187282278 123.83683458488667,146.70650228451996 122.86495606970857,146.6368362516223 121.0,146.78390890767332 123.64639892987907,146.69102094978734 131.50679475875222,148.20817572560918 132.45897303376114,148.4713523392129 134.73106740036746,149.54727012324292" stroke="#4DD2FF" stroke-linecap="round" stroke-linejoin="round" stroke-width="0.5"><title>2025-06-11 8.1km</title><desc>1749642919000</desc></polyline><polyline fill="none" points="188.28571428573923,154.29441378919 180.26931811886607,152.7431077760557 170.1949814435211,148.24421524399077 157.42857142857974,145.70558621081 170.33855868829414,148.30062865721993 180.3530715116067,152.81362208888459 186.95762477151584,154.13928402413148" stroke="#4DD2FF" stroke-linecap="round" stroke-linejoin="round" stroke-width="0.5"><title>2025-06-08 5.0km</title><desc>1749387304000</desc></polyline><polyline fill="none" points="23.66873126849532,192.57868269001483 26.991808191640303,190.594513378368 33.98321678303182,189.32260553873493 37.522077922010794,186.67702613427537 41.363036962924525,186.7787794653268 42.398801198694855,185.91387544348254 35.58001997997053,174.822611274285 30.96223776205443,175.73841370787704 26.56023976020515,178.3331775146362 24.100299700163305,178.3331775146362 20.173026972915977,180.16476681409404 13.742657342460006,181.48757683951408 13.958441558293998,185.65949160273885 11.714285714318976,188.4577062287135 13.613186812959611,190.5436371312244 14.43316683312878,193.13831866392866 15.641558441566303,193.90145754712285 23.15084915072657,192.32430248026503 27.121278721140698,190.5436371312244 32.90429570409469,189.78049276015372 37.737862137844786,186.67702613427537 41.14725274709053,186.829656122718 42.52827172819525,185.65949160273885 35.58001997997053,174.66997736072517 30.444355644052848,175.78929156812956 26.646553446305916,178.28229993156856 23.19400599389337,178.6384428968886 18.964635364478454,180.52090834346018 13.872127871960402,181.38582235519425 14.001598401460797,185.91387544348254 11.714285714318976,188.4577062287135 13.742657342460006,190.64538961998187 14.778421578230336,193.2909465401608 16.24575424566865,194.0032093040354 28.0707292703446,190.39100835678983 33.03376623359509,189.83136909030145 37.3062937061768,186.9314094207075 41.27672327659093,186.88053277452127 42.57142857136205,185.60861481787288 35.10529470513575,174.51734339722316 30.012787212617695,176.09455861357856 26.473926073871553,178.28229993156856 14.087912087561563,181.13143604746438 14.044755244860426,185.65949160273885 11.757442557252944,188.35595326352632 13.699500499293208,190.5436371312244 14.43316683312878,192.9856907375506 16.634165833937004,194.0540851741971 34.06953046936542,188.76296499170712 36.227372627239674,185.86299868649803 35.58001997997053,182.9630143699178 32.73166833166033,179.4016054791573 30.314885114785284,178.1805447488441 28.243356643244624,178.07878954373882 25.869730269536376,179.04546309600119 22.028771228855476,183.6752928882488 15.900499500567093,184.69283174388693 12.232167832087725,187.59280531675904 12.10269730258733,188.81384143271134 14.17422577412799,191.30678025519592" stroke="#4DD2FF" stroke-linecap="round" stroke-linejoin="round" stroke-width="0.5"><title>2025-06-04 6.4km</title><desc>1749041988000</desc></polyline><polyline fill="none" points="79.0,188.6083344052895 71.09128676675027,187.0288230002916 62.08181465684902,182.86841057889978 60.71783083147602,182.41710356803378 48.14285714284051,179.9630941661453 61.07677394343773,182.55813717786805 70.91181521082763,187.00061726440617 77.48047415941255,188.35448565729894" stroke="#4DD2FF" stroke-linecap="round" stroke-linejoin="round" stroke-width="0.5"><title>2025-05-28 5.0km</title><desc>1748436903000</desc></polyline><polyline fill="none" points="115.42857142852154,188.5948230346694 106.8598553345073,186.8395724336151 96.93625678116223,182.35062874708092 84.57142857142026,179.96221833310847 96.53345388785237,182.26430141204037 98.0226039782865,182.73910105660616 107.58001808321569,187.11293266687426 115.28209764917847,188.6092102383118" stroke="#4DD2FF" stroke-linecap="round" stroke-linejoin="round" stroke-width="0.5"><title>2025-05-27 5.0km</title><desc>1748351986000</desc></polyline><polyline fill="none" points="143.85116006317548,190.65112630651856 143.89239666669164,188.8037984491093 144.86145684949588,186.61007036053343 145.5006242041709,182.54005194648926 145.45938760053832,182.91530597805104 144.53156402125023,183.0307685891603 140.01615593524184,186.23482454268378 138.304836888914,186.63893538895354 137.62443293072283,185.51319562511344 138.40792839764617,184.2431212374213 139.85120952117722,183.11736549566558 139.62440820178017,181.18335733370623 140.30481215997133,179.94211654034734 139.39760688238312,179.42252466084028 136.07806029857602,179.4802571709588 135.21209162450396,178.21013738887268 135.50074784923345,176.70907441528107 136.13991520379204,176.91114136231772 136.07806029857602,175.9296710678318 137.0265021796804,176.50700722633337 138.7584395277081,176.44927369934157 140.1398657457903,177.37300776148913 142.01613120629918,177.43074097261706 142.77900837152265,177.05547474787454 144.6552738319151,174.42858781386167 144.73774703894742,170.04072945012012 144.05734308075625,169.26129530987237 142.98519138910342,168.8571428571595 141.66562007623725,169.23242730964557 140.49037687585223,170.53148243261967 139.5831715981476,170.84902771975612 137.72752443957143,170.5026146495802 135.76878577203024,169.4345032076817 133.9749935187865,170.04072945012012 133.06778824108187,171.42638125672238 133.10902484471444,172.89862383702712 133.89252031163778,173.99558054823137 135.66569426329806,174.83272692620812 136.07806029857602,175.84307047376933 135.27394652971998,177.71940673155768 135.85125897917897,179.45139091843157 135.9955870915437,181.8472730811627 135.23270992620382,184.44517916567565 135.83064067736268,185.16681264889485 137.58319632720668,185.59979125806422 138.26360028539784,186.63893538895354 136.69660935143474,189.17903855629265 134.75848898559343,189.9583807290619 131.52141560893506,192.32524971527164 129.17092920804862,193.33548856743437 128.6348533621058,194.720949162147 127.31528204935603,196.16412519050937 128.4492886463413,199.3967947235651 129.48020373436157,199.62769732151355 130.8410116507439,198.79067390142882 132.42862088652328,199.45452040275268 133.58324578520842,199.3102061679674 134.49045106279664,198.357729124662 135.15023671928793,195.96208128922444 136.71722765313461,195.09617611640715 140.30481215997133,196.22185197504587 141.66562007623725,195.55799276131438 143.78930515784305,195.44253871860565 143.9130149683915,189.03471553695272 145.54186080768704,183.31942477138364 145.2944411864737,182.91530597805104 144.67589213361498,182.97303729350097 140.0367742369417,186.26368963519053 138.36669179424644,186.61007036053343 136.5316629372537,189.26563230877218 134.57292426982895,190.04497408172756 131.5007973072352,192.32524971527164 129.29463901859708,193.19116910157027 128.6348533621058,194.8075400718226 127.31528204935603,196.2795787397481 128.3461971374927,199.2524804395216 129.02660109568387,199.71428571428987 130.71730184019543,198.79067390142882 132.65542220592033,199.48338323483767 133.95437521697022,198.96385150129208" stroke="#4DD2FF" stroke-linecap="round" stroke-linejoin="round" stroke-width="0.5"><title>2025-05-23 6.4km</title><desc>1747958832000</desc></polyline><polyline fill="none" points="175.66066305723507,185.72675422931206 176.4957541807089,186.52009834515047 178.58348198921885,186.85413720172073 179.62734589353204,188.1902880580601 179.35892374662217,193.45131098118145 178.8519041360123,194.41164420102723 177.03259847441223,194.95443956766394 175.24311749555636,194.3281371145422 173.5729352486087,194.7039187791088 170.73959036567248,193.03377362062747 169.03958343574777,193.70183305487444 167.78694675071165,193.49306467805582 168.14484294631984,192.28220457227144 167.25010245712474,189.94397496087186 167.51852460380178,188.27379724377533 166.56413474853616,186.6871178304864 166.98168031021487,184.18181355339766 173.00626627204474,183.931281711848 175.06416939769406,184.6828764652746 176.13785798486788,186.39483365601336 178.4343585743336,186.81238236959325 179.44839779555332,187.77274170081364 179.35892374662217,193.57657205013675 178.9115535019664,194.41164420102723 177.151897206204,194.91268612079148 175.4518902762793,194.3698906613572 173.5132858826546,194.6621652894246 170.67994099971838,193.07552738877712 167.07115435914602,193.82709399529267 165.1325499654049,195.41372701233195 165.75886830803938,195.8730135931546 166.2360632356722,198.37819791736547 169.15888216765597,199.71428571428987 170.4115188528085,198.83747892206884 171.24660997639876,197.1256089679664 171.12731124437414,195.78950700630958 169.57642772933468,193.32604984789214 171.12731124437414,193.07552738877712 173.54311056574807,194.6621652894246 175.4518902762793,194.11936927310308 175.2132928125793,193.49306467805582 173.2746884189546,193.53481836766878 172.230824514525,192.19869675743394 173.2150390528841,188.27379724377533 170.65011631662492,184.3488346383092 170.82906441448722,181.2171702843043 171.5150321230758,179.88098126805562 172.88696754002012,179.0876155799051 175.48171495937277,179.92273728561122 177.59926745085977,179.3799085018254 175.2132928125793,181.71823928026424 172.73784412525129,181.59297212770616 171.24660997639876,180.4655648625776 168.95010938693304,179.9644932958472 169.00975875277072,174.87020732970268 170.02379797410686,172.74059726567066 170.08344733994454,169.56702623360616 170.70976568269543,168.94065865554148 172.61854539334308,168.85714285714494 178.10628706158604,169.65054178930586 179.23962501471397,170.652726228931 179.62734589353204,172.74059726567066 180.58173574891407,173.7845260886388 179.9554174062796,174.6196659333218 180.34313828509767,175.1625053005264 178.46418325731065,176.2899370528612 178.25541047635488,178.92059089595568 175.48171495937277,181.6347278523026 173.30451310181525,181.71823928026424 171.15713592723478,180.34029706724687 169.06940811872482,180.0897612838744 168.9799340699101,175.1625053005264 170.26239543792326,170.9032716959773 171.60450617200695,170.40218050465046 171.634330854984,169.14944802684477 177.74839086574502,169.52526844514068" stroke="#4DD2FF" stroke-linecap="round" stroke-linejoin="round" stroke-width="0.5"><title>2025-05-20 5.0km</title><desc>1747754393000</desc></polyline><polyline fill="none" points="38.48296473408118,220.7277598384535 41.36640765098855,221.08290314814076 42.57142857136205,219.81453294170205 35.42737597133964,209.05861470743548 30.43514644354582,210.2762783006474 26.56186491344124,212.55938895474537 24.15182307222858,212.6608602795459 18.29886431572959,214.89322382994578 13.607890017796308,215.55278373972396 13.995218171039596,219.86526781623252 11.714285714318976,222.80788108421257 13.607890017796308,224.48211826389888 14.296473401132971,226.81589337909827 15.329348475672305,227.8305745635007 17.265989240957424,228.1349784876511 26.9491930664517,224.9894616753445 32.71607890026644,224.1777119518083 37.70830842806026,220.87996414734516 41.36640765098855,220.98143365888973 42.485355648677796,220.01747240690747 35.59952181717381,209.1093507539772 33.705917513463646,209.1600867950183 26.734010759042576,212.45791760794236 23.54931261204183,212.8130672253319 19.546921697445214,214.63954669272061 13.263598326360807,215.80646037930273 14.167364016873762,219.1549790688441 11.714285714318976,222.7571465302899 13.521817095112056,224.27918074451736 14.081291093956679,226.41002028633375 15.372384937247261,227.77984055684647 17.265989240957424,228.03351053516963 27.76688583381474,224.58358699042583 33.40466228337027,223.87330544061842 37.49312612065114,220.98143365888973 41.409444112330675,220.98143365888973 42.485355648677796,219.91600268537877 35.59952181717381,209.1600867950183 34.093245666474104,209.00787865521852 30.219964136369526,210.2762783006474 26.863120143534616,212.45791760794236 24.108786610653624,212.55938895474537 18.944411237491295,214.74101756417076 13.82307232520543,215.6542544120457 14.081291093956679,219.66232828475768 11.800358637236059,222.65567740573897 13.521817095112056,224.38064951528213 14.726838015485555,227.37396830428042 17.43813508679159,227.98277655048878 26.174536760430783,225.04019598598825" stroke="#4DD2FF" stroke-linecap="round" stroke-linejoin="round" stroke-width="0.5"><title>2025-05-14 5.0km</title><desc>1747227249000</desc></polyline><polyline fill="none" points="59.070183999836445,233.66539895212918 59.69873616984114,233.09179596875038 60.611150610027835,229.69794763522805 63.3483939304715,230.1281566673424 64.82853291113861,224.2007579755009 64.54467064095661,220.40044634457445 61.68577206169721,213.25377007899806 61.80742732039653,211.6523090198316 63.79446321236901,210.57669428296504 66.75474117381964,210.07473893417045 68.66067355987616,208.76008852993255 70.22191604634281,208.90350532054435 70.80991646333132,208.28203188408224 67.66715561388992,203.26237420194957 66.87639643240254,203.14285714285506 64.7068776525557,203.93166852966533 63.3483939304715,204.86389651150967 62.17239309649449,204.8877997410309 59.77983967564069,205.84392678485892 57.3264586252626,206.20247335192107 57.48866563697811,208.06690605352924 56.33294067950919,209.52497699628293 56.535699443891644,210.0508362698165 57.22507924307138,210.50498644627805 57.914459042367525,212.1064558809303 58.786321729654446,212.20206562662497 66.57225828571245,209.85961486167798 67.44412097299937,209.09472756204195 67.76853499619756,208.06690605352924 67.3832933435915,206.72834059008164 66.02480962162372,205.27025105862413 64.36218775284942,204.7443803250062 62.902324648573995,205.15073509352806 60.9558405096177,207.34981842820707 58.17804543627426,207.82787710556295 56.57625119679142,209.26204688670987 56.61680294969119,210.0508362698165 58.786321729654446,211.72401648151572 61.25997865619138,211.46108900764375 66.511430656421,209.85961486167798 67.64687973749824,208.80789413720777 67.7077073669061,207.66055668699846 66.87639643240254,206.15466717684467 64.90963641693816,204.81609004471102 62.17239309649449,204.91170296791825 59.5973567875335,205.93953926005634 57.285906872479245,206.39369794800587 57.46838976047002,208.16251755980193 56.353216555784456,209.62058786708803 57.24535511957947,210.50498644627805 57.691424401360564,211.79572391965485 58.72549410024658,212.22596805657668 59.942046687123366,211.60450403246796 62.19266897288617,211.22206375797396 61.66549618530553,212.20206562662497 61.72632381459698,212.96694209202542 64.28108424704988,219.37267780273396 64.88936054054648,222.33646238181973 64.66632589965593,225.65872169645445 63.652532077161595,229.45894225298252 61.03694401530083,229.0765330997965 60.00287431653123,232.5659919166792 59.21211513504386,232.90059464098886 58.88770111184567,234.0 58.46190770645626,233.83269953986746" stroke="#4DD2FF" stroke-linecap="round" stroke-linejoin="round" stroke-width="0.5"><title>2025-05-06 7.1km</title><desc>1746539597000</desc></polyline><polyline fill="none" points="96.36210698785726,234.0 96.15303267678246,233.75355387032323 97.13568193872925,230.4757948192273 99.62366624013521,231.06727364783 100.06272229342721,230.3032798696222 101.35898302181158,224.85666882561054 101.31716815964319,222.14563707810885 97.61655285418965,211.89271415969415 96.61299616110045,211.67089098028373 95.19129084597807,212.3610068243288 94.31317873951048,212.18847806066333 92.6614916822873,209.6251780717139 93.7904929619981,208.39281196848606 93.5186963576125,206.421012237799 94.98221653490327,206.3470694134885 99.8745554133784,204.96679892348766 101.46352017729077,203.98088627388643 104.07694906531833,203.19215306005208 107.4430454733083,208.34351718463586 107.0248968511587,209.00899585935986 105.18504291400313,208.83646453908295 103.21974439010955,210.26600579208753 100.2299817422172,210.7096546888497 98.47375752928201,211.5476557865186 96.23666240123566,211.8434201386699 94.87767937942408,212.4103007325466 93.9995672730729,212.04059615853475 93.4977889264701,210.66036040995095 92.7033065444557,210.06882822529587 92.7033065444557,209.6005308154563 93.7904929619981,208.1463379421184 93.4977889264701,206.44565984049405 95.79760634794366,206.149888430562 99.8118331200676,204.86820785190503 103.61698558111675,203.14285714285506 104.20239365205634,203.3400407471927 107.4221380421659,208.34351718463586 107.1085265756119,208.95970120988204 105.33139493165072,208.83646453908295 102.75978090579156,210.43853602197487 100.66903779527638,210.58641897141933 94.98221653490327,212.3610068243288 94.10410442855209,212.11453712169896 93.53960378863849,210.66036040995095 92.7033065444557,210.01953380681516 93.7695855308557,208.195632768824 93.5186963576125,206.421012237799 95.71397662360687,206.149888430562 99.64457367127761,204.9421511596738 101.04537155525759,204.07947773222986 103.65880044328514,203.14285714285506 104.13967135874555,203.3400407471927 107.4012306110235,208.31886978875264 107.0876191444695,208.9350538809813 105.18504291400313,208.81181719688175 103.15702209691517,210.29065297587658 100.2090743110748,210.7096546888497 98.09742376953363,211.62159691084526 96.36210698785726,211.76947908685543 95.02403139707167,212.3856537797983 94.04138213512488,212.01594916547765 93.5186963576125,210.66036040995095 92.6823991133133,210.04418101740885 92.6614916822873,209.6251780717139 93.4977889264701,208.81181719688175 92.5151396645233,209.7237670699251 93.4350666331593,210.8082432144438 93.8532152553089,211.94200817005185 94.75223479280248,212.48424157497357 99.95818513771519,210.8575374610955 103.07339237234555,210.48783034921507 105.08050575840753,208.95970120988204 106.9412671267055,208.95970120988204 107.4848603354767,208.39281196848606 103.99331934109796,203.14285714285506 101.33807559066918,203.9315905286494 99.686388533446,204.99144668465306 98.20196092501283,205.09003770258278 95.92305093456525,206.02665022897418 93.2259923220845,206.56889781383506 93.6859558065189,208.1463379421184 92.61967682011891,209.4526472214202 92.5778619578341,210.0934754305781 93.41415920201689,210.73430182423908 93.7904929619981,211.89271415969415 94.58497534401249,212.3856537797983 97.61655285418965,211.86806715052808 100.8781121064676,220.34647989386576 101.25444586621597,222.26886649872176 101.33807559066918,224.75808642219636 99.853647982236,230.8454692683008 97.01023735210765,230.50043980126793 96.38301441888325,233.48246281764295 96.04849552130327,233.75355387032323" stroke="#4DD2FF" stroke-linecap="round" stroke-linejoin="round" stroke-width="0.5"><title>2025-04-29 10.1km</title><desc>1745929124000</desc></polyline><polyline fill="none" points="150.67186632967787,215.62814141405397 150.1524754917482,215.18859242422332 150.44546519516734,213.57166853347735 149.71299093659036,215.9891985100403 149.15364695730386,216.0676890634204 147.48893273319118,222.5979533919308 147.3024847401539,222.64504556989414 138.8191010543378,220.96541504572087 128.0051174548571,216.09908527278458 121.0,214.60775777451636 127.95184659963707,216.1147833749128 136.48850114061497,220.11774361172866 138.91232505085645,221.0282053239789 151.8571428571595,223.5711886093777 147.42234416428255,222.61365078628296 147.7020161538967,221.46773650616524 148.4877612676355,221.27936616363877 150.27233491581865,213.77574730635388 150.61859547445783,213.65016040341288 150.1524754917482,214.87462803936796" stroke="#4DD2FF" stroke-linecap="round" stroke-linejoin="round" stroke-width="0.5"><title>2025-04-22 6.3km</title><desc>1745328842000</desc></polyline><polyline fill="none" points="168.38046735478565,233.0932365685585 168.89330846257508,232.866545155106 169.96172743686475,229.3653939953365 172.6968800110044,229.76840690041718 174.1285614365479,224.554373201594 173.89350926224142,219.28984308328654 170.9233045136789,212.0099843430653 170.859199375147,210.7504699522833 172.46182783669792,209.4405677070754 175.83803179534152,208.88637606146222 178.27402705675922,207.29936536352034 179.87665551819373,207.4505097088695 180.53907528228592,206.87112251512008 179.107393856626,204.62913230223057 177.18423970299773,205.61158012801025 175.6457163799787,203.8230181473773 174.00035115960054,203.14285714286962 170.9233045136789,203.39476885939075 168.8292033240432,204.32683982353774 166.00857723189984,204.8054693988961 166.43594482168555,206.56883296805609 165.19657881150488,208.3573737059778 166.11541912937537,209.13828151958296 166.58552347810473,210.44818547753675 167.54710055491887,210.95199271594174 171.05151479062624,210.12071018382267 173.08151084173005,209.23904362598842 175.7525582773378,208.88637606146222 177.95350136444904,207.4001282714744 179.87665551819373,207.4253189916344 180.51770690269768,206.82074095138523 179.12876223621424,204.62913230223057 177.20560808246955,205.56119828982628 175.6457163799787,203.79782703478122 174.1285614365479,203.1680483268865 170.81646261631977,203.39476885939075 168.87194008310325,204.3016487658315 166.54278671916109,204.65432332425553 166.2222610268509,204.9062333937909 166.3932080627419,206.64440539186762 165.19657881150488,208.23142058579833 166.07268237043172,209.13828151958296 166.52141833968926,210.4733758654911 167.44025865755975,211.00237337933504 173.1242476007901,209.2138531035598 175.66708475956693,208.93675717507722 177.97486974392086,207.4001282714744 179.96212903608102,207.4001282714744 180.49633852334227,206.7703593767219 179.08602547715418,204.57875024991517 177.09876618499402,205.53600736653607 175.62434800050687,203.79782703478122 174.3208768517943,203.2436218623916 171.45751400082372,203.26881303539267 168.6582562882686,204.32683982353774 166.50004996010102,204.65432332425553 166.20089264726266,204.8810423991963 166.35047130379826,206.87112251512008 165.17521043203305,208.3069924661395 166.1367875088472,209.18866257836635 166.5641550985165,210.4733758654911 167.26931162155233,210.9268023801269 175.85940017492976,208.55889855552232 176.9064507696312,207.70241673156852 177.26971322088502,206.41768804633466 176.97055590816308,205.46043458035274 175.92350531334523,204.175693436031 174.27814009296708,203.1932395081676 171.4361456213519,203.29400420570164 168.5727827702649,204.40241298030014 166.17952426790725,204.8054693988961 166.43594482168555,206.51845133844472 165.19657881150488,208.25661121528537 166.24362940632273,209.54132968177146 165.83763019612525,210.32223349632113 166.90604917041492,212.51378817818477 167.7394159702817,216.19152291689534 168.10267842153553,220.32260724596563 168.01720490353182,223.04303710800014 165.92310371412896,233.2947398605611 167.44025865755975,234.0" stroke="#4DD2FF" stroke-linecap="round" stroke-linejoin="round" stroke-width="0.5"><title>2025-04-15 8.8km</title><desc>1744723077000</desc></polyline><polyline fill="none" points="42.36864340491593,249.56062923680292 41.47300891880877,249.50087109686865 42.132060710398946,247.56868071573263 41.3547175716958,250.79562642420933 41.54060397442663,251.2936068016861 40.50977937725838,254.71967504413624 39.512752307986375,254.7395938578702 39.52965107181808,255.57618207695486 38.380535127653275,259.3009450822865 27.176654670678545,257.0700800932682 14.33359411667334,251.11433402200055 11.714285714260768,250.35740257037105 14.519480519520584,251.25376842137484 27.159755906730425,257.0899986510922 38.41433265537489,259.2810267652676 38.78610546083655,257.7871468071389 39.63104365521576,257.687554376098 40.35769050224917,255.57618207695486 42.571428571420256,246.41334063200338 41.97997183550615,249.70006482081953" stroke="#4DD2FF" stroke-linecap="round" stroke-linejoin="round" stroke-width="0.5"><title>2025-04-11 5.1km</title><desc>1744377642000</desc></polyline><polyline fill="none" points="57.02203621901572,268.2857142857101 58.06567922793329,267.13084275375877 58.34256410796661,267.9844440090819 59.386207117000595,267.13084275375877 60.557643147418275,263.59087439847644 63.305193109903485,264.2185323273734 63.79506635898724,264.0427882795775 65.07299657410476,258.54444253513066 65.15819192188792,255.53159471804975 64.62572099885438,252.84510553102882 61.55868848261889,246.1664079289185 61.47349313495215,245.03653392948036 62.96441171923652,243.78111187717877 66.39352446305566,243.2287240074511 68.77899419795722,241.5966612024058 70.33380929299165,241.7473136378394 71.12186625902541,241.09448570603854 69.43925814237446,238.45804639584094 67.67145467817318,239.48751676372194 65.58416866022162,237.72988165119023 63.7098710113205,237.62944495408738 62.7088256762363,238.10651887531276 60.685436168918386,240.3161115240655 57.78879434801638,240.7429622074851 56.10618623148184,242.1992703533615 56.0209908838151,242.67633481367375 56.89424319751561,243.40448392779217 57.256323425099254,244.58458277847967 58.2147710864665,245.1369673981244 66.6278116692556,242.77676931097812 67.77794886287302,241.67198743241897 67.90574188425671,240.44165592479112 66.64911050605588,238.48315548388928 64.62572099885438,237.4285714285652 61.89946987328585,237.5792265891214 59.237115258467384,238.60870088325464 56.93684087134898,239.01044570167142 57.12853040359914,240.7680710466375 56.0209908838151,242.12394429567212 56.0209908838151,242.60100891187903 56.89424319751561,243.32915826408134 57.81009318504948,245.11185903500882 58.747242009383626,245.1369673981244 60.00387338758446,244.48414906905964 61.154010581201874,244.58458277847967 64.51922681427095,253.49790017629857 64.92390471568797,255.83288127214473 64.79611169418786,258.24315952575125 63.603376826737076,263.3398107483954 60.85582686425187,262.9130019155127 59.76958618150093,266.2270262144011" stroke="#4DD2FF" stroke-linecap="round" stroke-linejoin="round" stroke-width="0.5"><title>2025-04-08 5.6km</title><desc>1744119870000</desc></polyline><polyline fill="none" points="95.64389833225869,265.6831929619948 96.47931509045884,264.4639829607768 97.1158230965957,261.7441819198575 99.76130949752405,262.2365622420184 101.17356163647491,256.7968695047748 101.23323426197749,254.59281693365483 100.85530763329007,252.43563724345586 98.15014860685915,245.72948403769988 98.15014860685915,244.4398152337526 99.64196424651891,243.33772849549132 102.76483165216632,242.86875370357302 104.83348267234396,241.46182319590298 106.62366143986583,241.46182319590298 107.10104244458489,240.85215045281802 105.52966330421623,238.36654370142787 103.60024841025006,239.11691857622645 101.77028789231554,237.5927168714552 98.82643836340867,237.52236883986916 96.101388461655,238.53068842891662 93.83382868941408,238.95277429597627 93.95317394065205,240.85215045281802 92.89895755541511,242.11839191081526 93.67470168799628,243.00944624847034 94.1321918173926,244.32257223200577 95.3654260794865,244.74464673941839 96.4594242151361,244.15843192221655 98.30927560839336,243.94739419713733 100.11934525112156,243.150138701385 102.88417690328788,242.75150984591164 104.97271879867185,241.36802750173956 104.65446479560342,242.00114764439058 105.17162755061872,241.22733388376946 106.70322494069114,241.34457857183588 107.0413698189659,240.75835449284932 105.808135556872,238.76518067950383 104.0577385397628,239.67969801521394 102.66537727601826,238.06170316123462 101.19345251168124,237.42857142857974 98.68720223708078,237.49891949088487 96.24062458809931,238.48378994813538 93.89350131503306,238.8589775081491 93.87361043982673,240.9459463718813 92.95863018091768,241.8839033140539 92.89895755541511,242.3528802521323 93.69459256308619,243.05634374299552 93.91339219035581,244.0411887671653 94.98749945079908,244.72119817743078 96.39975158963352,244.13498329627328 98.22971210756805,243.94739419713733 99.90054562396836,243.1970361651911 101.49181563954335,242.98599749739515 101.67083351640031,244.32257223200577 105.74846293136943,252.599771240697 101.59127001545858,254.0535240379977 101.35257951321546,257.7347573705774 100.33814487815835,261.6972884971037 99.82098212314304,262.09588226495543 98.38883910910226,268.2857142857101 92.89895755541511,266.87894990966015 93.73437431349885,263.2916591397516 94.01284656627104,263.15097985215834 93.53546556155197,265.44873003645625" stroke="#4DD2FF" stroke-linecap="round" stroke-linejoin="round" stroke-width="0.5"><title>2025-04-02 6.9km</title><desc>1743601029000</desc></polyline><polyline fill="none" points="131.5775014294777,268.2857142857101 132.31547180959024,267.6205118386133 133.33560733520426,263.96186470633256 136.74329409073107,264.7805878950021 138.15411981754005,258.3074797712907 137.72001959383488,253.52289388689678 134.39915288309567,245.94923247917905 134.37744787184056,245.25837958687043 135.0285982072819,244.33723923563957 136.1789637998445,243.7743183534767 139.8688157007564,243.10904648028372 141.58351158408914,241.7273219524941 142.25636693066917,241.62497166403045 142.27807194192428,240.70381706063927 141.40987149463035,238.9382606374129 140.7153111367952,238.98943637279444 140.04245579021517,238.22179917212634 139.478125499445,238.34973887981323 138.21923485095613,237.58209958802036 136.87352415767964,237.47974749282002 135.48440344212577,237.96591954762698 133.61777248058934,240.26882613076305 130.79612102697138,240.6782293811557 128.69073494244367,242.36701024448848 129.94962559081614,244.72104815440252 131.38215632888023,245.3095539449132 136.3526038894197,243.64638160112372 139.56494554423261,243.18580871575978 142.0176118076779,241.4970337406994 143.64548764633946,241.7017343845073 144.20981793710962,241.08763191782054 142.45171203138307,238.45209059579065 140.51996603619773,239.50119311244634 139.34789543238003,238.14503531406808 137.82854464976117,237.4285714285652 134.98518818500452,237.55651156838576 132.40229185437784,238.63120599144895 129.64575543429237,239.09178780989896 129.81939552375115,241.1132195526152 128.64732491993345,242.62288507347694 129.60234541201498,243.5184447792126 130.03644563560374,244.79780986293918 131.31704129523132,245.3351411196927 132.64104697736911,244.66987366812828 133.899937625858,244.59311191787128 135.37587838619947,248.76379733072827 136.52624397887848,249.76168040565972 140.32462093548384,248.96849164048035 142.71217216562945,253.98344650040963 138.11070979502983,255.54420141853916 137.87195467203856,259.4588361567148 137.3944444261724,260.04730501867016 136.1789637998445,264.3712266573857 135.91850366583094,264.57590736533166 133.33560733520426,264.11537552157824 132.53252192144282,267.1855707585637" stroke="#4DD2FF" stroke-linecap="round" stroke-linejoin="round" stroke-width="0.5"><title>2025-03-25 6.1km</title><desc>1742909450000</desc></polyline></svg>