<?xml version="1.0" encoding="utf-8" ?>
<svg baseProfile="full" height="300mm" version="1.1" viewBox="0,0,200,300" width="200mm" xmlns="http://www.w3.org/2000/svg" xmlns:ev="http://www.w3.org/2001/xml-events" xmlns:xlink="http://www.w3.org/1999/xlink"><defs /><rect fill="#222222" height="300" width="200" x="0" y="0" /><text fill="#FFFFFF" style="font-size:12px; font-family:Arial; font-weight:bold;" x="10" y="20">Over 5km Runs</text><text fill="#FFFFFF" style="font-size:4px; font-family:Arial" x="10" y="280">Runner</text><text fill="#FFFFFF" style="font-size:9px; font-family:Arial" x="10" y="290">Elliont</text><text fill="#FFFFFF" style="font-size:4px; font-family:Arial" x="65" y="280">SPECIAL TRACKS</text><rect fill="yellow" height="2.6" width="2.6" x="65" y="283" /><text fill="#FFFFFF" style="font-size:3px; font-family:Arial" x="70" y="285.5">Over 20.0 km</text><rect fill="red" height="2.6" width="2.6" x="65" y="287" /><text fill="#FFFFFF" style="font-size:3px; font-family:Arial" x="70" y="289.5">Over 40.0 km</text><text fill="#FFFFFF" style="font-size:4px; font-family:Arial" x="120" y="280">STATISTICS</text><text fill="#FFFFFF" style="font-size:3px; font-family:Arial" x="120" y="285">Number: 45</text><text fill="#FFFFFF" style="font-size:3px; font-family:Arial" x="120" y="290">Weekly: 2.0</text><text fill="#FFFFFF" style="font-size:3px; font-family:Arial" x="141" y="285">Total: 294.8 km</text><text fill="#FFFFFF" style="font-size:3px; font-family:Arial" x="141" y="290">Avg: 6.6 km</text><text fill="#FFFFFF" style="font-size:3px; font-family:Arial" x="167" y="285">Min: 5.0 km</text><text fill="#FFFFFF" style="font-size:3px; font-family:Arial" x="167" y="290">Max: 10.1 km</text><polyline fill="none" points="38.491758241754724,48.128159159750794 33.00274725275813,47.030421242991 26.69780219779932,44.12572212158557 25.42857142855064,43.76627117185126 15.398351648356766,41.84269822861825 11.5,41.92041915176378 12.010989011003403,42.00785510932474 14.129120879108086,41.83298310844839 15.579670329694636,41.8815586986384 25.733516483509447,43.83427551668137 26.804945054929703,44.20344105538243 33.06868131869123,47.078994002818945 38.5,48.16701689155889" stroke="#4DD2FF" stroke-linecap="round" stroke-linejoin="round" stroke-width="0.5"><title>2025-09-15 6.5km</title><desc>1757932870000</desc></polyline><polyline fill="none" points="68.5,57.19437217385712 63.51875699887751,56.196509979061375 57.6304591265216,53.496875357595854 56.859462485968834,53.25630953367363 47.41853303468088,51.4208581055791 45.98992161251954,51.38521786441561 44.31942889135098,51.53668878211465 43.586226203799015,51.429768163456174 42.78499440086307,51.01099439467362 42.34658454646706,50.59221848195739 41.91573348265956,49.879403487211675 41.55291153411963,48.95273470719985 41.5,48.67651409745304 41.62849944009213,48.49830675741396 44.82586786110187,45.87861405188596 46.957446808490204,43.5618090875214 49.194848824176006,41.58356213183288 52.07474804029334,39.7389373945698 53.01203807388083,39.623090007888095 53.42777155651129,39.32901513527759 54.213885778270196,38.455695643118815 54.96976483761682,36.74467531292612 55.75587905931752,35.97826917900966 59.338745800661854,34.017662651254795 61.99944008956663,32.80562782614288" stroke="#4DD2FF" stroke-linecap="round" stroke-linejoin="round" stroke-width="0.5"><title>2025-09-13 7.0km</title><desc>1757768754000</desc></polyline><polyline fill="none" points="98.5,48.28944397279702 92.53130094555672,47.116900323140726 85.96397130744299,44.08689769964258 84.88995761331171,43.73408291170199 74.10580371698597,41.63792105446919 71.5,41.648298206979234 74.24665797199123,41.72093824276817 84.57303553965176,43.713329059981334 85.83192044345196,44.08689769964258 92.58412129117642,47.17915964072745 98.46478643623414,48.36207894553081" stroke="#4DD2FF" stroke-linecap="round" stroke-linejoin="round" stroke-width="0.5"><title>2025-09-11 6.0km</title><desc>1757587445000</desc></polyline><polyline fill="none" points="125.92042574757943,56.3128930548628 121.3291941205971,55.40960736999841 116.23846933600726,53.04649538414378 115.0684237202513,52.69968420787336 106.96705524582649,51.13498103132588 105.55752660922008,51.08658762246341 103.97009630003595,51.215636642460595 103.18322351749521,51.07045647916675 102.21160669031087,50.31228877934336 101.80790674101445,49.59444199389691 101.5,48.58621846494498 104.51748606184265,46.077698750385025 105.44120628482779,45.19848683792952 106.52230106436764,43.924014335083484 108.51343132284819,42.173595452230074 109.98454130764003,41.31047044372826 110.97668525087647,40.57640293752047 111.8593512417574,40.431201909035735 112.25620881904615,40.1972663196284 113.043081601616,39.29378399802226 113.71363405979355,37.76106554982107 114.46629498223774,37.09956672995759 117.55904713633936,35.38125558397587 121.40446021288517,33.687106945129926 121.3976178408484,34.25989487217885 121.9655347186781,34.60679244707717 122.35554992395919,35.31671729878144 123.11505321844015,37.09149963469099 126.1530663963349,42.972178786381846 126.31728332483908,43.53682846988522 126.52255448553478,43.762687137343164 127.41890522043104,45.95670690495899 127.64470349717885,46.82784377876669 127.97313735424541,46.91657010740164 128.0689305625856,48.49749413716927 127.71312721740105,50.85268570046901 127.97997972628218,51.04625975758972 128.48631525592646,51.143046596378554 128.5,51.28822661739105" stroke="#4DD2FF" stroke-linecap="round" stroke-linejoin="round" stroke-width="0.5"><title>2025-09-09 10.0km</title><desc>1757415422000</desc></polyline><polyline fill="none" points="158.4628099174006,48.55079183714406 152.04752066120273,47.246680550793826 145.23243801645003,44.07948277725518 143.98657024797285,43.684945968328975 132.63429752062075,41.47112740208104 131.5,41.44920816285594 135.07954545452958,41.94238989050791 144.18181818176527,43.76166158010892 152.3729338842677,47.36722936180013 158.5,48.55079183714406" stroke="#4DD2FF" stroke-linecap="round" stroke-linejoin="round" stroke-width="0.5"><title>2025-09-08 5.7km</title><desc>1757333196000</desc></polyline><polyline fill="none" points="188.5,48.487740630189364 182.4434931506985,47.343359830687405 175.37910958903376,44.08452757853229 174.35273972601863,43.735749947227305 163.23835616436554,41.566761766735 161.5,41.446866576479806 162.81301369861467,41.534063092723954 174.08458904112922,43.71395130491146 175.4900684931199,44.171721796410566 182.36952054791618,47.354258757164644 188.41678082192084,48.55313342351292" stroke="#4DD2FF" stroke-linecap="round" stroke-linejoin="round" stroke-width="0.5"><title>2025-09-04 5.8km</title><desc>1756983645000</desc></polyline><polyline fill="none" points="38.5,78.14622428372968 33.18599759612698,77.08476381802757 26.833533653843915,74.18719830761984 23.393629807658726,73.38389589063445 15.89723557693651,71.95897233190772 14.363882211531745,71.93028235834208 12.50600961537566,72.08329544243315 11.5,71.85377571626304 11.962439903843915,72.06416882149642 12.603365384595236,72.15023858284985 14.363882211531745,71.97809897574916 15.994591346156085,72.02591556713014 26.168269230780425,74.00549959459022 27.255408653843915,74.39758582144714 33.202223557716934,77.15170314536954 36.53665865381481,77.75415479526418" stroke="#4DD2FF" stroke-linecap="round" stroke-linejoin="round" stroke-width="0.5"><title>2025-09-02 6.2km</title><desc>1756809719000</desc></polyline><polyline fill="none" points="68.5,78.49762634826038 62.40654205606552,77.30791804092587 54.17289719625842,73.66159523160604 43.023364485939965,71.50238139032444 41.5,71.39221618292504 42.9672897196142,71.52441441744304 53.60280373832211,73.58448124530696 55.04205607471522,74.0141155632009 62.556074766325764,77.45112441129459 68.49065420555416,78.60778381707496" stroke="#4DD2FF" stroke-linecap="round" stroke-linejoin="round" stroke-width="0.5"><title>2025-08-29 5.7km</title><desc>1756465472000</desc></polyline><polyline fill="none" points="98.5,78.36385409281502 92.65014817257179,77.21116515206813 85.74234441888984,74.04643906184356 84.66661178797949,73.72157718158996 73.82038195594214,71.61518805422384 71.5,71.61518805422384 73.93595653609373,71.70950497154263 84.95999341458082,73.83685087756749 92.51679288776359,77.2216442046265 98.3577543629217,78.38481194576889" stroke="#4DD2FF" stroke-linecap="round" stroke-linejoin="round" stroke-width="0.5"><title>2025-08-27 6.0km</title><desc>1756291993000</desc></polyline><polyline fill="none" points="127.2804716041428,78.37704872873292 122.73414148122538,77.54206122150936 120.7613749584998,77.03472353157849 114.538193291286,74.11748034624907 113.2558950514649,73.70525412942516 103.1409830620978,71.72865794180689 101.5,71.5489653829136 104.19910328794504,71.94006052626355 113.23796081036562,73.715824054314 114.34091663901927,74.06463092911872 120.25024908664636,76.87617995958135 121.7298239787342,77.39408800256206 127.27150448353495,78.45103461709368 127.48671537695918,77.62661724531063 128.5,77.79572907197871 127.99784124881262,77.67946472281619 128.03370973095298,77.42579656845919" stroke="#4DD2FF" stroke-linecap="round" stroke-linejoin="round" stroke-width="0.5"><title>2025-08-26 6.0km</title><desc>1756205162000</desc></polyline><polyline fill="none" points="158.5,80.04208147955796 153.3474434199452,79.02838595750654 147.74224643755588,76.44963009336789 146.5804694048711,76.08504079614795 137.3164291701396,74.29764044129115 134.22338642078103,74.43102987868042 133.40108968983986,74.24428460530908 132.60896898576175,73.76408051233011 132.2015926236345,73.27498084741092 131.53017602680484,71.60312713824533 132.02053646268905,71.0606566094284 133.3935456831532,69.95791852044931 131.7640402346733,71.25630213377735 131.5,71.62091299619351 131.93000838224543,72.85702062999917 132.28457669739146,73.4439428811238 133.5293378038332,74.32431834618183 134.306370494538,74.4843855925792 135.99622799665667,74.33321097923181 137.3918692371808,74.35988887251733 146.72380553226685,76.15618029906909 147.74979044427164,76.50298448809917 153.25691533950157,79.02838595750654" stroke="#4DD2FF" stroke-linecap="round" stroke-linejoin="round" stroke-width="0.5"><title>2025-08-23 7.3km</title><desc>1755948655000</desc></polyline><polyline fill="none" points="188.5,77.33325244977459 188.0915438324446,78.740550623952 181.18968192406464,77.38263162882504 172.73778122582007,73.53099106394075 164.516291699023,71.75326665906323 161.5,71.259449376048 172.20364623743808,73.41988410553313 180.88595810713014,77.33325244977459 186.53103180759354,78.48131279935478" stroke="#4DD2FF" stroke-linecap="round" stroke-linejoin="round" stroke-width="0.5"><title>2025-08-19 5.0km</title><desc>1755607675000</desc></polyline><polyline fill="none" points="37.7220712150156,112.02899787578644 32.819652079371735,111.06015738978022 27.131965207925532,108.43038792958396 26.17056265292922,108.15356502668146 17.19502582223504,106.43205094241421 13.841125305800233,106.52721098670736 12.732943734707078,106.0081548144808 11.969692851329455,105.08249622141011 11.544033704820322,103.698313709996 14.721799402032048,101.11155796895764 17.71609132917365,97.97100212421356 16.835417232912732,98.75831566935813 14.809866811614484,100.95583085399994 11.5,103.70696492562274 11.661456917674514,104.36445455511421 12.2779287850135,105.56695440086332 12.798994291952113,106.05140962508449 13.701685240579536,106.49260734744894 14.200733895093435,106.57046551459644 15.932726284343516,106.41474910392571 17.378499592334265,106.43205094241421 21.018619190028403,107.12412139109074 21.334194074501283,107.01166035356437 22.779967382462928,107.27983641095489 23.212965479760896,107.4701543539777 25.407311769522494,107.79888427231344 26.82372927427059,108.257373728331 27.55762435446377,108.2400722874736 27.54294645282789,108.43903862976731 28.01263930418645,108.42173722845473 27.660369665682083,108.65530582780048 28.19611307422747,108.98403084100573 32.49673824411002,110.92175064142793 33.318700733885635,111.15531188939349 33.57556401196052,111.03420614283823 34.977303615101846,111.13801107974723 34.977303615101846,111.46672581839084 37.355123674933566,111.94249474137905 37.77344387062476,111.98574632034433 37.89086708344985,111.38887245059595 38.28717042674543,111.31966939293488 38.5,110.60168411214545" stroke="#4DD2FF" stroke-linecap="round" stroke-linejoin="round" stroke-width="0.5"><title>2025-08-16 10.0km</title><desc>1755297330000</desc></polyline><polyline fill="none" points="57.748768472869415,104.05941793077363 57.26108374382602,106.54164817935089 68.5,108.74948350632621 49.85714285715949,105.05231619346887 41.5,101.25051649366651 49.60221674875356,105.03925179599901 56.64039408869576,106.4501985024981" stroke="#4DD2FF" stroke-linecap="round" stroke-linejoin="round" stroke-width="0.5"><title>2025-08-13 5.0km</title><desc>1755095249000</desc></polyline><polyline fill="none" points="98.34882418817142,110.02523960399412 93.397816349403,109.03628576226038 87.76651735723135,106.44356623398926 86.71584546472877,106.1049919823563 77.4638857782993,104.32299914004398 74.18337066072854,104.42991980529041 73.45772676373599,104.27844882161298 72.70940649497788,103.83294430272508 72.31634938414209,103.44089831899328 71.95352743563126,102.83500537547661 71.52267637179466,101.6232060239854 72.45996640541125,100.69652381768537 73.54843225085642,99.86784718318813 72.72452407618403,100.44703066056536 71.5,101.63211637885252 72.30123180293594,103.4498084758743 72.92861142219044,104.037876682778 73.45016797314747,104.3051790155805 74.18337066072854,104.46555999598786 76.75335946248379,104.31408907828882 77.68309070548275,104.37645949012949 87.14669652856537,106.27427928332327 93.25419932810473,109.03628576226038 98.5,110.13215281681187" stroke="#4DD2FF" stroke-linecap="round" stroke-linejoin="round" stroke-width="0.5"><title>2025-08-12 8.1km</title><desc>1754996616000</desc></polyline><polyline fill="none" points="128.5,108.1314941298333 123.05585831060307,107.0427295475456 116.90871934604365,104.20995183674677 115.89509536785772,103.87271035306912 110.11580381472595,102.65863036698283 105.75885558585287,101.9070486922792 104.22207084472757,101.86850587017398 102.2765667575004,102.0323127481679 101.5,101.8974129883427 102.211171662173,102.0323127481679 104.14032697549555,101.88777728331479 105.77520435969927,101.91668439520436 115.8051771117025,103.8823458418774 116.97411444140016,104.29667086761037 122.80245231607114,106.98491866415134 128.03405994549394,108.06404892551654" stroke="#4DD2FF" stroke-linecap="round" stroke-linejoin="round" stroke-width="0.5"><title>2025-08-10 6.4km</title><desc>1754781124000</desc></polyline><polyline fill="none" points="155.8225398431823,116.29688423377956 151.32823172275675,115.39519828988705 146.23286111812922,113.04432250599348 145.26296483684564,112.72227890513022 136.86858082472463,111.07983471591433 136.11725271947216,111.03152698141639 133.76764482673025,111.16839881387568 133.25537566407002,111.04762956310879 132.5381988363515,110.63701263442636 132.03959018466412,110.07341705739236 131.56830255503883,108.97036756335001 131.5,108.55168753294856 134.48482165447786,106.10397219812876 136.54755881612073,103.88163411305868 138.49418163421797,102.18262767313718 140.94624335950357,100.58021139557968 141.21945357960067,100.45137239657197 141.90930938531528,100.42721505924419 142.1756893498823,100.25006101088366 142.92701745510567,99.42065231677407 143.69883632686106,97.76180699613178 144.39552238810575,97.10147956299625 147.51694915257394,95.41842319349962 151.37604351126356,93.70311576621316 151.37604351126356,94.29099556767324 152.0590690614772,94.73391561555763 152.26397672656458,94.9916133304796 152.37326081460924,95.41037020002113 154.7843410068599,99.70249126688577 155.7747280546464,101.87664131946804 156.3962813053804,102.73823123398324 156.40311156088137,102.98784886506473 156.68315203647944,103.41461253925809 157.1885909436387,104.88813609069621 157.57791550722322,105.58060149132507 157.9057677713281,107.01382321975689 158.01505185937276,108.46312029951514 157.7076903617708,110.54039655497763 157.78965342781157,110.66116663453431 158.5,110.87855228049739 158.41803693398833,111.52265414455906" stroke="#4DD2FF" stroke-linecap="round" stroke-linejoin="round" stroke-width="0.5"><title>2025-08-08 10.0km</title><desc>1754654808000</desc></polyline><polyline fill="none" points="188.5,108.7800683980895 181.29644268780248,107.30833346835425 173.03636363637634,103.4968301997651 164.50948616606183,101.66021936192556 161.5,101.2199316019105 172.84426877473015,103.4968301997651 181.50988142297138,107.43412351148436 188.31857707514428,108.74233183924662" stroke="#4DD2FF" stroke-linecap="round" stroke-linejoin="round" stroke-width="0.5"><title>2025-08-07 5.0km</title><desc>1754573743000</desc></polyline><polyline fill="none" points="38.5,138.793525416615 31.362313139252365,137.36629666630324 23.204956726985984,133.62286689948814 22.164044059754815,133.3098655772119 11.5,131.2064745833777 14.335955940186977,131.80744736621273 14.569630212383345,131.70728545392194 15.196302124299109,131.9702102875308 22.62077104637865,133.4851464227031 31.457907159696333,137.46645364792494 38.02202989766374,138.78100594317948" stroke="#4DD2FF" stroke-linecap="round" stroke-linejoin="round" stroke-width="0.5"><title>2025-08-04 5.0km</title><desc>1754309955000</desc></polyline><polyline fill="none" points="68.5,138.14201955803583 63.103275705187116,137.06092628045735 56.87943585077301,134.20368771221547 55.94585987261962,133.89479153889988 46.06960873521166,131.94485959618032 44.33348498636042,131.85798044197145 42.220655141049065,132.02208543952293 41.5,131.86763368552784 41.655595996388,131.9834725262699 42.64649681528681,132.0510451134469 45.5045495905797,131.89659340991057 49.427206551423296,132.66884923579346 50.05777979985578,132.67850239104155 51.14695177433896,133.0067090436205 55.83939945403836,133.90444456062687 57.141492265684064,134.3677883663695 63.005004549602745,137.0512736025339 67.94313011830673,138.04549390864122" stroke="#4DD2FF" stroke-linecap="round" stroke-linejoin="round" stroke-width="0.5"><title>2025-08-03 6.5km</title><desc>1754227262000</desc></polyline><polyline fill="none" points="95.3726695755613,138.1623588235816 88.20765569218202,136.73586513449845 79.17909559700638,132.72139044905634 71.5,131.15596012532478 79.84311781043652,132.89813125411456 88.48611662042094,136.84948031948443 98.5,138.8440398746825 95.59758032526588,138.1876063413947 95.59758032526588,137.99824982374412" stroke="#4DD2FF" stroke-linecap="round" stroke-linejoin="round" stroke-width="0.5"><title>2025-08-01 5.0km</title><desc>1754057984000</desc></polyline><polyline fill="none" points="125.91685649202554,146.27037494332762 121.31093394078198,145.3601775738207 116.2403189066099,143.0242215596445 115.15375854211743,142.6778493869424 106.9533029612794,141.09096078505536 105.45671981776832,141.04262861816096 103.96697038723505,141.1715143263209 103.25626423690119,141.04262861816096 102.66856492025545,140.71235796572728 102.23804100227426,140.30153143710777 101.74601366743445,139.3670939708245 101.5,138.5534793191764 104.51366742598475,136.05619032276445 106.6047835990903,133.82467041152995 108.51822323462693,132.14897219411068 109.96013667425723,131.31916526597342 111.08769931664574,130.48934902359179 111.88724373577861,130.40878384379903 112.1742596811091,130.23154013918975 113.04897494305624,129.22446556884097 113.7323462414497,127.70979958012322 114.40205011391663,127.10553587078903 117.60022779044812,125.34911464173638 121.3451025056711,123.72962505667238 121.4066059225297,124.25334447635396 121.9533029612794,124.63203159109253 122.52050113896257,125.64722577278008 122.86902050112258,126.62212134669971 123.73006833714317,128.40268255403498 125.97152619590634,132.60012545042264 126.27220956719248,133.502423703947 127.16059225512436,135.36337907554844 127.76195899772574,137.4337375864925 127.80296127562178,138.72264745914435 127.7209567198006,139.18987173997448 127.93280182231683,139.34292732799076 127.73462414575624,140.5593052120239 128.5,140.8492996347486 128.4726651480305,141.24401243845932" stroke="#4DD2FF" stroke-linecap="round" stroke-linejoin="round" stroke-width="0.5"><title>2025-07-28 10.0km</title><desc>1753704756000</desc></polyline><polyline fill="none" points="155.8488933601766,138.31062527570612 148.6778672032524,136.87627334967692 140.4637826961698,133.11101630351186 139.12736418511486,132.66276338630996 131.5,131.13869068601343 139.9639839034062,132.95732978155138 147.03722334007034,136.28715945468866 148.8734406438307,136.97872763887426 158.5,138.86130931398657 155.95754527160898,138.28501200188475 156.08792756538605,137.45257756528008" stroke="#4DD2FF" stroke-linecap="round" stroke-linejoin="round" stroke-width="0.5"><title>2025-07-22 5.0km</title><desc>1753194638000</desc></polyline><polyline fill="none" points="176.85765124554746,136.42519329274364 185.8016014234745,138.19949229255872 188.5,138.35993243262783 186.14590747331386,138.22780528003204 171.4048042704817,135.33983291356708 164.9750889679999,132.42344943210628 161.5,131.64006756737217 164.9350533808174,132.4423260161784 170.96441281138686,135.2265771343009 173.4466192171094,135.7551028379603" stroke="#4DD2FF" stroke-linecap="round" stroke-linejoin="round" stroke-width="0.5"><title>2025-07-19 6.4km</title><desc>1752877000000</desc></polyline><polyline fill="none" points="36.027346731105354,176.34391244150902 31.43233273975784,175.4290842026603 26.21228694988531,173.04076273152896 25.31938438056386,172.7573974648767 16.836809972010087,171.12195396038442 13.897099974536104,171.21911002537672 13.258331213408383,171.09766492430208 12.660773340088781,170.74952120145463 12.07695242940099,170.13419342420093 11.568684813013533,168.99258497641858 11.5,168.5796584536438 14.501526329171611,166.09395424617105 16.486517425597413,163.94014982158842 18.444034596788697,162.23163649913477 20.834266090067104,160.63644878939522 21.25324344949331,160.43401135208114 21.892012210650137,160.4016213109353 22.345331976597663,160.1182078485581 23.087127957260236,159.2355704255533 23.753370643622475,157.72129647624388 24.460824217792833,157.06537144248432 27.93627575680148,155.17044436939614 31.48728059019777,153.65608755849098 31.49414907148457,154.23915907630726 32.04362757568015,154.6035764509361 32.40765708469553,155.27571936370805 33.15632154667401,156.99249052570667 35.46413126430707,161.33282936178875 36.06855761894258,162.78225171761005 36.23340117017506,162.9360993582086 37.27054184686858,165.59194526018837 37.5040702111437,165.92391932424653 37.874968201474985,167.3084780893114 37.94365301451762,168.22340627683297 37.833757313666865,169.61601871328457 37.4972017298569,170.9195450837724 38.5,171.14624298853596" stroke="#4DD2FF" stroke-linecap="round" stroke-linejoin="round" stroke-width="0.5"><title>2025-07-17 10.0km</title><desc>1752756134000</desc></polyline><polyline fill="none" points="68.5,168.81001207380177 61.341959699755535,167.37658058895613 52.26372975111008,163.34024369516555 41.5,161.18998792619095 52.743777163210325,163.54143516851764 61.13927301467629,167.3640065497966 68.16930067166686,168.79743819076248" stroke="#4DD2FF" stroke-linecap="round" stroke-linejoin="round" stroke-width="0.5"><title>2025-07-14 5.0km</title><desc>1752500928000</desc></polyline><polyline fill="none" points="98.5,168.78223850869836 91.34362783422694,167.37637853726483 83.94448788114823,163.94252392493217 82.19233776384499,163.30799601293256 71.5,161.21776149130892 82.88897576229647,163.4946222352737 91.47028928849613,167.42614378735016 97.74003127444303,168.68270916824258" stroke="#4DD2FF" stroke-linecap="round" stroke-linejoin="round" stroke-width="0.5"><title>2025-06-21 5.0km</title><desc>1750468889000</desc></polyline><polyline fill="none" points="119.97303190268576,166.65815049567027 126.99414734909078,168.06054482147738 128.5,168.14088944171817 127.20484278173535,168.06054482147738 115.72813862748444,165.81816068684566 114.49495065413066,165.33607482795196 110.80778058295255,163.5830061302404 110.15710351159214,163.3711738928905 102.63403718156042,161.91024369176012 101.5,161.85911055827455 102.50390176728251,161.8810247631336 105.43504705070518,162.4215728822819 110.70862979115918,163.56109248151915 114.63128299286473,165.4164227117435 115.63518476014724,165.80355207536923 116.72584347025258,166.0226809134765" stroke="#4DD2FF" stroke-linecap="round" stroke-linejoin="round" stroke-width="0.5"><title>2025-06-17 8.1km</title><desc>1750165544000</desc></polyline><polyline fill="none" points="158.5,168.7659015625395 151.6925754059921,167.41218310472323 142.81786542921327,163.44938676458696 131.5,161.2340984374605 142.83874709974043,163.49861490079638 151.54640371224377,167.39987649892282 157.28886310901726,168.56899806736328" stroke="#4DD2FF" stroke-linecap="round" stroke-linejoin="round" stroke-width="0.5"><title>2025-06-15 5.0km</title><desc>1749939796000</desc></polyline><polyline fill="none" points="180.15694828683627,166.5476281631636 186.52915513937478,167.8208640805533 188.5,167.94276827983776 186.9486060864001,167.84795392326487 176.2842094062653,165.77554687948214 175.2442008937942,165.38272991589474 171.7679293466499,163.73016241009464 170.9922323898645,163.47279138720114 163.98223026178312,162.11818949895314 163.13183656099136,162.05723172016587 161.5,162.18592029421416 163.81559906364419,162.10464333106574 170.69344541392638,163.43215375990985 171.52660140453372,163.66243329680947 173.51468397531426,164.60386135783847" stroke="#4DD2FF" stroke-linecap="round" stroke-linejoin="round" stroke-width="0.5"><title>2025-06-11 8.1km</title><desc>1749642919000</desc></polyline><polyline fill="none" points="38.5,198.75761206554307 31.485653354029637,197.40021930405055 22.670608763059136,193.46368833849556 11.5,191.24238793445693 22.796238852257375,193.51305007506744 31.558937572641298,197.46191932777583 37.33792167506181,198.62187352111505" stroke="#4DD2FF" stroke-linecap="round" stroke-linejoin="round" stroke-width="0.5"><title>2025-06-08 5.0km</title><desc>1749387304000</desc></polyline><polyline fill="none" points="51.960139859933406,202.2563473537739 54.867832167539746,200.52019920607563 60.985314685152844,199.40727984640398 64.08181818178855,197.09239786749822 67.44265734264627,197.18143203217187 68.3489510489162,196.42464101308724 62.3825174823869,186.7197848650394 58.34195804176852,187.5211119944288 54.490209790179506,189.7915303253103 52.33776223775931,189.7915303253103 48.9013986014761,191.39417096233228 43.27482517482713,192.55162973457482 43.463636363623664,196.20205515241832 41.5,198.65049295013887 43.161538461456075,200.4756824898359 43.879020979162306,202.74602883096668 44.936363636283204,203.41377535375068 51.506993006914854,202.03376467025373 54.98111888114363,200.4756824898359 60.04125874117017,199.8079311651527 64.27062937058508,197.09239786749822 67.2538461536169,197.22594910740736 68.46223776205443,196.20205515241832 62.3825174823869,186.58623019064544 57.88881118874997,187.5656301221461 54.56573426560499,189.74701244014432 51.544755244627595,190.05863753479207 47.84405594388954,191.70579480053857 43.38811188796535,192.46259456081316 43.501398601336405,196.42464101308724 41.5,198.65049295013887 43.27482517482713,200.56471591748414 44.18111888109706,202.87957822266617 45.46503496496007,203.50280814105645 55.81188811152242,200.34213231221656 60.15454545430839,199.8524479540356 63.893006992992014,197.3149832431227 67.36713286698796,197.2704661777243 68.5,196.15753796565696 61.96713286708109,186.45267547256663 57.51118881092407,187.8327387869067 54.414685314754024,189.74701244014432 43.57692307676189,192.24000654157135 43.539160839281976,196.20205515241832 41.53776223771274,198.56145910560736 43.23706293688156,200.4756824898359 43.879020979162306,202.6124793953786 45.8048951048404,203.54732452743337 61.060839160578325,198.91759436775465 62.94895104877651,196.38012385068578 62.3825174823869,193.842637573689 59.890209790319204,190.7264047942881 57.775524475611746,189.65797665526043 55.962937062839046,189.56894085078966 53.88601398584433,190.4147802090156 50.52517482521944,194.46588127722498 45.16293706302531,195.35622777591925 41.95314685301855,197.89370465217507 41.83986013988033,198.96211125364061 43.6524475524202,201.14343272330007" stroke="#4DD2FF" stroke-linecap="round" stroke-linejoin="round" stroke-width="0.5"><title>2025-06-04 6.4km</title><desc>1749041988000</desc></polyline><polyline fill="none" points="98.5,198.7822926046283 91.57987592089921,197.4002201252515 83.69658782478655,193.75985925654095 82.50310197751969,193.36496562202228 71.5,191.2177073953717 82.81717720051529,193.4883700306309 91.42283830943052,197.37554010635358 97.17041488946415,198.56017495014385" stroke="#4DD2FF" stroke-linecap="round" stroke-linejoin="round" stroke-width="0.5"><title>2025-05-28 5.0km</title><desc>1748436903000</desc></polyline><polyline fill="none" points="128.5,198.7704701553448 121.00237341772299,197.2346258794205 112.31922468356788,193.30680015370308 101.5,191.21694104147173 111.9667721518781,193.2312637355426 113.26977848104434,193.64671342453948 121.63251582282828,197.4738160835186 128.37183544307481,198.78305895852827" stroke="#4DD2FF" stroke-linecap="round" stroke-linejoin="round" stroke-width="0.5"><title>2025-05-27 5.0km</title><desc>1748351986000</desc></polyline><polyline fill="none" points="151.49476505536586,200.56973551820556 151.53084708336974,198.9533236429561 152.37877474335255,197.03381156545947 152.93804617866408,193.47254545317264 152.9019641505438,193.80089273079648 152.09011851868127,193.90192251550616 148.13913644338027,196.70547147485195 146.6417322778725,197.0590684653289 146.0463788144407,196.0740461719688 146.7319373480277,194.9627310827491 147.99480833107373,193.97769480869465 147.79635717655765,192.28543766700022 148.39171063998947,191.19935197279847 147.59790602215799,190.74470907823707 144.69330276129767,190.79522502458713 143.93558017147006,189.68387021525996 144.18815436813748,188.37044011337275 144.747425803449,188.54724869203346 144.69330276129767,187.6884621843492 145.52318940724945,188.19363132303988 147.03863458684646,188.14311448692752 148.24738252768293,188.95138179129572 149.88911480555544,189.0018983510381 150.55663232511142,188.67354040438659 152.19836460298393,186.37501433712896 152.2705286591081,182.53563826884783 151.67517519567627,181.85363339612377 150.73704246553825,181.5 149.5824175667949,181.82837389592896 148.55407976638526,182.9650471285422 147.76027514843736,183.24289925477933 146.1365838847123,182.93978781838086 144.42268755059922,182.00519030670694 142.8531193289673,182.53563826884783 142.0593147110776,183.7480835996248 142.0953967391979,185.0362958573969 142.78095527278492,185.99613297969336 144.332482480444,186.72863606043393 144.69330276129767,187.61268666454998 143.9897032136214,189.2544808901148 144.4948516068398,190.769967053624 144.6211387051153,192.86636394601373 143.9536211855011,195.13953176994983 144.47681059275055,195.7709610677848 146.0102967864368,196.14981735081528 146.60565024975222,197.0590684653289 145.23453318257816,199.28165873675607 143.53867786249612,199.96358313792734 140.70623865787638,202.03459350085177 138.6495630570571,202.91855249649961 138.18049669195898,204.13083051687863 137.02587179321563,205.3936095416866 138.0181275656214,208.22219538311765 138.92017826763913,208.42423515632981 140.11088519450277,207.6918396637484 141.50004327576607,208.2727053523995 142.51034006214468,208.14643039696966 143.30414468003437,207.31301298408653 143.88145712943515,205.21682112806593 145.2525741966092,204.4591541018599 148.39171063998947,205.4441204781615 149.5824175667949,204.8632436661428 151.44064201315632,204.76222137876903 151.54888809740078,199.15537609483 152.97412820678437,194.15449667496432 152.75763603823725,193.80089273079648 152.21640561695676,193.8514076318097 148.1571774574113,196.7307284307899 146.69585532002384,197.03381156545947 145.09020507021341,199.35742827017384 143.37630873615853,200.03935232151707 140.68819764390355,202.03459350085177 138.75780914135976,202.7922729638667 138.18049669195898,204.20659756285022 137.02587179321563,205.49463139727595 137.92792249534978,208.09592038458504 138.5232759587816,208.5 140.0026391102001,207.6918396637484 141.69849443022395,208.29796033048478 142.83507831487805,207.8433700636233" stroke="#4DD2FF" stroke-linecap="round" stroke-linejoin="round" stroke-width="0.5"><title>2025-05-23 6.4km</title><desc>1747958832000</desc></polyline><polyline fill="none" points="177.45308017521165,196.2609099506517 178.1837849081494,196.95508605199575 180.01054674061015,197.24737005149655 180.92392765684053,198.41650205080805 180.68905827833805,203.01989710853377 180.24541611899622,203.86018867589883 178.65352366515435,204.33513462169503 177.08772780874278,203.78711997522623 175.62631834263448,204.11592893171473 173.14714156999253,202.65455191805086 171.6596355063375,203.23910392301332 170.5635784069309,203.0564315932861 170.87673757807352,201.99692900072841 170.09383965004236,199.95097809076833 170.32870902842842,198.48957258829614 169.493617905071,197.10122810167377 169.85897027153987,194.90908685923205 175.1304829880828,194.6898714978597 176.93114822299685,195.3475169071171 177.87062573677395,196.84547944900987 179.88006375252735,197.21083457340137 180.76734807121102,198.05114898820466 180.68905827833805,203.1295005438733 180.29760931432247,203.86018867589883 178.75791005545761,204.29860035570164 177.2704039918026,203.8236543286912 175.57412514742464,204.07939462825016 173.0949483747827,202.6910864651727 169.93726006429642,203.3487072458811 168.24098121980205,204.73701113578863 168.78900976956356,205.1388868940121 169.20655533124227,207.33092317769479 171.76402189675719,208.5 172.8600789962802,207.7327940568066 173.59078372933436,206.2349078469706 173.48639733879827,205.0658186305227 172.12937426322605,202.91029361690744 173.48639733879827,202.6910864651727 175.60022174508777,204.07939462825016 177.2704039918026,203.60444811395428 177.06163121107966,203.0564315932861 175.36535236658528,203.09296607170836 174.4519714503549,201.92385966274014 175.31315917137545,198.48957258829614 173.06885177711956,195.05523030851327 173.22543136274908,192.315023998759 173.82565310772043,191.14585860955412 175.0260965975467,190.45166363242606 177.29650058946572,191.18239512490982 179.1493590195896,190.70741993909178 177.06163121107966,192.7534593702294 174.89561360958032,192.64385061174107 173.59078372933436,191.65736925475358 171.58134571358096,191.21893163386267 171.6335389087908,186.7614314134844 172.52082322735805,184.89802260746364 172.5730164225679,182.12114795439993 173.1210449723294,181.57307632359152 174.79122721916065,181.5 179.59300117893144,182.19422406563535 180.58467188791838,183.0711354503146 180.92392765684053,184.89802260746364 181.75901878031436,185.81146032754623 181.21099023055285,186.5422076916584 181.550245999475,187.0171921379515 179.90616035019048,188.00369492125174 179.72348416689783,190.30551703396486 177.29650058946572,192.68038687076478 175.391448964132,192.7534593702294 173.5124939364614,191.54775993383373 171.68573210388422,191.328541123381 171.60744231124409,187.0171921379515 172.7295960081974,183.29036273398378 173.9039429005934,182.85190794157097 173.9300394981401,181.7557670234819 179.279842007556,182.0846098894981" stroke="#4DD2FF" stroke-linecap="round" stroke-linejoin="round" stroke-width="0.5"><title>2025-05-20 5.0km</title><desc>1747754393000</desc></polyline><polyline fill="none" points="34.92259414237924,226.88678985866136 37.4456066947896,227.19754025462316 38.5,226.08771632399294 32.2489539750386,216.6762878690206 27.88075313810259,217.74174351306283 24.4916317993775,219.73946533541312 22.382845188258216,219.82825274462812 17.261506276205182,221.78157085122075 13.156903765862808,222.35868577228393 13.49581589968875,226.13210933920345 11.5,228.70689594867872 13.156903765862808,230.1718534809188 13.759414226049557,232.21390670671826 14.663179916329682,233.10175274306675 16.357740585925058,233.36810617669835 24.830543933203444,230.6157789659337 29.87656903779134,229.9054979578359 34.24476987472735,227.01996862894157 37.4456066947896,227.10875445153215 38.424686192767695,226.26528835605131 32.399581590201706,216.72068190973368 30.742677824338898,216.76507594564464 24.642259414307773,219.65067790696048 21.855648535769433,219.9614338221727 18.353556485380977,221.5596033561451 12.855648535769433,222.58065283187898 13.646443514851853,225.51060668524588 11.5,228.66250321402913 13.081589958397672,229.9942831514636 13.571129707386717,231.85876775055658 14.70083682029508,233.05736048726249 16.357740585925058,233.2793217182916 25.546025104587898,230.26063861662988 30.479079498210922,229.63914226053748 34.05648535559885,227.10875445153215 37.48326359852217,227.10875445153215 38.424686192767695,226.17650234969915 32.399581590201706,216.76507594564464 31.08158995816484,216.63189382333076 27.69246861943975,217.74174351306283 24.755230125505477,219.65067790696048 22.345188284525648,219.73946533541312 17.826359832892194,221.64839036864578 13.345188284758478,222.44747261054 13.571129707386717,225.95453724917024 11.575313807697967,228.5737177300034 13.081589958397672,230.08306832588278 14.135983263608068,232.70222226623446 16.50836820108816,233.23492948169587 24.152719665551558,230.660171487747" stroke="#4DD2FF" stroke-linecap="round" stroke-linejoin="round" stroke-width="0.5"><title>2025-05-14 5.0km</title><desc>1747227249000</desc></polyline><polyline fill="none" points="51.06141099985689,238.2072240831185 51.611394148669206,237.70532147266204 52.40975678374525,234.73570418082818 54.804844689089805,235.1121370839246 56.09996629727539,229.92566322856874 55.85158681077883,226.60039055150992 53.35005055402871,220.3470488191233 53.45649890543427,218.94577039235446 55.195155310910195,218.00460749759804 57.78539852704853,217.56539656739915 59.45308936492074,216.41507746368006 60.81917654059362,216.5405671554763 61.333676905487664,215.99677789857378 58.58376116224099,211.60457742671133 57.891846878337674,211.5 55.99351794598624,212.1902099634608 54.804844689089805,213.00590944757278 53.775843959418125,213.02682477340568 51.6823597161565,213.863435936757 49.53565129719209,214.17716418294003 49.67758243228309,215.80854279684718 48.666323094512336,217.08435487173847 48.84373701340519,217.54448173608398 49.446944337687455,217.9418631404842 50.05015166208614,219.34314889581583 50.813031513476744,219.42680742329685 57.6257260000566,217.37716300397005 58.38860585144721,216.7078866167867 58.672468121745624,215.80854279684718 58.335381675628014,214.6372980163287 57.14670841896441,213.3614696762961 55.6919142837869,212.9013327843859 54.414534067502245,213.25689320683887 52.71136044594459,215.1810911246721 50.28078975668177,215.59939246736758 48.87921979720704,216.85429102586932 48.914702581008896,217.54448173608398 50.813031513476744,219.00851442132262 52.977481324225664,218.77845288168464 57.57250182447024,217.37716300397005 58.56601977034006,216.45690737005498 58.61924394604284,215.4529871011182 57.891846878337674,214.13533377973363 56.170931864879094,212.96407878912578 53.775843959418125,213.04774009693938 51.52268718916457,213.94709685254202 49.500168513390236,214.34448570449604 49.65984104049858,215.8922028648376 48.68406448629685,217.1680143837002 49.4646857297048,217.9418631404842 49.85499635129236,219.0712584296998 50.759807337773964,219.44772204950277 51.8242908512475,218.90394102841674 53.79358535131905,218.56930578823085 53.332309162127785,219.42680742329685 53.38553333771415,220.09607433053316 55.62094871618319,225.70109307739767 56.15319047297817,228.294404584085 55.95803516218439,231.20138148439582 55.07096556760371,234.5265744713688 52.782326013431884,234.19196646231285 51.87751502695028,237.24524292709248 51.18560074316338,237.53802031086525 50.90173847286496,238.5 50.52916924317833,238.35361209738767" stroke="#4DD2FF" stroke-linecap="round" stroke-linejoin="round" stroke-width="0.5"><title>2025-05-06 7.1km</title><desc>1746539597000</desc></polyline><polyline fill="none" points="81.81684361433145,238.5 81.63390359212644,238.28435963652737 82.49372169631533,235.41632046682935 84.67070796014741,235.9338644418458 85.05488200671971,235.26536988592125 86.18911014404148,230.49958522240922 86.15252213960048,228.12743244334706 82.91448374732863,219.1561248897342 82.03637164086103,218.96202960774826 80.79237949021626,219.56588097129134 80.02403139707167,219.41491830308223 78.5788052220596,217.1720308127551 79.56668134173378,216.09371047242894 79.32885931292549,214.36838570807595 80.60943946801126,214.3036857367988 84.890235986677,213.09594905805716 86.28058015508577,212.2332754896488 88.56733043212444,211.54313392755284 91.51266478910111,216.05057753656 91.14678474480752,216.63287137694715 89.53691254975274,216.48190647170122 87.81727634125855,217.7327550680784 85.2012340243673,218.1209478527453 83.66453783819452,218.85419881320558 81.70707960100845,219.11299262134708 80.51796945696697,219.60901314098737 79.74962136382237,219.28552163871063 79.31056531064678,218.07781535870163 78.61539322638419,217.56022469713935 78.61539322638419,217.1504644635279 79.56668134173378,215.87804569935543 79.31056531064678,214.3899523604341 81.32290555443615,214.13115237673628 84.8353539800737,213.00968187041872 88.16486238338985,211.5 88.67709444544744,211.6725356537936 91.4943707868224,216.05057753656 91.2199607535731,216.58973855864315 89.66497056512162,216.48190647170122 87.41480829252396,217.883719019228 85.58540807082318,218.01311659999192 80.60943946801126,219.56588097129134 79.84109137486666,219.3502199814975 79.34715331508778,218.07781535870163 78.61539322638419,217.517092080976 79.54838733945508,215.92117867272464 79.32885931292549,214.36838570807595 81.24972954567056,214.13115237673628 84.6890019623097,213.07438226472004 85.91470011079218,212.31954301570659 88.20145038783085,211.5 88.62221243884414,211.6725356537936 91.47607678466011,216.02901106515492 91.20166675141081,216.56817214586772 89.53691254975274,216.4603400472697 87.76239433477167,217.75432135388837 85.18294002208859,218.1209478527453 83.33524579822551,218.91889729698596 81.81684361433145,219.0482942009985 80.64602747245226,219.5874470573326 79.78620936826337,219.26395551979658 79.32885931292549,218.07781535870163 78.59709922410548,217.5386583902291 78.5788052220596,217.1720308127551 79.31056531064678,216.4603400472697 78.45074720645789,217.25829618619173 79.25568330404349,218.20721281263104 79.62156334833708,219.19925714879355 80.40820544364396,219.67371137811278 84.96341199544258,218.25034527845855 87.68921832577325,217.9268515555741 89.44544253859203,216.58973855864315 91.0736087358091,216.58973855864315 91.54925279354211,216.09371047242894 88.49415442335885,211.5 86.17081614176277,212.19014171257732 84.7255899667507,213.11751584906597 83.42671580938622,213.20378298975993 81.43266956775915,214.02331895034877 79.07274328183848,214.49778558711114 79.47521133068949,215.87804569935543 78.54221721750218,217.0210663187463 78.50562921306118,217.58179100176494 79.23738930176478,218.1425140962092 79.56668134173378,219.1561248897342 80.26185342599638,219.5874470573326 82.91448374732863,219.13455875671934 85.7683480931446,226.5531699071289 86.09764013299718,228.23525818638154 86.17081614176277,230.41332561943273 84.87194198439829,235.73978560976684 82.38395768299233,235.43788482611126 81.83513761649374,238.04715496544668 81.54243358108215,238.28435963652737" stroke="#4DD2FF" stroke-linecap="round" stroke-linejoin="round" stroke-width="0.5"><title>2025-04-29 10.1km</title><desc>1745929124000</desc></polyline><polyline fill="none" points="127.46288303844631,222.42462373730086 127.00841605523601,222.0400183712045 127.26478204579325,220.62520996679086 126.62386706948746,222.74054869628162 126.13444108766271,222.80922793049103 124.67781614157138,228.52320921795035 124.5146741476492,228.564414873661 117.09171342250193,227.09473816500395 107.62947777297813,222.83669961369014 101.5,221.53178805270727 107.58286577468971,222.85043545305234 115.052438498009,226.35302566026803 117.17328441952122,227.1496796584761 128.5,229.37479003320914 124.6195511437254,228.5369444379976 124.86426413466688,227.5342694429055 125.55179110914469,227.36944539318938 127.11329305131221,220.80377889306692 127.41627104009967,220.6938903529881 127.00841605523601,221.76529953444697" stroke="#4DD2FF" stroke-linecap="round" stroke-linejoin="round" stroke-width="0.5"><title>2025-04-22 6.3km</title><desc>1745328842000</desc></polyline><polyline fill="none" points="141.08290893549565,237.7065819974814 141.5316449047532,237.50822701070865 142.46651150728576,234.44471974590851 144.8597700096434,234.79735603785957 146.11249125690665,230.23507655138383 145.90682060446125,225.62861269786663 143.30789144942537,219.25873630018032 143.25179945328273,218.1566612082388 144.65409935708158,217.01049674367823 147.60827782098204,216.52557905377762 149.73977367463522,215.1369446930621 151.14207357843406,215.2691959952499 151.72169087198563,214.7622322007228 150.46896962460596,212.80049076444993 148.7862097400939,213.66013261199987 147.4400018324377,212.09514087894058 146.00030726462137,211.5 143.30789144942537,211.72042275195417 141.47555290861055,212.5359848455846 139.00750507798512,212.954785724025 139.38145171897486,214.49772884703998 138.2970064600231,216.06270199271967 139.10099173826165,216.74599632962781 139.5123330433853,217.89216229283193 140.3537129855249,218.33299362644902 143.42007544171065,217.60562141083938 145.19632198649924,216.83416317273804 147.53348849271424,216.52557905377762 149.4593136938056,215.225112237531 151.14207357843406,215.2471541176783 151.70299353986047,214.71814833245298 150.4876669566147,212.80049076444993 148.80490707210265,213.6160485035798 147.4400018324377,212.0730986554263 146.11249125690665,211.52204228601477 143.21440478926525,211.72042275195417 141.51294757274445,212.51394267009164 139.4749383792514,212.8225329087145 139.1944783985382,213.04295421954885 139.34405705484096,214.5638547178678 138.2970064600231,215.95249301256263 139.06359707412776,216.74599632962781 139.45624104724266,217.91420388229017 140.26022632536478,218.37707670690725 145.23371665063314,216.81212146561302 147.45869916456286,216.56966252817074 149.47801102593075,215.225112237531 151.21686290658545,215.225112237531 151.68429620796815,214.67406445462257 150.4502722924808,212.7564064686594 148.7114204118261,213.59400644570997 147.42130450042896,212.0730986554263 146.28076724533457,211.5881691295799 143.77532475069165,211.6102114059613 141.32597425219137,212.5359848455846 139.4375437151175,212.8225329087145 139.17578106641304,213.02091209929495 139.30666239082348,214.7622322007228 138.27830912801437,216.01861840786296 139.1196890702704,216.79007975605782 139.49363571126014,217.91420388229017 140.1106476689456,218.3109520825965 147.6269751531072,216.23903623607475 148.5431444233982,215.48961464011518 148.8609990682453,214.365477040541 148.59923641965725,213.5278802577959 147.68306714913342,212.40373175652348 146.2433725813171,211.54408456964302 143.7566274186829,211.6322536799853 141.25118492392357,212.602111357759 139.1570837344043,212.954785724025 139.38145171897486,214.45364492113004 138.2970064600231,215.97453481335833 139.21317573054694,217.0986634715373 138.85792642156594,217.78195430927735 139.7927930240985,219.69956465590803 140.52198897406925,222.91758255226887 140.83984361891635,226.53228134020173 140.76505429064855,228.91265746948193 138.93271574983373,237.8828973779746 140.26022632536478,238.5" stroke="#4DD2FF" stroke-linecap="round" stroke-linejoin="round" stroke-width="0.5"><title>2025-04-15 8.8km</title><desc>1744723077000</desc></polyline><polyline fill="none" points="188.32256297930144,222.11555058220983 187.53888280398678,222.0632622097619 188.11555312166456,220.37259562626423 187.43537787522655,223.1961731211777 187.59802847763058,223.63190595147898 186.69605695514474,226.62971566361375 185.823658269539,226.6471446256328 185.83844468783354,227.37915931733733 184.8329682367039,230.63832694699522 175.0295728368219,228.68632008161512 163.79189485206734,223.47504226924502 161.5,222.81272724908195 163.9545454545878,223.5970473687048 175.01478641841095,228.7037488197093 184.86254107346758,230.6208984196128 185.18784227827564,229.31375345625565 185.92716319829924,229.22661007908755 186.5629791895044,227.37915931733733 188.5,219.36167305300478 187.98247535608243,222.23755671823164" stroke="#4DD2FF" stroke-linecap="round" stroke-linejoin="round" stroke-width="0.5"><title>2025-04-11 5.1km</title><desc>1744377642000</desc></polyline><polyline fill="none" points="19.269281691638753,268.5 20.182469324558042,267.489487409548 20.424743594485335,268.23638850795396 21.337931227404624,267.489487409548 22.362937754020095,264.39201509868144 24.767043971223757,264.9412157864572 25.195683064172044,264.78743974464305 26.313872002414428,259.9763872182375 26.388417931622826,257.3401453783008 25.92250587407034,254.98946733966295 23.238852422335185,249.14560693781823 23.164306493126787,248.1569671883044 24.468860254390165,247.05847289254598 27.469333905144595,246.5751335065288 29.556619923212565,245.14707855210872 30.917083131382242,245.2788994331204 31.606632976676337,244.70767499279464 30.13435087457765,242.40079059636628 28.587522843386978,243.30157716825488 26.76114757778123,241.76364644480054 25.121137134963647,241.67576433482463 24.245222466648556,242.09320401590958 22.47475664783269,244.02659758357913 19.940195054514334,244.40009193155856 18.467912952648476,245.6743615591986 18.393367023323663,246.09179296197544 19.157462797826156,246.72892343683634 19.474282996961847,247.76150993116607 20.31292470067274,248.24484647337522 27.67433521070052,246.17967314712587 28.68070525501389,245.21298900338297 28.792524148710072,244.1364489342086 27.692971692886204,242.42276104840857 25.92250587407034,241.5 23.53703613905236,241.6318232654885 21.207475851173513,242.53261327285145 19.194735762430355,242.88413998897886 19.36246410314925,244.4220621658169 18.393367023323663,245.60845125872584 18.393367023323663,246.02588279791235 19.157462797826156,246.6630134810839 19.95883153693285,248.22287665563636 20.778836758225225,248.24484647337522 21.87838921416551,247.67363043544174 22.884759258595295,247.76150993116607 25.829323462443426,255.56066265427216 26.18341662629973,257.60377111313574 26.071597732487135,259.71276458504144 25.02795472345315,264.1723344048514 22.623848506249487,263.7988766760827 21.673387908842415,266.69864793760644" stroke="#4DD2FF" stroke-linecap="round" stroke-linejoin="round" stroke-width="0.5"><title>2025-04-08 5.6km</title><desc>1744119870000</desc></polyline><polyline fill="none" points="51.18841104069725,266.22279384173453 51.919400704151485,265.15598509067786 52.47634520957945,262.7761591798626 54.791145810333546,263.2069919617643 56.026866431871895,258.44726081666886 56.079079979273956,256.5187148169498 55.74839417915791,254.63118258801114 53.381380031001754,248.7632985329692 53.381380031001754,247.63483832952625 54.686718715704046,246.67051243354217 57.41922769561643,246.26015949061548 59.229297338286415,245.02909529639874 60.7957037598826,245.02909529639874 61.213412138982676,244.49563164620486 59.83845539117465,242.3207257387403 58.15021735901246,242.97730375418905 56.549001905776095,241.6436272625142 53.97313356801169,241.58207273487642 51.58871490403544,242.4643523752893 49.60460010328097,242.83367750897014 49.709027198085096,244.49563164620486 48.786587860959116,245.60359292195062 49.465363976953086,246.38326546740427 49.86566784029128,247.53225070299231 50.94474781956524,247.90156589698745 51.901996188331395,247.38862793192675 53.52061615732964,247.20396992248425 55.10442709468771,246.50637136369187 57.52365479042055,246.15757111515268 59.35112894885242,244.94702406400756 59.07265669613844,245.50100418883085 59.52517410682049,244.82391714828555 60.86532182310475,244.92650625035458 61.16119859163882,244.41356018124497 60.08211861230666,242.66953309456585 58.550521222292446,243.46973576329765 57.33220511657419,242.05399026606756 56.04427094775019,241.5 53.851301957445685,241.56155455451517 51.71054651460145,242.42331620461482 49.656813650683034,242.75160531961592 49.639409134862944,244.57770307539613 48.83880140830297,245.39841539978806 48.786587860959116,245.8087702206103 49.48276849271497,246.42430077510653 49.67421816656133,247.2860401712678 50.6140620195074,247.88104840523738 51.84978264098754,247.36811038423912 53.4509980941657,247.20396992248425 54.91297742095776,246.5474066445313 56.305338684644084,246.36274781019893 56.46197932685027,247.53225070299231 60.0299050649046,254.7747998355917 56.39236126356991,256.04683353322616 56.18350707407808,259.26791269924433 55.295876768475864,262.73512743496394 54.843359357793815,263.08389698182873 53.590234220493585,268.5 48.786587860959116,267.2690811709472 49.51757752435515,264.1302017472626 49.76124074548716,264.0071073706349 49.34353236632887,266.01763878189377" stroke="#4DD2FF" stroke-linecap="round" stroke-linejoin="round" stroke-width="0.5"><title>2025-04-02 6.9km</title><desc>1743601029000</desc></polyline><polyline fill="none" points="80.7553137508221,268.5 81.40103783342056,267.91794785880484 82.29365641833283,264.7166316180519 85.27538232936058,265.4330144081323 86.50985484034754,259.76904479989025 86.13001714460552,255.58253215104924 83.2242587726796,248.95557841929258 83.20526688790414,248.351082138528 83.77502343140077,247.54508433119918 84.78159332484938,247.05252855930303 88.01021373819094,246.47041567025008 89.51057263615075,245.26140670843597 90.09932106442284,245.17185020603938 90.1183129491983,244.36583992806845 89.35863755783066,242.82097805774538 88.75089724478312,242.86575682619878 88.16214881651103,242.19407427562692 87.66835981211625,242.3060215198493 86.56683049467392,241.63433713953418 85.38933363801334,241.54477905623207 84.17385301191825,241.97017960417725 82.54055092053022,243.9852228644304 80.07160589867271,244.3434507085185 78.22939307463821,245.82113396393834 79.33092239196412,247.88091713511676 80.58438678772654,248.39585970180633 84.93352840328589,246.94058390099963 87.74432735121809,246.53758262630436 89.89041033177637,245.05990452312108 91.31480169063434,245.2390175864566 91.80859069502912,244.70167792809661 90.27024802740198,242.3955792713241 88.57997028168757,243.31354397338873 87.55440850334708,242.12690589981503 86.22497656859923,241.5 83.73703966184985,241.6119476223539 81.4770053725224,242.55230524252693 79.06503600499127,242.95531433366705 79.21697108331136,244.72406710854557 78.19140930497088,246.0450244392996 79.02705223544035,246.828639181811 79.40688993118238,247.94808363007905 80.52741113340016,248.41824847973476 81.68591610528529,247.8361394596286 82.7874454226112,247.76897292815556 84.07889358792454,251.4183226643945 85.08546348148957,252.29147035496135 88.40904331859201,251.5974301854294 90.49815064494032,255.98551568786206 86.47187107068021,257.35117624123814 86.26296033803374,260.77648163713457 85.8451388728572,261.29139189134 84.78159332484938,265.0748233252234 84.55369070754386,265.25391894466884 82.29365641833283,264.8509535813937 81.59095668129157,267.5373744137469" stroke="#4DD2FF" stroke-linecap="round" stroke-linejoin="round" stroke-width="0.5"><title>2025-03-25 6.1km</title><desc>1742909450000</desc></polyline></svg>