<?xml version="1.0" encoding="utf-8" ?>
<svg baseProfile="full" height="300mm" version="1.1" viewBox="0,0,200,300" width="200mm" xmlns="http://www.w3.org/2000/svg" xmlns:ev="http://www.w3.org/2001/xml-events" xmlns:xlink="http://www.w3.org/1999/xlink"><defs /><rect fill="#222222" height="300" width="200" x="0" y="0" /><text fill="#FFFFFF" style="font-size:12px; font-family:Arial; font-weight:bold;" x="10" y="20">Over 5km Runs</text><text fill="#FFFFFF" style="font-size:4px; font-family:Arial" x="10" y="280">Runner</text><text fill="#FFFFFF" style="font-size:9px; font-family:Arial" x="10" y="290">Elliont</text><text fill="#FFFFFF" style="font-size:4px; font-family:Arial" x="65" y="280">SPECIAL TRACKS</text><rect fill="yellow" height="2.6" width="2.6" x="65" y="283" /><text fill="#FFFFFF" style="font-size:3px; font-family:Arial" x="70" y="285.5">Over 20.0 km</text><rect fill="red" height="2.6" width="2.6" x="65" y="287" /><text fill="#FFFFFF" style="font-size:3px; font-family:Arial" x="70" y="289.5">Over 40.0 km</text><text fill="#FFFFFF" style="font-size:4px; font-family:Arial" x="120" y="280">STATISTICS</text><text fill="#FFFFFF" style="font-size:3px; font-family:Arial" x="120" y="285">Number: 46</text><text fill="#FFFFFF" style="font-size:3px; font-family:Arial" x="120" y="290">Weekly: 2.0</text><text fill="#FFFFFF" style="font-size:3px; font-family:Arial" x="141" y="285">Total: 300.2 km</text><text fill="#FFFFFF" style="font-size:3px; font-family:Arial" x="141" y="290">Avg: 6.5 km</text><text fill="#FFFFFF" style="font-size:3px; font-family:Arial" x="167" y="285">Min: 5.0 km</text><text fill="#FFFFFF" style="font-size:3px; font-family:Arial" x="167" y="290">Max: 10.1 km</text><polyline fill="none" points="28.605529454303905,46.518268529333 28.52746657031821,46.73679586283106 29.122696060687304,46.9093171224813 38.5,48.73802515015268 21.189555475255474,45.29910773951997 13.871160101145506,41.894584217436204 11.5,41.261974849840044 13.822370798676275,41.92909007395065 21.306649801204912,45.34511406257661 27.014998193015344,46.495265625824686" stroke="#4DD2FF" stroke-linecap="round" stroke-linejoin="round" stroke-width="0.5"><title>2025-09-16 5.4km</title><desc>1758020593000</desc></polyline><polyline fill="none" points="68.49175824175472,48.128159159750794 63.00274725275813,47.030421242991 56.69780219779932,44.12572212158557 55.42857142855064,43.76627117185126 45.398351648356766,41.84269822861825 41.5,41.92041915176378 42.0109890110034,42.00785510932474 44.129120879108086,41.83298310844839 45.579670329694636,41.8815586986384 55.73351648350945,43.83427551668137 56.8049450549297,44.20344105538243 63.06868131869123,47.078994002818945 68.5,48.16701689155889" stroke="#4DD2FF" stroke-linecap="round" stroke-linejoin="round" stroke-width="0.5"><title>2025-09-15 6.5km</title><desc>1757932870000</desc></polyline><polyline fill="none" points="98.5,57.19437217385712 93.5187569988775,56.196509979061375 87.6304591265216,53.496875357595854 86.85946248596883,53.25630953367363 77.41853303468088,51.4208581055791 75.98992161251954,51.38521786441561 74.31942889135098,51.53668878211465 73.58622620379901,51.429768163456174 72.78499440086307,51.01099439467362 72.34658454646706,50.59221848195739 71.91573348265956,49.879403487211675 71.55291153411963,48.95273470719985 71.5,48.67651409745304 71.62849944009213,48.49830675741396 74.82586786110187,45.87861405188596 76.9574468084902,43.5618090875214 79.194848824176,41.58356213183288 82.07474804029334,39.7389373945698 83.01203807388083,39.623090007888095 83.42777155651129,39.32901513527759 84.2138857782702,38.455695643118815 84.96976483761682,36.74467531292612 85.75587905931752,35.97826917900966 89.33874580066185,34.017662651254795 91.99944008956663,32.80562782614288" stroke="#4DD2FF" stroke-linecap="round" stroke-linejoin="round" stroke-width="0.5"><title>2025-09-13 7.0km</title><desc>1757768754000</desc></polyline><polyline fill="none" points="128.5,48.28944397279702 122.53130094555672,47.116900323140726 115.96397130744299,44.08689769964258 114.88995761331171,43.73408291170199 104.10580371698597,41.63792105446919 101.5,41.648298206979234 104.24665797199123,41.72093824276817 114.57303553965176,43.713329059981334 115.83192044345196,44.08689769964258 122.58412129117642,47.17915964072745 128.46478643623414,48.36207894553081" stroke="#4DD2FF" stroke-linecap="round" stroke-linejoin="round" stroke-width="0.5"><title>2025-09-11 6.0km</title><desc>1757587445000</desc></polyline><polyline fill="none" points="155.92042574757943,56.3128930548628 151.3291941205971,55.40960736999841 146.23846933600726,53.04649538414378 145.0684237202513,52.69968420787336 136.9670552458265,51.13498103132588 135.55752660922008,51.08658762246341 133.97009630003595,51.215636642460595 133.1832235174952,51.07045647916675 132.21160669031087,50.31228877934336 131.80790674101445,49.59444199389691 131.5,48.58621846494498 134.51748606184265,46.077698750385025 135.44120628482779,45.19848683792952 136.52230106436764,43.924014335083484 138.5134313228482,42.173595452230074 139.98454130764003,41.31047044372826 140.97668525087647,40.57640293752047 141.8593512417574,40.431201909035735 142.25620881904615,40.1972663196284 143.043081601616,39.29378399802226 143.71363405979355,37.76106554982107 144.46629498223774,37.09956672995759 147.55904713633936,35.38125558397587 151.40446021288517,33.687106945129926 151.3976178408484,34.25989487217885 151.9655347186781,34.60679244707717 152.3555499239592,35.31671729878144 153.11505321844015,37.09149963469099 156.1530663963349,42.972178786381846 156.31728332483908,43.53682846988522 156.52255448553478,43.762687137343164 157.41890522043104,45.95670690495899 157.64470349717885,46.82784377876669 157.9731373542454,46.91657010740164 158.0689305625856,48.49749413716927 157.71312721740105,50.85268570046901 157.97997972628218,51.04625975758972 158.48631525592646,51.143046596378554 158.5,51.28822661739105" stroke="#4DD2FF" stroke-linecap="round" stroke-linejoin="round" stroke-width="0.5"><title>2025-09-09 10.0km</title><desc>1757415422000</desc></polyline><polyline fill="none" points="188.4628099174006,48.55079183714406 182.04752066120273,47.246680550793826 175.23243801645003,44.07948277725518 173.98657024797285,43.684945968328975 162.63429752062075,41.47112740208104 161.5,41.44920816285594 165.07954545452958,41.94238989050791 174.18181818176527,43.76166158010892 182.3729338842677,47.36722936180013 188.5,48.55079183714406" stroke="#4DD2FF" stroke-linecap="round" stroke-linejoin="round" stroke-width="0.5"><title>2025-09-08 5.7km</title><desc>1757333196000</desc></polyline><polyline fill="none" points="38.5,78.48774063018936 32.44349315069849,77.3433598306874 25.37910958903376,74.08452757853229 24.352739726018626,73.7357499472273 13.238356164365541,71.566761766735 11.5,71.4468665764798 12.813013698614668,71.53406309272395 24.08458904112922,73.71395130491146 25.490068493119907,74.17172179641057 32.36952054791618,77.35425875716464 38.41678082192084,78.55313342351292" stroke="#4DD2FF" stroke-linecap="round" stroke-linejoin="round" stroke-width="0.5"><title>2025-09-04 5.8km</title><desc>1756983645000</desc></polyline><polyline fill="none" points="68.5,78.14622428372968 63.18599759612698,77.08476381802757 56.833533653843915,74.18719830761984 53.393629807658726,73.38389589063445 45.89723557693651,71.95897233190772 44.363882211531745,71.93028235834208 42.50600961537566,72.08329544243315 41.5,71.85377571626304 41.962439903843915,72.06416882149642 42.603365384595236,72.15023858284985 44.363882211531745,71.97809897574916 45.994591346156085,72.02591556713014 56.168269230780425,74.00549959459022 57.255408653843915,74.39758582144714 63.202223557716934,77.15170314536954 66.53665865381481,77.75415479526418" stroke="#4DD2FF" stroke-linecap="round" stroke-linejoin="round" stroke-width="0.5"><title>2025-09-02 6.2km</title><desc>1756809719000</desc></polyline><polyline fill="none" points="98.5,78.49762634826038 92.40654205606552,77.30791804092587 84.17289719625842,73.66159523160604 73.02336448593996,71.50238139032444 71.5,71.39221618292504 72.9672897196142,71.52441441744304 83.60280373832211,73.58448124530696 85.04205607471522,74.0141155632009 92.55607476632576,77.45112441129459 98.49065420555416,78.60778381707496" stroke="#4DD2FF" stroke-linecap="round" stroke-linejoin="round" stroke-width="0.5"><title>2025-08-29 5.7km</title><desc>1756465472000</desc></polyline><polyline fill="none" points="128.5,78.36385409281502 122.65014817257179,77.21116515206813 115.74234441888984,74.04643906184356 114.66661178797949,73.72157718158996 103.82038195594214,71.61518805422384 101.5,71.61518805422384 103.93595653609373,71.70950497154263 114.95999341458082,73.83685087756749 122.51679288776359,77.2216442046265 128.3577543629217,78.38481194576889" stroke="#4DD2FF" stroke-linecap="round" stroke-linejoin="round" stroke-width="0.5"><title>2025-08-27 6.0km</title><desc>1756291993000</desc></polyline><polyline fill="none" points="157.2804716041428,78.37704872873292 152.73414148122538,77.54206122150936 150.7613749584998,77.03472353157849 144.538193291286,74.11748034624907 143.2558950514649,73.70525412942516 133.1409830620978,71.72865794180689 131.5,71.5489653829136 134.19910328794504,71.94006052626355 143.23796081036562,73.715824054314 144.34091663901927,74.06463092911872 150.25024908664636,76.87617995958135 151.7298239787342,77.39408800256206 157.27150448353495,78.45103461709368 157.48671537695918,77.62661724531063 158.5,77.79572907197871 157.99784124881262,77.67946472281619 158.03370973095298,77.42579656845919" stroke="#4DD2FF" stroke-linecap="round" stroke-linejoin="round" stroke-width="0.5"><title>2025-08-26 6.0km</title><desc>1756205162000</desc></polyline><polyline fill="none" points="188.5,80.04208147955796 183.3474434199452,79.02838595750654 177.74224643755588,76.44963009336789 176.5804694048711,76.08504079614795 167.3164291701396,74.29764044129115 164.22338642078103,74.43102987868042 163.40108968983986,74.24428460530908 162.60896898576175,73.76408051233011 162.2015926236345,73.27498084741092 161.53017602680484,71.60312713824533 162.02053646268905,71.0606566094284 163.3935456831532,69.95791852044931 161.7640402346733,71.25630213377735 161.5,71.62091299619351 161.93000838224543,72.85702062999917 162.28457669739146,73.4439428811238 163.5293378038332,74.32431834618183 164.306370494538,74.4843855925792 165.99622799665667,74.33321097923181 167.3918692371808,74.35988887251733 176.72380553226685,76.15618029906909 177.74979044427164,76.50298448809917 183.25691533950157,79.02838595750654" stroke="#4DD2FF" stroke-linecap="round" stroke-linejoin="round" stroke-width="0.5"><title>2025-08-23 7.3km</title><desc>1755948655000</desc></polyline><polyline fill="none" points="38.5,107.33325244977459 38.091543832444586,108.740550623952 31.189681924064644,107.38263162882504 22.737781225820072,103.53099106394075 14.516291699022986,101.75326665906323 11.5,101.259449376048 22.20364623743808,103.41988410553313 30.885958107130136,107.33325244977459 36.531031807593536,108.48131279935478" stroke="#4DD2FF" stroke-linecap="round" stroke-linejoin="round" stroke-width="0.5"><title>2025-08-19 5.0km</title><desc>1755607675000</desc></polyline><polyline fill="none" points="67.7220712150156,112.02899787578644 62.819652079371735,111.06015738978022 57.13196520792553,108.43038792958396 56.17056265292922,108.15356502668146 47.19502582223504,106.43205094241421 43.84112530580023,106.52721098670736 42.73294373470708,106.0081548144808 41.969692851329455,105.08249622141011 41.54403370482032,103.698313709996 44.72179940203205,101.11155796895764 47.71609132917365,97.97100212421356 46.83541723291273,98.75831566935813 44.809866811614484,100.95583085399994 41.5,103.70696492562274 41.66145691767451,104.36445455511421 42.2779287850135,105.56695440086332 42.79899429195211,106.05140962508449 43.701685240579536,106.49260734744894 44.200733895093435,106.57046551459644 45.93272628434352,106.41474910392571 47.378499592334265,106.43205094241421 51.0186191900284,107.12412139109074 51.33419407450128,107.01166035356437 52.77996738246293,107.27983641095489 53.212965479760896,107.4701543539777 55.407311769522494,107.79888427231344 56.82372927427059,108.257373728331 57.55762435446377,108.2400722874736 57.54294645282789,108.43903862976731 58.01263930418645,108.42173722845473 57.66036966568208,108.65530582780048 58.19611307422747,108.98403084100573 62.49673824411002,110.92175064142793 63.318700733885635,111.15531188939349 63.57556401196052,111.03420614283823 64.97730361510185,111.13801107974723 64.97730361510185,111.46672581839084 67.35512367493357,111.94249474137905 67.77344387062476,111.98574632034433 67.89086708344985,111.38887245059595 68.28717042674543,111.31966939293488 68.5,110.60168411214545" stroke="#4DD2FF" stroke-linecap="round" stroke-linejoin="round" stroke-width="0.5"><title>2025-08-16 10.0km</title><desc>1755297330000</desc></polyline><polyline fill="none" points="87.74876847286941,104.05941793077363 87.26108374382602,106.54164817935089 98.5,108.74948350632621 79.85714285715949,105.05231619346887 71.5,101.25051649366651 79.60221674875356,105.03925179599901 86.64039408869576,106.4501985024981" stroke="#4DD2FF" stroke-linecap="round" stroke-linejoin="round" stroke-width="0.5"><title>2025-08-13 5.0km</title><desc>1755095249000</desc></polyline><polyline fill="none" points="128.34882418817142,110.02523960399412 123.397816349403,109.03628576226038 117.76651735723135,106.44356623398926 116.71584546472877,106.1049919823563 107.4638857782993,104.32299914004398 104.18337066072854,104.42991980529041 103.45772676373599,104.27844882161298 102.70940649497788,103.83294430272508 102.31634938414209,103.44089831899328 101.95352743563126,102.83500537547661 101.52267637179466,101.6232060239854 102.45996640541125,100.69652381768537 103.54843225085642,99.86784718318813 102.72452407618403,100.44703066056536 101.5,101.63211637885252 102.30123180293594,103.4498084758743 102.92861142219044,104.037876682778 103.45016797314747,104.3051790155805 104.18337066072854,104.46555999598786 106.75335946248379,104.31408907828882 107.68309070548275,104.37645949012949 117.14669652856537,106.27427928332327 123.25419932810473,109.03628576226038 128.5,110.13215281681187" stroke="#4DD2FF" stroke-linecap="round" stroke-linejoin="round" stroke-width="0.5"><title>2025-08-12 8.1km</title><desc>1754996616000</desc></polyline><polyline fill="none" points="158.5,108.1314941298333 153.05585831060307,107.0427295475456 146.90871934604365,104.20995183674677 145.89509536785772,103.87271035306912 140.11580381472595,102.65863036698283 135.75885558585287,101.9070486922792 134.22207084472757,101.86850587017398 132.2765667575004,102.0323127481679 131.5,101.8974129883427 132.211171662173,102.0323127481679 134.14032697549555,101.88777728331479 135.77520435969927,101.91668439520436 145.8051771117025,103.8823458418774 146.97411444140016,104.29667086761037 152.80245231607114,106.98491866415134 158.03405994549394,108.06404892551654" stroke="#4DD2FF" stroke-linecap="round" stroke-linejoin="round" stroke-width="0.5"><title>2025-08-10 6.4km</title><desc>1754781124000</desc></polyline><polyline fill="none" points="185.8225398431823,116.29688423377956 181.32823172275675,115.39519828988705 176.23286111812922,113.04432250599348 175.26296483684564,112.72227890513022 166.86858082472463,111.07983471591433 166.11725271947216,111.03152698141639 163.76764482673025,111.16839881387568 163.25537566407002,111.04762956310879 162.5381988363515,110.63701263442636 162.03959018466412,110.07341705739236 161.56830255503883,108.97036756335001 161.5,108.55168753294856 164.48482165447786,106.10397219812876 166.54755881612073,103.88163411305868 168.49418163421797,102.18262767313718 170.94624335950357,100.58021139557968 171.21945357960067,100.45137239657197 171.90930938531528,100.42721505924419 172.1756893498823,100.25006101088366 172.92701745510567,99.42065231677407 173.69883632686106,97.76180699613178 174.39552238810575,97.10147956299625 177.51694915257394,95.41842319349962 181.37604351126356,93.70311576621316 181.37604351126356,94.29099556767324 182.0590690614772,94.73391561555763 182.26397672656458,94.9916133304796 182.37326081460924,95.41037020002113 184.7843410068599,99.70249126688577 185.7747280546464,101.87664131946804 186.3962813053804,102.73823123398324 186.40311156088137,102.98784886506473 186.68315203647944,103.41461253925809 187.1885909436387,104.88813609069621 187.57791550722322,105.58060149132507 187.9057677713281,107.01382321975689 188.01505185937276,108.46312029951514 187.7076903617708,110.54039655497763 187.78965342781157,110.66116663453431 188.5,110.87855228049739 188.41803693398833,111.52265414455906" stroke="#4DD2FF" stroke-linecap="round" stroke-linejoin="round" stroke-width="0.5"><title>2025-08-08 10.0km</title><desc>1754654808000</desc></polyline><polyline fill="none" points="38.5,138.7800683980895 31.296442687802482,137.30833346835425 23.036363636376336,133.4968301997651 14.509486166061834,131.66021936192556 11.5,131.2199316019105 22.844268774730153,133.4968301997651 31.509881422971375,137.43412351148436 38.318577075144276,138.74233183924662" stroke="#4DD2FF" stroke-linecap="round" stroke-linejoin="round" stroke-width="0.5"><title>2025-08-07 5.0km</title><desc>1754573743000</desc></polyline><polyline fill="none" points="68.5,138.793525416615 61.362313139252365,137.36629666630324 53.20495672698598,133.62286689948814 52.164044059754815,133.3098655772119 41.5,131.2064745833777 44.33595594018698,131.80744736621273 44.569630212383345,131.70728545392194 45.19630212429911,131.9702102875308 52.62077104637865,133.4851464227031 61.45790715969633,137.46645364792494 68.02202989766374,138.78100594317948" stroke="#4DD2FF" stroke-linecap="round" stroke-linejoin="round" stroke-width="0.5"><title>2025-08-04 5.0km</title><desc>1754309955000</desc></polyline><polyline fill="none" points="98.5,138.14201955803583 93.10327570518712,137.06092628045735 86.879435850773,134.20368771221547 85.94585987261962,133.89479153889988 76.06960873521166,131.94485959618032 74.33348498636042,131.85798044197145 72.22065514104906,132.02208543952293 71.5,131.86763368552784 71.655595996388,131.9834725262699 72.64649681528681,132.0510451134469 75.5045495905797,131.89659340991057 79.4272065514233,132.66884923579346 80.05777979985578,132.67850239104155 81.14695177433896,133.0067090436205 85.83939945403836,133.90444456062687 87.14149226568406,134.3677883663695 93.00500454960275,137.0512736025339 97.94313011830673,138.04549390864122" stroke="#4DD2FF" stroke-linecap="round" stroke-linejoin="round" stroke-width="0.5"><title>2025-08-03 6.5km</title><desc>1754227262000</desc></polyline><polyline fill="none" points="125.3726695755613,138.1623588235816 118.20765569218202,136.73586513449845 109.17909559700638,132.72139044905634 101.5,131.15596012532478 109.84311781043652,132.89813125411456 118.48611662042094,136.84948031948443 128.5,138.8440398746825 125.59758032526588,138.1876063413947 125.59758032526588,137.99824982374412" stroke="#4DD2FF" stroke-linecap="round" stroke-linejoin="round" stroke-width="0.5"><title>2025-08-01 5.0km</title><desc>1754057984000</desc></polyline><polyline fill="none" points="155.91685649202554,146.27037494332762 151.31093394078198,145.3601775738207 146.2403189066099,143.0242215596445 145.15375854211743,142.6778493869424 136.9533029612794,141.09096078505536 135.45671981776832,141.04262861816096 133.96697038723505,141.1715143263209 133.2562642369012,141.04262861816096 132.66856492025545,140.71235796572728 132.23804100227426,140.30153143710777 131.74601366743445,139.3670939708245 131.5,138.5534793191764 134.51366742598475,136.05619032276445 136.6047835990903,133.82467041152995 138.51822323462693,132.14897219411068 139.96013667425723,131.31916526597342 141.08769931664574,130.48934902359179 141.8872437357786,130.40878384379903 142.1742596811091,130.23154013918975 143.04897494305624,129.22446556884097 143.7323462414497,127.70979958012322 144.40205011391663,127.10553587078903 147.60022779044812,125.34911464173638 151.3451025056711,123.72962505667238 151.4066059225297,124.25334447635396 151.9533029612794,124.63203159109253 152.52050113896257,125.64722577278008 152.86902050112258,126.62212134669971 153.73006833714317,128.40268255403498 155.97152619590634,132.60012545042264 156.27220956719248,133.502423703947 157.16059225512436,135.36337907554844 157.76195899772574,137.4337375864925 157.80296127562178,138.72264745914435 157.7209567198006,139.18987173997448 157.93280182231683,139.34292732799076 157.73462414575624,140.5593052120239 158.5,140.8492996347486 158.4726651480305,141.24401243845932" stroke="#4DD2FF" stroke-linecap="round" stroke-linejoin="round" stroke-width="0.5"><title>2025-07-28 10.0km</title><desc>1753704756000</desc></polyline><polyline fill="none" points="185.8488933601766,138.31062527570612 178.6778672032524,136.87627334967692 170.4637826961698,133.11101630351186 169.12736418511486,132.66276338630996 161.5,131.13869068601343 169.9639839034062,132.95732978155138 177.03722334007034,136.28715945468866 178.8734406438307,136.97872763887426 188.5,138.86130931398657 185.95754527160898,138.28501200188475 186.08792756538605,137.45257756528008" stroke="#4DD2FF" stroke-linecap="round" stroke-linejoin="round" stroke-width="0.5"><title>2025-07-22 5.0km</title><desc>1753194638000</desc></polyline><polyline fill="none" points="26.85765124554746,166.42519329274364 35.801601423474494,168.19949229255872 38.5,168.35993243262783 36.145907473313855,168.22780528003204 21.40480427048169,165.33983291356708 14.975088967999909,162.42344943210628 11.5,161.64006756737217 14.935053380817408,162.4423260161784 20.964412811386865,165.2265771343009 23.4466192171094,165.7551028379603" stroke="#4DD2FF" stroke-linecap="round" stroke-linejoin="round" stroke-width="0.5"><title>2025-07-19 6.4km</title><desc>1752877000000</desc></polyline><polyline fill="none" points="66.02734673110535,176.34391244150902 61.43233273975784,175.4290842026603 56.21228694988531,173.04076273152896 55.31938438056386,172.7573974648767 46.83680997201009,171.12195396038442 43.897099974536104,171.21911002537672 43.25833121340838,171.09766492430208 42.66077334008878,170.74952120145463 42.07695242940099,170.13419342420093 41.56868481301353,168.99258497641858 41.5,168.5796584536438 44.50152632917161,166.09395424617105 46.48651742559741,163.94014982158842 48.4440345967887,162.23163649913477 50.8342660900671,160.63644878939522 51.25324344949331,160.43401135208114 51.89201221065014,160.4016213109353 52.34533197659766,160.1182078485581 53.087127957260236,159.2355704255533 53.753370643622475,157.72129647624388 54.46082421779283,157.06537144248432 57.93627575680148,155.17044436939614 61.48728059019777,153.65608755849098 61.49414907148457,154.23915907630726 62.04362757568015,154.6035764509361 62.40765708469553,155.27571936370805 63.15632154667401,156.99249052570667 65.46413126430707,161.33282936178875 66.06855761894258,162.78225171761005 66.23340117017506,162.9360993582086 67.27054184686858,165.59194526018837 67.5040702111437,165.92391932424653 67.87496820147499,167.3084780893114 67.94365301451762,168.22340627683297 67.83375731366687,169.61601871328457 67.4972017298569,170.9195450837724 68.5,171.14624298853596" stroke="#4DD2FF" stroke-linecap="round" stroke-linejoin="round" stroke-width="0.5"><title>2025-07-17 10.0km</title><desc>1752756134000</desc></polyline><polyline fill="none" points="98.5,168.81001207380177 91.34195969975553,167.37658058895613 82.26372975111008,163.34024369516555 71.5,161.18998792619095 82.74377716321032,163.54143516851764 91.13927301467629,167.3640065497966 98.16930067166686,168.79743819076248" stroke="#4DD2FF" stroke-linecap="round" stroke-linejoin="round" stroke-width="0.5"><title>2025-07-14 5.0km</title><desc>1752500928000</desc></polyline><polyline fill="none" points="128.5,168.78223850869836 121.34362783422694,167.37637853726483 113.94448788114823,163.94252392493217 112.19233776384499,163.30799601293256 101.5,161.21776149130892 112.88897576229647,163.4946222352737 121.47028928849613,167.42614378735016 127.74003127444303,168.68270916824258" stroke="#4DD2FF" stroke-linecap="round" stroke-linejoin="round" stroke-width="0.5"><title>2025-06-21 5.0km</title><desc>1750468889000</desc></polyline><polyline fill="none" points="149.97303190268576,166.65815049567027 156.99414734909078,168.06054482147738 158.5,168.14088944171817 157.20484278173535,168.06054482147738 145.72813862748444,165.81816068684566 144.49495065413066,165.33607482795196 140.80778058295255,163.5830061302404 140.15710351159214,163.3711738928905 132.63403718156042,161.91024369176012 131.5,161.85911055827455 132.5039017672825,161.8810247631336 135.43504705070518,162.4215728822819 140.70862979115918,163.56109248151915 144.63128299286473,165.4164227117435 145.63518476014724,165.80355207536923 146.72584347025258,166.0226809134765" stroke="#4DD2FF" stroke-linecap="round" stroke-linejoin="round" stroke-width="0.5"><title>2025-06-17 8.1km</title><desc>1750165544000</desc></polyline><polyline fill="none" points="188.5,168.7659015625395 181.6925754059921,167.41218310472323 172.81786542921327,163.44938676458696 161.5,161.2340984374605 172.83874709974043,163.49861490079638 181.54640371224377,167.39987649892282 187.28886310901726,168.56899806736328" stroke="#4DD2FF" stroke-linecap="round" stroke-linejoin="round" stroke-width="0.5"><title>2025-06-15 5.0km</title><desc>1749939796000</desc></polyline><polyline fill="none" points="30.15694828683627,196.5476281631636 36.52915513937478,197.8208640805533 38.5,197.94276827983776 36.948606086400105,197.84795392326487 26.28420940626529,195.77554687948214 25.244200893794186,195.38272991589474 21.767929346649908,193.73016241009464 20.992232389864512,193.47279138720114 13.982230261783116,192.11818949895314 13.13183656099136,192.05723172016587 11.5,192.18592029421416 13.815599063644186,192.10464333106574 20.693445413926383,193.43215375990985 21.52660140453372,193.66243329680947 23.514683975314256,194.60386135783847" stroke="#4DD2FF" stroke-linecap="round" stroke-linejoin="round" stroke-width="0.5"><title>2025-06-11 8.1km</title><desc>1749642919000</desc></polyline><polyline fill="none" points="68.5,198.75761206554307 61.48565335402964,197.40021930405055 52.670608763059136,193.46368833849556 41.5,191.24238793445693 52.796238852257375,193.51305007506744 61.5589375726413,197.46191932777583 67.3379216750618,198.62187352111505" stroke="#4DD2FF" stroke-linecap="round" stroke-linejoin="round" stroke-width="0.5"><title>2025-06-08 5.0km</title><desc>1749387304000</desc></polyline><polyline fill="none" points="81.9601398599334,202.2563473537739 84.86783216753975,200.52019920607563 90.98531468515284,199.40727984640398 94.08181818178855,197.09239786749822 97.44265734264627,197.18143203217187 98.3489510489162,196.42464101308724 92.3825174823869,186.7197848650394 88.34195804176852,187.5211119944288 84.4902097901795,189.7915303253103 82.3377622377593,189.7915303253103 78.9013986014761,191.39417096233228 73.27482517482713,192.55162973457482 73.46363636362366,196.20205515241832 71.5,198.65049295013887 73.16153846145608,200.4756824898359 73.8790209791623,202.74602883096668 74.9363636362832,203.41377535375068 81.50699300691485,202.03376467025373 84.98111888114363,200.4756824898359 90.04125874117017,199.8079311651527 94.27062937058508,197.09239786749822 97.2538461536169,197.22594910740736 98.46223776205443,196.20205515241832 92.3825174823869,186.58623019064544 87.88881118874997,187.5656301221461 84.56573426560499,189.74701244014432 81.5447552446276,190.05863753479207 77.84405594388954,191.70579480053857 73.38811188796535,192.46259456081316 73.5013986013364,196.42464101308724 71.5,198.65049295013887 73.27482517482713,200.56471591748414 74.18111888109706,202.87957822266617 75.46503496496007,203.50280814105645 85.81188811152242,200.34213231221656 90.15454545430839,199.8524479540356 93.89300699299201,197.3149832431227 97.36713286698796,197.2704661777243 98.5,196.15753796565696 91.96713286708109,186.45267547256663 87.51118881092407,187.8327387869067 84.41468531475402,189.74701244014432 73.57692307676189,192.24000654157135 73.53916083928198,196.20205515241832 71.53776223771274,198.56145910560736 73.23706293688156,200.4756824898359 73.8790209791623,202.6124793953786 75.8048951048404,203.54732452743337 91.06083916057833,198.91759436775465 92.94895104877651,196.38012385068578 92.3825174823869,193.842637573689 89.8902097903192,190.7264047942881 87.77552447561175,189.65797665526043 85.96293706283905,189.56894085078966 83.88601398584433,190.4147802090156 80.52517482521944,194.46588127722498 75.16293706302531,195.35622777591925 71.95314685301855,197.89370465217507 71.83986013988033,198.96211125364061 73.6524475524202,201.14343272330007" stroke="#4DD2FF" stroke-linecap="round" stroke-linejoin="round" stroke-width="0.5"><title>2025-06-04 6.4km</title><desc>1749041988000</desc></polyline><polyline fill="none" points="128.5,198.7822926046283 121.57987592089921,197.4002201252515 113.69658782478655,193.75985925654095 112.50310197751969,193.36496562202228 101.5,191.2177073953717 112.81717720051529,193.4883700306309 121.42283830943052,197.37554010635358 127.17041488946415,198.56017495014385" stroke="#4DD2FF" stroke-linecap="round" stroke-linejoin="round" stroke-width="0.5"><title>2025-05-28 5.0km</title><desc>1748436903000</desc></polyline><polyline fill="none" points="158.5,198.7704701553448 151.002373417723,197.2346258794205 142.31922468356788,193.30680015370308 131.5,191.21694104147173 141.9667721518781,193.2312637355426 143.26977848104434,193.64671342453948 151.63251582282828,197.4738160835186 158.37183544307481,198.78305895852827" stroke="#4DD2FF" stroke-linecap="round" stroke-linejoin="round" stroke-width="0.5"><title>2025-05-27 5.0km</title><desc>1748351986000</desc></polyline><polyline fill="none" points="181.49476505536586,200.56973551820556 181.53084708336974,198.9533236429561 182.37877474335255,197.03381156545947 182.93804617866408,193.47254545317264 182.9019641505438,193.80089273079648 182.09011851868127,193.90192251550616 178.13913644338027,196.70547147485195 176.6417322778725,197.0590684653289 176.0463788144407,196.0740461719688 176.7319373480277,194.9627310827491 177.99480833107373,193.97769480869465 177.79635717655765,192.28543766700022 178.39171063998947,191.19935197279847 177.59790602215799,190.74470907823707 174.69330276129767,190.79522502458713 173.93558017147006,189.68387021525996 174.18815436813748,188.37044011337275 174.747425803449,188.54724869203346 174.69330276129767,187.6884621843492 175.52318940724945,188.19363132303988 177.03863458684646,188.14311448692752 178.24738252768293,188.95138179129572 179.88911480555544,189.0018983510381 180.55663232511142,188.67354040438659 182.19836460298393,186.37501433712896 182.2705286591081,182.53563826884783 181.67517519567627,181.85363339612377 180.73704246553825,181.5 179.5824175667949,181.82837389592896 178.55407976638526,182.9650471285422 177.76027514843736,183.24289925477933 176.1365838847123,182.93978781838086 174.42268755059922,182.00519030670694 172.8531193289673,182.53563826884783 172.0593147110776,183.7480835996248 172.0953967391979,185.0362958573969 172.78095527278492,185.99613297969336 174.332482480444,186.72863606043393 174.69330276129767,187.61268666454998 173.9897032136214,189.2544808901148 174.4948516068398,190.769967053624 174.6211387051153,192.86636394601373 173.9536211855011,195.13953176994983 174.47681059275055,195.7709610677848 176.0102967864368,196.14981735081528 176.60565024975222,197.0590684653289 175.23453318257816,199.28165873675607 173.53867786249612,199.96358313792734 170.70623865787638,202.03459350085177 168.6495630570571,202.91855249649961 168.18049669195898,204.13083051687863 167.02587179321563,205.3936095416866 168.0181275656214,208.22219538311765 168.92017826763913,208.42423515632981 170.11088519450277,207.6918396637484 171.50004327576607,208.2727053523995 172.51034006214468,208.14643039696966 173.30414468003437,207.31301298408653 173.88145712943515,205.21682112806593 175.2525741966092,204.4591541018599 178.39171063998947,205.4441204781615 179.5824175667949,204.8632436661428 181.44064201315632,204.76222137876903 181.54888809740078,199.15537609483 182.97412820678437,194.15449667496432 182.75763603823725,193.80089273079648 182.21640561695676,193.8514076318097 178.1571774574113,196.7307284307899 176.69585532002384,197.03381156545947 175.09020507021341,199.35742827017384 173.37630873615853,200.03935232151707 170.68819764390355,202.03459350085177 168.75780914135976,202.7922729638667 168.18049669195898,204.20659756285022 167.02587179321563,205.49463139727595 167.92792249534978,208.09592038458504 168.5232759587816,208.5 170.0026391102001,207.6918396637484 171.69849443022395,208.29796033048478 172.83507831487805,207.8433700636233" stroke="#4DD2FF" stroke-linecap="round" stroke-linejoin="round" stroke-width="0.5"><title>2025-05-23 6.4km</title><desc>1747958832000</desc></polyline><polyline fill="none" points="27.453080175211653,226.2609099506517 28.18378490814939,226.95508605199575 30.010546740610152,227.24737005149655 30.923927656840533,228.41650205080805 30.689058278338052,233.01989710853377 30.245416118996218,233.86018867589883 28.653523665154353,234.33513462169503 27.087727808742784,233.78711997522623 25.626318342634477,234.11592893171473 23.147141569992527,232.65455191805086 21.65963550633751,233.23910392301332 20.5635784069309,233.0564315932861 20.876737578073516,231.99692900072841 20.093839650042355,229.95097809076833 20.32870902842842,228.48957258829614 19.493617905071005,227.10122810167377 19.858970271539874,224.90908685923205 25.130482988082804,224.6898714978597 26.931148222996853,225.3475169071171 27.870625736773945,226.84547944900987 29.88006375252735,227.21083457340137 30.767348071211018,228.05114898820466 30.689058278338052,233.1295005438733 30.29760931432247,233.86018867589883 28.757910055457614,234.29860035570164 27.270403991802596,233.8236543286912 25.57412514742464,234.07939462825016 23.09494837478269,232.6910864651727 19.937260064296424,233.3487072458811 18.240981219802052,234.73701113578863 18.789009769563563,235.1388868940121 19.20655533124227,237.33092317769479 21.764021896757185,238.5 22.86007899628021,237.7327940568066 23.590783729334362,236.2349078469706 23.48639733879827,235.0658186305227 22.129374263226055,232.91029361690744 23.48639733879827,232.6910864651727 25.600221745087765,234.07939462825016 27.270403991802596,233.60444811395428 27.061631211079657,233.0564315932861 25.365352366585284,233.09296607170836 24.451971450354904,231.92385966274014 25.313159171375446,228.48957258829614 23.068851777119562,225.05523030851327 23.225431362749077,222.315023998759 23.825653107720427,221.14585860955412 25.02609659754671,220.45166363242606 27.296500589465722,221.18239512490982 29.14935901958961,220.70741993909178 27.061631211079657,222.7534593702294 24.895613609580323,222.64385061174107 23.590783729334362,221.65736925475358 21.58134571358096,221.21893163386267 21.633538908790797,216.7614314134844 22.52082322735805,214.89802260746364 22.57301642256789,212.12114795439993 23.1210449723294,211.57307632359152 24.791227219160646,211.5 29.593001178931445,212.19422406563535 30.584671887918375,213.0711354503146 30.923927656840533,214.89802260746364 31.759018780314364,215.81146032754623 31.210990230552852,216.5422076916584 31.55024599947501,217.0171921379515 29.906160350190476,218.00369492125174 29.723484166897833,220.30551703396486 27.296500589465722,222.68038687076478 25.391448964131996,222.7534593702294 23.512493936461397,221.54775993383373 21.68573210388422,221.328541123381 21.607442311244085,217.0171921379515 22.729596008197404,213.29036273398378 23.903942900593393,212.85190794157097 23.930039498140104,211.7557670234819 29.279842007556,212.0846098894981" stroke="#4DD2FF" stroke-linecap="round" stroke-linejoin="round" stroke-width="0.5"><title>2025-05-20 5.0km</title><desc>1747754393000</desc></polyline><polyline fill="none" points="64.92259414237924,226.88678985866136 67.4456066947896,227.19754025462316 68.5,226.08771632399294 62.2489539750386,216.6762878690206 57.88075313810259,217.74174351306283 54.4916317993775,219.73946533541312 52.382845188258216,219.82825274462812 47.26150627620518,221.78157085122075 43.15690376586281,222.35868577228393 43.49581589968875,226.13210933920345 41.5,228.70689594867872 43.15690376586281,230.1718534809188 43.75941422604956,232.21390670671826 44.66317991632968,233.10175274306675 46.35774058592506,233.36810617669835 54.830543933203444,230.6157789659337 59.87656903779134,229.9054979578359 64.24476987472735,227.01996862894157 67.4456066947896,227.10875445153215 68.4246861927677,226.26528835605131 62.399581590201706,216.72068190973368 60.7426778243389,216.76507594564464 54.64225941430777,219.65067790696048 51.85564853576943,219.9614338221727 48.35355648538098,221.5596033561451 42.85564853576943,222.58065283187898 43.64644351485185,225.51060668524588 41.5,228.66250321402913 43.08158995839767,229.9942831514636 43.57112970738672,231.85876775055658 44.70083682029508,233.05736048726249 46.35774058592506,233.2793217182916 55.5460251045879,230.26063861662988 60.47907949821092,229.63914226053748 64.05648535559885,227.10875445153215 67.48326359852217,227.10875445153215 68.4246861927677,226.17650234969915 62.399581590201706,216.76507594564464 61.08158995816484,216.63189382333076 57.69246861943975,217.74174351306283 54.75523012550548,219.65067790696048 52.34518828452565,219.73946533541312 47.826359832892194,221.64839036864578 43.34518828475848,222.44747261054 43.57112970738672,225.95453724917024 41.57531380769797,228.5737177300034 43.08158995839767,230.08306832588278 44.13598326360807,232.70222226623446 46.50836820108816,233.23492948169587 54.15271966555156,230.660171487747" stroke="#4DD2FF" stroke-linecap="round" stroke-linejoin="round" stroke-width="0.5"><title>2025-05-14 5.0km</title><desc>1747227249000</desc></polyline><polyline fill="none" points="81.06141099985689,238.2072240831185 81.6113941486692,237.70532147266204 82.40975678374525,234.73570418082818 84.8048446890898,235.1121370839246 86.09996629727539,229.92566322856874 85.85158681077883,226.60039055150992 83.35005055402871,220.3470488191233 83.45649890543427,218.94577039235446 85.1951553109102,218.00460749759804 87.78539852704853,217.56539656739915 89.45308936492074,216.41507746368006 90.81917654059362,216.5405671554763 91.33367690548766,215.99677789857378 88.58376116224099,211.60457742671133 87.89184687833767,211.5 85.99351794598624,212.1902099634608 84.8048446890898,213.00590944757278 83.77584395941813,213.02682477340568 81.6823597161565,213.863435936757 79.53565129719209,214.17716418294003 79.67758243228309,215.80854279684718 78.66632309451234,217.08435487173847 78.84373701340519,217.54448173608398 79.44694433768746,217.9418631404842 80.05015166208614,219.34314889581583 80.81303151347674,219.42680742329685 87.6257260000566,217.37716300397005 88.38860585144721,216.7078866167867 88.67246812174562,215.80854279684718 88.33538167562801,214.6372980163287 87.14670841896441,213.3614696762961 85.6919142837869,212.9013327843859 84.41453406750225,213.25689320683887 82.71136044594459,215.1810911246721 80.28078975668177,215.59939246736758 78.87921979720704,216.85429102586932 78.9147025810089,217.54448173608398 80.81303151347674,219.00851442132262 82.97748132422566,218.77845288168464 87.57250182447024,217.37716300397005 88.56601977034006,216.45690737005498 88.61924394604284,215.4529871011182 87.89184687833767,214.13533377973363 86.1709318648791,212.96407878912578 83.77584395941813,213.04774009693938 81.52268718916457,213.94709685254202 79.50016851339024,214.34448570449604 79.65984104049858,215.8922028648376 78.68406448629685,217.1680143837002 79.4646857297048,217.9418631404842 79.85499635129236,219.0712584296998 80.75980733777396,219.44772204950277 81.8242908512475,218.90394102841674 83.79358535131905,218.56930578823085 83.33230916212779,219.42680742329685 83.38553333771415,220.09607433053316 85.6209487161832,225.70109307739767 86.15319047297817,228.294404584085 85.95803516218439,231.20138148439582 85.07096556760371,234.5265744713688 82.78232601343188,234.19196646231285 81.87751502695028,237.24524292709248 81.18560074316338,237.53802031086525 80.90173847286496,238.5 80.52916924317833,238.35361209738767" stroke="#4DD2FF" stroke-linecap="round" stroke-linejoin="round" stroke-width="0.5"><title>2025-05-06 7.1km</title><desc>1746539597000</desc></polyline><polyline fill="none" points="111.81684361433145,238.5 111.63390359212644,238.28435963652737 112.49372169631533,235.41632046682935 114.67070796014741,235.9338644418458 115.05488200671971,235.26536988592125 116.18911014404148,230.49958522240922 116.15252213960048,228.12743244334706 112.91448374732863,219.1561248897342 112.03637164086103,218.96202960774826 110.79237949021626,219.56588097129134 110.02403139707167,219.41491830308223 108.5788052220596,217.1720308127551 109.56668134173378,216.09371047242894 109.32885931292549,214.36838570807595 110.60943946801126,214.3036857367988 114.890235986677,213.09594905805716 116.28058015508577,212.2332754896488 118.56733043212444,211.54313392755284 121.51266478910111,216.05057753656 121.14678474480752,216.63287137694715 119.53691254975274,216.48190647170122 117.81727634125855,217.7327550680784 115.2012340243673,218.1209478527453 113.66453783819452,218.85419881320558 111.70707960100845,219.11299262134708 110.51796945696697,219.60901314098737 109.74962136382237,219.28552163871063 109.31056531064678,218.07781535870163 108.61539322638419,217.56022469713935 108.61539322638419,217.1504644635279 109.56668134173378,215.87804569935543 109.31056531064678,214.3899523604341 111.32290555443615,214.13115237673628 114.8353539800737,213.00968187041872 118.16486238338985,211.5 118.67709444544744,211.6725356537936 121.4943707868224,216.05057753656 121.2199607535731,216.58973855864315 119.66497056512162,216.48190647170122 117.41480829252396,217.883719019228 115.58540807082318,218.01311659999192 110.60943946801126,219.56588097129134 109.84109137486666,219.3502199814975 109.34715331508778,218.07781535870163 108.61539322638419,217.517092080976 109.54838733945508,215.92117867272464 109.32885931292549,214.36838570807595 111.24972954567056,214.13115237673628 114.6890019623097,213.07438226472004 115.91470011079218,212.31954301570659 118.20145038783085,211.5 118.62221243884414,211.6725356537936 121.47607678466011,216.02901106515492 121.20166675141081,216.56817214586772 119.53691254975274,216.4603400472697 117.76239433477167,217.75432135388837 115.18294002208859,218.1209478527453 113.33524579822551,218.91889729698596 111.81684361433145,219.0482942009985 110.64602747245226,219.5874470573326 109.78620936826337,219.26395551979658 109.32885931292549,218.07781535870163 108.59709922410548,217.5386583902291 108.5788052220596,217.1720308127551 109.31056531064678,216.4603400472697 108.45074720645789,217.25829618619173 109.25568330404349,218.20721281263104 109.62156334833708,219.19925714879355 110.40820544364396,219.67371137811278 114.96341199544258,218.25034527845855 117.68921832577325,217.9268515555741 119.44544253859203,216.58973855864315 121.0736087358091,216.58973855864315 121.54925279354211,216.09371047242894 118.49415442335885,211.5 116.17081614176277,212.19014171257732 114.7255899667507,213.11751584906597 113.42671580938622,213.20378298975993 111.43266956775915,214.02331895034877 109.07274328183848,214.49778558711114 109.47521133068949,215.87804569935543 108.54221721750218,217.0210663187463 108.50562921306118,217.58179100176494 109.23738930176478,218.1425140962092 109.56668134173378,219.1561248897342 110.26185342599638,219.5874470573326 112.91448374732863,219.13455875671934 115.7683480931446,226.5531699071289 116.09764013299718,228.23525818638154 116.17081614176277,230.41332561943273 114.87194198439829,235.73978560976684 112.38395768299233,235.43788482611126 111.83513761649374,238.04715496544668 111.54243358108215,238.28435963652737" stroke="#4DD2FF" stroke-linecap="round" stroke-linejoin="round" stroke-width="0.5"><title>2025-04-29 10.1km</title><desc>1745929124000</desc></polyline><polyline fill="none" points="157.4628830384463,222.42462373730086 157.008416055236,222.0400183712045 157.26478204579325,220.62520996679086 156.62386706948746,222.74054869628162 156.1344410876627,222.80922793049103 154.67781614157138,228.52320921795035 154.5146741476492,228.564414873661 147.09171342250193,227.09473816500395 137.62947777297813,222.83669961369014 131.5,221.53178805270727 137.5828657746897,222.85043545305234 145.052438498009,226.35302566026803 147.17328441952122,227.1496796584761 158.5,229.37479003320914 154.6195511437254,228.5369444379976 154.86426413466688,227.5342694429055 155.5517911091447,227.36944539318938 157.1132930513122,220.80377889306692 157.41627104009967,220.6938903529881 157.008416055236,221.76529953444697" stroke="#4DD2FF" stroke-linecap="round" stroke-linejoin="round" stroke-width="0.5"><title>2025-04-22 6.3km</title><desc>1745328842000</desc></polyline><polyline fill="none" points="171.08290893549565,237.7065819974814 171.5316449047532,237.50822701070865 172.46651150728576,234.44471974590851 174.8597700096434,234.79735603785957 176.11249125690665,230.23507655138383 175.90682060446125,225.62861269786663 173.30789144942537,219.25873630018032 173.25179945328273,218.1566612082388 174.65409935708158,217.01049674367823 177.60827782098204,216.52557905377762 179.73977367463522,215.1369446930621 181.14207357843406,215.2691959952499 181.72169087198563,214.7622322007228 180.46896962460596,212.80049076444993 178.7862097400939,213.66013261199987 177.4400018324377,212.09514087894058 176.00030726462137,211.5 173.30789144942537,211.72042275195417 171.47555290861055,212.5359848455846 169.00750507798512,212.954785724025 169.38145171897486,214.49772884703998 168.2970064600231,216.06270199271967 169.10099173826165,216.74599632962781 169.5123330433853,217.89216229283193 170.3537129855249,218.33299362644902 173.42007544171065,217.60562141083938 175.19632198649924,216.83416317273804 177.53348849271424,216.52557905377762 179.4593136938056,215.225112237531 181.14207357843406,215.2471541176783 181.70299353986047,214.71814833245298 180.4876669566147,212.80049076444993 178.80490707210265,213.6160485035798 177.4400018324377,212.0730986554263 176.11249125690665,211.52204228601477 173.21440478926525,211.72042275195417 171.51294757274445,212.51394267009164 169.4749383792514,212.8225329087145 169.1944783985382,213.04295421954885 169.34405705484096,214.5638547178678 168.2970064600231,215.95249301256263 169.06359707412776,216.74599632962781 169.45624104724266,217.91420388229017 170.26022632536478,218.37707670690725 175.23371665063314,216.81212146561302 177.45869916456286,216.56966252817074 179.47801102593075,215.225112237531 181.21686290658545,215.225112237531 181.68429620796815,214.67406445462257 180.4502722924808,212.7564064686594 178.7114204118261,213.59400644570997 177.42130450042896,212.0730986554263 176.28076724533457,211.5881691295799 173.77532475069165,211.6102114059613 171.32597425219137,212.5359848455846 169.4375437151175,212.8225329087145 169.17578106641304,213.02091209929495 169.30666239082348,214.7622322007228 168.27830912801437,216.01861840786296 169.1196890702704,216.79007975605782 169.49363571126014,217.91420388229017 170.1106476689456,218.3109520825965 177.6269751531072,216.23903623607475 178.5431444233982,215.48961464011518 178.8609990682453,214.365477040541 178.59923641965725,213.5278802577959 177.68306714913342,212.40373175652348 176.2433725813171,211.54408456964302 173.7566274186829,211.6322536799853 171.25118492392357,212.602111357759 169.1570837344043,212.954785724025 169.38145171897486,214.45364492113004 168.2970064600231,215.97453481335833 169.21317573054694,217.0986634715373 168.85792642156594,217.78195430927735 169.7927930240985,219.69956465590803 170.52198897406925,222.91758255226887 170.83984361891635,226.53228134020173 170.76505429064855,228.91265746948193 168.93271574983373,237.8828973779746 170.26022632536478,238.5" stroke="#4DD2FF" stroke-linecap="round" stroke-linejoin="round" stroke-width="0.5"><title>2025-04-15 8.8km</title><desc>1744723077000</desc></polyline><polyline fill="none" points="38.32256297930144,252.11555058220983 37.53888280398678,252.0632622097619 38.11555312166456,250.37259562626423 37.43537787522655,253.1961731211777 37.59802847763058,253.63190595147898 36.69605695514474,256.62971566361375 35.82365826953901,256.6471446256328 35.838444687833544,257.3791593173373 34.83296823670389,260.6383269469952 25.0295728368219,258.6863200816151 13.791894852067344,253.47504226924502 11.5,252.81272724908195 13.954545454587787,253.5970473687048 25.01478641841095,258.7037488197093 34.86254107346758,260.6208984196128 35.18784227827564,259.31375345625565 35.92716319829924,259.22661007908755 36.562979189504404,257.3791593173373 38.5,249.36167305300478 37.98247535608243,252.23755671823164" stroke="#4DD2FF" stroke-linecap="round" stroke-linejoin="round" stroke-width="0.5"><title>2025-04-11 5.1km</title><desc>1744377642000</desc></polyline><polyline fill="none" points="49.26928169163875,268.5 50.18246932455804,267.489487409548 50.424743594485335,268.23638850795396 51.337931227404624,267.489487409548 52.362937754020095,264.39201509868144 54.76704397122376,264.9412157864572 55.195683064172044,264.78743974464305 56.31387200241443,259.9763872182375 56.388417931622826,257.3401453783008 55.92250587407034,254.98946733966295 53.238852422335185,249.14560693781823 53.16430649312679,248.1569671883044 54.468860254390165,247.05847289254598 57.469333905144595,246.5751335065288 59.556619923212565,245.14707855210872 60.91708313138224,245.2788994331204 61.60663297667634,244.70767499279464 60.13435087457765,242.40079059636628 58.58752284338698,243.30157716825488 56.76114757778123,241.76364644480054 55.12113713496365,241.67576433482463 54.245222466648556,242.09320401590958 52.47475664783269,244.02659758357913 49.940195054514334,244.40009193155856 48.467912952648476,245.6743615591986 48.39336702332366,246.09179296197544 49.157462797826156,246.72892343683634 49.47428299696185,247.76150993116607 50.31292470067274,248.24484647337522 57.67433521070052,246.17967314712587 58.68070525501389,245.21298900338297 58.79252414871007,244.1364489342086 57.6929716928862,242.42276104840857 55.92250587407034,241.5 53.53703613905236,241.6318232654885 51.20747585117351,242.53261327285145 49.194735762430355,242.88413998897886 49.36246410314925,244.4220621658169 48.39336702332366,245.60845125872584 48.39336702332366,246.02588279791235 49.157462797826156,246.6630134810839 49.95883153693285,248.22287665563636 50.778836758225225,248.24484647337522 51.87838921416551,247.67363043544174 52.884759258595295,247.76150993116607 55.829323462443426,255.56066265427216 56.18341662629973,257.60377111313574 56.071597732487135,259.71276458504144 55.02795472345315,264.1723344048514 52.62384850624949,263.7988766760827 51.673387908842415,266.69864793760644" stroke="#4DD2FF" stroke-linecap="round" stroke-linejoin="round" stroke-width="0.5"><title>2025-04-08 5.6km</title><desc>1744119870000</desc></polyline><polyline fill="none" points="81.18841104069725,266.22279384173453 81.91940070415149,265.15598509067786 82.47634520957945,262.7761591798626 84.79114581033355,263.2069919617643 86.0268664318719,258.44726081666886 86.07907997927396,256.5187148169498 85.74839417915791,254.63118258801114 83.38138003100175,248.7632985329692 83.38138003100175,247.63483832952625 84.68671871570405,246.67051243354217 87.41922769561643,246.26015949061548 89.22929733828641,245.02909529639874 90.7957037598826,245.02909529639874 91.21341213898268,244.49563164620486 89.83845539117465,242.3207257387403 88.15021735901246,242.97730375418905 86.5490019057761,241.6436272625142 83.97313356801169,241.58207273487642 81.58871490403544,242.4643523752893 79.60460010328097,242.83367750897014 79.7090271980851,244.49563164620486 78.78658786095912,245.60359292195062 79.46536397695309,246.38326546740427 79.86566784029128,247.53225070299231 80.94474781956524,247.90156589698745 81.9019961883314,247.38862793192675 83.52061615732964,247.20396992248425 85.10442709468771,246.50637136369187 87.52365479042055,246.15757111515268 89.35112894885242,244.94702406400756 89.07265669613844,245.50100418883085 89.52517410682049,244.82391714828555 90.86532182310475,244.92650625035458 91.16119859163882,244.41356018124497 90.08211861230666,242.66953309456585 88.55052122229245,243.46973576329765 87.33220511657419,242.05399026606756 86.04427094775019,241.5 83.85130195744568,241.56155455451517 81.71054651460145,242.42331620461482 79.65681365068303,242.75160531961592 79.63940913486294,244.57770307539613 78.83880140830297,245.39841539978806 78.78658786095912,245.8087702206103 79.48276849271497,246.42430077510653 79.67421816656133,247.2860401712678 80.6140620195074,247.88104840523738 81.84978264098754,247.36811038423912 83.4509980941657,247.20396992248425 84.91297742095776,246.5474066445313 86.30533868464408,246.36274781019893 86.46197932685027,247.53225070299231 90.0299050649046,254.7747998355917 86.39236126356991,256.04683353322616 86.18350707407808,259.26791269924433 85.29587676847586,262.73512743496394 84.84335935779382,263.08389698182873 83.59023422049358,268.5 78.78658786095912,267.2690811709472 79.51757752435515,264.1302017472626 79.76124074548716,264.0071073706349 79.34353236632887,266.01763878189377" stroke="#4DD2FF" stroke-linecap="round" stroke-linejoin="round" stroke-width="0.5"><title>2025-04-02 6.9km</title><desc>1743601029000</desc></polyline><polyline fill="none" points="110.7553137508221,268.5 111.40103783342056,267.91794785880484 112.29365641833283,264.7166316180519 115.27538232936058,265.4330144081323 116.50985484034754,259.76904479989025 116.13001714460552,255.58253215104924 113.2242587726796,248.95557841929258 113.20526688790414,248.351082138528 113.77502343140077,247.54508433119918 114.78159332484938,247.05252855930303 118.01021373819094,246.47041567025008 119.51057263615075,245.26140670843597 120.09932106442284,245.17185020603938 120.1183129491983,244.36583992806845 119.35863755783066,242.82097805774538 118.75089724478312,242.86575682619878 118.16214881651103,242.19407427562692 117.66835981211625,242.3060215198493 116.56683049467392,241.63433713953418 115.38933363801334,241.54477905623207 114.17385301191825,241.97017960417725 112.54055092053022,243.9852228644304 110.07160589867271,244.3434507085185 108.22939307463821,245.82113396393834 109.33092239196412,247.88091713511676 110.58438678772654,248.39585970180633 114.93352840328589,246.94058390099963 117.74432735121809,246.53758262630436 119.89041033177637,245.05990452312108 121.31480169063434,245.2390175864566 121.80859069502912,244.70167792809661 120.27024802740198,242.3955792713241 118.57997028168757,243.31354397338873 117.55440850334708,242.12690589981503 116.22497656859923,241.5 113.73703966184985,241.6119476223539 111.4770053725224,242.55230524252693 109.06503600499127,242.95531433366705 109.21697108331136,244.72406710854557 108.19140930497088,246.0450244392996 109.02705223544035,246.828639181811 109.40688993118238,247.94808363007905 110.52741113340016,248.41824847973476 111.68591610528529,247.8361394596286 112.7874454226112,247.76897292815556 114.07889358792454,251.4183226643945 115.08546348148957,252.29147035496135 118.40904331859201,251.5974301854294 120.49815064494032,255.98551568786206 116.47187107068021,257.35117624123814 116.26296033803374,260.77648163713457 115.8451388728572,261.29139189134 114.78159332484938,265.0748233252234 114.55369070754386,265.25391894466884 112.29365641833283,264.8509535813937 111.59095668129157,267.5373744137469" stroke="#4DD2FF" stroke-linecap="round" stroke-linejoin="round" stroke-width="0.5"><title>2025-03-25 6.1km</title><desc>1742909450000</desc></polyline></svg>