<?xml version="1.0" encoding="utf-8" ?>
<svg baseProfile="full" height="300mm" version="1.1" viewBox="0,0,200,300" width="200mm" xmlns="http://www.w3.org/2000/svg" xmlns:ev="http://www.w3.org/2001/xml-events" xmlns:xlink="http://www.w3.org/1999/xlink"><defs /><rect fill="#222222" height="300" width="200" x="0" y="0" /><text fill="#FFFFFF" style="font-size:12px; font-family:Arial; font-weight:bold;" x="10" y="20">Over 5km Runs</text><text fill="#FFFFFF" style="font-size:4px; font-family:Arial" x="10" y="280">Runner</text><text fill="#FFFFFF" style="font-size:9px; font-family:Arial" x="10" y="290">Elliont</text><text fill="#FFFFFF" style="font-size:4px; font-family:Arial" x="65" y="280">SPECIAL TRACKS</text><rect fill="yellow" height="2.6" width="2.6" x="65" y="283" /><text fill="#FFFFFF" style="font-size:3px; font-family:Arial" x="70" y="285.5">Over 20.0 km</text><rect fill="red" height="2.6" width="2.6" x="65" y="287" /><text fill="#FFFFFF" style="font-size:3px; font-family:Arial" x="70" y="289.5">Over 40.0 km</text><text fill="#FFFFFF" style="font-size:4px; font-family:Arial" x="120" y="280">STATISTICS</text><text fill="#FFFFFF" style="font-size:3px; font-family:Arial" x="120" y="285">Number: 44</text><text fill="#FFFFFF" style="font-size:3px; font-family:Arial" x="120" y="290">Weekly: 2.0</text><text fill="#FFFFFF" style="font-size:3px; font-family:Arial" x="141" y="285">Total: 288.4 km</text><text fill="#FFFFFF" style="font-size:3px; font-family:Arial" x="141" y="290">Avg: 6.6 km</text><text fill="#FFFFFF" style="font-size:3px; font-family:Arial" x="167" y="285">Min: 5.0 km</text><text fill="#FFFFFF" style="font-size:3px; font-family:Arial" x="167" y="290">Max: 10.1 km</text><polyline fill="none" points="38.5,57.19437217385712 33.51875699887751,56.196509979061375 27.6304591265216,53.496875357595854 26.859462485968834,53.25630953367363 17.418533034680877,51.4208581055791 15.989921612519538,51.38521786441561 14.31942889135098,51.53668878211465 13.586226203799015,51.429768163456174 12.78499440086307,51.01099439467362 12.346584546467056,50.59221848195739 11.915733482659562,49.879403487211675 11.55291153411963,48.95273470719985 11.5,48.67651409745304 11.628499440092128,48.49830675741396 14.82586786110187,45.87861405188596 16.957446808490204,43.5618090875214 19.194848824176006,41.58356213183288 22.074748040293343,39.7389373945698 23.01203807388083,39.623090007888095 23.42777155651129,39.32901513527759 24.213885778270196,38.455695643118815 24.96976483761682,36.74467531292612 25.75587905931752,35.97826917900966 29.338745800661854,34.017662651254795 31.999440089566633,32.80562782614288" stroke="#4DD2FF" stroke-linecap="round" stroke-linejoin="round" stroke-width="0.5"><title>2025-09-13 7.0km</title><desc>1757768754000</desc></polyline><polyline fill="none" points="68.5,48.28944397279702 62.53130094555672,47.116900323140726 55.96397130744299,44.08689769964258 54.88995761331171,43.73408291170199 44.105803716985974,41.63792105446919 41.5,41.648298206979234 44.246657971991226,41.72093824276817 54.573035539651755,43.713329059981334 55.83192044345196,44.08689769964258 62.584121291176416,47.17915964072745 68.46478643623414,48.36207894553081" stroke="#4DD2FF" stroke-linecap="round" stroke-linejoin="round" stroke-width="0.5"><title>2025-09-11 6.0km</title><desc>1757587445000</desc></polyline><polyline fill="none" points="95.92042574757943,56.3128930548628 91.3291941205971,55.40960736999841 86.23846933600726,53.04649538414378 85.0684237202513,52.69968420787336 76.96705524582649,51.13498103132588 75.55752660922008,51.08658762246341 73.97009630003595,51.215636642460595 73.18322351749521,51.07045647916675 72.21160669031087,50.31228877934336 71.80790674101445,49.59444199389691 71.5,48.58621846494498 74.51748606184265,46.077698750385025 75.44120628482779,45.19848683792952 76.52230106436764,43.924014335083484 78.51343132284819,42.173595452230074 79.98454130764003,41.31047044372826 80.97668525087647,40.57640293752047 81.8593512417574,40.431201909035735 82.25620881904615,40.1972663196284 83.043081601616,39.29378399802226 83.71363405979355,37.76106554982107 84.46629498223774,37.09956672995759 87.55904713633936,35.38125558397587 91.40446021288517,33.687106945129926 91.3976178408484,34.25989487217885 91.9655347186781,34.60679244707717 92.35554992395919,35.31671729878144 93.11505321844015,37.09149963469099 96.1530663963349,42.972178786381846 96.31728332483908,43.53682846988522 96.52255448553478,43.762687137343164 97.41890522043104,45.95670690495899 97.64470349717885,46.82784377876669 97.97313735424541,46.91657010740164 98.06893056258559,48.49749413716927 97.71312721740105,50.85268570046901 97.97997972628218,51.04625975758972 98.48631525592646,51.143046596378554 98.5,51.28822661739105" stroke="#4DD2FF" stroke-linecap="round" stroke-linejoin="round" stroke-width="0.5"><title>2025-09-09 10.0km</title><desc>1757415422000</desc></polyline><polyline fill="none" points="128.4628099174006,48.55079183714406 122.04752066120273,47.246680550793826 115.23243801645003,44.07948277725518 113.98657024797285,43.684945968328975 102.63429752062075,41.47112740208104 101.5,41.44920816285594 105.07954545452958,41.94238989050791 114.18181818176527,43.76166158010892 122.3729338842677,47.36722936180013 128.5,48.55079183714406" stroke="#4DD2FF" stroke-linecap="round" stroke-linejoin="round" stroke-width="0.5"><title>2025-09-08 5.7km</title><desc>1757333196000</desc></polyline><polyline fill="none" points="158.5,48.487740630189364 152.4434931506985,47.343359830687405 145.37910958903376,44.08452757853229 144.35273972601863,43.735749947227305 133.23835616436554,41.566761766735 131.5,41.446866576479806 132.81301369861467,41.534063092723954 144.08458904112922,43.71395130491146 145.4900684931199,44.171721796410566 152.36952054791618,47.354258757164644 158.41678082192084,48.55313342351292" stroke="#4DD2FF" stroke-linecap="round" stroke-linejoin="round" stroke-width="0.5"><title>2025-09-04 5.8km</title><desc>1756983645000</desc></polyline><polyline fill="none" points="188.5,48.14622428372968 183.18599759612698,47.08476381802757 176.83353365384392,44.18719830761984 173.39362980765873,43.38389589063445 165.8972355769365,41.95897233190772 164.36388221153175,41.93028235834208 162.50600961537566,42.083295442433155 161.5,41.853775716263044 161.96243990384392,42.06416882149642 162.60336538459524,42.15023858284985 164.36388221153175,41.97809897574916 165.99459134615608,42.02591556713014 176.16826923078042,44.00549959459022 177.25540865384392,44.39758582144714 183.20222355771693,47.15170314536954 186.5366586538148,47.754154795264185" stroke="#4DD2FF" stroke-linecap="round" stroke-linejoin="round" stroke-width="0.5"><title>2025-09-02 6.2km</title><desc>1756809719000</desc></polyline><polyline fill="none" points="38.5,78.49762634826038 32.40654205606552,77.30791804092587 24.17289719625842,73.66159523160604 13.023364485939965,71.50238139032444 11.5,71.39221618292504 12.9672897196142,71.52441441744304 23.60280373832211,73.58448124530696 25.04205607471522,74.0141155632009 32.556074766325764,77.45112441129459 38.490654205554165,78.60778381707496" stroke="#4DD2FF" stroke-linecap="round" stroke-linejoin="round" stroke-width="0.5"><title>2025-08-29 5.7km</title><desc>1756465472000</desc></polyline><polyline fill="none" points="68.5,78.36385409281502 62.65014817257179,77.21116515206813 55.74234441888984,74.04643906184356 54.66661178797949,73.72157718158996 43.82038195594214,71.61518805422384 41.5,71.61518805422384 43.93595653609373,71.70950497154263 54.95999341458082,73.83685087756749 62.516792887763586,77.2216442046265 68.3577543629217,78.38481194576889" stroke="#4DD2FF" stroke-linecap="round" stroke-linejoin="round" stroke-width="0.5"><title>2025-08-27 6.0km</title><desc>1756291993000</desc></polyline><polyline fill="none" points="97.2804716041428,78.37704872873292 92.73414148122538,77.54206122150936 90.7613749584998,77.03472353157849 84.538193291286,74.11748034624907 83.2558950514649,73.70525412942516 73.1409830620978,71.72865794180689 71.5,71.5489653829136 74.19910328794504,71.94006052626355 83.23796081036562,73.715824054314 84.34091663901927,74.06463092911872 90.25024908664636,76.87617995958135 91.7298239787342,77.39408800256206 97.27150448353495,78.45103461709368 97.48671537695918,77.62661724531063 98.5,77.79572907197871 97.99784124881262,77.67946472281619 98.03370973095298,77.42579656845919" stroke="#4DD2FF" stroke-linecap="round" stroke-linejoin="round" stroke-width="0.5"><title>2025-08-26 6.0km</title><desc>1756205162000</desc></polyline><polyline fill="none" points="128.5,80.04208147955796 123.3474434199452,79.02838595750654 117.74224643755588,76.44963009336789 116.58046940487111,76.08504079614795 107.3164291701396,74.29764044129115 104.22338642078103,74.43102987868042 103.40108968983986,74.24428460530908 102.60896898576175,73.76408051233011 102.2015926236345,73.27498084741092 101.53017602680484,71.60312713824533 102.02053646268905,71.0606566094284 103.3935456831532,69.95791852044931 101.7640402346733,71.25630213377735 101.5,71.62091299619351 101.93000838224543,72.85702062999917 102.28457669739146,73.4439428811238 103.52933780383319,74.32431834618183 104.30637049453799,74.4843855925792 105.99622799665667,74.33321097923181 107.3918692371808,74.35988887251733 116.72380553226685,76.15618029906909 117.74979044427164,76.50298448809917 123.25691533950157,79.02838595750654" stroke="#4DD2FF" stroke-linecap="round" stroke-linejoin="round" stroke-width="0.5"><title>2025-08-23 7.3km</title><desc>1755948655000</desc></polyline><polyline fill="none" points="158.5,77.33325244977459 158.0915438324446,78.740550623952 151.18968192406464,77.38263162882504 142.73778122582007,73.53099106394075 134.516291699023,71.75326665906323 131.5,71.259449376048 142.20364623743808,73.41988410553313 150.88595810713014,77.33325244977459 156.53103180759354,78.48131279935478" stroke="#4DD2FF" stroke-linecap="round" stroke-linejoin="round" stroke-width="0.5"><title>2025-08-19 5.0km</title><desc>1755607675000</desc></polyline><polyline fill="none" points="187.7220712150156,82.02899787578644 182.81965207937174,81.06015738978022 177.13196520792553,78.43038792958396 176.17056265292922,78.15356502668146 167.19502582223504,76.43205094241421 163.84112530580023,76.52721098670736 162.73294373470708,76.0081548144808 161.96969285132946,75.08249622141011 161.54403370482032,73.698313709996 164.72179940203205,71.11155796895764 167.71609132917365,67.97100212421356 166.83541723291273,68.75831566935813 164.80986681161448,70.95583085399994 161.5,73.70696492562274 161.6614569176745,74.36445455511421 162.2779287850135,75.56695440086332 162.7989942919521,76.05140962508449 163.70168524057954,76.49260734744894 164.20073389509344,76.57046551459644 165.93272628434352,76.41474910392571 167.37849959233426,76.43205094241421 171.0186191900284,77.12412139109074 171.33419407450128,77.01166035356437 172.77996738246293,77.27983641095489 173.2129654797609,77.4701543539777 175.4073117695225,77.79888427231344 176.8237292742706,78.257373728331 177.55762435446377,78.2400722874736 177.5429464528279,78.43903862976731 178.01263930418645,78.42173722845473 177.66036966568208,78.65530582780048 178.19611307422747,78.98403084100573 182.49673824411002,80.92175064142793 183.31870073388563,81.15531188939349 183.57556401196052,81.03420614283823 184.97730361510185,81.13801107974723 184.97730361510185,81.46672581839084 187.35512367493357,81.94249474137905 187.77344387062476,81.98574632034433 187.89086708344985,81.38887245059595 188.28717042674543,81.31966939293488 188.5,80.60168411214545" stroke="#4DD2FF" stroke-linecap="round" stroke-linejoin="round" stroke-width="0.5"><title>2025-08-16 10.0km</title><desc>1755297330000</desc></polyline><polyline fill="none" points="27.748768472869415,104.05941793077363 27.26108374382602,106.54164817935089 38.5,108.74948350632621 19.857142857159488,105.05231619346887 11.5,101.25051649366651 19.602216748753563,105.03925179599901 26.640394088695757,106.4501985024981" stroke="#4DD2FF" stroke-linecap="round" stroke-linejoin="round" stroke-width="0.5"><title>2025-08-13 5.0km</title><desc>1755095249000</desc></polyline><polyline fill="none" points="68.34882418817142,110.02523960399412 63.397816349403,109.03628576226038 57.76651735723135,106.44356623398926 56.71584546472877,106.1049919823563 47.4638857782993,104.32299914004398 44.18337066072854,104.42991980529041 43.45772676373599,104.27844882161298 42.709406494977884,103.83294430272508 42.316349384142086,103.44089831899328 41.95352743563126,102.83500537547661 41.52267637179466,101.6232060239854 42.45996640541125,100.69652381768537 43.54843225085642,99.86784718318813 42.724524076184025,100.44703066056536 41.5,101.63211637885252 42.301231802935945,103.4498084758743 42.92861142219044,104.037876682778 43.45016797314747,104.3051790155805 44.18337066072854,104.46555999598786 46.753359462483786,104.31408907828882 47.683090705482755,104.37645949012949 57.14669652856537,106.27427928332327 63.25419932810473,109.03628576226038 68.5,110.13215281681187" stroke="#4DD2FF" stroke-linecap="round" stroke-linejoin="round" stroke-width="0.5"><title>2025-08-12 8.1km</title><desc>1754996616000</desc></polyline><polyline fill="none" points="98.5,108.1314941298333 93.05585831060307,107.0427295475456 86.90871934604365,104.20995183674677 85.89509536785772,103.87271035306912 80.11580381472595,102.65863036698283 75.75885558585287,101.9070486922792 74.22207084472757,101.86850587017398 72.2765667575004,102.0323127481679 71.5,101.8974129883427 72.211171662173,102.0323127481679 74.14032697549555,101.88777728331479 75.77520435969927,101.91668439520436 85.8051771117025,103.8823458418774 86.97411444140016,104.29667086761037 92.80245231607114,106.98491866415134 98.03405994549394,108.06404892551654" stroke="#4DD2FF" stroke-linecap="round" stroke-linejoin="round" stroke-width="0.5"><title>2025-08-10 6.4km</title><desc>1754781124000</desc></polyline><polyline fill="none" points="125.82253984318231,116.29688423377956 121.32823172275675,115.39519828988705 116.23286111812922,113.04432250599348 115.26296483684564,112.72227890513022 106.86858082472463,111.07983471591433 106.11725271947216,111.03152698141639 103.76764482673025,111.16839881387568 103.25537566407002,111.04762956310879 102.53819883635151,110.63701263442636 102.03959018466412,110.07341705739236 101.56830255503883,108.97036756335001 101.5,108.55168753294856 104.48482165447786,106.10397219812876 106.54755881612073,103.88163411305868 108.49418163421797,102.18262767313718 110.94624335950357,100.58021139557968 111.21945357960067,100.45137239657197 111.90930938531528,100.42721505924419 112.1756893498823,100.25006101088366 112.92701745510567,99.42065231677407 113.69883632686106,97.76180699613178 114.39552238810575,97.10147956299625 117.51694915257394,95.41842319349962 121.37604351126356,93.70311576621316 121.37604351126356,94.29099556767324 122.0590690614772,94.73391561555763 122.26397672656458,94.9916133304796 122.37326081460924,95.41037020002113 124.7843410068599,99.70249126688577 125.7747280546464,101.87664131946804 126.3962813053804,102.73823123398324 126.40311156088137,102.98784886506473 126.68315203647944,103.41461253925809 127.1885909436387,104.88813609069621 127.57791550722322,105.58060149132507 127.9057677713281,107.01382321975689 128.01505185937276,108.46312029951514 127.7076903617708,110.54039655497763 127.78965342781157,110.66116663453431 128.5,110.87855228049739 128.41803693398833,111.52265414455906" stroke="#4DD2FF" stroke-linecap="round" stroke-linejoin="round" stroke-width="0.5"><title>2025-08-08 10.0km</title><desc>1754654808000</desc></polyline><polyline fill="none" points="158.5,108.7800683980895 151.29644268780248,107.30833346835425 143.03636363637634,103.4968301997651 134.50948616606183,101.66021936192556 131.5,101.2199316019105 142.84426877473015,103.4968301997651 151.50988142297138,107.43412351148436 158.31857707514428,108.74233183924662" stroke="#4DD2FF" stroke-linecap="round" stroke-linejoin="round" stroke-width="0.5"><title>2025-08-07 5.0km</title><desc>1754573743000</desc></polyline><polyline fill="none" points="188.5,108.79352541661501 181.36231313925236,107.36629666630324 173.20495672698598,103.62286689948814 172.16404405975481,103.3098655772119 161.5,101.20647458337771 164.33595594018698,101.80744736621273 164.56963021238334,101.70728545392194 165.1963021242991,101.97021028753079 172.62077104637865,103.48514642270311 181.45790715969633,107.46645364792494 188.02202989766374,108.78100594317948" stroke="#4DD2FF" stroke-linecap="round" stroke-linejoin="round" stroke-width="0.5"><title>2025-08-04 5.0km</title><desc>1754309955000</desc></polyline><polyline fill="none" points="38.5,138.14201955803583 33.103275705187116,137.06092628045735 26.879435850773007,134.20368771221547 25.94585987261962,133.89479153889988 16.06960873521166,131.94485959618032 14.333484986360418,131.85798044197145 12.220655141049065,132.02208543952293 11.5,131.86763368552784 11.655595996388001,131.9834725262699 12.64649681528681,132.0510451134469 15.5045495905797,131.89659340991057 19.427206551423296,132.66884923579346 20.05777979985578,132.67850239104155 21.14695177433896,133.0067090436205 25.839399454038357,133.90444456062687 27.141492265684064,134.3677883663695 33.005004549602745,137.0512736025339 37.943130118306726,138.04549390864122" stroke="#4DD2FF" stroke-linecap="round" stroke-linejoin="round" stroke-width="0.5"><title>2025-08-03 6.5km</title><desc>1754227262000</desc></polyline><polyline fill="none" points="65.3726695755613,138.1623588235816 58.207655692182016,136.73586513449845 49.17909559700638,132.72139044905634 41.5,131.15596012532478 49.843117810436524,132.89813125411456 58.486116620420944,136.84948031948443 68.5,138.8440398746825 65.59758032526588,138.1876063413947 65.59758032526588,137.99824982374412" stroke="#4DD2FF" stroke-linecap="round" stroke-linejoin="round" stroke-width="0.5"><title>2025-08-01 5.0km</title><desc>1754057984000</desc></polyline><polyline fill="none" points="95.91685649202554,146.27037494332762 91.31093394078198,145.3601775738207 86.2403189066099,143.0242215596445 85.15375854211743,142.6778493869424 76.9533029612794,141.09096078505536 75.45671981776832,141.04262861816096 73.96697038723505,141.1715143263209 73.25626423690119,141.04262861816096 72.66856492025545,140.71235796572728 72.23804100227426,140.30153143710777 71.74601366743445,139.3670939708245 71.5,138.5534793191764 74.51366742598475,136.05619032276445 76.6047835990903,133.82467041152995 78.51822323462693,132.14897219411068 79.96013667425723,131.31916526597342 81.08769931664574,130.48934902359179 81.88724373577861,130.40878384379903 82.1742596811091,130.23154013918975 83.04897494305624,129.22446556884097 83.7323462414497,127.70979958012322 84.40205011391663,127.10553587078903 87.60022779044812,125.34911464173638 91.3451025056711,123.72962505667238 91.4066059225297,124.25334447635396 91.9533029612794,124.63203159109253 92.52050113896257,125.64722577278008 92.86902050112258,126.62212134669971 93.73006833714317,128.40268255403498 95.97152619590634,132.60012545042264 96.27220956719248,133.502423703947 97.16059225512436,135.36337907554844 97.76195899772574,137.4337375864925 97.80296127562178,138.72264745914435 97.7209567198006,139.18987173997448 97.93280182231683,139.34292732799076 97.73462414575624,140.5593052120239 98.5,140.8492996347486 98.4726651480305,141.24401243845932" stroke="#4DD2FF" stroke-linecap="round" stroke-linejoin="round" stroke-width="0.5"><title>2025-07-28 10.0km</title><desc>1753704756000</desc></polyline><polyline fill="none" points="125.84889336017659,138.31062527570612 118.67786720325239,136.87627334967692 110.4637826961698,133.11101630351186 109.12736418511486,132.66276338630996 101.5,131.13869068601343 109.96398390340619,132.95732978155138 117.03722334007034,136.28715945468866 118.87344064383069,136.97872763887426 128.5,138.86130931398657 125.95754527160898,138.28501200188475 126.08792756538605,137.45257756528008" stroke="#4DD2FF" stroke-linecap="round" stroke-linejoin="round" stroke-width="0.5"><title>2025-07-22 5.0km</title><desc>1753194638000</desc></polyline><polyline fill="none" points="146.85765124554746,136.42519329274364 155.8016014234745,138.19949229255872 158.5,138.35993243262783 156.14590747331386,138.22780528003204 141.4048042704817,135.33983291356708 134.9750889679999,132.42344943210628 131.5,131.64006756737217 134.9350533808174,132.4423260161784 140.96441281138686,135.2265771343009 143.4466192171094,135.7551028379603" stroke="#4DD2FF" stroke-linecap="round" stroke-linejoin="round" stroke-width="0.5"><title>2025-07-19 6.4km</title><desc>1752877000000</desc></polyline><polyline fill="none" points="186.02734673110535,146.34391244150902 181.43233273975784,145.4290842026603 176.2122869498853,143.04076273152896 175.31938438056386,142.7573974648767 166.8368099720101,141.12195396038442 163.8970999745361,141.21911002537672 163.25833121340838,141.09766492430208 162.66077334008878,140.74952120145463 162.076952429401,140.13419342420093 161.56868481301353,138.99258497641858 161.5,138.5796584536438 164.5015263291716,136.09395424617105 166.4865174255974,133.94014982158842 168.4440345967887,132.23163649913477 170.8342660900671,130.63644878939522 171.2532434494933,130.43401135208114 171.89201221065014,130.4016213109353 172.34533197659766,130.1182078485581 173.08712795726024,129.2355704255533 173.75337064362247,127.72129647624388 174.46082421779283,127.06537144248432 177.93627575680148,125.17044436939614 181.48728059019777,123.65608755849098 181.49414907148457,124.23915907630726 182.04362757568015,124.60357645093609 182.40765708469553,125.27571936370805 183.156321546674,126.99249052570667 185.46413126430707,131.33282936178875 186.06855761894258,132.78225171761005 186.23340117017506,132.9360993582086 187.27054184686858,135.59194526018837 187.5040702111437,135.92391932424653 187.87496820147499,137.3084780893114 187.94365301451762,138.22340627683297 187.83375731366687,139.61601871328457 187.4972017298569,140.9195450837724 188.5,141.14624298853596" stroke="#4DD2FF" stroke-linecap="round" stroke-linejoin="round" stroke-width="0.5"><title>2025-07-17 10.0km</title><desc>1752756134000</desc></polyline><polyline fill="none" points="38.5,168.81001207380177 31.341959699755535,167.37658058895613 22.263729751110077,163.34024369516555 11.5,161.18998792619095 22.743777163210325,163.54143516851764 31.13927301467629,167.3640065497966 38.16930067166686,168.79743819076248" stroke="#4DD2FF" stroke-linecap="round" stroke-linejoin="round" stroke-width="0.5"><title>2025-07-14 5.0km</title><desc>1752500928000</desc></polyline><polyline fill="none" points="68.5,168.78223850869836 61.343627834226936,167.37637853726483 53.944487881148234,163.94252392493217 52.19233776384499,163.30799601293256 41.5,161.21776149130892 52.88897576229647,163.4946222352737 61.47028928849613,167.42614378735016 67.74003127444303,168.68270916824258" stroke="#4DD2FF" stroke-linecap="round" stroke-linejoin="round" stroke-width="0.5"><title>2025-06-21 5.0km</title><desc>1750468889000</desc></polyline><polyline fill="none" points="89.97303190268576,166.65815049567027 96.99414734909078,168.06054482147738 98.5,168.14088944171817 97.20484278173535,168.06054482147738 85.72813862748444,165.81816068684566 84.49495065413066,165.33607482795196 80.80778058295255,163.5830061302404 80.15710351159214,163.3711738928905 72.63403718156042,161.91024369176012 71.5,161.85911055827455 72.50390176728251,161.8810247631336 75.43504705070518,162.4215728822819 80.70862979115918,163.56109248151915 84.63128299286473,165.4164227117435 85.63518476014724,165.80355207536923 86.72584347025258,166.0226809134765" stroke="#4DD2FF" stroke-linecap="round" stroke-linejoin="round" stroke-width="0.5"><title>2025-06-17 8.1km</title><desc>1750165544000</desc></polyline><polyline fill="none" points="128.5,168.7659015625395 121.6925754059921,167.41218310472323 112.81786542921327,163.44938676458696 101.5,161.2340984374605 112.83874709974043,163.49861490079638 121.54640371224377,167.39987649892282 127.28886310901726,168.56899806736328" stroke="#4DD2FF" stroke-linecap="round" stroke-linejoin="round" stroke-width="0.5"><title>2025-06-15 5.0km</title><desc>1749939796000</desc></polyline><polyline fill="none" points="150.15694828683627,166.5476281631636 156.52915513937478,167.8208640805533 158.5,167.94276827983776 156.9486060864001,167.84795392326487 146.2842094062653,165.77554687948214 145.2442008937942,165.38272991589474 141.7679293466499,163.73016241009464 140.9922323898645,163.47279138720114 133.98223026178312,162.11818949895314 133.13183656099136,162.05723172016587 131.5,162.18592029421416 133.81559906364419,162.10464333106574 140.69344541392638,163.43215375990985 141.52660140453372,163.66243329680947 143.51468397531426,164.60386135783847" stroke="#4DD2FF" stroke-linecap="round" stroke-linejoin="round" stroke-width="0.5"><title>2025-06-11 8.1km</title><desc>1749642919000</desc></polyline><polyline fill="none" points="188.5,168.75761206554307 181.48565335402964,167.40021930405055 172.67060876305914,163.46368833849556 161.5,161.24238793445693 172.79623885225737,163.51305007506744 181.5589375726413,167.46191932777583 187.3379216750618,168.62187352111505" stroke="#4DD2FF" stroke-linecap="round" stroke-linejoin="round" stroke-width="0.5"><title>2025-06-08 5.0km</title><desc>1749387304000</desc></polyline><polyline fill="none" points="21.960139859933406,202.2563473537739 24.867832167539746,200.52019920607563 30.985314685152844,199.40727984640398 34.08181818178855,197.09239786749822 37.44265734264627,197.18143203217187 38.348951048916206,196.42464101308724 32.3825174823869,186.7197848650394 28.34195804176852,187.5211119944288 24.490209790179506,189.7915303253103 22.337762237759307,189.7915303253103 18.901398601476103,191.39417096233228 13.274825174827129,192.55162973457482 13.463636363623664,196.20205515241832 11.5,198.65049295013887 13.161538461456075,200.4756824898359 13.879020979162306,202.74602883096668 14.936363636283204,203.41377535375068 21.506993006914854,202.03376467025373 24.98111888114363,200.4756824898359 30.041258741170168,199.8079311651527 34.270629370585084,197.09239786749822 37.253846153616905,197.22594910740736 38.46223776205443,196.20205515241832 32.3825174823869,186.58623019064544 27.88881118874997,187.5656301221461 24.565734265604988,189.74701244014432 21.544755244627595,190.05863753479207 17.844055943889543,191.70579480053857 13.388111887965351,192.46259456081316 13.501398601336405,196.42464101308724 11.5,198.65049295013887 13.274825174827129,200.56471591748414 14.181118881097063,202.87957822266617 15.465034964960068,203.50280814105645 25.81188811152242,200.34213231221656 30.15454545430839,199.8524479540356 33.893006992992014,197.3149832431227 37.36713286698796,197.2704661777243 38.5,196.15753796565696 31.96713286708109,186.45267547256663 27.511188810924068,187.8327387869067 24.414685314754024,189.74701244014432 13.576923076761886,192.24000654157135 13.539160839281976,196.20205515241832 11.537762237712741,198.56145910560736 13.237062936881557,200.4756824898359 13.879020979162306,202.6124793953786 15.804895104840398,203.54732452743337 31.060839160578325,198.91759436775465 32.94895104877651,196.38012385068578 32.3825174823869,193.842637573689 29.890209790319204,190.7264047942881 27.775524475611746,189.65797665526043 25.962937062839046,189.56894085078966 23.88601398584433,190.4147802090156 20.525174825219437,194.46588127722498 15.16293706302531,195.35622777591925 11.953146853018552,197.89370465217507 11.83986013988033,198.96211125364061 13.652447552420199,201.14343272330007" stroke="#4DD2FF" stroke-linecap="round" stroke-linejoin="round" stroke-width="0.5"><title>2025-06-04 6.4km</title><desc>1749041988000</desc></polyline><polyline fill="none" points="68.5,198.7822926046283 61.57987592089921,197.4002201252515 53.69658782478655,193.75985925654095 52.50310197751969,193.36496562202228 41.5,191.2177073953717 52.81717720051529,193.4883700306309 61.42283830943052,197.37554010635358 67.17041488946415,198.56017495014385" stroke="#4DD2FF" stroke-linecap="round" stroke-linejoin="round" stroke-width="0.5"><title>2025-05-28 5.0km</title><desc>1748436903000</desc></polyline><polyline fill="none" points="98.5,198.7704701553448 91.00237341772299,197.2346258794205 82.31922468356788,193.30680015370308 71.5,191.21694104147173 81.9667721518781,193.2312637355426 83.26977848104434,193.64671342453948 91.63251582282828,197.4738160835186 98.37183544307481,198.78305895852827" stroke="#4DD2FF" stroke-linecap="round" stroke-linejoin="round" stroke-width="0.5"><title>2025-05-27 5.0km</title><desc>1748351986000</desc></polyline><polyline fill="none" points="121.49476505536586,200.56973551820556 121.53084708336974,198.9533236429561 122.37877474335255,197.03381156545947 122.93804617866408,193.47254545317264 122.90196415054379,193.80089273079648 122.09011851868127,193.90192251550616 118.13913644338027,196.70547147485195 116.6417322778725,197.0590684653289 116.04637881444069,196.0740461719688 116.73193734802771,194.9627310827491 117.99480833107373,193.97769480869465 117.79635717655765,192.28543766700022 118.39171063998947,191.19935197279847 117.59790602215799,190.74470907823707 114.69330276129767,190.79522502458713 113.93558017147006,189.68387021525996 114.18815436813748,188.37044011337275 114.747425803449,188.54724869203346 114.69330276129767,187.6884621843492 115.52318940724945,188.19363132303988 117.03863458684646,188.14311448692752 118.24738252768293,188.95138179129572 119.88911480555544,189.0018983510381 120.55663232511142,188.67354040438659 122.19836460298393,186.37501433712896 122.2705286591081,182.53563826884783 121.67517519567627,181.85363339612377 120.73704246553825,181.5 119.5824175667949,181.82837389592896 118.55407976638526,182.9650471285422 117.76027514843736,183.24289925477933 116.13658388471231,182.93978781838086 114.42268755059922,182.00519030670694 112.8531193289673,182.53563826884783 112.0593147110776,183.7480835996248 112.0953967391979,185.0362958573969 112.78095527278492,185.99613297969336 114.33248248044401,186.72863606043393 114.69330276129767,187.61268666454998 113.9897032136214,189.2544808901148 114.4948516068398,190.769967053624 114.6211387051153,192.86636394601373 113.9536211855011,195.13953176994983 114.47681059275055,195.7709610677848 116.01029678643681,196.14981735081528 116.60565024975222,197.0590684653289 115.23453318257816,199.28165873675607 113.53867786249612,199.96358313792734 110.70623865787638,202.03459350085177 108.6495630570571,202.91855249649961 108.18049669195898,204.13083051687863 107.02587179321563,205.3936095416866 108.0181275656214,208.22219538311765 108.92017826763913,208.42423515632981 110.11088519450277,207.6918396637484 111.50004327576607,208.2727053523995 112.51034006214468,208.14643039696966 113.30414468003437,207.31301298408653 113.88145712943515,205.21682112806593 115.2525741966092,204.4591541018599 118.39171063998947,205.4441204781615 119.5824175667949,204.8632436661428 121.44064201315632,204.76222137876903 121.54888809740078,199.15537609483 122.97412820678437,194.15449667496432 122.75763603823725,193.80089273079648 122.21640561695676,193.8514076318097 118.15717745741131,196.7307284307899 116.69585532002384,197.03381156545947 115.09020507021341,199.35742827017384 113.37630873615853,200.03935232151707 110.68819764390355,202.03459350085177 108.75780914135976,202.7922729638667 108.18049669195898,204.20659756285022 107.02587179321563,205.49463139727595 107.92792249534978,208.09592038458504 108.5232759587816,208.5 110.0026391102001,207.6918396637484 111.69849443022395,208.29796033048478 112.83507831487805,207.8433700636233" stroke="#4DD2FF" stroke-linecap="round" stroke-linejoin="round" stroke-width="0.5"><title>2025-05-23 6.4km</title><desc>1747958832000</desc></polyline><polyline fill="none" points="147.45308017521165,196.2609099506517 148.1837849081494,196.95508605199575 150.01054674061015,197.24737005149655 150.92392765684053,198.41650205080805 150.68905827833805,203.01989710853377 150.24541611899622,203.86018867589883 148.65352366515435,204.33513462169503 147.08772780874278,203.78711997522623 145.62631834263448,204.11592893171473 143.14714156999253,202.65455191805086 141.6596355063375,203.23910392301332 140.5635784069309,203.0564315932861 140.87673757807352,201.99692900072841 140.09383965004236,199.95097809076833 140.32870902842842,198.48957258829614 139.493617905071,197.10122810167377 139.85897027153987,194.90908685923205 145.1304829880828,194.6898714978597 146.93114822299685,195.3475169071171 147.87062573677395,196.84547944900987 149.88006375252735,197.21083457340137 150.76734807121102,198.05114898820466 150.68905827833805,203.1295005438733 150.29760931432247,203.86018867589883 148.75791005545761,204.29860035570164 147.2704039918026,203.8236543286912 145.57412514742464,204.07939462825016 143.0949483747827,202.6910864651727 139.93726006429642,203.3487072458811 138.24098121980205,204.73701113578863 138.78900976956356,205.1388868940121 139.20655533124227,207.33092317769479 141.76402189675719,208.5 142.8600789962802,207.7327940568066 143.59078372933436,206.2349078469706 143.48639733879827,205.0658186305227 142.12937426322605,202.91029361690744 143.48639733879827,202.6910864651727 145.60022174508777,204.07939462825016 147.2704039918026,203.60444811395428 147.06163121107966,203.0564315932861 145.36535236658528,203.09296607170836 144.4519714503549,201.92385966274014 145.31315917137545,198.48957258829614 143.06885177711956,195.05523030851327 143.22543136274908,192.315023998759 143.82565310772043,191.14585860955412 145.0260965975467,190.45166363242606 147.29650058946572,191.18239512490982 149.1493590195896,190.70741993909178 147.06163121107966,192.7534593702294 144.89561360958032,192.64385061174107 143.59078372933436,191.65736925475358 141.58134571358096,191.21893163386267 141.6335389087908,186.7614314134844 142.52082322735805,184.89802260746364 142.5730164225679,182.12114795439993 143.1210449723294,181.57307632359152 144.79122721916065,181.5 149.59300117893144,182.19422406563535 150.58467188791838,183.0711354503146 150.92392765684053,184.89802260746364 151.75901878031436,185.81146032754623 151.21099023055285,186.5422076916584 151.550245999475,187.0171921379515 149.90616035019048,188.00369492125174 149.72348416689783,190.30551703396486 147.29650058946572,192.68038687076478 145.391448964132,192.7534593702294 143.5124939364614,191.54775993383373 141.68573210388422,191.328541123381 141.60744231124409,187.0171921379515 142.7295960081974,183.29036273398378 143.9039429005934,182.85190794157097 143.9300394981401,181.7557670234819 149.279842007556,182.0846098894981" stroke="#4DD2FF" stroke-linecap="round" stroke-linejoin="round" stroke-width="0.5"><title>2025-05-20 5.0km</title><desc>1747754393000</desc></polyline><polyline fill="none" points="184.92259414237924,196.88678985866136 187.4456066947896,197.19754025462316 188.5,196.08771632399294 182.2489539750386,186.6762878690206 177.8807531381026,187.74174351306283 174.4916317993775,189.73946533541312 172.38284518825822,189.82825274462812 167.26150627620518,191.78157085122075 163.1569037658628,192.35868577228393 163.49581589968875,196.13210933920345 161.5,198.70689594867872 163.1569037658628,200.1718534809188 163.75941422604956,202.21390670671826 164.66317991632968,203.10175274306675 166.35774058592506,203.36810617669835 174.83054393320344,200.6157789659337 179.87656903779134,199.9054979578359 184.24476987472735,197.01996862894157 187.4456066947896,197.10875445153215 188.4246861927677,196.26528835605131 182.3995815902017,186.72068190973368 180.7426778243389,186.76507594564464 174.64225941430777,189.65067790696048 171.85564853576943,189.9614338221727 168.35355648538098,191.5596033561451 162.85564853576943,192.58065283187898 163.64644351485185,195.51060668524588 161.5,198.66250321402913 163.08158995839767,199.9942831514636 163.57112970738672,201.85876775055658 164.70083682029508,203.05736048726249 166.35774058592506,203.2793217182916 175.5460251045879,200.26063861662988 180.47907949821092,199.63914226053748 184.05648535559885,197.10875445153215 187.48326359852217,197.10875445153215 188.4246861927677,196.17650234969915 182.3995815902017,186.76507594564464 181.08158995816484,186.63189382333076 177.69246861943975,187.74174351306283 174.75523012550548,189.65067790696048 172.34518828452565,189.73946533541312 167.8263598328922,191.64839036864578 163.34518828475848,192.44747261054 163.57112970738672,195.95453724917024 161.57531380769797,198.5737177300034 163.08158995839767,200.08306832588278 164.13598326360807,202.70222226623446 166.50836820108816,203.23492948169587 174.15271966555156,200.660171487747" stroke="#4DD2FF" stroke-linecap="round" stroke-linejoin="round" stroke-width="0.5"><title>2025-05-14 5.0km</title><desc>1747227249000</desc></polyline><polyline fill="none" points="21.06141099985689,238.2072240831185 21.611394148669206,237.70532147266204 22.40975678374525,234.73570418082818 24.804844689089805,235.1121370839246 26.099966297275387,229.92566322856874 25.851586810778826,226.60039055150992 23.350050554028712,220.3470488191233 23.456498905434273,218.94577039235446 25.195155310910195,218.00460749759804 27.785398527048528,217.56539656739915 29.453089364920743,216.41507746368006 30.819176540593617,216.5405671554763 31.333676905487664,215.99677789857378 28.58376116224099,211.60457742671133 27.891846878337674,211.5 25.99351794598624,212.1902099634608 24.804844689089805,213.00590944757278 23.775843959418125,213.02682477340568 21.682359716156498,213.863435936757 19.53565129719209,214.17716418294003 19.67758243228309,215.80854279684718 18.666323094512336,217.08435487173847 18.84373701340519,217.54448173608398 19.446944337687455,217.9418631404842 20.050151662086137,219.34314889581583 20.813031513476744,219.42680742329685 27.625726000056602,217.37716300397005 28.38860585144721,216.7078866167867 28.672468121745624,215.80854279684718 28.335381675628014,214.6372980163287 27.14670841896441,213.3614696762961 25.6919142837869,212.9013327843859 24.414534067502245,213.25689320683887 22.711360445944592,215.1810911246721 20.28078975668177,215.59939246736758 18.879219797207043,216.85429102586932 18.914702581008896,217.54448173608398 20.813031513476744,219.00851442132262 22.977481324225664,218.77845288168464 27.572501824470237,217.37716300397005 28.566019770340063,216.45690737005498 28.619243946042843,215.4529871011182 27.891846878337674,214.13533377973363 26.170931864879094,212.96407878912578 23.775843959418125,213.04774009693938 21.52268718916457,213.94709685254202 19.500168513390236,214.34448570449604 19.659841040498577,215.8922028648376 18.684064486296847,217.1680143837002 19.464685729704797,217.9418631404842 19.854996351292357,219.0712584296998 20.759807337773964,219.44772204950277 21.824290851247497,218.90394102841674 23.793585351319052,218.56930578823085 23.332309162127785,219.42680742329685 23.38553333771415,220.09607433053316 25.620948716183193,225.70109307739767 26.153190472978167,228.294404584085 25.958035162184387,231.20138148439582 25.070965567603707,234.5265744713688 22.782326013431884,234.19196646231285 21.877515026950277,237.24524292709248 21.185600743163377,237.53802031086525 20.901738472864963,238.5 20.52916924317833,238.35361209738767" stroke="#4DD2FF" stroke-linecap="round" stroke-linejoin="round" stroke-width="0.5"><title>2025-05-06 7.1km</title><desc>1746539597000</desc></polyline><polyline fill="none" points="51.81684361433145,238.5 51.633903592126444,238.28435963652737 52.49372169631533,235.41632046682935 54.67070796014741,235.9338644418458 55.05488200671971,235.26536988592125 56.18911014404148,230.49958522240922 56.15252213960048,228.12743244334706 52.91448374732863,219.1561248897342 52.036371640861034,218.96202960774826 50.79237949021626,219.56588097129134 50.02403139707167,219.41491830308223 48.5788052220596,217.1720308127551 49.56668134173378,216.09371047242894 49.32885931292549,214.36838570807595 50.60943946801126,214.3036857367988 54.890235986677,213.09594905805716 56.28058015508577,212.2332754896488 58.567330432124436,211.54313392755284 61.51266478910111,216.05057753656 61.14678474480752,216.63287137694715 59.53691254975274,216.48190647170122 57.81727634125855,217.7327550680784 55.201234024367295,218.1209478527453 53.66453783819452,218.85419881320558 51.707079601008445,219.11299262134708 50.517969456966966,219.60901314098737 49.74962136382237,219.28552163871063 49.31056531064678,218.07781535870163 48.615393226384185,217.56022469713935 48.615393226384185,217.1504644635279 49.56668134173378,215.87804569935543 49.31056531064678,214.3899523604341 51.32290555443615,214.13115237673628 54.835353980073705,213.00968187041872 58.164862383389845,211.5 58.67709444544744,211.6725356537936 61.4943707868224,216.05057753656 61.219960753573105,216.58973855864315 59.66497056512162,216.48190647170122 57.41480829252396,217.883719019228 55.58540807082318,218.01311659999192 50.60943946801126,219.56588097129134 49.841091374866664,219.3502199814975 49.34715331508778,218.07781535870163 48.615393226384185,217.517092080976 49.548387339455076,215.92117867272464 49.32885931292549,214.36838570807595 51.24972954567056,214.13115237673628 54.6890019623097,213.07438226472004 55.91470011079218,212.31954301570659 58.201450387830846,211.5 58.622212438844144,211.6725356537936 61.47607678466011,216.02901106515492 61.20166675141081,216.56817214586772 59.53691254975274,216.4603400472697 57.76239433477167,217.75432135388837 55.18294002208859,218.1209478527453 53.335245798225515,218.91889729698596 51.81684361433145,219.0482942009985 50.64602747245226,219.5874470573326 49.78620936826337,219.26395551979658 49.32885931292549,218.07781535870163 48.59709922410548,217.5386583902291 48.5788052220596,217.1720308127551 49.31056531064678,216.4603400472697 48.45074720645789,217.25829618619173 49.25568330404349,218.20721281263104 49.62156334833708,219.19925714879355 50.408205443643965,219.67371137811278 54.963411995442584,218.25034527845855 57.689218325773254,217.9268515555741 59.44544253859203,216.58973855864315 61.0736087358091,216.58973855864315 61.54925279354211,216.09371047242894 58.49415442335885,211.5 56.17081614176277,212.19014171257732 54.725589966750704,213.11751584906597 53.426715809386224,213.20378298975993 51.43266956775915,214.02331895034877 49.072743281838484,214.49778558711114 49.47521133068949,215.87804569935543 48.542217217502184,217.0210663187463 48.505629213061184,217.58179100176494 49.23738930176478,218.1425140962092 49.56668134173378,219.1561248897342 50.26185342599638,219.5874470573326 52.91448374732863,219.13455875671934 55.768348093144596,226.5531699071289 56.097640132997185,228.23525818638154 56.17081614176277,230.41332561943273 54.87194198439829,235.73978560976684 52.38395768299233,235.43788482611126 51.83513761649374,238.04715496544668 51.54243358108215,238.28435963652737" stroke="#4DD2FF" stroke-linecap="round" stroke-linejoin="round" stroke-width="0.5"><title>2025-04-29 10.1km</title><desc>1745929124000</desc></polyline><polyline fill="none" points="97.46288303844631,222.42462373730086 97.00841605523601,222.0400183712045 97.26478204579325,220.62520996679086 96.62386706948746,222.74054869628162 96.13444108766271,222.80922793049103 94.67781614157138,228.52320921795035 94.5146741476492,228.564414873661 87.09171342250193,227.09473816500395 77.62947777297813,222.83669961369014 71.5,221.53178805270727 77.58286577468971,222.85043545305234 85.052438498009,226.35302566026803 87.17328441952122,227.1496796584761 98.5,229.37479003320914 94.6195511437254,228.5369444379976 94.86426413466688,227.5342694429055 95.55179110914469,227.36944539318938 97.11329305131221,220.80377889306692 97.41627104009967,220.6938903529881 97.00841605523601,221.76529953444697" stroke="#4DD2FF" stroke-linecap="round" stroke-linejoin="round" stroke-width="0.5"><title>2025-04-22 6.3km</title><desc>1745328842000</desc></polyline><polyline fill="none" points="111.08290893549565,237.7065819974814 111.5316449047532,237.50822701070865 112.46651150728576,234.44471974590851 114.8597700096434,234.79735603785957 116.11249125690665,230.23507655138383 115.90682060446125,225.62861269786663 113.30789144942537,219.25873630018032 113.25179945328273,218.1566612082388 114.65409935708158,217.01049674367823 117.60827782098204,216.52557905377762 119.73977367463522,215.1369446930621 121.14207357843406,215.2691959952499 121.72169087198563,214.7622322007228 120.46896962460596,212.80049076444993 118.78620974009391,213.66013261199987 117.4400018324377,212.09514087894058 116.00030726462137,211.5 113.30789144942537,211.72042275195417 111.47555290861055,212.5359848455846 109.00750507798512,212.954785724025 109.38145171897486,214.49772884703998 108.29700646002311,216.06270199271967 109.10099173826165,216.74599632962781 109.5123330433853,217.89216229283193 110.35371298552491,218.33299362644902 113.42007544171065,217.60562141083938 115.19632198649924,216.83416317273804 117.53348849271424,216.52557905377762 119.4593136938056,215.225112237531 121.14207357843406,215.2471541176783 121.70299353986047,214.71814833245298 120.4876669566147,212.80049076444993 118.80490707210265,213.6160485035798 117.4400018324377,212.0730986554263 116.11249125690665,211.52204228601477 113.21440478926525,211.72042275195417 111.51294757274445,212.51394267009164 109.4749383792514,212.8225329087145 109.1944783985382,213.04295421954885 109.34405705484096,214.5638547178678 108.29700646002311,215.95249301256263 109.06359707412776,216.74599632962781 109.45624104724266,217.91420388229017 110.26022632536478,218.37707670690725 115.23371665063314,216.81212146561302 117.45869916456286,216.56966252817074 119.47801102593075,215.225112237531 121.21686290658545,215.225112237531 121.68429620796815,214.67406445462257 120.4502722924808,212.7564064686594 118.71142041182611,213.59400644570997 117.42130450042896,212.0730986554263 116.28076724533457,211.5881691295799 113.77532475069165,211.6102114059613 111.32597425219137,212.5359848455846 109.4375437151175,212.8225329087145 109.17578106641304,213.02091209929495 109.30666239082348,214.7622322007228 108.27830912801437,216.01861840786296 109.1196890702704,216.79007975605782 109.49363571126014,217.91420388229017 110.1106476689456,218.3109520825965 117.6269751531072,216.23903623607475 118.54314442339819,215.48961464011518 118.86099906824529,214.365477040541 118.59923641965725,213.5278802577959 117.68306714913342,212.40373175652348 116.24337258131709,211.54408456964302 113.75662741868291,211.6322536799853 111.25118492392357,212.602111357759 109.1570837344043,212.954785724025 109.38145171897486,214.45364492113004 108.29700646002311,215.97453481335833 109.21317573054694,217.0986634715373 108.85792642156594,217.78195430927735 109.7927930240985,219.69956465590803 110.52198897406925,222.91758255226887 110.83984361891635,226.53228134020173 110.76505429064855,228.91265746948193 108.93271574983373,237.8828973779746 110.26022632536478,238.5" stroke="#4DD2FF" stroke-linecap="round" stroke-linejoin="round" stroke-width="0.5"><title>2025-04-15 8.8km</title><desc>1744723077000</desc></polyline><polyline fill="none" points="158.32256297930144,222.11555058220983 157.53888280398678,222.0632622097619 158.11555312166456,220.37259562626423 157.43537787522655,223.1961731211777 157.59802847763058,223.63190595147898 156.69605695514474,226.62971566361375 155.823658269539,226.6471446256328 155.83844468783354,227.37915931733733 154.8329682367039,230.63832694699522 145.0295728368219,228.68632008161512 133.79189485206734,223.47504226924502 131.5,222.81272724908195 133.9545454545878,223.5970473687048 145.01478641841095,228.7037488197093 154.86254107346758,230.6208984196128 155.18784227827564,229.31375345625565 155.92716319829924,229.22661007908755 156.5629791895044,227.37915931733733 158.5,219.36167305300478 157.98247535608243,222.23755671823164" stroke="#4DD2FF" stroke-linecap="round" stroke-linejoin="round" stroke-width="0.5"><title>2025-04-11 5.1km</title><desc>1744377642000</desc></polyline><polyline fill="none" points="169.26928169163875,238.5 170.18246932455804,237.48948740954802 170.42474359448534,238.23638850795396 171.33793122740462,237.48948740954802 172.3629377540201,234.39201509868144 174.76704397122376,234.94121578645718 175.19568306417204,234.78743974464305 176.31387200241443,229.9763872182375 176.38841793162283,227.3401453783008 175.92250587407034,224.98946733966295 173.23885242233519,219.14560693781823 173.1643064931268,218.1569671883044 174.46886025439017,217.05847289254598 177.4693339051446,216.5751335065288 179.55661992321257,215.14707855210872 180.91708313138224,215.2788994331204 181.60663297667634,214.70767499279464 180.13435087457765,212.40079059636628 178.58752284338698,213.30157716825488 176.76114757778123,211.76364644480054 175.12113713496365,211.67576433482463 174.24522246664856,212.09320401590958 172.4747566478327,214.02659758357913 169.94019505451433,214.40009193155856 168.46791295264848,215.6743615591986 168.39336702332366,216.09179296197544 169.15746279782616,216.72892343683634 169.47428299696185,217.76150993116607 170.31292470067274,218.24484647337522 177.67433521070052,216.17967314712587 178.6807052550139,215.21298900338297 178.79252414871007,214.1364489342086 177.6929716928862,212.42276104840857 175.92250587407034,211.5 173.53703613905236,211.6318232654885 171.2074758511735,212.53261327285145 169.19473576243035,212.88413998897886 169.36246410314925,214.4220621658169 168.39336702332366,215.60845125872584 168.39336702332366,216.02588279791235 169.15746279782616,216.6630134810839 169.95883153693285,218.22287665563636 170.77883675822522,218.24484647337522 171.8783892141655,217.67363043544174 172.8847592585953,217.76150993116607 175.82932346244343,225.56066265427216 176.18341662629973,227.60377111313574 176.07159773248713,229.71276458504144 175.02795472345315,234.17233440485143 172.6238485062495,233.79887667608273 171.67338790884241,236.69864793760644" stroke="#4DD2FF" stroke-linecap="round" stroke-linejoin="round" stroke-width="0.5"><title>2025-04-08 5.6km</title><desc>1744119870000</desc></polyline><polyline fill="none" points="21.188411040697247,266.22279384173453 21.919400704151485,265.15598509067786 22.47634520957945,262.7761591798626 24.791145810333546,263.2069919617643 26.026866431871895,258.44726081666886 26.079079979273956,256.5187148169498 25.748394179157913,254.63118258801114 23.381380031001754,248.7632985329692 23.381380031001754,247.63483832952625 24.686718715704046,246.67051243354217 27.419227695616428,246.26015949061548 29.229297338286415,245.02909529639874 30.7957037598826,245.02909529639874 31.213412138982676,244.49563164620486 29.838455391174648,242.3207257387403 28.15021735901246,242.97730375418905 26.549001905776095,241.6436272625142 23.97313356801169,241.58207273487642 21.58871490403544,242.4643523752893 19.604600103280973,242.83367750897014 19.709027198085096,244.49563164620486 18.786587860959116,245.60359292195062 19.465363976953086,246.38326546740427 19.86566784029128,247.53225070299231 20.944747819565237,247.90156589698745 21.901996188331395,247.38862793192675 23.52061615732964,247.20396992248425 25.104427094687708,246.50637136369187 27.52365479042055,246.15757111515268 29.35112894885242,244.94702406400756 29.072656696138438,245.50100418883085 29.525174106820486,244.82391714828555 30.86532182310475,244.92650625035458 31.161198591638822,244.41356018124497 30.082118612306658,242.66953309456585 28.550521222292446,243.46973576329765 27.332205116574187,242.05399026606756 26.044270947750192,241.5 23.851301957445685,241.56155455451517 21.710546514601447,242.42331620461482 19.656813650683034,242.75160531961592 19.639409134862944,244.57770307539613 18.83880140830297,245.39841539978806 18.786587860959116,245.8087702206103 19.482768492714968,246.42430077510653 19.67421816656133,247.2860401712678 20.6140620195074,247.88104840523738 21.84978264098754,247.36811038423912 23.450998094165698,247.20396992248425 24.91297742095776,246.5474066445313 26.305338684644084,246.36274781019893 26.46197932685027,247.53225070299231 30.029905064904597,254.7747998355917 26.39236126356991,256.04683353322616 26.18350707407808,259.26791269924433 25.295876768475864,262.73512743496394 24.843359357793815,263.08389698182873 23.590234220493585,268.5 18.786587860959116,267.2690811709472 19.517577524355147,264.1302017472626 19.761240745487157,264.0071073706349 19.343532366328873,266.01763878189377" stroke="#4DD2FF" stroke-linecap="round" stroke-linejoin="round" stroke-width="0.5"><title>2025-04-02 6.9km</title><desc>1743601029000</desc></polyline><polyline fill="none" points="50.7553137508221,268.5 51.40103783342056,267.91794785880484 52.29365641833283,264.7166316180519 55.27538232936058,265.4330144081323 56.50985484034754,259.76904479989025 56.13001714460552,255.58253215104924 53.224258772679605,248.95557841929258 53.205266887904145,248.351082138528 53.77502343140077,247.54508433119918 54.78159332484938,247.05252855930303 58.01021373819094,246.47041567025008 59.510572636150755,245.26140670843597 60.09932106442284,245.17185020603938 60.1183129491983,244.36583992806845 59.35863755783066,242.82097805774538 58.75089724478312,242.86575682619878 58.162148816511035,242.19407427562692 57.66835981211625,242.3060215198493 56.56683049467392,241.63433713953418 55.38933363801334,241.54477905623207 54.173853011918254,241.97017960417725 52.54055092053022,243.9852228644304 50.071605898672715,244.3434507085185 48.22939307463821,245.82113396393834 49.33092239196412,247.88091713511676 50.584386787726544,248.39585970180633 54.93352840328589,246.94058390099963 57.74432735121809,246.53758262630436 59.890410331776366,245.05990452312108 61.31480169063434,245.2390175864566 61.808590695029125,244.70167792809661 60.270248027401976,242.3955792713241 58.579970281687565,243.31354397338873 57.55440850334708,242.12690589981503 56.22497656859923,241.5 53.73703966184985,241.6119476223539 51.4770053725224,242.55230524252693 49.06503600499127,242.95531433366705 49.216971083311364,244.72406710854557 48.191409304970875,246.0450244392996 49.02705223544035,246.828639181811 49.40688993118238,247.94808363007905 50.527411133400165,248.41824847973476 51.68591610528529,247.8361394596286 52.7874454226112,247.76897292815556 54.07889358792454,251.4183226643945 55.08546348148957,252.29147035496135 58.40904331859201,251.5974301854294 60.498150644940324,255.98551568786206 56.47187107068021,257.35117624123814 56.262960338033736,260.77648163713457 55.845138872857206,261.29139189134 54.78159332484938,265.0748233252234 54.553690707543865,265.25391894466884 52.29365641833283,264.8509535813937 51.59095668129157,267.5373744137469" stroke="#4DD2FF" stroke-linecap="round" stroke-linejoin="round" stroke-width="0.5"><title>2025-03-25 6.1km</title><desc>1742909450000</desc></polyline></svg>