<?xml version="1.0" encoding="utf-8" ?>
<svg baseProfile="full" height="300mm" version="1.1" viewBox="0,0,200,300" width="200mm" xmlns="http://www.w3.org/2000/svg" xmlns:ev="http://www.w3.org/2001/xml-events" xmlns:xlink="http://www.w3.org/1999/xlink"><defs /><rect fill="#222222" height="300" width="200" x="0" y="0" /><text fill="#FFFFFF" style="font-size:12px; font-family:Arial; font-weight:bold;" x="10" y="20">Over 5km Runs</text><text fill="#FFFFFF" style="font-size:4px; font-family:Arial" x="10" y="280">Runner</text><text fill="#FFFFFF" style="font-size:9px; font-family:Arial" x="10" y="290">Elliont</text><text fill="#FFFFFF" style="font-size:4px; font-family:Arial" x="65" y="280">SPECIAL TRACKS</text><rect fill="yellow" height="2.6" width="2.6" x="65" y="283" /><text fill="#FFFFFF" style="font-size:3px; font-family:Arial" x="70" y="285.5">Over 20.0 km</text><rect fill="red" height="2.6" width="2.6" x="65" y="287" /><text fill="#FFFFFF" style="font-size:3px; font-family:Arial" x="70" y="289.5">Over 40.0 km</text><text fill="#FFFFFF" style="font-size:4px; font-family:Arial" x="120" y="280">STATISTICS</text><text fill="#FFFFFF" style="font-size:3px; font-family:Arial" x="120" y="285">Number: 37</text><text fill="#FFFFFF" style="font-size:3px; font-family:Arial" x="120" y="290">Weekly: 1.9</text><text fill="#FFFFFF" style="font-size:3px; font-family:Arial" x="141" y="285">Total: 241.9 km</text><text fill="#FFFFFF" style="font-size:3px; font-family:Arial" x="141" y="290">Avg: 6.5 km</text><text fill="#FFFFFF" style="font-size:3px; font-family:Arial" x="167" y="285">Min: 5.0 km</text><text fill="#FFFFFF" style="font-size:3px; font-family:Arial" x="167" y="290">Max: 10.1 km</text><polyline fill="none" points="38.5,48.36385409281502 32.65014817257179,47.21116515206813 25.742344418889843,44.04643906184356 24.66661178797949,43.721577181589964 13.820381955942139,41.615188054223836 11.5,41.615188054223836 13.935956536093727,41.70950497154263 24.959993414580822,43.836850877567485 32.516792887763586,47.2216442046265 38.357754362921696,48.38481194576889" stroke="#4DD2FF" stroke-linecap="round" stroke-linejoin="round" stroke-width="0.5"><title>2025-08-27 6.0km</title><desc>1756291993000</desc></polyline><polyline fill="none" points="74.7804716041428,48.377048728732916 70.23414148122538,47.54206122150936 68.2613749584998,47.03472353157849 62.03819329128601,44.11748034624907 60.755895051464904,43.70525412942516 50.6409830620978,41.72865794180689 49.0,41.54896538291359 51.699103287945036,41.94006052626355 60.73796081036562,43.715824054314 61.84091663901927,44.06463092911872 67.75024908664636,46.87617995958135 69.2298239787342,47.39408800256206 74.77150448353495,48.45103461709368 74.98671537695918,47.62661724531063 76.0,47.79572907197871 75.49784124881262,47.67946472281619 75.53370973095298,47.42579656845919" stroke="#4DD2FF" stroke-linecap="round" stroke-linejoin="round" stroke-width="0.5"><title>2025-08-26 6.0km</title><desc>1756205162000</desc></polyline><polyline fill="none" points="113.5,50.042081479557964 108.3474434199452,49.02838595750654 102.74224643755588,46.44963009336789 101.58046940487111,46.08504079614795 92.3164291701396,44.29764044129115 89.22338642078103,44.43102987868042 88.40108968983986,44.244284605309076 87.60896898576175,43.76408051233011 87.2015926236345,43.274980847410916 86.53017602680484,41.60312713824533 87.02053646268905,41.060656609428406 88.3935456831532,39.95791852044931 86.7640402346733,41.25630213377735 86.5,41.62091299619351 86.93000838224543,42.85702062999917 87.28457669739146,43.4439428811238 88.52933780383319,44.324318346181826 89.30637049453799,44.4843855925792 90.99622799665667,44.33321097923181 92.3918692371808,44.35988887251733 101.72380553226685,46.15618029906909 102.74979044427164,46.50298448809917 108.25691533950157,49.02838595750654" stroke="#4DD2FF" stroke-linecap="round" stroke-linejoin="round" stroke-width="0.5"><title>2025-08-23 7.3km</title><desc>1755948655000</desc></polyline><polyline fill="none" points="151.0,47.33325244977459 150.5915438324446,48.740550623952004 143.68968192406464,47.38263162882504 135.23778122582007,43.530991063940746 127.01629169902299,41.75326665906323 124.0,41.259449376047996 134.70364623743808,43.41988410553313 143.38595810713014,47.33325244977459 149.03103180759354,48.48131279935478" stroke="#4DD2FF" stroke-linecap="round" stroke-linejoin="round" stroke-width="0.5"><title>2025-08-19 5.0km</title><desc>1755607675000</desc></polyline><polyline fill="none" points="187.7220712150156,52.028997875786445 182.81965207937174,51.060157389780215 177.13196520792553,48.43038792958396 176.17056265292922,48.15356502668146 167.19502582223504,46.43205094241421 163.84112530580023,46.52721098670736 162.73294373470708,46.008154814480804 161.96969285132946,45.08249622141011 161.54403370482032,43.698313709996 164.72179940203205,41.11155796895764 167.71609132917365,37.971002124213555 166.83541723291273,38.758315669358126 164.80986681161448,40.95583085399994 161.5,43.70696492562274 161.6614569176745,44.36445455511421 162.2779287850135,45.566954400863324 162.7989942919521,46.05140962508449 163.70168524057954,46.49260734744894 164.20073389509344,46.570465514596435 165.93272628434352,46.414749103925715 167.37849959233426,46.43205094241421 171.0186191900284,47.12412139109074 171.33419407450128,47.011660353564366 172.77996738246293,47.279836410954886 173.2129654797609,47.470154353977705 175.4073117695225,47.798884272313444 176.8237292742706,48.257373728331004 177.55762435446377,48.240072287473595 177.5429464528279,48.43903862976731 178.01263930418645,48.42173722845473 177.66036966568208,48.655305827800476 178.19611307422747,48.98403084100573 182.49673824411002,50.921750641427934 183.31870073388563,51.15531188939349 183.57556401196052,51.03420614283823 184.97730361510185,51.13801107974723 184.97730361510185,51.46672581839084 187.35512367493357,51.94249474137905 187.77344387062476,51.98574632034433 187.89086708344985,51.388872450595954 188.28717042674543,51.319669392934884 188.5,50.60168411214545" stroke="#4DD2FF" stroke-linecap="round" stroke-linejoin="round" stroke-width="0.5"><title>2025-08-16 10.0km</title><desc>1755297330000</desc></polyline><polyline fill="none" points="27.748768472869415,74.05941793077363 27.26108374382602,76.54164817935089 38.5,78.74948350632621 19.857142857159488,75.05231619346887 11.5,71.25051649366651 19.602216748753563,75.03925179599901 26.640394088695757,76.4501985024981" stroke="#4DD2FF" stroke-linecap="round" stroke-linejoin="round" stroke-width="0.5"><title>2025-08-13 5.0km</title><desc>1755095249000</desc></polyline><polyline fill="none" points="75.84882418817142,80.02523960399412 70.897816349403,79.03628576226038 65.26651735723135,76.44356623398926 64.21584546472877,76.1049919823563 54.9638857782993,74.32299914004398 51.68337066072854,74.42991980529041 50.95772676373599,74.27844882161298 50.209406494977884,73.83294430272508 49.816349384142086,73.44089831899328 49.45352743563126,72.83500537547661 49.02267637179466,71.6232060239854 49.95996640541125,70.69652381768537 51.04843225085642,69.86784718318813 50.224524076184025,70.44703066056536 49.0,71.63211637885252 49.801231802935945,73.4498084758743 50.42861142219044,74.037876682778 50.95016797314747,74.3051790155805 51.68337066072854,74.46555999598786 54.253359462483786,74.31408907828882 55.183090705482755,74.37645949012949 64.64669652856537,76.27427928332327 70.75419932810473,79.03628576226038 76.0,80.13215281681187" stroke="#4DD2FF" stroke-linecap="round" stroke-linejoin="round" stroke-width="0.5"><title>2025-08-12 8.1km</title><desc>1754996616000</desc></polyline><polyline fill="none" points="113.5,78.1314941298333 108.05585831060307,77.0427295475456 101.90871934604365,74.20995183674677 100.89509536785772,73.87271035306912 95.11580381472595,72.65863036698283 90.75885558585287,71.9070486922792 89.22207084472757,71.86850587017398 87.2765667575004,72.0323127481679 86.5,71.8974129883427 87.211171662173,72.0323127481679 89.14032697549555,71.88777728331479 90.77520435969927,71.91668439520436 100.8051771117025,73.8823458418774 101.97411444140016,74.29667086761037 107.80245231607114,76.98491866415134 113.03405994549394,78.06404892551654" stroke="#4DD2FF" stroke-linecap="round" stroke-linejoin="round" stroke-width="0.5"><title>2025-08-10 6.4km</title><desc>1754781124000</desc></polyline><polyline fill="none" points="148.3225398431823,86.29688423377956 143.82823172275675,85.39519828988705 138.73286111812922,83.04432250599348 137.76296483684564,82.72227890513022 129.36858082472463,81.07983471591433 128.61725271947216,81.03152698141639 126.26764482673025,81.16839881387568 125.75537566407002,81.04762956310879 125.03819883635151,80.63701263442636 124.53959018466412,80.07341705739236 124.06830255503883,78.97036756335001 124.0,78.55168753294856 126.98482165447786,76.10397219812876 129.04755881612073,73.88163411305868 130.99418163421797,72.18262767313718 133.44624335950357,70.58021139557968 133.71945357960067,70.45137239657197 134.40930938531528,70.42721505924419 134.6756893498823,70.25006101088366 135.42701745510567,69.42065231677407 136.19883632686106,67.76180699613178 136.89552238810575,67.10147956299625 140.01694915257394,65.41842319349962 143.87604351126356,63.70311576621316 143.87604351126356,64.29099556767324 144.5590690614772,64.73391561555763 144.76397672656458,64.9916133304796 144.87326081460924,65.41037020002113 147.2843410068599,69.70249126688577 148.2747280546464,71.87664131946804 148.8962813053804,72.73823123398324 148.90311156088137,72.98784886506473 149.18315203647944,73.41461253925809 149.6885909436387,74.88813609069621 150.07791550722322,75.58060149132507 150.4057677713281,77.01382321975689 150.51505185937276,78.46312029951514 150.2076903617708,80.54039655497763 150.28965342781157,80.66116663453431 151.0,80.87855228049739 150.91803693398833,81.52265414455906" stroke="#4DD2FF" stroke-linecap="round" stroke-linejoin="round" stroke-width="0.5"><title>2025-08-08 10.0km</title><desc>1754654808000</desc></polyline><polyline fill="none" points="188.5,78.7800683980895 181.29644268780248,77.30833346835425 173.03636363637634,73.4968301997651 164.50948616606183,71.66021936192556 161.5,71.2199316019105 172.84426877473015,73.4968301997651 181.50988142297138,77.43412351148436 188.31857707514428,78.74233183924662" stroke="#4DD2FF" stroke-linecap="round" stroke-linejoin="round" stroke-width="0.5"><title>2025-08-07 5.0km</title><desc>1754573743000</desc></polyline><polyline fill="none" points="38.5,108.79352541661501 31.362313139252365,107.36629666630324 23.204956726985984,103.62286689948814 22.164044059754815,103.3098655772119 11.5,101.20647458337771 14.335955940186977,101.80744736621273 14.569630212383345,101.70728545392194 15.196302124299109,101.97021028753079 22.62077104637865,103.48514642270311 31.457907159696333,107.46645364792494 38.02202989766374,108.78100594317948" stroke="#4DD2FF" stroke-linecap="round" stroke-linejoin="round" stroke-width="0.5"><title>2025-08-04 5.0km</title><desc>1754309955000</desc></polyline><polyline fill="none" points="76.0,108.14201955803583 70.60327570518712,107.06092628045735 64.379435850773,104.20368771221547 63.44585987261962,103.89479153889988 53.56960873521166,101.94485959618032 51.83348498636042,101.85798044197145 49.720655141049065,102.02208543952293 49.0,101.86763368552784 49.155595996388,101.9834725262699 50.14649681528681,102.05104511344689 53.0045495905797,101.89659340991057 56.927206551423296,102.66884923579346 57.55777979985578,102.67850239104155 58.64695177433896,103.0067090436205 63.33939945403836,103.90444456062687 64.64149226568406,104.3677883663695 70.50500454960275,107.05127360253391 75.44313011830673,108.04549390864122" stroke="#4DD2FF" stroke-linecap="round" stroke-linejoin="round" stroke-width="0.5"><title>2025-08-03 6.5km</title><desc>1754227262000</desc></polyline><polyline fill="none" points="110.3726695755613,108.1623588235816 103.20765569218202,106.73586513449845 94.17909559700638,102.72139044905634 86.5,101.15596012532478 94.84311781043652,102.89813125411456 103.48611662042094,106.84948031948443 113.5,108.8440398746825 110.59758032526588,108.18760634139471 110.59758032526588,107.99824982374412" stroke="#4DD2FF" stroke-linecap="round" stroke-linejoin="round" stroke-width="0.5"><title>2025-08-01 5.0km</title><desc>1754057984000</desc></polyline><polyline fill="none" points="148.41685649202554,116.27037494332762 143.81093394078198,115.36017757382069 138.7403189066099,113.0242215596445 137.65375854211743,112.6778493869424 129.4533029612794,111.09096078505536 127.95671981776832,111.04262861816096 126.46697038723505,111.1715143263209 125.75626423690119,111.04262861816096 125.16856492025545,110.71235796572728 124.73804100227426,110.30153143710777 124.24601366743445,109.3670939708245 124.0,108.5534793191764 127.01366742598475,106.05619032276445 129.1047835990903,103.82467041152995 131.01822323462693,102.14897219411068 132.46013667425723,101.31916526597342 133.58769931664574,100.48934902359179 134.3872437357786,100.40878384379903 134.6742596811091,100.23154013918975 135.54897494305624,99.22446556884097 136.2323462414497,97.70979958012322 136.90205011391663,97.10553587078903 140.10022779044812,95.34911464173638 143.8451025056711,93.72962505667238 143.9066059225297,94.25334447635396 144.4533029612794,94.63203159109253 145.02050113896257,95.64722577278008 145.36902050112258,96.62212134669971 146.23006833714317,98.40268255403498 148.47152619590634,102.60012545042264 148.77220956719248,103.50242370394699 149.66059225512436,105.36337907554844 150.26195899772574,107.4337375864925 150.30296127562178,108.72264745914435 150.2209567198006,109.18987173997448 150.43280182231683,109.34292732799076 150.23462414575624,110.5593052120239 151.0,110.8492996347486 150.9726651480305,111.24401243845932" stroke="#4DD2FF" stroke-linecap="round" stroke-linejoin="round" stroke-width="0.5"><title>2025-07-28 10.0km</title><desc>1753704756000</desc></polyline><polyline fill="none" points="185.8488933601766,108.31062527570612 178.6778672032524,106.87627334967692 170.4637826961698,103.11101630351186 169.12736418511486,102.66276338630996 161.5,101.13869068601343 169.9639839034062,102.95732978155138 177.03722334007034,106.28715945468866 178.8734406438307,106.97872763887426 188.5,108.86130931398657 185.95754527160898,108.28501200188475 186.08792756538605,107.45257756528008" stroke="#4DD2FF" stroke-linecap="round" stroke-linejoin="round" stroke-width="0.5"><title>2025-07-22 5.0km</title><desc>1753194638000</desc></polyline><polyline fill="none" points="26.85765124554746,136.42519329274364 35.801601423474494,138.19949229255872 38.5,138.35993243262783 36.145907473313855,138.22780528003204 21.40480427048169,135.33983291356708 14.975088967999909,132.42344943210628 11.5,131.64006756737217 14.935053380817408,132.4423260161784 20.964412811386865,135.2265771343009 23.4466192171094,135.7551028379603" stroke="#4DD2FF" stroke-linecap="round" stroke-linejoin="round" stroke-width="0.5"><title>2025-07-19 6.4km</title><desc>1752877000000</desc></polyline><polyline fill="none" points="73.52734673110535,146.34391244150902 68.93233273975784,145.4290842026603 63.71228694988531,143.04076273152896 62.81938438056386,142.7573974648767 54.33680997201009,141.12195396038442 51.397099974536104,141.21911002537672 50.75833121340838,141.09766492430208 50.16077334008878,140.74952120145463 49.57695242940099,140.13419342420093 49.06868481301353,138.99258497641858 49.0,138.5796584536438 52.00152632917161,136.09395424617105 53.98651742559741,133.94014982158842 55.9440345967887,132.23163649913477 58.3342660900671,130.63644878939522 58.75324344949331,130.43401135208114 59.39201221065014,130.4016213109353 59.84533197659766,130.1182078485581 60.587127957260236,129.2355704255533 61.253370643622475,127.72129647624388 61.96082421779283,127.06537144248432 65.43627575680148,125.17044436939614 68.98728059019777,123.65608755849098 68.99414907148457,124.23915907630726 69.54362757568015,124.60357645093609 69.90765708469553,125.27571936370805 70.65632154667401,126.99249052570667 72.96413126430707,131.33282936178875 73.56855761894258,132.78225171761005 73.73340117017506,132.9360993582086 74.77054184686858,135.59194526018837 75.0040702111437,135.92391932424653 75.37496820147499,137.3084780893114 75.44365301451762,138.22340627683297 75.33375731366687,139.61601871328457 74.9972017298569,140.9195450837724 76.0,141.14624298853596" stroke="#4DD2FF" stroke-linecap="round" stroke-linejoin="round" stroke-width="0.5"><title>2025-07-17 10.0km</title><desc>1752756134000</desc></polyline><polyline fill="none" points="113.5,138.81001207380177 106.34195969975553,137.37658058895613 97.26372975111008,133.34024369516555 86.5,131.18998792619095 97.74377716321032,133.54143516851764 106.13927301467629,137.3640065497966 113.16930067166686,138.79743819076248" stroke="#4DD2FF" stroke-linecap="round" stroke-linejoin="round" stroke-width="0.5"><title>2025-07-14 5.0km</title><desc>1752500928000</desc></polyline><polyline fill="none" points="151.0,138.78223850869836 143.84362783422694,137.37637853726483 136.44448788114823,133.94252392493217 134.692337763845,133.30799601293256 124.0,131.21776149130892 135.38897576229647,133.4946222352737 143.97028928849613,137.42614378735016 150.24003127444303,138.68270916824258" stroke="#4DD2FF" stroke-linecap="round" stroke-linejoin="round" stroke-width="0.5"><title>2025-06-21 5.0km</title><desc>1750468889000</desc></polyline><polyline fill="none" points="179.97303190268576,136.65815049567027 186.99414734909078,138.06054482147738 188.5,138.14088944171817 187.20484278173535,138.06054482147738 175.72813862748444,135.81816068684566 174.49495065413066,135.33607482795196 170.80778058295255,133.5830061302404 170.15710351159214,133.3711738928905 162.63403718156042,131.91024369176012 161.5,131.85911055827455 162.5039017672825,131.8810247631336 165.43504705070518,132.4215728822819 170.70862979115918,133.56109248151915 174.63128299286473,135.4164227117435 175.63518476014724,135.80355207536923 176.72584347025258,136.0226809134765" stroke="#4DD2FF" stroke-linecap="round" stroke-linejoin="round" stroke-width="0.5"><title>2025-06-17 8.1km</title><desc>1750165544000</desc></polyline><polyline fill="none" points="38.5,168.7659015625395 31.692575405992102,167.41218310472323 22.81786542921327,163.44938676458696 11.5,161.2340984374605 22.83874709974043,163.49861490079638 31.546403712243773,167.39987649892282 37.28886310901726,168.56899806736328" stroke="#4DD2FF" stroke-linecap="round" stroke-linejoin="round" stroke-width="0.5"><title>2025-06-15 5.0km</title><desc>1749939796000</desc></polyline><polyline fill="none" points="67.65694828683627,166.5476281631636 74.02915513937478,167.8208640805533 76.0,167.94276827983776 74.4486060864001,167.84795392326487 63.78420940626529,165.77554687948214 62.744200893794186,165.38272991589474 59.26792934664991,163.73016241009464 58.49223238986451,163.47279138720114 51.482230261783116,162.11818949895314 50.63183656099136,162.05723172016587 49.0,162.18592029421416 51.315599063644186,162.10464333106574 58.19344541392638,163.43215375990985 59.02660140453372,163.66243329680947 61.014683975314256,164.60386135783847" stroke="#4DD2FF" stroke-linecap="round" stroke-linejoin="round" stroke-width="0.5"><title>2025-06-11 8.1km</title><desc>1749642919000</desc></polyline><polyline fill="none" points="113.5,168.75761206554307 106.48565335402964,167.40021930405055 97.67060876305914,163.46368833849556 86.5,161.24238793445693 97.79623885225737,163.51305007506744 106.5589375726413,167.46191932777583 112.3379216750618,168.62187352111505" stroke="#4DD2FF" stroke-linecap="round" stroke-linejoin="round" stroke-width="0.5"><title>2025-06-08 5.0km</title><desc>1749387304000</desc></polyline><polyline fill="none" points="134.4601398599334,172.2563473537739 137.36783216753975,170.52019920607563 143.48531468515284,169.40727984640398 146.58181818178855,167.09239786749822 149.94265734264627,167.18143203217187 150.8489510489162,166.42464101308724 144.8825174823869,156.7197848650394 140.84195804176852,157.5211119944288 136.9902097901795,159.7915303253103 134.8377622377593,159.7915303253103 131.4013986014761,161.39417096233228 125.77482517482713,162.55162973457482 125.96363636362366,166.20205515241832 124.0,168.65049295013887 125.66153846145608,170.4756824898359 126.3790209791623,172.74602883096668 127.4363636362832,173.41377535375068 134.00699300691485,172.03376467025373 137.48111888114363,170.4756824898359 142.54125874117017,169.8079311651527 146.77062937058508,167.09239786749822 149.7538461536169,167.22594910740736 150.96223776205443,166.20205515241832 144.8825174823869,156.58623019064544 140.38881118874997,157.5656301221461 137.065734265605,159.74701244014432 134.0447552446276,160.05863753479207 130.34405594388954,161.70579480053857 125.88811188796535,162.46259456081316 126.0013986013364,166.42464101308724 124.0,168.65049295013887 125.77482517482713,170.56471591748414 126.68111888109706,172.87957822266617 127.96503496496007,173.50280814105645 138.31188811152242,170.34213231221656 142.6545454543084,169.8524479540356 146.393006992992,167.3149832431227 149.86713286698796,167.2704661777243 151.0,166.15753796565696 144.4671328670811,156.45267547256663 140.01118881092407,157.8327387869067 136.91468531475402,159.74701244014432 126.07692307676189,162.24000654157135 126.03916083928198,166.20205515241832 124.03776223771274,168.56145910560736 125.73706293688156,170.4756824898359 126.3790209791623,172.6124793953786 128.3048951048404,173.54732452743337 143.56083916057833,168.91759436775465 145.4489510487765,166.38012385068578 144.8825174823869,163.842637573689 142.3902097903192,160.7264047942881 140.27552447561175,159.65797665526043 138.46293706283905,159.56894085078966 136.38601398584433,160.4147802090156 133.02517482521944,164.46588127722498 127.66293706302531,165.35622777591925 124.45314685301855,167.89370465217507 124.33986013988033,168.96211125364061 126.1524475524202,171.14343272330007" stroke="#4DD2FF" stroke-linecap="round" stroke-linejoin="round" stroke-width="0.5"><title>2025-06-04 6.4km</title><desc>1749041988000</desc></polyline><polyline fill="none" points="188.5,168.7822926046283 181.5798759208992,167.4002201252515 173.69658782478655,163.75985925654095 172.5031019775197,163.36496562202228 161.5,161.2177073953717 172.8171772005153,163.4883700306309 181.42283830943052,167.37554010635358 187.17041488946415,168.56017495014385" stroke="#4DD2FF" stroke-linecap="round" stroke-linejoin="round" stroke-width="0.5"><title>2025-05-28 5.0km</title><desc>1748436903000</desc></polyline><polyline fill="none" points="38.5,198.7704701553448 31.002373417722993,197.2346258794205 22.31922468356788,193.30680015370308 11.5,191.21694104147173 21.966772151878104,193.2312637355426 23.26977848104434,193.64671342453948 31.63251582282828,197.4738160835186 38.371835443074815,198.78305895852827" stroke="#4DD2FF" stroke-linecap="round" stroke-linejoin="round" stroke-width="0.5"><title>2025-05-27 5.0km</title><desc>1748351986000</desc></polyline><polyline fill="none" points="68.99476505536586,200.56973551820556 69.03084708336974,198.9533236429561 69.87877474335255,197.03381156545947 70.43804617866408,193.47254545317264 70.40196415054379,193.80089273079648 69.59011851868127,193.90192251550616 65.63913644338027,196.70547147485195 64.1417322778725,197.0590684653289 63.546378814440686,196.0740461719688 64.23193734802771,194.9627310827491 65.49480833107373,193.97769480869465 65.29635717655765,192.28543766700022 65.89171063998947,191.19935197279847 65.09790602215799,190.74470907823707 62.19330276129767,190.79522502458713 61.435580171470065,189.68387021525996 61.688154368137475,188.37044011337275 62.247425803449005,188.54724869203346 62.19330276129767,187.6884621843492 63.02318940724945,188.19363132303988 64.53863458684646,188.14311448692752 65.74738252768293,188.95138179129572 67.38911480555544,189.0018983510381 68.05663232511142,188.67354040438659 69.69836460298393,186.37501433712896 69.7705286591081,182.53563826884783 69.17517519567627,181.85363339612377 68.23704246553825,181.5 67.0824175667949,181.82837389592896 66.05407976638526,182.9650471285422 65.26027514843736,183.24289925477933 63.63658388471231,182.93978781838086 61.92268755059922,182.00519030670694 60.353119328967296,182.53563826884783 59.559314711077604,183.7480835996248 59.595396739197895,185.0362958573969 60.28095527278492,185.99613297969336 61.832482480444014,186.72863606043393 62.19330276129767,187.61268666454998 61.4897032136214,189.2544808901148 61.9948516068398,190.769967053624 62.1211387051153,192.86636394601373 61.453621185501106,195.13953176994983 61.97681059275055,195.7709610677848 63.51029678643681,196.14981735081528 64.10565024975222,197.0590684653289 62.73453318257816,199.28165873675607 61.038677862496115,199.96358313792734 58.20623865787638,202.03459350085177 56.149563057057094,202.91855249649961 55.68049669195898,204.13083051687863 54.52587179321563,205.3936095416866 55.5181275656214,208.22219538311765 56.42017826763913,208.42423515632981 57.61088519450277,207.6918396637484 59.000043275766075,208.2727053523995 60.01034006214468,208.14643039696966 60.80414468003437,207.31301298408653 61.38145712943515,205.21682112806593 62.7525741966092,204.4591541018599 65.89171063998947,205.4441204781615 67.0824175667949,204.8632436661428 68.94064201315632,204.76222137876903 69.04888809740078,199.15537609483 70.47412820678437,194.15449667496432 70.25763603823725,193.80089273079648 69.71640561695676,193.8514076318097 65.65717745741131,196.7307284307899 64.19585532002384,197.03381156545947 62.590205070213415,199.35742827017384 60.876308736158535,200.03935232151707 58.18819764390355,202.03459350085177 56.25780914135976,202.7922729638667 55.68049669195898,204.20659756285022 54.52587179321563,205.49463139727595 55.427922495349776,208.09592038458504 56.023275958781596,208.5 57.50263911020011,207.6918396637484 59.198494430223946,208.29796033048478 60.33507831487805,207.8433700636233" stroke="#4DD2FF" stroke-linecap="round" stroke-linejoin="round" stroke-width="0.5"><title>2025-05-23 6.4km</title><desc>1747958832000</desc></polyline><polyline fill="none" points="102.45308017521165,196.2609099506517 103.18378490814939,196.95508605199575 105.01054674061015,197.24737005149655 105.92392765684053,198.41650205080805 105.68905827833805,203.01989710853377 105.24541611899622,203.86018867589883 103.65352366515435,204.33513462169503 102.08772780874278,203.78711997522623 100.62631834263448,204.11592893171473 98.14714156999253,202.65455191805086 96.65963550633751,203.23910392301332 95.5635784069309,203.0564315932861 95.87673757807352,201.99692900072841 95.09383965004236,199.95097809076833 95.32870902842842,198.48957258829614 94.493617905071,197.10122810167377 94.85897027153987,194.90908685923205 100.1304829880828,194.6898714978597 101.93114822299685,195.3475169071171 102.87062573677395,196.84547944900987 104.88006375252735,197.21083457340137 105.76734807121102,198.05114898820466 105.68905827833805,203.1295005438733 105.29760931432247,203.86018867589883 103.75791005545761,204.29860035570164 102.2704039918026,203.8236543286912 100.57412514742464,204.07939462825016 98.09494837478269,202.6910864651727 94.93726006429642,203.3487072458811 93.24098121980205,204.73701113578863 93.78900976956356,205.1388868940121 94.20655533124227,207.33092317769479 96.76402189675719,208.5 97.86007899628021,207.7327940568066 98.59078372933436,206.2349078469706 98.48639733879827,205.0658186305227 97.12937426322605,202.91029361690744 98.48639733879827,202.6910864651727 100.60022174508777,204.07939462825016 102.2704039918026,203.60444811395428 102.06163121107966,203.0564315932861 100.36535236658528,203.09296607170836 99.4519714503549,201.92385966274014 100.31315917137545,198.48957258829614 98.06885177711956,195.05523030851327 98.22543136274908,192.315023998759 98.82565310772043,191.14585860955412 100.02609659754671,190.45166363242606 102.29650058946572,191.18239512490982 104.14935901958961,190.70741993909178 102.06163121107966,192.7534593702294 99.89561360958032,192.64385061174107 98.59078372933436,191.65736925475358 96.58134571358096,191.21893163386267 96.6335389087908,186.7614314134844 97.52082322735805,184.89802260746364 97.57301642256789,182.12114795439993 98.1210449723294,181.57307632359152 99.79122721916065,181.5 104.59300117893144,182.19422406563535 105.58467188791838,183.0711354503146 105.92392765684053,184.89802260746364 106.75901878031436,185.81146032754623 106.21099023055285,186.5422076916584 106.55024599947501,187.0171921379515 104.90616035019048,188.00369492125174 104.72348416689783,190.30551703396486 102.29650058946572,192.68038687076478 100.391448964132,192.7534593702294 98.5124939364614,191.54775993383373 96.68573210388422,191.328541123381 96.60744231124409,187.0171921379515 97.7295960081974,183.29036273398378 98.90394290059339,182.85190794157097 98.9300394981401,181.7557670234819 104.279842007556,182.0846098894981" stroke="#4DD2FF" stroke-linecap="round" stroke-linejoin="round" stroke-width="0.5"><title>2025-05-20 5.0km</title><desc>1747754393000</desc></polyline><polyline fill="none" points="147.42259414237924,196.88678985866136 149.9456066947896,197.19754025462316 151.0,196.08771632399294 144.7489539750386,186.6762878690206 140.3807531381026,187.74174351306283 136.9916317993775,189.73946533541312 134.88284518825822,189.82825274462812 129.76150627620518,191.78157085122075 125.65690376586281,192.35868577228393 125.99581589968875,196.13210933920345 124.0,198.70689594867872 125.65690376586281,200.1718534809188 126.25941422604956,202.21390670671826 127.16317991632968,203.10175274306675 128.85774058592506,203.36810617669835 137.33054393320344,200.6157789659337 142.37656903779134,199.9054979578359 146.74476987472735,197.01996862894157 149.9456066947896,197.10875445153215 150.9246861927677,196.26528835605131 144.8995815902017,186.72068190973368 143.2426778243389,186.76507594564464 137.14225941430777,189.65067790696048 134.35564853576943,189.9614338221727 130.85355648538098,191.5596033561451 125.35564853576943,192.58065283187898 126.14644351485185,195.51060668524588 124.0,198.66250321402913 125.58158995839767,199.9942831514636 126.07112970738672,201.85876775055658 127.20083682029508,203.05736048726249 128.85774058592506,203.2793217182916 138.0460251045879,200.26063861662988 142.97907949821092,199.63914226053748 146.55648535559885,197.10875445153215 149.98326359852217,197.10875445153215 150.9246861927677,196.17650234969915 144.8995815902017,186.76507594564464 143.58158995816484,186.63189382333076 140.19246861943975,187.74174351306283 137.25523012550548,189.65067790696048 134.84518828452565,189.73946533541312 130.3263598328922,191.64839036864578 125.84518828475848,192.44747261054 126.07112970738672,195.95453724917024 124.07531380769797,198.5737177300034 125.58158995839767,200.08306832588278 126.63598326360807,202.70222226623446 129.00836820108816,203.23492948169587 136.65271966555156,200.660171487747" stroke="#4DD2FF" stroke-linecap="round" stroke-linejoin="round" stroke-width="0.5"><title>2025-05-14 5.0km</title><desc>1747227249000</desc></polyline><polyline fill="none" points="171.0614109998569,208.2072240831185 171.6113941486692,207.70532147266204 172.40975678374525,204.73570418082818 174.8048446890898,205.1121370839246 176.0999662972754,199.92566322856874 175.85158681077883,196.60039055150992 173.3500505540287,190.3470488191233 173.45649890543427,188.94577039235446 175.1951553109102,188.00460749759804 177.78539852704853,187.56539656739915 179.45308936492074,186.41507746368006 180.81917654059362,186.5405671554763 181.33367690548766,185.99677789857378 178.583761162241,181.60457742671133 177.89184687833767,181.5 175.99351794598624,182.1902099634608 174.8048446890898,183.00590944757278 173.77584395941813,183.02682477340568 171.6823597161565,183.863435936757 169.5356512971921,184.17716418294003 169.6775824322831,185.80854279684718 168.66632309451234,187.08435487173847 168.8437370134052,187.54448173608398 169.44694433768746,187.9418631404842 170.05015166208614,189.34314889581583 170.81303151347674,189.42680742329685 177.6257260000566,187.37716300397005 178.3886058514472,186.7078866167867 178.67246812174562,185.80854279684718 178.335381675628,184.6372980163287 177.1467084189644,183.3614696762961 175.6919142837869,182.9013327843859 174.41453406750225,183.25689320683887 172.7113604459446,185.1810911246721 170.28078975668177,185.59939246736758 168.87921979720704,186.85429102586932 168.9147025810089,187.54448173608398 170.81303151347674,189.00851442132262 172.97748132422566,188.77845288168464 177.57250182447024,187.37716300397005 178.56601977034006,186.45690737005498 178.61924394604284,185.4529871011182 177.89184687833767,184.13533377973363 176.1709318648791,182.96407878912578 173.77584395941813,183.04774009693938 171.52268718916457,183.94709685254202 169.50016851339024,184.34448570449604 169.65984104049858,185.8922028648376 168.68406448629685,187.1680143837002 169.4646857297048,187.9418631404842 169.85499635129236,189.0712584296998 170.75980733777396,189.44772204950277 171.8242908512475,188.90394102841674 173.79358535131905,188.56930578823085 173.33230916212779,189.42680742329685 173.38553333771415,190.09607433053316 175.6209487161832,195.70109307739767 176.15319047297817,198.294404584085 175.9580351621844,201.20138148439582 175.0709655676037,204.5265744713688 172.78232601343188,204.19196646231285 171.87751502695028,207.24524292709248 171.18560074316338,207.53802031086525 170.90173847286496,208.5 170.52916924317833,208.35361209738767" stroke="#4DD2FF" stroke-linecap="round" stroke-linejoin="round" stroke-width="0.5"><title>2025-05-06 7.1km</title><desc>1746539597000</desc></polyline><polyline fill="none" points="21.816843614331447,238.5 21.633903592126444,238.28435963652737 22.493721696315333,235.41632046682935 24.67070796014741,235.9338644418458 25.05488200671971,235.26536988592125 26.18911014404148,230.49958522240922 26.152522139600478,228.12743244334706 22.91448374732863,219.1561248897342 22.036371640861034,218.96202960774826 20.792379490216263,219.56588097129134 20.024031397071667,219.41491830308223 18.5788052220596,217.1720308127551 19.566681341733783,216.09371047242894 19.328859312925488,214.36838570807595 20.60943946801126,214.3036857367988 24.890235986677,213.09594905805716 26.280580155085772,212.2332754896488 28.567330432124436,211.54313392755284 31.51266478910111,216.05057753656 31.14678474480752,216.63287137694715 29.536912549752742,216.48190647170122 27.817276341258548,217.7327550680784 25.201234024367295,218.1209478527453 23.66453783819452,218.85419881320558 21.707079601008445,219.11299262134708 20.517969456966966,219.60901314098737 19.74962136382237,219.28552163871063 19.31056531064678,218.07781535870163 18.615393226384185,217.56022469713935 18.615393226384185,217.1504644635279 19.566681341733783,215.87804569935543 19.31056531064678,214.3899523604341 21.322905554436147,214.13115237673628 24.835353980073705,213.00968187041872 28.164862383389845,211.5 28.677094445447437,211.6725356537936 31.4943707868224,216.05057753656 31.219960753573105,216.58973855864315 29.66497056512162,216.48190647170122 27.414808292523958,217.883719019228 25.585408070823178,218.01311659999192 20.60943946801126,219.56588097129134 19.841091374866664,219.3502199814975 19.34715331508778,218.07781535870163 18.615393226384185,217.517092080976 19.548387339455076,215.92117867272464 19.328859312925488,214.36838570807595 21.24972954567056,214.13115237673628 24.689001962309703,213.07438226472004 25.914700110792182,212.31954301570659 28.201450387830846,211.5 28.622212438844144,211.6725356537936 31.47607678466011,216.02901106515492 31.201666751410812,216.56817214586772 29.536912549752742,216.4603400472697 27.76239433477167,217.75432135388837 25.182940022088587,218.1209478527453 23.335245798225515,218.91889729698596 21.816843614331447,219.0482942009985 20.64602747245226,219.5874470573326 19.78620936826337,219.26395551979658 19.328859312925488,218.07781535870163 18.597099224105477,217.5386583902291 18.5788052220596,217.1720308127551 19.31056531064678,216.4603400472697 18.45074720645789,217.25829618619173 19.255683304043487,218.20721281263104 19.621563348337077,219.19925714879355 20.408205443643965,219.67371137811278 24.963411995442584,218.25034527845855 27.689218325773254,217.9268515555741 29.445442538592033,216.58973855864315 31.073608735809103,216.58973855864315 31.54925279354211,216.09371047242894 28.49415442335885,211.5 26.17081614176277,212.19014171257732 24.725589966750704,213.11751584906597 23.426715809386224,213.20378298975993 21.43266956775915,214.02331895034877 19.072743281838484,214.49778558711114 19.47521133068949,215.87804569935543 18.542217217502184,217.0210663187463 18.505629213061184,217.58179100176494 19.23738930176478,218.1425140962092 19.566681341733783,219.1561248897342 20.261853425996378,219.5874470573326 22.91448374732863,219.13455875671934 25.768348093144596,226.5531699071289 26.097640132997185,228.23525818638154 26.17081614176277,230.41332561943273 24.87194198439829,235.73978560976684 22.38395768299233,235.43788482611126 21.83513761649374,238.04715496544668 21.54243358108215,238.28435963652737" stroke="#4DD2FF" stroke-linecap="round" stroke-linejoin="round" stroke-width="0.5"><title>2025-04-29 10.1km</title><desc>1745929124000</desc></polyline><polyline fill="none" points="74.96288303844631,222.42462373730086 74.50841605523601,222.0400183712045 74.76478204579325,220.62520996679086 74.12386706948746,222.74054869628162 73.63444108766271,222.80922793049103 72.17781614157138,228.52320921795035 72.0146741476492,228.564414873661 64.59171342250193,227.09473816500395 55.129477772978134,222.83669961369014 49.0,221.53178805270727 55.08286577468971,222.85043545305234 62.552438498008996,226.35302566026803 64.67328441952122,227.1496796584761 76.0,229.37479003320914 72.1195511437254,228.5369444379976 72.36426413466688,227.5342694429055 73.05179110914469,227.36944539318938 74.61329305131221,220.80377889306692 74.91627104009967,220.6938903529881 74.50841605523601,221.76529953444697" stroke="#4DD2FF" stroke-linecap="round" stroke-linejoin="round" stroke-width="0.5"><title>2025-04-22 6.3km</title><desc>1745328842000</desc></polyline><polyline fill="none" points="96.08290893549565,237.7065819974814 96.5316449047532,237.50822701070865 97.46651150728576,234.44471974590851 99.8597700096434,234.79735603785957 101.11249125690665,230.23507655138383 100.90682060446125,225.62861269786663 98.30789144942537,219.25873630018032 98.25179945328273,218.1566612082388 99.65409935708158,217.01049674367823 102.60827782098204,216.52557905377762 104.73977367463522,215.1369446930621 106.14207357843406,215.2691959952499 106.72169087198563,214.7622322007228 105.46896962460596,212.80049076444993 103.78620974009391,213.66013261199987 102.4400018324377,212.09514087894058 101.00030726462137,211.5 98.30789144942537,211.72042275195417 96.47555290861055,212.5359848455846 94.00750507798512,212.954785724025 94.38145171897486,214.49772884703998 93.29700646002311,216.06270199271967 94.10099173826165,216.74599632962781 94.5123330433853,217.89216229283193 95.35371298552491,218.33299362644902 98.42007544171065,217.60562141083938 100.19632198649924,216.83416317273804 102.53348849271424,216.52557905377762 104.4593136938056,215.225112237531 106.14207357843406,215.2471541176783 106.70299353986047,214.71814833245298 105.4876669566147,212.80049076444993 103.80490707210265,213.6160485035798 102.4400018324377,212.0730986554263 101.11249125690665,211.52204228601477 98.21440478926525,211.72042275195417 96.51294757274445,212.51394267009164 94.4749383792514,212.8225329087145 94.1944783985382,213.04295421954885 94.34405705484096,214.5638547178678 93.29700646002311,215.95249301256263 94.06359707412776,216.74599632962781 94.45624104724266,217.91420388229017 95.26022632536478,218.37707670690725 100.23371665063314,216.81212146561302 102.45869916456286,216.56966252817074 104.47801102593075,215.225112237531 106.21686290658545,215.225112237531 106.68429620796815,214.67406445462257 105.4502722924808,212.7564064686594 103.71142041182611,213.59400644570997 102.42130450042896,212.0730986554263 101.28076724533457,211.5881691295799 98.77532475069165,211.6102114059613 96.32597425219137,212.5359848455846 94.4375437151175,212.8225329087145 94.17578106641304,213.02091209929495 94.30666239082348,214.7622322007228 93.27830912801437,216.01861840786296 94.1196890702704,216.79007975605782 94.49363571126014,217.91420388229017 95.1106476689456,218.3109520825965 102.6269751531072,216.23903623607475 103.54314442339819,215.48961464011518 103.86099906824529,214.365477040541 103.59923641965725,213.5278802577959 102.68306714913342,212.40373175652348 101.24337258131709,211.54408456964302 98.75662741868291,211.6322536799853 96.25118492392357,212.602111357759 94.1570837344043,212.954785724025 94.38145171897486,214.45364492113004 93.29700646002311,215.97453481335833 94.21317573054694,217.0986634715373 93.85792642156594,217.78195430927735 94.7927930240985,219.69956465590803 95.52198897406925,222.91758255226887 95.83984361891635,226.53228134020173 95.76505429064855,228.91265746948193 93.93271574983373,237.8828973779746 95.26022632536478,238.5" stroke="#4DD2FF" stroke-linecap="round" stroke-linejoin="round" stroke-width="0.5"><title>2025-04-15 8.8km</title><desc>1744723077000</desc></polyline><polyline fill="none" points="150.82256297930144,222.11555058220983 150.03888280398678,222.0632622097619 150.61555312166456,220.37259562626423 149.93537787522655,223.1961731211777 150.09802847763058,223.63190595147898 149.19605695514474,226.62971566361375 148.323658269539,226.6471446256328 148.33844468783354,227.37915931733733 147.3329682367039,230.63832694699522 137.5295728368219,228.68632008161512 126.29189485206734,223.47504226924502 124.0,222.81272724908195 126.45454545458779,223.5970473687048 137.51478641841095,228.7037488197093 147.36254107346758,230.6208984196128 147.68784227827564,229.31375345625565 148.42716319829924,229.22661007908755 149.0629791895044,227.37915931733733 151.0,219.36167305300478 150.48247535608243,222.23755671823164" stroke="#4DD2FF" stroke-linecap="round" stroke-linejoin="round" stroke-width="0.5"><title>2025-04-11 5.1km</title><desc>1744377642000</desc></polyline><polyline fill="none" points="169.26928169163875,238.5 170.18246932455804,237.48948740954802 170.42474359448534,238.23638850795396 171.33793122740462,237.48948740954802 172.3629377540201,234.39201509868144 174.76704397122376,234.94121578645718 175.19568306417204,234.78743974464305 176.31387200241443,229.9763872182375 176.38841793162283,227.3401453783008 175.92250587407034,224.98946733966295 173.23885242233519,219.14560693781823 173.1643064931268,218.1569671883044 174.46886025439017,217.05847289254598 177.4693339051446,216.5751335065288 179.55661992321257,215.14707855210872 180.91708313138224,215.2788994331204 181.60663297667634,214.70767499279464 180.13435087457765,212.40079059636628 178.58752284338698,213.30157716825488 176.76114757778123,211.76364644480054 175.12113713496365,211.67576433482463 174.24522246664856,212.09320401590958 172.4747566478327,214.02659758357913 169.94019505451433,214.40009193155856 168.46791295264848,215.6743615591986 168.39336702332366,216.09179296197544 169.15746279782616,216.72892343683634 169.47428299696185,217.76150993116607 170.31292470067274,218.24484647337522 177.67433521070052,216.17967314712587 178.6807052550139,215.21298900338297 178.79252414871007,214.1364489342086 177.6929716928862,212.42276104840857 175.92250587407034,211.5 173.53703613905236,211.6318232654885 171.2074758511735,212.53261327285145 169.19473576243035,212.88413998897886 169.36246410314925,214.4220621658169 168.39336702332366,215.60845125872584 168.39336702332366,216.02588279791235 169.15746279782616,216.6630134810839 169.95883153693285,218.22287665563636 170.77883675822522,218.24484647337522 171.8783892141655,217.67363043544174 172.8847592585953,217.76150993116607 175.82932346244343,225.56066265427216 176.18341662629973,227.60377111313574 176.07159773248713,229.71276458504144 175.02795472345315,234.17233440485143 172.6238485062495,233.79887667608273 171.67338790884241,236.69864793760644" stroke="#4DD2FF" stroke-linecap="round" stroke-linejoin="round" stroke-width="0.5"><title>2025-04-08 5.6km</title><desc>1744119870000</desc></polyline><polyline fill="none" points="21.188411040697247,266.22279384173453 21.919400704151485,265.15598509067786 22.47634520957945,262.7761591798626 24.791145810333546,263.2069919617643 26.026866431871895,258.44726081666886 26.079079979273956,256.5187148169498 25.748394179157913,254.63118258801114 23.381380031001754,248.7632985329692 23.381380031001754,247.63483832952625 24.686718715704046,246.67051243354217 27.419227695616428,246.26015949061548 29.229297338286415,245.02909529639874 30.7957037598826,245.02909529639874 31.213412138982676,244.49563164620486 29.838455391174648,242.3207257387403 28.15021735901246,242.97730375418905 26.549001905776095,241.6436272625142 23.97313356801169,241.58207273487642 21.58871490403544,242.4643523752893 19.604600103280973,242.83367750897014 19.709027198085096,244.49563164620486 18.786587860959116,245.60359292195062 19.465363976953086,246.38326546740427 19.86566784029128,247.53225070299231 20.944747819565237,247.90156589698745 21.901996188331395,247.38862793192675 23.52061615732964,247.20396992248425 25.104427094687708,246.50637136369187 27.52365479042055,246.15757111515268 29.35112894885242,244.94702406400756 29.072656696138438,245.50100418883085 29.525174106820486,244.82391714828555 30.86532182310475,244.92650625035458 31.161198591638822,244.41356018124497 30.082118612306658,242.66953309456585 28.550521222292446,243.46973576329765 27.332205116574187,242.05399026606756 26.044270947750192,241.5 23.851301957445685,241.56155455451517 21.710546514601447,242.42331620461482 19.656813650683034,242.75160531961592 19.639409134862944,244.57770307539613 18.83880140830297,245.39841539978806 18.786587860959116,245.8087702206103 19.482768492714968,246.42430077510653 19.67421816656133,247.2860401712678 20.6140620195074,247.88104840523738 21.84978264098754,247.36811038423912 23.450998094165698,247.20396992248425 24.91297742095776,246.5474066445313 26.305338684644084,246.36274781019893 26.46197932685027,247.53225070299231 30.029905064904597,254.7747998355917 26.39236126356991,256.04683353322616 26.18350707407808,259.26791269924433 25.295876768475864,262.73512743496394 24.843359357793815,263.08389698182873 23.590234220493585,268.5 18.786587860959116,267.2690811709472 19.517577524355147,264.1302017472626 19.761240745487157,264.0071073706349 19.343532366328873,266.01763878189377" stroke="#4DD2FF" stroke-linecap="round" stroke-linejoin="round" stroke-width="0.5"><title>2025-04-02 6.9km</title><desc>1743601029000</desc></polyline><polyline fill="none" points="58.2553137508221,268.5 58.90103783342056,267.91794785880484 59.79365641833283,264.7166316180519 62.77538232936058,265.4330144081323 64.00985484034754,259.76904479989025 63.63001714460552,255.58253215104924 60.724258772679605,248.95557841929258 60.705266887904145,248.351082138528 61.27502343140077,247.54508433119918 62.28159332484938,247.05252855930303 65.51021373819094,246.47041567025008 67.01057263615075,245.26140670843597 67.59932106442284,245.17185020603938 67.6183129491983,244.36583992806845 66.85863755783066,242.82097805774538 66.25089724478312,242.86575682619878 65.66214881651103,242.19407427562692 65.16835981211625,242.3060215198493 64.06683049467392,241.63433713953418 62.88933363801334,241.54477905623207 61.673853011918254,241.97017960417725 60.04055092053022,243.9852228644304 57.571605898672715,244.3434507085185 55.72939307463821,245.82113396393834 56.83092239196412,247.88091713511676 58.084386787726544,248.39585970180633 62.43352840328589,246.94058390099963 65.24432735121809,246.53758262630436 67.39041033177637,245.05990452312108 68.81480169063434,245.2390175864566 69.30859069502912,244.70167792809661 67.77024802740198,242.3955792713241 66.07997028168757,243.31354397338873 65.05440850334708,242.12690589981503 63.72497656859923,241.5 61.23703966184985,241.6119476223539 58.9770053725224,242.55230524252693 56.56503600499127,242.95531433366705 56.716971083311364,244.72406710854557 55.691409304970875,246.0450244392996 56.52705223544035,246.828639181811 56.90688993118238,247.94808363007905 58.027411133400165,248.41824847973476 59.18591610528529,247.8361394596286 60.2874454226112,247.76897292815556 61.57889358792454,251.4183226643945 62.58546348148957,252.29147035496135 65.90904331859201,251.5974301854294 67.99815064494032,255.98551568786206 63.97187107068021,257.35117624123814 63.762960338033736,260.77648163713457 63.345138872857206,261.29139189134 62.28159332484938,265.0748233252234 62.053690707543865,265.25391894466884 59.79365641833283,264.8509535813937 59.09095668129157,267.5373744137469" stroke="#4DD2FF" stroke-linecap="round" stroke-linejoin="round" stroke-width="0.5"><title>2025-03-25 6.1km</title><desc>1742909450000</desc></polyline></svg>