<?xml version="1.0" encoding="utf-8" ?>
<svg baseProfile="full" height="300mm" version="1.1" viewBox="0,0,200,300" width="200mm" xmlns="http://www.w3.org/2000/svg" xmlns:ev="http://www.w3.org/2001/xml-events" xmlns:xlink="http://www.w3.org/1999/xlink"><defs /><rect fill="#222222" height="300" width="200" x="0" y="0" /><text fill="#FFFFFF" style="font-size:12px; font-family:Arial; font-weight:bold;" x="10" y="20">Over 5km Runs</text><text fill="#FFFFFF" style="font-size:4px; font-family:Arial" x="10" y="280">Runner</text><text fill="#FFFFFF" style="font-size:9px; font-family:Arial" x="10" y="290">Elliont</text><text fill="#FFFFFF" style="font-size:4px; font-family:Arial" x="65" y="280">SPECIAL TRACKS</text><rect fill="yellow" height="2.6" width="2.6" x="65" y="283" /><text fill="#FFFFFF" style="font-size:3px; font-family:Arial" x="70" y="285.5">Over 20.0 km</text><rect fill="red" height="2.6" width="2.6" x="65" y="287" /><text fill="#FFFFFF" style="font-size:3px; font-family:Arial" x="70" y="289.5">Over 40.0 km</text><text fill="#FFFFFF" style="font-size:4px; font-family:Arial" x="120" y="280">STATISTICS</text><text fill="#FFFFFF" style="font-size:3px; font-family:Arial" x="120" y="285">Number: 54</text><text fill="#FFFFFF" style="font-size:3px; font-family:Arial" x="120" y="290">Weekly: 2.2</text><text fill="#FFFFFF" style="font-size:3px; font-family:Arial" x="141" y="285">Total: 367.7 km</text><text fill="#FFFFFF" style="font-size:3px; font-family:Arial" x="141" y="290">Avg: 6.8 km</text><text fill="#FFFFFF" style="font-size:3px; font-family:Arial" x="167" y="285">Min: 5.0 km</text><text fill="#FFFFFF" style="font-size:3px; font-family:Arial" x="167" y="290">Max: 11.4 km</text><polyline fill="none" points="34.348654029279714,52.043260104823275 34.06820739203249,53.064334233909904 33.73167142731836,53.07168003494735 33.619492772442754,53.6226128334456 29.992382930824533,52.94680130839697 28.677399809559574,52.52074273665494 24.938111313065747,50.735674979885516 23.872414091601968,50.36102513162041 16.449926425993908,48.921174974188034 15.309443434583955,48.847712407303334 13.576906431204407,48.97259872339782 12.910066649346845,48.84036614619981 12.411494849802693,48.56120763180661 12.000173115200596,48.17185303730366 11.676101445482345,47.63556850043096 11.333333333343035,46.61441218016262 12.249459014972672,45.75486573807575 14.075478230748558,44.314917233197775 15.95135462647886,42.31657040189748 17.602873712428845,40.85450707837299 19.927464727777988,39.32628639895847 20.19544707002933,39.20138221595698 20.762572491978062,39.17934027729643 21.036786981712794,39.03239383534674 21.90305548341712,38.02580209644657 22.463948757882463,36.72529270630184 23.118324244773248,36.13748361938633 26.072362157021416,34.5062865553773 29.456418246321846,33.04405383322592 29.456418246321846,33.52901895521791 30.098329438245855,34.06541570798436 31.001990824879613,36.10809303048154 33.631957067438634,41.13369749870617 34.92824374619522,44.197369058965705 35.26477971088025,45.45365456347645 35.333333333343035,46.46748194076645 35.233618973434204,47.584143731728545 35.003029516141396,48.33347219846473" stroke="#4DD2FF" stroke-linecap="round" stroke-linejoin="round" stroke-width="0.5"><title>2025-09-30 10.1km</title><desc>1759229695000</desc></polyline><polyline fill="none" points="65.98565879891976,46.11832821347343 60.923214819224086,45.087192050530575 55.81057663579122,42.71214598309598 54.79952195996884,42.365602935933566 46.058559904427966,40.66667438750301 44.64595159847522,40.6244120091942 42.968031072610756,40.77655646342464 42.0,40.53143469581846 42.867642665078165,40.827271215224755 45.57812966834172,40.649769438939984 46.40991933073383,40.751199075100885 54.7851807588886,42.39095979669946 55.49507021214231,42.60226664788206 59.28831789660035,44.41102975244576 61.26740364509169,45.222423803243146 65.8279055870662,46.135231970853056 66.0,46.08452068764018" stroke="#4DD2FF" stroke-linecap="round" stroke-linejoin="round" stroke-width="0.5"><title>2025-09-29 6.6km</title><desc>1759141711000</desc></polyline><polyline fill="none" points="94.91840411839075,53.864217038455536 94.75778635777533,54.62877387113258 94.23268983268645,54.53411492793384 90.75469755468657,53.85693550277938 85.98558558555669,51.67243899676396 84.71917631916585,51.30106749243714 77.33075933071086,49.88838056840905 74.97091377089964,50.00489195963746 74.43963963960414,49.94663628940907 73.61184041181696,49.516999153645884 73.35238095233217,49.24756428688124 73.00025740024284,48.66499870052212 72.66666666665697,47.674625552244834 72.96936936932616,47.325078584923176 75.65662805660395,45.16949856153951 77.14543114538537,43.51635462047852 78.94929214927834,41.92871534087317 81.16705276703578,40.46484937516652 82.00102960097138,40.32647232658928 82.27902187898871,40.173528939529206 82.98944658940309,39.43793918785377 83.69369369366905,37.915752502354735 84.32998712995322,37.30395478341234 88.51222651221906,35.11891720139829 92.11377091374015,33.713171917246655 93.07129987131339,33.48737587632786 95.3137709137809,32.67159027265734 96.66666666665697,32.03789279553166 93.33693693694659,33.31984928834572 92.014929214929,33.66946951725549 90.77940797939664,34.12834329126781 90.60643500642618,34.521661160593794 90.73616473612492,34.84214067552966 91.11299871298252,35.00237985658168 91.47747747745598,35.65061625788803 92.76241956237936,38.45471251872368 94.77014157013036,42.24915933423472 94.77014157013036,42.445794660408865 95.22728442726657,43.261460947258456 96.04890604887623,45.249605819590215 96.27129987129592,46.08708504169044 96.57400257396512,46.15990882598271" stroke="#4DD2FF" stroke-linecap="round" stroke-linejoin="round" stroke-width="0.5"><title>2025-09-26 11.4km</title><desc>1758886655000</desc></polyline><polyline fill="none" points="127.33333333334303,47.460783730966796 122.77662652850267,46.53393656929984 117.6956968169543,44.18111765726644 116.87575842437218,43.927610741164244 108.6898161112913,42.35109477370861 107.35237561844406,42.3114833796717 105.84019415662624,42.43823976463318 105.10762624850031,42.32732793986361 104.0927844675025,41.57470751805522 103.73658172314754,41.03598495985352 103.38037897882168,40.132823482883396 103.40726220482611,39.792154398521234 104.07934285450028,39.205882935697446 103.41398301132722,39.752541610716435 103.33333333334303,39.998140547242656 104.04573882202385,41.582629878837906 104.41538317932282,41.95497986248665 105.04713899001945,42.30356109825516 105.82675254365313,42.46992882638733 107.81611126667121,42.31940566018602 108.70325772429351,42.366939325285784 116.42546438905993,43.86423387404648 117.68225520398119,44.196961810215726 122.76318491552956,46.57354566393769 124.49043218517909,46.93002654493466" stroke="#4DD2FF" stroke-linecap="round" stroke-linejoin="round" stroke-width="0.5"><title>2025-09-25 7.3km</title><desc>1758798919000</desc></polyline><polyline fill="none" points="158.0,44.48507578361023 157.5485008818505,46.073303010707605 152.92768959439127,45.17525188338914 147.53791887126863,42.688925604961696 146.18342151676188,42.273144077953475 137.85890652556554,40.68483779878443 136.43386243385612,40.65989031616482 134.92416225749184,40.80125927656627 134.0,40.59336365596391 134.79012345679803,40.834522523327905 136.58906525571365,40.70146944934095 138.0917107583664,40.77631183199264 146.53615520286257,42.372931850957684 147.29805996475625,42.60576948070957 152.8571428571595,45.183567220046825 156.92768959439127,45.981835323436826" stroke="#4DD2FF" stroke-linecap="round" stroke-linejoin="round" stroke-width="0.5"><title>2025-09-23 6.7km</title><desc>1758623965000</desc></polyline><polyline fill="none" points="188.66666666665697,46.14652826832025 183.78203938546358,45.192782815407554 178.22930198986433,42.637739206555125 176.9895865553117,42.243975259894796 168.11856892463402,40.520141486034845 166.73038457569783,40.476388878480066 164.66666666665697,40.616397138815955 167.88101866169018,40.520141486034845 176.73718940097024,42.20897392681218 178.0956799669948,42.58523745850107 183.88596762550878,45.24528285954875 188.66666666665697,46.19027778819145" stroke="#4DD2FF" stroke-linecap="round" stroke-linejoin="round" stroke-width="0.5"><title>2025-09-22 6.4km</title><desc>1758538508000</desc></polyline><polyline fill="none" points="34.31725616293261,80.62115512861783 30.137191854271805,79.79493378832558 25.21114683817723,77.55878096876404 24.265809217613423,77.24798794120579 16.65809217581409,75.76222648665862 15.178992497356376,75.69400198470976 13.693461950722849,75.82287043223187 13.06966773851309,75.70916299092642 12.465166130801663,75.39078116684686 12.015005359076895,74.97385038510402 11.333333333343035,73.39707138769154 11.449088960391236,73.20755227610789 14.227224008587655,70.9863498131308 16.008574490901083,69.0380012235837 17.944265809230274,67.32462235871208 20.272240085789235,65.81590426279581 21.15969989282894,65.69459887419362 21.500535905739525,65.42924259919528 22.220793140440946,64.56493228588806 22.838156484503997,63.18504619463056 23.513397642062046,62.56333032975817 26.407288317277562,60.963523716360214 30.060021436278475,59.378844871374895 30.06645230439608,59.856526984825905 30.574490889615845,60.24321962623071 31.063236870337278,61.10758363928471 31.30760986066889,61.81271474707319 32.90889603429241,64.91369037128607 32.94748124331818,65.1638853120021 33.867095391236944,66.68778051982372 35.333333333343035,69.970486149512" stroke="#4DD2FF" stroke-linecap="round" stroke-linejoin="round" stroke-width="0.5"><title>2025-09-21 9.0km</title><desc>1758451095000</desc></polyline><polyline fill="none" points="64.61682242990355,78.9426745185483 64.30529595015105,80.26457796423347 64.19314641747042,80.29395330206171 60.10591900310828,79.49347076997947 55.25856697818381,77.26822628668742 54.454828660411295,77.02586849275394 47.08411214951775,75.59373647334724 43.82554517130484,75.59373647334724 43.2461059189809,75.35137266060337 42.67289719625842,74.84460914607916 42.36137071647681,74.35253078415553 42.0,73.30226196895819 42.50467289716471,72.76610444766993 44.84735202489537,70.92257139315916 46.72897196258418,68.89536131041677 48.28660436134669,67.5365088296603 50.753894080989994,65.92054049104627 51.48286604360328,65.84708646419313 51.80062305292813,65.63406933362421 52.548286604345776,64.74526645507285 53.14018691587262,63.408367323740094 53.81931464173249,62.79867375015601 56.76012461059145,61.182591807730205 60.130841121514095,59.70604669794557 60.1433021806879,60.22027005963173 60.64174454830936,60.55084014858585 60.94704049846041,61.12382446137781 61.83800623053685,63.10719407918805 63.887850467290264,66.98561488489213 65.60124610591447,70.8858471150088 65.93146417447133,72.16384022927377 66.0,73.00847755385621 65.87538940808736,74.30111940481584 65.52647975078435,75.54232604042045" stroke="#4DD2FF" stroke-linecap="round" stroke-linejoin="round" stroke-width="0.5"><title>2025-09-18 10.1km</title><desc>1758194958000</desc></polyline><polyline fill="none" points="87.8715817371558,71.34957202608348 87.80219250693335,71.54381854474195 88.3312853873067,71.69717077555106 96.66666666665697,73.32268902235955 81.27960486689699,70.26587354624644 74.77436453438713,67.23963041550451 72.66666666665697,66.67731097764045 74.73099626551266,67.27030228796502 81.38368871220155,70.30676805562689 86.45777617156273,71.32912500073871" stroke="#4DD2FF" stroke-linecap="round" stroke-linejoin="round" stroke-width="0.5"><title>2025-09-16 5.4km</title><desc>1758020593000</desc></polyline><polyline fill="none" points="127.32600732601713,72.78058591976878 122.44688644690905,71.80481888265058 116.84249084250769,69.22286410807283 115.71428571428987,68.90335215274536 106.79853479855228,67.19350953654066 103.33333333334303,67.26259480156295 103.78754578757798,67.34031565272016 105.67032967033447,67.18487387416826 106.9597069597221,67.22805217655696 115.9853479853482,68.96380045926344 116.9377289377444,69.29194760477549 122.50549450551625,71.84799466916593 127.33333333334303,72.81512612582446" stroke="#4DD2FF" stroke-linecap="round" stroke-linejoin="round" stroke-width="0.5"><title>2025-09-15 6.5km</title><desc>1757932870000</desc></polyline><polyline fill="none" points="158.0,80.83944193231582 153.5722284434305,79.95245331471233 148.3381858902285,77.55277809563268 147.65285554309958,77.33894180769857 139.2609182530432,75.70742942717334 137.99104143335717,75.67574921280902 136.5061590145342,75.81039002854232 135.85442329224315,75.71534947862528 135.14221724521485,75.34310612858826 134.75251959683374,74.97086087284697 134.3695408734784,74.33724754417926 134.047032474773,73.51354196194734 134.0,73.26801253106532 134.11422172450693,73.10960600658291 136.95632698765257,70.78099026833661 138.85106382975937,68.72160807779437 140.83986562149948,66.96316633940296 143.39977603580337,65.323499906277 144.23292273233528,65.220524451448 144.60246360578458,64.95912456468068 145.30123180290684,64.18284057165147 145.9731243001006,62.6619336114818 146.67189249716466,61.980683714667975 149.85666293391841,60.23792235666042 152.2217245240463,59.1605580676769" stroke="#4DD2FF" stroke-linecap="round" stroke-linejoin="round" stroke-width="0.5"><title>2025-09-13 7.0km</title><desc>1757768754000</desc></polyline><polyline fill="none" points="188.66666666665697,72.92395019804098 183.36115639604395,71.88168917612347 177.52353005105397,69.18835351079179 176.56885121180676,68.87474036595813 166.98293663733057,67.01148538175039 164.66666666665697,67.02070951731002 167.10814041955746,67.0852784380113 176.28714270191267,68.85629249775957 177.40615150530357,69.18835351079179 183.40810781434993,71.93703079175611 188.63536572110024,72.98851461824961" stroke="#4DD2FF" stroke-linecap="round" stroke-linejoin="round" stroke-width="0.5"><title>2025-09-11 6.0km</title><desc>1757587445000</desc></polyline><polyline fill="none" points="33.04037844229606,106.72257160432491 28.95928366278531,105.91965099555819 24.43419496534625,103.81910700813023 23.394154417997925,103.51083040700178 16.192937996296678,102.11998313896038 14.940023652656237,102.07696677552303 13.528974488930544,102.19167701552215 12.829532015573932,102.06262798148236 11.965872613625834,101.38870113719895 11.607028214231832,100.75061510568776 11.333333333343035,99.85441641328362 14.015543166082352,97.62462111145578 14.836627808748744,96.84309941149695 15.797600946127204,95.71023496452108 17.567494509217795,94.154307068653 18.875147829035996,93.38708483886876 19.757053556357278,92.73458038891113 20.541645548248198,92.60551280803338 20.89440783916507,92.39757006189029 21.593850312550785,91.5944746649111 22.189896942058112,90.23205826651247 22.858928873116383,89.64405931552028 25.60804189898772,88.1166716302032 29.02618685591733,86.61076172900357 29.020104747411096,87.11990655305272 29.524919749965193,87.42825995296153 29.871599932434037,88.05930426558189 30.54671397196944,89.63688856417866 33.24717013008194,94.8641589212275 33.39314073321293,95.36606975101313 33.5756039871485,95.56683301097655 34.372360195964575,97.51707280441042 34.573069775273325,98.29141669224191 34.86501098156441,98.37028453991661 34.950160500069614,99.77555034415855 34.633890859928215,101.86905395597569 34.87109309004154,102.0411197845242 35.32116911638877,102.12715253011993 35.333333333343035,102.25620143768174" stroke="#4DD2FF" stroke-linecap="round" stroke-linejoin="round" stroke-width="0.5"><title>2025-09-09 10.0km</title><desc>1757415422000</desc></polyline><polyline fill="none" points="65.966942148807,99.82292607746058 60.26446280995151,98.66371604515007 54.20661157020368,95.84842913533794 53.099173553753644,95.49772974962252 43.008264462812804,93.52989102407446 42.0,93.51040725587518 45.18181818179437,93.94879101379047 53.272727272706106,95.5659214045445 60.55371900825412,98.77087054381991 66.0,99.82292607746058" stroke="#4DD2FF" stroke-linecap="round" stroke-linejoin="round" stroke-width="0.5"><title>2025-09-08 5.7km</title><desc>1757333196000</desc></polyline><polyline fill="none" points="96.66666666665697,99.76688056016428 91.28310502282693,98.74965318283648 85.00365296803648,95.85291340314143 84.09132420091191,95.5428888419774 74.21187214611564,93.61489934820565 72.66666666665697,93.50832584575983 73.83378995431121,93.58583386019745 83.85296803654637,95.52351227102918 85.10228310499224,95.93041937458474 91.21735159814125,98.75934111747483 96.59269406390376,99.82500748756866" stroke="#4DD2FF" stroke-linecap="round" stroke-linejoin="round" stroke-width="0.5"><title>2025-09-04 5.8km</title><desc>1756983645000</desc></polyline><polyline fill="none" points="127.33333333334303,99.463310474428 122.60977564100176,98.51979006047623 116.9631410256552,95.94417627344956 113.90544871793827,95.23012968056719 107.24198717949912,93.9635309617006 105.87900641025044,93.93802876297559 104.22756410256261,94.07404039327957 103.33333333334303,93.87002285890776 103.7443910256552,94.05703895244369 104.31410256409436,94.13354540698492 105.87900641025044,93.98053242289461 107.32852564105997,94.02303605967609 116.37179487181129,95.7826663063097 117.3381410256552,96.13118739684433 122.62419871796737,98.57929168477858 125.5881410256261,99.11480426246271" stroke="#4DD2FF" stroke-linecap="round" stroke-linejoin="round" stroke-width="0.5"><title>2025-09-02 6.2km</title><desc>1756809719000</desc></polyline><polyline fill="none" points="158.0,99.77566786511306 152.5835929387249,98.71814936970623 145.26479750778526,95.47697353920375 135.35410176531877,93.55767234695668 134.0,93.45974771815236 135.30425752856536,93.57725725994533 144.75804776739096,95.40842777360376 146.0373831775796,95.790324945061 152.71651090343948,98.84544392114185 157.99169262719806,99.87358561517613" stroke="#4DD2FF" stroke-linecap="round" stroke-linejoin="round" stroke-width="0.5"><title>2025-08-29 5.7km</title><desc>1756465472000</desc></polyline><polyline fill="none" points="188.66666666665697,99.6567591936182 183.4667983755935,98.63214680185047 177.32652837233036,95.81905694387387 176.37032158928923,95.53029082808644 166.7292284052528,93.65794493709836 164.66666666665697,93.65794493709836 166.83196136541665,93.74178219694295 176.63110525740194,95.63275633562444 183.3482603446464,98.64146151523164 188.5402261003328,99.67538839624467" stroke="#4DD2FF" stroke-linecap="round" stroke-linejoin="round" stroke-width="0.5"><title>2025-08-27 6.0km</title><desc>1756291993000</desc></polyline><polyline fill="none" points="34.24930809257785,126.33515442553471 30.208125761098927,125.59294330800185 28.454555518663255,125.14197647250694 22.922838481143117,122.54887141888321 21.783017823501723,122.18244811503246 12.791984944080468,120.42547372604167 11.333333333343035,120.26574700702622 13.732536255964078,120.61338713445002 21.767076275864383,122.19184360382496 22.747481456870446,122.50189415920613 28.00022141035879,125.0010488529515 29.315399092214648,125.4614115578297 34.24133731870097,126.40091965963802 34.43263589061098,125.66810421804257 35.333333333343035,125.8184258417532 34.88696999891545,125.71507975360873 34.918853094190126,125.48959694973746" stroke="#4DD2FF" stroke-linecap="round" stroke-linejoin="round" stroke-width="0.5"><title>2025-08-26 6.0km</title><desc>1756205162000</desc></polyline><polyline fill="none" points="66.0,127.8151835373792 61.419949706614716,126.91412085110642 56.437552388961194,124.62189341631893 55.4048616932123,124.29781404101959 47.17015926237218,122.70901372558728 44.42078792958637,122.82758211437613 43.68985750208958,122.6615863158222 42.98575020956923,122.23473823317909 42.62363788767834,121.7999829754699 42.026823134947335,120.31389078954817 42.46269907793612,119.83169476393232 43.683151718374575,118.85148312928504 42.234702430840116,120.00560189668613 42.0,120.32970044105605 42.38222967312322,121.42846278221259 42.69740150880534,121.95017144988378 43.803855825652136,122.73272741882101 44.49455155071337,122.87500941562757 45.9966471081425,122.74063198153453 47.23721709972597,122.76434566445823 55.53227158423397,124.36104915472242 56.4442581726762,124.66931954496977 61.33948030177271,126.91412085110642" stroke="#4DD2FF" stroke-linecap="round" stroke-linejoin="round" stroke-width="0.5"><title>2025-08-23 7.3km</title><desc>1755948655000</desc></polyline><polyline fill="none" points="96.66666666668607,125.40733551089943 96.30359451775439,126.65826722128986 90.16860615467886,125.4512281145071 82.65580553404288,122.02754761239339 75.34781484358246,120.44734814138792 72.66666666668607,120.0083994453671 82.18101887771627,121.92878587158339 89.89862942852778,125.40733551089943 94.91647271788679,126.42783359942405" stroke="#4DD2FF" stroke-linecap="round" stroke-linejoin="round" stroke-width="0.5"><title>2025-08-19 5.0km</title><desc>1755607675000</desc></polyline><polyline fill="none" points="126.64184108001064,129.58133144514431 122.28413518168963,128.72013990202686 117.22841351816896,126.38256704851665 116.37383346926072,126.13650224594312 108.39557850864367,124.60626750437223 105.4143336051493,124.69085421040654 104.42928331976873,124.22947094620758 103.75083809008356,123.40666330792737 103.37247440431383,122.17627885333786 106.19715502404142,119.87694041685609 108.85874784816406,117.08533522151993 108.07592642927193,117.78516948388278 106.27543716589571,119.73851631466823 103.33333333334303,122.18396882278466 103.47685059349169,122.76840404899121 104.02482558670454,123.83729280077387 104.48799492619582,124.267919666745 105.29038688051514,124.660095419953 105.73398568455013,124.72930267964693 107.27353447498172,124.59088809238165 108.55866630430683,124.60626750437223 111.79432816893677,125.22144123652834 112.07483917733771,125.12147586984065 113.35997100663371,125.35985458752111 113.74485820424161,125.52902609242301 115.69538823957555,125.82123046428023 116.95442602157709,126.228776647411 117.6067772039678,126.21339758887189 117.59373018032056,126.3902565597964 118.01123493706109,126.37487753640744 117.69810636949842,126.58249406916002 118.17432273263694,126.87469408089237 121.99710066142143,128.5971116812725 122.72773398569552,128.80472167945845 122.95605689950753,128.6970721269754 124.20204765789094,128.78934318199754 124.20204765789094,129.0815340607951 126.31566548885894,129.50443977012037 126.6875056627905,129.5428856180879 126.79188185196836,129.01233106719883 127.14415149044362,128.95081723816838 127.33333333334303,128.31260809968808" stroke="#4DD2FF" stroke-linecap="round" stroke-linejoin="round" stroke-width="0.5"><title>2025-08-16 10.0km</title><desc>1755297330000</desc></polyline><polyline fill="none" points="148.4433497536811,122.49726038291556 148.00985221675364,124.70368727054301 158.0,126.66620756118209 141.42857142857974,123.3798366164192 134.0,120.00045910548943 141.20197044336237,123.36822381867387 147.45812807884067,124.62239866889286" stroke="#4DD2FF" stroke-linecap="round" stroke-linejoin="round" stroke-width="0.5"><title>2025-08-13 5.0km</title><desc>1755095249000</desc></polyline><polyline fill="none" points="188.53228816724732,127.80021298132488 184.1313923105772,126.92114289978053 179.12579320641817,124.61650331909914 178.19186263531446,124.3155484287563 169.9678984695929,122.73155479114939 167.05188503174577,122.82659538248117 166.4068682344514,122.69195450809639 165.7416946621961,122.29595049130876 165.39231056367862,121.94746517243766 165.06980216500233,121.40889366708143 164.68682344158879,120.33173868797894 165.5199701381498,119.50802117127023 166.48749533409136,118.77141971838864 165.75513251216034,119.28624947605567 164.66666666665697,120.33965900342446 165.37887271371437,121.95538531188504 165.9365434864012,122.4781126069065 166.40014930948382,122.71571468051116 167.05188503174577,122.85827555198921 169.33631952220458,122.72363473625592 170.16274729376892,122.7790751023349 178.574841358728,124.46602602961502 184.00373273610603,126.92114289978053 188.66666666665697,127.8952469482756" stroke="#4DD2FF" stroke-linecap="round" stroke-linejoin="round" stroke-width="0.5"><title>2025-08-12 8.1km</title><desc>1754996616000</desc></polyline><polyline fill="none" points="35.333333333343035,152.78355033762637 30.494096276088385,151.81575959781185 25.029972752032336,149.29773496599228 24.128973660321208,148.99796475827316 18.9918256130768,147.91878254841868 15.118982742977096,147.2507099486902 13.75295186197036,147.21644966236636 12.023614895559149,147.36205577613873 11.333333333343035,147.24214487851714 11.965485921915388,147.36205577613873 13.680290644901106,147.23357980738365 15.133514986402588,147.25927501795377 24.049046321510104,149.00652963721222 25.0881017257052,149.37481854898215 30.26884650316788,151.7643721459026 34.91916439597844,152.72359904489713" stroke="#4DD2FF" stroke-linecap="round" stroke-linejoin="round" stroke-width="0.5"><title>2025-08-10 6.4km</title><desc>1754781124000</desc></polyline><polyline fill="none" points="63.62003541615559,160.0416748744683 59.62509486466297,159.24017625767738 55.0958765494579,157.150508894214 54.23374652164057,156.8642479156697 46.77207184417057,155.4042975252596 46.10422463953728,155.3613573168186 44.01568429041072,155.48302116789273 43.560333923611324,155.3756707227585 42.92284341008053,155.0106778972622 42.479635719704675,154.50970405101543 42.0607133822341,153.52921561186668 42.0,153.15705558484478 44.653174803970614,150.98130862055405 46.48671894764993,149.00589698937983 48.217050341540016,147.49566904278618 50.39666076400317,146.0712990182874 50.63951429296867,145.95677546362276 51.25271945359418,145.93530227488372 51.48950164433336,145.77783200967679 52.15734884896665,145.04057983712846 52.843410068308,143.56605066322663 53.46268656718894,142.97909294488636 56.23728813559865,141.4830428386631 59.66759423221811,139.95832512552442 59.66759423221811,140.48088494904368 60.2747280546464,140.87459165827022 60.4568682013778,141.10365629375883 60.55400961296982,141.4758846222394 62.697192006075056,145.29110334833967 63.577536048571346,147.22368117285805 64.13002782699186,147.98953887465177 64.13609916521818,148.21142121338926 64.38502403241,148.59076670155628 64.83430306098307,149.90056541394733 65.18036933973781,150.5160902145144 65.47179357451387,151.79006508422754 65.56893498607678,153.078329155127 65.29572476600879,154.92479693775385 65.36858082472463,155.03214811958605 66.0,155.22537980488414 65.92714394131326,155.7979147951628" stroke="#4DD2FF" stroke-linecap="round" stroke-linejoin="round" stroke-width="0.5"><title>2025-08-08 10.0km</title><desc>1754654808000</desc></polyline><polyline fill="none" points="96.66666666668607,153.36006079830258 90.26350461138645,152.05185197186802 82.92121212126222,148.66384906645544 75.34176548093092,147.03130609948857 72.66666666668607,146.6399392017047 82.75046113313874,148.66384906645544 90.45322793151718,152.16366534354165 96.50540184456622,153.32651719044225" stroke="#4DD2FF" stroke-linecap="round" stroke-linejoin="round" stroke-width="0.5"><title>2025-08-07 5.0km</title><desc>1754573743000</desc></polyline><polyline fill="none" points="127.33333333331393,153.3720225925499 120.98872279044008,152.10337481449824 113.73773931286996,148.77588168843795 112.81248360866448,148.49765829085663 103.33333333331393,146.6279774074501 105.85418305790517,147.16217543664243 106.06189352209913,147.0731426257189 106.61893522157334,147.30685358891787 113.21846315229777,148.65346348685125 121.07369525305694,152.19240324261045 126.90847102011321,153.3608941717248" stroke="#4DD2FF" stroke-linecap="round" stroke-linejoin="round" stroke-width="0.5"><title>2025-08-04 5.0km</title><desc>1754309955000</desc></polyline><polyline fill="none" points="158.0,152.79290627380396 153.20291173795704,151.8319344715128 147.67060964513803,149.29216685529536 146.8407643312239,149.01759247901646 138.06187443132512,147.28431964103947 136.51865332122543,147.20709372618876 134.64058234760887,147.35296483512502 134.0,147.215674387131 134.13830755237723,147.3186422455692 135.01910828027758,147.37870676750026 137.55959963606438,147.24141636436252 141.04640582352295,147.9278659873671 141.60691537766252,147.93644656980905 142.57506824386655,148.22818581654428 146.74613284805673,149.02617294277297 147.90354868062423,149.4380341034339 153.11555959965335,151.82335431336105 157.50500454960275,152.70710569656512" stroke="#4DD2FF" stroke-linecap="round" stroke-linejoin="round" stroke-width="0.5"><title>2025-08-03 6.5km</title><desc>1754227262000</desc></polyline><polyline fill="none" points="185.88681740051834,152.81098562095576 179.5179161708802,151.54299123066448 171.49252941954182,147.97456928804604 164.66666666668607,146.58307566694566 172.08277138706762,148.13167222587072 179.76543699594913,151.64398250620434 188.66666666668607,153.41692433304706 186.0867380669224,152.83342785901186 186.0867380669224,152.66511095443275" stroke="#4DD2FF" stroke-linecap="round" stroke-linejoin="round" stroke-width="0.5"><title>2025-08-01 5.0km</title><desc>1754057984000</desc></polyline><polyline fill="none" points="33.037205770699074,186.68477772740152 28.94305239181267,185.8757133989493 24.43583902809769,183.7993080530141 23.470007593015907,183.49142167728132 16.18071374334977,182.08085403115547 14.850417615816696,182.037892105036 13.526195899787126,182.15245717894868 12.894457099493593,182.037892105036 12.372057706903433,181.74431819175516 11.989369779796107,181.3791390552069 11.552012148837093,180.54852797406056 11.333333333343035,179.82531495037983 14.012148823094321,177.60550250912638 15.870918754750164,175.62192925469571 17.57175398635445,174.1324197280992 18.853454821568448,173.3948135697574 19.85573272590409,172.6571991320816 20.566438876237953,172.58558563893166 20.821564160985872,172.42803567928058 21.599088838294847,171.53285828341177 22.206529992399737,170.18648851566832 22.801822323468514,169.64936521847994 25.644646924862172,168.08810190376244 28.97342444950482,166.64855560593423 29.02809415338561,167.1140839789805 29.514047076692805,167.45069474763295 30.01822323462693,168.35308957580855 30.328018223226536,169.21966341928783 31.093394077470293,170.80238449247554 33.085801063047256,174.53344484481931 33.35307517086039,175.33548773684015 34.142748671234585,176.98967028938205 34.67729688686086,178.82998896577192 34.71374335611472,179.97568663035054 34.640850417607,180.39099710220034 34.82915717540891,180.5270465137728 34.65299924070132,181.6082712995776 35.333333333343035,181.86604411977896 35.30903568715439,182.2168999452988" stroke="#4DD2FF" stroke-linecap="round" stroke-linejoin="round" stroke-width="0.5"><title>2025-07-28 10.0km</title><desc>1753704756000</desc></polyline><polyline fill="none" points="63.64346076460788,179.60944468951493 57.269215291773435,178.3344651997104 49.96780684107216,174.98757004756044 48.77987927565118,174.5891230100533 42.0,173.23439172089275 49.52354124747217,174.85095980582264 55.8108651911607,177.8108084041669 57.443058350123465,178.4255356789945 66.0,180.09894161243574 63.740040241449606,179.58667733500624 63.85593561368296,178.84673561358068" stroke="#4DD2FF" stroke-linecap="round" stroke-linejoin="round" stroke-width="0.5"><title>2025-07-22 5.0km</title><desc>1753194638000</desc></polyline><polyline fill="none" points="86.31791221824824,177.93350514910708 94.26809015418985,179.51065981560532 96.66666666665697,179.65327327344858 94.57413997626281,179.53582691558404 81.47093712931382,176.96874036761437 75.7556346381898,174.37639949520235 72.66666666665697,173.68006005988718 75.72004744960577,174.39317868104263 81.07947805454023,176.86806856382464 83.28588374852552,177.33786918930127" stroke="#4DD2FF" stroke-linecap="round" stroke-linejoin="round" stroke-width="0.5"><title>2025-07-19 6.4km</title><desc>1752877000000</desc></polyline><polyline fill="none" points="125.13541931658983,186.7501443924557 121.05096243537264,185.93696373570128 116.41092173327343,183.8140113169211 115.61723056054325,183.56213107989606 108.07716441960656,182.10840352034575 105.46408886631252,182.1947644670072 104.8962944119412,182.08681326605438 104.36513185789227,181.7773521790732 103.84617993727443,181.23039415485255 103.39438650049851,180.2156310901555 103.33333333334303,179.84858529212943 106.001356737077,177.63907044104417 107.76579326723004,175.72457761919213 109.50580853052088,174.20589911034767 111.63045874674572,172.78795447946322 112.00288306624861,172.6080100907493 112.57067752061994,172.57921894305764 112.97362842367147,172.32729586539062 113.6330026286887,171.54272926716658 114.22521834992222,170.19670797889557 114.85406597139081,169.6136635044386 117.94335622832295,167.9292838839101 121.09980496909702,166.58318894088734 121.10591028578347,167.10147473450343 121.59433562285267,167.42540128972905 121.91791740863118,168.02286165663827 122.58339693039306,169.54888046730048 124.63478334608953,173.4069594327084 125.17205121685402,174.69533486010187 125.31857881796896,174.8320883184133 126.24048164169653,177.1928402312842 126.44806240993785,177.4879282882248 126.77774951246101,178.7186471905079 126.83880267961649,179.53191669052467 126.74111761219683,180.76979441181174 126.4419570932223,181.92848451891768 127.33333333334303,182.129993767594" stroke="#4DD2FF" stroke-linecap="round" stroke-linejoin="round" stroke-width="0.5"><title>2025-07-17 10.0km</title><desc>1752756134000</desc></polyline><polyline fill="none" points="158.0,180.05334406559996 151.63729751086794,178.7791827457404 143.56775977875805,175.19132772903686 134.0,173.27998926772852 143.99446858954616,175.37016459424194 151.45713156857528,178.76800582204305 157.70604504144285,180.04216728068423" stroke="#4DD2FF" stroke-linecap="round" stroke-linejoin="round" stroke-width="0.5"><title>2025-07-14 5.0km</title><desc>1752500928000</desc></polyline><polyline fill="none" points="188.66666666668607,180.0286564521739 182.30544696381548,178.7790031442346 175.7284336721641,175.72668793326739 174.17096690129256,175.16266312260268 164.66666666668607,173.30467688116187 174.79020067764213,175.3285530980138 182.41803492314648,178.8232389220866 187.9911389107001,179.94018592732755" stroke="#4DD2FF" stroke-linecap="round" stroke-linejoin="round" stroke-width="0.5"><title>2025-06-21 5.0km</title><desc>1750468889000</desc></polyline><polyline fill="none" points="27.753806135733612,204.80724488504347 33.994797643623315,206.05381761909666 35.333333333343035,206.12523505930585 34.18208247263101,206.05381761909666 23.98056766888476,204.06058727719574 22.884400581446243,203.63206651373548 19.60691607373883,202.07378322688237 19.028536454745336,201.885487904794 12.341366383596323,200.58688328156495 11.333333333343035,200.5414316073584 12.225690459803445,200.5609109005636 14.831152933969861,201.04139811758432 19.518782036582706,202.05430442802026 23.00558488254319,203.70348685488716 23.897942009032704,204.04760184477345 24.867416418012,204.24238303420498" stroke="#4DD2FF" stroke-linecap="round" stroke-linejoin="round" stroke-width="0.5"><title>2025-06-17 8.1km</title><desc>1750165544000</desc></polyline><polyline fill="none" points="66.0,206.680801388924 59.94895591645036,205.47749609308812 52.060324825986754,201.9550104574082 42.0,199.98586527774023 52.07888631091919,201.9987688007095 59.81902552203974,205.46655688792816 64.92343387467554,206.50577605987928" stroke="#4DD2FF" stroke-linecap="round" stroke-linejoin="round" stroke-width="0.5"><title>2025-06-15 5.0km</title><desc>1749939796000</desc></polyline><polyline fill="none" points="89.25062069942942,204.70900281169452 94.9148045683396,205.84076807159727 96.66666666665697,205.94912735985417 95.2876498545811,205.86484793178897 85.80818613889278,204.02270833731382 84.88373412782676,203.6735377030127 81.79371497480315,202.20458880897058 81.10420656879432,201.97581456639818 74.87309356601327,200.77172399906704 74.11718805422424,200.71753930681007 72.66666666665697,200.83192915041218 74.72497694546473,200.75968296094288 80.83861814570264,201.93969223102977 81.57920124847442,202.14438515271468 83.34638575583813,202.98121009585157" stroke="#4DD2FF" stroke-linecap="round" stroke-linejoin="round" stroke-width="0.5"><title>2025-06-11 8.1km</title><desc>1749642919000</desc></polyline><polyline fill="none" points="127.33333333331393,206.673432947151 121.09835853689583,205.46686160359968 113.26276334491558,201.9677229675508 103.33333333331393,199.99323371951323 113.37443453533342,202.0116000667258 121.16350006457651,205.5217060691357 126.30037482228363,206.55277646321338" stroke="#4DD2FF" stroke-linecap="round" stroke-linejoin="round" stroke-width="0.5"><title>2025-06-08 5.0km</title><desc>1749387304000</desc></polyline><polyline fill="none" points="143.2979020976927,209.78341987001477 145.8825174823869,208.24017707206076 151.32027972023934,207.2509154190193 154.07272727275267,205.1932425489067 157.06013986014295,205.27238402859075 157.86573426565155,204.59968090051552 152.56223776214756,195.9731421022443 148.97062937053852,196.68543288393994 145.54685314686503,198.70358251139987 143.63356643356383,198.70358251139987 140.57902097899932,200.12815196652082 135.5776223775465,201.15700420853682 135.74545454548206,204.4018268021464 134.0,206.5782159556693 135.47692307678517,208.20060665762867 136.11468531482387,210.21869229417644 137.0545454545645,210.81224475888303 142.89510489499662,209.58556859579403 145.98321678326465,208.20060665762867 150.48111888102721,207.6070499245834 154.24055944057181,205.1932425489067 156.8923076922074,205.31195476214634 157.9664335664129,204.4018268021464 152.56223776214756,195.85442683612928 148.567832167726,196.72500455300906 145.61398601392284,198.66401105790283 142.92867132858373,198.94101114204386 139.63916083902586,200.40515093383146 135.67832167830784,201.07786183184362 135.77902097895276,204.59968090051552 134.0,206.5782159556693 135.5776223775465,208.2797474822146 136.3832167830551,210.33740286459215 137.52447552443482,210.89138501425623 146.7216783214826,208.0818953886337 150.58181818167213,207.6466204035969 153.90489510481711,205.3910962161317 156.99300699296873,205.35152549130726 158.0,204.36225596946315 152.19300699303858,195.73571153118974 148.23216783208773,196.962434477231 145.47972027980722,198.66401105790283 135.84615384601057,200.88000581471715 135.81258741265628,204.4018268021464 134.0335664334707,206.4990747605334 135.5440559439594,208.20060665762867 136.11468531482387,210.0999816847907 137.826573426486,210.93095513549633 151.38741258729715,206.8156394380203 153.065734265605,204.56011008951464 152.56223776214756,202.30456673217122 150.3468531469116,199.53458203937043 148.4671328670811,198.58486813801574 146.85594405583106,198.50572520069545 145.00979020970408,199.2575824080268 142.0223776224302,202.85856113530463 137.25594405597076,203.6499802452454 134.4027972028125,205.9055152463843 134.30209790205117,206.85521000323934 135.9132867131848,208.79416242073057" stroke="#4DD2FF" stroke-linecap="round" stroke-linejoin="round" stroke-width="0.5"><title>2025-06-04 6.4km</title><desc>1749041988000</desc></polyline><polyline fill="none" points="188.66666666668607,206.69537120411405 182.5154452630086,205.46686233356013 175.50807806645753,202.2309860058158 174.44720175780822,201.87996944179758 164.66666666668607,199.97129546255746 174.7263797337655,201.98966224945616 182.37585627502995,205.4449245389842 187.48481323511805,206.49793328901433" stroke="#4DD2FF" stroke-linecap="round" stroke-linejoin="round" stroke-width="0.5"><title>2025-05-28 5.0km</title><desc>1748436903000</desc></polyline><polyline fill="none" points="35.33333333331393,233.35152902697155 28.668776371283457,231.98633411504852 20.950421940884553,228.49493346996314 11.33333333331393,226.63728092575911 20.63713080168236,228.4277899871522 21.795358649804257,228.79707859959308 29.22890295361867,232.19894762979675 35.2194092827267,233.36271907424816" stroke="#4DD2FF" stroke-linecap="round" stroke-linejoin="round" stroke-width="0.5"><title>2025-05-27 5.0km</title><desc>1748351986000</desc></polyline><polyline fill="none" points="59.77312449365854,234.95087601617706 59.805197407491505,233.51406546041108 60.558910883031785,231.8078325026363 61.05604104773374,228.64226262503507 61.02396813390078,228.93412687181262 60.30232757219346,229.02393112489517 56.790343505272176,231.51597464430233 55.459317580389325,231.83028308028588 54.9301145017962,230.95470770841348 55.53949986497173,229.9668720735499 56.66205184988212,229.0912842744001 56.48565082368441,227.58705570399616 57.01485390227754,226.6216461980439 56.3092497974867,226.21751918065274 53.7273802323034,226.2624222440718 53.05384904134553,225.27455130244925 53.27835943835089,224.10705787855113 53.775489603111055,224.26422105958045 53.7273802323034,223.50085527497868 54.4650572509272,223.94989450936555 55.81211963278474,223.90499065503536 56.88656224688748,224.62345048115094 58.34587982716039,224.66835408980842 58.93922873347765,224.37648035945313 60.39854631375056,222.33334607743745 60.46269214147469,218.92056735008373 59.93348906288156,218.31434079655446 59.09959330270067,218.0 58.073260059405584,218.29188790749322 57.159182014584076,219.30226411425247 56.45357790979324,219.5492437820285 55.01029678643681,219.27981139410986 53.48683337838156,218.44905805040617 52.091661625832785,218.92056735008373 51.38605752098374,219.9982965329982 51.41813043487491,221.1433740954526 52.027515798050445,221.9965626486155 53.40665109374095,222.64767649815622 53.7273802323034,223.4334992573713 53.10195841215318,224.89287190231698 53.550979206105694,226.23997071432677 53.66323440457927,228.1034346186716 53.06988549826201,230.12402823995944 53.534942749131005,230.6852987269158 54.898041587963235,231.0220598673841 55.427244666498154,231.83028308028588 54.20847394008888,233.80591887710762 52.70104698895011,234.41207390037744 50.18332325149095,236.25297200075875 48.35516716184793,237.03871333022107 47.93821928178659,238.11629379277292 46.911886038433295,239.238764037058 47.79389116948005,241.75306256276235 48.595714015711565,241.9326534722859 49.65412017289782,241.28163525665877 50.88892735628178,241.79796031324076 51.78696894418681,241.68571590841748 52.49257304891944,240.94490043028782 53.00573967065429,239.08161878050305 54.22451039700536,238.40813697942212 57.01485390227754,239.283662647249 58.073260059405584,238.76732770322997 59.72501512285089,238.67753011445893 59.821233864407986,233.69366763984726 61.08811396162491,229.24844148884586 60.89567647851072,228.93412687181262 60.41458277066704,228.9790290060555 56.80637996218866,231.53842527180677 55.50742695113877,231.8078325026363 54.080182284640614,233.87326957348705 52.55671887664357,234.47942428578244 50.167286794574466,236.25297200075875 48.45138590346323,236.9264648567696 47.93821928178659,238.18364227808343 46.911886038433295,239.32856124201498 47.71370888478123,241.64081811962387 48.242911963374354,242.0 49.557901431340724,241.28163525665877 51.065328382421285,241.8204091826483 52.075625168858096,241.41632894544455" stroke="#4DD2FF" stroke-linecap="round" stroke-linejoin="round" stroke-width="0.5"><title>2025-05-23 6.4km</title><desc>1747958832000</desc></polyline><polyline fill="none" points="86.84718237782363,231.1208088450221 87.49669769604225,231.73785426844552 89.1204859915888,231.99766226801148 89.93238013936207,233.03689071182453 89.72360735852271,237.1287974298175 89.32925877242815,237.87572326746886 87.91424325783737,238.2978974415164 86.52242471883073,237.81077331131382 85.22339408227708,238.10304793930845 83.01968139549717,236.80404614938016 81.69745378335938,237.3236479315674 80.72318080603145,237.1612725273735 81.00154451385606,236.21949244510324 80.30563524435274,234.4008694140066 80.5144080251921,233.101842300719 79.77210480440408,231.8677583125973 80.09686246351339,229.91918831931252 84.78265154489782,229.72433022032783 86.38324286486022,230.30890391743742 87.21833398821764,231.64042617690575 89.00450111331884,231.9651862874598 89.79319828539155,232.71213243396778 89.72360735852271,237.22622270566353 89.37565272371285,237.87572326746886 88.00703116029035,238.26542253840307 86.68480354826897,237.84324829216348 85.17700013099238,238.0705730028858 82.97328744421247,236.83652130237897 80.16645339049865,237.42107310744177 78.65864997310564,238.65512100957858 79.1457864617696,239.01234390577883 79.51693807216361,240.9608206023986 81.79024168592878,242.0 82.7645146632567,241.31803916160425 83.41402998159174,239.98658475287084 83.32124207890593,238.94739433824725 82.11499934503809,237.03137210392742 83.32124207890593,236.83652130237897 85.20019710669294,238.0705730028858 86.68480354826897,237.648398323523 86.49922774301376,237.1612725273735 84.99142432585359,237.19374761929794 84.1795301779639,236.15454192244215 84.94503037445247,233.101842300719 82.95009046851192,230.04909360756574 83.08927232236601,227.61335466556193 83.62280276243109,226.57409654182266 84.689863642212,225.95703433992458 86.70800052396953,226.60657344435458 88.35498579510022,226.18437327918946 86.49922774301376,228.00307499575138 84.57387876405846,227.90564498821914 83.41402998159174,227.02877267089207 81.62786285649054,226.63905034121126 81.67425680777524,222.6768279231037 82.46295397984795,221.02046453996445 82.50934793113265,218.5521315150254 82.99648441979662,218.0649567320943 84.48109086148906,218.0 88.74933438119479,218.61708805835224 89.6308194558369,219.3965648447338 89.93238013936207,221.02046453996445 90.6746833602665,221.83240918004594 90.18754687148612,222.48196239258687 90.48910755501129,222.90417078930477 89.0276980890194,223.78106215222215 88.86531925934833,225.82712625240674 86.70800052396953,227.93812166289717 85.01462130143773,228.00307499575138 83.34443905449007,226.93134216341423 81.72065075894352,226.73648099855927 81.65105983207468,222.90417078930477 82.64852978498675,219.59143354131083 83.69239368929993,219.20169594806794 83.71559066500049,218.22734846532694 88.47097067337018,218.51965323511104" stroke="#4DD2FF" stroke-linecap="round" stroke-linejoin="round" stroke-width="0.5"><title>2025-05-20 5.0km</title><desc>1747754393000</desc></polyline><polyline fill="none" points="124.15341701544821,231.67714654104202 126.3960948396707,231.95336911521736 127.33333333337214,230.96685895466362 121.77684797777329,222.60114477245952 117.89400278951507,223.54821645605261 114.88145048834849,225.32396918704035 113.00697350071277,225.40289132855833 108.45467224554159,227.13917408997077 104.80613668065052,227.65216513091582 105.10739191086031,231.00631941264146 103.33333333337214,233.29501862105099 104.80613668065052,234.59720309413387 105.34170153422747,236.4123615170829 106.14504881459288,237.20155799385975 107.65132496529259,237.43831660150317 115.18270571832545,234.99180352527765 119.66806136688683,234.3604426292004 123.55090655526146,231.79552767018322 126.3960948396707,231.87444840138778 127.26638772676233,231.1247007609345 121.91073919122573,222.64060614199843 120.43793584383093,222.68006750725908 115.0153417015681,225.24504702840932 112.53835425386205,225.52127450858825 109.42538354254793,226.94186964989058 104.53835425397847,227.84946918391506 105.24128312431276,230.45387260912685 103.33333333337214,233.25555841246387 104.73919107404072,234.43936280132039 105.17433751758654,236.09668244494242 106.1785216180142,237.16209821088705 107.65132496529259,237.3593970829388 115.81868898193352,234.67612321479828 120.20362622046378,234.12368200937635 123.38354253827129,231.87444840138778 126.4295676429756,231.87444840138778 127.26638772676233,231.04577986639924 121.91073919122573,222.68006750725908 120.7391910739243,222.56168339849683 117.72663877275772,223.54821645605261 115.11576011159923,225.24504702840932 112.97350069729146,225.32396918704035 108.95676429581363,227.02079143881565 104.97350069740787,227.7310867649212 105.17433751758654,230.8484775548277 103.40027894009836,233.17663798225112 104.73919107404072,234.5182829563273 105.67642956774216,236.84641979221487 107.78521617862862,237.31993731705006 114.5801952581387,235.03126354466076" stroke="#4DD2FF" stroke-linecap="round" stroke-linejoin="round" stroke-width="0.5"><title>2025-05-14 5.0km</title><desc>1747227249000</desc></polyline><polyline fill="none" points="142.49903199984692,241.73975474055624 142.98790590983117,241.2936190868204 143.697561585519,238.65395927184727 145.82652861252427,238.98856629682996 146.97774781973567,234.3783673142898 146.75696605397388,231.42256937912316 144.53337827016367,225.8640433947876 144.6279990269686,224.6184625709866 146.1734713873593,223.7818733312015 148.4759098017821,223.39146361548046 149.9583016576944,222.36895774550794 151.172601369326,222.48050413820602 151.62993502704194,221.9971359098563 149.18556547746994,218.09295771263714 148.57053055852884,218.0 146.88312706304714,218.61351996753365 145.82652861252427,219.3385861756251 144.91186129720882,219.3571775763703 143.0509864143096,220.1008319437824 141.1428011529497,220.37970149594184 141.26896216202294,221.82981581942295 140.37006497289985,222.9638709971041 140.5277662340668,223.37287265430496 141.0639505223371,223.726100569329 141.60013481072383,224.9716879073967 142.27825023408514,225.04605104292568 148.3339786666329,223.22414489241783 149.01209409011062,222.62923254826455 149.26441610814072,221.82981581942295 148.96478371164994,220.78870934784936 147.9081852612435,219.6546397122729 146.61503491882468,219.24562914167473 145.47958583774744,219.5616828505299 143.96565372962505,221.27208099971176 141.80514645035146,221.64390441543947 140.55930648633512,222.75936980078404 140.59084673860343,223.37287265430496 142.27825023408514,224.6742350411805 144.20220562146278,224.46973589484696 148.28666828828864,223.22414489241783 149.16979535133578,222.40613988450787 149.21710572973825,221.51376631211315 148.57053055852884,220.3425189153204 147.0408283242723,219.3014033681102 144.91186129720882,219.37576897504914 142.90905527916038,220.17519720227574 141.11126090073958,220.52843173734436 141.2531920358888,221.9041803243017 140.3858350989176,223.0382350077416 141.07972064852947,223.726100569329 141.4266634232481,224.73000749306811 142.23093985568266,225.06464182178024 143.17714742326643,224.58128091414983 144.92763142328477,224.283827367326 144.51760814408772,225.04605104292568 144.56491852237377,225.6409549604723 146.55195441434626,230.62319384657894 147.02505819813814,232.92835963031393 146.85158681077883,235.51233909724397 146.0630805044202,238.46806619677227 144.02873423410347,238.17063685540052 143.2244578016689,240.884660379641 142.60942288278602,241.14490694299457 142.35710086475592,242.0 142.02592821611324,241.86987741990015" stroke="#4DD2FF" stroke-linecap="round" stroke-linejoin="round" stroke-width="0.5"><title>2025-05-06 7.1km</title><desc>1746539597000</desc></polyline><polyline fill="none" points="173.83719432388898,242.0 173.67458097083727,241.80831967691483 174.4388637301745,239.25895152606245 176.37396263121627,239.71899061497243 176.7154506726656,239.1247732319316 177.72365346143488,234.88852019769547 177.69113079080125,232.77993994964345 174.81287444214104,224.8054443464207 174.0323303475161,224.63291520687926 172.92655954690417,225.16967197447957 172.2435834641219,225.0354829360731 170.95893797517056,223.0418051668821 171.83705008157995,222.0832981977146 171.6256527226069,220.54967618494993 172.76394619385246,220.49216509937833 176.5690986549016,219.4186213849316 177.80496013793163,218.65180043524015 179.8376270508743,218.03834126892616 182.45570203481475,222.04495781027072 182.13047532871133,222.5625523350609 180.69947782205418,222.4283613081643 179.17091230343794,223.54022672718565 176.8455413550837,223.88528698022128 175.47958918951917,224.5370656117302 173.73962631210452,224.76710455230204 172.6826395172975,225.20801168087928 171.99966343457345,224.92046367884905 171.6093913873192,223.84694698550447 170.99146064574597,223.3868663974572 170.99146064574597,223.02263507868338 171.83705008157995,221.89159617719997 171.6093913873192,220.56884654260648 173.39813827065518,220.33880211265932 176.52031464898027,219.34193944037543 179.47987767419545,218.0 179.93519506271696,218.15336502558785 182.43944069946883,222.04495781027072 182.19552066992037,222.52421205212886 180.81330716906814,222.4283613081643 178.8131629267009,223.67441690598207 177.1870293963584,223.78943697777868 172.76394619385246,225.16967197447957 172.0809701110702,224.97797331688344 171.6419140578946,223.84694698550447 170.99146064574597,223.34852629419765 171.82078874623403,221.92993659796775 171.6256527226069,220.54967618494993 173.33309292950435,220.33880211265932 176.3902239665622,219.39945090196852 177.47973343188642,218.72848268062808 179.51240034477087,218.0 179.88641105679562,218.15336502558785 182.42317936418112,222.02578761347104 182.17925933463266,222.50504190742504 180.69947782205418,222.40919115312863 179.12212829757482,223.55939675901027 176.82928001973778,223.88528698022128 175.18688515404938,224.59457537510025 173.83719432388898,224.70959484533523 172.79646886442788,225.18884182872716 172.03218610514887,224.90129379536666 171.6256527226069,223.84694698550447 170.97519931040006,223.36769634687516 170.95893797517056,223.0418051668821 171.6093913873192,222.40919115312863 170.84510862798197,223.11848549882416 171.56060738139786,223.9619669445674 171.88583408750128,224.84378413225932 172.58507150551304,225.26552122498106 176.63414399605244,224.00030691418215 179.05708295630757,223.71275693828647 180.61817114549922,222.52421205212886 182.06542998744408,222.52421205212886 182.48822470539017,222.0832981977146 179.77258170972345,218.0 177.70739212608896,218.61345930006064 176.4227466371376,219.43779186584288 175.26819183060434,219.51447376866417 173.49570628249785,220.24295017808618 171.39799402828794,220.66469829964626 171.7557434050832,221.89159617719997 170.92641530453693,222.9076145055442 170.8938926339033,223.40603644600196 171.54434604605194,223.9044569744001 171.83705008157995,224.8054443464207 172.45498082315316,225.18884182872716 174.81287444214104,224.7862744504091 177.34964274946833,231.3805954730051 177.64234678487992,232.87578505456622 177.70739212608896,234.8118449950416 176.5528373195557,239.5464760975592 174.34129571833182,239.27811984541768 173.85345565911848,241.59747108038573 173.59327429434052,241.80831967691483" stroke="#4DD2FF" stroke-linecap="round" stroke-linejoin="round" stroke-width="0.5"><title>2025-04-29 10.1km</title><desc>1745929124000</desc></polyline><polyline fill="none" points="34.411451589665376,254.37744332204602 34.00748093792936,254.0355718855135 34.235361818398815,252.77796441492683 33.66565961728338,254.65826550780912 33.23061430006055,254.71931371599203 31.935836570221,259.79840819373203 31.790821464557666,259.83503544325504 25.19263415329624,258.528656146671 16.78175802039914,254.7437329899476 11.33333333331393,253.5838116024097 16.74032513302518,254.75594262493541 23.37994533154415,257.86935614245886 25.26514170615701,258.5774930297557 35.33333333331393,260.55536891840893 31.88404546107631,259.8106172782209 32.10156811965862,258.9193506159136 32.712703208089806,258.7728403495057 34.100704934448004,252.93669234938716 34.37001870229142,252.8390136470989 34.00748093792936,253.79137736395205" stroke="#4DD2FF" stroke-linecap="round" stroke-linejoin="round" stroke-width="0.5"><title>2025-04-22 6.3km</title><desc>1745328842000</desc></polyline><polyline fill="none" points="50.518141275970265,267.961406219998 50.917017693049274,267.7850906761887 51.74801022862084,265.06197310748394 53.87535111961188,265.37542758921336 54.988881117256824,261.3200680456939 54.8060627594823,257.22543350922933 52.49590351060033,251.56332115572877 52.446043958480004,250.583698851784 53.692532761837356,249.56488599439035 56.31846917414805,249.13384804781526 58.21313215524424,247.89950639384915 59.45962095860159,248.01706310690497 59.97483633062802,247.56642862287117 58.86130633292487,245.82265845729853 57.365519768965896,246.58678454400797 56.16889051772887,245.1956807812967 54.889162013016175,244.66666666667152 52.49590351060033,244.8625980017532 50.86715814092895,245.58754208497703 48.67333784705261,245.95980953247636 49.00573486124631,247.33131453070382 48.041783520020545,248.72240177131607 48.75643710064469,249.32977451523766 49.12207381631015,250.34858870474272 49.869967098289635,250.74043877907388 52.595622614899185,250.09388569853036 54.17450843239203,249.4081450424419 56.25198977126274,249.13384804781526 57.9638343945262,247.97787754448655 59.45962095860159,247.99747032683808 59.95821647986304,247.52724296219822 58.87792618368985,245.82265845729853 57.38213961967267,246.54759866985842 56.16889051772887,245.17608769371873 54.988881117256824,244.68625980979414 52.412804257066455,244.8625980017532 50.90039784240071,245.5679490400944 49.0888341148966,245.84225147443067 48.83953635423677,246.03818152850727 48.97249515989097,247.3900930825621 48.041783520020545,248.6244382333971 48.72319739917293,249.32977451523766 49.07221426413162,250.36818122871045 49.78686784475576,250.77962373949413 54.207748133921996,249.38855241388956 56.18551036849385,249.17303335839824 57.980454245291185,247.97787754448655 59.52610036137048,247.97787754448655 59.94159662927268,247.4880572930124 58.844686482218094,245.7834724166023 57.29904036608059,246.5280057295313 56.1522706670803,245.17608769371873 55.1384597736178,244.74503922631266 52.91139977844432,244.7646323608642 50.73419933527475,245.58754208497703 49.05559441342484,245.84225147443067 48.82291650347179,246.01858853270824 48.93925545847742,247.56642862287117 48.02516366937198,248.68321636255132 48.773056951293256,249.36895978316898 49.105453965545166,250.36818122871045 49.653909039043356,250.72084629566234 56.33508902491303,248.8791433209699 57.14946170966141,248.21299079123128 57.43199917173479,247.21375736937625 57.19932126189815,246.46922689583153 56.384948577033356,245.46998378359422 55.105220072262455,244.70585295080673 52.89477992767934,244.78422549333482 50.667719932389446,245.64632120690658 48.80629665276501,245.95980953247636 49.00573486124631,247.29212881879357 48.041783520020545,248.64403094523004 48.85615620488534,249.6432564191491 48.54037904139841,250.25062605270068 49.37137157691177,251.95516858303745 50.019545754708815,254.81562893536466 50.302083216782194,258.02869452463347 50.23560381389689,260.1445844173286 48.606858444283716,268.11813100265863 49.78686784475576,268.6666666666715" stroke="#4DD2FF" stroke-linecap="round" stroke-linejoin="round" stroke-width="0.5"><title>2025-04-15 8.8km</title><desc>1744723077000</desc></polyline><polyline fill="none" points="96.50894487049663,254.10271162862773 95.812340270204,254.05623307534552 96.32493610813981,252.5534183344571 95.720335889142,255.06326499661373 95.86491420236416,255.45058306798455 95.06316173792584,258.11530281210435 94.2876962395967,258.1307952227944 94.30083972256398,258.78147494875884 93.40708287712187,261.67851284178323 84.69295363279525,259.9433956280991 74.70390653522918,255.3111486837879 72.66666666668607,254.7224242213997 74.84848484856775,255.41959766107902 84.67981014971156,259.95888783974806 93.43336984311463,261.6630208174465 93.72252646961715,260.50111418333836 94.3797006207169,260.42365340363176 94.94487039069645,258.78147494875884 96.66666666668607,251.6548204915598 96.20664476096863,254.21116152731702" stroke="#4DD2FF" stroke-linecap="round" stroke-linejoin="round" stroke-width="0.5"><title>2025-04-11 5.1km</title><desc>1744377642000</desc></polyline><polyline fill="none" points="110.23936150368536,268.6666666666715 111.05108384398045,267.7684332529316 111.26643875055015,268.4323453403922 112.07816109096166,267.7684332529316 112.989278003457,265.01512453214673 115.1262613076251,265.50330292129365 115.50727383478079,265.36661310633644 116.50121955759823,261.09012197176344 116.56748260586755,258.7467958918278 116.15333855466451,256.65730430191616 113.76786881976295,251.4627617225051 113.70160577161005,250.58397083404998 114.86120911495527,249.60753146003117 117.52829680452123,249.1778964502446 119.38366215390852,247.90851426853624 120.59296278341208,248.02568838499428 121.20589597924845,247.51793332691886 119.89720077737002,245.46736941899871 118.52224252739688,246.2680685939995 116.8987978468067,244.901019062032 115.44101078656968,244.82290163096332 114.66241997032193,245.19395912524487 113.08867257577367,246.91253118540044 110.83572893735254,247.24452616139024 109.52703373559052,248.3772102748335 109.46077068737941,248.74826041063352 110.13996693136869,249.31459861050826 110.4215848861495,250.2324532721541 111.16704417829169,250.66208575411292 117.71052018716,248.82637613077532 118.60507133777719,247.96710133632587 118.70446590991924,247.01017683040118 117.72708594915457,245.48689870969974 116.15333855466451,244.66666666667152 114.03292101249099,244.78384290265967 111.962200756534,245.5845451314235 110.17309845541604,245.89701332352706 110.32219031389104,247.26405525850714 109.46077068737941,248.31862334108155 109.46077068737941,248.6896735981427 110.13996693136869,249.256011983176 110.85229469940532,250.6425570272404 111.58118822943652,250.66208575411292 112.5585681903176,250.15433816482255 113.45311934093479,250.2324532721541 116.07050974434242,257.1650334704609 116.385259223287,258.98112987833156 116.28586465097032,260.855790742251 115.35818197630579,264.819852804314 113.2211986721959,264.4878903787321 112.37634480779525,267.0654648334312" stroke="#4DD2FF" stroke-linecap="round" stroke-linejoin="round" stroke-width="0.5"><title>2025-04-08 5.6km</title><desc>1744119870000</desc></polyline><polyline fill="none" points="142.6119209250901,266.6424834148929 143.26168951479485,265.69420896949305 143.75675129739102,263.57880815988756 145.8143518314464,263.9617706326826 146.91277016169624,259.73089850372344 146.95918220380554,258.01663539285073 146.66523927036906,256.3388289671275 144.56122669420438,251.1229320293205 144.56122669420438,250.1198562929203 145.72152774728602,249.26267771871062 148.15042461833218,248.89791954722023 149.75937541184248,247.8036402634898 151.1517366754124,247.8036402634898 151.52303301246138,247.32945035220473 150.30084923660615,245.3962006566726 148.80019320803694,245.97982555929048 147.37689058290562,244.79433534447162 145.08722983824555,244.73962020879844 142.96774658135837,245.5238687780511 141.20408898073947,245.85215778576094 141.29691306495806,247.32945035220473 140.47696698753862,248.3143048195343 141.08032353507588,249.00734708215168 141.43614919134416,250.02866729156813 142.3953313952079,250.3569474639953 143.24621883407235,249.90100260617328 144.68499213986797,249.73686215333873 146.0928240842186,249.11677454551682 148.24324870260898,248.80672988016158 149.86767017678358,247.73068805690855 149.6201392854564,248.22311483453086 150.02237698383396,247.6212596873811 151.2136193983024,247.7124500003265 151.4766209703521,247.25649793889897 150.51743876648834,245.7062516396254 149.15601886430522,246.41754290073004 148.07307121471968,245.15910245873965 146.92824084241875,244.66666666667152 144.97893507330446,244.7213818262535 143.07604134629946,245.4873921818944 141.25050102284877,245.77920472856204 141.23503034212627,247.4024027337 140.5233790295897,248.13192479983263 140.47696698753862,248.49668464055867 141.09579421579838,249.04382291121874 141.26597170362948,249.8098134855827 142.10138846177142,250.33870969356212 143.19980679196306,249.88276478600164 144.62310941703618,249.73686215333873 145.9226465964457,249.15325035070418 147.16030105302343,248.9891091646423 147.29953717940953,250.02866729156813 150.47102672437904,256.46648874276434 147.23765445651952,257.5971853628871 147.05200628808234,260.46036684379214 146.26300157193327,263.5423354977538 145.8607638736139,263.8523528727528 144.74687486264156,268.6666666666715 140.47696698753862,267.5725165964104 141.12673557724338,264.7824015531369 141.34332510712557,264.6729843294597 140.97202877007658,266.4601233616995" stroke="#4DD2FF" stroke-linecap="round" stroke-linejoin="round" stroke-width="0.5"><title>2025-04-02 6.9km</title><desc>1743601029000</desc></polyline><polyline fill="none" points="172.89361222297885,268.6666666666715 173.46758918534033,268.14928698560107 174.26102792739403,265.30367254938756 176.91145095945103,265.9404572516796 178.0087598580867,260.90581759989436 177.67112635076046,257.18447302315326 175.0882300202502,251.29384748381563 175.07134834479075,250.7565174564661 175.5777986057219,250.0400749610708 176.4725273999502,249.6022476082726 179.34241221175762,249.08481392911926 180.67606456542853,248.01013929639885 181.19939650170272,247.93053351648268 181.21627817710396,247.21407993606408 180.54101116256788,245.84086938467226 180.00079755089246,245.88067273440538 179.47746561467648,245.2836215783318 179.03854205517564,245.3831302398612 178.0594048841158,244.78607745736372 177.0127410115674,244.70647027221275 175.93231378839118,245.0846040926117 174.48048970714444,246.87575365728117 172.2858719099313,247.19417840757524 170.6483493996784,248.5076746346167 171.62748657068005,250.3385930089862 172.74167714465875,250.79631973494543 176.60758080292726,249.50274124533462 179.10606875672238,249.1445178900467 181.01369807269657,247.831026242784 182.27982372499537,247.99023785462487 182.7187472844962,247.5126026027574 181.3513315799646,245.46273713007395 179.84886247263057,246.27870575412817 178.93725200300105,245.22391635538952 177.75553472765023,244.66666666667152 175.54403525503585,244.76617566432105 173.53511588677065,245.6020491044619 171.3911431155866,245.96027940770728 171.52619651856367,247.53250409649627 170.61458604887594,248.70668839049176 171.35737976490054,249.40323482827807 171.69501327216858,250.3982965600735 172.69103211857146,250.8162208708818 173.7208143157768,250.2987906307826 174.69995148677845,250.23908704724454 175.84790541155962,253.48295347946987 176.74263420584612,254.25908475996403 179.69692739431048,253.6421601648326 181.553911684372,257.542680611441 177.97499650728423,258.75660110331955 177.7892980783363,261.8013170107879 177.4179012203822,262.25901501454064 176.4725273999502,265.6220651779731 176.26994729565922,265.7812612841517 174.26102792739403,265.4230698501342 173.63640593894524,267.8109994788829" stroke="#4DD2FF" stroke-linecap="round" stroke-linejoin="round" stroke-width="0.5"><title>2025-03-25 6.1km</title><desc>1742909450000</desc></polyline></svg>