<?xml version="1.0" encoding="utf-8" ?>
<svg baseProfile="full" height="300mm" version="1.1" viewBox="0,0,200,300" width="200mm" xmlns="http://www.w3.org/2000/svg" xmlns:ev="http://www.w3.org/2001/xml-events" xmlns:xlink="http://www.w3.org/1999/xlink"><defs /><rect fill="#222222" height="300" width="200" x="0" y="0" /><text fill="#FFFFFF" style="font-size:12px; font-family:Arial; font-weight:bold;" x="10" y="20">Over 10km Runs</text><text fill="#FFFFFF" style="font-size:4px; font-family:Arial" x="10" y="280">Runner</text><text fill="#FFFFFF" style="font-size:9px; font-family:Arial" x="10" y="290">Elliont</text><text fill="#FFFFFF" style="font-size:4px; font-family:Arial" x="65" y="280">SPECIAL TRACKS</text><rect fill="yellow" height="2.6" width="2.6" x="65" y="283" /><text fill="#FFFFFF" style="font-size:3px; font-family:Arial" x="70" y="285.5">Over 20.0 km</text><rect fill="red" height="2.6" width="2.6" x="65" y="287" /><text fill="#FFFFFF" style="font-size:3px; font-family:Arial" x="70" y="289.5">Over 40.0 km</text><text fill="#FFFFFF" style="font-size:4px; font-family:Arial" x="120" y="280">STATISTICS</text><text fill="#FFFFFF" style="font-size:3px; font-family:Arial" x="120" y="285">Number: 3</text><text fill="#FFFFFF" style="font-size:3px; font-family:Arial" x="120" y="290">Weekly: 1.0</text><text fill="#FFFFFF" style="font-size:3px; font-family:Arial" x="141" y="285">Total: 30.2 km</text><text fill="#FFFFFF" style="font-size:3px; font-family:Arial" x="141" y="290">Avg: 10.1 km</text><text fill="#FFFFFF" style="font-size:3px; font-family:Arial" x="167" y="285">Min: 10.0 km</text><text fill="#FFFFFF" style="font-size:3px; font-family:Arial" x="167" y="290">Max: 10.1 km</text><polyline fill="none" points="87.75056947604753,108.81112482996832 73.93280182231683,106.08053272144753 58.7209567198297,99.07266467891168 55.4612756264396,98.03354816080537 30.859908883809112,93.27288235514425 26.370159453246742,93.12788585448288 21.90091116167605,93.51454297895543 19.76879271073267,93.12788585448288 18.005694760824554,92.13707389716001 16.71412300679367,90.90459431133058 15.238041002303362,88.10128191245894 14.5,85.66043795752921 23.541002277866937,78.16857096829335 29.814350797212683,71.47401123458985 35.554669703939,66.44691658232477 39.88041002280079,63.957495797920274 43.263097949908115,61.46804707076808 45.661731207277626,61.226351531382534 46.522779043298215,60.69462041754741 49.14692482922692,57.673396706508356 51.19703872432001,53.12939874037693 53.20615034166258,51.3166076123598 62.80068337137345,46.04734392519458 74.03530751704238,41.18887517001713 74.21981776761822,42.76003342906188 75.85990888380911,43.896094773270306 77.56150341685861,46.9416773183475 78.60706150333863,49.86636404009187 81.1902050114004,55.208047662090394 87.91457858774811,67.80037635126791 88.81662870163564,70.50727111182641 91.48177676543128,76.09013722665259 93.28587699320633,82.30121275948477 93.40888382692356,86.16794237741851 93.1628701594891,87.56961521992343 93.7984054669505,88.0287819839723 93.20387243723962,91.6779156360717 95.5,92.54789890424581 95.41799544414971,93.73203731537797" stroke="#4DD2FF" stroke-linecap="round" stroke-linejoin="round" stroke-width="0.5"><title>2025-07-28 10.0km</title><desc>1753704756000</desc></polyline><polyline fill="none" points="178.08204019337427,109.03173732453433 164.2969982192153,106.2872526079882 148.63686084968504,99.12228819460142 145.95815314166248,98.27219239463739 120.51042991608847,93.36586188116053 111.69129992369562,93.657330076152 109.77499364025425,93.29299477291352 107.98232002032455,92.24856360437116 106.23085728823207,90.40258027261007 104.7060544390697,86.97775492926303 104.5,85.73897536093136 113.50457898748573,78.2818627385277 119.45955227687955,71.82044946477981 125.3321037904825,66.69490949741157 132.5027982702013,61.90934636819293 133.75973034847993,61.302034056265256 135.67603663203772,61.20486393281317 137.0359959298512,60.35462354568881 139.2613838717807,57.706711276681744 141.26011193089653,53.16388942874619 143.3824726534076,51.19611432746751 153.80882727052085,45.511333108195686 164.46184177068062,40.96826267548022 164.4824472144246,42.717477228929056 166.13088272709865,43.810729352830094 167.2229712541448,45.8271580911387 169.46896464005113,50.97747157712001 176.39239379297942,63.99848808537354 178.20567285688594,68.34675515284471 178.70020351058338,68.80829807464033 181.81162554060575,76.77583578057238 182.5122106334893,77.7717579727614 183.62490460439585,81.92543426794873 183.83095904358197,84.6702188305062 183.501271941117,88.848056139861 182.49160518951248,92.75863525133173 185.5,93.43872896561516" stroke="#4DD2FF" stroke-linecap="round" stroke-linejoin="round" stroke-width="0.5"><title>2025-07-17 10.0km</title><desc>1752756134000</desc></polyline><polyline fill="none" points="45.450530843110755,265.5 44.90171077637933,264.85307890956756 47.48116508917883,256.2489614004735 54.01212388044223,257.8015933255083 55.164646020159125,255.79610965773463 58.56733043235727,241.49875566724222 58.45756641891785,234.38229733001208 48.74345124210231,207.4683746691444 46.109114922815934,206.88608882320113 42.3771384707652,208.6976429138449 40.072094191331416,208.2447549092467 35.736415666062385,201.51609243825078 38.70004402520135,198.2811314172577 37.98657793877646,193.10515712416964 41.82831840426661,192.91105721035274 54.67070796014741,189.28784717415692 58.84174046549015,186.6998264689464 65.70199129660614,184.62940178264398 74.53799436730333,198.1517326096655 73.44035423430614,199.8986141307978 68.61073764925823,199.4457194150309 63.45182902412489,203.1982652042061 55.6037020732183,204.36284355825046 50.99361351458356,206.56259643961675 45.121238803258166,207.33897786401212 41.5539083709009,208.827039422933 39.24886409169994,207.85656491614645 37.931695932056755,204.23344607610488 35.84617967926897,202.68067409138894 35.84617967926897,201.45139339054003 38.70004402520135,197.63413709803717 37.931695932056755,193.16985708131688 43.96871666330844,192.39345713017974 54.506061940221116,189.0290456112707 64.49458715040237,184.5 66.03128333645873,185.01760696136625 74.48311236058362,198.1517326096655 73.65988226095214,199.7692156758858 68.9949116955977,199.4457194150309 62.24442487768829,203.65115705766948 56.756224212702364,204.03934979997575 41.82831840426661,208.6976429138449 39.523274124832824,208.05065994447796 38.04145994526334,204.23344607610488 35.84617967926897,202.55127624288434 38.64516201848164,197.7635360181448 37.98657793877646,193.10515712416964 43.7491886371281,192.39345713017974 54.06700588716194,189.22314679413103 57.74410033249296,186.95862904709065 64.60435116360895,184.5 65.86663731653243,185.01760696136625 74.42823035409674,198.0870331954211 73.60500025446527,199.70451643754495 68.61073764925823,199.38102014176548 63.287183004198596,203.262964061636 55.54882006649859,204.36284355825046 50.00573739479296,206.75669189094333 45.450530843110755,207.1448826029664 41.9380824174732,208.76234117196873 39.35862810490653,207.79186655936064 37.98657793877646,204.23344607610488 35.79129767254926,202.6159751706873 35.736415666062385,201.51609243825078 37.931695932056755,199.38102014176548 35.35224161949009,201.77488855854608 37.76704991213046,204.62163843790768 38.864690045127645,207.597771446337 41.22461633104831,209.0211341343238 54.89023598656058,204.7510358353611 63.06765497755259,203.78055466670776 68.33632761589251,199.7692156758858 73.22082620766014,199.7692156758858 74.64775838050991,198.2811314172577 65.48246327019297,184.5 58.51244842563756,186.57042513770284 54.17676990036853,189.3525475471979 50.28014742815867,189.61134896922158 44.29800870339386,192.0699568510172 37.21822984539904,193.49335676128976 38.42563399206847,197.63413709803717 35.6266516528558,201.06319895619527 35.51688763941638,202.74537300528027 37.71216790541075,204.42754228861304 38.70004402520135,207.4683746691444 40.785560277989134,208.76234117196873 48.74345124210231,207.40367627009982 57.30504427943379,229.6595097213867 58.292920398991555,234.70577455911553 58.51244842563756,241.23997685825452 54.6158259534277,257.2193568292423 47.15187304932624,256.3136544782901 45.50541284959763,264.1414648962673 44.62730074324645,264.85307890956756" stroke="#4DD2FF" stroke-linecap="round" stroke-linejoin="round" stroke-width="0.5"><title>2025-04-29 10.1km</title><desc>1745929124000</desc></polyline></svg>