<?xml version="1.0" encoding="utf-8" ?>
<svg baseProfile="full" height="300mm" version="1.1" viewBox="0,0,200,300" width="200mm" xmlns="http://www.w3.org/2000/svg" xmlns:ev="http://www.w3.org/2001/xml-events" xmlns:xlink="http://www.w3.org/1999/xlink"><defs /><rect fill="#222222" height="300" width="200" x="0" y="0" /><text fill="#FFFFFF" style="font-size:12px; font-family:Arial; font-weight:bold;" x="10" y="20">Over 5km Runs</text><text fill="#FFFFFF" style="font-size:4px; font-family:Arial" x="10" y="280">Runner</text><text fill="#FFFFFF" style="font-size:9px; font-family:Arial" x="10" y="290">Elliont</text><text fill="#FFFFFF" style="font-size:4px; font-family:Arial" x="65" y="280">SPECIAL TRACKS</text><rect fill="yellow" height="2.6" width="2.6" x="65" y="283" /><text fill="#FFFFFF" style="font-size:3px; font-family:Arial" x="70" y="285.5">Over 20.0 km</text><rect fill="red" height="2.6" width="2.6" x="65" y="287" /><text fill="#FFFFFF" style="font-size:3px; font-family:Arial" x="70" y="289.5">Over 40.0 km</text><text fill="#FFFFFF" style="font-size:4px; font-family:Arial" x="120" y="280">STATISTICS</text><text fill="#FFFFFF" style="font-size:3px; font-family:Arial" x="120" y="285">Number: 29</text><text fill="#FFFFFF" style="font-size:3px; font-family:Arial" x="120" y="290">Weekly: 1.7</text><text fill="#FFFFFF" style="font-size:3px; font-family:Arial" x="141" y="285">Total: 188.1 km</text><text fill="#FFFFFF" style="font-size:3px; font-family:Arial" x="141" y="290">Avg: 6.5 km</text><text fill="#FFFFFF" style="font-size:3px; font-family:Arial" x="167" y="285">Min: 5.0 km</text><text fill="#FFFFFF" style="font-size:3px; font-family:Arial" x="167" y="290">Max: 10.1 km</text><polyline fill="none" points="40.987047811824596,61.55626108053548 35.593878067302285,60.474237947863 29.479433341737604,57.65318700719217 28.315557804191485,57.26673468615627 18.242296989628812,55.29580165910011 17.340703263354953,55.237832377701125 14.521173792047193,55.402078576655185 13.906450796872377,55.25715547573054 13.045838603604352,54.764415161305806 12.447508221579483,54.08810046887811 11.88196306602913,52.76444107601856 11.799999999988358,52.262025039541186 15.381785985344322,49.324766637750145 17.857070579309948,46.65796093567042 20.193017961049918,44.61915320776461 23.13549203137518,42.69625367469416 23.463344295480056,42.541646875892184 24.291171262331773,42.51265807109303 24.610827219847124,42.30007321306039 25.512420946120983,41.304782780127425 26.438603592221625,39.31416839535814 27.27462686569197,38.52177547559404 31.02033898307127,36.50210783219518 35.65125221351627,34.443738919457246 35.65125221351627,35.14919468120934 36.470882873778464,35.68069873866625 36.71677207184257,35.989935996578424 36.847912977507804,36.49244424002973 39.7412092082086,41.642989520260016 40.9296736655524,44.25196958336164 41.67553756642155,45.2858774807828 41.68373387301108,45.58541863808205 42.01978244376369,46.09753504710534 42.62630913234898,47.865763308836904 43.09349860865041,48.69672178959445 43.4869213255588,50.416587863714085 43.61806223122403,52.15574435942108 43.24922843411332,54.648475865971704 43.347584113362245,54.793399961446994 44.19999999998254,55.054262736593955 44.10164432079182,55.82718497347378" stroke="#4DD2FF" stroke-linecap="round" stroke-linejoin="round" stroke-width="0.5"><title>2025-08-08 10.0km</title><desc>1754654808000</desc></polyline><polyline fill="none" points="80.20000000001164,52.53608207771322 71.55573122529313,50.7700001620251 61.64363636361668,46.19619623971812 51.41138339921599,43.99226323430776 47.79999999998836,43.463917922301334 61.41312252962962,46.19619623971812 71.81185770750744,50.92094821378123 79.98229249008,52.49079820710176" stroke="#4DD2FF" stroke-linecap="round" stroke-linejoin="round" stroke-width="0.5"><title>2025-08-07 5.0km</title><desc>1754573743000</desc></polyline><polyline fill="none" points="116.20000000001164,52.552230499946745 107.63477576716105,50.83955599956971 97.84594807238318,46.347440279394505 96.59685287176399,45.971838692668825 83.79999999998836,43.44776950006781 87.20314712822437,44.168936839472735 87.4835562549415,44.04874254472088 88.2355625492055,44.36425234503986 97.14492525567766,46.182175707261194 107.74948859162396,50.959744377527386 115.62643587723142,52.53720713182702" stroke="#4DD2FF" stroke-linecap="round" stroke-linejoin="round" stroke-width="0.5"><title>2025-08-04 5.0km</title><desc>1754309955000</desc></polyline><polyline fill="none" points="152.20000000001164,51.77042346964299 145.72393084620126,50.473111536543 138.25532302091597,47.04442525465129 137.13503184716683,46.67374984667549 125.28353048226563,44.333831515410566 123.20018198364414,44.229576530364284 120.66478616930544,44.42650252742169 119.79999999998836,44.24116042262176 119.98671519570053,44.38016703152243 121.17579617834417,44.461254136127536 124.60545950866072,44.27591209189268 129.3126478617196,45.202619082941965 130.069335759792,45.21420286924695 131.3763421291951,45.60805085233733 137.0072793448344,46.68533347274206 138.56979071884416,47.241346039634664 145.60600545955822,50.46152832303778 151.5317561419797,51.65459269036364" stroke="#4DD2FF" stroke-linecap="round" stroke-linejoin="round" stroke-width="0.5"><title>2025-08-03 6.5km</title><desc>1754227262000</desc></polyline><polyline fill="none" points="184.44720349065028,51.79483058828919 175.84918683063006,50.083038161392324 165.0149147163611,45.2656685388647 155.79999999998836,43.38715215037519 165.81174137245398,45.47775750492292 176.18333994445857,50.2193763833784 188.20000000001164,52.61284784961026 184.71709639031906,51.825127609670744 184.71709639031906,51.5978997884813" stroke="#4DD2FF" stroke-linecap="round" stroke-linejoin="round" stroke-width="0.5"><title>2025-08-01 5.0km</title><desc>1754057984000</desc></polyline><polyline fill="none" points="41.10022779041901,102.3244499319917 35.57312072892091,101.23221308858774 29.488382687908597,98.42906587157631 28.184510250546737,98.01341926433088 18.343963553517824,96.10915294206643 16.54806378131616,96.05115434180334 14.760364464687882,96.20581719158508 13.907517084269784,96.05115434180334 13.20227790431818,95.65482955887273 12.685649202700006,95.16183772453951 12.095216400892241,94.04051276499376 11.799999999988358,93.06417518301896 15.416400911140954,90.06742838732316 17.925740318896715,87.38960449384467 20.221867881540675,85.37876663293719 21.952164009097032,84.38299831917539 23.305239179957425,83.38721882831305 24.26469248291687,83.29054061255738 24.609111617319286,83.0778481670277 25.658769931673305,81.86935868261207 26.47881548971054,80.05175949615659 27.282460136688314,79.3266430449512 31.120273348526098,77.21893757008365 35.61412300678785,75.27555006801413 35.68792710703565,75.90401337163348 36.343963553517824,76.3584379093154 37.02460136672016,77.57667092734482 37.44282460134127,78.74654561604257 38.476082004548516,80.88321906484634 41.16583143506432,85.92015054051444 41.52665148061351,87.00290844473784 42.59271070614341,89.2360548906654 43.31435079724179,91.72048510379682 43.36355353074032,93.26717695097614 43.26514806377236,93.82784608797374 43.519362186751096,94.01151279359328 43.28154897489003,95.47116625442868 44.19999999998254,95.81915956170269 44.16719817763078,96.292814926157" stroke="#4DD2FF" stroke-linecap="round" stroke-linejoin="round" stroke-width="0.5"><title>2025-07-28 10.0km</title><desc>1753704756000</desc></polyline><polyline fill="none" points="77.01867203216534,92.77275033085607 68.41344064386794,91.05152801962686 58.55653923540376,86.53321956422587 56.95283702207962,85.99531606357777 47.79999999998836,84.16642882322776 57.95678068406414,86.34879573786748 66.44466800807277,90.34459134563804 68.64812877262011,91.17447316665493 80.20000000001164,93.43357117679261 77.14905432594242,92.74201440227625 77.30551307846326,91.74309307834483" stroke="#4DD2FF" stroke-linecap="round" stroke-linejoin="round" stroke-width="0.5"><title>2025-07-22 5.0km</title><desc>1753194638000</desc></polyline><polyline fill="none" points="102.22918149462203,90.51023195129528 112.96192170813447,92.63939075106464 116.19999999995343,92.8319189191534 113.37508896790678,92.67336633603554 95.68576512456639,89.20779949627467 87.97010676155332,85.70813931852172 83.79999999998836,84.76808108084515 87.92206405696925,85.73079121940827 95.15729537361767,89.07189256115817 98.135943060508,89.7061234055509" stroke="#4DD2FF" stroke-linecap="round" stroke-linejoin="round" stroke-width="0.5"><title>2025-07-19 6.4km</title><desc>1752877000000</desc></polyline><polyline fill="none" points="149.23281607733225,102.41269492981519 143.71879928768612,101.31490104319528 137.45474433986237,98.44891527784057 136.38326125667663,98.10887695785641 126.2041719664121,96.14634475246567 122.67651996944915,96.26293203046225 121.90999745609588,96.11719790916686 121.192928008124,95.69942544175137 120.49234291526955,94.96103210904403 119.8824217756046,93.59110197170958 119.79999999998836,93.09559014438128 123.40183159499429,90.11274509541545 125.78382091069943,87.52817978591338 128.13284151616972,85.47796379897045 131.00111930808634,83.56373854728008 131.50389213938615,83.32081362250756 132.27041465276852,83.28194557312236 132.81439837190555,82.9418494182828 133.70455354871228,81.88268451067415 134.5040447723295,80.0655557715072 135.35298906132812,79.27844573098992 139.52353090816177,77.00453324327827 143.78473670824314,75.18730507019063 143.7929788857582,75.88699089158035 144.45235309080454,76.3242917411335 144.88918850160553,77.13086323645985 145.78758585598553,79.19098863085674 148.55695751716848,84.39939523415524 149.28226914271363,86.13870206113643 149.48008140421007,86.32331922985759 150.72465021623066,89.51033431223186 151.00488425337244,89.90870318910311 151.4499618417467,91.57017370717949 151.53238361742115,92.66808753220539 151.40050877639442,94.33922245594295 150.99664207579917,95.90345410053123 152.19999999998254,96.17549158624752" stroke="#4DD2FF" stroke-linecap="round" stroke-linejoin="round" stroke-width="0.5"><title>2025-07-17 10.0km</title><desc>1752756134000</desc></polyline><polyline fill="none" points="188.19999999995343,93.37201448855922 179.61035163962515,91.65189670675318 168.7164757012506,86.80829243420158 155.79999999998836,84.22798551143205 169.29253259580582,87.04972220222407 179.36712761753006,91.63680785975885 187.80316080595367,93.3569258289208" stroke="#4DD2FF" stroke-linecap="round" stroke-linejoin="round" stroke-width="0.5"><title>2025-07-14 5.0km</title><desc>1752500928000</desc></polyline><polyline fill="none" points="44.20000000001164,134.13868621044094 35.61235340102576,132.4516542447236 26.73338545736624,128.33102870993025 24.630805316613987,127.56959521552199 11.799999999988358,125.0613137895707 25.46677091473248,127.7935466823401 35.764347146207,132.51137254483183 43.28803752933163,134.01925100189692" stroke="#4DD2FF" stroke-linecap="round" stroke-linejoin="round" stroke-width="0.5"><title>2025-06-21 5.0km</title><desc>1750468889000</desc></polyline><polyline fill="none" points="69.96763828318217,131.5897805948116 78.39297681886819,133.27265378578159 80.19999999998254,133.36906733006617 78.64581133803586,133.27265378578159 64.8737663529464,130.5817928242177 63.39394078491023,130.00328979354526 58.96933669951977,127.89960735629575 58.188524213881465,127.64540867148025 49.160844617843395,125.89229243011505 47.79999999998836,125.83093266993819 49.004682120721554,125.85722971576615 52.52205646081711,126.50588745874848 58.850355749367736,127.87331097783317 63.55753959142021,130.09970725409948 64.7622217121534,130.56426249045035 66.07101216429146,130.82721709617908" stroke="#4DD2FF" stroke-linecap="round" stroke-linejoin="round" stroke-width="0.5"><title>2025-06-17 8.1km</title><desc>1750165544000</desc></polyline><polyline fill="none" points="116.19999999995343,134.1190818750474 108.03109048720216,132.4946197256795 97.38143851503264,127.73926411751017 83.79999999998836,125.08091812494968 97.40649651968852,127.79833788095857 107.85568445472745,132.4798517987074 114.74663573078578,133.88279768083885" stroke="#4DD2FF" stroke-linecap="round" stroke-linejoin="round" stroke-width="0.5"><title>2025-06-15 5.0km</title><desc>1749939796000</desc></polyline><polyline fill="none" points="142.18833794421516,131.45715379578905 149.83498616723227,132.98503689665813 152.19999999998254,133.13132193580532 150.3383273036743,133.0175447079164 137.54105128749507,130.5306562553742 136.29304107255302,130.05927589906787 132.1215152159566,128.07619489211356 131.1906788678316,127.76734966463846 122.77867631410481,126.14182739874377 121.75820387317799,126.06867806419905 119.79999999998836,126.22310435305553 122.57871887634974,126.12557199727598 130.83213449668256,127.71858451188746 131.83192168545793,127.994919956167 134.21762077038875,129.1246336293989" stroke="#4DD2FF" stroke-linecap="round" stroke-linejoin="round" stroke-width="0.5"><title>2025-06-11 8.1km</title><desc>1749642919000</desc></polyline><polyline fill="none" points="188.19999999995343,134.1091344786546 179.78278402477736,132.48026316486357 169.20473051565932,127.75642600619176 155.79999999998836,125.0908655213425 169.35548662266228,127.81566009008384 179.8707250871812,132.5543031933339 186.80550601007417,133.94624822532933" stroke="#4DD2FF" stroke-linecap="round" stroke-linejoin="round" stroke-width="0.5"><title>2025-06-08 5.0km</title><desc>1749387304000</desc></polyline><polyline fill="none" points="24.352167831733823,179.1076168245345 27.841398601187393,177.02423904728494 35.18237762222998,175.68873581566731 38.898181818192825,172.91087744099787 42.93118881108239,173.01771843861206 44.01874125842005,172.1095692156814 36.85902097891085,160.46374183802982 32.01034965016879,161.42533439330873 27.38825174816884,164.14983639039565 24.805314685218036,164.14983639039565 20.68167832144536,166.0730051548162 13.929790209513158,167.46195568150142 14.156363636255264,171.84246618289035 11.800000000046566,174.780591540155 13.793846153654158,176.9708189878147 14.65482517471537,179.69523459713673 15.92363636358641,180.49653042448335 23.808391608064994,178.84051760428702 27.977342657279223,176.9708189878147 34.04951048921794,176.1695173981716 39.12475524446927,172.91087744099787 42.704615384340286,173.0711389288772 44.15468531451188,171.84246618289035 36.85902097891085,160.30347622878617 31.466573426267132,161.47875614656368 27.478881118586287,164.096414928179 23.853706293506548,164.47036504175048 19.41286713257432,166.44695376066375 14.065734265604988,167.35511347296415 14.201678321463987,172.1095692156814 11.800000000046566,174.780591540155 13.929790209513158,177.0776591009926 15.017342657083645,179.85549386718776 16.558041957905516,180.60336976926192 28.974265733966604,176.81055877465406 34.18545454507694,176.2229375448369 38.67160839145072,173.17797989177052 42.840559440199286,173.12455941326334 44.199999999953434,171.7890455587767 36.36055944045074,160.1432105670974 31.01342657301575,161.79928654426476 27.297622377518564,164.096414928179 14.292307691881433,167.08800784987397 14.24699300690554,171.84246618289035 11.845314685022458,174.67375092674047 13.884475524304435,176.9708189878147 14.65482517471537,179.53497527443687 16.965874125715345,180.65678943292005 35.273006992647424,175.1011132413114 37.53874125843868,172.0561486208171 36.85902097891085,169.01116508842097 33.868251748150215,165.27168575313408 31.330629370408133,163.9895719863125 29.155524475267157,163.88272902093013 26.66321678296663,164.89773625083035 22.63020979007706,169.7590575326758 16.19552447553724,170.82747333109728 12.343776223715395,173.8724455826159 12.207832167623565,175.15453350436292 14.38293706276454,177.77211926796008" stroke="#4DD2FF" stroke-linecap="round" stroke-linejoin="round" stroke-width="0.5"><title>2025-06-04 6.4km</title><desc>1749041988000</desc></polyline><polyline fill="none" points="80.19999999995343,174.93875112554815 71.89585110504413,173.28026415030763 62.435905389662366,168.91183110784914 61.003722372988705,168.43795874642092 47.79999999998836,165.8612488744402 61.38061264058342,168.58604403675417 71.70740597130498,173.2506481276214 78.60449786734534,174.6722099401668" stroke="#4DD2FF" stroke-linecap="round" stroke-linejoin="round" stroke-width="0.5"><title>2025-05-28 5.0km</title><desc>1748436903000</desc></polyline><polyline fill="none" points="116.20000000001164,174.92456418641086 107.20284810126759,173.0815510553075 96.78306962025817,168.3681601844437 83.79999999998836,165.86032924975734 96.36012658226537,168.2775164826453 97.92373417725321,168.77605610944738 107.95901898737065,173.36857930020778 116.0462025316665,174.93967075023102" stroke="#4DD2FF" stroke-linecap="round" stroke-linejoin="round" stroke-width="0.5"><title>2025-05-27 5.0km</title><desc>1748351986000</desc></polyline><polyline fill="none" points="143.79371806641575,177.08368262184376 143.83701650006697,175.14398837155022 144.8545296920929,172.84057387856592 145.52565541444346,168.56705454380426 145.48235698067583,168.96107127694995 144.50814222241752,169.08230701861612 139.7669637320796,172.44656576981652 137.97007873351686,172.87088215838594 137.25565457739867,171.68885540636256 138.0783248177031,170.3552772992989 139.59376999735832,169.17323377044522 139.35562861186918,167.14252520039736 140.07005276798736,165.83922236735816 139.11748722661287,165.2936508938874 135.6319633135572,165.35427002950746 134.72269620583393,164.02064425831486 135.0257852417417,162.44452813603857 135.69691096409224,162.65669843043725 135.6319633135572,161.62615462121903 136.62782728869934,162.23235758765077 138.4463615042623,162.17173738431302 139.89685903326608,163.14165814955777 141.86693776666652,163.20227802124282 142.66795879020356,162.8082484852639 144.638037523604,160.0500172045431 144.72463439090643,155.4427659226203 144.01021023490466,154.62436007535143 142.88445095869247,154.20000000001164 141.49890108022373,154.59404867512058 140.26489571970887,155.95805655424192 139.31233017821796,156.29147910574102 137.36390066170134,155.92774538205413 135.30722506076563,154.80622836806288 133.42374319478404,155.4427659226203 132.47117765329313,156.8977003195614 132.51447608706076,158.44355502886174 133.3371463273652,159.59535957562912 135.19897897657938,160.4743632725149 135.6319633135572,161.53522399745998 134.78764385636896,163.5053770681261 135.3938219283009,165.32396046434587 135.54536644613836,167.83963673521066 134.74434542260133,170.56743812395143 135.37217271130066,171.32515328133013 137.21235614374746,171.77978082097252 137.92678029974923,172.87088215838594 136.28143981914036,175.5379904841102 134.24641343508847,176.3562997655099 130.84748638956808,178.8415122010192 128.37947566853836,179.90226299580536 127.81659603037406,181.35699662024854 126.43104615190532,182.87233145003847 127.62175307876896,186.26663445973827 128.70421392121352,186.50908218759287 130.1330622334499,185.63020759649226 131.80005193094257,186.3272464228794 133.0124080745736,186.17571647636942 133.96497361606453,185.175615580898 134.6577485552989,182.66018535368494 136.30308903590776,181.75098492222605 140.07005276798736,182.9329445737967 141.49890108022373,182.23589239937428 143.7287704157643,182.11466565453156 143.85866571695078,175.386451313796 145.5689538482111,169.38539600995136 145.30916324595455,168.96107127694995 144.6596867403714,169.02168915818038 139.78861294896342,172.4768741169537 138.0350263840519,172.84057387856592 136.10824608430266,175.62891392421443 134.05157048348337,176.44722278580593 130.82583717268426,178.8415122010192 128.50937096960843,179.75072755664587 127.81659603037406,181.44791707542026 126.43104615190532,182.99355767673114 127.5135069944663,186.11510446149623 128.22793115058448,186.60000000000582 130.0031669322634,185.63020759649226 132.0381933163153,186.35755239658465 133.40209397790022,185.8120440763596" stroke="#4DD2FF" stroke-linecap="round" stroke-linejoin="round" stroke-width="0.5"><title>2025-05-23 6.4km</title><desc>1747958832000</desc></polyline><polyline fill="none" points="174.94369621016085,171.91309194079076 175.82054188963957,172.74610326241236 178.01265608868562,173.09684406181623 179.10871318809222,174.49980246096675 178.82686993398238,180.02387653024925 178.29449934279546,181.03222641107277 176.3842283980921,181.6021615460486 174.5052733704215,180.94454397028312 172.7515820109984,181.3391147180664 169.77656988392118,179.58546230166394 167.99156260758173,180.28692470761598 166.67629408824723,180.06771791195206 167.05208509368822,178.79631480088574 166.11260757991113,176.3411737089191 166.39445083402097,174.5874871059641 165.3923414859455,172.92147372201725 165.83076432568487,170.29090423107846 172.15657958562952,170.02784579743457 174.31737786752637,170.81702028855216 175.44475088408217,172.6145753388264 177.8560765029397,173.05300148807873 178.92081768531352,174.06137878586014 178.82686993398238,180.15540065265668 178.35713117709383,181.03222641107277 176.509492066456,181.55832042684779 174.72448479011655,180.98838519443234 172.68895017681643,181.2952735539002 169.7139380496228,179.6293037582218 165.92471207713243,180.4184486950544 163.8891774637159,182.08441336294345 164.54681172338314,182.56666427281743 165.04786639742088,185.19710781323374 168.11682627606206,186.60000000000582 169.43209479551297,185.67935286817374 170.3089404751081,183.88188941637054 170.18367680651136,182.47898235663888 168.55524911580142,179.89235234029184 170.18367680651136,179.6293037582218 172.72026609408204,181.2952735539002 174.72448479011655,180.72533773675968 174.4739574531559,180.06771791195206 172.43842283985578,180.11155928605876 171.34236574033275,178.70863159530563 172.3757910055574,174.5874871059641 169.68262213247363,170.46627637022175 169.87051763525233,167.1780287985166 170.59078372921795,165.77503033146786 172.03131591703277,164.94199635890254 174.75580070738215,165.81887414988887 176.97923082346097,165.24890392691304 174.4739574531559,167.7041512442811 171.87473633140326,167.5726207340922 170.3089404751081,166.38884310571302 167.89761485625058,165.86271796064102 167.96024669043254,160.5137176961871 169.02498787280638,158.2776271289622 169.08761970698833,154.94537754528574 169.745253966772,154.28769158832438 171.74947266292293,154.20000000001164 177.51160141464788,155.03306887876533 178.70160626550205,156.08536254038336 179.10871318809222,158.2776271289622 180.1108225362841,159.37375239307585 179.45318827650044,160.25064923000173 179.86029519932345,160.82063056556217 177.8873924202053,162.00443390550208 177.66818100016098,164.76662044075783 174.75580070738215,167.61646424492938 172.46973875688855,167.7041512442811 170.21499272366054,166.2573119206063 168.0228785246145,165.99424934806302 167.92893077339977,160.82063056556217 169.27551520976704,156.34843528078636 170.6847314806655,155.82228952988226 170.71604739769828,154.50692042818991 177.13581040897407,154.90153186740645" stroke="#4DD2FF" stroke-linecap="round" stroke-linejoin="round" stroke-width="0.5"><title>2025-05-20 5.0km</title><desc>1747754393000</desc></polyline><polyline fill="none" points="39.90711297094822,213.464147830382 42.934728033607826,213.8370483055478 44.200000000186265,212.50525958879734 36.698744770139456,201.21154544281308 31.456903765909374,202.49009221568122 27.389958159299567,204.8873584024841 24.85941422590986,204.99390329353628 18.713807531632483,207.3378850214649 13.788284518988803,208.0304229267349 14.194979079533368,212.5585312070325 11.800000000046566,215.64827513843193 13.788284518988803,217.40622417710256 14.511297071352601,219.85668804805027 15.595815899549052,220.92210329169757 17.6292887032032,221.24172741203802 27.796652719844133,217.93893475912046 33.851882845396176,217.0865975494089 39.09372384962626,213.62396235472988 42.934728033607826,213.73050534186768 44.1096234312281,212.71834602724994 36.87949790805578,201.2648182917037 34.891213389113545,201.31809113477357 27.570711297215894,204.78081348835258 24.226778242737055,205.15372058661887 20.024267782457173,207.07152402735665 13.42677824292332,208.29678339828388 14.375732217915356,211.8127280223125 11.800000000046566,215.59500385684078 13.69790795003064,217.19313978176797 14.285355648724362,219.43052130067372 15.641004184260964,220.86883258470334 17.6292887032032,221.13518606196158 28.655230125645176,217.51276633996167 34.574895397759974,216.76697071266244 38.86778242676519,213.73050534186768 42.97991631808691,213.73050534186768 44.1096234312281,212.61180281965062 36.87949790805578,201.31809113477357 35.29790794989094,201.15827258798527 31.230962343281135,202.49009221568122 27.70627615065314,204.78081348835258 24.814225941430777,204.8873584024841 19.3916317995172,207.17806844238658 14.014225941617042,208.1369671326538 14.285355648724362,212.34544469899265 11.89037656923756,215.48846127602155 13.69790795003064,217.2996819910477 14.963179916376248,220.442666719493 17.810041841119528,221.08191537801758 26.98326359852217,217.9922057852964" stroke="#4DD2FF" stroke-linecap="round" stroke-linejoin="round" stroke-width="0.5"><title>2025-05-14 5.0km</title><desc>1747227249000</desc></polyline><polyline fill="none" points="59.27369319985155,227.04866889973346 59.933672978309914,226.4463857671799 60.8917081404943,222.88284501698217 63.76581362693105,223.33456450070662 65.3199595566839,217.11079587426502 65.02190417295787,213.12046866180026 62.02006066485774,205.61645858293923 62.14779868652113,203.9349244708137 64.23418637306895,202.80552899709437 67.34247823245823,202.27847588087025 69.34370723797474,200.89809295641317 70.98301184864249,201.04868058656575 71.6004122865852,200.3961334782798 68.30051339464262,195.12549291203322 67.47021625400521,194.99999999998545 65.19222153513692,195.82825195614714 63.76581362693105,196.8070913370757 62.53101275127847,196.8321897280839 60.01883165934123,197.8361231240997 57.44278155663051,198.21259701950476 57.613098918809555,200.17025135620497 56.3995877134148,201.70122584608907 56.61248441610951,202.2533780833037 57.336333205224946,202.73023576858395 58.06018199457321,204.41177867497026 58.97563781612553,204.51216890793876 67.15087120002136,202.0525956047495 68.06632702169009,201.24946394014114 68.40696174604818,200.17025135620497 68.00245801080018,198.76475761958864 66.57605010271072,197.23376361155533 64.830297140521,196.6815993412456 63.29744088102598,197.1082718481921 61.25363253511023,199.4173093496065 58.33694770804141,199.91927096083236 56.65506375662517,201.42514923102863 56.69764309725724,202.2533780833037 58.97563781612553,204.0102173055784 61.57297758909408,203.73414345801575 67.08700218924787,202.0525956047495 68.27922372438479,200.94828884406888 68.34309273515828,199.7435845213331 67.47021625400521,198.16240053567162 65.40511823783163,196.7568945469393 62.53101275127847,196.8572881163127 59.82722462690435,197.93651622305333 57.40020221611485,198.41338284539233 57.591809248551726,200.27064343779057 56.42087738367263,201.8016172604257 57.35762287559919,202.73023576858395 57.82599562150426,204.08551011563395 58.911768805235624,204.53726645938877 60.18914902152028,203.8847292340797 62.5523024215363,203.48316694586538 61.99877099459991,204.51216890793876 62.06264000525698,205.31528919663106 64.74513845948968,212.04131169285392 65.3838285675738,215.15328550089907 65.14964219462126,218.64165778126335 64.08515868103132,222.631889365628 61.338791216141544,222.2303597547725 60.25301803229377,225.8942915124935 59.422720891889185,226.24562437302666 59.08208616753109,227.39999999999418 58.635003091883846,227.22433451685356" stroke="#4DD2FF" stroke-linecap="round" stroke-linejoin="round" stroke-width="0.5"><title>2025-05-06 7.1km</title><desc>1746539597000</desc></polyline><polyline fill="none" points="96.18021233729087,227.39999999999418 95.96068431064487,227.14123156382993 96.99246603576466,223.6995845601923 99.60484955227003,224.32063733020914 100.06585840811022,223.51844386309676 101.42693217296619,217.79950226689107 101.38302656763699,214.95291893200192 97.49738049693406,204.18734986765776 96.44364596926607,203.95443552928919 94.9508553884225,204.67905716552923 94.0288376766257,204.49790196369577 92.29456626658794,201.80643697528285 93.4800176101271,200.5124525669089 93.19463117560372,198.44206284967368 94.7313273617765,198.364422884144 99.86828318412881,196.91513886964822 101.53669618628919,195.87993058757274 104.28079651866574,195.05176071304595 107.81519774708431,200.46069304386037 107.3761416937923,201.15944565233076 105.44429505977314,200.97828776601818 103.38073160964996,202.47930608168826 100.24148082942702,202.94513742328854 98.39744540583342,203.82503857582924 96.04849552141968,204.13559114560485 94.62156334845349,204.7308157691732 93.69954563677311,204.34262596644112 93.17267837293912,202.89337843043904 92.33847187180072,202.27226963655266 92.33847187180072,201.78055735622183 93.4800176101271,200.25365483920905 93.17267837293912,198.46794283251802 95.58748666546308,198.15738285207772 99.80242477625143,196.81161824449373 103.79783486027736,194.99999999998545 104.41251333465334,195.2070427845465 107.7932449443033,200.46069304386037 107.46395290445071,201.10768627036305 105.59796467830893,200.97828776601818 102.89776995114516,202.66046282305615 100.7024896851508,202.81573991998448 94.7313273617765,204.67905716552923 93.8093096499797,204.42026397777954 93.2165839781519,202.89337843043904 92.33847187180072,202.22051049715083 93.4580648074625,200.3054144072521 93.19463117560372,198.44206284967368 95.49967545492109,198.15738285207772 99.62680235493463,196.8892587176524 101.0976401331136,195.98345161882753 103.84174046549015,194.99999999998545 104.34665492665954,195.2070427845465 107.7712921416387,200.43481327817426 107.4420001017861,201.0818065750209 105.44429505977314,200.9524080567062 103.31487320177257,202.50518562465732 100.219528026646,202.94513742328854 98.00229495798703,203.90267675637733 96.18021233729087,204.05795304119238 94.77523296698928,204.70493646878458 93.7434512419859,204.31674662373553 93.19463117560372,202.89337843043904 92.31651906913612,202.24639006826328 92.29456626658794,201.80643697528285 93.17267837293912,200.9524080567062 92.14089664781932,201.9099554234126 93.10681996494532,203.04865537515434 93.54587601812091,204.2391085785348 94.4898465325823,204.8084536537208 99.9560943946708,203.10041433414153 103.22706199111417,202.71222186667728 105.33453104645014,201.10768627036305 107.2883304831339,201.10768627036305 107.8591033522971,200.5124525669089 104.19298530824017,194.99999999998545 101.40497937030159,195.8281700550724 99.67070796026383,196.9410190188646 98.11205897142645,197.04453958770318 95.71920348145068,198.0279827404156 92.88729193829931,198.59734270452464 93.37025359692052,200.25365483920905 92.25066066114232,201.62527958248393 92.20675505581312,202.2981492021063 93.08486716228072,202.9710169154423 93.4800176101271,204.18734986765776 94.3142241112655,204.70493646878458 97.49738049693406,204.16147050804284 100.9220177117968,213.06380388855177 101.31716815964319,215.0823098236433 101.40497937030159,217.69599074330472 99.84633038146421,224.08774273170275 96.86074921977706,223.72546179131314 96.20216513983905,226.85658595852146 95.85092029743828,227.14123156382993" stroke="#4DD2FF" stroke-linecap="round" stroke-linejoin="round" stroke-width="0.5"><title>2025-04-29 10.1km</title><desc>1745929124000</desc></polyline><polyline fill="none" points="150.95545964606572,208.10954848476104 150.41009926627157,207.64802204543957 150.71773845492862,205.95025196015195 149.9486404833733,208.48865843554086 149.36132930516033,208.57107351659215 147.6133793698391,215.42785106152587 147.41760897717904,215.47729784838157 138.51005610701395,213.7136857979931 127.15537332755048,208.60403953642526 119.79999999998836,207.0381456632458 127.09943892958108,208.620522543657 136.06292619759915,212.82363079232164 138.60794130334398,213.77961559017422 152.19999999995343,216.44974803984223 147.54346137243556,215.4443333255913 147.83711696154205,214.24112333147787 148.66214933095034,214.04333447181853 150.5359516615863,206.16453467166866 150.89952524809632,206.03266842357698 150.41009926627157,207.31835944132763" stroke="#4DD2FF" stroke-linecap="round" stroke-linejoin="round" stroke-width="0.5"><title>2025-04-22 6.3km</title><desc>1745328842000</desc></polyline><polyline fill="none" points="167.29949072259478,226.44789839697478 167.83797388570383,226.20987241284456 168.95981380867306,222.53366369509604 171.83172401157208,222.95682724541984 173.3349895083811,217.4820918616606 173.08818472537678,211.95433523743122 169.969469739357,204.31048356019892 169.90215934393927,202.98799344987492 171.58491922856774,201.61259609241097 175.12993338517845,201.03069486451568 177.6877284096554,199.36433363167453 179.37048829416744,199.5230351943028 180.06602904642932,198.91467864086735 178.56276354950387,196.5605889173312 176.54345168813597,197.59215913439402 174.92800219904166,195.7141690547287 173.20036871766206,194.99999999998545 169.969469739357,195.264507302345 167.7706634902861,196.24318181470153 164.80900609353557,196.7457428688358 165.2577420627931,198.59727461643342 163.95640775212087,200.47524239125778 164.92119008593727,201.29519559555047 165.41479965206236,202.6705947513983 166.4244555827463,203.19959235172428 170.10409053019248,202.32674569300434 172.23558638384566,201.4009958072711 175.04018619132694,201.03069486451568 177.35117643268313,199.47013468503428 179.37048829416744,199.4965849411965 180.04359224787913,198.86177799894358 178.58520034805406,196.5605889173312 176.56588848656975,197.53925820429868 174.92800219904166,195.6877183864999 173.3349895083811,195.0264507432148 169.85728574707173,195.264507302345 167.81553708727006,196.21673120411288 165.3699260551948,196.5870394904632 165.03337407822255,196.85154506345862 165.21286846592557,198.6766256614501 163.95640775212087,200.34299161507806 164.8763164889533,201.29519559555047 165.34748925664462,202.6970446587511 166.31227159046102,203.25249204829743 172.28045998082962,201.37454575873562 174.95043899759185,201.0835950338078 177.37361323123332,199.47013468503428 179.46023548790254,199.47013468503428 180.02115544956177,198.80887734553835 178.5403267510701,196.5076877623942 176.45370449428447,197.51280773484905 174.90556540060788,195.6877183864999 173.5369206945179,195.1058029554988 170.53038970089983,195.13225368714484 167.5911691026995,196.24318181470153 165.32505245809443,196.5870394904632 165.01093727967236,196.82509451913938 165.16799486905802,198.91467864086735 163.9339709536871,200.42234208942682 164.94362688437104,201.34809570726065 165.39236285351217,202.6970446587511 166.132777202758,203.17314249911578 175.15237018372864,200.6868434832868 176.25177330814768,199.7875375681324 176.63319888187107,198.43857244863466 176.3190837035654,197.433456309358 175.21968057902995,196.08447810781945 173.49204709765036,195.0529014835629 170.50795290234964,195.15870441598236 167.50142190873157,196.32253362929623 164.9885004812386,196.7457428688358 165.2577420627931,198.54437390535895 163.95640775212087,200.3694417760271 165.05581087665632,201.71839616584475 164.62951170594897,202.5383451711241 165.7513516289182,204.83947758708382 166.6263867688831,208.70109906271682 167.0078123427229,213.03873760823626 166.91806514875498,215.8951889633754 164.71925889980048,226.65947685357241 166.31227159046102,227.39999999999418" stroke="#4DD2FF" stroke-linecap="round" stroke-linejoin="round" stroke-width="0.5"><title>2025-04-15 8.8km</title><desc>1744723077000</desc></polyline><polyline fill="none" points="43.98707557527814,248.53866069864307 43.0466593648307,248.47591465171718 43.73866374604404,246.44711475151416 42.922453450388275,249.83540774541325 43.117634173249826,250.35828714176023 42.03526834619697,253.95565879633068 40.988389923470095,253.97657355075353 41.00613362551667,254.8549911808077 39.7995618841378,258.7659923363972 28.035487404325977,256.4235840979236 14.550273822620511,250.17005072309985 11.800000000046566,249.3752726988896 14.745454545598477,250.3164568424545 28.01774370216299,256.4444985836453 39.83504928823095,258.7450781035295 40.22541073395405,257.17650414750096 41.11259583802894,257.07193209489924 41.87557502742857,254.8549911808077 44.20000000006985,245.23400766360282 43.57897042739205,248.68506806186633" stroke="#4DD2FF" stroke-linecap="round" stroke-linejoin="round" stroke-width="0.5"><title>2025-04-11 5.1km</title><desc>1744377642000</desc></polyline><polyline fill="none" points="57.12313802994322,268.1999999999971 58.218963189283386,266.9873848914576 58.50969231326599,267.8836662095273 59.60551747272257,266.9873848914576 60.83552530466113,263.270418118409 63.72045276535209,263.9294589437486 64.23481967684347,263.74492769356584 65.57664640271105,257.9716646618763 65.66610151785426,254.80817445395223 65.10700704879127,251.9873608075868 61.886622906662524,244.97472832536732 61.79716779163573,243.78836062595656 63.3626323051285,242.47016747105226 66.96320068615023,241.89016020782583 69.46794390771538,240.17649426251592 71.10049975756556,240.33467931974155 71.92795957194176,239.64920999133028 70.16122104949318,236.88094871563953 68.30502741201781,237.96189260190295 66.11337709322106,236.116375733749 64.14536456181668,236.01091720178374 63.0942669599317,236.51184481907694 60.96970797725953,238.8319171002804 57.928234065300785,239.28011031786446 56.16149554296862,240.80923387102666 56.07204042794183,241.31015155436762 56.98895535734482,242.07470812418615 57.3691395962378,243.31381191739638 58.37550964066759,243.89381576803862 67.20920225267764,241.4156077765365 68.41684630594682,240.25558680405084 68.55102897831239,238.96373872103868 67.23156603134703,236.90731325808156 65.10700704879127,235.8000000000029 62.2444433667697,235.9581879185862 59.448971021338366,237.03913592742174 57.03368291480001,237.46096798675717 57.2349569236394,239.30647459896863 56.07204042794183,240.73014151045936 56.07204042794183,241.23105935748026 56.98895535734482,241.99561617728614 57.950597844203,243.86745198676363 58.93460410973057,243.89381576803862 60.25406705692876,243.20835652251844 61.46171111019794,243.31381191739638 64.99518815486226,252.67279518512078 65.42009995144326,255.12452533574833 65.28591727884486,257.6553175020381 64.03354566800408,263.00680128581007 61.148618207429536,262.5586520112847 60.008065490517765,266.0383775251248" stroke="#4DD2FF" stroke-linecap="round" stroke-linejoin="round" stroke-width="0.5"><title>2025-04-08 5.6km</title><desc>1744119870000</desc></polyline><polyline fill="none" points="95.42609324876685,265.467352610096 96.30328084493522,264.18718210881343 96.97161425137892,261.33139101584675 99.74937497230712,261.84839035412006 101.23223971819971,256.1367129800201 101.29489597503562,253.82245778033393 100.89807301491965,251.5574191056221 98.05765603715554,244.51595823957177 98.05765603715554,243.1618059954344 99.62406245875172,242.00461492025352 102.90307323471643,241.51219138874148 105.07515680592041,240.03491435569595 106.95484451181255,240.03491435569595 107.45609456673265,239.39475797546038 105.80614646931645,236.78487088649126 103.78026083076838,237.5727645050356 101.85880228690803,235.9723527150345 98.76776028156746,235.89848728186917 95.90645788470283,236.957222850353 93.5255201238906,237.40041301076417 93.65083263767883,239.39475797546038 92.54390543315094,240.72431150634657 93.35843677225057,241.65991856089386 93.83880140830297,243.03870084360824 95.133697383455,243.48187907638203 96.28239542595111,242.866353518315 98.22473938867915,242.64476390699565 100.1253125135554,241.80764563645062 103.02838574838825,241.38908533820359 105.22135473857634,239.93642887682654 104.88718803529628,240.60120502659993 105.43020892806817,239.78870057794848 107.03838618763257,239.91180750043713 107.39343830989674,239.2962722174998 106.0985423347447,237.20343971348484 104.26062546670437,238.16368291596882 102.79864613979589,236.46478831929562 101.25312513718382,235.8000000000029 98.62156234891154,235.87386546542984 96.05265581747517,236.90797944554652 93.58817638072651,237.30192638355948 93.5672909617424,239.49324369047827 92.60656168987043,240.4780984797544 92.54390543315094,240.97052426474693 93.37932219123468,241.7091609301424 93.60906179982703,242.7432482055301 94.73687442333903,243.45725808628777 96.2197391691152,242.84173246109276 98.14119771285914,242.64476390699565 99.89557290507946,241.8568879734521 101.56640642147977,241.63529737225326 101.75437519210391,243.03870084360824 106.03588607779238,251.72975980272167 101.67083351628389,253.25620023989177 101.42020848882385,257.12149523910193 100.35505212203134,261.2821529219509 99.81203122925945,261.7006763781974 98.30828106449917,268.1999999999971 92.54390543315094,266.7228974051395 93.4210930292029,262.9562420967268 93.71348889451474,262.80852884477645 93.21223883947823,265.22116653827834" stroke="#4DD2FF" stroke-linecap="round" stroke-linejoin="round" stroke-width="0.5"><title>2025-04-02 6.9km</title><desc>1743601029000</desc></polyline><polyline fill="none" points="130.90637650096323,268.1999999999971 131.68124540010467,267.50153743055125 132.75238770188298,263.65995794165065 136.33045879518613,264.51961728975584 137.8118258083705,257.72285375985666 137.35602057352662,252.69903858125326 133.86911052721553,244.74669410314527 133.8463202654384,244.02129856622196 134.5300281177042,243.05410119742737 135.73791198979598,242.46303427116072 139.6122564858524,241.764498804303 141.41268716333434,240.31368805012607 142.11918527726084,240.20622024724435 142.14197553903796,239.23900791368214 141.23036506946664,237.38517366928863 140.5010766936466,237.43890819144144 139.7945785797201,236.63288913073484 139.20203177444637,236.7672258238017 137.88019659358542,235.96120456742938 136.467200365616,235.85373486747267 135.0086236143252,236.3642155250127 133.04866110451985,238.78226743731648 130.08592707838397,239.21214085022802 127.875271689496,240.98536075670563 129.19710687035695,243.45710056212556 130.70126414531842,244.07503164216178 135.9202340838965,242.3287006811879 139.29319282155484,241.8450991515565 141.8684923981782,240.07188542773656 143.57776202866808,240.2868211037421 144.17030883394182,239.6420135137014 142.32429763290565,236.87469512558891 140.2959643380018,237.9762527680723 139.0652902040165,236.5522870797722 137.4699718822958,235.79999999998836 134.48444759426638,235.93433714681305 131.77240644709673,237.06276629101194 128.87804320605937,237.54637720040046 129.0603653000435,239.66888053025468 127.82969116594177,241.25402932714496 128.83246268262155,242.19436701817904 129.288267917349,243.53770035608613 130.63289335998707,244.1018981756788 132.02309932629578,243.40336735155142 133.34493450715672,243.32276751377503 134.894672305556,247.70198719725886 136.1025561777642,248.74976442594198 140.09085198224057,247.91691622250073 142.59778077388182,253.18261882543447 137.76624528481625,254.82141148947994 137.51555240573362,258.93177796454984 137.01416664745193,259.54967026961094 135.73791198979598,264.08978799026227 135.46442884905264,264.3047027335997 132.75238770188298,263.8211442976608 131.9091480175266,267.04484929649334" stroke="#4DD2FF" stroke-linecap="round" stroke-linejoin="round" stroke-width="0.5"><title>2025-03-25 6.1km</title><desc>1742909450000</desc></polyline></svg>