<?xml version="1.0" encoding="utf-8" ?>
<svg baseProfile="full" height="300mm" version="1.1" viewBox="0,0,200,300" width="200mm" xmlns="http://www.w3.org/2000/svg" xmlns:ev="http://www.w3.org/2001/xml-events" xmlns:xlink="http://www.w3.org/1999/xlink"><defs /><rect fill="#222222" height="300" width="200" x="0" y="0" /><text fill="#FFFFFF" style="font-size:12px; font-family:Arial; font-weight:bold;" x="10" y="20">Over 5km Runs</text><text fill="#FFFFFF" style="font-size:4px; font-family:Arial" x="10" y="280">Runner</text><text fill="#FFFFFF" style="font-size:9px; font-family:Arial" x="10" y="290">Elliont</text><text fill="#FFFFFF" style="font-size:4px; font-family:Arial" x="65" y="280">SPECIAL TRACKS</text><rect fill="yellow" height="2.6" width="2.6" x="65" y="283" /><text fill="#FFFFFF" style="font-size:3px; font-family:Arial" x="70" y="285.5">Over 20.0 km</text><rect fill="red" height="2.6" width="2.6" x="65" y="287" /><text fill="#FFFFFF" style="font-size:3px; font-family:Arial" x="70" y="289.5">Over 40.0 km</text><text fill="#FFFFFF" style="font-size:4px; font-family:Arial" x="120" y="280">STATISTICS</text><text fill="#FFFFFF" style="font-size:3px; font-family:Arial" x="120" y="285">Number: 49</text><text fill="#FFFFFF" style="font-size:3px; font-family:Arial" x="120" y="290">Weekly: 2.0</text><text fill="#FFFFFF" style="font-size:3px; font-family:Arial" x="141" y="285">Total: 325.7 km</text><text fill="#FFFFFF" style="font-size:3px; font-family:Arial" x="141" y="290">Avg: 6.6 km</text><text fill="#FFFFFF" style="font-size:3px; font-family:Arial" x="167" y="285">Min: 5.0 km</text><text fill="#FFFFFF" style="font-size:3px; font-family:Arial" x="167" y="290">Max: 10.1 km</text><polyline fill="none" points="35.333333333343035,46.14652826832025 30.448706052149646,45.192782815407554 24.895968656550394,42.637739206555125 23.65625322199776,42.243975259894796 14.785235591320088,40.520141486034845 13.397051242383895,40.476388878480066 11.333333333343035,40.616397138815955 14.547685328376247,40.520141486034845 23.403856067656307,42.20897392681218 24.762346633680863,42.58523745850107 30.552634292194853,45.24528285954875 35.333333333343035,46.19027778819145" stroke="#4DD2FF" stroke-linecap="round" stroke-linejoin="round" stroke-width="0.5"><title>2025-09-22 6.4km</title><desc>1758538508000</desc></polyline><polyline fill="none" points="64.98392282958957,53.95448846195359 60.80385852092877,53.12826712166134 55.877813504834194,50.8921143020998 54.93247588427039,50.58132127454155 47.324758842471056,49.09555981999438 45.84565916401334,49.027335318045516 44.360128617379814,49.156203765567625 43.736334405170055,49.042496324262174 43.13183279745863,48.72411450018262 42.68167202573386,48.307183718439774 42.0,46.7304047210273 42.1157556270482,46.54088560944365 44.89389067524462,44.31968314646656 46.67524115755805,42.371334556919464 48.61093247588724,40.657955692047835 50.9389067524462,39.14923759613157 51.826366559485905,39.027932207529375 52.16720257239649,38.762575932531036 52.88745980709791,37.89826561922382 53.50482315116096,36.51837952796632 54.18006430871901,35.89666366309393 57.07395498393453,34.29685704969597 60.72668810293544,32.71217820471065 60.733118971053045,33.189860318161664 61.24115755627281,33.57655295956647 61.72990353699424,34.44091697262047 61.974276527325856,35.146048080408946 63.57556270094938,38.247023704621824 63.614147909975145,38.49721864533785 64.53376205789391,40.02111385315948 66.0,43.30381948284776" stroke="#4DD2FF" stroke-linecap="round" stroke-linejoin="round" stroke-width="0.5"><title>2025-09-21 9.0km</title><desc>1758451095000</desc></polyline><polyline fill="none" points="95.28348909656052,52.276007851876784 94.97196261680801,53.59791129756195 94.85981308412738,53.62728663539019 90.77258566976525,52.82680410330795 85.92523364484077,50.601559620015905 85.12149532706826,50.359201826082426 77.75077881617472,48.92706980667572 74.4922118379618,48.92706980667572 73.91277258563787,48.68470599393186 73.33956386291538,48.17794247940765 73.02803738313378,47.685864117484016 72.66666666665697,46.635595302286674 73.17133956382168,46.099437780998414 75.51401869155234,44.25590472648764 77.39563862924115,42.22869464374526 78.95327102800366,40.86984216298879 81.42056074764696,39.25387382437475 82.14953271026025,39.18041979752161 82.4672897195851,38.967402666952694 83.21495327100274,38.078599788401334 83.80685358252958,36.74170065706858 84.48598130838946,36.132007083484496 87.42679127724841,34.51592514105869 90.79750778817106,33.03938003127405 90.80996884734486,33.55360339296021 91.30841121496633,33.88417348191433 91.61370716511738,34.45715779470629 92.50467289719381,36.44052741251653 94.55451713394723,40.31894821822061 96.26791277257144,44.21918044833728 96.5981308411283,45.497173562602256 96.66666666665697,46.34181088718469 96.54205607474432,47.63445273814432 96.19314641744131,48.87565937374893" stroke="#4DD2FF" stroke-linecap="round" stroke-linejoin="round" stroke-width="0.5"><title>2025-09-18 10.1km</title><desc>1758194958000</desc></polyline><polyline fill="none" points="118.53824840384186,44.68290535941924 118.46885917361942,44.87715187807771 118.99795205399278,45.03050410888682 127.33333333334303,46.65602235569531 111.94627153358306,43.5992068795822 105.4410312010732,40.572963748840266 103.33333333334303,40.010644310976204 105.39766293219873,40.60363562130078 112.05035537888762,43.64010138896265 117.1244428382488,44.66245833407447" stroke="#4DD2FF" stroke-linecap="round" stroke-linejoin="round" stroke-width="0.5"><title>2025-09-16 5.4km</title><desc>1758020593000</desc></polyline><polyline fill="none" points="157.9926739926741,46.11391925310454 153.113553113566,45.13815221598634 147.50915750916465,42.556197441408585 146.38095238094684,42.236685486081115 137.46520146520925,40.52684286987642 134.0,40.59592813489871 134.45421245423495,40.67364898605592 136.33699633699143,40.51820720750402 137.62637362637906,40.561385509892716 146.65201465200516,42.2971337925992 147.60439560440136,42.625280938111246 153.17216117217322,45.18132800250169 158.0,46.14845945916022" stroke="#4DD2FF" stroke-linecap="round" stroke-linejoin="round" stroke-width="0.5"><title>2025-09-15 6.5km</title><desc>1757932870000</desc></polyline><polyline fill="none" points="188.66666666665697,54.17277526565158 184.23889511008747,53.28578664804809 179.00485255688545,50.886111428968434 178.31952220975654,50.67227514103433 169.92758491970017,49.0407627605091 168.65770810001413,49.00908254614478 167.17282568119117,49.143723361878074 166.52108995890012,49.048682811961044 165.80888391187182,48.67643946192402 165.4191862634907,48.30419420618273 165.03620754013536,47.67058087751502 164.71369914142997,46.8468752952831 164.66666666665697,46.60134586440108 164.7808883911639,46.44293933991867 167.62299365430954,44.11432360167237 169.51773049641633,42.05494141113013 171.50653228815645,40.29649967273872 174.06644270246034,38.65683323961275 174.89958939899225,38.55385778478376 175.26913027244154,38.29245789801644 175.9678984695638,37.51617390498723 176.63979096675757,35.99526694481756 177.33855916382163,35.314017048003734 180.52332960057538,33.57125568999618 182.88839119070326,32.49389140101266" stroke="#4DD2FF" stroke-linecap="round" stroke-linejoin="round" stroke-width="0.5"><title>2025-09-13 7.0km</title><desc>1757768754000</desc></polyline><polyline fill="none" points="35.333333333343035,72.92395019804098 30.02782306273002,71.88168917612347 24.190196717740037,69.18835351079179 23.23551787849283,68.87474036595813 13.649603304016637,67.01148538175039 11.333333333343035,67.02070951731002 13.774807086243527,67.0852784380113 22.95380936859874,68.85629249775957 24.07281817198964,69.18835351079179 30.074774481036002,71.93703079175611 35.30203238778631,72.98851461824961" stroke="#4DD2FF" stroke-linecap="round" stroke-linejoin="round" stroke-width="0.5"><title>2025-09-11 6.0km</title><desc>1757587445000</desc></polyline><polyline fill="none" points="63.707045108953025,80.05590493766067 59.625950329442276,79.25298432889394 55.100861632003216,77.15244034146599 54.06082108465489,76.84416374033754 46.85960466295364,75.45331647229614 45.6066903193132,75.41030010885879 44.19564115558751,75.5250103488579 43.4961986822309,75.39596131481812 42.6325392802828,74.72203447053471 42.2736948808888,74.08394843902352 42.0,73.18774974661937 44.68220983273932,70.95795444479154 45.50329447540571,70.17643274483271 46.46426761278417,69.04356829785684 48.23416117587476,67.48764040198876 49.54181449569296,66.72041817220452 50.42372022301424,66.06791372224689 51.20831221490516,65.93884614136914 51.561074505822035,65.73090339522605 52.26051697920775,64.92780799824686 52.85656360871508,63.565391599848226 53.52559553977335,62.97739264885604 56.27470856564469,61.45000496353896 59.692853522574296,59.94409506233933 59.68677141406806,60.453239886388474 60.19158641662216,60.761593286297284 60.538266599091,61.392637598917645 61.213380638626404,62.97022189751442 63.913836796738906,68.19749225456326 64.0598073998699,68.69940308434889 64.24227065380546,68.90016634431231 65.03902686262154,70.85040613774618 65.23973644193029,71.62475002557767 65.53167764822138,71.70361787325237 65.61682716672658,73.1088836774943 65.30055752658518,75.20238728931145 65.5377597566985,75.37445311785996 65.98783578304574,75.46048586345569 66.0,75.5895347710175" stroke="#4DD2FF" stroke-linecap="round" stroke-linejoin="round" stroke-width="0.5"><title>2025-09-09 10.0km</title><desc>1757415422000</desc></polyline><polyline fill="none" points="96.63360881546396,73.15625941079634 90.93112947660848,71.99704937848583 84.87327823686064,69.1817624686737 83.76584022041061,68.83106308295828 73.67493112946977,66.86322435741022 72.66666666665697,66.84374058921094 75.84848484845133,67.28212434712623 83.93939393936307,68.89925473788026 91.22038567491109,72.10420387715567 96.66666666665697,73.15625941079634" stroke="#4DD2FF" stroke-linecap="round" stroke-linejoin="round" stroke-width="0.5"><title>2025-09-08 5.7km</title><desc>1757333196000</desc></polyline><polyline fill="none" points="127.33333333334303,73.10021389350004 121.949771689513,72.08298651617224 115.67031963472255,69.18624673647719 114.75799086759798,68.87622217531316 104.87853881280171,66.94823268154141 103.33333333334303,66.84165917909559 104.50045662099728,66.91916719353321 114.51963470323244,68.85684560436493 115.76894977167831,69.2637527079205 121.88401826482732,72.09267445081059 127.25936073058983,73.15834082090441" stroke="#4DD2FF" stroke-linecap="round" stroke-linejoin="round" stroke-width="0.5"><title>2025-09-04 5.8km</title><desc>1756983645000</desc></polyline><polyline fill="none" points="158.0,72.79664380776376 153.27644230765873,71.85312339381198 147.62980769231217,69.27750960678532 144.57211538459524,68.56346301390295 137.90865384615608,67.29686429503636 136.5456730769074,67.27136209631135 134.89423076921958,67.40737372661533 134.0,67.20335619224352 134.41105769231217,67.39037228577945 134.98076923075132,67.46687874032068 136.5456730769074,67.31386575623037 137.99519230771693,67.35636939301185 147.03846153846825,69.11599963964545 148.00480769231217,69.46452073018008 153.29086538462434,71.91262501811434 156.25480769228307,72.44813759579847" stroke="#4DD2FF" stroke-linecap="round" stroke-linejoin="round" stroke-width="0.5"><title>2025-09-02 6.2km</title><desc>1756809719000</desc></polyline><polyline fill="none" points="188.66666666665697,73.10900119844882 183.25025960538187,72.05148270304198 175.93146417444223,68.81030687253951 166.02076843197574,66.89100568029244 164.66666666665697,66.79308105148812 165.97092419522232,66.91059059328109 175.42471443404793,68.74176110693952 176.70404984423658,69.12365827839676 183.38317757009645,72.17877725447761 188.65835929385503,73.20691894851188" stroke="#4DD2FF" stroke-linecap="round" stroke-linejoin="round" stroke-width="0.5"><title>2025-08-29 5.7km</title><desc>1756465472000</desc></polyline><polyline fill="none" points="35.333333333343035,99.6567591936182 30.133465042279568,98.63214680185047 23.993195039016427,95.81905694387387 23.036988255975302,95.53029082808644 13.395895071938867,93.65794493709836 11.333333333343035,93.65794493709836 13.498628032102715,93.74178219694295 23.29777192408801,95.63275633562444 30.014927011332475,98.64146151523164 35.20689276701887,99.67538839624467" stroke="#4DD2FF" stroke-linecap="round" stroke-linejoin="round" stroke-width="0.5"><title>2025-08-27 6.0km</title><desc>1756291993000</desc></polyline><polyline fill="none" points="64.91597475923481,99.66848775887047 60.87479242775589,98.92627664133761 59.12122218532022,98.4753098058427 53.58950514780008,95.88220475221897 52.44968449015869,95.51578144836822 43.458651610737434,93.75880705937743 42.0,93.59908034036198 44.39920292262104,93.94672046778578 52.43374294252135,95.52517693716072 53.41414812352741,95.83522749254189 58.666888077015756,98.33438218628726 59.98206575887161,98.79474489116546 64.90800398535794,99.73425299297378 65.09930255726795,99.00143755137833 66.0,99.15175917508896 65.55363666557241,99.04841308694449 65.58551976084709,98.82293028307322" stroke="#4DD2FF" stroke-linecap="round" stroke-linejoin="round" stroke-width="0.5"><title>2025-08-26 6.0km</title><desc>1756205162000</desc></polyline><polyline fill="none" points="96.66666666665697,101.14851687071496 92.08661637327168,100.24745418444218 87.10421905561816,97.95522674965468 86.07152835986926,97.63114737435535 77.83682592902915,96.04234705892304 75.08745459624333,96.16091544771189 74.35652416874655,95.99491964915796 73.6524168762262,95.56807156651485 73.29030455433531,95.13331630880566 72.6934898016043,93.64722412288393 73.12936574459309,93.16502809726808 74.34981838503154,92.1848164626208 72.90136909749708,93.33893523002189 72.66666666665697,93.6630337743918 73.04889633978019,94.76179611554835 73.36406817546231,95.28350478321954 74.4705224923091,96.06606075215677 75.16121821737033,96.20834274896333 76.66331377479946,96.07396531487029 77.90388376638293,96.09767899779399 86.19893825089093,97.69438248805818 87.11092483933317,98.00265287830553 92.00614696842968,100.24745418444218" stroke="#4DD2FF" stroke-linecap="round" stroke-linejoin="round" stroke-width="0.5"><title>2025-08-23 7.3km</title><desc>1755948655000</desc></polyline><polyline fill="none" points="127.33333333331393,98.74066884423519 126.97026118438225,99.99160055462562 120.83527282130672,98.78456144784286 113.32247220067075,95.36088094572915 106.01448151021032,93.78068147472368 103.33333333331393,93.34173277870286 112.84768554434413,95.26211920491914 120.56529609515565,98.74066884423519 125.58313938451465,99.7611669327598" stroke="#4DD2FF" stroke-linecap="round" stroke-linejoin="round" stroke-width="0.5"><title>2025-08-19 5.0km</title><desc>1755607675000</desc></polyline><polyline fill="none" points="157.3085077466676,102.91466477848007 152.9508018483466,102.05347323536262 147.89508018482593,99.7159003818524 147.04050013591768,99.46983557927888 139.06224517530063,97.93960083770799 136.08100027180626,98.0241875437423 135.0959499864257,97.56280427954334 134.41750475674053,96.73999664126313 134.0391410709708,95.50961218667362 136.8638216906984,93.21027375019185 139.52541451482102,90.41866855485569 138.7425930959289,91.11850281721854 136.94210383255268,93.07184964800399 134.0,95.51730215612042 134.14351726014866,96.10173738232697 134.6914922533615,97.17062613410963 135.1546615928528,97.60125300008076 135.9570535471721,97.99342875328875 136.4006523512071,98.0626360129827 137.94020114163868,97.9242214257174 139.2253329709638,97.93960083770799 142.46099483559374,98.5547745698641 142.74150584399467,98.45480920317641 144.02663767329068,98.69318792085687 144.41152487089857,98.86235942575877 146.36205490623252,99.15456379761599 147.62109268823406,99.56210998074675 148.27344387062476,99.54673092220764 148.26039684697753,99.72358989313216 148.67790160371806,99.7082108697432 148.36477303615538,99.91582740249578 148.8409893992939,100.20802741422813 152.6637673280784,101.93044501460827 153.3944006523525,102.13805501279421 153.6227235661645,102.03040546031116 154.8687143245479,102.1226765153333 154.8687143245479,102.41486739413085 156.9823321555159,102.83777310345613 157.35417232944747,102.87621895142365 157.45854851862532,102.34566440053459 157.81081815710058,102.28415057150414 158.0,101.64594143302384" stroke="#4DD2FF" stroke-linecap="round" stroke-linejoin="round" stroke-width="0.5"><title>2025-08-16 10.0km</title><desc>1755297330000</desc></polyline><polyline fill="none" points="179.11001642036717,95.83059371624404 178.6765188834397,98.0370206038715 188.66666666668607,99.99954089451057 172.0952380952658,96.71316994974768 164.66666666668607,93.33379243881791 171.86863711004844,96.70155715200235 178.12479474552674,97.95573200222134" stroke="#4DD2FF" stroke-linecap="round" stroke-linejoin="round" stroke-width="0.5"><title>2025-08-13 5.0km</title><desc>1755095249000</desc></polyline><polyline fill="none" points="35.198954833933385,127.80021298132488 30.79805897726328,126.92114289978053 25.792459873104235,124.61650331909914 24.858529302000534,124.3155484287563 16.63456513627898,122.73155479114939 13.718551698431838,122.82659538248117 13.073534901137464,122.69195450809639 12.408361328882165,122.29595049130876 12.05897723036469,121.94746517243766 11.736468831688398,121.40889366708143 11.353490108274855,120.33173868797894 12.18663680483587,119.50802117127023 13.154162000777433,118.77141971838864 12.421799178846413,119.28624947605567 11.333333333343035,120.33965900342446 12.045539380400442,121.95538531188504 12.603210153087275,122.4781126069065 13.066815976169892,122.71571468051116 13.718551698431838,122.85827555198921 16.002986188890645,122.72363473625592 16.829413960454985,122.7790751023349 25.241508025414078,124.46602602961502 30.6703994027921,126.92114289978053 35.333333333343035,127.8952469482756" stroke="#4DD2FF" stroke-linecap="round" stroke-linejoin="round" stroke-width="0.5"><title>2025-08-12 8.1km</title><desc>1754996616000</desc></polyline><polyline fill="none" points="66.0,126.11688367096212 61.16076294274535,125.1490929311476 55.6966394186893,122.63106829932804 54.79564032697817,122.33129809160891 49.658492279733764,121.25211588175443 45.78564940963406,120.58404328202596 44.419618528627325,120.54978299570212 42.690281562216114,120.69538910947449 42.0,120.5754782118529 42.63215258857235,120.69538910947449 44.34695731155807,120.56691314071941 45.80018165305955,120.59260835128953 54.71571298816707,122.33986297054798 55.754768392362166,122.7081518823179 60.935513169824844,125.09770547923836 65.5858310626354,126.05693237823289" stroke="#4DD2FF" stroke-linecap="round" stroke-linejoin="round" stroke-width="0.5"><title>2025-08-10 6.4km</title><desc>1754781124000</desc></polyline><polyline fill="none" points="94.28670208281255,133.37500820780406 90.29176153131993,132.57350959101313 85.76254321611486,130.48384222754976 84.90041318829753,130.19758124900545 77.43873851082753,128.73763085859537 76.77089130619424,128.69469065015437 74.68235095706768,128.8163545012285 74.22700059026829,128.70900405609427 73.5895100767375,128.34401123059797 73.14630238636164,127.84303738435119 72.72738004889106,126.86254894520243 72.66666666665697,126.49038891818054 75.31984147062758,124.3146419538898 77.1533856143069,122.3392303227156 78.88371700819698,120.82900237612193 81.06332743066014,119.40463235162315 81.30618095962564,119.29010879695852 81.91938612025115,119.26863560821948 82.15616831099032,119.11116534301254 82.82401551562361,118.37391317046422 83.51007673496497,116.89938399656239 84.1293532338459,116.31242627822212 86.90395480225561,114.81637617199885 90.33426089887507,113.29165845886018 90.33426089887507,113.81421828237944 90.94139472130337,114.20792499160598 91.12353486803477,114.43698962709459 91.22067627962679,114.80921795557515 93.36385867273202,118.62443668167543 94.24420271522831,120.55701450619381 94.79669449364883,121.32287220798753 94.80276583187515,121.54475454672502 95.05169069906697,121.92410003489204 95.50096972764004,123.23389874728309 95.84703600639477,123.84942354785017 96.13846024117083,125.1233984175633 96.23560165273375,126.41166248846275 95.96239143266575,128.2581302710896 96.0352474913816,128.3654814529218 96.66666666665697,128.5587131382199 96.59381060797023,129.13124812849856" stroke="#4DD2FF" stroke-linecap="round" stroke-linejoin="round" stroke-width="0.5"><title>2025-08-08 10.0km</title><desc>1754654808000</desc></polyline><polyline fill="none" points="127.33333333331393,126.69339413163107 120.93017127801431,125.3851853051965 113.58787878789008,121.99718239978392 106.00843214755878,120.36463943281706 103.33333333331393,119.97327253503317 113.4171277997666,121.99718239978392 121.11989459814504,125.49699867687013 127.17206851119408,126.65985052377073" stroke="#4DD2FF" stroke-linecap="round" stroke-linejoin="round" stroke-width="0.5"><title>2025-08-07 5.0km</title><desc>1754573743000</desc></polyline><polyline fill="none" points="158.0,126.70535592588567 151.65538945712615,125.436708147834 144.40440597955603,122.10921502177371 143.47915027535055,121.8309916241924 134.0,119.96131074078585 136.52084972459124,120.49550876997819 136.7285601887852,120.40647595905466 137.2856018882594,120.64018692225363 143.88512981898384,121.98679682018701 151.740361919743,125.52573657594621 157.57513768679928,126.69422750506055" stroke="#4DD2FF" stroke-linecap="round" stroke-linejoin="round" stroke-width="0.5"><title>2025-08-04 5.0km</title><desc>1754309955000</desc></polyline><polyline fill="none" points="188.66666666665697,126.12623960713972 183.869578404614,125.16526780484855 178.337276311795,122.62550018863112 177.50743099788087,122.35092581235222 168.7285410979821,120.61765297437523 167.1853199878824,120.54042705952452 165.30724901426584,120.68629816846078 164.66666666665697,120.54900772046676 164.8049742190342,120.65197557890497 165.68577494693454,120.71204010083602 168.22626630272134,120.57474969769828 171.7130724901799,121.26119932070287 172.27358204431948,121.26977990314481 173.24173491052352,121.56151914988004 177.4127995147137,122.35950627610873 178.5702153472812,122.77136743676965 183.78222626631032,125.15668764669681 188.1716712162597,126.04043902990088" stroke="#4DD2FF" stroke-linecap="round" stroke-linejoin="round" stroke-width="0.5"><title>2025-08-03 6.5km</title><desc>1754227262000</desc></polyline><polyline fill="none" points="32.5534840671462,152.81098562095576 26.18458283750806,151.54299123066448 18.159196086169686,147.97456928804604 11.33333333331393,146.58307566694566 18.749438053695485,148.13167222587072 26.432103662576992,151.64398250620434 35.33333333331393,153.41692433304706 32.75340473355027,152.83342785901186 32.75340473355027,152.66511095443275" stroke="#4DD2FF" stroke-linecap="round" stroke-linejoin="round" stroke-width="0.5"><title>2025-08-01 5.0km</title><desc>1754057984000</desc></polyline><polyline fill="none" points="63.70387243735604,160.01811106073 59.609719058469636,159.20904673227778 55.102505694754655,157.13264138634258 54.13667425967287,156.8247550106098 46.847380410006735,155.41418736448395 45.51708428247366,155.3712254383645 44.19286256644409,155.48579051227716 43.56112376615056,155.3712254383645 43.0387243735604,155.07765152508364 42.65603644645307,154.7124723885354 42.21867881549406,153.88186130738904 42.0,153.15864828370832 44.67881548975129,150.93883584245486 46.53758542140713,148.9552625880242 48.23842065301142,147.46575306142768 49.52012148822541,146.72814690308587 50.522399392561056,145.99053246541007 51.23310554289492,145.91891897226014 51.48823082764284,145.76136901260907 52.26575550495181,144.86619161674025 52.8731966590567,143.5198218489968 53.46848899012548,142.98269855180843 56.31131359151914,141.42143523709092 59.640091116161784,139.98188893926272 59.694760820042575,140.44741731230897 60.18071374334977,140.78402808096143 60.684889901283896,141.68642290913704 60.9946848898835,142.5529967526163 61.76006074412726,144.13571782580402 63.75246772970422,147.8667781781478 64.01974183751736,148.66882107016863 64.80941533789155,150.32300362271053 65.34396355351782,152.1633222991004 65.38041002277168,153.30901996367902 65.30751708426396,153.72433043552883 65.49582384206587,153.86037984710129 65.31966590735829,154.9416046329061 66.0,155.19937745310745 65.97570235381136,155.55023327862727" stroke="#4DD2FF" stroke-linecap="round" stroke-linejoin="round" stroke-width="0.5"><title>2025-07-28 10.0km</title><desc>1753704756000</desc></polyline><polyline fill="none" points="94.31012743129395,152.9427780228507 87.9358819584595,151.66779853304615 80.63447350775823,148.3209033808962 79.44654594233725,147.92245634338906 72.66666666668607,146.5677250542285 80.19020791415824,148.1842931391584 86.47753185784677,151.14414173750265 88.10972501680953,151.75886901233025 96.66666666668607,153.4322749457715 94.40670690813567,152.920010668342 94.52260228036903,152.18006894691644" stroke="#4DD2FF" stroke-linecap="round" stroke-linejoin="round" stroke-width="0.5"><title>2025-07-22 5.0km</title><desc>1753194638000</desc></polyline><polyline fill="none" points="116.98457888493431,151.26683848243556 124.93475682087592,152.8439931489338 127.33333333334303,152.98660660677706 125.24080664294888,152.86916024891252 112.1376037959999,150.30207370094286 106.42230130487587,147.70973282853083 103.33333333334303,147.01339339321567 106.38671411629184,147.7265120143711 111.7461447212263,150.20140189715312 113.95255041521159,150.67120252262976" stroke="#4DD2FF" stroke-linecap="round" stroke-linejoin="round" stroke-width="0.5"><title>2025-07-19 6.4km</title><desc>1752877000000</desc></polyline><polyline fill="none" points="155.8020859832468,160.08347772578418 151.7176291020296,159.27029706902977 147.0775883999304,157.14734465024958 146.2838972272002,156.89546441322454 138.74383108626353,155.44173685367423 136.1307555329695,155.52809780033567 135.56296107859816,155.42014659938286 135.03179852454923,155.1106855124017 134.5128466039314,154.56372748818103 134.06105316715548,153.548964423484 134.0,153.1819186254579 136.66802340373397,150.97240377437265 138.432459933887,149.05791095252061 140.17247519717785,147.53923244367616 142.29712541340268,146.1212878127917 142.66954973290558,145.9413434240778 143.2373441872769,145.91255227638612 143.64029509032844,145.6606291987191 144.29966929534567,144.87606260049506 144.89188501657918,143.53004131222406 145.52073263804778,142.94699683776707 148.61002289497992,141.26261721723858 151.766471635754,139.91652227421582 151.77257695244043,140.4348080678319 152.26100228950963,140.75873462305753 152.58458407528815,141.35619498996675 153.25006359705003,142.88221380062896 155.3014500127465,146.74029276603687 155.83871788351098,148.02866819343035 155.98524548462592,148.16542165174178 156.9071483083535,150.5261735646127 157.1147290765948,150.82126162155328 157.44441617911798,152.0519805238364 157.50546934627346,152.86525002385315 157.4077842788538,154.10312774514023 157.10862375987926,155.26181785224617 158.0,155.46332710092247" stroke="#4DD2FF" stroke-linecap="round" stroke-linejoin="round" stroke-width="0.5"><title>2025-07-17 10.0km</title><desc>1752756134000</desc></polyline><polyline fill="none" points="188.66666666668607,153.38667739893572 182.303964177554,152.11251607907616 174.23442644544411,148.52466106237262 164.66666666668607,146.61332260106428 174.66113525623223,148.7034979275777 182.12379823526135,152.1013391553788 188.37271170812892,153.37550061401998" stroke="#4DD2FF" stroke-linecap="round" stroke-linejoin="round" stroke-width="0.5"><title>2025-07-14 5.0km</title><desc>1752500928000</desc></polyline><polyline fill="none" points="35.33333333331393,180.0286564521739 28.972113630443346,178.7790031442346 22.395100338791963,175.72668793326739 20.83763356792042,175.16266312260268 11.33333333331393,173.30467688116187 21.456867344269995,175.3285530980138 29.08470158977434,178.8232389220866 34.65780557732796,179.94018592732755" stroke="#4DD2FF" stroke-linecap="round" stroke-linejoin="round" stroke-width="0.5"><title>2025-06-21 5.0km</title><desc>1750468889000</desc></polyline><polyline fill="none" points="58.42047280239058,178.14057821837923 64.66146431028028,179.38715095243242 66.0,179.4585683926416 64.84874913928797,179.38715095243242 54.647234335541725,177.3939206105315 53.55106724810321,176.96539984707124 50.273582740395796,175.40711656021813 49.6952031214023,175.21882123812975 43.00803305025329,173.9202166149007 42.0,173.87476494069415 42.89235712646041,173.89424423389937 45.497819600626826,174.37473145092008 50.18544870323967,175.38763776135602 53.672251549200155,177.03682018822292 54.56460867568967,177.3809351781092 55.534083084668964,177.57571636754074" stroke="#4DD2FF" stroke-linecap="round" stroke-linejoin="round" stroke-width="0.5"><title>2025-06-17 8.1km</title><desc>1750165544000</desc></polyline><polyline fill="none" points="96.66666666668607,180.01413472225977 90.61562258313643,178.81082942642388 82.72699149267282,175.28834379074397 72.66666666668607,173.319198611076 82.74555297760526,175.33210213404527 90.4856921887258,178.79989022126392 95.59010054136161,179.83910939321504" stroke="#4DD2FF" stroke-linecap="round" stroke-linejoin="round" stroke-width="0.5"><title>2025-06-15 5.0km</title><desc>1749939796000</desc></polyline><polyline fill="none" points="119.91728736611549,178.04233614502664 125.58147123502567,179.1741014049294 127.33333333334303,179.2824606931863 125.95431652126717,179.1981812651211 116.47485280557885,177.35604167064594 115.55040079451283,177.00687103634482 112.46038164148922,175.5379221423027 111.7708732354804,175.3091478997303 105.53976023269934,174.10505733239916 104.78385472091031,174.0508726401422 103.33333333334303,174.1652624837443 105.3916436121508,174.093016294275 111.50528481238871,175.2730255643619 112.24586791516049,175.4777184860468 114.0130524225242,176.3145434291837" stroke="#4DD2FF" stroke-linecap="round" stroke-linejoin="round" stroke-width="0.5"><title>2025-06-11 8.1km</title><desc>1749642919000</desc></polyline><polyline fill="none" points="158.0,180.00676628048677 151.7650252035819,178.80019493693544 143.92943001160165,175.30105630088656 134.0,173.326567052849 144.0411012020195,175.34493340006156 151.83016673126258,178.85503940247145 156.9670414889697,179.88610979654914" stroke="#4DD2FF" stroke-linecap="round" stroke-linejoin="round" stroke-width="0.5"><title>2025-06-08 5.0km</title><desc>1749387304000</desc></polyline><polyline fill="none" points="173.96456876432057,183.1167532033578 176.54918414901476,181.5735104054038 181.9869463868672,180.58424875236233 184.73939393938053,178.52657588224974 187.72680652677082,178.60571736193378 188.53240093227942,177.93301423385856 183.22890442877542,169.30647543558734 179.63729603716638,170.01876621728297 176.2135198134929,172.0369158447429 174.3002331001917,172.0369158447429 171.24568764562719,173.46148529986385 166.24428904417437,174.49033754187985 166.41212121210992,177.73516013548942 164.66666666662786,179.91154928901233 166.14358974341303,181.5339399909717 166.78135198145173,183.55202562751947 167.72121212119237,184.14557809222606 173.56177156162448,182.91890192913706 176.6498834498925,181.5339399909717 181.14778554765508,180.94038325792644 184.90722610719968,178.52657588224974 187.55897435883526,178.64528809548938 188.63310023304075,177.73516013548942 183.22890442877542,169.1877601694723 179.23449883435387,170.0583378863521 176.2806526805507,171.99734439124586 173.5953379952116,172.2743444753869 170.30582750565372,173.7384842671745 166.3449883449357,174.41119516518665 166.44568764558062,177.93301423385856 164.66666666662786,179.91154928901233 166.24428904417437,181.61308081555762 167.04988344968297,183.67073619793518 168.19114219106268,184.22471834759926 177.38834498811048,181.41522872197675 181.2484848483,180.97995373693993 184.57156177144498,178.72442954947473 187.6596736595966,178.6848588246503 188.66666666662786,177.69558930280618 182.85967365966644,169.06904486453277 178.8988344987156,170.29576781057403 176.1463869464351,171.99734439124586 166.51282051263843,174.2133391480602 166.47925407928415,177.73516013548942 164.70023310009856,179.83240809387644 166.21072261058725,181.5339399909717 166.78135198145173,183.43331501813373 168.49324009311385,184.26428846883937 182.054079253925,180.14897277136333 183.73240093223285,177.89344342285767 183.22890442877542,175.63790006551426 181.01351981353946,172.86791537271347 179.13379953370895,171.91820147135877 177.52261072245892,171.8390585340385 175.67645687633194,172.59091574136983 172.68904428905807,176.19189446864766 167.92261072259862,176.98331357858842 165.06946386944037,179.23884857972735 164.96876456867903,180.18854333658237 166.57995337981265,182.1274957540736" stroke="#4DD2FF" stroke-linecap="round" stroke-linejoin="round" stroke-width="0.5"><title>2025-06-04 6.4km</title><desc>1749041988000</desc></polyline><polyline fill="none" points="35.33333333331393,206.69537120411405 29.18211192963645,205.46686233356013 22.17474473308539,202.2309860058158 21.113868424436077,201.87996944179758 11.33333333331393,199.97129546255746 21.39304640039336,201.98966224945616 29.042522941657808,205.4449245389842 34.151479901745915,206.49793328901433" stroke="#4DD2FF" stroke-linecap="round" stroke-linejoin="round" stroke-width="0.5"><title>2025-05-28 5.0km</title><desc>1748436903000</desc></polyline><polyline fill="none" points="66.0,206.68486236030003 59.335443037969526,205.319667448377 51.61708860757062,201.82826680329163 42.0,199.9706142590876 51.30379746836843,201.7611233204807 52.462025316490326,202.13041193292156 59.89556962030474,205.53228096312523 65.88607594941277,206.69605240757664" stroke="#4DD2FF" stroke-linecap="round" stroke-linejoin="round" stroke-width="0.5"><title>2025-05-27 5.0km</title><desc>1748351986000</desc></polyline><polyline fill="none" points="90.4397911602864,208.28420934951282 90.47186407411937,206.84739879374683 91.22557754965965,205.14116583597206 91.7227077143616,201.97559595837083 91.69063480052864,202.26746020514838 90.96899423882132,202.35726445823093 87.45701017190004,204.8493079776381 86.12598424701719,205.16361641362164 85.59678116842406,204.28804104174924 86.20616653159959,203.30020540688565 87.32871851650998,202.42461760773585 87.15231749031227,200.92038903733192 87.6815205689054,199.95497953137965 86.97591646411456,199.5508525139885 84.39404689893126,199.59575557740754 83.72051570797339,198.607884635785 83.94502610497875,197.4403912118869 84.44215626973892,197.5975543929162 84.39404689893126,196.83418860831443 85.13172391755506,197.2832278427013 86.4787862994126,197.23832398837112 87.55322891351534,197.9567838144867 89.01254649378825,198.00168742314418 89.60589540010551,197.70981369278888 91.06521298037842,195.6666794107732 91.12935880810255,192.2539006834195 90.60015572950942,191.64767412989022 89.76625996932853,191.33333333333576 88.73992672603345,191.62522124082898 87.82584868121194,192.63559744758822 87.1202445764211,192.88257711536426 85.67696345306467,192.61314472744561 84.15350004500942,191.78239138374192 82.75832829246065,192.2539006834195 82.0527241876116,193.33162986633397 82.08479710150277,194.47670742878836 82.6941824646783,195.32989598195127 84.07331776036881,195.98100983149197 84.39404689893126,196.76683259070705 83.76862507878104,198.22620523565274 84.21764587273356,199.57330404766253 84.32990107120713,201.43676795200736 83.73655216488987,203.4573615732952 84.20160941575887,204.01863206025155 85.5647082545911,204.35539320071985 86.09391133312602,205.16361641362164 84.87514060671674,207.13925221044337 83.36771365557797,207.7454072337132 80.84998991811881,209.5863053340945 79.02183382847579,210.37204666355683 78.60488594841445,211.44962712610868 77.57855270506116,212.57209737039375 78.46055783610791,215.0863958960981 79.26238068233943,215.26598680562165 80.32078683952568,214.61496858999453 81.55559402290964,215.13129364657652 82.45363561081467,215.01904924175324 83.1592397155473,214.27823376362358 83.67240633728215,212.4149521138388 84.89117706363322,211.74147031275788 87.6815205689054,212.61699598058476 88.73992672603345,212.10066103656573 90.39168178947875,212.0108634477947 90.48790053103585,207.02700097318302 91.75478062825277,202.58177482218161 91.56234314513858,202.26746020514838 91.0812494372949,202.31236233939126 87.47304662881652,204.87175860514253 86.17409361776663,205.14116583597206 84.74684895126848,207.2066029068228 83.22338554327143,207.8127576191182 80.83395346120233,209.5863053340945 79.1180525700911,210.25979819010536 78.60488594841445,211.51697561141918 77.57855270506116,212.66189457535074 78.38037555140909,214.97415145295963 78.90957863000222,215.33333333333576 80.22456809796859,214.61496858999453 81.73199504904915,215.15374251598405 82.74229183548596,214.7496622787803" stroke="#4DD2FF" stroke-linecap="round" stroke-linejoin="round" stroke-width="0.5"><title>2025-05-23 6.4km</title><desc>1747958832000</desc></polyline><polyline fill="none" points="117.51384904445149,204.4541421783506 118.16336436267011,205.071187601774 119.78715265821666,205.33099560133996 120.59904680598993,206.370224045153 120.39027402515057,210.46213076314598 119.99592543905601,211.20905660079734 118.58090992446523,211.63123077484488 117.1890913854586,211.1441066446423 115.89006074890494,211.43638127263694 113.68634806212503,210.13737948270864 112.36412044998724,210.65698126489588 111.38984747265931,210.494605860702 111.66821118048392,209.55282577843172 110.9723019109806,207.73420274733508 111.18107469181996,206.43517563404748 110.43877147103194,205.20109164592577 110.76352913014125,203.252521652641 115.44931821152568,203.0576635536563 117.04990953148808,203.6422372507659 117.8850006548455,204.97375951023423 119.6711677799467,205.29851962078828 120.45986495201942,206.04546576729626 120.39027402515057,210.559556038992 120.04231939034071,211.20905660079734 118.67369782691821,211.59875587173156 117.35147021489684,211.17658162549196 115.84366679762024,211.40390633621428 113.63995411084034,210.16985463570745 110.83312005712651,210.75440644077025 109.3253166397335,211.98845434290706 109.81245312839746,212.34567723910732 110.18360473879147,214.29415393572708 112.45690835255664,215.33333333332848 113.43118132988457,214.65137249493273 114.0806966482196,213.31991808619932 113.98790874553379,212.28072767157573 112.78166601166595,210.3647054372559 113.98790874553379,210.16985463570745 115.8668637733208,211.40390633621428 117.35147021489684,210.98173165685148 117.16589440964162,210.494605860702 115.65809099248145,210.52708095262642 114.84619684459176,209.48787525577063 115.61169704108033,206.43517563404748 113.61675713513978,203.38242694089422 113.75593898899388,200.9466879988904 114.28946942905895,199.90742987515114 115.35653030883987,199.29036767325306 117.37466719059739,199.93990677768306 119.02165246172808,199.51770661251794 117.16589440964162,201.33640832907986 115.24054543068632,201.23897832154762 114.0806966482196,200.36210600422055 112.2945295231184,199.97238367453974 112.3409234744031,196.01016125643218 113.12962064647581,194.35379787329293 113.17601459776051,191.88546484835388 113.66315108642448,191.39829006542277 115.14775752811693,191.33333333332848 119.41600104782265,191.95042139168072 120.29748612246476,192.72989817806229 120.59904680598993,194.35379787329293 121.34135002689436,195.16574251337443 120.85421353811398,195.81529572591535 121.15577422163915,196.23750412263325 119.69436475564726,197.11439548555063 119.53198592597619,199.16045958573523 117.37466719059739,201.27145499622566 115.68128796806559,201.33640832907986 114.01110572111793,200.2646754967427 112.38731742557138,200.06981433188776 112.31772649870254,196.23750412263325 113.31519645161461,192.92476687463932 114.3590603559278,192.53502928139642 114.38225733162835,191.56068179865542 119.13763733999804,191.85298656843952" stroke="#4DD2FF" stroke-linecap="round" stroke-linejoin="round" stroke-width="0.5"><title>2025-05-20 5.0km</title><desc>1747754393000</desc></polyline><polyline fill="none" points="154.82008368207607,205.01047987438506 157.06276150629856,205.2867024485604 158.0,204.30019228800666 152.44351464440115,195.93447810580255 148.56066945614293,196.88154978939565 145.54811715497635,198.65730252038338 143.67364016734064,198.73622466190136 139.12133891216945,200.4725074233138 135.4728033472784,200.98549846425885 135.77405857748818,204.3396527459845 134.0,206.62835195439402 135.4728033472784,207.9305364274769 136.00836820085533,209.74569485042593 136.81171548122074,210.53489132720279 138.31799163192045,210.7716499348462 145.8493723849533,208.32513685862068 150.3347280335147,207.69377596254344 154.21757322188932,205.12886100352625 157.06276150629856,205.20778173473082 157.9330543933902,204.45803409427754 152.5774058578536,195.97393947534147 151.1046025104588,196.01340084060212 145.68200836819597,198.57838036175235 143.20502092048991,198.85460784193128 140.0920502091758,200.2752029832336 135.20502092060633,201.1828025172581 135.90794979094062,203.78720594246988 134.0,206.5888917458069 135.40585774066858,207.77269613466342 135.8410041842144,209.43001577828545 136.84518828464206,210.4954315442301 138.31799163192045,210.69273041628185 146.48535564856138,208.00945654814132 150.87029288709164,207.4570153427194 154.05020920489915,205.20778173473082 157.09623430960346,205.20778173473082 157.9330543933902,204.37911319974228 152.5774058578536,196.01340084060212 151.40585774055216,195.89501673183986 148.39330543938559,196.88154978939565 145.7824267782271,198.57838036175235 143.64016736391932,198.65730252038338 139.6234309624415,200.35412477215868 135.64016736403573,201.06442009826424 135.8410041842144,204.18181088817073 134.06694560672622,206.50997131559416 135.40585774066858,207.85161628967035 136.34309623437002,210.1797531255579 138.45188284525648,210.6532706503931 145.24686192476656,208.3645968780038" stroke="#4DD2FF" stroke-linecap="round" stroke-linejoin="round" stroke-width="0.5"><title>2025-05-14 5.0km</title><desc>1747227249000</desc></polyline><polyline fill="none" points="173.165698666533,215.07308807388472 173.65457257651724,214.62695242014888 174.36422825220507,211.98729260517575 176.49319527921034,212.32189963015844 177.64441448642174,207.71170064761827 177.42363272065995,204.75590271245164 175.20004493684974,199.19737672811607 175.29466569365468,197.95179590431508 176.84013805404538,197.11520666452998 179.14257646846818,196.72479694880894 180.62496832438046,195.70229107883642 181.83926803601207,195.8138374715345 182.296601693728,195.33046924318478 179.852232144156,191.42629104596563 179.2371972252149,191.33333333332848 177.5497937297332,191.94685330086213 176.49319527921034,192.67191950895358 175.57852796389489,192.6905109096988 173.71765308099566,193.43416527711088 171.80946781963576,193.71303482927033 171.935628828709,195.16314915275143 171.03673163958592,196.29720433043258 171.19443290075287,196.70620598763344 171.73061718902318,197.05943390265747 172.2668014774099,198.30502124072518 172.9449169007712,198.37938437625417 179.00064533331897,196.5574782257463 179.6787607567967,195.96256588159304 179.9310827748268,195.16314915275143 179.631450378336,194.12204268117785 178.57485192792956,192.9879730456014 177.28170158551075,192.5789624750032 176.1462525044335,192.8950161838584 174.63232039631112,194.60541433304024 172.47181311703753,194.97723774876795 171.2259731530212,196.09270313411253 171.2575134052895,196.70620598763344 172.9449169007712,198.007568374509 174.86887228814885,197.80306922817545 178.9533349549747,196.5574782257463 179.83646201802185,195.73947321783635 179.88377239642432,194.84709964544163 179.2371972252149,193.67585224864888 177.70749499095837,192.63473670143867 175.57852796389489,192.70910230837762 173.57572194584645,193.50853053560422 171.77792756742565,193.86176507067285 171.91985870257486,195.2375136576302 171.05250176560367,196.3715683410701 171.74638731521554,197.05943390265747 172.09333008993417,198.0633408263966 172.89760652236873,198.39797515510872 173.8438140899525,197.9146142474783 175.59429808997083,197.6171607006545 175.1842748107738,198.37938437625417 175.23158518905984,198.97428829380078 177.21862108103232,203.95652717990743 177.6917248648242,206.26169296364242 177.5182534774649,208.84567243057245 176.72974717110628,211.80139953010075 174.69540090078954,211.503970188729 173.89112446835497,214.21799371296947 173.2760895494721,214.47824027632305 173.023767531442,215.33333333332848 172.6925948827993,215.20321075322863" stroke="#4DD2FF" stroke-linecap="round" stroke-linejoin="round" stroke-width="0.5"><title>2025-05-06 7.1km</title><desc>1746539597000</desc></polyline><polyline fill="none" points="20.50386099057505,242.0 20.341247637523338,241.80831967691483 21.10553039686056,239.25895152606245 23.040629297902342,239.71899061497243 23.38211733935168,239.1247732319316 24.390320128120948,234.88852019769547 24.357797457487322,232.77993994964345 21.479541108827107,224.8054443464207 20.698997014202178,224.63291520687926 19.593226213590242,225.16967197447957 18.91025013080798,225.0354829360731 17.625604641856626,223.0418051668821 18.503716748266015,222.0832981977146 18.29231938929297,220.54967618494993 19.43061286053853,220.49216509937833 23.235765321587678,219.4186213849316 24.4716268046177,218.65180043524015 26.50429371756036,218.03834126892616 29.122368701500818,222.04495781027072 28.797141995397396,222.5625523350609 27.366144488740247,222.4283613081643 25.837578970124014,223.54022672718565 23.512208021769766,223.88528698022128 22.146255856205244,224.5370656117302 20.40629297879059,224.76710455230204 19.349306183983572,225.20801168087928 18.66633010125952,224.92046367884905 18.27605805400526,223.84694698550447 17.658127312432043,223.3868663974572 17.658127312432043,223.02263507868338 18.503716748266015,221.89159617719997 18.27605805400526,220.56884654260648 20.06480493734125,220.33880211265932 23.186981315666344,219.34193944037543 26.14654434088152,218.0 26.601861729403026,218.15336502558785 29.1061073661549,222.04495781027072 28.86218733660644,222.52421205212886 27.47997383575421,222.4283613081643 25.479829593386967,223.67441690598207 23.85369606304448,223.78943697777868 19.43061286053853,225.16967197447957 18.74763677775627,224.97797331688344 18.30858072458068,223.84694698550447 17.658127312432043,223.34852629419765 18.4874554129201,221.92993659796775 18.29231938929297,220.54967618494993 19.999759596190415,220.33880211265932 23.05689063324826,219.39945090196852 24.146400098572485,218.72848268062808 26.179067011456937,218.0 26.553077723481692,218.15336502558785 29.089846030867193,222.02578761347104 28.84592600131873,222.50504190742504 27.366144488740247,222.40919115312863 25.788794964260887,223.55939675901027 23.49594668642385,223.88528698022128 21.853551820735447,224.59457537510025 20.50386099057505,224.70959484533523 19.46313553111395,225.18884182872716 18.698852771834936,224.90129379536666 18.29231938929297,223.84694698550447 17.641865977086127,223.36769634687516 17.625604641856626,223.0418051668821 18.27605805400526,222.40919115312863 17.51177529466804,223.11848549882416 18.227274048083927,223.9619669445674 18.55250075418735,224.84378413225932 19.25173817219911,225.26552122498106 23.300810662738513,224.00030691418215 25.723749622993637,223.71275693828647 27.284837812185287,222.52421205212886 28.732096654130146,222.52421205212886 29.154891372076236,222.0832981977146 26.439248376409523,218.0 24.37405879277503,218.61345930006064 23.089413303823676,219.43779186584288 21.934858497290406,219.51447376866417 20.16237294918392,220.24295017808618 18.06466069497401,220.66469829964626 18.422410071769264,221.89159617719997 17.593081971223,222.9076145055442 17.560559300589375,223.40603644600196 18.21101271273801,223.9044569744001 18.503716748266015,224.8054443464207 19.121647489839233,225.18884182872716 21.479541108827107,224.7862744504091 24.0163094161544,231.3805954730051 24.30901345156599,232.87578505456622 24.37405879277503,234.8118449950416 23.21950398624176,239.5464760975592 21.00796238501789,239.27811984541768 20.52012232580455,241.59747108038573 20.259940961026587,241.80831967691483" stroke="#4DD2FF" stroke-linecap="round" stroke-linejoin="round" stroke-width="0.5"><title>2025-04-29 10.1km</title><desc>1745929124000</desc></polyline><polyline fill="none" points="65.07811825635144,227.7107766553745 64.67414760461543,227.36890521884197 64.90202848508488,226.1112977482553 64.33232628396945,227.9915988411376 63.89728096674662,228.0526470493205 62.60250323690707,233.1317415270605 62.457488131243736,233.16836877658352 55.85930081998231,231.86198947999947 47.44842468708521,228.07706632327609 42.0,226.91714493573818 47.40699179971125,228.0892759582639 54.04661199823022,231.20268947578734 55.93180837284308,231.9108263630842 66.0,233.8887022517374 62.55071212776238,233.14395061154937 62.76823478634469,232.25268394924205 63.379369874775875,232.1061736828342 64.76737160113407,226.27002568271564 65.03668536897749,226.1723469804274 64.67414760461543,227.12471069728053" stroke="#4DD2FF" stroke-linecap="round" stroke-linejoin="round" stroke-width="0.5"><title>2025-04-22 6.3km</title><desc>1745328842000</desc></polyline><polyline fill="none" points="81.18480794259813,241.2947395533265 81.58368435967714,241.11842400951718 82.4146768952487,238.39530644081242 84.54201778623974,238.70876092254184 85.65554778388469,234.6534013790224 85.47272942611016,230.55876684255782 83.16257017722819,224.89665448905725 83.11271062510787,223.91703218511248 84.35919942846522,222.89821932771883 86.98513584077591,222.46718138114375 88.8797988218721,221.23283972717763 90.12628762522945,221.35039644023345 90.64150299725588,220.89976195619965 89.52797299955273,219.155991790627 88.03218643559376,219.92011787733645 86.83555718435673,218.52901411462517 85.55582867964404,218.0 83.16257017722819,218.1959313350817 81.53382480755681,218.9208754183055 79.34000451368047,219.29314286580484 79.67240152787417,220.6646478640323 78.7084501866484,222.05573510464455 79.42310376727255,222.66310784856614 79.78874048293801,223.6819220380712 80.5366337649175,224.07377211240237 83.26228928152705,223.42721903185884 84.84117509901989,222.74147837577038 86.9186564378906,222.46718138114375 88.63050106115406,221.31121087781503 90.12628762522945,221.33080366016657 90.6248831464909,220.8605762955267 89.54459285031771,219.155991790627 88.04880628630053,219.8809320031869 86.83555718435673,218.5094210270472 85.65554778388469,218.01959314312262 83.07947092369432,218.1959313350817 81.56706450902857,218.90128237342287 79.75550078152446,219.17558480775915 79.50620302086463,219.37151486183575 79.63916182651883,220.72342641589057 78.7084501866484,221.95777156672557 79.3898640658008,222.66310784856614 79.73888093075948,223.70151456203894 80.45353451138362,224.1129570728226 84.87441480054986,222.72188574721804 86.85217703512171,222.50636669172673 88.64712091191905,221.31121087781503 90.19276702799834,221.31121087781503 90.60826329590054,220.82139062634087 89.51135314884596,219.1168057499308 87.96570703270845,219.86133906285977 86.81893733370816,218.5094210270472 85.80512644024566,218.07837255964114 83.57806644507218,218.09796569419268 81.40086600190261,218.9208754183055 79.7222610800527,219.17558480775915 79.48958317009965,219.35192186603672 79.60592212510528,220.89976195619965 78.69183033599984,222.0165496958798 79.43972361792112,222.70229311649746 79.77212063217303,223.70151456203894 80.32057570567122,224.05417962899082 87.0017556915409,222.21247665429837 87.81612837628927,221.54632412455976 88.09866583836265,220.54709070270474 87.86598792852601,219.80256022916 87.05161524366122,218.8033171169227 85.77188673889032,218.0391862841352 83.5614465943072,218.1175588266633 81.33438659901731,218.97965454023506 79.47296331939287,219.29314286580484 79.67240152787417,220.62546215212205 78.7084501866484,221.97736427855853 79.5228228715132,222.9765897524776 79.20704570802627,223.58395938602916 80.03803824353963,225.28850191636593 80.68621242133668,228.14896226869314 80.96874988341006,231.36202785796195 80.90227048052475,233.47791775065707 79.27352511091158,241.4514643359871 80.45353451138362,242.0" stroke="#4DD2FF" stroke-linecap="round" stroke-linejoin="round" stroke-width="0.5"><title>2025-04-15 8.8km</title><desc>1744723077000</desc></polyline><polyline fill="none" points="127.1756115371245,227.4360449619562 126.47900693683187,227.389566408674 126.99160277476767,225.88675166778557 126.38700255576987,228.3965983299422 126.53158086899202,228.78391640131304 125.7298284045537,231.44863614543283 124.95436290622456,231.4641285561229 124.96750638919184,232.11480828208732 124.07374954374973,235.0118461751117 115.35962029942311,233.27672896142758 105.37057320185704,228.6444820171164 103.33333333331393,228.0557575547282 105.51515151519561,228.7529309944075 115.34647681633942,233.29222117307654 124.1000365097425,234.996354150775 124.38919313624501,233.83444751666684 125.04636728734476,233.75698673696024 125.61153705732431,232.11480828208732 127.33333333331393,224.9881538248883 126.87331142759649,227.5444948606455" stroke="#4DD2FF" stroke-linecap="round" stroke-linejoin="round" stroke-width="0.5"><title>2025-04-11 5.1km</title><desc>1744377642000</desc></polyline><polyline fill="none" points="140.90602817037143,242.0 141.71775051066652,241.10176658626006 141.93310541723622,241.76567867372069 142.74482775764773,241.10176658626006 143.65594467014307,238.3484578654752 145.79292797431117,238.83663625462214 146.17394050146686,238.69994643966493 147.1678862242843,234.42345530509192 147.23414927255362,232.08012922515627 146.82000522135058,229.99063763524464 144.43453548644902,224.79609505583358 144.36827243829612,223.91730416737846 145.52787578164134,222.94086479335965 148.1949634712073,222.51122978357307 150.0503288205946,221.24184760186472 151.25962945009815,221.35902171832277 151.87256264593452,220.85126666024735 150.5638674440561,218.8007027523272 149.18890919408295,219.60140192732797 147.56546451349277,218.23435239536047 146.10767745325575,218.1562349642918 145.329086637008,218.52729245857336 143.75533924245974,220.24586451872892 141.5023956040386,220.57785949471872 140.1937004022766,221.71054360816197 140.12743735406548,222.081593743962 140.80663359805476,222.64793194383674 141.08825155283557,223.56578660548257 141.83371084497776,223.9954190874414 148.37718685384607,222.1597094641038 149.27173800446326,221.30043466965435 149.3711325766053,220.34351016372966 148.39375261584064,218.82023204302823 146.82000522135058,218.0 144.69958767917706,218.11717623598815 142.62886742322007,218.917878464752 140.8397651221021,219.23034665685555 140.9888569805771,220.59738859183562 140.12743735406548,221.65195667441003 140.12743735406548,222.02300693147117 140.80663359805476,222.58934531650448 141.5189613660914,223.97589036056888 142.2478548961226,223.9954190874414 143.22523485700367,223.48767149815103 144.11978600762086,223.56578660548257 146.73717641102849,230.4983668037894 147.05192588997306,232.31446321166004 146.9525313176564,234.18912407557946 146.02484864299186,238.15318613764248 143.88786533888197,237.8212237120606 143.04301147448132,240.39879816675966" stroke="#4DD2FF" stroke-linecap="round" stroke-linejoin="round" stroke-width="0.5"><title>2025-04-08 5.6km</title><desc>1744119870000</desc></polyline><polyline fill="none" points="173.27858759177616,239.9758167482214 173.92835618148092,239.02754230282153 174.4234179640771,236.91214149321604 176.48101849813247,237.29510396601108 177.5794368283823,233.06423183705192 177.6258488704916,231.3499687261792 177.33190593705513,229.67216230045597 175.22789336089045,224.456265362649 175.22789336089045,223.4531896262488 176.3881944139721,222.5960110520391 178.81709128501825,222.2312528805487 180.42604207852855,221.13697359681828 181.81840334209846,221.13697359681828 182.18969967914745,220.6627836855332 180.96751590329222,218.72953399000107 179.466859874723,219.31315889261896 178.0435572495917,218.1276686778001 175.75389650493162,218.07295354212692 173.63441324804444,218.8572021113796 171.87075564742554,219.18549111908942 171.96357973164413,220.6627836855332 171.1436336542247,221.64763815286278 171.74699020176195,222.34068041548016 172.10281585803023,223.3620006248966 173.06199806189397,223.6902807973238 173.91288550075842,223.23433593950176 175.35165880655404,223.07019548666722 176.75949075090466,222.4501078788453 178.90991536929505,222.14006321349007 180.53433684346965,221.06402139023703 180.28680595214246,221.55644816785934 180.68904365052003,220.95459302070958 181.88028606498847,221.04578333365498 182.14328763703816,220.58983127222746 181.1841054331744,219.0395849729539 179.8226855309913,219.75087623405852 178.73973788140574,218.49243579206814 177.59490750910481,218.0 175.64560173999052,218.05471515958197 173.74270801298553,218.82072551522288 171.91716768953484,219.11253806189052 171.90169700881233,220.73573606702848 171.19004569627577,221.46525813316111 171.1436336542247,221.83001797388715 171.76246088248445,222.37715624454722 171.93263837031554,223.1431468189112 172.7680551284575,223.6720430268906 173.86647345864912,223.21609811933013 175.28977608372224,223.07019548666722 176.58931326313177,222.48658368403267 177.8269677197095,222.32244249797077 177.9662038460956,223.3620006248966 181.1376933910651,229.79982207609282 177.9043211232056,230.9305186962156 177.7186729547684,233.79370017712063 176.92966823861934,236.8756688310823 176.52743054029997,237.1856862060813 175.41354152932763,242.0 171.1436336542247,240.9058499297389 171.79340224392945,238.11573488646536 172.00999177381163,238.0063176627882 171.63869543676265,239.793456695028" stroke="#4DD2FF" stroke-linecap="round" stroke-linejoin="round" stroke-width="0.5"><title>2025-04-02 6.9km</title><desc>1743601029000</desc></polyline><polyline fill="none" points="19.560278889606707,268.6666666666715 20.13425585196819,268.14928698560107 20.927694594021887,265.30367254938756 23.578117626078892,265.9404572516796 24.675426524714567,260.90581759989436 24.33779301738832,257.18447302315326 21.754896686878055,251.29384748381563 21.73801501141861,250.7565174564661 22.24446527234977,250.0400749610708 23.139194066578057,249.6022476082726 26.00907887838548,249.08481392911926 27.342731232056394,248.01013929639885 27.866063168330584,247.93053351648268 27.88294484373182,247.21407993606408 27.207677829195745,245.84086938467226 26.66746421752032,245.88067273440538 26.144132281304337,245.2836215783318 25.7052087218035,245.3831302398612 24.726071550743654,244.78607745736372 23.679407678195275,244.70647027221275 22.598980455019046,245.0846040926117 21.147156373772305,246.87575365728117 18.952538576559164,247.19417840757524 17.31501606630627,248.5076746346167 18.29415323730791,250.3385930089862 19.408343811286613,250.79631973494543 23.27424746955512,249.50274124533462 25.77273542335024,249.1445178900467 27.680364739324432,247.831026242784 28.94649039162323,247.99023785462487 29.385413951124065,247.5126026027574 28.01799824659247,245.46273713007395 26.515529139258433,246.27870575412817 25.60391866962891,245.22391635538952 24.42220139427809,244.66666666667152 22.210701921663713,244.76617566432105 20.201782553398516,245.6020491044619 18.057809782214463,245.96027940770728 18.192863185191527,247.53250409649627 17.281252715503797,248.70668839049176 18.024046431528404,249.40323482827807 18.361679938796442,250.3982965600735 19.357698785199318,250.8162208708818 20.387480982404668,250.2987906307826 21.366618153406307,250.23908704724454 22.514572078187484,253.48295347946987 23.409300872473978,254.25908475996403 26.36359406093834,253.6421601648326 28.22057835099986,257.542680611441 24.641663173912093,258.75660110331955 24.45596474496415,261.8013170107879 24.084567887010053,262.25901501454064 23.139194066578057,265.6220651779731 22.936613962287083,265.7812612841517 20.927694594021887,265.4230698501342 20.303072605573107,267.8109994788829" stroke="#4DD2FF" stroke-linecap="round" stroke-linejoin="round" stroke-width="0.5"><title>2025-03-25 6.1km</title><desc>1742909450000</desc></polyline></svg>