<?xml version="1.0" encoding="utf-8" ?>
<svg baseProfile="full" height="300mm" version="1.1" viewBox="0,0,200,300" width="200mm" xmlns="http://www.w3.org/2000/svg" xmlns:ev="http://www.w3.org/2001/xml-events" xmlns:xlink="http://www.w3.org/1999/xlink"><defs /><rect fill="#222222" height="300" width="200" x="0" y="0" /><text fill="#FFFFFF" style="font-size:12px; font-family:Arial; font-weight:bold;" x="10" y="20">Over 5km Runs</text><text fill="#FFFFFF" style="font-size:4px; font-family:Arial" x="10" y="280">Runner</text><text fill="#FFFFFF" style="font-size:9px; font-family:Arial" x="10" y="290">Elliont</text><text fill="#FFFFFF" style="font-size:4px; font-family:Arial" x="65" y="280">SPECIAL TRACKS</text><rect fill="yellow" height="2.6" width="2.6" x="65" y="283" /><text fill="#FFFFFF" style="font-size:3px; font-family:Arial" x="70" y="285.5">Over 20.0 km</text><rect fill="red" height="2.6" width="2.6" x="65" y="287" /><text fill="#FFFFFF" style="font-size:3px; font-family:Arial" x="70" y="289.5">Over 40.0 km</text><text fill="#FFFFFF" style="font-size:4px; font-family:Arial" x="120" y="280">STATISTICS</text><text fill="#FFFFFF" style="font-size:3px; font-family:Arial" x="120" y="285">Number: 60</text><text fill="#FFFFFF" style="font-size:3px; font-family:Arial" x="120" y="290">Weekly: 2.1</text><text fill="#FFFFFF" style="font-size:3px; font-family:Arial" x="141" y="285">Total: 406.8 km</text><text fill="#FFFFFF" style="font-size:3px; font-family:Arial" x="141" y="290">Avg: 6.8 km</text><text fill="#FFFFFF" style="font-size:3px; font-family:Arial" x="167" y="285">Min: 5.0 km</text><text fill="#FFFFFF" style="font-size:3px; font-family:Arial" x="167" y="290">Max: 11.4 km</text><polyline fill="none" points="34.428571428579744,46.05764981113316 28.718984962411923,44.871202830196125 21.529135338350898,41.660739787585044 11.285714285710128,39.656635903149436 21.30075187969487,41.67071034399123 22.33270676693064,41.99973809619405 28.515977443603333,44.871202830196125 34.37781954885577,46.05764981113316" stroke="#4DD2FF" stroke-linecap="round" stroke-linejoin="round" stroke-width="0.5"><title>2025-10-28 5.4km</title><desc>1761648009000</desc></polyline><polyline fill="none" points="60.142857142869616,45.53898521020892 55.473806651716586,44.601190512257745 49.48569705322734,41.93581569608068 40.71290711700567,40.21643450480042 39.44270205067005,40.17530050408823 37.73978976390208,40.31515601512365 37.0,40.17530050408823 37.18843701534206,40.265795276085555 37.76072721008677,40.3645167219147 39.351973117358284,40.21643450480042 40.69894881956861,40.2493416892612 49.36007237638114,41.95226891554921 50.30923660175176,42.27310597874748 55.480785800435115,44.65054841818346 58.98431845597224,45.35800819260476" stroke="#4DD2FF" stroke-linecap="round" stroke-linejoin="round" stroke-width="0.5"><title>2025-10-17 6.4km</title><desc>1760694739000</desc></polyline><polyline fill="none" points="85.85714285713038,50.823056854824245 83.90980040366412,50.463341598180705 78.19856470060768,47.859639256465016 77.39201614711783,47.61125525270472 68.36739179189317,45.88111042649689 64.98860731106834,45.949631737632444 64.00040367795737,45.512807356186386 63.49176945502404,45.033154259792354 62.888674590707524,43.834008717749384 62.77968154291739,43.14877448276093 65.94774613142363,40.58765865717578 67.94595200716867,38.39479753913474 70.00228750839597,36.56165575955674 72.58178963893442,34.87409960252262 70.10401435301173,36.4588614968452 68.08400986768538,38.23204368968436 66.05673917918466,40.43347510892636 62.8014801524987,43.09738167438627 62.71428571428987,43.27725635671959 62.808746355673065,43.66270071885083 63.477237048675306,45.05028477789165 64.54536891679163,45.83828457674099 65.2283920161426,46.035283292570966 68.35285938548623,45.906805925187655 77.46467817897792,47.67977505623276 78.32209015474655,47.95385367336712 83.69181430817116,50.43764758832549 85.54469612022513,50.8401861117527 85.62462435523048,50.703151952089684" stroke="#4DD2FF" stroke-linecap="round" stroke-linejoin="round" stroke-width="0.5"><title>2025-10-12 10.0km</title><desc>1760258276000</desc></polyline><polyline fill="none" points="110.95701643489883,45.72274678230315 105.92035398233566,44.71243898902321 99.26042983567459,41.74402911939251 89.97597977242549,39.96471994510648 88.42857142857974,39.92001318776602 90.15802781289676,40.03625070623093 99.6169405815308,41.90496975577116 103.59165613149526,43.77364626744384 103.90265486727003,43.80940999635641 104.8204804045672,44.34586406095332 106.17825537297176,44.85549217548396 110.91150442478829,45.79427252651658 111.0404551201209,45.72274678230315 111.12389380531386,45.052189899855875 111.57142857144936,45.02536751066509" stroke="#4DD2FF" stroke-linecap="round" stroke-linejoin="round" stroke-width="0.5"><title>2025-10-09 6.0km</title><desc>1760007351000</desc></polyline><polyline fill="none" points="137.28571428573923,46.09081330116169 131.24209636513842,44.90713863061683 123.48216398985824,41.43135741948936 114.14285714284051,39.623472413128184 123.9568892645766,41.66810181589972 128.27506339811953,43.71268890768988 128.75891800504178,43.788014992496755 129.19712595100282,44.15388373031601 130.4661031276337,44.69192353075778 130.60304311075015,44.63811968258233 131.2055790363229,42.55050775037671 132.392392223177,42.884098185022594 132.64801352494396,42.690400650426454 134.29129332205048,42.92714203004289 134.7386306001572,41.90484564501821" stroke="#4DD2FF" stroke-linecap="round" stroke-linejoin="round" stroke-width="0.5"><title>2025-10-05 5.0km</title><desc>1759662272000</desc></polyline><polyline fill="none" points="162.9999999999709,44.900960912818846 162.81862964620814,45.636362637756974 158.2480967308511,44.712833783836686 157.00026869677822,44.251065283642674 155.90479175996734,43.66102380371012 151.7695476936351,41.86521810326667 143.01298701297492,40.14633703217987 141.38065382890636,40.07792307652562 139.85714285713038,40.21475092824403 142.5776981638919,40.13778529098636 151.297984773817,41.83956343855971 152.5167935512436,42.215831014364085 156.89870129866176,44.302373028884176 158.0884908195294,44.75558998911583 160.07630989697645,45.0976387930059 160.24317062250338,44.78979493655061 160.14885803850484,44.65297505738272 160.22140618003323,44.473398604204704 160.74375279890955,44.46484733430407 161.57805642631138,44.68718004953553" stroke="#4DD2FF" stroke-linecap="round" stroke-linejoin="round" stroke-width="0.5"><title>2025-10-02 6.2km</title><desc>1759399141000</desc></polyline><polyline fill="none" points="187.76477352820802,51.256000815359585 187.49434284231393,52.24060801126325 187.16982601920608,52.24769146226754 187.0616537448368,52.77894808939163 183.56408354043378,52.12727269023162 182.2960641020618,51.71643049605336 178.6903216232895,49.99511515917402 177.66268501686864,49.633845662632666 170.50528619647957,48.24541872510599 169.4055347404792,48.17457982132328 167.73487405863125,48.29500591184478 167.09184998329147,48.1674959266893 166.6110843194474,47.89830735923897 166.21445264678914,47.52285828596359 165.90195496525848,47.00572676826414 165.57142857142026,46.021040316576546 166.45483547868207,45.192191961708886 168.21563972247532,43.80367018915422 170.0245205326646,41.87669288754114 171.61705679411534,40.466846111281484 173.85862670178176,38.9932047418406 174.11703824609867,38.87276142252813 174.66390918867546,38.85150669595896 174.92833030378097,38.70980834122747 175.76366064470494,37.739166307284904 176.30452201652224,36.48510368107236 176.93552695031394,35.9182877758285 179.78406350853038,34.34534774981876 183.04726045179996,32.93533762489096 183.04726045179996,33.40298256395181 183.66624624398537,33.920222289831145 184.5376340096991,35.88994685081707 187.0736728864431,40.73606544517679 188.3236636123911,43.690320164001605 188.64818043546984,44.90173832906294 188.71428571428987,45.8793575857344 188.61813258149778,46.95613859844161 188.39577846197062,47.678705334226834" stroke="#4DD2FF" stroke-linecap="round" stroke-linejoin="round" stroke-width="0.5"><title>2025-09-30 10.1km</title><desc>1759229695000</desc></polyline><polyline fill="none" points="34.414742413238855,72.32838792013354 29.533100004249718,71.33407804872695 24.603056041669333,69.04385505512619 23.628110461402684,68.70968854536477 15.199325622117613,67.07143601652206 13.83716761280084,67.03068300885934 12.219172820012318,67.17739373258519 11.285714285710128,66.94102631382702 12.122369712771615,67.22629724325816 14.73605360876536,67.05513481611706 15.538136497489177,67.15294196527248 23.614281446061796,68.73413980396435 24.298817704548128,68.93789998188731 27.956592257425655,70.6820644041436 29.8649963720527,71.4644800959868 34.2626232446637,72.34468797189038 34.428571428579744,72.29578780593874" stroke="#4DD2FF" stroke-linecap="round" stroke-linejoin="round" stroke-width="0.5"><title>2025-09-29 6.6km</title><desc>1759141711000</desc></polyline><polyline fill="none" points="58.45703254273394,79.79763785851537 58.302151130716084,80.53488909002044 57.795808052964276,80.44361082337127 54.4420297848701,79.79061637768609 49.84324324323097,77.68413760402473 48.622062879177975,77.32602936771582 41.497517926065484,75.96379554811574 39.22195256478153,76.07614581822418 38.70965250962763,76.01997070765356 37.911417539959075,75.60567775530217 37.661224489769666,75.34586556235445 37.3216767788108,74.7841058897975 37.0,73.82910321110103 37.29189189185854,73.49204006404034 39.8831770545803,71.41344504148583 41.31880860449746,69.81934195546637 43.05824600107735,68.28840407870302 45.196800882491516,66.87681904034253 46.00099282953306,66.74338402922149 46.269056811899645,66.59590290598135 46.954109211219475,65.88658421686705 47.63320463319542,64.41876134156337 48.24677330389386,63.82881354114943 52.279646993934875,61.72181301563978 55.75256480969256,60.36627292020421 56.67589630445582,60.1485410236055 58.83827909542015,59.361890620064514 60.14285714284051,58.75082519569696 56.93204633204732,59.9869975280526 55.65725317155011,60.32413132021611 54.465857694420265,60.76661674516072 54.299062327627325,61.14588754772558 54.424158852692926,61.45492136570101 54.78753447323106,61.60943771884922 55.13899613896501,62.234522820108396 56.37804743516608,64.93847278592148 58.314065085491166,68.59740364373283 58.314065085491166,68.78701627968985 58.754881411994575,69.57355162772001 59.54715940429014,71.49069132603472 59.76161059018341,72.29826057591708 60.05350248204195,72.3684835107706" stroke="#4DD2FF" stroke-linecap="round" stroke-linejoin="round" stroke-width="0.5"><title>2025-09-26 11.4km</title><desc>1758886655000</desc></polyline><polyline fill="none" points="85.85714285715949,73.62289859772136 81.46317558106966,72.72915312040277 76.56370764493477,70.46036345522589 75.77305276636616,70.2159103575541 67.87946553589427,68.69569853179564 66.58979077491676,68.65750183039927 65.13161579391453,68.77973120161914 64.42521102534374,68.67278051344329 63.44661359366728,67.94703939242027 63.10313237589435,67.42755692557694 62.75965115815052,66.55665121563652 62.785574268957134,66.22814888429275 63.433652038278524,65.66281568799604 62.79205504662241,66.18995083891059 62.71428571428987,66.42677838484815 63.401248149806634,67.95467881174409 63.75769092293922,68.31373058168538 64.36688402609434,68.64986248761124 65.11865423852578,68.81028851115843 67.03696443571243,68.66514117232873 67.89242709128303,68.71097720653052 75.33884066087194,70.15479694998066 76.55074608957511,70.47564174557192 81.45021402571001,72.76734760451654 83.11577389287413,73.11109702548129" stroke="#4DD2FF" stroke-linecap="round" stroke-linejoin="round" stroke-width="0.5"><title>2025-09-25 7.3km</title><desc>1758798919000</desc></polyline><polyline fill="none" points="111.57142857142026,70.7534659341909 111.13605442180415,72.28497076032363 106.68027210887522,71.4189928875494 101.48299319730722,69.02146397621254 100.17687074831338,68.62053178945644 92.14965986393509,67.08895073454187 90.77551020408282,67.06489423344465 89.31972789115389,67.20121430240397 88.42857142857974,67.00074352539377 89.19047619050252,67.23328957606282 90.9251700680179,67.10498839757201 92.37414965988137,67.17715783799213 100.51700680275098,68.71675571342348 101.25170068029547,68.94127771354397 106.61224489795859,71.42701124789892 110.5374149660347,72.196769776172" stroke="#4DD2FF" stroke-linecap="round" stroke-linejoin="round" stroke-width="0.5"><title>2025-09-23 6.7km</title><desc>1758623965000</desc></polyline><polyline fill="none" points="137.28571428573923,72.35558083016076 132.57553797887522,71.43589771484403 127.221112633124,68.97210566345166 126.02567274979083,68.59240471488738 117.47147717734333,66.93013643295126 116.13287084089825,66.88794641853019 114.14285714286962,67.02295438384317 117.24241085237009,66.93013643295126 125.78228977954132,68.55865342941979 127.09226282534655,68.92147897782706 132.67575449607102,71.48652275741915 137.28571428573923,72.39776786717994" stroke="#4DD2FF" stroke-linecap="round" stroke-linejoin="round" stroke-width="0.5"><title>2025-09-22 6.4km</title><desc>1758538508000</desc></polyline><polyline fill="none" points="162.02021129993955,79.88468530259706 157.98943500229507,79.08797186731681 153.23932016536128,76.93168164844974 152.32774460266228,76.6319883718752 144.99173174094176,75.19928982641432 143.5654570509796,75.13350191382779 142.13298116673832,75.25776791679527 141.53146531924722,75.14812145553151 140.9485530546517,74.84111041088909 140.51446945336647,74.43907001420303 139.85714285713038,72.91860455241113 139.96876435462036,72.73585398053547 142.64768029397237,70.59398017694184 144.36541111621773,68.71521546559961 146.23197060174425,67.06302870304353 148.47680293984013,65.60819339626323 149.33256775376503,65.49122034297034 149.66123105192673,65.23534107779415 150.35576481398311,64.40189898996323 150.95107946716598,63.07129454482492 151.60220486909384,62.47178281797824 154.39274230593583,60.929112155063194 157.91502067065449,59.401028983113065 157.9212218649336,59.86165102108498 158.41111621496384,60.23453321100533 158.88240698206937,61.06802708074247 159.1180523656367,61.74797493467486 160.66214974733884,64.73820142945624 160.69935691315914,64.97946083657007 161.5861276986543,66.44893121554196 163.0,69.61439735846216" stroke="#4DD2FF" stroke-linecap="round" stroke-linejoin="round" stroke-width="0.5"><title>2025-09-21 9.0km</title><desc>1758451095000</desc></polyline><polyline fill="none" points="187.38050734309945,78.26615042859339 187.0801068090659,79.54084303693526 186.971962616808,79.56916925555561 183.03070761013078,78.79727538532461 178.3564753003884,76.65150391930365 177.58144192252075,76.4178017608574 170.47396528703393,75.0368173135721 167.3317757008772,75.0368173135721 166.77303070758353,74.80310935129091 166.22029372493853,74.31444453370932 165.91989319087588,73.83994039899699 165.57142857142026,72.82718118434423 166.05807743652258,72.31017214596068 168.31708945255377,70.53247955768165 170.13150867819786,68.57766983503825 171.63351134842378,67.26734780002153 174.0126835780684,65.70909261635825 174.71562082774471,65.63826194760622 175.02202937245602,65.43285257170646 175.74299065416562,64.57579265309323 176.3137516688439,63.28663991931535 176.96862483306904,62.69872111621953 179.80440587448538,61.1403563860149 183.05473965287092,59.71654503015452 183.06675567422644,60.212403271776566 183.5473965286801,60.53116728612804 183.841789052065,61.08368787346262 184.7009345794213,62.99622286207159 186.67757009342313,66.73612863899325 188.32977303068037,70.49706686089485 188.6481975967763,71.72941736393841 188.71428571426077,72.5438890697842 188.59412550064735,73.7903651403467 188.25767690251814,74.9872429675379" stroke="#4DD2FF" stroke-linecap="round" stroke-linejoin="round" stroke-width="0.5"><title>2025-09-18 10.1km</title><desc>1758194958000</desc></polyline><polyline fill="none" points="25.947596675134264,97.72994445372024 25.880685631680535,97.91725359671545 26.39088233775692,98.06512896213826 34.428571428579744,99.63259298585035 19.59104755023145,96.68494949102023 13.318137229594868,93.76678647209337 11.285714285710128,93.22454987129458 13.276317827461753,93.79636292053328 19.691414115339285,96.72438348221476 24.584284165437566,97.71022767928662" stroke="#4DD2FF" stroke-linecap="round" stroke-linejoin="round" stroke-width="0.5"><title>2025-09-16 5.4km</title><desc>1758020593000</desc></polyline><polyline fill="none" points="60.135792778630275,99.10985070835159 55.43092621664982,98.16893249398709 50.02668759811786,95.67919038992841 48.93877551020705,95.37108957586315 40.34144427001593,93.72231276737875 37.0,93.78893070150662 37.43799058086006,93.86387580798328 39.25353218210512,93.71398552152095 40.49686028258293,93.75562174167862 49.2001569858694,95.42937901429104 50.118524332821835,95.74580661889195 55.487441130302614,98.21056628812221 60.142857142869616,99.1431573356167" stroke="#4DD2FF" stroke-linecap="round" stroke-linejoin="round" stroke-width="0.5"><title>2025-09-15 6.5km</title><desc>1757932870000</desc></polyline><polyline fill="none" points="85.85714285713038,106.88089043473155 81.58750599902123,106.02557998204429 76.54039353702683,103.7116074493606 75.87953927370836,103.50540817170986 67.78731402973062,101.9321640904891 66.5627899536048,101.90161531235208 65.13093904973357,102.03144752752269 64.50247960325214,101.93980128295516 63.81570948645822,101.58085233828024 63.43992961125332,101.22190155596036 63.07062869943911,100.61091727474559 62.759638457820984,99.81662974902429 62.71428571428987,99.5798692263852 62.824428091495065,99.427120077773 65.56502959522186,97.18166918732459 67.39209726444096,95.19583636072639 69.3098704207514,93.50019611298922 71.7783554631169,91.91908919534035 72.5817469204776,91.81979143532226 72.93808990559774,91.5677272588 73.61190209566848,90.81916769409145 74.25979843226378,89.35257883964368 74.93361062227632,88.6956592962888 78.004639257706,87.01513941535086 80.28523436249816,85.9762524224061" stroke="#4DD2FF" stroke-linecap="round" stroke-linejoin="round" stroke-width="0.5"><title>2025-09-13 7.0km</title><desc>1757768754000</desc></polyline><polyline fill="none" points="111.57142857144936,99.24809483383433 106.45540081048966,98.24305741984426 100.82626112067373,95.64591231398663 99.90567795425886,95.34349963860586 90.66211747174384,93.54678947526554 88.42857142857974,93.55568417741597 90.78284969029482,93.61794706523506 99.6340304625628,95.32571062284842 100.71307466583676,95.64591231398663 106.50067539242445,98.29642254920327 111.54124551679706,99.31035338188667" stroke="#4DD2FF" stroke-linecap="round" stroke-linejoin="round" stroke-width="0.5"><title>2025-09-11 6.0km</title><desc>1757587445000</desc></polyline><polyline fill="none" points="135.07465064077405,106.12533690417331 131.13930924623855,105.35109203142929 126.77583085943479,103.32556747212948 125.77293461735826,103.02830074961093 118.82890449641855,101.68712659828452 117.62073709361721,101.64564653354319 116.26008254289627,101.75625997925818 115.58562015785719,101.63181983929098 114.75280573454802,100.98196181087405 114.4067772065755,100.36666456620151 114.14285714286962,99.50247296995803 116.72927376729785,97.35231321462197 117.5210339584446,96.59870300394687 118.4476866266341,95.50629800150637 120.15436970529845,94.00593895906059 121.41532112084678,93.26611752319877 122.26573021506192,92.63691680359625 123.02230106436764,92.51245877917972 123.36246470204787,92.31194255968148 124.03692708711606,91.53752914116194 124.61168633698253,90.22377047128248 125.25682427050197,89.65677148282703 127.90775468829088,88.18393335770088 131.20382303962833,86.73180595297163 131.19795814930694,87.22276703330135 131.6847440446145,87.52010781178979 132.01904279197333,88.12861482753215 132.67004561581416,89.64985682973929 135.27405691114836,94.6904389597621 135.4148142784543,95.174424402765 135.59076098760124,95.36801754630142 136.35906161752064,97.2486059185394 136.55260299760266,97.99529466751846 136.8341177322145,98.07134580634738 136.91622619651025,99.42642354615236 136.61125190064195,101.44515917183162 136.8399826225359,101.61107979222288 137.27398450509645,101.6940399397572 137.28571428571013,101.81847995777207" stroke="#4DD2FF" stroke-linecap="round" stroke-linejoin="round" stroke-width="0.5"><title>2025-09-09 10.0km</title><desc>1757415422000</desc></polyline><polyline fill="none" points="162.96812278631842,99.47210728898062 157.46930342385895,98.35429761496925 151.62780401410419,95.63955666621769 150.55991735536372,95.30138225857081 140.8293978748261,93.40382348750427 139.85714285713038,93.38503556816431 142.9253246752778,93.80776276329561 150.7272727272357,95.36713849724038 157.74822904364555,98.45762516725517 162.9999999999709,99.47210728898062" stroke="#4DD2FF" stroke-linecap="round" stroke-linejoin="round" stroke-width="0.5"><title>2025-09-08 5.7km</title><desc>1757333196000</desc></polyline><polyline fill="none" points="188.71428571426077,99.41806339730829 183.5229941291327,98.43716556916479 177.46780821913853,95.64388078160118 176.58806262229336,95.34492852619587 167.06144814088475,93.48579580005753 165.57142857142026,93.38302849412867 166.6968688845227,93.45776836519508 176.35821917807334,95.32624397563632 177.56291585121653,95.71861868263659 183.4595890410419,98.446507506138 188.64295499018044,99.474114363009" stroke="#4DD2FF" stroke-linecap="round" stroke-linejoin="round" stroke-width="0.5"><title>2025-09-04 5.8km</title><desc>1756983645000</desc></polyline><polyline fill="none" points="34.428571428579744,125.91104938605713 29.87371222526417,125.00122612973792 24.428743131866213,122.51759854939155 21.48025412086281,121.82905362054589 15.054773351643234,120.60769057020661 13.740470467018895,120.58309916429425 12.148008241754724,120.71425323637231 11.285714285710128,120.51752204251534 11.682091346156085,120.6978589898572 12.2314560439263,120.77163307101728 13.740470467018895,120.62408483635954 15.138221153873019,120.66507048611675 23.85851648353855,122.3618567953672 24.79035027473583,122.6979307040965 29.887620192341274,125.05860269603 32.74570741754724,125.57498982451943" stroke="#4DD2FF" stroke-linecap="round" stroke-linejoin="round" stroke-width="0.5"><title>2025-09-02 6.2km</title><desc>1756809719000</desc></polyline><polyline fill="none" points="60.142857142869616,126.21225115565176 54.919893190904986,125.19250117793854 47.86248331106617,122.06708162709401 38.30574098799843,120.21632690599654 37.0,120.12189958536328 38.257676902547246,120.23521235780936 47.37383177570882,122.00098392455402 48.60747663551592,122.36924191131402 55.04806408545119,125.31524949539744 60.13484646193683,126.30667184320919" stroke="#4DD2FF" stroke-linecap="round" stroke-linejoin="round" stroke-width="0.5"><title>2025-08-29 5.7km</title><desc>1756465472000</desc></polyline><polyline fill="none" points="85.85714285715949,126.09758922240871 80.84298414792283,125.10957013034204 74.92200950192637,122.39694776729448 73.99995296113775,122.118494727074 64.70318453366053,120.31301833219186 62.71428571428987,120.31301833219186 64.80224845951307,120.39386140418355 74.25142292681267,122.21730075219966 80.7286796180997,125.11855217539414 85.73521802533651,126.11555309637333" stroke="#4DD2FF" stroke-linecap="round" stroke-linejoin="round" stroke-width="0.5"><title>2025-08-27 6.0km</title><desc>1756291993000</desc></polyline><polyline fill="none" points="110.52611851785332,126.1088989103373 106.62926412676461,125.39319533271919 104.9383213930123,124.95833445563039 99.60416567826178,122.4578402967818 98.50505290125147,122.1045035395 89.83512833894929,120.41027823583136 88.42857142857974,120.25625604249217 90.74208853254095,120.59148045108304 98.48968069459079,122.11356347511901 99.43507140484871,122.4125407963802 104.50021350287716,124.82243996534817 105.76842055321322,125.26636114505527 110.51843241447932,126.1723153860803 110.70289889452397,125.46567192454677 111.57142857144936,125.61062491883786 111.14100678468822,125.5109697624066 111.17175119798048,125.29353991581593" stroke="#4DD2FF" stroke-linecap="round" stroke-linejoin="round" stroke-width="0.5"><title>2025-08-26 6.0km</title><desc>1756205162000</desc></polyline><polyline fill="none" points="137.28571428573923,127.536069839618 132.86923721712083,126.66718796356872 128.06478266077465,124.45682579431013 127.06897377563291,124.14432068241149 119.12836786016123,122.61226323538722 116.47718836070271,122.72659703886166 115.77236259132042,122.56652966168622 115.0934019878041,122.15492615342373 114.7442222488462,121.73569786920416 114.16872230870649,120.30268040420196 114.58903125373763,119.83770566522435 115.76589629985392,118.89250158895447 114.36917734402232,120.00540182894474 114.14285714286962,120.31792542530457 114.511435756227,121.37744625427877 114.81535145491944,121.88052246953157 115.88228954616352,122.63513001101092 116.54831756677595,122.77233050791983 117.9967668542813,122.64275226790778 119.19303077473887,122.66561903358524 127.1918333133799,124.20529739920312 128.07124895224115,124.50255813264812 132.7916417195811,126.66718796356872" stroke="#4DD2FF" stroke-linecap="round" stroke-linejoin="round" stroke-width="0.5"><title>2025-08-23 7.3km</title><desc>1755948655000</desc></polyline><polyline fill="none" points="163.0,125.2142163855242 162.64989471354056,126.42047196339263 156.73401307774475,125.25654139614198 149.48952676495537,121.95513519766973 142.4425357420114,120.43137142205524 139.8571428571595,120.00809946518712 149.0316967749386,121.8599006618897 156.47367837751517,125.2142163855242 161.31231297797058,126.19826811373787" stroke="#4DD2FF" stroke-linecap="round" stroke-linejoin="round" stroke-width="0.5"><title>2025-08-19 5.0km</title><desc>1755607675000</desc></polyline><polyline fill="none" points="188.04748961282894,129.23914103639254 183.84541606801213,128.4087063340994 178.97025589249097,126.15461822535872 178.1461965596245,125.91734145144437 170.45287927615573,124.44175795064803 167.57810740493005,124.52332370289514 166.62823748687515,124.07841841241316 165.97402244395926,123.28499676121282 165.60917174696806,122.09855460857216 168.33297091597342,119.88133540197305 170.89950685354415,117.1894303921872 170.14464334247168,117.86427057374385 168.40845726706902,119.7478550177184 165.57142857142026,122.1059699362595 165.70982021509553,122.66953247581841 166.23822467285208,123.70024662931974 166.6848522502114,124.11549396436021 167.45858734904323,124.49366344066948 167.8863433386141,124.56039901251643 169.37090824369807,124.42692780336802 170.61014250767766,124.44175795064803 173.73024502000771,125.03496119236661 174.00073777811485,124.93856601734296 175.23997204206535,125.16843120939302 175.61111326832906,125.33156087484531 177.49198151670862,125.61332937627594 178.70605366362724,126.00632033857255 179.33510658951127,125.9914905321275 179.32252553096623,126.16203311123536 179.72511940356344,126.14720333868172 179.4231739991228,126.34740499526379 179.88238263499807,126.62916929229687 183.56863278063247,128.290071978372 184.273172057583,128.49026733377104 184.4933405816264,128.38646240815433 185.6948316700582,128.47543806835893 185.6948316700582,128.75719355862384 187.73296314993058,129.1649954926179 188.09152331764926,129.20206827458605 188.19217178577674,128.69046210051602 188.53186036576517,128.63114519395458 188.71428571426077,128.01572923898493" stroke="#4DD2FF" stroke-linecap="round" stroke-linejoin="round" stroke-width="0.5"><title>2025-08-16 10.0km</title><desc>1755297330000</desc></polyline><polyline fill="none" points="25.21323011966888,149.19378679780493 24.795214637648314,151.32141272515582 34.42857142863795,153.2138430054256 18.448979591892567,150.0448424515489 11.285714285739232,146.7861569945744 18.230471498973202,150.03364439657162 24.26319493324263,151.2430272878628" stroke="#4DD2FF" stroke-linecap="round" stroke-linejoin="round" stroke-width="0.5"><title>2025-08-13 5.0km</title><desc>1755095249000</desc></polyline><polyline fill="none" points="60.01327787555056,154.30734823200328 55.769556870887754,153.45967351051513 50.94272916330374,151.2373424862817 50.04215325546102,150.94713598488306 42.11190209566848,149.41971354861744 39.30003199490602,149.51135983311542 38.678051511757076,149.3815275613888 38.03663413852337,148.99966654519812 37.6997280435171,148.66362713056878 37.38873780195718,148.14429032184125 37.01943689008476,147.1056051634223 37.82282834747457,146.3113061294498 38.75579907215433,145.6010118713093 38.04959206527565,146.09745485191524 37.0,147.1132426104523 37.68677011679392,148.67126440789434 38.22452407615492,149.17532287095673 38.67157254839549,149.40443915622018 39.30003199490602,149.54190856799687 41.50287953924271,149.41207635282626 42.29979203327093,149.46553670582944 50.41145416733343,151.09223938571085 55.64645656693028,153.45967351051513 60.14285714284051,154.39898812869797" stroke="#4DD2FF" stroke-linecap="round" stroke-linejoin="round" stroke-width="0.5"><title>2025-08-12 8.1km</title><desc>1754996616000</desc></polyline><polyline fill="none" points="85.85714285713038,152.68413782557036 81.19073569477769,151.75091104075545 75.92175943945767,149.32281586006866 75.0529388867144,149.03375173120003 70.09926041262224,147.99311174312606 66.36473335928167,147.34889887909958 65.04748929545167,147.31586217442964 63.379914363555145,147.4562680698582 62.71428571428987,147.34063970428542 63.32386142469477,147.4562680698582 64.97742312183254,147.3323805285545 66.37874659401132,147.35715805303334 74.9758660957159,149.04201072160504 75.97781237834715,149.39714645795175 80.97353055659914,151.70135885498166 85.45776566755376,152.62632765043963" stroke="#4DD2FF" stroke-linecap="round" stroke-linejoin="round" stroke-width="0.5"><title>2025-08-10 6.4km</title><desc>1754781124000</desc></polyline><polyline fill="none" points="109.27646272271522,159.6830436289565 105.42419861949747,158.91016996276085 101.05673810126609,156.89513357656324 100.22539843156119,156.619096204402 93.03021213546162,155.21128689936086 92.38621661669458,155.16988026979016 90.37226699432358,155.28719898332565 89.93317914061481,155.18368248266415 89.31845614544,154.83172511522207 88.89107730114483,154.34864319205735 88.48711647573509,153.4031721971587 88.42857142857974,153.0443035996759 90.9869899895275,150.94626188410984 92.7550504138053,149.0414006683386 94.4235842578928,147.58510943411602 96.52535145098227,146.21160976763713 96.75953163963277,146.1011763399256 97.35083661595127,146.08047005078333 97.57916229989496,145.92862372361924 98.223157818662,145.21770198580998 98.88471685157856,143.79583456811451 99.48187633263296,143.22983962543003 102.15738498792052,141.78721988014513 105.46518015250331,140.3169563710435 105.46518015250331,140.8208533437246 106.050630624115,141.20049909904992 106.22626576561015,141.42138285470355 106.31993784106453,141.78031731430747 108.38657800585497,145.45927822876183 109.23548118968029,147.3228354166895 109.76824111887254,148.06134105770252 109.77409562357934,148.27529902720198 110.01413031696575,148.64109646222278 110.44736366596771,149.90411664916974 110.78107043475029,150.49765842114357 111.06208666111343,151.72613418836772 111.15575873659691,152.96838882816155 110.89230602438329,154.74891133283745 110.96256008098135,154.85242854389435 111.57142857142026,155.0387590975697 111.5011745148513,155.59084640962465" stroke="#4DD2FF" stroke-linecap="round" stroke-linejoin="round" stroke-width="0.5"><title>2025-08-08 10.0km</title><desc>1754654808000</desc></polyline><polyline fill="none" points="137.28571428573923,153.24005862693593 131.1112365894951,151.97857154429948 124.03116883116309,148.7115687426558 116.7224167137174,147.13733088164736 114.14285714284051,146.75994137307134 123.86651609261753,148.7115687426558 131.2941840767744,152.08639158127335 137.13020892150234,153.2077130050675" stroke="#4DD2FF" stroke-linecap="round" stroke-linejoin="round" stroke-width="0.5"><title>2025-08-07 5.0km</title><desc>1754573743000</desc></polyline><polyline fill="none" points="163.0,153.25159321424144 156.88198269082932,152.02825428539654 149.88996290887007,148.81960019956023 148.9977520512184,148.5513133518907 139.8571428571595,146.74840678575129 142.2879622344626,147.26352631389454 142.4882544677821,147.177673246224 143.02540182083612,147.40303738931107 149.38923232548404,148.7015540766006 156.96392042259686,152.114103126798 162.59031134087127,153.24086223701306" stroke="#4DD2FF" stroke-linecap="round" stroke-linejoin="round" stroke-width="0.5"><title>2025-08-04 5.0km</title><desc>1754309955000</desc></polyline><polyline fill="none" points="188.71428571428987,152.69315962117253 184.0885220330092,151.76650824039098 178.75380215782207,149.31744661046832 177.95359417653526,149.05267846191418 169.48823605876532,147.38130822529638 168.00012998832972,147.30684037883475 166.18913297806284,147.44750180530536 165.57142857142026,147.31511458758905 165.70479656834505,147.41440502252226 166.55414012740948,147.47232438295032 169.00389964904753,147.33993720849685 172.36617704408127,148.0018707735362 172.90666839986807,148.010144906606 173.84024437802145,148.29146489452978 177.86234238918405,149.06095248053316 178.97842194201075,149.45810431402788 184.00428961394937,151.75823451645556 188.23696867283434,152.61042335026286" stroke="#4DD2FF" stroke-linecap="round" stroke-linejoin="round" stroke-width="0.5"><title>2025-08-03 6.5km</title><desc>1754227262000</desc></polyline><polyline fill="none" points="31.748002493346576,179.49630756306578 25.60656202188693,178.27359868671192 17.867796225997154,174.8326203848992 11.285714285739232,173.4908229645589 18.436958123231307,174.98411250352365 25.845242817536928,178.3709831309825 34.428571428579744,180.08060560686863 31.94078313600039,179.51794829262508 31.94078313600039,179.3556427060612" stroke="#4DD2FF" stroke-linecap="round" stroke-linejoin="round" stroke-width="0.5"><title>2025-08-01 5.0km</title><desc>1754057984000</desc></polyline><polyline fill="none" points="57.92873413601774,186.4460356657073 53.980800520657795,185.6658664918432 49.63455906283343,183.663618479688 48.703221607545856,183.36672804594855 41.674259681109106,182.00653781575966 40.3914741295157,181.96511024413485 39.114546046213945,182.07558370826882 38.50536934591946,181.96511024413485 38.00162707452546,181.68202111347637 37.63260657337378,181.32988408894744 37.21086885780096,180.52893768927606 37.0,179.83155370215536 39.58314350800356,177.69102027665213 41.37552879922441,175.77828892417165 43.0156199154153,174.3419761663754 44.251545720821014,173.63071308512008 45.21802798571298,172.9194420202184 45.903351773537,172.85038615182566 46.14936544097145,172.69846297644108 46.899121379770804,171.83525620186265 47.48486820695689,170.53697106867912 48.05890009764698,170.0190307463854 50.80019524897216,168.51352683576988 54.01008786202874,167.12539290572022 54.06280507647898,167.5742952654473 54.53140253823949,167.89888422092918 55.01757240481675,168.76905066238396 55.31630328670144,169.60467544002313 56.0543442889757,171.13087076060037 57.97559388220543,174.72867895750824 58.23332248619408,175.50207746052183 58.994793361547636,177.09718206475372 59.51025056949584,178.87177507413435 59.54539537912933,179.97655496497464 59.475105759862345,180.37703291997605 59.65668727629236,180.50822342399624 59.48682069638744,181.5508330388766 60.142857142869616,181.79939968692634 60.11942726976122,182.1377249472498" stroke="#4DD2FF" stroke-linecap="round" stroke-linejoin="round" stroke-width="0.5"><title>2025-07-28 10.0km</title><desc>1753704756000</desc></polyline><polyline fill="none" points="83.58476573723601,179.62339309346135 77.43817188846879,178.39394858543528 70.39752802526345,175.16658540300705 69.25202644435922,174.78236861684127 62.71428571426077,173.4760205880084 69.96912906004582,175.03485409847053 76.0319057200104,177.8889938183056 77.60580626613228,178.48176654760755 85.85714285710128,180.09540798341914 83.67789594706846,179.60143885875732 83.78965219884412,178.88792362737877" stroke="#4DD2FF" stroke-linecap="round" stroke-linejoin="round" stroke-width="0.5"><title>2025-07-22 5.0km</title><desc>1753194638000</desc></polyline><polyline fill="none" points="101.59227249620017,178.00730853663117 109.25851550584775,179.52813625075942 111.57142857142026,179.66565637082385 109.55363497711369,179.5524045257407 96.91840366041288,177.07699964019412 91.40721911541186,174.57724237036746 88.42857142857974,173.90577220060368 91.37290289782686,174.59342229957838 96.54092526689055,176.97992325796804 98.66853075750987,177.43294528967817" stroke="#4DD2FF" stroke-linecap="round" stroke-linejoin="round" stroke-width="0.5"><title>2025-07-19 6.4km</title><desc>1752877000000</desc></polyline><polyline fill="none" points="135.16629719809862,186.5090678070119 131.22771377692698,185.72492931657325 126.75338881419157,183.67779662703106 125.98804375476902,183.43491211275978 118.71726569032762,182.0331033946204 116.19751426391304,182.11638002176187 115.64999818292563,182.0122842208366 115.13780572009273,181.71387531553773 114.63738779662526,181.18645150646626 114.20172983975499,180.20792997979152 114.14285714286962,179.85399296027026 116.71559399642865,177.72338935386506 118.41701493624714,175.8772712756545 120.09488679727656,174.4128312849789 122.14365664863726,173.04552753377357 122.50278009957401,172.8720097303667 123.05029618056142,172.84424683795078 123.43885597994085,172.60132101306226 124.07468110622722,171.84477465048258 124.6457462659746,170.54682555107865 125.25213504381827,169.9846040935663 128.2310935058631,168.360380888058 131.27481193447602,167.06236076442292 131.28069920412963,167.5621363511309 131.7516807791544,167.87449410081172 132.06370607260033,168.45061659747444 132.7054184685985,169.92213473632728 134.6835410837084,173.6424251672579 135.20162081625313,174.88478718652914 135.34291528875474,175.0166565927575 136.23189301160164,177.2930959373116 136.43206018098863,177.57764513507573 136.74997274411726,178.76440979084873 136.80884544103174,179.54863395157736 136.71464912602096,180.742301754246 136.4261729113059,181.85961007181322 137.28571428571013,182.0539225616085" stroke="#4DD2FF" stroke-linecap="round" stroke-linejoin="round" stroke-width="0.5"><title>2025-07-17 10.0km</title><desc>1752756134000</desc></polyline><polyline fill="none" points="163.0,180.0514389204036 156.86453688546317,178.8227833619676 149.08319692953955,175.363066024438 139.8571428571595,173.5199896510312 149.49466613994446,175.53551585873356 156.69080544111785,178.8120056141197 162.716543432849,180.0406613063751" stroke="#4DD2FF" stroke-linecap="round" stroke-linejoin="round" stroke-width="0.5"><title>2025-07-14 5.0km</title><desc>1752500928000</desc></polyline><polyline fill="none" points="188.71428571426077,180.02763300745573 182.5802524292958,178.82261017479323 176.23813246953068,175.87930622136628 174.7362895118422,175.3354251539422 165.57142857142026,173.5437955639718 175.33340779622085,175.49539048736915 182.68881939008133,178.865266103443 188.06288394948933,179.9423221442048" stroke="#4DD2FF" stroke-linecap="round" stroke-linejoin="round" stroke-width="0.5"><title>2025-06-21 5.0km</title><desc>1750468889000</desc></polyline><polyline fill="none" points="27.11974163085688,204.99270042486387 33.13784058491001,206.19475270412659 34.42857142855064,206.26361952147272 33.31843667002977,206.19475270412659 23.481261680688476,204.27270916015186 22.424243417801335,203.85949270967103 19.263811928249197,202.3568623973515 18.70608872419689,202.1752919081955 12.257746155606583,200.9230660215071 11.285714285710128,200.8792376213787 12.146201514813583,200.89802122554465 14.658611757738981,201.3613481848115 19.17882553525851,202.3380792698772 22.541099708148977,203.92836232435366 23.401586937252432,204.26018749317154 24.336437260208186,204.44801221155285" stroke="#4DD2FF" stroke-linecap="round" stroke-linejoin="round" stroke-width="0.5"><title>2025-06-17 8.1km</title><desc>1750165544000</desc></polyline><polyline fill="none" points="60.14285714284051,206.79934419646452 54.307921776606236,205.6390140897638 46.70102751074592,202.2423315125052 37.0,200.34351294639782 46.71892608550843,202.28452705782547 54.18263175338507,205.62846557050216 59.10473980772076,206.63056977203087" stroke="#4DD2FF" stroke-linecap="round" stroke-linejoin="round" stroke-width="0.5"><title>2025-06-15 5.0km</title><desc>1749939796000</desc></polyline><polyline fill="none" points="78.70595567443524,204.89796699699582 84.16784726231708,205.98931206904308 85.85714285713038,206.09380138271808 84.52737664547749,206.012531934226 75.3864652053744,204.23618303955664 74.49502933752956,203.89948278505108 71.51536801140173,202.48299635151125 70.85048490561894,202.26239261760202 64.84191165294033,201.1013052848175 64.11300276656402,201.04905576014426 62.71428571428987,201.15936025218616 64.69908491169917,201.08969428377168 70.59438178336131,202.22756036563806 71.30851548959618,202.4249428258372 73.01258626455092,203.23188116386154" stroke="#4DD2FF" stroke-linecap="round" stroke-linejoin="round" stroke-width="0.5"><title>2025-06-11 8.1km</title><desc>1749642919000</desc></polyline><polyline fill="none" points="111.57142857147846,206.79223891332367 105.5591314463527,205.62875940347294 98.00337893981487,202.2545900044206 88.42857142857974,200.3506182295314 98.1110618733801,202.29690006434976 105.6219464908936,205.6816451380946 110.57536143582547,206.67589158952615" stroke="#4DD2FF" stroke-linecap="round" stroke-linejoin="round" stroke-width="0.5"><title>2025-06-08 5.0km</title><desc>1749387304000</desc></polyline><polyline fill="none" points="123.10869130841456,209.79115487463423 125.60099900071509,208.30302789091365 130.84455544443335,207.3490970111743 133.49870129860938,205.36491245785146 136.37942057929467,205.44122745614732 137.1562437560642,204.79254943976412 132.04215784196276,196.47410131286597 128.5788211786421,197.16095313805272 125.27732267719693,199.1070259931148 123.43236763228197,199.1070259931148 120.48691308684647,200.4807179677009 115.66413586388808,201.47282548676594 115.82597402587999,204.60176155919908 114.14285714284051,206.7004225286655 115.5670329668792,208.26487070554867 116.18201798200607,210.21088185510598 117.08831168827601,210.7832360174798 122.72027972014621,209.6003697173437 125.6981018979568,208.26487070554867 130.0353646351723,207.69251242725295 133.66053946036845,205.36491245785146 136.21758241741918,205.479384949198 137.2533466531895,204.60176155919908 132.04215784196276,196.3596258776961 128.19040959014092,197.19911153326393 125.34205794183072,199.06886780582136 122.75264735240489,199.33597502979683 119.58061938046012,200.74782411474735 115.76123876101337,201.39650962353335 115.85834165813867,204.79254943976412 114.14285714284051,206.7004225286655 115.66413586388808,208.3411850721168 116.44095904077403,210.32535276227281 117.54145854141098,210.85954983517877 126.41018980985973,208.15039912474458 130.1324675322976,207.73066967487102 133.33686313673388,205.55569992266828 136.31468531442806,205.5175424380286 137.28571428568102,204.56360397054232 131.6861138859531,196.24515040504048 127.86673326650634,197.42806181733613 125.21258741256315,199.06886780582136 115.92307692277245,201.2057198927505 115.89070929063018,204.60176155919908 114.17522477498278,206.62410780478967 115.6317682316294,208.26487070554867 116.18201798200607,210.0964109103079 117.83276723255403,210.89770673780004 130.90929070906714,206.92936660093255 132.52767232747283,204.7543918720039 132.04215784196276,202.57940363459056 129.90589410578832,199.90834696652018 128.09330669313204,198.99255141877802 126.53966033947654,198.91623501494178 124.75944055931177,199.64124017916038 121.87872127862647,203.11361252333154 117.28251748241019,203.87676666505286 114.53126873110887,206.0517468447215 114.43416583398357,206.96752393167117 115.98781218763907,208.8372280485346" stroke="#4DD2FF" stroke-linecap="round" stroke-linejoin="round" stroke-width="0.5"><title>2025-06-04 6.4km</title><desc>1749041988000</desc></polyline><polyline fill="none" points="163.0,206.81339366111206 157.06846507510636,205.62876010735636 150.31136099266587,202.50845079131977 149.28837312362157,202.169970533163 139.8571428571595,200.32946348175028 149.55758045759285,202.2757457405387 156.93386140814982,205.60760580544593 161.86035561957397,206.62300710011914" stroke="#4DD2FF" stroke-linecap="round" stroke-linejoin="round" stroke-width="0.5"><title>2025-05-28 5.0km</title><desc>1748436903000</desc></polyline><polyline fill="none" points="188.71428571431898,206.80326013315062 182.2877486437792,205.48682218236354 174.84504972875584,202.1201144174629 165.57142857142026,200.32880660697992 174.54294755874434,202.0553689161825 175.6598101265845,202.41146864961047 182.82787070528138,205.69184235730063 188.60443037975347,206.81405053588242" stroke="#4DD2FF" stroke-linecap="round" stroke-linejoin="round" stroke-width="0.5"><title>2025-05-27 5.0km</title><desc>1748351986000</desc></polyline><polyline fill="none" points="28.424084333179053,235.13120187274035 28.455011785787065,233.7457059796725 29.181806922890246,232.10040991324786 29.661182438896503,229.0478961027111 29.630254986230284,229.3293366263897 28.934387301735114,229.41593358471437 25.547831237199716,231.81897554986062 24.264341952453833,232.1220586845593 23.754038983839564,231.27775386167923 24.34166058403207,230.3251980709174 25.424121426651254,229.48088126459334 25.25402043707436,228.03037514313473 25.76432340568863,227.09944454810466 25.083919447555672,226.70975063848164 22.59425950970035,226.75305002106325 21.9447830041172,225.8004601845023 22.161275172722526,224.67466295431223 22.640650688670576,224.82621316458972 22.59425950970035,224.09011044372164 23.305590920499526,224.52311256260145 24.604543931607623,224.47981241735397 25.640613595140167,225.17261296395736 27.04781269049272,225.21591287230694 27.61997056438122,224.9344632037537 29.027169659675565,222.96429800324404 29.089024564949796,219.67340423043788 28.578721596335527,219.0888286252448 27.7746078275959,218.78571428571013 26.784929342975374,219.0671776250747 25.90349694265751,220.04146896731254 25.22309298440814,220.27962793266488 23.83135761547601,220.0198181300293 22.362303614849225,219.2187345486018 21.016959424887318,219.67340423043788 20.336555466637947,220.71264308538957 20.367482919304166,221.8168250206145 20.955104519496672,222.63954255401768 22.284984983270988,223.26740233750752 22.59425950970035,224.02515999817842 21.991174183087423,225.4324121915124 22.424158520181663,226.7314003316642 22.53240460442612,228.52831195371255 21.960246730421204,230.4767415171009 22.40869479381945,231.01796662951529 23.723111531231552,231.3427005863996 24.233414499787614,232.1220586845593 23.058171299344394,234.02713606006728 21.604581025021616,234.61164268964058 19.176775992498733,236.38679442929424 17.4139111918048,237.1444735684272 17.01185430737678,238.18356901445804 16.022175822756253,239.26595103572618 16.872680770524312,241.69045318551798 17.64586708659772,241.8636301339866 18.666473023884464,241.23586256891576 19.857179950689897,241.73374744490866 20.723148624703754,241.62551176882698 21.403552582894918,240.91115398635156 21.89839182520518,239.11441810976248 23.0736350256484,238.46498923015315 25.76432340568863,239.3092461241322 26.784929342975374,238.8113517138263 28.37769315415062,238.72476118179475 28.47047551209107,233.91889379556233 29.692109891562723,229.63242572138552 29.506545175681822,229.3293366263897 29.04263338597957,229.3726351129735 25.563294963503722,231.84062436924432 24.31073313142406,232.10040991324786 22.934461488737725,234.09208137443056 21.46540748816915,234.6765877041471 19.161312266194727,236.38679442929424 17.50669354974525,237.0362339690182 17.01185430737678,238.24851219671837 16.022175822756253,239.3525411976516 16.795362138887867,241.582217472489 17.305665107502136,241.92857142857247 18.573690665885806,241.23586256891576 20.027280940208584,241.75539456897968 21.001495698525105,241.36574576881685" stroke="#4DD2FF" stroke-linecap="round" stroke-linejoin="round" stroke-width="0.5"><title>2025-05-23 6.4km</title><desc>1747958832000</desc></polyline><polyline fill="none" points="50.67406872147694,231.43792281483184 51.300387063995004,232.03293090171064 52.86618292040657,232.28346004414198 53.64908084855415,233.2855731863965 53.44776423845906,237.23134037874115 53.067499530501664,237.95159029361093 51.7030202843016,238.35868681859574 50.36090955021791,237.88895997876534 49.10827286494896,238.1707962271903 46.98326420271769,236.9181873583293 45.708259005332366,237.41923193400726 44.76878149155527,237.262655651386 45.03720363823231,236.354510572055 44.36614827136509,234.60083836350532 44.56746488134377,233.34820507568656 43.851672489894554,232.15819551571622 44.164831661153585,230.27921730790695 48.68327113252599,230.0913184267265 50.226698476821184,230.65501449181465 51.03196491708513,231.93898238486145 52.75434035924263,232.25214392005 53.51486977515742,232.9724134184653 53.44776423845906,237.32528618045035 53.11223655496724,237.95159029361093 51.79249433311634,238.3273717334523 50.51748913573101,237.9202751388657 49.06353584048338,238.13948110991623 46.938527178252116,236.9495026844379 44.23193719785195,237.51317763931002 42.77798390260432,238.7031524021004 43.247722659492865,239.0476173377101 43.60561885521747,240.92650558087917 45.79773305426352,241.9285714285652 46.737210568157025,241.27096633439942 47.3635289107915,239.98706386882986 47.274054861743934,238.98498739759088 46.11089222552255,237.1373945287778 47.274054861743934,236.9495026844379 49.085904352832586,238.13948110991623 50.51748913573101,237.7323840976751 50.33854103786871,237.262655651386 48.88458774262108,237.293970918603 48.1016898144735,236.29187971091596 48.8398507181555,233.34820507568656 46.91615866601933,230.4044831215724 47.050369739416055,228.05573485606874 47.56484552077018,227.05359309389314 48.59379708347842,226.45856882778753 50.539857648080215,227.08491010704893 52.12802201672457,226.6777885192132 50.33854103786871,228.4315366030496 48.4819545224309,228.33758623863105 47.3635289107915,227.49203078978462 45.641153468634,227.1162271147332 45.68589049309958,223.29551264012116 46.44641990901437,221.6983050921117 46.49115693347994,219.31812681804877 46.960895690484904,218.84835113451118 48.392480473499745,218.78571428571013 52.508286724681966,219.3807634848199 53.35829018952791,220.1324018145533 53.64908084855415,221.6983050921117 54.36487324011978,222.48125170932326 53.895134483114816,223.10760659285006 54.185925142257474,223.51473611824622 52.77670887147542,224.36030993249733 52.62012928572949,226.33330031481455 50.539857648080215,228.36890303208202 48.90695625485387,228.4315366030496 47.29642337397672,227.3980799432902 45.73062751756515,227.21017810575722 45.66352198086679,223.51473611824622 46.62536800687667,220.32031091483077 47.63195105746854,219.944492521332 47.65431956970133,219.00494316298864 52.239864577772096,219.28680847671058" stroke="#4DD2FF" stroke-linecap="round" stroke-linejoin="round" stroke-width="0.5"><title>2025-05-20 5.0km</title><desc>1747754393000</desc></polyline><polyline fill="none" points="82.79079497919884,231.97439130741986 84.95337716687936,232.2407487896562 85.85714285715949,231.28947113483446 80.49910340714268,223.22253245912725 76.75493126129732,224.1357801540289 73.84997011371888,225.8481131446024 72.04243873280939,225.92421663823188 67.65271966531873,227.59848930101725 64.1344889421016,228.09315923336544 64.42498505685944,231.32752229072503 62.714285714318976,233.53448224172462 64.1344889421016,234.79016012648935 64.65092647948768,236.5404914628889 65.42558278539218,237.30150235118344 66.87806335929781,237.52980529429624 74.14046622847673,235.17066768507357 78.46563060383778,234.56185539241415 82.20980274968315,232.0885445390595 84.95337716687936,232.1646466727252 85.7925881651463,231.4416757337458 80.62821279151831,223.2605844940408 79.20800956361927,223.29863652482163 73.97907949797809,225.77200963452924 71.59055588766932,226.03837184756412 68.58876270172186,227.4082314480911 63.876270173466764,228.28341671303497 64.55409444135148,230.79480573019828 62.714285714318976,233.4964313262899 64.069934249972,234.6379569869605 64.48953974910546,236.23608664330095 65.4578601316316,237.26345184620004 66.87806335929781,237.45370432993514 74.753735803999,234.86626167138456 78.98206814122386,234.33355050900718 82.0484160190681,232.1646466727252 84.98565451288596,232.1646466727252 85.7925881651463,231.36557344259927 80.62821279151831,223.29863652482163 79.49850567849353,223.18448041996453 76.5935445309151,224.1357801540289 74.0759115362307,225.77200963452924 72.01016138668638,225.8481131446024 68.13687985669822,227.48433460170054 64.29587567248382,228.16926223758492 64.48953974910546,231.17531764213345 62.778840406564996,233.4203294828476 64.069934249972,234.71405856503407 64.97369994025212,236.95904765676823 67.00717274367344,237.4156538414245 73.55947399896104,235.20871841805638" stroke="#4DD2FF" stroke-linecap="round" stroke-linejoin="round" stroke-width="0.5"><title>2025-05-14 5.0km</title><desc>1747227249000</desc></polyline><polyline fill="none" points="96.6240665713558,241.677620642673 97.09548069880111,241.2474184051389 97.77979152899934,238.7020321549935 99.83272401930299,239.024688929072 100.94282825483242,234.57913991018722 100.72993155213771,231.72890618699603 98.58575761778047,226.36889898781374 98.67699906177586,225.16780319344252 100.16727598075522,224.3610921407817 102.38748445181409,223.98462562919303 103.81693374138558,222.99863782600733 104.98786560620647,223.10620041897346 105.42886591900606,222.6400953416305 103.0717952818959,218.87535208002373 102.47872589575127,218.78571428571013 100.85158681089524,219.37732282582147 99.83272401930299,220.07649381220108 98.95072339382023,220.09442123434565 97.15630832815077,220.8115165172203 95.31627254042542,221.08042644250963 95.43792779918294,222.47875096871576 94.57113408105215,223.57230417577375 94.72320315433899,223.9666986309312 95.240238003782,224.3073112632701 95.75727285328321,225.50841333926655 96.41116986866109,225.58012064853392 102.2506222857628,223.82328257482732 102.90451930119889,223.24961710009666 103.14782981859753,222.47875096871576 102.85889857914299,221.47482687112642 101.84003578766715,220.38125972254784 100.59306938608643,219.9868566723162 99.49817205790896,220.29162274871487 98.03830895363353,221.94093524971686 95.95496264862595,222.2994792577374 94.75361696904292,223.37510659359396 94.78403078374686,223.9666986309312 96.41116986866109,225.22158378970926 98.266412563622,225.02438818430528 102.20500156382332,223.82328257482732 103.05658837460214,223.03449203148193 103.10220909659984,222.17398894381768 102.47872589575127,221.04457181120233 101.00365588418208,220.04063896210573 98.95072339382023,220.11234865451115 97.01944616209948,220.88322587360744 95.28585872577969,221.22384488956595 95.42272089183098,222.5504595984239 94.58634098834591,223.64401232887758 95.25544491113396,224.3073112632701 95.58999687252799,225.27536436830997 96.3655491466634,225.59804747099406 97.27796358685009,225.13194945291616 98.96593030111399,224.84511924705293 98.5705507104285,225.58012064853392 98.61617143236799,226.15377799759153 100.53224175673677,230.95807978061202 100.98844897683011,233.18091821493 100.82117299619131,235.6726127009024 100.06082762934966,238.52277811830572 98.09913658298319,238.23597125340893 97.32358430884778,240.85306536607095 96.73051492276136,241.10401740930683 96.48720440536272,241.9285714285652 96.16785935132066,241.8030960834585" stroke="#4DD2FF" stroke-linecap="round" stroke-linejoin="round" stroke-width="0.5"><title>2025-05-06 7.1km</title><desc>1746539597000</desc></polyline><polyline fill="none" points="122.98586595524102,241.9285714285652 122.82906022190582,241.7437368312967 123.56604716839502,239.28541754298203 125.43203539442038,239.72902666444134 125.76132743438939,239.15603133078548 126.73352298070677,235.0710730477731 126.70216183405137,233.03779923715047 123.92670035496121,225.3481070483249 123.17403283511521,225.181739663778 122.10775384883163,225.6993265468045 121.44916976901004,225.56992997406633 120.21040447609266,223.64745498234697 121.05715543584665,222.723180404937 120.85330798255745,221.24433060690353 121.95094811555464,221.1888734886743 125.62020227441099,220.1536706211773 126.81192584731616,219.41423613397637 128.77199751336593,218.82268622360425 131.2965698193293,222.6862093170348 130.9829583527171,223.18531832308508 129.60306789982133,223.05591983287013 128.12909400690114,224.12807577263447 125.88677202101098,224.4608124452061 124.5696038613678,225.08931326845777 122.89178251527483,225.3111365325749 121.87254524888704,225.73629697797878 121.21396116912365,225.4590185474517 120.83762740925886,224.4238417360175 120.24176562268985,223.98019259753346 120.24176562268985,223.62896954015014 121.05715543584665,222.53832488514308 120.83762740925886,221.26281630893936 122.56249047530582,221.04098775147577 125.57316055439878,220.0797273174976 128.42702490015654,218.78571428571013 128.86608095333213,218.9336019889597 131.2808892459143,222.6862093170348 131.0456806460279,223.14834733596945 129.71283191308612,223.05591983287013 127.78412139363354,224.25747344504634 126.21606406080537,224.3683856571297 121.95094811555464,225.6993265468045 121.29236403573304,225.5144742698467 120.86898855585605,224.4238417360175 120.24176562268985,223.94322178367293 121.04147486243164,222.57529600517591 120.85330798255745,221.24433060690353 122.49976818205323,221.04098775147577 125.44771596783539,220.1351847983169 126.49831438076217,219.48817972773395 128.45838604681194,218.78571428571013 128.81903923337813,218.9336019889597 131.2652086726157,222.6677237701224 131.0300000727293,223.1298618393048 129.60306789982133,223.03743432622286 128.08205228700535,224.14656116046535 125.87109144759597,224.4608124452061 124.2873535414692,225.14476911169186 122.98586595524102,225.25568074370676 121.98230926215183,225.71781176341756 121.24532231572084,225.44053330266615 120.85330798255745,224.4238417360175 120.22608504933305,223.96170719161455 120.21040447609266,223.64745498234697 120.83762740925886,223.03743432622286 120.10064046271145,223.721396731009 120.79058568924665,224.53475383938348 121.10419715580065,225.38507755610044 121.77846180892084,225.79175260980264 125.68292456766358,224.5717245243868 128.01932999363635,224.29444419048377 129.52466503315372,223.14834733596945 130.9202360593481,223.14834733596945 131.3279309659265,222.723180404937 128.70927522011334,218.78571428571013 126.71784240734996,219.37726432505588 125.47907711443258,220.17215644204407 124.3657564081368,220.24609970550227 122.65657391527202,220.94855910028855 120.63377995591145,221.35524478893785 120.97875256923726,222.53832488514308 120.17904332943726,223.51805684462306 120.14768218272366,223.9986780015024 120.77490511588985,224.4792977967445 121.05715543584665,225.3481070483249 121.65301722235745,225.71781176341756 123.92670035496121,225.32962179146125 126.37286979414057,231.68843134895724 126.65512011403916,233.13022130260651 126.71784240734996,234.99713624521974 125.60452170105418,239.56267337978352 123.47196372842882,239.30390127950523 123.00154652848141,241.54041854180105 122.75065735529643,241.7437368312967" stroke="#4DD2FF" stroke-linecap="round" stroke-linejoin="round" stroke-width="0.5"><title>2025-04-29 10.1km</title><desc>1745929124000</desc></polyline><polyline fill="none" points="162.11104260443244,228.14967748911295 161.72149947594153,227.8200157467436 161.94124175357865,226.60732282868412 161.39188605960226,228.4204703111027 160.97237807518104,228.47933822613413 159.72384240711108,233.37703647252783 159.584006412304,233.41235560599307 153.22146864794195,232.15263271285949 145.11098094831686,228.5028853831609 139.8571428571595,227.38438975946337 145.07102780690184,228.51465895975707 151.47351871262072,231.5168791373726 153.29138664534548,232.199725421553 163.0000000000582,234.10696288560575 159.67390098038595,233.3888095182847 159.88365497259656,232.52937380820367 160.47296380787157,232.38809605130518 161.81139404402347,226.76038190833788 162.07108946301742,226.6661917311285 161.72149947594153,227.58454245809844" stroke="#4DD2FF" stroke-linecap="round" stroke-linejoin="round" stroke-width="0.5"><title>2025-04-22 6.3km</title><desc>1745328842000</desc></polyline><polyline fill="none" points="173.78535051614745,241.2484988549695 174.16998134698952,241.07848029489105 174.97129557770677,238.45261692506028 177.0226600082824,238.75487660386716 178.09642107744003,234.8443513297534 177.92013194668107,230.89595374102646 175.69247838528827,225.43605968586053 175.64439953141846,224.49142389277404 176.84637087752344,223.50899720886082 179.37852384656435,223.09335347465822 181.20552029262763,221.90309545119817 182.4074916387326,222.01645371021004 182.90430646174354,221.58191331490525 181.8305453925277,219.90042065523448 180.3881797773065,220.63725652456924 179.23428728501312,219.29583503909816 178.0002633697586,218.78571428571013 175.69247838528827,218.97464807309734 174.1219024931197,219.67370129621122 172.0064329240122,220.03267347773362 172.32695861626416,221.35519615460362 171.39743410865776,222.69660170804127 172.08656434708973,223.2822825682524 172.43914260866586,224.26471053670684 173.16032541624736,224.6425659655215 175.78863609296968,224.01910406642128 177.31113313132664,223.35785414805287 179.31441870809067,223.09335347465822 180.96512602333678,221.97866763216734 182.4074916387326,221.99756067228736 182.88828017708147,221.54412714210048 181.8465716771898,219.90042065523448 180.40420606191037,220.59947014592763 179.23428728501312,219.27694170463656 178.09642107744003,218.80460767372278 175.61234696226893,218.97464807309734 174.15395506238565,219.65480800293153 172.40709003945813,219.9193139217532 172.1666957702255,220.1082464739011 172.29490604711464,221.41187547246227 171.39743410865776,222.60213686790667 172.0545117778238,223.2822825682524 172.39106375479605,224.28360332766897 173.08019399322802,224.6803514630592 177.3431857006508,223.3389612562314 179.2503135696752,223.13113930985855 180.98115230799885,221.97866763216734 182.47159677708987,221.97866763216734 182.8722538925358,221.50634096110298 181.81451910792384,219.86263411599793 180.32407463877462,220.5805769534636 179.21826100046746,219.27694170463656 178.24065763893304,218.86128782534797 176.093135500676,218.8801812051097 173.99369221623056,219.67370129621122 172.37503747013398,219.9193139217532 172.1506694855634,220.08935322795878 172.2628534779069,221.58191331490525 171.3814078240539,222.65881577816617 172.1025906316936,223.32006836232904 172.4231163240038,224.28360332766897 172.95198371628067,224.62367321366037 179.39455013122642,222.84774534520693 180.1798380772234,222.20538397724158 180.45228491566377,221.24183746331255 180.2279169311514,220.52389736381883 179.44262898503803,219.56034150558116 178.2086050697253,218.82350105968362 176.07710921601392,218.89907458283415 173.92958707769867,219.73038116378302 172.13464320095954,220.03267347773362 172.32695861626416,221.3174099323951 171.39743410865776,222.62102984002559 172.18272205477115,223.58456868988287 171.87822264712304,224.17024655079877 172.6795368778403,225.8139125621965 173.30456197779858,228.57221361622214 173.57700881623896,231.67052686303214 173.51290367770707,233.71084925955802 171.94232778559672,241.39962632398237 173.08019399322802,241.9285714285652" stroke="#4DD2FF" stroke-linecap="round" stroke-linejoin="round" stroke-width="0.5"><title>2025-04-15 8.8km</title><desc>1744723077000</desc></polyline><polyline fill="none" points="34.27648255368695,254.67047192761675 33.60475668910658,254.62565332266968 34.09904553281376,253.17651053681038 33.5160381787573,255.59671981816064 33.655452980834525,255.97020510127186 32.88233453297289,258.5397562831058 32.13456423103344,258.55469539340993 32.14723830384901,259.18213655773434 31.285401345754508,261.9757088117185 22.88249100302346,260.30256006996206 13.250195587519556,255.83575051650405 11.285714285739232,255.26805192779284 13.38961038965499,255.94032631604932 22.869816930033267,260.3174989883264 31.310749491560273,261.9607700739725 31.589579095656518,260.8403601053724 32.22328274138272,260.7656657820771 32.76826787670143,259.18213655773434 34.428571428579744,252.31000547400618 33.98497887660051,254.7750486156292" stroke="#4DD2FF" stroke-linecap="round" stroke-linejoin="round" stroke-width="0.5"><title>2025-04-11 5.1km</title><desc>1744377642000</desc></polyline><polyline fill="none" points="43.65938430716051,268.7142857142899 44.442116563848685,267.8481320653227 44.649780223786365,268.48833300681144 45.43251248059096,267.8481320653227 46.31108950340422,265.19315579885733 48.371751975268126,265.66389924554096 48.73915691213915,265.53209120969404 49.69760457344819,261.40833190134435 49.76150108425645,259.1486960385373 49.3621478920104,257.13382914828253 47.061873504833784,252.12480594670342 46.99797699408373,251.2774004471139 48.11616593232611,250.33583390789863 50.688000490132254,249.92154300559196 52.477102791308425,248.69749590181164 53.64321411261335,248.81048522838682 54.23425683716778,248.32086427953618 52.97230074967956,246.34353479689162 51.6464481514995,247.11563757278782 50.080983638064936,245.7974112383963 48.675260401389096,245.7220837155619 47.92447640001774,246.07988915649184 46.4069342695293,247.73708364306367 44.234452903911006,248.05722165561747 42.972496816481,249.14945276502112 42.908600305672735,249.5072511102626 43.56353954097722,250.0533629458514 43.83509971166495,250.93843708386703 44.55393545766128,251.35272554859694 50.86371589481132,249.5825769832445 51.726318789995275,248.75399057431787 51.82216355600394,247.83124194359698 50.87969002244063,246.36236661291332 49.3621478920104,245.5714285714348 47.3174595477758,245.68441994184104 45.320693586720154,246.45652566244826 43.595487796352245,246.7578342762572 43.73925494553987,248.07605328498175 42.908600305672735,249.092958221765 42.908600305672735,249.45075668391655 43.56353954097722,249.99686869807192 44.25042703159852,251.3338942762639 44.95328864984913,251.35272554859694 45.89576218358707,250.86311180179473 46.75836507877102,250.93843708386703 49.28227725351462,257.6234251322312 49.58578567963559,259.3746609541122 49.48994091351051,261.1823696443171 48.59538976289332,265.00485806130746 46.53472729108762,264.6847514366382 45.72004677896621,267.1702696607972" stroke="#4DD2FF" stroke-linecap="round" stroke-linejoin="round" stroke-width="0.5"><title>2025-04-08 5.6km</title><desc>1744119870000</desc></polyline><polyline fill="none" points="71.01863803493325,266.76239472150337 71.64520060358336,265.84798722057894 72.12258160824422,263.8081364398822 74.10669640894048,264.17742168151017 75.16588551312452,260.09765212857747 75.21063998230966,258.44461270024476 74.92719501076499,256.826727932581 72.89832574088359,251.79711302826763 72.89832574088359,250.82986142531445 74.01718747062841,250.00329637160758 76.35933802486397,249.6515652776725 77.91082629002631,248.5963673969236 79.2534603656386,248.5963673969236 79.6114961191779,248.13911283960624 78.4329617639305,246.27490777606727 76.98590059351409,246.8376889321662 75.61343020497588,245.69453765358776 73.40554305835394,245.64177662989823 71.3617556320387,246.39801632167655 69.6610858028871,246.71458072197856 69.75059474125737,248.13911283960624 68.95993245230056,249.08879393310053 69.54174055176554,249.75708468635275 69.88485814887099,250.7419291739934 70.80978384538321,251.0584850545565 71.63028244714951,250.6188239416515 73.01767099206336,250.46054564784572 74.3752232241095,249.86260402602784 76.44884696329245,249.56363238442282 78.01525338477222,248.52602062630467 77.77656288241269,249.00086073328566 78.16443494876148,248.42050041281618 79.31313299125759,248.50843392887327 79.56674164999276,248.06876586964063 78.64181595348055,246.57388550962787 77.32901819061954,247.2597735113959 76.28474724281114,246.04627737091505 75.18080366955837,245.57142857142026 73.30111596360803,245.62418961816002 71.46618272684282,246.36284246109426 69.70584027207224,246.64423313111183 69.69092211563839,248.20945977891097 69.00468692142749,248.91292748553678 68.95993245230056,249.26466018910287 69.55665870814119,249.7922578072321 69.72075842850609,250.53089157537033 70.52633887389675,251.04089863305853 71.58552797802258,250.60123747220496 72.95799836644437,250.46054564784572 74.2111235037446,249.89777712388604 75.40457601548405,249.7394981230318 75.53883942303946,250.7419291739934 78.59706148429541,256.9498284305155 75.47916679742048,258.0401430284837 75.30014892067993,260.8010680279258 74.5393229444162,263.77296637282416 74.15145087818382,264.0719116987166 73.07734361762414,268.7142857142899 68.95993245230056,267.65921243224875 69.58649502095068,264.96874435480277 69.79534921044251,264.86323488912603 69.43731345690321,266.58654752734583" stroke="#4DD2FF" stroke-linecap="round" stroke-linejoin="round" stroke-width="0.5"><title>2025-04-02 6.9km</title><desc>1743601029000</desc></polyline><polyline fill="none" points="96.36169750068802,268.7142857142899 96.91517528583063,268.2153838789818 97.68027692998294,265.47139852977125 100.23604199662805,266.0854409212625 101.29416129173478,261.2306098284753 100.9685861239559,257.6421704152017 98.4779360909015,251.9619243594061 98.46165733248927,251.44378469017101 98.95002008409938,250.75292942674423 99.81279427849222,250.33073876512935 102.58018320420524,249.83178486023098 103.8662051166757,248.7954914643924 104.37084662663983,248.7187287480483 104.38712538505206,248.02786279549764 103.73597504961072,246.70369547807786 103.21505478123436,246.74207727961766 102.71041327127023,246.16634937911294 102.28716555319261,246.26230415987084 101.34299756685505,245.68657469103346 100.33371454686858,245.60981061962957 99.29187401023228,245.97443966074206 97.89190078899264,247.70161959809775 95.77566219883738,248.00867203589587 94.1966226354125,249.27525768337364 95.14079062169185,251.04078611581645 96.21518867521081,251.48216545869946 99.94302434567362,250.23478620086098 102.35228058678331,249.88935653683438 104.19178028439637,248.62277530554275 105.41268716339255,248.77630078840593 105.83593488147017,248.31572393837268 104.51735545211704,246.3390679468721 103.06854595569894,247.12589483434567 102.18949300289387,246.10877648556198 101.04997991590062,245.5714285714348 98.91746256733313,245.6673836763075 96.98029031936312,246.4734044936049 94.91288800432812,246.81884085743513 95.04311807145132,248.33491466447595 94.16406511852983,249.46716380512225 94.88033048756188,250.138833584424 95.20590565528255,251.09835739721893 96.16635240003234,251.50135583979136 97.15935666166479,251.0024052511144 98.10352464794414,250.9448339384253 99.21048021828756,254.07284799806075 100.0732544127386,254.82126030426298 102.92203713022172,254.22636873037845 104.71270055277273,257.9875848753145 101.26160377485212,259.15815106392256 101.08253743266687,262.0941271175543 100.72440474817995,262.53547876402445 99.81279427849222,265.7784199930611 99.61744917795295,265.9319305240206 97.68027692998294,265.58653164120915 97.07796286966186,267.88917806893005" stroke="#4DD2FF" stroke-linecap="round" stroke-linejoin="round" stroke-width="0.5"><title>2025-03-25 6.1km</title><desc>1742909450000</desc></polyline></svg>