<?xml version="1.0" encoding="utf-8" ?>
<svg baseProfile="full" height="300mm" version="1.1" viewBox="0,0,200,300" width="200mm" xmlns="http://www.w3.org/2000/svg" xmlns:ev="http://www.w3.org/2001/xml-events" xmlns:xlink="http://www.w3.org/1999/xlink"><defs /><rect fill="#222222" height="300" width="200" x="0" y="0" /><text fill="#FFFFFF" style="font-size:12px; font-family:Arial; font-weight:bold;" x="10" y="20">Over 5km Runs</text><text fill="#FFFFFF" style="font-size:4px; font-family:Arial" x="10" y="280">Runner</text><text fill="#FFFFFF" style="font-size:9px; font-family:Arial" x="10" y="290">Elliont</text><text fill="#FFFFFF" style="font-size:4px; font-family:Arial" x="65" y="280">SPECIAL TRACKS</text><rect fill="yellow" height="2.6" width="2.6" x="65" y="283" /><text fill="#FFFFFF" style="font-size:3px; font-family:Arial" x="70" y="285.5">Over 20.0 km</text><rect fill="red" height="2.6" width="2.6" x="65" y="287" /><text fill="#FFFFFF" style="font-size:3px; font-family:Arial" x="70" y="289.5">Over 40.0 km</text><text fill="#FFFFFF" style="font-size:4px; font-family:Arial" x="120" y="280">STATISTICS</text><text fill="#FFFFFF" style="font-size:3px; font-family:Arial" x="120" y="285">Number: 27</text><text fill="#FFFFFF" style="font-size:3px; font-family:Arial" x="120" y="290">Weekly: 1.6</text><text fill="#FFFFFF" style="font-size:3px; font-family:Arial" x="141" y="285">Total: 173.0 km</text><text fill="#FFFFFF" style="font-size:3px; font-family:Arial" x="141" y="290">Avg: 6.4 km</text><text fill="#FFFFFF" style="font-size:3px; font-family:Arial" x="167" y="285">Min: 5.0 km</text><text fill="#FFFFFF" style="font-size:3px; font-family:Arial" x="167" y="290">Max: 10.1 km</text><polyline fill="none" points="44.20000000001164,52.552230499946745 35.634775767161045,50.83955599956971 25.84594807238318,46.347440279394505 24.596852871763986,45.971838692668825 11.799999999988358,43.44776950006781 15.203147128224373,44.168936839472735 15.483556254941504,44.04874254472088 16.235562549205497,44.36425234503986 25.144925255677663,46.182175707261194 35.74948859162396,50.959744377527386 43.626435877231415,52.53720713182702" stroke="#4DD2FF" stroke-linecap="round" stroke-linejoin="round" stroke-width="0.5"><title>2025-08-04 5.0km</title><desc>1754309955000</desc></polyline><polyline fill="none" points="80.20000000001164,51.77042346964299 73.72393084620126,50.473111536543 66.25532302091597,47.04442525465129 65.13503184716683,46.67374984667549 53.28353048226563,44.333831515410566 51.20018198364414,44.229576530364284 48.664786169305444,44.42650252742169 47.79999999998836,44.24116042262176 47.986715195700526,44.38016703152243 49.17579617834417,44.461254136127536 52.605459508660715,44.27591209189268 57.3126478617196,45.202619082941965 58.06933575979201,45.21420286924695 59.37634212919511,45.60805085233733 65.00727934483439,46.68533347274206 66.56979071884416,47.241346039634664 73.60600545955822,50.46152832303778 79.53175614197971,51.65459269036364" stroke="#4DD2FF" stroke-linecap="round" stroke-linejoin="round" stroke-width="0.5"><title>2025-08-03 6.5km</title><desc>1754227262000</desc></polyline><polyline fill="none" points="112.44720349065028,51.79483058828919 103.84918683063006,50.083038161392324 93.01491471636109,45.2656685388647 83.79999999998836,43.38715215037519 93.81174137245398,45.47775750492292 104.18333994445857,50.2193763833784 116.20000000001164,52.61284784961026 112.71709639031906,51.825127609670744 112.71709639031906,51.5978997884813" stroke="#4DD2FF" stroke-linecap="round" stroke-linejoin="round" stroke-width="0.5"><title>2025-08-01 5.0km</title><desc>1754057984000</desc></polyline><polyline fill="none" points="149.100227790419,61.524449931988784 143.5731207289209,60.43221308858483 137.4883826879086,57.6290658715734 136.18451025054674,57.21341926432797 126.34396355351782,55.30915294206352 124.54806378131616,55.25115434180043 122.76036446468788,55.40581719158217 121.90751708426978,55.25115434180043 121.20227790431818,54.854829558869824 120.6856492027,54.3618377245366 120.09521640089224,53.240512764990854 119.79999999998836,52.26417518301605 123.41640091114095,49.26742838732025 125.92574031889671,46.58960449384176 128.22186788154067,44.578766632934276 129.95216400909703,43.582998319172475 131.30523917995743,42.58721882831014 132.26469248291687,42.49054061255447 132.6091116173193,42.277848167024786 133.6587699316733,41.06935868260916 134.47881548971054,39.25175949615368 135.28246013668831,38.52664304494829 139.1202733485261,36.41893757008074 143.61412300678785,34.475550068011216 143.68792710703565,35.10401337163057 144.34396355351782,35.55843790931249 145.02460136672016,36.77667092734191 145.44282460134127,37.94654561603966 146.47608200454852,40.08321906484343 149.16583143506432,45.12015054051153 149.5266514806135,46.20290844473493 150.5927107061434,48.43605489066249 151.3143507972418,50.92048510379391 151.36355353074032,52.467176950973226 151.26514806377236,53.02784608797083 151.5193621867511,53.21151279359037 151.28154897489003,54.67116625442577 152.19999999998254,55.01915956169978 152.16719817763078,55.4928149261541" stroke="#4DD2FF" stroke-linecap="round" stroke-linejoin="round" stroke-width="0.5"><title>2025-07-28 10.0km</title><desc>1753704756000</desc></polyline><polyline fill="none" points="185.01867203216534,51.97275033085316 176.41344064386794,50.25152801962395 166.55653923540376,45.73321956422296 164.95283702207962,45.195316063574865 155.79999999998836,43.36642882322485 165.95678068406414,45.548795737864566 174.44466800807277,49.544591345635126 176.6481287726201,50.374473166652024 188.20000000001164,52.6335711767897 185.14905432594242,51.942014402273344 185.30551307846326,50.94309307834192" stroke="#4DD2FF" stroke-linecap="round" stroke-linejoin="round" stroke-width="0.5"><title>2025-07-22 5.0km</title><desc>1753194638000</desc></polyline><polyline fill="none" points="30.229181494622026,90.51023195129528 40.96192170813447,92.63939075106464 44.199999999953434,92.8319189191534 41.37508896790678,92.67336633603554 23.685765124566387,89.20779949627467 15.970106761553325,85.70813931852172 11.799999999988358,84.76808108084515 15.922064056969248,85.73079121940827 23.15729537361767,89.07189256115817 26.135943060507998,89.7061234055509" stroke="#4DD2FF" stroke-linecap="round" stroke-linejoin="round" stroke-width="0.5"><title>2025-07-19 6.4km</title><desc>1752877000000</desc></polyline><polyline fill="none" points="77.23281607733225,102.41269492981519 71.71879928768612,101.31490104319528 65.45474433986237,98.44891527784057 64.38326125667663,98.10887695785641 54.204171966412105,96.14634475246567 50.676519969449146,96.26293203046225 49.90999745609588,96.11719790916686 49.192928008124,95.69942544175137 48.492342915269546,94.96103210904403 47.8824217756046,93.59110197170958 47.79999999998836,93.09559014438128 51.40183159499429,90.11274509541545 53.78382091069943,87.52817978591338 56.13284151616972,85.47796379897045 59.001119308086345,83.56373854728008 59.50389213938615,83.32081362250756 60.27041465276852,83.28194557312236 60.814398371905554,82.9418494182828 61.70455354871228,81.88268451067415 62.50404477232951,80.0655557715072 63.35298906132812,79.27844573098992 67.52353090816177,77.00453324327827 71.78473670824314,75.18730507019063 71.7929788857582,75.88699089158035 72.45235309080454,76.3242917411335 72.88918850160553,77.13086323645985 73.78758585598553,79.19098863085674 76.55695751716848,84.39939523415524 77.28226914271363,86.13870206113643 77.48008140421007,86.32331922985759 78.72465021623066,89.51033431223186 79.00488425337244,89.90870318910311 79.4499618417467,91.57017370717949 79.53238361742115,92.66808753220539 79.40050877639442,94.33922245594295 78.99664207579917,95.90345410053123 80.19999999998254,96.17549158624752" stroke="#4DD2FF" stroke-linecap="round" stroke-linejoin="round" stroke-width="0.5"><title>2025-07-17 10.0km</title><desc>1752756134000</desc></polyline><polyline fill="none" points="116.19999999995343,93.37201448855922 107.61035163962515,91.65189670675318 96.7164757012506,86.80829243420158 83.79999999998836,84.22798551143205 97.29253259580582,87.04972220222407 107.36712761753006,91.63680785975885 115.80316080595367,93.3569258289208" stroke="#4DD2FF" stroke-linecap="round" stroke-linejoin="round" stroke-width="0.5"><title>2025-07-14 5.0km</title><desc>1752500928000</desc></polyline><polyline fill="none" points="152.20000000001164,93.33868621043803 143.61235340102576,91.6516542447207 134.73338545736624,87.53102870992734 132.630805316614,86.76959521551908 119.79999999998836,84.2613137895678 133.46677091473248,86.99354668233718 143.764347146207,91.71137254482892 151.28803752933163,93.21925100189401" stroke="#4DD2FF" stroke-linecap="round" stroke-linejoin="round" stroke-width="0.5"><title>2025-06-21 5.0km</title><desc>1750468889000</desc></polyline><polyline fill="none" points="177.96763828318217,90.78978059480869 186.3929768188682,92.47265378577868 188.19999999998254,92.56906733006326 186.64581133803586,92.47265378577868 172.8737663529464,89.78179282421479 171.39394078491023,89.20328979354235 166.96933669951977,87.09960735629284 166.18852421388146,86.84540867147734 157.1608446178434,85.09229243011214 155.79999999998836,85.03093266993528 157.00468212072155,85.05722971576324 160.5220564608171,85.70588745874556 166.85035574936774,87.07331097783026 171.5575395914202,89.29970725409657 172.7622217121534,89.76426249044744 174.07101216429146,90.02721709617617" stroke="#4DD2FF" stroke-linecap="round" stroke-linejoin="round" stroke-width="0.5"><title>2025-06-17 8.1km</title><desc>1750165544000</desc></polyline><polyline fill="none" points="44.199999999953434,134.1190818750474 36.031090487202164,132.4946197256795 25.38143851503264,127.73926411751017 11.799999999988358,125.08091812494968 25.406496519688517,127.79833788095857 35.85568445472745,132.4798517987074 42.74663573078578,133.88279768083885" stroke="#4DD2FF" stroke-linecap="round" stroke-linejoin="round" stroke-width="0.5"><title>2025-06-15 5.0km</title><desc>1749939796000</desc></polyline><polyline fill="none" points="70.18833794421516,131.45715379578905 77.83498616723227,132.98503689665813 80.19999999998254,133.13132193580532 78.3383273036743,133.0175447079164 65.54105128749507,130.5306562553742 64.29304107255302,130.05927589906787 60.121515215956606,128.07619489211356 59.19067886783159,127.76734966463846 50.778676314104814,126.14182739874377 49.75820387317799,126.06867806419905 47.79999999998836,126.22310435305553 50.57871887634974,126.12557199727598 58.832134496682556,127.71858451188746 59.83192168545793,127.994919956167 62.21762077038875,129.1246336293989" stroke="#4DD2FF" stroke-linecap="round" stroke-linejoin="round" stroke-width="0.5"><title>2025-06-11 8.1km</title><desc>1749642919000</desc></polyline><polyline fill="none" points="116.19999999995343,134.1091344786546 107.78278402477736,132.48026316486357 97.20473051565932,127.75642600619176 83.79999999998836,125.0908655213425 97.35548662266228,127.81566009008384 107.8707250871812,132.5543031933339 114.80550601007417,133.94624822532933" stroke="#4DD2FF" stroke-linecap="round" stroke-linejoin="round" stroke-width="0.5"><title>2025-06-08 5.0km</title><desc>1749387304000</desc></polyline><polyline fill="none" points="132.35216783173382,138.30761682454613 135.8413986011874,136.22423904729658 143.18237762222998,134.88873581567896 146.89818181819282,132.1108774410095 150.9311888110824,132.2177184386237 152.01874125842005,131.30956921569305 144.85902097891085,119.66374183804146 140.0103496501688,120.62533439332037 135.38825174816884,123.34983639040729 132.80531468521804,123.34983639040729 128.68167832144536,125.27300515482784 121.92979020951316,126.66195568151306 122.15636363625526,131.042466182902 119.80000000004657,133.98059154016664 121.79384615365416,136.17081898782635 122.65482517471537,138.89523459714837 123.92363636358641,139.696530424495 131.808391608065,138.04051760429866 135.97734265727922,136.17081898782635 142.04951048921794,135.36951739818323 147.12475524446927,132.1108774410095 150.7046153843403,132.27113892888883 152.15468531451188,131.042466182902 144.85902097891085,119.50347622879781 139.46657342626713,120.67875614657532 135.4788811185863,123.29641492819064 131.85370629350655,123.67036504176212 127.41286713257432,125.64695376067539 122.06573426560499,126.55511347297579 122.20167832146399,131.30956921569305 119.80000000004657,133.98059154016664 121.92979020951316,136.27765910100425 123.01734265708365,139.0554938671994 124.55804195790552,139.80336976927356 136.9742657339666,136.0105587746657 142.18545454507694,135.42293754484854 146.67160839145072,132.37797989178216 150.84055944019929,132.32455941327498 152.19999999995343,130.98904555878835 144.36055944045074,119.34321056710905 139.01342657301575,120.9992865442764 135.29762237751856,123.29641492819064 122.29230769188143,126.28800784988562 122.24699300690554,131.042466182902 119.84531468502246,133.8737509267521 121.88447552430443,136.17081898782635 122.65482517471537,138.73497527444852 124.96587412571535,139.8567894329317 143.27300699264742,134.30111324132304 145.53874125843868,131.25614862082875 144.85902097891085,128.2111650884326 141.86825174815021,124.47168575314572 139.33062937040813,123.18957198632415 137.15552447526716,123.08272902094177 134.66321678296663,124.09773625084199 130.63020979007706,128.95905753268744 124.19552447553724,130.02747333110892 120.3437762237154,133.07244558262755 120.20783216762356,134.35453350437456 122.38293706276454,136.97211926797172" stroke="#4DD2FF" stroke-linecap="round" stroke-linejoin="round" stroke-width="0.5"><title>2025-06-04 6.4km</title><desc>1749041988000</desc></polyline><polyline fill="none" points="188.19999999995343,134.1387511255598 179.89585110504413,132.48026415031927 170.43590538966237,128.11183110786078 169.0037223729887,127.63795874643256 155.79999999998836,125.06124887445185 169.38061264058342,127.78604403676582 179.70740597130498,132.45064812763303 186.60449786734534,133.87220994017844" stroke="#4DD2FF" stroke-linecap="round" stroke-linejoin="round" stroke-width="0.5"><title>2025-05-28 5.0km</title><desc>1748436903000</desc></polyline><polyline fill="none" points="44.20000000001164,174.92456418641086 35.20284810126759,173.0815510553075 24.783069620258175,168.3681601844437 11.799999999988358,165.86032924975734 24.360126582265366,168.2775164826453 25.92373417725321,168.77605610944738 35.959018987370655,173.36857930020778 44.046202531666495,174.93967075023102" stroke="#4DD2FF" stroke-linecap="round" stroke-linejoin="round" stroke-width="0.5"><title>2025-05-27 5.0km</title><desc>1748351986000</desc></polyline><polyline fill="none" points="71.79371806641575,177.08368262184376 71.83701650006697,175.14398837155022 72.85452969209291,172.84057387856592 73.52565541444346,168.56705454380426 73.48235698067583,168.96107127694995 72.50814222241752,169.08230701861612 67.7669637320796,172.44656576981652 65.97007873351686,172.87088215838594 65.25565457739867,171.68885540636256 66.0783248177031,170.3552772992989 67.59376999735832,169.17323377044522 67.35562861186918,167.14252520039736 68.07005276798736,165.83922236735816 67.11748722661287,165.2936508938874 63.63196331355721,165.35427002950746 62.72269620583393,164.02064425831486 63.02578524174169,162.44452813603857 63.69691096409224,162.65669843043725 63.63196331355721,161.62615462121903 64.62782728869934,162.23235758765077 66.44636150426231,162.17173738431302 67.89685903326608,163.14165814955777 69.86693776666652,163.20227802124282 70.66795879020356,162.8082484852639 72.638037523604,160.0500172045431 72.72463439090643,155.4427659226203 72.01021023490466,154.62436007535143 70.88445095869247,154.20000000001164 69.49890108022373,154.59404867512058 68.26489571970887,155.95805655424192 67.31233017821796,156.29147910574102 65.36390066170134,155.92774538205413 63.30722506076563,154.80622836806288 61.42374319478404,155.4427659226203 60.471177653293125,156.8977003195614 60.51447608706076,158.44355502886174 61.33714632736519,159.59535957562912 63.19897897657938,160.4743632725149 63.63196331355721,161.53522399745998 62.78764385636896,163.5053770681261 63.393821928300895,165.32396046434587 63.54536644613836,167.83963673521066 62.74434542260133,170.56743812395143 63.372172711300664,171.32515328133013 65.21235614374746,171.77978082097252 65.92678029974923,172.87088215838594 64.28143981914036,175.5379904841102 62.24641343508847,176.3562997655099 58.847486389568076,178.8415122010192 56.37947566853836,179.90226299580536 55.81659603037406,181.35699662024854 54.43104615190532,182.87233145003847 55.62175307876896,186.26663445973827 56.70421392121352,186.50908218759287 58.13306223344989,185.63020759649226 59.80005193094257,186.3272464228794 61.012408074573614,186.17571647636942 61.964973616064526,185.175615580898 62.657748555298895,182.66018535368494 64.30308903590776,181.75098492222605 68.07005276798736,182.9329445737967 69.49890108022373,182.23589239937428 71.7287704157643,182.11466565453156 71.85866571695078,175.386451313796 73.5689538482111,169.38539600995136 73.30916324595455,168.96107127694995 72.6596867403714,169.02168915818038 67.78861294896342,172.4768741169537 66.03502638405189,172.84057387856592 64.10824608430266,175.62891392421443 62.051570483483374,176.44722278580593 58.82583717268426,178.8415122010192 56.509370969608426,179.75072755664587 55.81659603037406,181.44791707542026 54.43104615190532,182.99355767673114 55.5135069944663,186.11510446149623 56.22793115058448,186.60000000000582 58.00316693226341,185.63020759649226 60.0381933163153,186.35755239658465 61.40209397790022,185.8120440763596" stroke="#4DD2FF" stroke-linecap="round" stroke-linejoin="round" stroke-width="0.5"><title>2025-05-23 6.4km</title><desc>1747958832000</desc></polyline><polyline fill="none" points="102.94369621016085,171.91309194079076 103.82054188963957,172.74610326241236 106.01265608868562,173.09684406181623 107.10871318809222,174.49980246096675 106.82686993398238,180.02387653024925 106.29449934279546,181.03222641107277 104.38422839809209,181.6021615460486 102.50527337042149,180.94454397028312 100.75158201099839,181.3391147180664 97.77656988392118,179.58546230166394 95.99156260758173,180.28692470761598 94.67629408824723,180.06771791195206 95.05208509368822,178.79631480088574 94.11260757991113,176.3411737089191 94.39445083402097,174.5874871059641 93.39234148594551,172.92147372201725 93.83076432568487,170.29090423107846 100.15657958562952,170.02784579743457 102.31737786752637,170.81702028855216 103.44475088408217,172.6145753388264 105.85607650293969,173.05300148807873 106.92081768531352,174.06137878586014 106.82686993398238,180.15540065265668 106.35713117709383,181.03222641107277 104.509492066456,181.55832042684779 102.72448479011655,180.98838519443234 100.68895017681643,181.2952735539002 97.71393804962281,179.6293037582218 93.92471207713243,180.4184486950544 91.8891774637159,182.08441336294345 92.54681172338314,182.56666427281743 93.04786639742088,185.19710781323374 96.11682627606206,186.60000000000582 97.43209479551297,185.67935286817374 98.3089404751081,183.88188941637054 98.18367680651136,182.47898235663888 96.55524911580142,179.89235234029184 98.18367680651136,179.6293037582218 100.72026609408204,181.2952735539002 102.72448479011655,180.72533773675968 102.47395745315589,180.06771791195206 100.43842283985578,180.11155928605876 99.34236574033275,178.70863159530563 100.3757910055574,174.5874871059641 97.68262213247363,170.46627637022175 97.87051763525233,167.1780287985166 98.59078372921795,165.77503033146786 100.03131591703277,164.94199635890254 102.75580070738215,165.81887414988887 104.97923082346097,165.24890392691304 102.47395745315589,167.7041512442811 99.87473633140326,167.5726207340922 98.3089404751081,166.38884310571302 95.89761485625058,165.86271796064102 95.96024669043254,160.5137176961871 97.02498787280638,158.2776271289622 97.08761970698833,154.94537754528574 97.745253966772,154.28769158832438 99.74947266292293,154.20000000001164 105.51160141464788,155.03306887876533 106.70160626550205,156.08536254038336 107.10871318809222,158.2776271289622 108.1108225362841,159.37375239307585 107.45318827650044,160.25064923000173 107.86029519932345,160.82063056556217 105.88739242020529,162.00443390550208 105.66818100016098,164.76662044075783 102.75580070738215,167.61646424492938 100.46973875688855,167.7041512442811 98.21499272366054,166.2573119206063 96.0228785246145,165.99424934806302 95.92893077339977,160.82063056556217 97.27551520976704,156.34843528078636 98.6847314806655,155.82228952988226 98.71604739769828,154.50692042818991 105.13581040897407,154.90153186740645" stroke="#4DD2FF" stroke-linecap="round" stroke-linejoin="round" stroke-width="0.5"><title>2025-05-20 5.0km</title><desc>1747754393000</desc></polyline><polyline fill="none" points="147.90711297094822,172.66414783036453 150.93472803360783,173.03704830553033 152.20000000018626,171.70525958877988 144.69874477013946,160.4115454427956 139.45690376590937,161.69009221566375 135.38995815929957,164.08735840246663 132.85941422590986,164.19390329351882 126.71380753163248,166.53788502144744 121.7882845189888,167.23042292671744 122.19497907953337,171.75853120701504 119.80000000004657,174.84827513841446 121.7882845189888,176.6062241770851 122.5112970713526,179.0566880480328 123.59581589954905,180.1221032916801 125.6292887032032,180.44172741202055 135.79665271984413,177.138934759103 141.85188284539618,176.28659754939144 147.09372384962626,172.82396235471242 150.93472803360783,172.93050534185022 152.1096234312281,171.91834602723247 144.87949790805578,160.46481829168624 142.89121338911355,160.5180911347561 135.5707112972159,163.98081348833512 132.22677824273705,164.3537205866014 128.02426778245717,166.27152402733918 121.42677824292332,167.49678339826642 122.37573221791536,171.01272802229505 119.80000000004657,174.7950038568233 121.69790795003064,176.3931397817505 122.28535564872436,178.63052130065626 123.64100418426096,180.06883258468588 125.6292887032032,180.3351860619441 136.65523012564518,176.7127663399442 142.57489539775997,175.96697071264498 146.8677824267652,172.93050534185022 150.9799163180869,172.93050534185022 152.1096234312281,171.81180281963316 144.87949790805578,160.5180911347561 143.29790794989094,160.3582725879678 139.23096234328113,161.69009221566375 135.70627615065314,163.98081348833512 132.81422594143078,164.08735840246663 127.3916317995172,166.3780684423691 122.01422594161704,167.33696713263635 122.28535564872436,171.5454446989752 119.89037656923756,174.6884612760041 121.69790795003064,176.49968199103023 122.96317991637625,179.64266671947553 125.81004184111953,180.28191537800012 134.98326359852217,177.19220578527893" stroke="#4DD2FF" stroke-linecap="round" stroke-linejoin="round" stroke-width="0.5"><title>2025-05-14 5.0km</title><desc>1747227249000</desc></polyline><polyline fill="none" points="167.27369319985155,186.2486688997451 167.93367297830991,185.64638576719153 168.8917081404943,182.08284501699382 171.76581362693105,182.53456450071826 173.3199595566839,176.31079587427666 173.02190417295787,172.3204686618119 170.02006066485774,164.81645858295087 170.14779868652113,163.13492447082535 172.23418637306895,162.005528997106 175.34247823245823,161.4784758808819 177.34370723797474,160.0980929564248 178.9830118486425,160.2486805865774 179.6004122865852,159.59613347829145 176.30051339464262,154.32549291204487 175.4702162540052,154.1999999999971 173.19222153513692,155.02825195615878 171.76581362693105,156.00709133708733 170.53101275127847,156.03218972809555 168.01883165934123,157.03612312411133 165.4427815566305,157.4125970195164 165.61309891880956,159.3702513562166 164.3995877134148,160.90122584610071 164.6124844161095,161.45337808331533 165.33633320522495,161.9302357685956 166.0601819945732,163.6117786749819 166.97563781612553,163.7121689079504 175.15087120002136,161.25259560476115 176.06632702169009,160.44946394015278 176.40696174604818,159.3702513562166 176.00245801080018,157.96475761960028 174.57605010271072,156.43376361156697 172.830297140521,155.88159934125724 171.29744088102598,156.30827184820373 169.25363253511023,158.61730934961815 166.3369477080414,159.119270960844 164.65506375662517,160.62514923104027 164.69764309725724,161.45337808331533 166.97563781612553,163.21021730559005 169.57297758909408,162.9341434580274 175.08700218924787,161.25259560476115 176.2792237243848,160.14828884408053 176.34309273515828,158.94358452134475 175.4702162540052,157.36240053568326 173.40511823783163,155.95689454695093 170.53101275127847,156.05728811632434 167.82722462690435,157.13651622306497 165.40020221611485,157.61338284540398 165.59180924855173,159.4706434378022 164.42087738367263,161.00161726043734 165.3576228755992,161.9302357685956 165.82599562150426,163.2855101156456 166.91176880523562,163.73726645940042 168.18914902152028,163.08472923409136 170.5523024215363,162.68316694587702 169.9987709945999,163.7121689079504 170.06264000525698,164.5152891966427 172.74513845948968,171.24131169286557 173.3838285675738,174.35328550091072 173.14964219462126,177.841657781275 172.08515868103132,181.83188936563965 169.33879121614154,181.43035975478415 168.25301803229377,185.09429151250515 167.42272089188918,185.4456243730383 167.0820861675311,186.60000000000582 166.63500309188385,186.4243345168652" stroke="#4DD2FF" stroke-linecap="round" stroke-linejoin="round" stroke-width="0.5"><title>2025-05-06 7.1km</title><desc>1746539597000</desc></polyline><polyline fill="none" points="24.180212337290868,227.39999999999418 23.960684310644865,227.14123156382993 24.992466035764664,223.6995845601923 27.604849552270025,224.32063733020914 28.065858408110216,223.51844386309676 29.42693217296619,217.79950226689107 29.38302656763699,214.95291893200192 25.497380496934056,204.18734986765776 24.443645969266072,203.95443552928919 22.950855388422497,204.67905716552923 22.0288376766257,204.49790196369577 20.294566266587935,201.80643697528285 21.480017610127106,200.5124525669089 21.194631175603718,198.44206284967368 22.731327361776493,198.364422884144 27.868283184128813,196.91513886964822 29.53669618628919,195.87993058757274 32.28079651866574,195.05176071304595 35.81519774708431,200.46069304386037 35.376141693792306,201.15944565233076 33.44429505977314,200.97828776601818 31.380731609649956,202.47930608168826 28.24148082942702,202.94513742328854 26.397445405833423,203.82503857582924 24.04849552141968,204.13559114560485 22.621563348453492,204.7308157691732 21.69954563677311,204.34262596644112 21.172678372939117,202.89337843043904 20.33847187180072,202.27226963655266 20.33847187180072,201.78055735622183 21.480017610127106,200.25365483920905 21.172678372939117,198.46794283251802 23.587486665463075,198.15738285207772 27.802424776251428,196.81161824449373 31.797834860277362,194.99999999998545 32.41251333465334,195.2070427845465 35.7932449443033,200.46069304386037 35.46395290445071,201.10768627036305 33.59796467830893,200.97828776601818 30.897769951145165,202.66046282305615 28.702489685150795,202.81573991998448 22.731327361776493,204.67905716552923 21.809309649979696,204.42026397777954 21.216583978151903,202.89337843043904 20.33847187180072,202.22051049715083 21.458064807462506,200.3054144072521 21.194631175603718,198.44206284967368 23.49967545492109,198.15738285207772 27.626802354934625,196.8892587176524 29.0976401331136,195.98345161882753 31.841740465490147,194.99999999998545 32.34665492665954,195.2070427845465 35.771292141638696,200.43481327817426 35.44200010178611,201.0818065750209 33.44429505977314,200.9524080567062 31.31487320177257,202.50518562465732 28.219528026646003,202.94513742328854 26.002294957987033,203.90267675637733 24.180212337290868,204.05795304119238 22.77523296698928,204.70493646878458 21.743451241985895,204.31674662373553 21.194631175603718,202.89337843043904 20.31651906913612,202.24639006826328 20.294566266587935,201.80643697528285 21.172678372939117,200.9524080567062 20.140896647819318,201.9099554234126 21.106819964945316,203.04865537515434 21.545876018120907,204.2391085785348 22.489846532582305,204.8084536537208 27.9560943946708,203.10041433414153 31.22706199111417,202.71222186667728 33.33453104645014,201.10768627036305 35.288330483133905,201.10768627036305 35.8591033522971,200.5124525669089 32.19298530824017,194.99999999998545 29.40497937030159,195.8281700550724 27.670707960263826,196.9410190188646 26.11205897142645,197.04453958770318 23.719203481450677,198.0279827404156 20.887291938299313,198.59734270452464 21.37025359692052,200.25365483920905 20.25066066114232,201.62527958248393 20.20675505581312,202.2981492021063 21.084867162280716,202.9710169154423 21.480017610127106,204.18734986765776 22.314224111265503,204.70493646878458 25.497380496934056,204.16147050804284 28.922017711796798,213.06380388855177 29.317168159643188,215.0823098236433 29.40497937030159,217.69599074330472 27.846330381464213,224.08774273170275 24.860749219777063,223.72546179131314 24.202165139839053,226.85658595852146 23.85092029743828,227.14123156382993" stroke="#4DD2FF" stroke-linecap="round" stroke-linejoin="round" stroke-width="0.5"><title>2025-04-29 10.1km</title><desc>1745929124000</desc></polyline><polyline fill="none" points="78.95545964606572,208.10954848476104 78.41009926627157,207.64802204543957 78.71773845492862,205.95025196015195 77.94864048337331,208.48865843554086 77.36132930516033,208.57107351659215 75.6133793698391,215.42785106152587 75.41760897717904,215.47729784838157 66.51005610701395,213.7136857979931 55.15537332755048,208.60403953642526 47.79999999998836,207.0381456632458 55.09943892958108,208.620522543657 64.06292619759915,212.82363079232164 66.60794130334398,213.77961559017422 80.19999999995343,216.44974803984223 75.54346137243556,215.4443333255913 75.83711696154205,214.24112333147787 76.66214933095034,214.04333447181853 78.5359516615863,206.16453467166866 78.89952524809632,206.03266842357698 78.41009926627157,207.31835944132763" stroke="#4DD2FF" stroke-linecap="round" stroke-linejoin="round" stroke-width="0.5"><title>2025-04-22 6.3km</title><desc>1745328842000</desc></polyline><polyline fill="none" points="95.29949072259478,226.44789839697478 95.83797388570383,226.20987241284456 96.95981380867306,222.53366369509604 99.83172401157208,222.95682724541984 101.33498950838111,217.4820918616606 101.08818472537678,211.95433523743122 97.96946973935701,204.31048356019892 97.90215934393927,202.98799344987492 99.58491922856774,201.61259609241097 103.12993338517845,201.03069486451568 105.68772840965539,199.36433363167453 107.37048829416744,199.5230351943028 108.06602904642932,198.91467864086735 106.56276354950387,196.5605889173312 104.54345168813597,197.59215913439402 102.92800219904166,195.7141690547287 101.20036871766206,194.99999999998545 97.96946973935701,195.264507302345 95.7706634902861,196.24318181470153 92.80900609353557,196.7457428688358 93.25774206279311,198.59727461643342 91.95640775212087,200.47524239125778 92.92119008593727,201.29519559555047 93.41479965206236,202.6705947513983 94.4244555827463,203.19959235172428 98.10409053019248,202.32674569300434 100.23558638384566,201.4009958072711 103.04018619132694,201.03069486451568 105.35117643268313,199.47013468503428 107.37048829416744,199.4965849411965 108.04359224787913,198.86177799894358 106.58520034805406,196.5605889173312 104.56588848656975,197.53925820429868 102.92800219904166,195.6877183864999 101.33498950838111,195.0264507432148 97.85728574707173,195.264507302345 95.81553708727006,196.21673120411288 93.36992605519481,196.5870394904632 93.03337407822255,196.85154506345862 93.21286846592557,198.6766256614501 91.95640775212087,200.34299161507806 92.87631648895331,201.29519559555047 93.34748925664462,202.6970446587511 94.31227159046102,203.25249204829743 100.28045998082962,201.37454575873562 102.95043899759185,201.0835950338078 105.37361323123332,199.47013468503428 107.46023548790254,199.47013468503428 108.02115544956177,198.80887734553835 106.5403267510701,196.5076877623942 104.45370449428447,197.51280773484905 102.90556540060788,195.6877183864999 101.5369206945179,195.1058029554988 98.53038970089983,195.13225368714484 95.5911691026995,196.24318181470153 93.32505245809443,196.5870394904632 93.01093727967236,196.82509451913938 93.16799486905802,198.91467864086735 91.9339709536871,200.42234208942682 92.94362688437104,201.34809570726065 93.39236285351217,202.6970446587511 94.132777202758,203.17314249911578 103.15237018372864,200.6868434832868 104.25177330814768,199.7875375681324 104.63319888187107,198.43857244863466 104.31908370356541,197.433456309358 103.21968057902995,196.08447810781945 101.49204709765036,195.0529014835629 98.50795290234964,195.15870441598236 95.50142190873157,196.32253362929623 92.98850048123859,196.7457428688358 93.25774206279311,198.54437390535895 91.95640775212087,200.3694417760271 93.05581087665632,201.71839616584475 92.62951170594897,202.5383451711241 93.7513516289182,204.83947758708382 94.6263867688831,208.70109906271682 95.0078123427229,213.03873760823626 94.91806514875498,215.8951889633754 92.71925889980048,226.65947685357241 94.31227159046102,227.39999999999418" stroke="#4DD2FF" stroke-linecap="round" stroke-linejoin="round" stroke-width="0.5"><title>2025-04-15 8.8km</title><desc>1744723077000</desc></polyline><polyline fill="none" points="151.98707557527814,207.73866069864016 151.0466593648307,207.67591465171427 151.73866374604404,205.64711475151125 150.92245345038828,209.03540774541034 151.11763417324983,209.55828714175732 150.03526834619697,213.15565879632777 148.9883899234701,213.17657355075062 149.00613362551667,214.0549911808048 147.7995618841378,217.96599233639427 136.03548740432598,215.62358409792068 122.55027382262051,209.37005072309694 119.80000000004657,208.5752726988867 122.74545454559848,209.5164568424516 136.017743702163,215.64449858364242 147.83504928823095,217.9450781035266 148.22541073395405,216.37650414749805 149.11259583802894,216.27193209489633 149.87557502742857,214.0549911808048 152.20000000006985,204.4340076635999 151.57897042739205,207.88506806186342" stroke="#4DD2FF" stroke-linecap="round" stroke-linejoin="round" stroke-width="0.5"><title>2025-04-11 5.1km</title><desc>1744377642000</desc></polyline><polyline fill="none" points="165.12313802994322,227.39999999999418 166.2189631892834,226.1873848914547 166.509692313266,227.08366620952438 167.60551747272257,226.1873848914547 168.83552530466113,222.4704181184061 171.7204527653521,223.1294589437457 172.23481967684347,222.94492769356293 173.57664640271105,217.17166466187336 173.66610151785426,214.00817445394932 173.10700704879127,211.1873608075839 169.88662290666252,204.1747283253644 169.79716779163573,202.98836062595365 171.3626323051285,201.67016747104935 174.96320068615023,201.09016020782292 177.46794390771538,199.376494262513 179.10049975756556,199.53467931973864 179.92795957194176,198.84920999132737 178.16122104949318,196.08094871563662 176.3050274120178,197.16189260190004 174.11337709322106,195.3163757337461 172.14536456181668,195.21091720178083 171.0942669599317,195.71184481907403 168.96970797725953,198.0319171002775 165.92823406530079,198.48011031786154 164.16149554296862,200.00923387102375 164.07204042794183,200.5101515543647 164.98895535734482,201.27470812418323 165.3691395962378,202.51381191739347 166.3755096406676,203.0938157680357 175.20920225267764,200.61560777653358 176.41684630594682,199.45558680404793 176.5510289783124,198.16373872103577 175.23156603134703,196.10731325807865 173.10700704879127,195.0 170.2444433667697,195.15818791858328 167.44897102133837,196.23913592741883 165.0336829148,196.66096798675426 165.2349569236394,198.50647459896572 164.07204042794183,199.93014151045645 164.07204042794183,200.43105935747735 164.98895535734482,201.19561617728323 165.950597844203,203.06745198676072 166.93460410973057,203.0938157680357 168.25406705692876,202.40835652251553 169.46171111019794,202.51381191739347 172.99518815486226,211.87279518511787 173.42009995144326,214.32452533574542 173.28591727884486,216.85531750203518 172.03354566800408,222.20680128580716 169.14861820742954,221.7586520112818 168.00806549051777,225.2383775251219" stroke="#4DD2FF" stroke-linecap="round" stroke-linejoin="round" stroke-width="0.5"><title>2025-04-08 5.6km</title><desc>1744119870000</desc></polyline><polyline fill="none" points="23.426093248766847,265.467352610096 24.303280844935216,264.18718210881343 24.971614251378924,261.33139101584675 27.749374972307123,261.84839035412006 29.232239718199708,256.1367129800201 29.294895975035615,253.82245778033393 28.898073014919646,251.5574191056221 26.05765603715554,244.51595823957177 26.05765603715554,243.1618059954344 27.624062458751723,242.00461492025352 30.90307323471643,241.51219138874148 33.075156805920415,240.03491435569595 34.95484451181255,240.03491435569595 35.456094566732645,239.39475797546038 33.806146469316445,236.78487088649126 31.780260830768384,237.5727645050356 29.85880228690803,235.9723527150345 26.767760281567462,235.89848728186917 23.90645788470283,236.957222850353 21.5255201238906,237.40041301076417 21.650832637678832,239.39475797546038 20.54390543315094,240.72431150634657 21.35843677225057,241.65991856089386 21.83880140830297,243.03870084360824 23.133697383455,243.48187907638203 24.28239542595111,242.866353518315 26.224739388679154,242.64476390699565 28.1253125135554,241.80764563645062 31.028385748388246,241.38908533820359 33.22135473857634,239.93642887682654 32.887188035296276,240.60120502659993 33.43020892806817,239.78870057794848 35.03838618763257,239.91180750043713 35.39343830989674,239.2962722174998 34.09854233474471,237.20343971348484 32.26062546670437,238.16368291596882 30.798646139795892,236.46478831929562 29.253125137183815,235.8000000000029 26.62156234891154,235.87386546542984 24.05265581747517,236.90797944554652 21.58817638072651,237.30192638355948 21.5672909617424,239.49324369047827 20.606561689870432,240.4780984797544 20.54390543315094,240.97052426474693 21.379322191234678,241.7091609301424 21.609061799827032,242.7432482055301 22.73687442333903,243.45725808628777 24.2197391691152,242.84173246109276 26.14119771285914,242.64476390699565 27.89557290507946,241.8568879734521 29.56640642147977,241.63529737225326 29.754375192103907,243.03870084360824 34.035886077792384,251.72975980272167 29.670833516283892,253.25620023989177 29.420208488823846,257.12149523910193 28.35505212203134,261.2821529219509 27.812031229259446,261.7006763781974 26.30828106449917,268.1999999999971 20.54390543315094,266.7228974051395 21.421093029202893,262.9562420967268 21.71348889451474,262.80852884477645 21.212238839478232,265.22116653827834" stroke="#4DD2FF" stroke-linecap="round" stroke-linejoin="round" stroke-width="0.5"><title>2025-04-02 6.9km</title><desc>1743601029000</desc></polyline><polyline fill="none" points="58.90637650096323,268.1999999999971 59.68124540010467,267.50153743055125 60.75238770188298,263.65995794165065 64.33045879518613,264.51961728975584 65.81182580837049,257.72285375985666 65.35602057352662,252.69903858125326 61.869110527215526,244.74669410314527 61.84632026543841,244.02129856622196 62.530028117704205,243.05410119742737 63.737911989795975,242.46303427116072 67.61225648585241,241.764498804303 69.41268716333434,240.31368805012607 70.11918527726084,240.20622024724435 70.14197553903796,239.23900791368214 69.23036506946664,237.38517366928863 68.50107669364661,237.43890819144144 67.79457857972011,236.63288913073484 67.20203177444637,236.7672258238017 65.88019659358542,235.96120456742938 64.46720036561601,235.85373486747267 63.00862361432519,236.3642155250127 61.04866110451985,238.78226743731648 58.085927078383975,239.21214085022802 55.875271689496,240.98536075670563 57.19710687035695,243.45710056212556 58.70126414531842,244.07503164216178 63.9202340838965,242.3287006811879 67.29319282155484,241.8450991515565 69.8684923981782,240.07188542773656 71.57776202866808,240.2868211037421 72.17030883394182,239.6420135137014 70.32429763290565,236.87469512558891 68.2959643380018,237.9762527680723 67.06529020401649,236.5522870797722 65.4699718822958,235.79999999998836 62.484447594266385,235.93433714681305 59.77240644709673,237.06276629101194 56.878043206059374,237.54637720040046 57.060365300043486,239.66888053025468 55.82969116594177,241.25402932714496 56.83246268262155,242.19436701817904 57.288267917349,243.53770035608613 58.632893359987065,244.1018981756788 60.02309932629578,243.40336735155142 61.34493450715672,243.32276751377503 62.894672305556014,247.70198719725886 64.1025561777642,248.74976442594198 68.09085198224057,247.91691622250073 70.59778077388182,253.18261882543447 65.76624528481625,254.82141148947994 65.51555240573362,258.93177796454984 65.01416664745193,259.54967026961094 63.737911989795975,264.08978799026227 63.46442884905264,264.3047027335997 60.75238770188298,263.8211442976608 59.909148017526604,267.04484929649334" stroke="#4DD2FF" stroke-linecap="round" stroke-linejoin="round" stroke-width="0.5"><title>2025-03-25 6.1km</title><desc>1742909450000</desc></polyline></svg>