<?xml version="1.0" encoding="utf-8" ?>
<svg baseProfile="full" height="300mm" version="1.1" viewBox="0,0,200,300" width="200mm" xmlns="http://www.w3.org/2000/svg" xmlns:ev="http://www.w3.org/2001/xml-events" xmlns:xlink="http://www.w3.org/1999/xlink"><defs /><rect fill="#222222" height="300" width="200" x="0" y="0" /><text fill="#FFFFFF" style="font-size:12px; font-family:Arial; font-weight:bold;" x="10" y="20">Over 5km Runs</text><text fill="#FFFFFF" style="font-size:4px; font-family:Arial" x="10" y="280">Runner</text><text fill="#FFFFFF" style="font-size:9px; font-family:Arial" x="10" y="290">Elliont</text><text fill="#FFFFFF" style="font-size:4px; font-family:Arial" x="65" y="280">SPECIAL TRACKS</text><rect fill="yellow" height="2.6" width="2.6" x="65" y="283" /><text fill="#FFFFFF" style="font-size:3px; font-family:Arial" x="70" y="285.5">Over 20.0 km</text><rect fill="red" height="2.6" width="2.6" x="65" y="287" /><text fill="#FFFFFF" style="font-size:3px; font-family:Arial" x="70" y="289.5">Over 40.0 km</text><text fill="#FFFFFF" style="font-size:4px; font-family:Arial" x="120" y="280">STATISTICS</text><text fill="#FFFFFF" style="font-size:3px; font-family:Arial" x="120" y="285">Number: 24</text><text fill="#FFFFFF" style="font-size:3px; font-family:Arial" x="120" y="290">Weekly: 1.5</text><text fill="#FFFFFF" style="font-size:3px; font-family:Arial" x="141" y="285">Total: 156.5 km</text><text fill="#FFFFFF" style="font-size:3px; font-family:Arial" x="141" y="290">Avg: 6.5 km</text><text fill="#FFFFFF" style="font-size:3px; font-family:Arial" x="167" y="285">Min: 5.0 km</text><text fill="#FFFFFF" style="font-size:3px; font-family:Arial" x="167" y="290">Max: 10.1 km</text><polyline fill="none" points="44.55580865597585,65.02716659109865 38.4145785876899,63.81357009842759 31.653758542146534,60.69896207952115 30.20501138950931,60.23713251591835 19.271070614981,58.12128104674048 17.275626423652284,58.056838157550374 15.289293849666137,58.228685768430296 14.341685649182182,58.056838157550374 13.558086560340598,57.61647728763637 12.984054669679608,57.068708582817635 12.328018223226536,55.82279196110176 12.0,54.73797242557339 16.01822323462693,51.40825376369321 18.80637813208159,48.43289388204721 21.357630979502574,46.19862959214515 23.28018223232357,45.09222035463608 24.783599088841584,43.985798698129656 25.849658314313274,43.87837845840113 26.23234624147881,43.64205351891724 27.39863325742772,42.29928742512129 28.309794988599606,40.279732773502474 29.20273348520277,39.47404782771628 33.466970387264155,37.13215285565093 38.460136674228124,34.97283340890135 38.542141230020206,35.67112596847437 39.271070614981,36.1760421214567 40.02733485191129,37.52963436370919 40.4920273348107,38.82949512893538 41.64009111613268,41.20357673871331 44.62870159454178,46.80016726723261 45.02961275627604,48.003231605260225 46.21412300685188,50.48450543406943 47.015945330262184,53.244983448661515 47.070615034142975,54.963529945525806 46.96127562638139,55.586495653304155 47.24373576306971,55.790569770659204 46.979498861008324,57.41240694937005 48.0,57.799066179664806 47.96355353068793,58.32534991794819" stroke="#4DD2FF" stroke-linecap="round" stroke-linejoin="round" stroke-width="0.5"><title>2025-07-28 10.0km</title><desc>1753704756000</desc></polyline><polyline fill="none" points="91.13185781356879,54.41416703427967 81.57048960431712,52.50169779956923 70.6183769282652,47.4813550713443 68.83648558013374,46.88368451507995 58.66666666668607,44.851587581346394 69.95197853789432,47.27643970873032 79.38296445342712,51.7162126062467 81.83125419181306,52.638303518499015 94.66666666668607,55.148412418653606 91.27672702883137,54.380016002513 91.4505700871814,53.27010342036374" stroke="#4DD2FF" stroke-linecap="round" stroke-linejoin="round" stroke-width="0.5"><title>2025-07-22 5.0km</title><desc>1753194638000</desc></polyline><polyline fill="none" points="125.81020166072994,51.900257723660616 137.73546856461326,54.26598972341162 141.33333333331393,54.479909910172864 138.1945432977518,54.30374037337606 118.53973902732832,50.45311055141792 109.96678529062774,46.564599242803524 105.33333333331393,45.52009008983441 109.91340450773714,46.58976802156394 117.95255041518249,50.302102845736954 121.26215895614587,51.00680378395191" stroke="#4DD2FF" stroke-linecap="round" stroke-linejoin="round" stroke-width="0.5"><title>2025-07-19 6.4km</title><desc>1752877000000</desc></polyline><polyline fill="none" points="184.70312897482654,65.12521658868354 178.57644365302986,63.905445603551925 171.61638259986648,60.721016975381644 170.42584584077122,60.343196619840455 159.11574662936619,58.16260528052226 155.19613329943968,58.29214670051442 154.34444161789725,58.13021989907429 153.54769778682385,57.66602826860617 152.769269905868,56.84559123227518 152.0915797507041,55.32344663522963 152.0,54.77287793819414 156.00203510554275,51.45860566156625 158.64868990081595,48.586866428791836 161.25871279573767,46.30884866551787 164.44568812008947,44.181931719198474 165.00432459934382,43.91201513612032 165.85601628088625,43.86882841458282 166.46044263546355,43.490943798089575 167.44950394303305,42.31409390074987 168.33782752486877,40.29506196833972 169.2810989570571,39.42049525665061 173.91503434244078,36.893925825861515 178.64970745361643,34.87478341132373 178.6588654286461,35.65221210175514 179.391503434279,36.13810193459358 179.87687611294677,37.03429248495377 180.87509539560415,39.32332070094708 183.9521750191343,45.11043914905895 184.75807682523737,47.04300229014916 184.97786822693888,47.248132477623585 186.36072246247204,50.789260346922674 186.67209361487767,51.23189243234083 187.1666242686333,53.077970785758225 187.25820401939563,54.297875035779725 187.1116764182807,56.15469161771762 186.6629356397898,57.89272677836561 188.0,58.194990651383705" stroke="#4DD2FF" stroke-linecap="round" stroke-linejoin="round" stroke-width="0.5"><title>2025-07-17 10.0km</title><desc>1752756134000</desc></polyline><polyline fill="none" points="48.0,95.08001609840721 38.4559462662437,93.16877411861788 26.351639668107964,87.78699159355892 12.0,84.91998390159279 26.99170288426103,88.05524689136655 38.18569735280471,93.15200873307185 47.55906756216427,95.06325092102634" stroke="#4DD2FF" stroke-linecap="round" stroke-linejoin="round" stroke-width="0.5"><title>2025-07-14 5.0km</title><desc>1752500928000</desc></polyline><polyline fill="none" points="94.66666666668607,95.04298467826447 85.12483711226378,93.16850471634825 75.25931717484491,88.59003189990472 72.92311701847939,87.74399468390038 58.66666666668607,84.95701532173553 73.85196768306196,87.99282964701706 85.29371905134758,93.23485838313354 93.6533750325907,94.91027889098041" stroke="#4DD2FF" stroke-linecap="round" stroke-linejoin="round" stroke-width="0.5"><title>2025-06-21 5.0km</title><desc>1750468889000</desc></polyline><polyline fill="none" points="129.96404253691435,92.21086732756521 139.325529798778,94.08072642864136 141.33333333334303,94.18785258896241 139.6064570423041,94.08072642864136 124.30418483665562,91.09088091579906 122.65993420549785,90.44809977060504 117.74370744396583,88.11067484032537 116.87613801547559,87.82823185719462 106.84538290876662,85.88032492234925 105.33333333334303,85.81214741103759 106.67186902306275,85.84136635084724 110.58006273428327,86.5620971763783 117.61150638820254,88.08145664203039 122.84171065717237,90.55523028233438 124.18024634689209,91.07140276716382 125.63445796037558,91.36357455130928" stroke="#4DD2FF" stroke-linecap="round" stroke-linejoin="round" stroke-width="0.5"><title>2025-06-17 8.1km</title><desc>1750165544000</desc></polyline><polyline fill="none" points="188.0,95.02120208338602 178.92343387467554,93.21624413963582 167.09048723895103,87.93251568611595 152.0,84.97879791661398 167.11832946637878,87.998153201057 178.7285382830305,93.19983533189225 186.3851508120424,94.75866408982256" stroke="#4DD2FF" stroke-linecap="round" stroke-linejoin="round" stroke-width="0.5"><title>2025-06-15 5.0km</title><desc>1749939796000</desc></polyline><polyline fill="none" points="36.87593104914413,132.06350421754178 45.37220685250941,133.76115210739226 48.0,133.92369103978126 45.93147478188621,133.79727189768164 31.712279208382824,131.0340625059689 30.325601191754686,130.51030655451905 25.69057246221928,128.30688321345224 24.656309853191487,127.96372184959182 15.309640349063557,126.15758599859691 14.175782081350917,126.07630896021146 12.0,126.24789372561645 15.08746541821165,126.13952444141614 24.25792721856851,127.9095383465392 25.368801872740733,128.21657772907201 28.019578633771744,129.47181514377735" stroke="#4DD2FF" stroke-linecap="round" stroke-linejoin="round" stroke-width="0.5"><title>2025-06-11 8.1km</title><desc>1749642919000</desc></polyline><polyline fill="none" points="94.66666666668607,135.01014942071924 85.31420447205892,133.20029240539588 73.56081168411765,127.95158445132256 58.66666666668607,124.9898505792662 73.7283184697153,128.01740010009962 85.41191676357994,133.28255910369626 93.11722890014062,134.82916469482007" stroke="#4DD2FF" stroke-linecap="round" stroke-linejoin="round" stroke-width="0.5"><title>2025-06-08 5.0km</title><desc>1749387304000</desc></polyline><polyline fill="none" points="119.28018647967838,139.67512980499305 123.15710955671966,137.36026560806204 131.3137529133819,135.87637312849984 135.44242424238473,132.78986382333096 139.92354312329553,132.90857604285702 141.13193473173305,131.89952135074418 133.17668997636065,118.95971315336647 127.78927738894708,120.02814932586625 122.65361305349506,123.0553737670416 119.78368298336864,123.0553737670416 115.20186480158009,125.19222794973757 107.69976689945906,126.73550631274702 107.95151515118778,131.60274020320503 105.33333333325572,134.86732393346028 107.54871794837527,137.30090998642845 108.50536130531691,140.3280384412501 109.91515151504427,141.21836713829543 118.67599067557603,139.37835289363284 123.30815850803629,137.30090998642845 130.05501165473834,136.41057488683145 135.69417249388061,132.78986382333096 139.671794871334,132.9679321431904 141.28298368281685,131.60274020320503 133.17668997636065,118.78164025419392 127.18508158461191,120.08750682946993 122.75431235390715,122.99601658683969 118.7263403260149,123.41151671303669 113.79207459185272,125.6077264007181 107.85081585054286,126.61679274769267 108.00186480162665,131.89952135074418 105.33333333325572,134.86732393346028 107.69976689945906,137.41962122329278 108.90815850789659,140.50610429688822 110.62004661979154,141.3370775213698 124.41585081536323,137.12284308293601 130.20606060582213,136.4699306053226 135.1906759904232,133.0866443241248 139.82284382241778,133.02728823694633 141.33333333325572,131.54338395415107 132.62284382269718,118.6035672967555 126.68158508115448,120.4436517158174 122.55291375285015,122.99601658683969 108.10256410227157,126.32000872207573 108.05221445206553,131.60274020320503 105.38368298322894,134.748612140771 107.64941724925302,137.30090998642845 108.50536130531691,140.14997252711328 111.07319347281009,141.3964327032445 131.41445221402682,135.2234591569868 133.9319347315468,131.8401651342283 133.17668997636065,128.45685009821318 129.8536130534485,124.301873059012 127.03403263376094,122.8773022069945 124.6172494168859,122.75858780101407 121.84801864787005,123.88637361198198 117.36689976672642,129.28784170292784 110.21724941721186,130.47497036785353 105.93752913735807,133.85827286954736 105.78648018627428,135.28281500481535 108.20326340291649,138.19124363106675" stroke="#4DD2FF" stroke-linecap="round" stroke-linejoin="round" stroke-width="0.5"><title>2025-06-04 6.4km</title><desc>1749041988000</desc></polyline><polyline fill="none" points="188.0,135.04305680617108 178.77316789451288,133.2002935003402 168.2621170996572,128.34647900873097 166.67080263671232,127.81995416269638 152.0,124.95694319382892 167.08956960064825,127.98449337418424 178.56378441257402,133.1673868084763 186.22721985261887,134.74689993352513" stroke="#4DD2FF" stroke-linecap="round" stroke-linejoin="round" stroke-width="0.5"><title>2025-05-28 5.0km</title><desc>1748436903000</desc></polyline><polyline fill="none" points="48.0,175.0272935404646 38.00316455698339,172.9795011725655 26.425632911385037,167.74240020493744 12.0,164.95592138863867 25.95569620252354,167.64168498072831 27.693037974706385,168.19561789938598 38.843354430398904,173.29842144469148 47.82911392406095,175.04407861137588" stroke="#4DD2FF" stroke-linecap="round" stroke-linejoin="round" stroke-width="0.5"><title>2025-05-27 5.0km</title><desc>1748351986000</desc></polyline><polyline fill="none" points="85.32635340711568,177.42631402426923 85.37446277786512,175.27109819061297 86.50503299117554,172.71174875395081 87.25072823825758,167.96339393754897 87.20261886739172,168.40119030771893 86.12015802483074,168.5358966873464 80.85218192450702,172.2739619664644 78.85564303712454,172.74542462042882 78.06183841929305,171.43206156262022 78.97591646399815,169.95030811031756 80.65974444139283,168.63692641159287 80.39514290203806,166.3805835559906 81.18894751998596,164.93246929705492 80.1305413627997,164.32627877098275 76.25773701502476,164.39363336611132 75.24744022858795,162.91182695367024 75.5842058241833,161.16058681783034 76.32990107126534,161.3963315893634 76.25773701502476,160.25128291246074 77.36425254296046,160.92484176404832 79.38484611571766,160.85748598256032 80.99651003687177,161.93517572172277 83.18548640736844,162.00253113471263 84.07550976681523,161.56472053918696 86.26448613719549,158.50001911615254 86.3607048788108,153.3808510251256 85.5669002608629,152.4715111948317 84.31605662067886,152.0 82.77655675576534,152.43783186124347 81.40543968847487,153.95339617137506 80.34703353128862,154.3238656730391 78.18211184628308,153.91971709116478 75.8969167341711,152.67358707560925 73.80415910528973,153.3808510251256 72.74575294810347,154.9974447995046 72.79386231885292,156.71506114318618 73.70794036367442,157.99484397291963 75.77664330718108,158.97151474724524 76.25773701502476,160.15024888605694 75.31960428482853,162.33930785347184 75.9931354757864,164.3599560714938 76.16151827352587,167.15515192800376 75.27149491396267,170.1860423599428 75.96908079029527,171.02794809037005 78.01372904854361,171.5330898010725 78.80753366625868,172.74542462042882 76.97937757673208,175.70887831566506 74.71823714999482,176.6181108505698 70.94165154383518,179.37945800113084 68.19941740937065,180.55806999532797 67.57399558927864,182.17444068916666 66.0344957242487,183.85814605558699 67.35750342078973,187.62959384414717 68.56023769022431,187.8989802084252 70.1478469260037,186.92245288498816 72.00005770102143,187.69694046986115 73.34712008282077,187.52857386262622 74.40552624000702,186.417350645439 75.1752761725802,183.62242817075457 77.0034322621068,182.61220546913682 81.18894751998596,183.92549397087714 82.77655675576534,183.15099155485223 85.2541893508751,183.01629517169204 85.39851746323984,175.54050145977817 87.29883760900702,168.87266223327606 87.01018138427753,168.40119030771893 86.28854082257021,168.4685435090796 80.87623660988174,172.30763790771016 78.9278070932487,172.71174875395081 76.78694009350147,175.80990436022694 74.50174498150591,176.71913642867003 70.91759685846046,179.37945800113084 68.3437455217354,180.38969728515076 67.57399558927864,182.27546341712878 66.0344957242487,183.9928418630152 67.2372299937997,187.46122717943217 68.03103461163118,188.0 70.00351881363895,186.92245288498816 72.26465924025979,187.7306137739797 73.78010441979859,187.1244934181741" stroke="#4DD2FF" stroke-linecap="round" stroke-linejoin="round" stroke-width="0.5"><title>2025-05-23 6.4km</title><desc>1747958832000</desc></polyline><polyline fill="none" points="126.60410690016579,171.681213267555 127.57837987749372,172.6067814026901 130.01406232081354,172.9964934020245 131.23190354241524,174.55533606774407 130.9187443710398,180.6931961447408 130.32722149195615,181.81358490118873 128.2046982201282,182.44684616228915 126.11697041150182,181.716159966978 124.16842445672955,182.15457190896268 120.8628554266179,180.2060692240775 118.8795140084112,180.9854718973511 117.41810454241931,180.74190879106754 117.83565010409802,179.3292386676476 116.79178619990125,176.60130412102444 117.10494537116028,174.65276345107122 115.99149053997826,172.80163746891776 116.47862702864222,169.87878247897606 123.50731065077707,169.58649533049902 125.90819763066247,170.46335587615613 127.1608343156986,172.4606392653659 129.8400850032922,172.94777943121153 131.02313076145947,174.06819865095895 130.9187443710398,180.83933405851712 130.3968124189414,181.81358490118873 128.34388007386588,182.39813380761188 126.36053865565918,181.76487243827432 124.09883352986071,182.10585950434324 120.79326449963264,180.254781953583 116.5830134190619,181.13160966118448 114.3213082930306,182.98268151437514 115.05201302596834,183.5185158586828 115.60874044161756,186.44123090361245 119.0186958622653,188.0 120.48010532837361,186.9770587424282 121.45437830570154,184.97987712931354 121.31519645173103,183.4210915073636 119.50583235092927,180.54705815587658 121.31519645173103,180.254781953583 124.13362899341155,182.10585950434324 126.36053865565918,181.47259748529177 126.08217494795099,180.74190879106754 123.8204698220361,180.79062142895418 122.60262860031798,179.23181288366322 123.75087889505085,174.65276345107122 120.7584690360818,170.07364041137043 120.96724181692116,166.42003199836472 121.76753747696057,164.86114481274853 123.36812879669014,163.93555150990142 126.39533411932644,164.90986016654642 128.86581202608068,164.27655991879874 126.08217494795099,167.0046124936489 123.19415147940163,166.85846748232143 121.45437830570154,165.5431590063381 118.77512761810794,164.9585755118169 118.84471854497679,159.01524188465555 120.02776430314407,156.53069680996123 120.09735523001291,152.82819727255264 120.82805996306706,152.09743509814143 123.05496962554753,152.0 129.45733490516432,152.9256320875429 130.7795625171857,154.09484726708615 131.23190354241524,156.53069680996123 132.34535837371368,157.74861377009074 131.6146536405431,158.72294358888757 132.06699466588907,159.35625618396443 129.87488046695944,160.67159322835505 129.63131222245283,163.74068937863922 126.39533411932644,166.90718249435304 123.85526528547052,167.0046124936489 121.34999191516545,165.39701324512134 118.91430947184563,165.10472149786074 118.80992308154237,159.35625618396443 120.30612801085226,154.38715031198808 121.87192386738025,153.80254392209463 121.90671933081467,152.34102269800496 129.0397893433692,152.77947985267383" stroke="#4DD2FF" stroke-linecap="round" stroke-linejoin="round" stroke-width="0.5"><title>2025-05-20 5.0km</title><desc>1747754393000</desc></polyline><polyline fill="none" points="183.23012552317232,172.51571981149027 186.59414225956425,172.93005367275327 188.0,171.45028843195178 179.66527196671814,158.90171715861652 173.8410041842144,160.32232468400616 169.32217573234811,162.9859537804732 166.51046025101095,163.10433699277928 159.68200836819597,165.7087611348834 154.20920502091758,166.47824769630097 154.66108786617406,171.50947911886033 152.0,174.94252793153282 154.20920502091758,176.89580464112805 155.01255230116658,179.61854227556614 156.2175732217729,180.80233699071687 158.47698744782247,181.15747490222566 169.77405857737176,177.4877052878146 176.50209205015562,176.5406639437424 182.32635983265936,172.69329150521662 186.59414225956425,172.81167260202346 187.89958158996888,171.68705114134355 179.86610878654756,158.96090921293944 177.65690376562998,159.0201012608013 169.52301255217753,162.86757054255577 165.80753138079308,163.28191176283872 161.1380753137637,165.4128044747631 153.80753138079308,166.77420377579983 154.86192468646914,170.68080891360296 152.0,174.8833376186085 154.10878661088645,176.65904420189327 154.76150627620518,179.14502366736997 156.2677824269049,180.74314731627237 158.47698744782247,181.03909562435 170.72803347278386,177.01418482209556 177.30543933063745,176.18552301399177 182.07531380746514,172.81167260202346 186.6443514644634,172.81167260202346 187.89958158996888,171.56866979954066 179.86610878654756,159.0201012608013 178.10878661088645,158.84252509771613 173.58995815902017,160.32232468400616 169.67364016734064,162.86757054255577 166.46025104587898,162.9859537804732 160.43514644377865,165.53118715813616 154.4602510461118,166.59663014730904 154.76150627620518,171.27271633216878 152.10041841003112,174.76495697331848 154.10878661088645,176.77742443443276 155.51464435155503,180.2696296882932 158.67782426788472,180.97990597551689 168.87029288709164,177.54689531691838" stroke="#4DD2FF" stroke-linecap="round" stroke-linejoin="round" stroke-width="0.5"><title>2025-05-14 5.0km</title><desc>1747227249000</desc></polyline><polyline fill="none" points="24.74854799977038,227.60963211080525 25.481858864659443,226.94042863021605 26.546342378249392,222.9809389077709 29.739792918786407,223.4828494452231 31.46662172966171,216.56755097140558 31.135449080960825,212.1338540686702 27.800067405216396,203.7960650921741 27.94199854042381,201.92769385647262 30.260207081097178,200.6728099967877 33.71386470273137,200.08719542319886 35.93745248648338,198.55343661824008 37.75890205404721,198.72075620730175 38.4449025405338,197.99570386475534 34.778348216204904,192.13943656891934 33.855795837705955,192.0 31.32469059457071,192.92027995127137 29.739792918786407,194.00787926343037 28.367791945813224,194.0357663645409 25.576479621464387,195.15124791566632 22.714201729395427,195.56955224389094 22.903443243005313,197.74472372911987 21.55509745934978,199.4458064956416 21.79164935112931,200.0593089814356 22.595925783505663,200.58915085397894 23.40020221611485,202.45753186108777 24.41737535118591,202.5690765643667 33.50096799992025,199.83621733862674 34.518141135107726,198.94384882238228 34.89662416221108,197.74472372911987 34.4471755673876,196.18306402175222 32.86227789183613,194.4819595683948 30.92255237826612,193.8684437125048 29.21937875659205,194.34252427576575 26.94848059443757,196.9081214995531 23.707719675498083,197.46585662313737 21.83895972953178,199.13905470113968 21.88627010793425,200.0593089814356 24.41737535118591,202.0113525617635 27.303308432223275,201.7046038422559 33.43000243243296,199.83621733862674 34.75469302700367,198.60920982673997 34.825658594607376,197.2706494681479 33.855795837705955,195.51377837295877 31.56124248635024,193.952105052158 28.367791945813224,194.06365346256644 25.36358291876968,195.26279580336995 22.66689135110937,195.79264760599472 22.879788053804077,197.85627048643073 21.578752648318186,199.55735251159058 22.619580972823314,200.58915085397894 23.139995134901255,202.09501123958034 24.346409783582203,202.59696273267036 25.765721134957857,201.87192137120292 28.39144713501446,201.42574105094536 27.776412216131575,202.5690765643667 27.847377783618867,203.46143244070117 30.827931621461175,210.93479076985386 31.537587297149003,214.39253944542725 31.27738021616824,218.2685086458514 30.094620756688528,222.7020992951293 27.043101351126097,222.2559552830935 25.836686702561565,226.32699056944693 24.91413432417903,226.7173604144773 24.535651297075674,228.0 24.03889232419897,227.80481612982112" stroke="#4DD2FF" stroke-linecap="round" stroke-linejoin="round" stroke-width="0.5"><title>2025-05-06 7.1km</title><desc>1746539597000</desc></polyline><polyline fill="none" points="72.42245815240312,228.0 72.17853812279645,227.71247951537953 73.32496226183139,223.8884272891155 76.22761061345227,224.57848592245136 76.73984267562628,223.6871598478756 78.25214685872197,217.33278029653593 78.20336285280064,214.16990992447245 73.88597832981031,202.2081665196165 72.71516218781471,201.94937281031162 71.05650598695502,202.75450796171208 70.03204186272342,202.55322440410964 68.10507362929638,199.56270775033045 69.42224178893957,198.12494729657192 69.1051457504509,195.8245142774249 70.81258595734835,195.73824764907476 76.52031464898027,194.12793207739014 78.3741068735253,192.97770065284567 81.42310724291019,192.0575119034038 85.35021971876267,198.06743671541335 84.86237965966575,198.8438285025768 82.71588339959271,198.6425419622392 80.42303512175567,200.3103400907712 76.9349786991952,200.82793047031737 74.88605045084842,201.80559841758804 72.27610613475554,202.15065682845307 70.69062594254501,202.8120175212971 69.66616181842983,202.38069551828085 69.08075374760665,200.77042047827854 68.15385763521772,200.0802995961858 68.15385763521772,199.5339526180178 69.42224178893957,197.83739426580723 69.08075374760665,195.85326981390244 71.76387407258153,195.5082031689817 76.44713864009827,194.0129091605486 80.88648317789193,192.0 81.5694592606742,192.23004753838177 85.325827715802,198.06743671541335 84.95994767150842,198.78631807817146 82.88662742020097,198.6425419622392 79.886411056621,200.51162535895128 77.44721076113638,200.6841554666462 70.81258595734835,202.75450796171208 69.78812183323316,202.4669599753106 69.12953775341157,200.77042047827854 68.15385763521772,200.02278944128193 69.39784978586249,197.89490489696618 69.1051457504509,195.8245142774249 71.66630606085528,195.5082031689817 76.25200261641294,194.09917635296006 77.88626681442838,193.09272402094211 80.93526718381327,192.0 81.49628325179219,192.23004753838177 85.30143571284134,198.03868142020656 84.93555566854775,198.75756286113756 82.71588339959271,198.61378672969295 80.34985911299009,200.33909513850813 76.91058669611812,200.82793047031737 74.44699439767282,201.89186306265765 72.42245815240312,202.0643922679883 70.86136996326968,202.78326274309075 69.71494582435116,202.3519406930427 69.1051457504509,200.77042047827854 68.12946563214064,200.05154452030547 68.10507362929638,199.56270775033045 69.08075374760665,198.61378672969295 67.93432960857172,199.67772824823624 69.00757773872465,200.9429504168511 69.49541779782157,202.2656761983817 70.54427392489742,202.8982818374643 76.61788266070653,201.00046037125867 80.252291101031,200.56913540742244 82.59392338478938,198.78631807817146 84.76481164782308,198.78631807817146 85.39900372468401,198.12494729657192 81.32553923118394,192.0 78.2277548557613,192.92018895008368 76.30078662233427,194.15668779876432 74.56895441247616,194.27171065300354 71.91022609034553,195.364425267122 68.76365770900156,195.99704744946212 69.30028177413624,197.83739426580723 68.05628962337505,199.361421758309 68.00750561745372,200.10905466901022 68.98318573564757,200.85668546159286 69.42224178893957,202.2081665196165 70.3491379013285,202.78326274309075 73.88597832981031,202.1794116756064 77.69113079074305,212.0708932095149 78.13018684391864,214.31367758184206 78.2277548557613,217.21776749257697 76.49592264590319,224.3197141463461 73.17861024406739,223.91717976814834 72.44685015524738,227.39620662058587 72.05657810810953,227.71247951537953" stroke="#4DD2FF" stroke-linecap="round" stroke-linejoin="round" stroke-width="0.5"><title>2025-04-29 10.1km</title><desc>1745929124000</desc></polyline><polyline fill="none" points="139.9505107178702,206.56616498305812 139.34455474029528,206.05335782826296 139.68637606099946,204.16694662238297 138.8318227592972,206.98739826169913 138.17925478349207,207.0789705739735 136.23708818870364,214.69761229057622 136.01956553017953,214.75255316487164 126.1222845633165,212.79298421999556 113.50597036397085,207.1155994849105 105.33333333331393,205.3757174036 113.4438210328808,207.13391393738857 123.40325133065926,211.804034213681 126.23104589263676,212.86623954461538 141.33333333331393,215.83305337760248 136.1594015249284,214.71592591732042 136.48568551283097,213.37902592385944 137.40238814550685,213.1592605242331 139.48439073510235,204.40503852406982 139.88836138678016,204.25852047062654 139.34455474029528,205.6870660459099" stroke="#4DD2FF" stroke-linecap="round" stroke-linejoin="round" stroke-width="0.5"><title>2025-04-22 6.3km</title><desc>1745328842000</desc></polyline><polyline fill="none" points="164.7772119139554,226.9421093299752 165.37552653963212,226.6776360142685 166.62201534293126,222.59295966121135 169.81302667944692,223.06314138381276 171.48332167591434,216.98010206851177 171.20909413916524,210.83815026382217 167.7438552659005,202.34498173356405 167.6690659376327,200.87554827766144 169.53879914269783,199.34732899157098 173.47770376119297,198.7007720716938 176.31969823280815,196.84925959075917 178.18943143787328,197.0255946603429 178.96225449594203,196.34964293430676 177.2919594993582,193.73398768593324 175.04827965341974,194.88017681599013 173.2533357766224,192.79352117193048 171.33374301949516,192.0 167.7438552659005,192.29389700261527 165.30073721136432,193.38131312746555 162.0100067704916,193.93971429869998 162.50860229192767,195.996971796063 161.06267528003082,198.08360265695956 162.13465565093793,198.9946617728565 162.68311072443612,200.52288305709953 163.80495064740535,201.110658168589 167.89343392231967,200.14082854779554 170.26176264858805,199.11221756364102 173.37798465695232,198.7007720716938 175.9457515918184,196.966816316708 178.18943143787328,196.99620549022802 178.93732471985277,196.29086444329005 177.31688927556388,193.73398768593324 175.073209429509,194.82139800477307 173.2533357766224,192.7641315405781 171.48332167591434,192.02938971467665 167.61920638557058,192.29389700261527 165.35059676354285,193.35192356014159 162.633251172374,193.76337721163873 162.25930453126784,194.0572722927609 162.45874273986556,196.08513962384313 161.06267528003082,197.9366573501029 162.0847960987594,198.9946617728565 162.60832139628474,200.55227184307296 163.68030176707543,201.16943560921936 170.311622200883,199.08282862082706 173.27826555271167,198.7595500375901 175.97068136790767,196.966816316708 178.28915054199751,196.966816316708 178.91239494387992,196.23208593949676 177.26702972338535,193.6752086248889 174.94856054906268,194.79200859428965 173.22840600053314,192.7641315405781 171.7076896604849,192.11755883943988 168.36709966766648,192.14694854128174 165.10129900288302,193.38131312746555 162.58339162007906,193.76337721163873 162.23437475517858,194.02788279906963 162.40888318768702,196.34964293430676 161.03774550405797,198.02482454382698 162.15958542691078,199.05343967475346 162.65818094834685,200.55227184307296 163.48086355847772,201.08126944347168 173.50263353739865,198.318714981433 174.7241925644921,197.31948618683964 175.1479987576604,195.82063605406438 174.7989818927599,194.7038403437473 173.57742286555003,193.20497567538405 171.6578301084228,192.058779426181 168.3421698914608,192.1763382399804 165.00157989852596,193.46948181034531 162.2094449790893,193.93971429869998 162.50860229192767,195.93819322818308 161.06267528003082,197.9660464178305 162.2842343073571,199.4648846287164 161.8105685620103,200.37593907903647 163.05705736542586,202.93275287453434 164.0293186319759,207.22344340302516 164.4531248251442,212.04304178693565 164.35340572078712,215.2168766259856 161.91028766636737,227.17719650396612 163.68030176707543,228.0" stroke="#4DD2FF" stroke-linecap="round" stroke-linejoin="round" stroke-width="0.5"><title>2025-04-15 8.8km</title><desc>1744723077000</desc></polyline><polyline fill="none" points="47.76341730565764,246.1540674429416 46.7185104052769,246.08434961302555 47.487404162064195,243.83012750168564 46.580503833596595,247.5948974949133 46.79737130342983,248.17587460196228 45.59474260674324,252.17295421815652 44.431544359307736,252.19619283417705 44.45125958370045,253.17221242311643 43.11062431556638,257.5177692626603 30.039430449018255,254.91509344214865 15.055859802756459,247.96672302566003 12.0,247.08363633209956 15.272727272706106,248.12939649161126 30.019715224509127,254.93833175960754 43.15005476458464,257.49453122615523 43.5837897042511,255.75167127500754 44.56955093098804,255.63548010544037 45.41730558592826,253.17221242311643 48.0,242.4822307373397 47.30996714136563,246.31674229097553" stroke="#4DD2FF" stroke-linecap="round" stroke-linejoin="round" stroke-width="0.5"><title>2025-04-11 5.1km</title><desc>1744377642000</desc></polyline><polyline fill="none" points="69.025708922185,268.0 70.24329243262764,266.65264987939736 70.5663247925695,267.6485180105956 71.78390830312856,266.65264987939736 73.15058367187157,262.5226867982128 76.35605862818193,263.2549543819332 76.92757741885725,263.04991965950467 78.41849600314163,256.6351829576306 78.5178905754583,253.1201938377344 77.89667449868284,249.98595645287423 74.3184698963305,242.19414258372854 74.21907532401383,240.87595625105314 75.95848033903167,239.4112971900322 79.95911187352613,238.76684467535233 82.74215989757795,236.86277140278253 84.55611084180418,237.03853257748415 85.47551063552964,236.27689999036375 83.5124678327702,233.20105412846897 81.4500304578105,234.4021028910065 79.01486343692522,232.351528593048 76.82818284654059,232.23435244642315 75.66029662219808,232.79093868786003 73.29967553028837,235.3687967780861 69.92026007268578,235.86678924207808 67.95721727004275,237.56581541223568 67.85782269772608,238.12239061595756 68.87661706376821,238.97189791576238 69.29904399591032,240.34867990820203 70.41723293415271,240.99312863114756 80.23244694748428,238.23956419614842 81.57427367335185,236.95065200448153 81.72336553153582,235.51526524560177 80.25729559035972,233.23034806453506 77.89667449868284,232.0 74.71604818536434,232.17576435397496 71.60996780148707,233.37681769713527 68.92631434975192,233.84551998527604 69.14995213749353,235.89608288774616 67.85782269772608,237.47793501161505 67.85782269772608,238.03451039720676 68.87661706376821,238.88401797474944 69.94510871579405,240.96383554083877 71.03844901081175,240.99312863114756 72.50451895222068,240.23150724722655 73.84634567808826,240.34867990820203 77.7724312832579,250.74755020567682 78.24455550161656,253.4716948175046 78.09546364319976,256.2836861133692 76.70393963111565,262.22977920644917 73.4984646749217,261.7318355680909 72.23118387837894,265.5981972501322" stroke="#4DD2FF" stroke-linecap="round" stroke-linejoin="round" stroke-width="0.5"><title>2025-04-08 5.6km</title><desc>1744119870000</desc></polyline><polyline fill="none" points="118.25121472100727,264.9637251223321 119.22586760553531,263.54131345424685 119.96846027951688,260.36821223983134 123.05486108048353,260.9426559490239 124.70248857594561,254.59634775557788 124.77210663910955,252.0249530892761 124.33119223895483,249.50824345069123 121.17517337470781,241.68439804398804 121.17517337470781,240.17978443937318 122.91562495427206,238.89401657806593 126.55897026089951,238.34687932083034 128.97239645116497,236.70546039521287 131.06093834654894,236.70546039521287 131.61788285209332,235.99417552829254 129.78460718831047,233.0943009850016 127.53362314542755,233.96973833892844 125.39866920770146,232.19150301670015 121.96417809068225,232.1094303131831 118.78495320538059,233.2858031670621 116.13946680445224,233.77823667862685 116.27870293078013,235.99417552829254 115.04878381465096,237.4714572292869 115.95381863601506,238.51102062322025 116.48755712038837,240.04300093733764 117.92633042612579,240.53542119599297 119.20266158448067,239.85150390924537 121.360821543145,239.60529322999355 123.47256945970003,238.67516181827523 126.6982063872274,238.21009482022782 129.1348385985475,236.59603208536282 128.76354226155672,237.33467225178902 129.36689880909398,236.4318895310571 131.15376243088394,236.56867500048247 131.54826478881296,235.88474690832663 130.10949148307554,233.55937745943083 128.06736162980087,234.62631435107323 126.44294015539344,232.73865368810948 124.72569459700026,232.0 121.80173594329972,232.08207273937296 118.94739535276312,233.2310882728343 116.20908486761618,233.66880709285033 116.18587884656154,236.10360410054273 115.1184018778149,237.19788719974167 115.04878381465096,237.74502696082345 115.9770246570697,238.5657343668281 116.23229088878725,239.7147202283668 117.48541602608748,240.5080645403359 119.13304352131672,239.8241471789952 121.2679974589264,239.60529322999355 123.21730322798248,238.72987552605628 125.07378491293639,238.48366374695615 125.28263910242822,240.04300093733764 130.0398734199116,249.6997331141465 125.18981501820963,251.39577804433065 124.91134276543744,255.69055026567366 123.72783569130115,260.31350324662344 123.12447914376389,260.7785293091147 121.45364562736358,268.0 115.04878381465096,266.35877489461564 116.023436699179,262.1736023297126 116.34832099406049,262.0094764941896 115.79137648851611,264.6901850425347" stroke="#4DD2FF" stroke-linecap="round" stroke-linejoin="round" stroke-width="0.5"><title>2025-04-02 6.9km</title><desc>1743601029000</desc></polyline><polyline fill="none" points="164.34041833446827,268.0 165.20138377789408,267.22393047841615 166.39154189103283,262.9555088240886 170.36717643914744,263.9106858775194 172.01313978713006,256.3587263998634 171.5066895261407,250.77670953475172 167.63234503031708,241.94077122575254 167.60702251712792,241.1347761847137 168.36669790849555,240.0601124415989 169.70879109983798,239.40337141242344 174.01361831766553,238.62722089368617 176.0140968480846,237.015208944591 176.79909475252498,236.89580027473858 176.82441726559773,235.82111990411067 175.81151674385183,233.76130407702294 175.0011963263387,233.82100910160807 174.2161984218983,232.92543236751226 173.55781308270525,233.07469535979908 172.0891073262319,232.17911618604558 170.51911151735112,232.05970540831913 168.89847068255767,232.6269061389321 166.72073456062935,235.3136304859363 163.42880786489695,235.7912676113774 160.9725240995176,237.76151195191778 162.44122985599097,240.50788951350842 164.11251571692992,241.19447960241814 169.91137120442,239.2541118680092 173.65910313499626,238.71677683509188 176.52054710907396,236.74653936419054 178.41973558743484,236.98535678195185 179.0781209266279,236.26890390412882 177.0269973699469,233.1941056951182 174.77329370891675,234.41805863121408 173.40587800450157,232.8358745331061 171.63330209138803,232.0 168.31605288246647,232.14926349648158 165.30267383006867,233.40307365669287 162.0867146733217,233.94041911157547 162.2892947777873,236.29875614473713 160.9218790732557,238.0600325857522 162.0360696472926,239.10485224242439 162.54251990828197,240.5974448401248 164.03654817782808,241.2243313063227 165.5812214736361,240.44818594618118 167.04992723010946,240.35863057087408 168.77185811731033,245.22443021921208 170.11395130865276,246.38862713996787 174.54539109149482,245.4632402472489 177.33086752647068,251.31402091716882 171.96249476086814,253.13490165499388 171.68394711741712,257.7019755161891 171.12685183051508,258.3885225217964 169.70879109983798,263.43309776697424 169.40492094343062,263.6718919262348 166.39154189103283,263.1346047752013 165.45460890838876,266.71649921833887" stroke="#4DD2FF" stroke-linecap="round" stroke-linejoin="round" stroke-width="0.5"><title>2025-03-25 6.1km</title><desc>1742909450000</desc></polyline></svg>