<?xml version="1.0" encoding="utf-8" ?>
<svg baseProfile="full" height="300mm" version="1.1" viewBox="0,0,200,300" width="200mm" xmlns="http://www.w3.org/2000/svg" xmlns:ev="http://www.w3.org/2001/xml-events" xmlns:xlink="http://www.w3.org/1999/xlink"><defs /><rect fill="#222222" height="300" width="200" x="0" y="0" /><text fill="#FFFFFF" style="font-size:12px; font-family:Arial; font-weight:bold;" x="10" y="20">Over 5km Runs</text><text fill="#FFFFFF" style="font-size:4px; font-family:Arial" x="10" y="280">Runner</text><text fill="#FFFFFF" style="font-size:9px; font-family:Arial" x="10" y="290">Elliont</text><text fill="#FFFFFF" style="font-size:4px; font-family:Arial" x="65" y="280">SPECIAL TRACKS</text><rect fill="yellow" height="2.6" width="2.6" x="65" y="283" /><text fill="#FFFFFF" style="font-size:3px; font-family:Arial" x="70" y="285.5">Over 20.0 km</text><rect fill="red" height="2.6" width="2.6" x="65" y="287" /><text fill="#FFFFFF" style="font-size:3px; font-family:Arial" x="70" y="289.5">Over 40.0 km</text><text fill="#FFFFFF" style="font-size:4px; font-family:Arial" x="120" y="280">STATISTICS</text><text fill="#FFFFFF" style="font-size:3px; font-family:Arial" x="120" y="285">Number: 64</text><text fill="#FFFFFF" style="font-size:3px; font-family:Arial" x="120" y="290">Weekly: 2.1</text><text fill="#FFFFFF" style="font-size:3px; font-family:Arial" x="141" y="285">Total: 440.5 km</text><text fill="#FFFFFF" style="font-size:3px; font-family:Arial" x="141" y="290">Avg: 6.9 km</text><text fill="#FFFFFF" style="font-size:3px; font-family:Arial" x="167" y="285">Min: 5.0 km</text><text fill="#FFFFFF" style="font-size:3px; font-family:Arial" x="167" y="290">Max: 11.4 km</text><polyline fill="none" points="31.8532556372229,47.55504297003063 31.65624524958548,48.29042336418934 31.41545477582258,48.387183262620965 30.72591841907706,51.04479334360076 26.999138586281333,50.29009580791535 22.4350646060484,48.24526869082911 15.495920952642336,46.87771084443011 12.967620977986371,46.94221899968397 12.272612110478804,46.69708763593735 11.83481124904938,46.34229044400854 11.500988092215266,45.852021735372546 11.238307575404178,45.19402314188119 11.200000000011642,44.82631486106402 13.542234608583385,42.89097048520853 15.895414238679223,40.48460408962637 16.73818089690758,39.77493312695515 18.620724600972608,38.52331087946368 18.976437800884014,38.36201742801859 19.57294147455832,38.29749992438883 19.775424372957787,38.1426576288286 20.360983025078895,37.47812151145263 20.908234101865673,36.284518490447226 21.51021028633113,35.684481935306394 24.22457562710042,34.194042238374095 27.125006333953934,32.95520665639924 27.13047884471598,33.4262253234192 27.562807195354253,33.73593418514429 28.006080567545723,34.548912236914475 28.94187990881619,36.613568212596874 30.977653914364055,40.53621619145997 31.907980744872475,42.76839654479045 32.18707879402791,43.78123675421375 32.25274892325979,44.671489638662024 32.14877121869358,45.79396333002296 31.95176083102706,46.439053525329655 32.13235368637834,46.71644014892081 32.80000000001746,46.96157143254095 32.61393463393324,47.82597365126276 32.48259437549859,47.800170782622445 32.41692424629582,48.07755103121235 32.25822143405094,48.071100342524005" stroke="#4DD2FF" stroke-linecap="round" stroke-linejoin="round" stroke-width="0.5"><title>2025-11-30 10.9km</title><desc>1764501077000</desc></polyline><polyline fill="none" points="58.787916083907476,48.12157678604126 58.80000000001746,48.20703562890412 58.57040559439338,48.164306221435254 54.776055944064865,47.40229376628122 50.37751048951759,45.37971297265176 49.44704895102768,45.052105971037236 42.039608391642105,43.613464490452316 38.99446153847384,43.656196871743305 38.63194405596005,43.5208775684805 38.04587412587716,43.10779585778073 37.55043356644455,42.402702081002644 37.23625174825429,41.56939963224431 37.26646153850015,41.312996742017276 39.906797202827875,39.15489923207497 41.598545454558916,37.32437784591457 43.32050349650672,35.771599677835184 41.640839160827454,37.25315029677586 39.852419580420246,39.183389432233525 37.22416783217341,41.34148600168555 37.20000000001164,41.53378817981866 37.47188811190426,42.31011344450235 38.07004195803893,43.18613914137677 38.541314685338875,43.49951133709692 39.230097902123816,43.713173336713226 41.91272727274918,43.64195274774829 49.4349650349759,45.10908121964894 50.19020979019115,45.351225472433725 54.55854545457987,47.380928803104325 58.630825174826896,48.22840032217209" stroke="#4DD2FF" stroke-linecap="round" stroke-linejoin="round" stroke-width="0.5"><title>2025-11-16 10.0km</title><desc>1763290106000</desc></polyline><polyline fill="none" points="84.80000000001746,45.004401112979394 84.67700094910106,45.117161996342475 82.83201518509304,44.75471568801004 77.5362227143778,42.322252279634995 76.50439734262181,42.00812037716241 68.34546029739431,40.42133114247554 66.92413793102605,40.389111719043285 65.37981651377049,40.52604417174007 64.73748813668499,40.42133114247554 63.78082885159529,39.801104775186104 63.20000000001164,38.8828380036648 63.35033217337332,39.31780789584445 63.65782980070799,39.72055551465746 64.64865548876696,40.41327628793806 65.52331540652085,40.55826353552402 67.43663397661294,40.389111719043285 68.33179373617168,40.44549570086383 76.8597279342066,42.104776489279175 81.87535590009065,44.41643086441036 82.79101550148334,44.762770069726685 84.34217019935022,45.04467287677835" stroke="#4DD2FF" stroke-linecap="round" stroke-linejoin="round" stroke-width="0.5"><title>2025-11-12 6.4km</title><desc>1762942582000</desc></polyline><polyline fill="none" points="97.55642458098009,47.6191540058353 100.30167597765103,46.2677379171073 104.40446927386802,45.69871894241078 107.27039106143638,43.636016843986 109.92513966478873,43.77827257968602 110.6793296089163,43.10255728306947 106.03351955325343,35.56290224278928 104.79664804472122,35.31394839831046 99.51731843571179,37.80347829760285 90.52737430180423,39.86621725704754 90.97988826816436,42.569096850260394 89.23016759788152,44.95188003292424 90.46703910618089,46.0899195940292 91.1005586591782,48.01035235571908 92.33743016771041,48.721620881638955 94.69050279341172,47.86809846453252 97.28491620114073,47.6191540058353 100.48268156428821,46.23217426016345 104.31396648043301,45.840973779093474 107.14972067042254,43.74270865149447 110.01564245810732,43.84940042413655 110.80000000004657,42.92473723561852 106.15418994415086,35.56290224278928 104.8871508379234,35.20725383548415 101.56871508387849,36.52315100689884 99.54748603352346,37.91017201167415 97.55642458098009,37.98130113512161 93.93631284916773,39.43944474885939 90.34636871516705,40.04403897075099 90.97988826816436,41.573301709519 90.88938547496218,42.85360918962397 89.38100558659062,44.38285876440932 89.23016759788152,45.129698975913925 90.61787709512282,46.33886521903332 91.16089385491796,48.11704273347277 92.39776536310092,48.82831102667842 94.60000000009313,47.93922541788197 97.64692737429868,47.6191540058353 100.6636871509254,46.2677379171073 104.10279329610057,45.947664865874685 107.54189944139216,43.70714471954852 110.43798882688861,43.56488895291113 110.80000000004657,42.818045160820475 110.28715083794668,41.928943179984344 106.15418994415086,35.56290224278928 105.09832402237225,35.17168897335068 101.719553072704,36.41645683927345 99.57765363145154,37.80347829760285 90.3765363128623,39.97291029695771 90.9497206704691,42.569096850260394 89.19999999995343,44.95188003292424 90.52737430180423,46.23217426016345 90.9497206704691,47.79697149581625 92.00558659236412,48.614930701383855 93.21229050296824,48.57936730037909 100.63351955299731,46.2677379171073 104.22346368723083,45.91210117418086 107.27039106143638,43.77827257968602 109.9553072626004,43.84940042413655 110.64916201122105,43.28037723354646 110.10614525142591,41.679994191392325 105.58100558666047,35.24281869357219 101.44804469274823,36.629845139657846 98.79329608939588,38.443640059413156 97.37541899457574,40.29298920719884" stroke="#4DD2FF" stroke-linecap="round" stroke-linejoin="round" stroke-width="0.5"><title>2025-11-04 6.4km</title><desc>1762251473000</desc></polyline><polyline fill="none" points="136.80000000001746,44.987139823730104 131.4710526316194,43.879789308186446 124.76052631580387,40.8833571350915 115.20000000001164,39.01286017627717 124.54736842107377,40.892662987731455 125.51052631583298,41.199755556452146 131.2815789473825,43.879789308186446 136.7526315789437,44.987139823730104" stroke="#4DD2FF" stroke-linecap="round" stroke-linejoin="round" stroke-width="0.5"><title>2025-10-28 5.4km</title><desc>1761648009000</desc></polyline><polyline fill="none" points="162.80000000001746,44.50305286285584 158.44221954164095,43.62777781143086 152.85331724968273,41.140094649665116 144.6653799758933,39.535338871137355 143.47985524733667,39.496947137136885 141.89047044632025,39.62747894744098 141.20000000001164,39.496947137136885 141.37587454766617,39.58140892433585 141.9100120627554,39.67354894044547 143.39517490955768,39.535338871137355 144.6523522316129,39.56605224329542 152.7360675513046,41.15545098783332 153.62195416164468,41.45489891348552 158.4487334137666,43.67384519029292 161.71869722558768,44.33414097975765" stroke="#4DD2FF" stroke-linecap="round" stroke-linejoin="round" stroke-width="0.5"><title>2025-10-17 6.4km</title><desc>1760694739000</desc></polyline><polyline fill="none" points="188.80000000001746,49.43485306450748 186.98248037678422,49.09911882496817 181.6519937205885,46.66899663937511 180.8992150706763,46.437171569195925 172.47623233913328,44.822369731395156 169.32270015703398,44.88632295512798 168.4003767661343,44.47862019910826 167.92565149138682,44.03094397580571 167.3627629513503,42.911741469899425 167.26103610676364,42.27218951725081 170.21789638936752,39.881814746695454 172.08288854005514,37.835144369862974 174.00213500787504,36.12421204225393 176.40967032968183,34.54915962902305 174.097080062842,36.02827073039225 172.21174254320795,37.68324077704165 170.31962323392509,39.73791010167042 167.28138147571008,42.22422289609676 167.20000000001164,42.39210593293683 167.28816326532979,42.751854004265624 167.9120879121183,44.04693245937233 168.9090109890385,44.782398938295955 169.54649921509554,44.966264406401024 172.46266875983565,44.84635219684424 180.9670329670771,46.501123385816754 181.7672841444728,46.756930095143616 186.77902668764,49.075137749103305 188.5083830455842,49.45084037096967 188.5829827315756,49.322941821948916" stroke="#4DD2FF" stroke-linecap="round" stroke-linejoin="round" stroke-width="0.5"><title>2025-10-12 10.0km</title><desc>1760258276000</desc></polyline><polyline fill="none" points="32.22654867259553,68.67456366348779 27.52566371683497,67.73160972309415 21.30973451328464,64.96109384476586 12.644247787597124,63.3004052821052 11.200000000011642,63.25867897525313 12.81415929205832,63.367167325821356 21.642477876099292,65.11130510539806 25.35221238937811,66.85540318295534 25.642477876099292,66.88878266327083 26.499115044280188,67.38947312356322 27.76637168144225,67.8651260304614 32.18407079647295,68.74132102475414 32.30442477876204,68.67456366348779 32.38230088495766,68.04871057320997 32.80000000001746,68.0236763432913" stroke="#4DD2FF" stroke-linecap="round" stroke-linejoin="round" stroke-width="0.5"><title>2025-10-09 6.0km</title><desc>1760007351000</desc></polyline><polyline fill="none" points="58.80000000001746,69.01809241441515 53.15928994081332,67.91332938857522 45.91668639052659,64.6692669248514 37.20000000001164,62.98190758558485 46.35976331360871,64.89022836150252 50.39005917159375,66.7985096471748 50.841656804754166,66.86881399299455 51.25065088761039,67.21029148162052 52.435029585816665,67.7124619620372 52.562840236729244,67.66224503707053 53.12520710058743,65.71380723368202 54.232899408292724,66.02515830601624 54.47147928993218,65.84437394038832 56.00520710059209,66.06533256137482 56.42272189349751,65.11118926867493" stroke="#4DD2FF" stroke-linecap="round" stroke-linejoin="round" stroke-width="0.5"><title>2025-10-05 5.0km</title><desc>1759662272000</desc></polyline><polyline fill="none" points="84.80000000001746,67.90756351863092 84.6307210031664,68.59393846190505 80.36489028215874,67.73197819825145 79.20025078370236,67.30099426473316 78.17780564265558,66.75028888346424 74.31824451411376,65.07420356305374 66.14545454547624,63.469914563364 64.62194357370026,63.406061538094946 63.20000000001164,63.53376753302291 65.7391849529813,63.461932938254904 73.87811912226607,65.05025920931803 75.01567398119369,65.4014422800683 79.10545454546809,67.34888149362087 80.21592476492515,67.77188398983708 82.07122257055016,68.09112954013835 82.22695924769505,67.80380860745208 82.13893416928477,67.67611005355138 82.20664576807758,67.50850536391954 82.6941692790133,67.50052417867846 83.47285266459221,67.708034712894" stroke="#4DD2FF" stroke-linecap="round" stroke-linejoin="round" stroke-width="0.5"><title>2025-10-02 6.2km</title><desc>1759399141000</desc></polyline><polyline fill="none" points="109.91378862634883,73.83893409433585 109.66138665284961,74.75790081051673 109.35850428460981,74.76451203145189 109.25754349521594,75.26035155009959 105.99314463775954,74.65212117755436 104.80965982860653,74.26866846298435 101.44430018175626,72.66210748189405 100.48517268244177,72.32492261845982 93.80493378339452,71.02905747677141 92.77849909113138,70.96294116657009 91.2192157880927,71.07533885106022 90.61905998442671,70.95632953157838 90.17034536483698,70.7050868686274 89.80015580367763,70.35466773357257 89.50849130094866,69.87201165038277 89.20000000001164,68.95297096214199 90.02451311345794,68.17937916426672 91.66793040765333,66.88342550987727 93.35621916383388,65.08491336170482 94.8425863411976,63.76905637053642 96.93471825501183,62.39365775905753 97.17590236302931,62.2812439943591 97.68631524278317,62.26140624956679 97.93310828355607,62.12915445181352 98.71274993507541,61.223221886797546 99.21755388210295,60.052763435669476 99.80649182028719,59.52373525744406 102.46512594132219,58.05565789983302 105.51077642169548,56.739648449900415 105.51077642169548,57.17611705969466 106.08849649439799,57.658874137181556 106.90179174239165,59.49728372743266 109.26876136069768,64.02032774883264 110.43541937158443,66.77763215306913 110.73830173979513,67.90828910712662 110.80000000001746,68.82073374668835 110.71025707607623,69.82572935855205 110.50272656453308,70.50012497861462" stroke="#4DD2FF" stroke-linecap="round" stroke-linejoin="round" stroke-width="0.5"><title>2025-09-30 10.1km</title><desc>1759229695000</desc></polyline><polyline fill="none" points="136.78709291902487,68.50649539211736 132.23089333731332,67.57847284547461 127.62951897224411,65.4409313847791 126.7195697639836,65.12904264233657 118.85270391398808,63.60000694874907 117.58135643863352,63.56197080826678 116.0712279653817,63.69890081707854 115.20000000001164,63.478291226230795 115.98087839860818,63.744544093700824 118.4203167015512,63.5847924950358 119.16892739766627,63.67607916758425 126.70666268302011,65.1518638170237 127.34556319093099,65.34203998308658 130.75948610695195,66.9699267771939 132.54066328058252,67.7001814229152 136.6451150283683,68.52170877376193 136.80000000001746,68.47606861886743" stroke="#4DD2FF" stroke-linecap="round" stroke-linejoin="round" stroke-width="0.5"><title>2025-09-29 6.6km</title><desc>1759141711000</desc></polyline><polyline fill="none" points="161.2265637065866,75.47779533461289 161.0820077220269,76.16589648401714 160.6094208494469,76.08070343514191 157.47922779925284,75.47124195250217 153.18702702704468,73.50519509708829 152.04725868726382,73.17096074319852 145.39768339769216,71.89954251156814 143.27382239385042,72.00440276367226 142.79567567567574,71.95197266047035 142.0506563706731,71.56529923828202 141.81714285715134,71.32280785819239 141.50023166026222,70.79849883047063 141.20000000001164,69.90716299702035 141.4724324324343,69.59257072642868 143.89096525099012,67.6525487053841 145.23088803089922,66.16471915843067 146.85436293439125,64.73584380678585 148.85034749037004,63.41836443764987 149.60092664090917,63.293825093933265 149.85111969112768,63.15617604557701 150.4905019305006,62.49414526906912 151.12432432433707,61.12417725212072 151.6969884170103,60.573559305070376 155.4610038610408,58.60702548125482 158.70239382240106,57.341854725520534 159.5641698841937,57.1386382886958 161.58239382243482,56.40443124538797 162.80000000001746,55.83410351597922 159.80324324328103,56.98786435951115 158.6134362934681,57.302522565532854 157.50146718148608,57.71550896214103 157.3457915058243,58.06949504453587 157.46254826255608,58.35792660797961 157.80169884173665,58.50214187092206 158.12972972972784,59.08555463209632 159.28617760617635,61.60924126685495 161.09312741315807,65.02424340081052 161.09312741315807,65.20121519437089 161.50455598457484,65.93531485253334 162.244015444041,67.72464523762756 162.44416988419835,68.4783765375214 162.716602316621,68.54391794338153" stroke="#4DD2FF" stroke-linecap="round" stroke-linejoin="round" stroke-width="0.5"><title>2025-09-26 11.4km</title><desc>1758886655000</desc></polyline><polyline fill="none" points="188.80000000001746,69.71470535787375 184.6989638756495,68.88054291237495 180.1261271352705,66.76300589154562 179.38818258192623,66.53484966704855 172.0208345001447,65.1159852963392 170.81713805659092,65.08033504170453 169.45617474097526,65.1944157881735 168.79686362363282,65.09459514587797 167.88350602073479,64.41723676625406 167.5629235508386,63.93238646387181 167.24234108094242,63.11954113459797 167.26653598435223,62.81293895866838 167.87140856904443,62.285294642126246 167.27258471018285,62.777287449644064 167.20000000001164,62.99832649252494 167.841164939804,64.42436689096212 168.17384486139053,64.75948187623726 168.74242509101168,65.07320498843183 169.4440772892849,65.22293594374787 171.2345001399808,65.0874650941696 172.03293195186416,65.13024539276375 178.98291795013938,66.4778104866491 180.11402968358016,66.77726562919997 184.68686642398825,68.91619109754538 186.24138896664954,69.23702389044774" stroke="#4DD2FF" stroke-linecap="round" stroke-linejoin="round" stroke-width="0.5"><title>2025-09-25 7.3km</title><desc>1758798919000</desc></polyline><polyline fill="none" points="32.80000000001746,91.03656820525066 32.39365079370327,92.46597270963684 28.234920634975424,91.65772669504804 23.38412698416505,89.42003304446553 22.165079365106067,89.04582967016177 14.673015873035183,87.61635401890817 13.39047619048506,87.59390128454834 12.031746031774674,87.72113334891765 11.200000000011642,87.53402729037043 11.911111111141508,87.75107027099875 13.530158730165567,87.63132250440685 14.882539682555944,87.69868064879847 22.48253968259087,89.13563866586628 23.168253968295176,89.34519253264443 28.17142857145518,91.66521049804578 31.834920634981245,92.38365179109678" stroke="#4DD2FF" stroke-linecap="round" stroke-linejoin="round" stroke-width="0.5"><title>2025-09-23 6.7km</title><desc>1758623965000</desc></polyline><polyline fill="none" points="58.79999999998836,92.53187544148386 54.403835446952144,91.67350453385734 49.406371790886624,89.37396528589306 48.290627899812534,89.01957773389586 40.30671203217935,87.46812733742263 39.057346118148416,87.4287499906277 37.20000000001164,87.55475742492854 40.09291679554735,87.46812733742263 48.063470460881945,88.9880765341295 49.28611197031569,89.32671371264587 54.4973708629841,91.7207545735946 58.79999999998836,92.5712500093723" stroke="#4DD2FF" stroke-linecap="round" stroke-linejoin="round" stroke-width="0.5"><title>2025-09-22 6.4km</title><desc>1758538508000</desc></polyline><polyline fill="none" points="83.8855305466277,99.55903961576041 80.12347266881261,98.8154404095003 75.69003215435077,96.80290287188836 74.83922829583753,96.52318914708667 67.99228295823559,95.18600383799276 66.66109324761783,95.12460178624315 65.32411575564765,95.24058338901159 64.7627009646385,95.13824669183305 64.21864951771568,94.851703050168 63.813504823163385,94.47646534659725 63.20000000001164,93.0573642489253 63.30418006432592,92.88679704850074 65.80450160772307,90.887714831817 67.4077170418168,89.13420110122752 69.14983922831016,87.59216012284742 71.24501607721322,86.23431383651769 72.04372990355478,86.12513898677571 72.3504823151452,85.88631833927866 72.9987138263823,85.10843905730144 73.55434083603905,83.86654157517114 74.16205787783838,83.306997296786 76.7665594855498,81.86717134472929 80.0540192926419,80.44096038424323 80.0598070739652,80.87087428634914 80.51704180066008,81.21889766360982 80.95691318329773,81.9968252753606 81.176848874602,82.63144327237023 82.61800643085735,85.42232133416474 82.65273311897181,85.64749678080625 83.48038585210452,87.01900246784498 84.80000000001746,89.97343753456516" stroke="#4DD2FF" stroke-linecap="round" stroke-linejoin="round" stroke-width="0.5"><title>2025-09-21 9.0km</title><desc>1758451095000</desc></polyline><polyline fill="none" points="109.55514018694521,98.04840706669347 109.27476635514176,99.23812016781085 109.17383177572628,99.2645579718519 105.49532710280619,98.54412369297643 101.13271028039162,96.54140365801868 100.4093457943818,96.323281643472 93.77570093458053,95.03436282600524 90.84299065420055,95.03436282600524 90.321495327109,94.81623539454085 89.80560747665004,94.36014823146616 89.5252336448466,93.91727770573561 89.20000000001164,92.972035772058 89.65420560745406,92.48949400289712 91.76261682240875,90.83031425383888 93.45607476634905,89.00582517937073 94.85794392522075,87.78285794669137 97.07850467288517,86.32848644193655 97.73457943924586,86.26237781776581 98.02056074765278,86.07066240025961 98.6934579439112,85.27073980955902 99.226168224297,84.06753059136099 99.83738317756797,83.51880637514114 102.48411214954103,82.06433262694918 105.5177570093656,80.73544202814446 105.52897196263075,81.19824305366274 105.9775700934697,81.49575613372144 106.25233644861146,82.01144201523857 107.05420560747734,83.79647467126779 108.89906542058452,87.28705339639782 110.44112149532884,90.79726240350647 110.73831775703002,91.94745620634421 110.80000000001746,92.70762979846768 110.68785046730773,93.8710074643277 110.37383177570882,94.98809343637186" stroke="#4DD2FF" stroke-linecap="round" stroke-linejoin="round" stroke-width="0.5"><title>2025-09-18 10.1km</title><desc>1758194958000</desc></polyline><polyline fill="none" points="128.8844235634606,91.21461482347513 128.82197325627203,91.38943669026776 129.29815684858477,91.52745369799231 136.80000000001746,92.99042012012796 122.95164438022766,90.23928619162325 117.09692808095133,87.51566737395478 115.20000000001164,87.00957987987931 117.05789663898759,87.5432720591707 123.0453198410105,90.27609125006711 127.61199855443556,91.19621250066848" stroke="#4DD2FF" stroke-linecap="round" stroke-linejoin="round" stroke-width="0.5"><title>2025-09-16 5.4km</title><desc>1758020593000</desc></polyline><polyline fill="none" points="162.7934065934096,92.50252732780064 158.4021978022065,91.62433699439134 153.3582417582511,89.30057769726409 152.34285714285215,89.01301693747519 144.31868131869123,87.47415858288878 141.20000000001164,87.5363353214052 141.608791208826,87.60628408745106 143.3032967032923,87.46638648675435 144.46373626374407,87.50524695890635 152.5868131868192,89.06742041334655 153.44395604394958,89.36275284430303 158.454945054953,91.66319520225079 162.80000000001746,92.53361351324565" stroke="#4DD2FF" stroke-linecap="round" stroke-linejoin="round" stroke-width="0.5"><title>2025-09-15 6.5km</title><desc>1757932870000</desc></polyline><polyline fill="none" points="188.80000000001746,99.75549773908278 184.81500559911365,98.95720798324328 180.10436730121728,96.79750028606941 179.48756998879253,96.60504762693017 171.93482642775052,95.13668648446037 170.79193729002145,95.10817429152667 169.4555431130866,95.2293510256859 168.86898096304503,95.14381453076203 168.22799552071956,94.80879551573162 167.87726763717365,94.47377478556155 167.5325867861393,93.90352278976206 167.24232922730152,93.1621877657526 167.20000000001164,92.94121127796097 167.30279955206788,92.79864540592098 169.86069428888732,90.7028912415044 171.56595744681545,88.8494472700113 173.35587905935245,87.26684970546194 175.65979843225796,85.79114991565439 176.40963045912213,85.69847200630466 176.74221724522067,85.4632121082177 177.37110862263944,84.76455651449214 177.97581187009928,83.39574025033653 178.60470324745984,82.78261534320336 181.4709966405353,81.21413012099947 183.5995520716533,80.24450226090994" stroke="#4DD2FF" stroke-linecap="round" stroke-linejoin="round" stroke-width="0.5"><title>2025-09-13 7.0km</title><desc>1757768754000</desc></polyline><polyline fill="none" points="32.80000000001746,116.63155517823907 28.025040756445378,115.69352025850822 22.771177045971854,113.26951815970824 21.911966090643546,112.98726632935723 13.284642973623704,111.31033684356953 11.200000000011642,111.31863856557902 13.397326377598802,111.37675059420872 21.658428431721404,112.97066324797925 22.665536354790675,113.26951815970824 28.067297032946954,115.74332771258196 32.77182914901641,116.6896631564232" stroke="#4DD2FF" stroke-linecap="round" stroke-linejoin="round" stroke-width="0.5"><title>2025-09-11 6.0km</title><desc>1757587445000</desc></polyline><polyline fill="none" points="56.73634059808683,123.0503144438917 53.06335529653006,122.32768589600164 48.99077546884655,120.43719630732085 48.05473897623597,120.15974736630233 41.573644196701935,118.90798482506216 40.446021287410986,118.86927009797 39.17607704005786,118.97250931397139 38.54657881401363,118.85636518333558 37.769285352289444,118.24983102347687 37.44632539284066,117.67555359511971 37.20000000001164,116.86897477195816 39.61398884950904,114.86215900030948 40.352965027908795,114.15878947034435 41.2178408515465,113.13921146806751 42.8107450583193,111.73887636178551 43.98763304614113,111.04837635498188 44.78134820074774,110.46112235001783 45.48748099344084,110.34496152723295 45.804967055271845,110.15781305570272 46.43446528134518,109.43502719841854 46.970907247887226,108.2088524398605 47.573035985813476,107.67965338396971 50.04723770910641,106.30500446718361 53.1235681703256,104.94968555610467 53.11809427270782,105.4079158977438 53.572427774983225,105.68543395766392 53.884439939196454,106.25337383902661 54.49204257479869,107.67319970775861 56.92245311709121,112.37774302910475 57.05382665991783,112.82946277590963 57.21804358845111,113.01014970987671 57.93512417637976,114.7653655239701 58.11576279779547,115.46227502301554 58.37850988341961,115.53325608592422 58.45514445009758,116.79799530973833 58.17050177397323,118.68214856037594 58.38398378106649,118.8370078060725 58.78905220478191,118.9144372771043 58.80000000001746,119.03058129391502" stroke="#4DD2FF" stroke-linecap="round" stroke-linejoin="round" stroke-width="0.5"><title>2025-09-09 10.0km</title><desc>1757415422000</desc></polyline><polyline fill="none" points="84.77024793392047,116.8406334697138 79.63801652894472,115.7973444406307 74.18595041317167,113.26358622180123 73.189256198355,112.94795677466027 64.10743801650824,111.17690192166629 63.20000000001164,111.1593665302862 66.06363636360038,111.55391191240778 73.34545454542967,113.00932926408859 79.89834710743162,115.89378348943865 84.79999999998836,116.8406334697138" stroke="#4DD2FF" stroke-linecap="round" stroke-linejoin="round" stroke-width="0.5"><title>2025-09-08 5.7km</title><desc>1757333196000</desc></polyline><polyline fill="none" points="110.80000000001746,116.79019250415149 105.95479452057043,115.87468786455429 100.30328767123865,113.26762206282729 99.482191780844,112.98859995778184 90.59068493152154,111.253409413388 89.20000000001164,111.15749326118384 90.25041095892084,111.22725047417771 99.26767123292666,112.97116104392626 100.39205479453085,113.33737743712845 105.89561643835623,115.88340700572735 110.73342465754831,116.84250673880888" stroke="#4DD2FF" stroke-linecap="round" stroke-linejoin="round" stroke-width="0.5"><title>2025-09-04 5.8km</title><desc>1756983645000</desc></polyline><polyline fill="none" points="136.80000000001746,116.51697942698229 132.54879807692487,115.66781105441623 127.46682692310424,113.34975864609441 124.71490384617937,112.7071167125032 118.71778846156667,111.56717786552326 117.49110576923704,111.54422588666785 116.00480769234127,111.6666363539407 115.20000000001164,111.48302057301044 115.56995192309842,111.65133505719132 116.08269230771111,111.72019086628279 117.49110576923704,111.58247918060079 118.79567307696561,111.62073245370266 126.9346153846418,113.20439967566926 127.80432692312752,113.5180686571548 132.56177884619683,115.72136251629126 135.22932692308677,116.2033238362128" stroke="#4DD2FF" stroke-linecap="round" stroke-linejoin="round" stroke-width="0.5"><title>2025-09-02 6.2km</title><desc>1756809719000</desc></polyline><polyline fill="none" points="162.79999999998836,116.79810107860249 157.92523364484077,115.84633443273924 151.33831775700673,112.92927618528483 142.41869158879854,111.20190511226247 141.20000000001164,111.11377294633712 142.37383177570882,111.21953153395589 150.8822429906577,112.86758499624557 152.03364485982456,113.21129245055636 158.04485981308972,115.96089952903276 162.79252336447826,116.88622705366288" stroke="#4DD2FF" stroke-linecap="round" stroke-linejoin="round" stroke-width="0.5"><title>2025-08-29 5.7km</title><desc>1756465472000</desc></polyline><polyline fill="none" points="188.80000000001746,116.69108327425056 184.12011853806325,115.76893212165305 178.59387553512352,113.23715124947921 177.7332894303836,112.97726174526906 169.05630556473625,111.29215044338343 167.20000000001164,111.29215044338343 169.14876522889244,111.36760397723992 177.9679947316763,113.06948070205544 184.01343431021087,115.77731536370266 188.68620349033154,116.70784955661657" stroke="#4DD2FF" stroke-linecap="round" stroke-linejoin="round" stroke-width="0.5"><title>2025-08-27 6.0km</title><desc>1756291993000</desc></polyline><polyline fill="none" points="31.824377283308422,140.7016389829805 28.187313184986124,140.03364897720166 26.60909996679402,139.62777882525552 21.630554633011343,137.29398427699925 20.60471604115446,136.9642033035343 12.51278644966078,135.3829263534426 11.200000000011642,135.2391723063265 13.359282630350208,135.55204842100648 20.590368648263393,136.97265924344538 21.47273331118049,137.25170474329207 26.200199269340374,139.5009439676578 27.383859182999004,139.91527040204528 31.817203586833784,140.7608276936735 31.989372301555704,140.10129379624414 32.79999999998836,140.23658325758151 32.39827299900935,140.1435717782515 32.42696778476238,139.94063725476735" stroke="#4DD2FF" stroke-linecap="round" stroke-linejoin="round" stroke-width="0.5"><title>2025-08-26 6.0km</title><desc>1756205162000</desc></polyline><polyline fill="none" points="58.80000000001746,142.03366518364055 54.67795473599108,141.2227087659994 50.193797150073806,139.15970407468558 49.26437552392599,138.868032636914 41.85314333613496,137.43811235302564 39.378709136653924,137.5448239029356 38.720871751895174,137.39542768424144 38.08717518861522,137.01126440985536 37.76127409894252,136.61998467792728 37.22414082149044,135.28250171059335 37.61642917015706,134.84852528753981 38.71483654654003,133.96633481635217 37.411232187761925,135.00504170701606 37.20000000001164,135.296730396949 37.54400670583709,136.28561650399206 37.82766135793645,136.7551543048976 38.823470243107295,137.459454676944 39.445096395676956,137.5875084740619 40.79698239735444,137.466568783384 41.91349538977374,137.48791109801095 49.379044425848406,138.92494423925382 50.19983235542895,139.2023875904706 54.6055322716129,141.2227087659994" stroke="#4DD2FF" stroke-linecap="round" stroke-linejoin="round" stroke-width="0.5"><title>2025-08-23 7.3km</title><desc>1755948655000</desc></polyline><polyline fill="none" points="84.80000000001746,139.86660195981676 84.4732350659906,140.9924404991616 78.95174553923425,139.90610530306003 72.19022498067352,136.8247928511555 65.61303335923003,135.40261332724913 63.20000000001164,135.00755950083112 71.76291698994464,136.7359072844265 78.70876648570993,139.86660195981676 83.22482544611557,140.78505023948674" stroke="#4DD2FF" stroke-linecap="round" stroke-linejoin="round" stroke-width="0.5"><title>2025-08-19 5.0km</title><desc>1755607675000</desc></polyline><polyline fill="none" points="110.17765697199502,143.62319830062916 106.25572166350321,142.84812591182708 101.7055721663346,140.74431034366717 100.93645012233173,140.52285202134226 93.75602065777639,139.1456407539372 91.07290024464601,139.2217687893717 90.18635498775984,138.80652385158464 89.5757542810461,138.06599697712954 89.23522696385044,136.95865096800117 91.77743952162564,134.88924637516902 94.1728730633331,132.37680169937084 93.46833378632437,133.00665253549232 91.84789344930323,134.76466468319995 89.20000000001164,136.96557194050547 89.32916553411633,137.49156364409282 89.82234302800498,138.45356352069211 90.23919543356169,138.8411277000705 90.96134819247527,139.19408587795624 91.36058711606893,139.25637241168442 92.74618102746899,139.1317992831464 93.90279967384413,139.1456407539372 96.81489535202854,139.69929711287114 97.06735525958356,139.6093282828515 98.2239739059587,139.82386912876973 98.57037238380872,139.97612348318216 100.325849415618,140.2391074178522 101.45898341940483,140.60589898267062 102.04609948355937,140.5920578299847 102.03435716227978,140.75123090381385 102.41011144334334,140.73738978277106 102.12829573254567,140.92424466224475 102.55689045938198,141.18722467280168 105.99739059529384,142.73740051314235 106.65496058712597,142.9242495115177 106.8604512095626,142.82736491427204 107.98184289206984,142.91040886379778 107.98184289206984,143.17338065471267 109.88409893994685,143.55399579311052 110.21875509648817,143.5885970562813 110.31269366675406,143.11109796047822 110.62973634139053,143.05573551435373 110.80000000001746,142.4813472897149" stroke="#4DD2FF" stroke-linecap="round" stroke-linejoin="round" stroke-width="0.5"><title>2025-08-16 10.0km</title><desc>1755297330000</desc></polyline><polyline fill="none" points="128.19901477830717,137.24753434462036 127.80886699509574,139.23331854348362 136.79999999998836,140.99958680506097 121.88571428571595,138.0418529547751 115.20000000001164,135.00041319493903 121.68177339900285,138.03140143680503 127.31231527094496,139.16015880200575" stroke="#4DD2FF" stroke-linecap="round" stroke-linejoin="round" stroke-width="0.5"><title>2025-08-13 5.0km</title><desc>1755095249000</desc></polyline><polyline fill="none" points="162.67905935054296,142.02019168320112 158.71825307953986,141.22902860980685 154.21321388578508,139.15485298719432 153.37267637180048,138.88399358588504 145.97110862264526,137.45839931203955 143.34669652860612,137.54393584423815 142.7661814110179,137.42275905729184 142.1675251959823,137.06635544217716 141.85307950730203,136.75271865519608 141.56282194849337,136.26800430037838 141.2181410974299,135.29856481918978 141.96797312435228,134.55721905414975 142.83874580069096,133.89427774654905 142.17961926094722,134.35762452844938 141.20000000001164,135.30569310308056 141.84098544236622,136.7598467807038 142.34288913776982,137.2303013462224 142.76013437853544,137.44414321246586 143.34669652860612,137.5724479967903 145.40268756999285,137.45127126263105 146.14647256440367,137.50116759210505 153.71735722286394,139.01942342666007 158.6033594625187,141.22902860980685 162.80000000001746,142.10572225345095" stroke="#4DD2FF" stroke-linecap="round" stroke-linejoin="round" stroke-width="0.5"><title>2025-08-12 8.1km</title><desc>1754996616000</desc></polyline><polyline fill="none" points="188.80000000001746,140.50519530386373 184.444686648465,139.63418363803794 179.52697547682328,137.36796146939741 178.71607629428036,137.09816828244948 174.09264305178658,136.1269042935819 170.60708446867648,135.525638953819 169.37765667575877,135.49480469613627 167.82125340600032,135.6258501985285 167.20000000001164,135.5179303906698 167.76893732973258,135.6258501985285 169.31226158040226,135.51022182664747 170.62016348776524,135.53334751616057 178.64414168935036,137.10587667349319 179.57929155312013,137.4373366940854 184.2419618528511,139.58793493131816 188.42724795639515,140.45123914040596" stroke="#4DD2FF" stroke-linecap="round" stroke-linejoin="round" stroke-width="0.5"><title>2025-08-10 6.4km</title><desc>1754781124000</desc></polyline><polyline fill="none" points="30.65803187454003,171.03750738702365 27.062585378211224,170.3161586319111 22.986288894491736,168.43545800479478 22.21037186947069,168.17782312410782 15.494864659762243,166.86386777273583 14.893802175560268,166.82522158513893 13.014115861384198,166.93471905110346 12.60430053123855,166.83810365048703 12.030559069069568,166.50961010754327 11.631672147719655,166.05873364591753 11.25464204401942,165.17629405068146 11.200000000011642,164.84135002636322 13.58785732355318,162.88317775850373 15.238047052873299,161.10530729045058 16.795345307386015,159.74610213850974 18.756994687602855,158.4641691164652 18.97556286366307,158.36109791726267 19.527447508240584,158.341772047399 19.740551479917485,158.20004880871056 20.341613964090357,157.5365218534207 20.959069061471382,156.20944559690906 21.516417910461314,155.68118365039845 24.013559322047513,154.33473855480042 27.10083480901085,152.96249261297635 27.10083480901085,153.4327964541444 27.64725524917594,153.78713249244902 27.81118138122838,153.99329066438804 27.89860865168157,154.32829616001982 29.827472805482103,157.7619930135079 30.6197824437113,159.50131305557443 31.117025044281036,160.19058498719096 31.122489248693455,160.39027909205834 31.34652162916609,160.7316900314072 31.75087275489932,161.91050887255915 32.06233240576694,162.46448119306297 32.3246142170392,163.6110585758106 32.41204148749239,164.77049623961648 32.16615228939918,166.43231724398356 32.231722742231796,166.52893330763254 32.79999999998836,166.70284182440082 32.734429547184845,167.21812331564797" stroke="#4DD2FF" stroke-linecap="round" stroke-linejoin="round" stroke-width="0.5"><title>2025-08-08 10.0km</title><desc>1754654808000</desc></polyline><polyline fill="none" points="58.80000000001746,165.02405471847305 53.037154150224524,163.8466667746834 46.42909090910689,160.79746415981208 39.60758893282036,159.32817548953608 37.20000000001164,158.97594528153422 46.27541501977248,160.79746415981208 53.207905138347996,163.9472988091875 58.65486166009214,164.99386547139875" stroke="#4DD2FF" stroke-linecap="round" stroke-linejoin="round" stroke-width="0.5"><title>2025-08-07 5.0km</title><desc>1754573743000</desc></polyline><polyline fill="none" points="84.80000000001746,165.03482033329783 79.089850511431,163.89303733305132 72.56396538161789,160.89829351959634 71.73123524783296,160.6478924617768 63.20000000001164,158.96517966670945 65.46876475214958,159.44595789298182 65.6557041699707,159.3658283631521 66.15704169948003,159.576168230029 72.09661683713784,160.78811713816685 79.16632572779781,163.9731629183516 84.41762391818338,165.02480475455377" stroke="#4DD2FF" stroke-linecap="round" stroke-linejoin="round" stroke-width="0.5"><title>2025-08-04 5.0km</title><desc>1754309955000</desc></polyline><polyline fill="none" points="110.80000000001746,164.51361564642866 106.48262056417298,163.64874102436443 101.50354868063005,161.36295016977238 100.75668789810152,161.115833231117 92.8556869882159,159.5558876769428 91.4667879891349,159.48638435357861 89.77652411288,159.61766835161689 89.20000000001164,159.49410694841936 89.32447679713368,159.58677802101738 90.11719745225855,159.64083609075897 92.40363967246958,159.51727472792845 95.5417652411852,160.13507938863768 96.04622383989044,160.14280191283615 96.91756141951191,160.4053672348964 100.67151956327143,161.1235556485044 101.71319381255307,161.49423069309705 106.40400363970548,163.64101888203004 110.35450409466284,164.43639512691152" stroke="#4DD2FF" stroke-linecap="round" stroke-linejoin="round" stroke-width="0.5"><title>2025-08-03 6.5km</title><desc>1754227262000</desc></polyline><polyline fill="none" points="134.29813566044322,164.52988705886673 128.56612455376307,163.3886921075973 121.34327647759346,160.1771123592407 115.20000000001164,158.92476810025255 121.87449424833176,160.31850500328437 128.7888932963251,163.47958425558318 136.80000000001746,165.07523189974745 134.4780642602127,164.5500850731114 134.4780642602127,164.39859985899238" stroke="#4DD2FF" stroke-linecap="round" stroke-linejoin="round" stroke-width="0.5"><title>2025-08-01 5.0km</title><desc>1754057984000</desc></polyline><polyline fill="none" points="160.73348519363208,171.0162999546592 157.04874715264305,170.28814205905292 152.9922551253112,168.41937724771196 152.12300683371723,168.14227950954955 145.562642369041,166.87276862803992 144.36537585422047,166.83410289452877 143.17357630981132,166.937211461056 142.6050113895326,166.83410289452877 142.13485193622182,166.56988637257746 141.7904328018194,166.24122514968622 141.39681093394756,165.49367517665814 141.20000000001164,164.84278345534403 143.61093394079944,162.8449522582123 145.28382687928388,161.05973632922542 146.81457858771319,159.7191777552871 147.96810933944653,159.055332212778 148.87015945333405,158.39147921887343 149.50979498864035,158.3270270750363 149.73940774489893,158.18523211134743 150.43917995446827,157.37957245507278 150.98587699318887,156.16783966410003 151.52164009114495,155.68442869662977 154.08018223237013,154.27929171338837 157.07608200455434,152.98370004533717 157.12528473805287,153.40267558108462 157.562642369041,153.70562527287257 158.01640091117588,154.51778061822552 158.295216400933,155.29769707735613 158.9840546697087,156.72214604322653 160.77722095674835,160.08010036033738 161.01776765377144,160.8019389631554 161.7284738041344,162.29070326044166 162.2095671981806,163.94699006919473 162.24236902053235,164.97811796731185 162.17676537585794,165.35189739197813 162.34624145785347,165.4743418623948 162.18769931662246,166.4474441696184 162.80000000001746,166.67943970779743 162.77813211845933,166.99520995076819" stroke="#4DD2FF" stroke-linecap="round" stroke-linejoin="round" stroke-width="0.5"><title>2025-07-28 10.0km</title><desc>1753704756000</desc></polyline><polyline fill="none" points="186.67911468812963,164.64850022056635 180.94229376257863,163.50101867973717 174.37102615693584,160.48881304280803 173.30189134809189,160.13021070905234 167.20000000001164,158.9109525488093 173.97118712271913,160.3658638252382 179.6297786720388,163.02972756374947 181.09875251509948,163.5829821110965 188.80000000001746,165.0890474511907 186.76603621730465,164.6280096015107 186.87034205230884,163.96206205222552" stroke="#4DD2FF" stroke-linecap="round" stroke-linejoin="round" stroke-width="0.5"><title>2025-07-22 5.0km</title><desc>1753194638000</desc></polyline><polyline fill="none" points="23.486120996443788,187.1401546342022 30.641281138785416,188.55959383404843 32.79999999998836,188.68794594610517 30.91672597863362,188.58224422403146 19.123843416396994,186.27186633085512 13.980071174388286,183.93875954568648 11.200000000011642,183.3120540539021 13.948042704665568,183.95386081294419 18.771530249126954,186.18126170744654 20.7572953736817,186.6040822703726" stroke="#4DD2FF" stroke-linecap="round" stroke-linejoin="round" stroke-width="0.5"><title>2025-07-19 6.4km</title><desc>1752877000000</desc></polyline><polyline fill="none" points="56.821877384907566,195.0751299532094 53.145866191829555,194.34326736212824 48.96982955993735,192.43261018522753 48.25550750448019,192.20591797190355 41.469447977637174,190.89756316830972 39.11767997968127,190.97528802030865 38.60666497074999,190.87813193944385 38.12861867211177,190.59961696116443 37.66156194356154,190.10735473936438 37.25494785045157,189.19406798113778 37.20000000001164,188.86372676291649 39.60122106334893,186.87516339694048 41.18921394049539,185.15211985727365 42.75522767746588,183.7853091993129 44.667412872076966,182.5091590315169 45.002594759629574,182.3472090816722 45.513609768560855,182.32129704875115 45.87626558128977,182.09456627885083 46.46970236583729,181.38845634044628 47.00269651491544,180.17703718100165 47.56865937425755,179.65229715399255 50.34902060547029,178.1363554955169 53.1898244722106,176.92487004679424 53.19531925721094,177.39132726105163 53.634902060584864,177.68286116075615 53.92612566778553,178.22057549097008 54.52505723736249,179.5939924205668 56.37130501147476,183.0662634894361 56.854846095171524,184.22580137409022 56.98672093616915,184.34887948657342 57.81643347750651,186.47355620815142 58.00325616894406,186.73913545940377 58.29997456120327,187.84678247145348 58.3549224116432,188.57872502147075 58.26700585096842,189.69281497062912 57.99776138391462,190.7356360670201 58.80000000001746,190.91699439083095" stroke="#4DD2FF" stroke-linecap="round" stroke-linejoin="round" stroke-width="0.5"><title>2025-07-17 10.0km</title><desc>1752756134000</desc></polyline><polyline fill="none" points="84.80000000001746,189.04800965903996 79.0735677597695,187.901264471162 71.81098380088224,184.67219495613244 63.20000000001164,182.95199034095276 72.19502173058572,184.8331481348141 78.91141841173521,187.8912052398373 84.53544053732185,189.03795055260707" stroke="#4DD2FF" stroke-linecap="round" stroke-linejoin="round" stroke-width="0.5"><title>2025-07-14 5.0km</title><desc>1752500928000</desc></polyline><polyline fill="none" points="110.80000000001746,189.02579080695432 105.07490226739901,187.90110282981186 99.15559030493023,185.15401913993992 97.7538702111342,184.64639681034168 89.20000000001164,182.9742091930384 98.31118060986046,184.79569778821315 105.17623143081437,187.9409150298743 110.19202501958353,188.94616733459407" stroke="#4DD2FF" stroke-linecap="round" stroke-linejoin="round" stroke-width="0.5"><title>2025-06-21 5.0km</title><desc>1750468889000</desc></polyline><polyline fill="none" points="129.97842552216025,187.32652039654204 135.59531787928427,188.44843585718627 136.80000000001746,188.512711553376 135.76387422537664,188.44843585718627 126.58251090199337,186.6545285494758 125.59596052329289,186.26885986236448 122.64622446638532,184.8664049041945 122.12568280927371,184.6969391143175 116.10722974524833,183.52819495340736 115.20000000001164,183.487288446624 116.00312141384347,183.50481981051053 118.34803764056414,183.93725830582844 122.56690383292153,184.84887398521823 125.70502639430924,186.333138169397 126.50814780814108,186.64284166029756 127.38067477621371,186.8181447307834" stroke="#4DD2FF" stroke-linecap="round" stroke-linejoin="round" stroke-width="0.5"><title>2025-06-17 8.1km</title><desc>1750165544000</desc></polyline><polyline fill="none" points="162.80000000001746,189.01272125003015 157.35406032484025,187.9297464837873 150.2542923433939,184.75950941166957 141.20000000001164,182.98727874996985 150.27099767985055,184.79889192064002 157.2371229698474,187.9199011991368 161.83109048724873,188.85519845389354" stroke="#4DD2FF" stroke-linecap="round" stroke-linejoin="round" stroke-width="0.5"><title>2025-06-15 5.0km</title><desc>1749939796000</desc></polyline><polyline fill="none" points="182.12555862948648,187.2381025305258 187.22332411148818,188.25669126443972 188.79999999998836,188.35421462386876 187.5588848691259,188.2783631386119 179.0273675250064,186.62043750358134 178.19536071503535,186.30618393271288 175.4143434773141,184.98412992807425 174.79378591189743,184.77823310975873 169.1857842094323,183.69455159916106 168.50546924880473,183.64578537613124 167.20000000001164,183.74873623537133 169.05247925090953,183.6837146648504 174.5547563311411,184.74572300792715 175.22128112363862,184.9299466374432 176.81174718026887,185.68308908626568" stroke="#4DD2FF" stroke-linecap="round" stroke-linejoin="round" stroke-width="0.5"><title>2025-06-11 8.1km</title><desc>1749642919000</desc></polyline><polyline fill="none" points="32.80000000001746,213.00608965243737 27.18852268322371,211.92017544324335 20.13648701045895,208.7709506707979 11.200000000011642,206.9939103475699 20.236991081823362,208.81044006006414 27.2471500581305,211.96953546222358 31.87033734007855,212.89749881689204" stroke="#4DD2FF" stroke-linecap="round" stroke-linejoin="round" stroke-width="0.5"><title>2025-06-08 5.0km</title><desc>1749387304000</desc></polyline><polyline fill="none" points="45.56811188790016,215.80507788300747 47.89426573412493,214.4161593648605 52.788251748192124,213.52582387713483 55.26545454538427,211.67391829402186 57.95412587397732,211.74514562575496 58.679160839063115,211.13971281045815 53.906013985862955,203.37582789201406 50.673566433484666,204.01688959554303 47.592167832073756,205.83322426024824 45.87020979018416,205.83322426024824 43.121118881041184,207.11533676987165 38.61986013967544,208.0413037876715 38.77090909087565,210.96164412194048 37.199999999953434,212.92039436011692 38.52923076902516,214.38054599188035 39.103216783259995,216.1968230647617 39.94909090909641,216.73102028301219 45.20559440541547,215.62701173621463 47.98489510489162,214.38054599188035 52.03300699288957,213.84634493212798 55.41650349646807,211.67391829402186 57.803076922893524,211.7807592859317 58.76979020971339,210.96164412194048 53.906013985862955,203.268984152528 50.31104895088356,204.0525040977227 47.65258741239086,205.7976099521038 45.23580419563223,206.04691002782783 42.27524475508835,207.36463584043668 38.710489510325715,207.97007564865635 38.80111888097599,211.13971281045815 37.199999999953434,212.92039436011692 38.61986013967544,214.45177273399895 39.344895104761235,216.30366257813876 40.37202797201462,216.80224651284516 48.64951048931107,214.27370584977325 52.12363636342343,213.88195836322848 55.11440559430048,211.85198659449816 57.8937062935438,211.81637294217944 58.79999999993015,210.9260303725314 53.57370629359502,203.16214037805912 50.00895104883239,204.26619102951372 47.53174825175665,205.7976099521038 38.86153846140951,207.7920052332629 38.831328671309166,210.96164412194048 37.23020979005378,212.84916728449753 38.589650349575095,214.38054599188035 39.103216783259995,216.08998351631453 40.64391608373262,216.83785962194088 52.848671328509226,213.13407549422118 54.35916083899792,211.10409908054862 53.906013985862955,209.0741100589512 51.91216783213895,206.5811238354363 50.2204195803497,205.72638132420252 48.770349650178105,205.65515268064337 47.10881118872203,206.3318241672241 44.420139860128984,209.57270502179745 40.130349650396965,210.2849822207354 37.562517482438125,212.31496372175752 37.47188811178785,213.1696890029125 38.92195804184303,214.91474617866334" stroke="#4DD2FF" stroke-linecap="round" stroke-linejoin="round" stroke-width="0.5"><title>2025-06-04 6.4km</title><desc>1749041988000</desc></polyline><polyline fill="none" points="84.80000000001746,213.02583408370265 79.26390073672519,211.92017610020412 72.95727025982342,209.00788740523421 72.00248158205068,208.69197249761783 63.20000000001164,206.97416591629735 72.25374176041805,208.7906960245091 79.13827064755606,211.90043208508723 83.73633191161207,212.84813996011508" stroke="#4DD2FF" stroke-linecap="round" stroke-linejoin="round" stroke-width="0.5"><title>2025-05-28 5.0km</title><desc>1748436903000</desc></polyline><polyline fill="none" points="110.79999999998836,213.01637612426566 104.8018987341784,211.78770070353494 97.85537974681938,208.64544012295664 89.20000000001164,206.97355283317302 97.57341772151995,208.5850109884268 98.61582278483547,208.91737073962577 105.3060126582568,211.97905286680907 110.69746835445403,213.0264471668197" stroke="#4DD2FF" stroke-linecap="round" stroke-linejoin="round" stroke-width="0.5"><title>2025-05-27 5.0km</title><desc>1748351986000</desc></polyline><polyline fill="none" points="131.19581204431597,214.45578841456154 131.2246776667307,213.1626589143707 131.9030197947286,211.6270492523763 132.3504369430011,208.7780363625352 132.32157132046996,209.04071418463718 131.67209481500322,209.1215380124122 128.51130915473914,211.36437717988156 127.31338582234457,211.64725477226602 126.83710305159912,210.8592369375765 127.38554987846874,209.97018486620073 128.39584666490555,209.1821558469601 128.23708574130433,207.82835013359727 128.71336851204978,206.95948157824023 128.0783248177613,206.5957672625882 125.75464220903814,206.63618001966825 125.14846413722262,205.7470961722065 125.35052349453326,204.6963520907011 125.79794064274756,204.83779895362386 125.75464220903814,204.1507697474808 126.41855152585777,204.55490505843773 127.6309076694888,204.5144915895362 128.59790602215799,205.16110543303512 129.91129184444435,205.20151868082758 130.4453058601357,204.93883232351072 131.75869168242207,203.1000114697017 131.81642292730976,200.0285106150841 131.3401401565643,199.48290671690484 130.58963397244224,199.20000000000437 129.6659340534825,199.46269911674608 128.84326381311985,200.3720377028294 128.20822011877317,200.59431940383365 126.90926710778149,200.35183025470178 125.53815004054923,199.60415224537428 124.28249546320876,200.0285106150841 123.64745176886208,200.9984668797042 123.67631739139324,202.0290366859117 124.22476421826286,202.79690638375905 125.46598598436685,203.38290884834714 125.75464220903814,204.09014933164144 125.19176257093204,205.40358471209038 125.59588128549512,206.61597364289628 125.69691096415045,208.293091156811 125.16289694840088,210.11162541596423 125.58144847425865,210.6167688542264 126.80823742918437,210.91985388064495 127.28452019981341,211.64725477226602 126.18762654607417,213.4253269894034 124.83094229002018,213.97086651033896 122.56499092635931,215.62767480068578 120.91965044569224,216.3348419972026 120.54439735360211,217.3046644135029 119.62069743458414,218.314887633358 120.41450205253204,220.5777563064912 121.13614261418115,220.73938812506094 122.08870815561386,220.15347173099872 123.20003462064778,220.61816428192105 124.00827204977395,220.51714431757864 124.64331574406242,219.85041038726922 125.1051657035714,218.17345690245565 126.20205935731065,217.56732328148792 128.71336851204978,218.35529638252774 129.6659340534825,217.8905949329128 131.15251361054834,217.8097771030225 131.2391104779672,213.32430087586545 132.37930256547406,209.32359733997146 132.20610883063637,209.04071418463718 131.77312449360033,209.08112610545504 128.5257419659756,211.38458274463483 127.356684256054,211.6270492523763 126.07216405618237,213.48594261614198 124.70104698895011,214.03148185720784 122.55055811512284,215.62767480068578 121.00624731311109,216.23381837109628 120.54439735360211,217.36527805028163 119.62069743458414,218.39570511781494 120.34233799629146,220.47673630766803 120.81862076703692,220.8000000000029 122.00211128819501,220.15347173099872 123.3587955441908,220.63836826438637 124.26806265197229,220.274696050903" stroke="#4DD2FF" stroke-linecap="round" stroke-linejoin="round" stroke-width="0.5"><title>2025-05-23 6.4km</title><desc>1747958832000</desc></polyline><polyline fill="none" points="153.96246414014604,211.00872796052136 154.54702792642638,211.56406884160242 156.0084373925347,211.79789604120015 156.73914212547243,212.73320164064353 156.55124662269372,216.41591768682702 156.19633289519697,217.08815094071906 154.9228189321002,217.46810769736476 153.67018224694766,217.02969598017808 152.50105467403773,217.29274314538634 150.51771325594746,216.1236415344465 149.3277084050933,216.59128313840483 148.45086272549815,216.44514527462889 148.7013900624588,215.59754320059437 148.07507171994075,213.96078247261175 148.26296722271945,212.7916580706369 147.59489432396367,211.68098248133902 147.88717621716205,209.92726948737982 152.10438639041968,209.7518971982936 153.54491857835092,210.27801352569077 154.29650058946572,211.47638355921663 155.9040510019986,211.7686676587182 156.61387845687568,212.44091919057246 156.55124662269372,216.50360043509863 156.2380874514347,217.08815094071906 155.0063280443428,217.43888028456422 153.81632319348864,217.05892346295877 152.45930011791643,217.2635157025943 150.47595869982615,216.1528691721469 147.94980805146042,216.67896579670196 146.5927849757718,217.789608908628 147.03120781562757,218.11110951520095 147.36524426494725,219.86473854215 149.4112175173359,220.8000000000029 150.28806319704745,220.1862352454482 150.8726269834442,218.9879262775794 150.78911787108518,218.05265490441525 149.70349941053428,216.32823489353177 150.78911787108518,216.1528691721469 152.4801773960935,217.2635157025943 153.81632319348864,216.88355849117215 153.6493049687706,216.44514527462889 152.29228189319838,216.4743728573667 151.56157716026064,215.53908773019793 152.25052733707707,212.7916580706369 150.45508142164908,210.04418424681353 150.5803450901294,207.8520191990101 151.0605224862229,206.91668688764912 152.02087727806065,206.36133090594376 153.8372004715493,206.94591609992494 155.31948721560184,206.56593595127924 153.6493049687706,208.20276749618642 151.91649088764098,208.11508048939868 150.8726269834442,207.32589540380286 149.26507657091133,206.97514530709304 149.30683112703264,203.40914513079042 150.01665858190972,201.91841808597383 150.05841313803103,199.69691836352285 150.4968359778868,199.25846105888195 151.83298177528195,199.1999999999971 155.6744009430986,199.7553792525141 156.4677375103347,200.4569083602546 156.73914212547243,201.91841808597383 157.4072150242282,202.6491682620399 156.96879218437243,203.2337661533238 157.24019679962657,203.6137537103641 155.92492828017566,204.40295593701012 155.77878733351827,206.24441362716607 153.8372004715493,208.1443094966089 152.31315917125903,208.20276749618642 150.80999514914583,207.2382079470699 149.34858568315394,207.0628328987077 149.28595384897199,203.6137537103641 150.18367680651136,200.63229018718994 151.12315432040486,200.28152635325387 151.14403159846552,199.40461361879716 155.42387360602152,199.66768791159848" stroke="#4DD2FF" stroke-linecap="round" stroke-linejoin="round" stroke-width="0.5"><title>2025-05-20 5.0km</title><desc>1747754393000</desc></polyline><polyline fill="none" points="185.93807531381026,211.50943188689416 187.95648535573855,211.75803220368107 188.80000000004657,210.87017305917107 183.79916317993775,203.34103029518155 180.30460251052864,204.19339481042698 177.59330543945543,205.79157226829557 175.90627615060657,205.8626021956734 171.8092050210107,207.42525668095914 168.52552301250398,207.8869486177864 168.79665271972772,210.90568747132784 167.19999999995343,212.96551675893716 168.52552301250398,214.13748278471758 169.0075313807465,215.77112536533969 169.7305439329939,216.48140219444758 171.0861924686469,216.69448494134122 177.86443514644634,214.4926231727295 181.9012552301865,213.92439836624544 185.39581589971203,211.6159749031358 187.95648535573855,211.68700356120826 188.73974895407446,211.01223068480613 183.91966527199838,203.3765455277753 182.59414225933142,203.41206075649825 177.71380753139965,205.72054232555092 175.48451882845256,205.96914705770905 172.68284518818837,207.24768268488697 168.28451882849913,208.06452226548572 168.91715481178835,210.40848534819088 167.19999999995343,212.93000257120002 168.46527196653187,213.99542652114178 168.85690376569983,215.48701420042198 169.76066945609637,216.44588838977506 171.0861924686469,216.6234573746042 178.43682008364704,214.20851089328062 182.38326359842904,213.71131380842417 185.24518828443252,211.68700356120826 187.9866108786082,211.68700356120826 188.73974895407446,210.94120187975932 183.91966527199838,203.41206075649825 182.86527196655516,203.30551505862968 180.15397489548195,204.19339481042698 177.80418410035782,205.72054232555092 175.8761506275041,205.79157226829557 172.26108786615077,207.31871229488752 168.67615062766708,207.9579780884087 168.85690376569983,210.76362979930127 167.26025104604196,212.8589741839969 168.46527196653187,214.0664546606713 169.3087866108399,216.16177781298757 171.20669456070755,216.5879435853276 177.32217573234811,214.52813719018013" stroke="#4DD2FF" stroke-linecap="round" stroke-linejoin="round" stroke-width="0.5"><title>2025-05-14 5.0km</title><desc>1747227249000</desc></polyline><polyline fill="none" points="18.84912879986223,244.5657792665006 19.289115318853874,244.16425717812672 19.9278054269962,241.78856334467127 21.84387575130677,242.0897096671397 22.879973037808668,237.940530582855 22.681269448599778,235.2803124412021 20.680040443199687,230.27763905530446 20.76519912428921,229.15661631387775 22.15612424869323,228.4036859980697 24.228318821638823,228.05231725392514 25.562471491924953,227.1320619709586 26.655341232428327,227.23245372438396 27.066941524331924,226.79742231886485 24.867008929722942,223.28366194137197 24.31347750267014,223.1999999999971 22.79481435677735,223.75216797077155 21.84387575130677,224.40472755806695 21.020675167499576,224.42145981872454 19.345887772913557,225.09074874941143 17.628521037695464,225.3417313463433 17.74206594581483,226.64683423747192 16.93305847560987,227.6674838973995 17.074989610700868,228.03558538887592 17.557555470149964,228.3534905123961 18.040121329657268,229.47451911665848 18.650425210711546,229.54144593863748 24.100580799975432,227.90173040317313 24.71088468108792,227.36630929342937 24.93797449732665,226.64683423747192 24.668305340514053,225.70983841306588 23.717366735159885,224.68917574104853 22.553531426994596,224.3210662275087 21.53162725403672,224.60551456546818 20.16908835666254,226.14487289974932 18.224631805322133,226.47951397389988 17.10337583773071,227.48343282069254 17.13176206481876,228.03558538887592 18.650425210711546,229.2068115370639 20.38198505935725,229.02276230535062 24.058001459517982,227.90173040317313 24.852815816237126,227.1655258960527 24.89539515681099,226.36238968090038 24.31347750267014,225.30826702379272 22.93674549186835,224.3712630312948 21.020675167499576,224.4381920775486 19.218149751250166,225.15767748204235 17.60013481072383,225.47558856359683 17.727872832329012,226.71376229186717 16.947251589037478,227.73441150695726 17.57174858369399,228.3534905123961 17.883997080964036,229.25700674376276 18.60784587013768,229.5581776395993 19.459432680974714,229.1231528227363 21.034868280985393,228.85544463057886 20.66584732971387,229.54144593863748 20.70842667017132,230.0768594644178 22.496758972934913,234.5608744619094 22.922552378324326,236.635523667268 22.766428129689302,238.96110518751084 22.056772454001475,241.62125957709213 20.225860810722224,241.35357316986483 19.50201202154858,243.79619434167398 18.948480594553985,244.03041624870093 18.721390778315254,244.8000000000029 18.423335394531023,244.6828896779043" stroke="#4DD2FF" stroke-linecap="round" stroke-linejoin="round" stroke-width="0.5"><title>2025-05-06 7.1km</title><desc>1746539597000</desc></polyline><polyline fill="none" points="45.45347489148844,244.8000000000029 45.30712287366623,244.6274877092219 45.99497735709883,242.33305637346348 47.736566368083004,242.74709155347955 48.0439056053292,242.21229590872827 48.95128811523318,238.39966817792447 48.92201771168038,236.50194595467474 46.33158699789783,229.32489991177863 45.629097312747035,229.16962368618988 44.63390359218465,229.65270477702143 44.01922511763405,229.53193464246579 42.86304417758947,227.73762465019536 43.65334507334046,226.87496837794606 43.463087450305466,225.4947085664462 44.48755157442065,225.44294858943613 47.912188789399806,224.47675924643409 49.024464124115184,223.7866203917074 50.853864345757756,223.23450714204228 53.21013183129253,226.8404620292422 52.91742779582273,227.30629710154608 51.62953003979055,227.18552517735225 50.25382107304176,228.18620405446563 48.160987219482195,228.49675828219915 46.93163027049741,229.08335905056447 45.36566368083004,229.29039409707184 44.41437556553865,229.68721051278408 43.79969709110446,229.4284173109627 43.448452248529065,228.4622522869613 42.89231458114227,228.04817975770857 42.89231458114227,227.7203715708165 43.65334507334046,226.70243655948434 43.448452248529065,225.5119618883473 45.058324443525635,225.30492190139194 47.868283184070606,224.4077454963408 50.53188990673516,223.1999999999971 50.94167555635795,223.3380285230378 53.19549662945792,226.8404620292422 52.975968602870125,227.2717908469058 51.73197645210894,227.18552517735225 49.931846634019166,228.3069752153824 48.468326456670184,228.41049327999644 44.48755157442065,229.65270477702143 43.872873099928256,229.48017598518345 43.47772265202366,228.4622522869613 42.89231458114227,228.01367366476916 43.63870987156406,226.73694293816516 43.463087450305466,225.4947085664462 44.99978363653645,225.30492190139194 47.751201569859404,224.4595058117702 48.73176008864539,223.85563441255363 50.56116031028796,223.1999999999971 50.89776995102875,223.3380285230378 53.18086142768152,226.8232088521181 52.96133340115193,227.25453771668253 51.62953003979055,227.16827203781577 50.20991546777077,228.20345708311652 48.146352017705794,228.49675828219915 46.66819663863862,229.13511783759168 45.45347489148844,229.2386353608017 44.51682197791524,229.66995764586318 43.828967494599055,229.41116441582562 43.463087450305466,228.4622522869613 42.877679379307665,228.03092671217746 42.86304417758947,227.73762465019536 43.448452248529065,227.16827203781577 42.76059776515467,227.80663694893883 43.404546643199865,228.56577025010483 43.69725067866966,229.35940571903484 44.326564354938455,229.73896910248732 47.97072959638899,228.6002762227581 50.15137466060696,228.34148124445346 51.55635403090855,227.2717908469058 52.858886988658924,227.2717908469058 53.23940223478712,226.87496837794606 50.79532353871036,223.1999999999971 48.93665291345678,223.7521133700502 47.780471973412205,224.49401267924986 46.74137264752062,224.5630263917992 45.146135654184036,225.218655160279 43.25819462543586,225.59822846968018 43.58016906451667,226.70243655948434 42.83377377403667,227.61685305499122 42.80450337048387,228.06543280140613 43.389911441423465,228.51401127695863 43.65334507334046,229.32489991177863 44.20948274078546,229.66995764586318 46.33158699789783,229.30764700536383 48.61467847449239,235.24253592570312 48.87811210635118,236.58820654910232 48.93665291345678,238.33066049554327 47.8975535875652,242.59182848779892 45.90716614644043,242.35030786087736 45.468110093148425,244.43772397233988 45.23394686484244,244.6274877092219" stroke="#4DD2FF" stroke-linecap="round" stroke-linejoin="round" stroke-width="0.5"><title>2025-04-29 10.1km</title><desc>1745929124000</desc></polyline><polyline fill="none" points="83.97030643076869,231.93969898984506 83.60673284420045,231.6320146969665 83.81182563665789,230.50016797344142 83.29909365560161,232.19243895702675 82.90755287010688,232.24738234440156 81.74225291324547,236.81856737435737 81.61173931811936,236.85153189893026 75.6733707380481,235.6757905320046 68.10358221840579,232.2693596909594 63.20000000001164,231.22543044216582 68.06629261974012,232.28034836244478 74.04195079841884,235.0824205282188 75.73862753564026,235.71974372678233 84.79999999998836,237.49983202656585 81.69564091501525,236.82955555040098 81.8914113077335,236.02741555432294 82.44143288733903,235.89555631455733 83.69063444109634,230.643023114455 83.93301683210302,230.55511228238902 83.60673284420045,231.4122396275634" stroke="#4DD2FF" stroke-linecap="round" stroke-linejoin="round" stroke-width="0.5"><title>2025-04-22 6.3km</title><desc>1745328842000</desc></polyline><polyline fill="none" points="96.86632714833831,244.16526559799968 97.22531592374435,244.00658160856983 97.97320920578204,241.55577579674718 99.88781600765651,241.8378848302964 100.8899930055486,238.1880612411187 100.72545648354571,234.50289015829912 98.64631315955194,229.40698904014425 98.60143956262618,228.52532896659977 99.72327948565362,227.60839739495714 102.08662225672742,227.2204632430221 103.79181893967325,226.10955575446133 104.9136588627589,226.21535679620865 105.37735269754194,225.80978576058988 104.37517569959164,224.24039261156577 103.02896779205184,224.9281060896028 101.95200146595016,223.6761127031641 100.8002458116971,223.20000000001164 98.64631315955194,223.37633820157498 97.18044232681859,224.02878787647933 95.20600406231824,224.36382857924036 95.5051613750984,225.59818307764363 94.63760516804177,226.85016159417864 95.28079339052783,227.3967970637168 95.60986643465003,228.31372983427718 96.28297038841993,228.66639490117086 98.73606035340345,228.08449712868605 100.15705758915283,227.46733053820208 102.02679079415975,227.2204632430221 103.56745095504448,226.18008979003935 104.9136588627589,226.19772329414263 105.36239483190002,225.77451866597403 104.39013356529176,224.24039261156577 103.04392565769376,224.89283880287257 101.95200146595016,223.65847892434977 100.8899930055486,223.21763382882637 98.57152383134235,223.37633820157498 97.21035805816064,224.01115413608204 95.5799507034244,224.25802632697742 95.35558271879563,224.43436337565072 95.47524564387277,225.6510837743117 94.63760516804177,226.76199441005883 95.250877659244,227.3967970637168 95.56499283772428,228.33136310584086 96.20818106026854,228.70166136554326 100.18697332055308,227.44969717250206 101.96695933165029,227.25573002255987 103.5824088207446,226.18008979003935 104.97349032521015,226.18008979003935 105.34743696631631,225.73925156370387 104.36021783400793,224.20512517493626 102.96913632948417,224.87520515658252 101.93704360036645,223.65847892434977 101.02461379626766,223.27053530367266 99.02025980054168,223.28816912477487 97.06077940174146,224.02878787647933 95.55003497202415,224.25802632697742 95.3406248530955,224.4167296794476 95.44532991264714,225.80978576058988 94.62264730239986,226.8148947262962 95.29575125616975,227.43206380485208 95.5949085689499,228.33136310584086 96.0885181351332,228.64876166608883 102.10158012242755,226.99122898887435 102.83451553870691,226.3916917121096 103.08879925456131,225.49238163244445 102.87938913569087,224.82230420624546 102.1464537192951,223.9229854052246 100.99469806504203,223.23526765572024 99.00530193489976,223.30580294399988 97.00094793911558,224.08168908621883 95.32566698745359,224.36382857924036 95.5051613750984,225.56291593691276 94.63760516804177,226.77962785070122 95.37054058437934,227.67893077724148 95.0863411372411,228.2255634474277 95.83423441922059,229.75965172472934 96.41759117919719,232.33406604183256 96.6718748951098,235.22582507217885 96.61204343248392,237.1301259756001 95.14617259980878,244.3063179023884 96.20818106026854,244.8000000000029" stroke="#4DD2FF" stroke-linecap="round" stroke-linejoin="round" stroke-width="0.5"><title>2025-04-15 8.8km</title><desc>1744723077000</desc></polyline><polyline fill="none" points="136.65805038344115,231.69244046576205 136.03110624314286,231.6506097678066 136.49244249728508,230.29807650099974 135.94830230018124,232.55693849694217 136.07842278206954,232.90552476116864 135.3568455640925,235.30377253088227 134.65892661560792,235.3177157004975 134.67075575026684,235.90332745386695 133.8663745893282,238.51066155759327 126.02365826943424,236.94905606527755 117.03351588163059,232.7800338153902 115.20000000001164,232.25018179924518 117.1636363636353,232.87763789495511 126.01182913471712,236.9629990557587 133.89003285876242,238.4967187356815 134.15027382259723,237.4510027649958 134.74173055862775,237.3812880632613 135.25038335158024,235.90332745386695 136.79999999998836,229.48933844239218 136.38598028483102,231.79004537456785" stroke="#4DD2FF" stroke-linecap="round" stroke-linejoin="round" stroke-width="0.5"><title>2025-04-11 5.1km</title><desc>1744377642000</desc></polyline><polyline fill="none" points="147.41542535333429,244.8000000000029 148.14597545959987,243.99158992763842 148.33979487553006,244.58911080635153 149.07034498191206,243.99158992763842 149.89035020314623,241.51361207893933 151.8136351769208,241.95297262916574 152.156546451326,241.8299517957057 153.05109760188498,237.98110977458418 153.11073434533319,235.87211630263482 152.738004699233,233.99157387172454 150.59108193783322,229.31648555024003 150.53144519450143,228.5255737506377 151.5750882034772,227.64677831402514 153.97546712413896,227.26010680521722 155.64529593859334,226.11766284168698 156.73366650514072,226.22311954648467 157.2853063813527,225.7661399942299 156.10748069966212,223.92063247709302 154.87001827469794,224.64126173460681 153.40891806216678,223.41091715582297 152.096909707936,223.34061146785098 151.3961779733654,223.6745632127131 149.97980531823123,225.22127806684875 147.95215604361147,225.52007354523812 146.7743303620955,226.53948924735596 146.7146936186473,226.8734343695687 147.32597023824928,227.38313874945743 147.57942639756948,228.20920794493577 148.25033976050327,228.59587717869726 154.13946816849057,226.94373851768614 154.94456420402275,226.17039120270056 155.03401931899134,225.30915914734942 154.15437735425076,223.93820883872104 152.738004699233,223.1999999999971 150.8296289112768,223.3054586123908 148.96598068095045,224.02609061828116 147.35578860988608,224.30731199117145 147.48997128248448,225.5376497326506 146.7146936186473,226.48676100697776 146.7146936186473,226.82070623831532 147.32597023824928,227.33041078486713 147.96706522948807,228.57830132450908 148.62306940654526,228.59587717869726 149.50271137134405,228.13890434833593 150.30780740687624,228.20920794493577 152.66345876996638,234.448530123409 152.94673330098158,236.08301689049404 152.85727818595478,237.77021166803024 152.0223637787276,241.33786752387823 150.09907880501123,241.03910134086618 149.33871032705065,243.3589183500735" stroke="#4DD2FF" stroke-linecap="round" stroke-linejoin="round" stroke-width="0.5"><title>2025-04-08 5.6km</title><desc>1744119870000</desc></polyline><polyline fill="none" points="174.95072883251123,242.97823507340217 175.53552056325134,242.1247880725423 175.98107616760535,240.22092734389298 177.83291664824355,240.56559356940852 178.82149314548587,236.75780865334673 178.86326398339588,235.21497185356566 178.59871534327976,233.70494607041474 176.70510402473155,229.01063882638118 176.70510402473155,228.1078706636181 177.74937497253995,227.33640994684538 179.93538215645822,227.00812759248947 181.3834378705942,226.02327623713063 182.63656300783623,226.02327623713063 182.9707297111745,225.59650531697844 181.87076431291644,223.85658059100388 180.52017388714012,224.38184300335706 179.23920152458595,223.314901810023 177.1785068543977,223.26565818791278 175.27097192313522,223.97148190024018 173.68368008261314,224.2669420071761 173.76722175843315,225.59650531697844 173.0292702887673,226.48287433756923 173.57229118153919,227.10661237392924 173.89253427216318,228.0258005624055 174.75579825561726,228.32125271759287 175.52159695059527,227.9109023455385 176.8164929258055,227.76317593800195 178.0835416757036,227.20509709096223 180.01892383227823,226.92605689213087 181.4809031590703,225.9576192512177 181.25812535686418,226.40080335106177 181.62013928539818,225.85913371863717 182.6922574584023,225.94120500028657 182.9289588732645,225.53084814499016 182.0656948898104,224.13562647564686 180.84041697782231,224.77578861064103 179.86576409317786,223.64319221285405 178.83541675814195,223.1999999999971 177.08104156592162,223.24924364361505 175.3684372116113,223.93865296369768 173.72545092052314,224.20128425570147 173.71152730786707,225.662162460314 173.0710411266191,226.31873231983627 173.0292702887673,226.64701617648825 173.58621479413705,227.13944062008522 173.73937453317922,227.82883213702007 174.49124961555935,228.30483872420155 175.47982611274347,227.89448830740002 176.76079847529763,227.76317593800195 177.93038193671964,227.23792531562503 179.04427094769198,227.0901982481737 179.169583461422,228.0258005624055 182.0239240519004,233.81983986847627 179.11388901079772,234.83746682658966 178.9468056592159,237.4143301594013 178.23670141468756,240.18810194797697 177.87468748621177,240.46711758546007 176.87218737637158,244.8000000000029 173.0292702887673,243.81526493676938 173.6140620194492,241.30416139782756 173.80899259634316,241.20568589650793 173.4748258930049,242.81411102552374" stroke="#4DD2FF" stroke-linecap="round" stroke-linejoin="round" stroke-width="0.5"><title>2025-04-02 6.9km</title><desc>1743601029000</desc></polyline><polyline fill="none" points="18.60425100068096,268.8000000000029 19.120830266794655,268.33435828704387 19.834925134666264,265.7733052944386 22.220305863476824,266.34641152650875 23.2078838723246,261.8152358399093 22.904013715684414,258.4660257208452 20.57940701820189,253.16446273543988 20.564213510311674,252.6808657108195 21.02001874515554,252.03606746495643 21.82527465990279,251.64202284744533 24.408170990587678,251.1763325362117 25.608458108908962,250.20912536676042 26.07945685152663,250.13748016483441 26.094650359416846,249.49267194245476 25.486910046311095,248.25678244620212 25.00071779580321,248.29260546097066 24.529719053185545,247.75525942050444 24.134687849669717,247.84481721588236 23.253464395704214,247.30746971162444 22.311466910410672,247.23582324499148 21.339082409569528,247.57614368335635 20.032440736424178,249.18817829154432 18.057284718961455,249.47476056682353 16.58351445972221,250.65690717114194 17.464737913629506,252.3047337080934 18.467509430192877,252.71668776145088 21.94682272261707,251.5524671207968 24.195461881055962,251.23006610103766 25.912328265432734,250.0479236185056 27.05184135248419,250.1912140691711 27.446872556000017,249.7613423424773 26.216198421956506,247.91646341707383 24.863976225373335,248.65083517871972 24.04352680267766,247.70152471985784 22.97998125484446,247.1999999999971 20.98963172954973,247.28955809788022 19.181604298064485,248.0418441940128 17.252028804039583,248.36425146693364 17.373576866695657,249.77925368683646 16.553127443999983,250.83601955143968 17.22164178843377,251.46291134545754 17.525511944957543,252.35846690407197 18.42192890669685,252.73459878379072 19.348732884216588,252.2689115677058 20.229956338123884,252.21517834252154 21.26311487040948,255.1346581315156 22.068370785214938,255.83317628396617 24.72723465488525,255.27794414834352 26.398520515940618,258.78841255028965 23.177496856544167,259.88094099299633 23.01036827045027,262.62118530970474 22.67611109832069,263.03311351308366 21.82527465990279,266.05985866018455 21.6429525660933,266.203135155738 19.834925134666264,265.88076286511205 19.27276534505654,268.0298995310004" stroke="#4DD2FF" stroke-linecap="round" stroke-linejoin="round" stroke-width="0.5"><title>2025-03-25 6.1km</title><desc>1742909450000</desc></polyline></svg>