<?xml version="1.0" encoding="utf-8" ?>
<svg baseProfile="full" height="300mm" version="1.1" viewBox="0,0,200,300" width="200mm" xmlns="http://www.w3.org/2000/svg" xmlns:ev="http://www.w3.org/2001/xml-events" xmlns:xlink="http://www.w3.org/1999/xlink"><defs /><rect fill="#222222" height="300" width="200" x="0" y="0" /><text fill="#FFFFFF" style="font-size:12px; font-family:Arial; font-weight:bold;" x="10" y="20">Over 5km Runs</text><text fill="#FFFFFF" style="font-size:4px; font-family:Arial" x="10" y="280">Runner</text><text fill="#FFFFFF" style="font-size:9px; font-family:Arial" x="10" y="290">Elliont</text><text fill="#FFFFFF" style="font-size:4px; font-family:Arial" x="65" y="280">SPECIAL TRACKS</text><rect fill="yellow" height="2.6" width="2.6" x="65" y="283" /><text fill="#FFFFFF" style="font-size:3px; font-family:Arial" x="70" y="285.5">Over 20.0 km</text><rect fill="red" height="2.6" width="2.6" x="65" y="287" /><text fill="#FFFFFF" style="font-size:3px; font-family:Arial" x="70" y="289.5">Over 40.0 km</text><text fill="#FFFFFF" style="font-size:4px; font-family:Arial" x="120" y="280">STATISTICS</text><text fill="#FFFFFF" style="font-size:3px; font-family:Arial" x="120" y="285">Number: 51</text><text fill="#FFFFFF" style="font-size:3px; font-family:Arial" x="120" y="290">Weekly: 2.1</text><text fill="#FFFFFF" style="font-size:3px; font-family:Arial" x="141" y="285">Total: 339.6 km</text><text fill="#FFFFFF" style="font-size:3px; font-family:Arial" x="141" y="290">Avg: 6.7 km</text><text fill="#FFFFFF" style="font-size:3px; font-family:Arial" x="167" y="285">Min: 5.0 km</text><text fill="#FFFFFF" style="font-size:3px; font-family:Arial" x="167" y="290">Max: 10.1 km</text><polyline fill="none" points="35.333333333343035,47.460783730966796 30.776626528502675,46.53393656929984 25.695696816954296,44.18111765726644 24.87575842437218,43.927610741164244 16.689816111291293,42.35109477370861 15.352375618444057,42.3114833796717 13.84019415662624,42.43823976463318 13.10762624850031,42.32732793986361 12.092784467502497,41.57470751805522 11.736581723147538,41.03598495985352 11.380378978821682,40.132823482883396 11.407262204826111,39.792154398521234 12.079342854500283,39.205882935697446 11.413983011327218,39.752541610716435 11.333333333343035,39.998140547242656 12.04573882202385,41.582629878837906 12.415383179322816,41.95497986248665 13.047138990019448,42.30356109825516 13.826752543653129,42.46992882638733 15.816111266671214,42.31940566018602 16.703257724293508,42.366939325285784 24.425464389059925,43.86423387404648 25.682255203981185,44.196961810215726 30.763184915529564,46.57354566393769 32.49043218517909,46.93002654493466" stroke="#4DD2FF" stroke-linecap="round" stroke-linejoin="round" stroke-width="0.5"><title>2025-09-25 7.3km</title><desc>1758798919000</desc></polyline><polyline fill="none" points="66.0,44.48507578361023 65.54850088185049,46.073303010707605 60.92768959439127,45.17525188338914 55.53791887126863,42.688925604961696 54.18342151676188,42.273144077953475 45.858906525565544,40.68483779878443 44.43386243385612,40.65989031616482 42.924162257491844,40.80125927656627 42.0,40.59336365596391 42.79012345679803,40.834522523327905 44.58906525571365,40.70146944934095 46.09171075836639,40.77631183199264 54.536155202862574,42.372931850957684 55.29805996475625,42.60576948070957 60.85714285715949,45.183567220046825 64.92768959439127,45.981835323436826" stroke="#4DD2FF" stroke-linecap="round" stroke-linejoin="round" stroke-width="0.5"><title>2025-09-23 6.7km</title><desc>1758623965000</desc></polyline><polyline fill="none" points="96.66666666665697,46.14652826832025 91.78203938546358,45.192782815407554 86.22930198986433,42.637739206555125 84.98958655531169,42.243975259894796 76.11856892463402,40.520141486034845 74.73038457569783,40.476388878480066 72.66666666665697,40.616397138815955 75.88101866169018,40.520141486034845 84.73718940097024,42.20897392681218 86.0956799669948,42.58523745850107 91.88596762550878,45.24528285954875 96.66666666665697,46.19027778819145" stroke="#4DD2FF" stroke-linecap="round" stroke-linejoin="round" stroke-width="0.5"><title>2025-09-22 6.4km</title><desc>1758538508000</desc></polyline><polyline fill="none" points="126.31725616293261,53.95448846195359 122.1371918542718,53.12826712166134 117.21114683817723,50.8921143020998 116.26580921761342,50.58132127454155 108.65809217581409,49.09555981999438 107.17899249735638,49.027335318045516 105.69346195072285,49.156203765567625 105.06966773851309,49.042496324262174 104.46516613080166,48.72411450018262 104.0150053590769,48.307183718439774 103.33333333334303,46.7304047210273 103.44908896039124,46.54088560944365 106.22722400858765,44.31968314646656 108.00857449090108,42.371334556919464 109.94426580923027,40.657955692047835 112.27224008578924,39.14923759613157 113.15969989282894,39.027932207529375 113.50053590573953,38.762575932531036 114.22079314044095,37.89826561922382 114.838156484504,36.51837952796632 115.51339764206205,35.89666366309393 118.40728831727756,34.29685704969597 122.06002143627848,32.71217820471065 122.06645230439608,33.189860318161664 122.57449088961584,33.57655295956647 123.06323687033728,34.44091697262047 123.30760986066889,35.146048080408946 124.90889603429241,38.247023704621824 124.94748124331818,38.49721864533785 125.86709539123694,40.02111385315948 127.33333333334303,43.30381948284776" stroke="#4DD2FF" stroke-linecap="round" stroke-linejoin="round" stroke-width="0.5"><title>2025-09-21 9.0km</title><desc>1758451095000</desc></polyline><polyline fill="none" points="156.61682242990355,52.276007851876784 156.30529595015105,53.59791129756195 156.19314641747042,53.62728663539019 152.10591900310828,52.82680410330795 147.2585669781838,50.601559620015905 146.4548286604113,50.359201826082426 139.08411214951775,48.92706980667572 135.82554517130484,48.92706980667572 135.2461059189809,48.68470599393186 134.67289719625842,48.17794247940765 134.3613707164768,47.685864117484016 134.0,46.635595302286674 134.5046728971647,46.099437780998414 136.84735202489537,44.25590472648764 138.72897196258418,42.22869464374526 140.2866043613467,40.86984216298879 142.75389408099,39.25387382437475 143.48286604360328,39.18041979752161 143.80062305292813,38.967402666952694 144.54828660434578,38.078599788401334 145.14018691587262,36.74170065706858 145.8193146417325,36.132007083484496 148.76012461059145,34.51592514105869 152.1308411215141,33.03938003127405 152.1433021806879,33.55360339296021 152.64174454830936,33.88417348191433 152.9470404984604,34.45715779470629 153.83800623053685,36.44052741251653 155.88785046729026,40.31894821822061 157.60124610591447,44.21918044833728 157.93146417447133,45.497173562602256 158.0,46.34181088718469 157.87538940808736,47.63445273814432 157.52647975078435,48.87565937374893" stroke="#4DD2FF" stroke-linecap="round" stroke-linejoin="round" stroke-width="0.5"><title>2025-09-18 10.1km</title><desc>1758194958000</desc></polyline><polyline fill="none" points="179.8715817371558,44.68290535941924 179.80219250693335,44.87715187807771 180.3312853873067,45.03050410888682 188.66666666665697,46.65602235569531 173.279604866897,43.5992068795822 166.77436453438713,40.572963748840266 164.66666666665697,40.010644310976204 166.73099626551266,40.60363562130078 173.38368871220155,43.64010138896265 178.45777617156273,44.66245833407447" stroke="#4DD2FF" stroke-linecap="round" stroke-linejoin="round" stroke-width="0.5"><title>2025-09-16 5.4km</title><desc>1758020593000</desc></polyline><polyline fill="none" points="35.326007326017134,72.78058591976878 30.446886446909048,71.80481888265058 24.842490842507686,69.22286410807283 23.714285714289872,68.90335215274536 14.798534798552282,67.19350953654066 11.333333333343035,67.26259480156295 11.787545787577983,67.34031565272016 13.670329670334468,67.18487387416826 14.959706959722098,67.22805217655696 23.9853479853482,68.96380045926344 24.937728937744396,69.29194760477549 30.505494505516253,71.84799466916593 35.333333333343035,72.81512612582446" stroke="#4DD2FF" stroke-linecap="round" stroke-linejoin="round" stroke-width="0.5"><title>2025-09-15 6.5km</title><desc>1757932870000</desc></polyline><polyline fill="none" points="66.0,80.83944193231582 61.572228443430504,79.95245331471233 56.33818589022849,77.55277809563268 55.65285554309958,77.33894180769857 47.2609182530432,75.70742942717334 45.99104143335717,75.67574921280902 44.506159014534205,75.81039002854232 43.854423292243155,75.71534947862528 43.14221724521485,75.34310612858826 42.752519596833736,74.97086087284697 42.3695408734784,74.33724754417926 42.047032474773005,73.51354196194734 42.0,73.26801253106532 42.11422172450693,73.10960600658291 44.956326987652574,70.78099026833661 46.85106382975937,68.72160807779437 48.839865621499484,66.96316633940296 51.39977603580337,65.323499906277 52.23292273233528,65.220524451448 52.60246360578458,64.95912456468068 53.30123180290684,64.18284057165147 53.97312430010061,62.6619336114818 54.67189249716466,61.980683714667975 57.856662933918415,60.23792235666042 60.221724524046294,59.1605580676769" stroke="#4DD2FF" stroke-linecap="round" stroke-linejoin="round" stroke-width="0.5"><title>2025-09-13 7.0km</title><desc>1757768754000</desc></polyline><polyline fill="none" points="96.66666666665697,72.92395019804098 91.36115639604395,71.88168917612347 85.52353005105397,69.18835351079179 84.56885121180676,68.87474036595813 74.98293663733057,67.01148538175039 72.66666666665697,67.02070951731002 75.10814041955746,67.0852784380113 84.28714270191267,68.85629249775957 85.40615150530357,69.18835351079179 91.40810781434993,71.93703079175611 96.63536572110024,72.98851461824961" stroke="#4DD2FF" stroke-linecap="round" stroke-linejoin="round" stroke-width="0.5"><title>2025-09-11 6.0km</title><desc>1757587445000</desc></polyline><polyline fill="none" points="125.04037844229606,80.05590493766067 120.95928366278531,79.25298432889394 116.43419496534625,77.15244034146599 115.39415441799792,76.84416374033754 108.19293799629668,75.45331647229614 106.94002365265624,75.41030010885879 105.52897448893054,75.5250103488579 104.82953201557393,75.39596131481812 103.96587261362583,74.72203447053471 103.60702821423183,74.08394843902352 103.33333333334303,73.18774974661937 106.01554316608235,70.95795444479154 106.83662780874874,70.17643274483271 107.7976009461272,69.04356829785684 109.5674945092178,67.48764040198876 110.875147829036,66.72041817220452 111.75705355635728,66.06791372224689 112.5416455482482,65.93884614136914 112.89440783916507,65.73090339522605 113.59385031255079,64.92780799824686 114.18989694205811,63.565391599848226 114.85892887311638,62.97739264885604 117.60804189898772,61.45000496353896 121.02618685591733,59.94409506233933 121.0201047474111,60.453239886388474 121.52491974996519,60.761593286297284 121.87159993243404,61.392637598917645 122.54671397196944,62.97022189751442 125.24717013008194,68.19749225456326 125.39314073321293,68.69940308434889 125.5756039871485,68.90016634431231 126.37236019596457,70.85040613774618 126.57306977527332,71.62475002557767 126.86501098156441,71.70361787325237 126.95016050006961,73.1088836774943 126.63389085992821,75.20238728931145 126.87109309004154,75.37445311785996 127.32116911638877,75.46048586345569 127.33333333334303,75.5895347710175" stroke="#4DD2FF" stroke-linecap="round" stroke-linejoin="round" stroke-width="0.5"><title>2025-09-09 10.0km</title><desc>1757415422000</desc></polyline><polyline fill="none" points="157.966942148807,73.15625941079634 152.2644628099515,71.99704937848583 146.20661157020368,69.1817624686737 145.09917355375364,68.83106308295828 135.0082644628128,66.86322435741022 134.0,66.84374058921094 137.18181818179437,67.28212434712623 145.2727272727061,68.89925473788026 152.55371900825412,72.10420387715567 158.0,73.15625941079634" stroke="#4DD2FF" stroke-linecap="round" stroke-linejoin="round" stroke-width="0.5"><title>2025-09-08 5.7km</title><desc>1757333196000</desc></polyline><polyline fill="none" points="188.66666666665697,73.10021389350004 183.28310502282693,72.08298651617224 177.00365296803648,69.18624673647719 176.0913242009119,68.87622217531316 166.21187214611564,66.94823268154141 164.66666666665697,66.84165917909559 165.83378995431121,66.91916719353321 175.85296803654637,68.85684560436493 177.10228310499224,69.2637527079205 183.21735159814125,72.09267445081059 188.59269406390376,73.15834082090441" stroke="#4DD2FF" stroke-linecap="round" stroke-linejoin="round" stroke-width="0.5"><title>2025-09-04 5.8km</title><desc>1756983645000</desc></polyline><polyline fill="none" points="35.333333333343035,99.463310474428 30.60977564100176,98.51979006047623 24.963141025655204,95.94417627344956 21.90544871793827,95.23012968056719 15.24198717949912,93.9635309617006 13.87900641025044,93.93802876297559 12.22756410256261,94.07404039327957 11.333333333343035,93.87002285890776 11.744391025655204,94.05703895244369 12.314102564094355,94.13354540698492 13.87900641025044,93.98053242289461 15.328525641059969,94.02303605967609 24.37179487181129,95.7826663063097 25.338141025655204,96.13118739684433 30.624198717967374,98.57929168477858 33.5881410256261,99.11480426246271" stroke="#4DD2FF" stroke-linecap="round" stroke-linejoin="round" stroke-width="0.5"><title>2025-09-02 6.2km</title><desc>1756809719000</desc></polyline><polyline fill="none" points="66.0,99.77566786511306 60.583592938724905,98.71814936970623 53.26479750778526,95.47697353920375 43.354101765318774,93.55767234695668 42.0,93.45974771815236 43.30425752856536,93.57725725994533 52.75804776739096,95.40842777360376 54.03738317757961,95.790324945061 60.716510903439485,98.84544392114185 65.99169262719806,99.87358561517613" stroke="#4DD2FF" stroke-linecap="round" stroke-linejoin="round" stroke-width="0.5"><title>2025-08-29 5.7km</title><desc>1756465472000</desc></polyline><polyline fill="none" points="96.66666666665697,99.6567591936182 91.4667983755935,98.63214680185047 85.32652837233036,95.81905694387387 84.37032158928923,95.53029082808644 74.7292284052528,93.65794493709836 72.66666666665697,93.65794493709836 74.83196136541665,93.74178219694295 84.63110525740194,95.63275633562444 91.3482603446464,98.64146151523164 96.5402261003328,99.67538839624467" stroke="#4DD2FF" stroke-linecap="round" stroke-linejoin="round" stroke-width="0.5"><title>2025-08-27 6.0km</title><desc>1756291993000</desc></polyline><polyline fill="none" points="126.24930809257785,99.66848775887047 122.20812576109893,98.92627664133761 120.45455551866326,98.4753098058427 114.92283848114312,95.88220475221897 113.78301782350172,95.51578144836822 104.79198494408047,93.75880705937743 103.33333333334303,93.59908034036198 105.73253625596408,93.94672046778578 113.76707627586438,95.52517693716072 114.74748145687045,95.83522749254189 120.00022141035879,98.33438218628726 121.31539909221465,98.79474489116546 126.24133731870097,99.73425299297378 126.43263589061098,99.00143755137833 127.33333333334303,99.15175917508896 126.88696999891545,99.04841308694449 126.91885309419013,98.82293028307322" stroke="#4DD2FF" stroke-linecap="round" stroke-linejoin="round" stroke-width="0.5"><title>2025-08-26 6.0km</title><desc>1756205162000</desc></polyline><polyline fill="none" points="158.0,101.14851687071496 153.41994970661472,100.24745418444218 148.4375523889612,97.95522674965468 147.4048616932123,97.63114737435535 139.17015926237218,96.04234705892304 136.42078792958637,96.16091544771189 135.68985750208958,95.99491964915796 134.98575020956923,95.56807156651485 134.62363788767834,95.13331630880566 134.02682313494734,93.64722412288393 134.46269907793612,93.16502809726808 135.68315171837457,92.1848164626208 134.23470243084012,93.33893523002189 134.0,93.6630337743918 134.38222967312322,94.76179611554835 134.69740150880534,95.28350478321954 135.80385582565214,96.06606075215677 136.49455155071337,96.20834274896333 137.9966471081425,96.07396531487029 139.23721709972597,96.09767899779399 147.53227158423397,97.69438248805818 148.4442581726762,98.00265287830553 153.3394803017727,100.24745418444218" stroke="#4DD2FF" stroke-linecap="round" stroke-linejoin="round" stroke-width="0.5"><title>2025-08-23 7.3km</title><desc>1755948655000</desc></polyline><polyline fill="none" points="188.66666666668607,98.74066884423519 188.3035945177544,99.99160055462562 182.16860615467886,98.78456144784286 174.65580553404288,95.36088094572915 167.34781484358246,93.78068147472368 164.66666666668607,93.34173277870286 174.18101887771627,95.26211920491914 181.89862942852778,98.74066884423519 186.9164727178868,99.7611669327598" stroke="#4DD2FF" stroke-linecap="round" stroke-linejoin="round" stroke-width="0.5"><title>2025-08-19 5.0km</title><desc>1755607675000</desc></polyline><polyline fill="none" points="34.641841080010636,129.58133144514431 30.284135181689635,128.72013990202686 25.228413518168963,126.38256704851665 24.373833469260717,126.13650224594312 16.395578508643666,124.60626750437223 13.414333605149295,124.69085421040654 12.429283319768729,124.22947094620758 11.750838090083562,123.40666330792737 11.372474404313834,122.17627885333786 14.197155024041422,119.87694041685609 16.858747848164057,117.08533522151993 16.07592642927193,117.78516948388278 14.27543716589571,119.73851631466823 11.333333333343035,122.18396882278466 11.47685059349169,122.76840404899121 12.024825586704537,123.83729280077387 12.487994926195825,124.267919666745 13.290386880515143,124.660095419953 13.733985684550134,124.72930267964693 15.273534474981716,124.59088809238165 16.558666304306826,124.60626750437223 19.794328168936772,125.22144123652834 20.074839177337708,125.12147586984065 21.359971006633714,125.35985458752111 21.74485820424161,125.52902609242301 23.69538823957555,125.82123046428023 24.954426021577092,126.228776647411 25.606777203967795,126.21339758887189 25.593730180320563,126.3902565597964 26.01123493706109,126.37487753640744 25.69810636949842,126.58249406916002 26.174322732636938,126.87469408089237 29.997100661421428,128.5971116812725 30.727733985695522,128.80472167945845 30.95605689950753,128.6970721269754 32.202047657890944,128.78934318199754 32.202047657890944,129.0815340607951 34.31566548885894,129.50443977012037 34.6875056627905,129.5428856180879 34.791881851968355,129.01233106719883 35.14415149044362,128.95081723816838 35.333333333343035,128.31260809968808" stroke="#4DD2FF" stroke-linecap="round" stroke-linejoin="round" stroke-width="0.5"><title>2025-08-16 10.0km</title><desc>1755297330000</desc></polyline><polyline fill="none" points="56.443349753681105,122.49726038291556 56.00985221675364,124.70368727054301 66.0,126.66620756118209 49.428571428579744,123.3798366164192 42.0,120.00045910548943 49.20197044336237,123.36822381867387 55.45812807884067,124.62239866889286" stroke="#4DD2FF" stroke-linecap="round" stroke-linejoin="round" stroke-width="0.5"><title>2025-08-13 5.0km</title><desc>1755095249000</desc></polyline><polyline fill="none" points="96.53228816724732,127.80021298132488 92.13139231057721,126.92114289978053 87.12579320641817,124.61650331909914 86.19186263531446,124.3155484287563 77.96789846959291,122.73155479114939 75.05188503174577,122.82659538248117 74.4068682344514,122.69195450809639 73.7416946621961,122.29595049130876 73.39231056367862,121.94746517243766 73.06980216500233,121.40889366708143 72.68682344158879,120.33173868797894 73.5199701381498,119.50802117127023 74.48749533409136,118.77141971838864 73.75513251216034,119.28624947605567 72.66666666665697,120.33965900342446 73.37887271371437,121.95538531188504 73.9365434864012,122.4781126069065 74.40014930948382,122.71571468051116 75.05188503174577,122.85827555198921 77.33631952220458,122.72363473625592 78.16274729376892,122.7790751023349 86.57484135872801,124.46602602961502 92.00373273610603,126.92114289978053 96.66666666665697,127.8952469482756" stroke="#4DD2FF" stroke-linecap="round" stroke-linejoin="round" stroke-width="0.5"><title>2025-08-12 8.1km</title><desc>1754996616000</desc></polyline><polyline fill="none" points="127.33333333334303,126.11688367096212 122.49409627608838,125.1490929311476 117.02997275203234,122.63106829932804 116.12897366032121,122.33129809160891 110.9918256130768,121.25211588175443 107.1189827429771,120.58404328202596 105.75295186197036,120.54978299570212 104.02361489555915,120.69538910947449 103.33333333334303,120.5754782118529 103.96548592191539,120.69538910947449 105.6802906449011,120.56691314071941 107.13351498640259,120.59260835128953 116.0490463215101,122.33986297054798 117.0881017257052,122.7081518823179 122.26884650316788,125.09770547923836 126.91916439597844,126.05693237823289" stroke="#4DD2FF" stroke-linecap="round" stroke-linejoin="round" stroke-width="0.5"><title>2025-08-10 6.4km</title><desc>1754781124000</desc></polyline><polyline fill="none" points="155.6200354161556,133.37500820780406 151.62509486466297,132.57350959101313 147.0958765494579,130.48384222754976 146.23374652164057,130.19758124900545 138.77207184417057,128.73763085859537 138.10422463953728,128.69469065015437 136.01568429041072,128.8163545012285 135.56033392361132,128.70900405609427 134.92284341008053,128.34401123059797 134.47963571970467,127.84303738435119 134.0607133822341,126.86254894520243 134.0,126.49038891818054 136.65317480397061,124.3146419538898 138.48671894764993,122.3392303227156 140.21705034154002,120.82900237612193 142.39666076400317,119.40463235162315 142.63951429296867,119.29010879695852 143.25271945359418,119.26863560821948 143.48950164433336,119.11116534301254 144.15734884896665,118.37391317046422 144.843410068308,116.89938399656239 145.46268656718894,116.31242627822212 148.23728813559865,114.81637617199885 151.6675942322181,113.29165845886018 151.6675942322181,113.81421828237944 152.2747280546464,114.20792499160598 152.4568682013778,114.43698962709459 152.55400961296982,114.80921795557515 154.69719200607506,118.62443668167543 155.57753604857135,120.55701450619381 156.13002782699186,121.32287220798753 156.13609916521818,121.54475454672502 156.38502403241,121.92410003489204 156.83430306098307,123.23389874728309 157.1803693397378,123.84942354785017 157.47179357451387,125.1233984175633 157.56893498607678,126.41166248846275 157.2957247660088,128.2581302710896 157.36858082472463,128.3654814529218 158.0,128.5587131382199 157.92714394131326,129.13124812849856" stroke="#4DD2FF" stroke-linecap="round" stroke-linejoin="round" stroke-width="0.5"><title>2025-08-08 10.0km</title><desc>1754654808000</desc></polyline><polyline fill="none" points="188.66666666668607,126.69339413163107 182.26350461138645,125.3851853051965 174.92121212126222,121.99718239978392 167.34176548093092,120.36463943281706 164.66666666668607,119.97327253503317 174.75046113313874,121.99718239978392 182.45322793151718,125.49699867687013 188.50540184456622,126.65985052377073" stroke="#4DD2FF" stroke-linecap="round" stroke-linejoin="round" stroke-width="0.5"><title>2025-08-07 5.0km</title><desc>1754573743000</desc></polyline><polyline fill="none" points="35.33333333331393,153.3720225925499 28.98872279044008,152.10337481449824 21.737739312869962,148.77588168843795 20.81248360866448,148.49765829085663 11.33333333331393,146.6279774074501 13.854183057905175,147.16217543664243 14.061893522099126,147.0731426257189 14.618935221573338,147.30685358891787 21.218463152297772,148.65346348685125 29.07369525305694,152.19240324261045 34.90847102011321,153.3608941717248" stroke="#4DD2FF" stroke-linecap="round" stroke-linejoin="round" stroke-width="0.5"><title>2025-08-04 5.0km</title><desc>1754309955000</desc></polyline><polyline fill="none" points="66.0,152.79290627380396 61.20291173795704,151.8319344715128 55.67060964513803,149.29216685529536 54.84076433122391,149.01759247901646 46.06187443132512,147.28431964103947 44.51865332122543,147.20709372618876 42.64058234760887,147.35296483512502 42.0,147.215674387131 42.13830755237723,147.3186422455692 43.01910828027758,147.37870676750026 45.55959963606438,147.24141636436252 49.046405823522946,147.9278659873671 49.60691537766252,147.93644656980905 50.57506824386655,148.22818581654428 54.74613284805673,149.02617294277297 55.903548680624226,149.4380341034339 61.11555959965335,151.82335431336105 65.50500454960275,152.70710569656512" stroke="#4DD2FF" stroke-linecap="round" stroke-linejoin="round" stroke-width="0.5"><title>2025-08-03 6.5km</title><desc>1754227262000</desc></polyline><polyline fill="none" points="93.88681740051834,152.81098562095576 87.5179161708802,151.54299123066448 79.49252941954182,147.97456928804604 72.66666666668607,146.58307566694566 80.08277138706762,148.13167222587072 87.76543699594913,151.64398250620434 96.66666666668607,153.41692433304706 94.08673806692241,152.83342785901186 94.08673806692241,152.66511095443275" stroke="#4DD2FF" stroke-linecap="round" stroke-linejoin="round" stroke-width="0.5"><title>2025-08-01 5.0km</title><desc>1754057984000</desc></polyline><polyline fill="none" points="125.03720577069907,160.01811106073 120.94305239181267,159.20904673227778 116.43583902809769,157.13264138634258 115.47000759301591,156.8247550106098 108.18071374334977,155.41418736448395 106.8504176158167,155.3712254383645 105.52619589978713,155.48579051227716 104.8944570994936,155.3712254383645 104.37205770690343,155.07765152508364 103.9893697797961,154.7124723885354 103.5520121488371,153.88186130738904 103.33333333334303,153.15864828370832 106.01214882309432,150.93883584245486 107.87091875475016,148.9552625880242 109.57175398635445,147.46575306142768 110.85345482156845,146.72814690308587 111.85573272590409,145.99053246541007 112.56643887623795,145.91891897226014 112.82156416098587,145.76136901260907 113.59908883829485,144.86619161674025 114.20652999239974,143.5198218489968 114.80182232346851,142.98269855180843 117.64464692486217,141.42143523709092 120.97342444950482,139.98188893926272 121.02809415338561,140.44741731230897 121.5140470766928,140.78402808096143 122.01822323462693,141.68642290913704 122.32801822322654,142.5529967526163 123.0933940774703,144.13571782580402 125.08580106304726,147.8667781781478 125.3530751708604,148.66882107016863 126.14274867123459,150.32300362271053 126.67729688686086,152.1633222991004 126.71374335611472,153.30901996367902 126.640850417607,153.72433043552883 126.82915717540891,153.86037984710129 126.65299924070132,154.9416046329061 127.33333333334303,155.19937745310745 127.30903568715439,155.55023327862727" stroke="#4DD2FF" stroke-linecap="round" stroke-linejoin="round" stroke-width="0.5"><title>2025-07-28 10.0km</title><desc>1753704756000</desc></polyline><polyline fill="none" points="155.64346076460788,152.9427780228507 149.26921529177343,151.66779853304615 141.96780684107216,148.3209033808962 140.77987927565118,147.92245634338906 134.0,146.5677250542285 141.52354124747217,148.1842931391584 147.8108651911607,151.14414173750265 149.44305835012347,151.75886901233025 158.0,153.4322749457715 155.7400402414496,152.920010668342 155.85593561368296,152.18006894691644" stroke="#4DD2FF" stroke-linecap="round" stroke-linejoin="round" stroke-width="0.5"><title>2025-07-22 5.0km</title><desc>1753194638000</desc></polyline><polyline fill="none" points="178.31791221824824,151.26683848243556 186.26809015418985,152.8439931489338 188.66666666665697,152.98660660677706 186.5741399762628,152.86916024891252 173.47093712931382,150.30207370094286 167.7556346381898,147.70973282853083 164.66666666665697,147.01339339321567 167.72004744960577,147.7265120143711 173.07947805454023,150.20140189715312 175.28588374852552,150.67120252262976" stroke="#4DD2FF" stroke-linecap="round" stroke-linejoin="round" stroke-width="0.5"><title>2025-07-19 6.4km</title><desc>1752877000000</desc></polyline><polyline fill="none" points="33.13541931658983,186.7501443924557 29.05096243537264,185.93696373570128 24.410921733273426,183.8140113169211 23.61723056054325,183.56213107989606 16.07716441960656,182.10840352034575 13.464088866312522,182.1947644670072 12.896294411941199,182.08681326605438 12.365131857892266,181.7773521790732 11.846179937274428,181.23039415485255 11.394386500498513,180.2156310901555 11.333333333343035,179.84858529212943 14.001356737077003,177.63907044104417 15.765793267230038,175.72457761919213 17.50580853052088,174.20589911034767 19.630458746745717,172.78795447946322 20.002883066248614,172.6080100907493 20.570677520619938,172.57921894305764 20.97362842367147,172.32729586539062 21.6330026286887,171.54272926716658 22.225218349922216,170.19670797889557 22.85406597139081,169.6136635044386 25.943356228322955,167.9292838839101 29.099804969097022,166.58318894088734 29.105910285783466,167.10147473450343 29.594335622852668,167.42540128972905 29.917917408631183,168.02286165663827 30.583396930393064,169.54888046730048 32.634783346089534,173.4069594327084 33.172051216854015,174.69533486010187 33.318578817968955,174.8320883184133 34.24048164169653,177.1928402312842 34.44806240993785,177.4879282882248 34.777749512461014,178.7186471905079 34.83880267961649,179.53191669052467 34.74111761219683,180.76979441181174 34.4419570932223,181.92848451891768 35.333333333343035,182.129993767594" stroke="#4DD2FF" stroke-linecap="round" stroke-linejoin="round" stroke-width="0.5"><title>2025-07-17 10.0km</title><desc>1752756134000</desc></polyline><polyline fill="none" points="66.0,180.05334406559996 59.63729751086794,178.7791827457404 51.567759778758045,175.19132772903686 42.0,173.27998926772852 51.99446858954616,175.37016459424194 59.45713156857528,178.76800582204305 65.70604504144285,180.04216728068423" stroke="#4DD2FF" stroke-linecap="round" stroke-linejoin="round" stroke-width="0.5"><title>2025-07-14 5.0km</title><desc>1752500928000</desc></polyline><polyline fill="none" points="96.66666666668607,180.0286564521739 90.30544696381548,178.7790031442346 83.7284336721641,175.72668793326739 82.17096690129256,175.16266312260268 72.66666666668607,173.30467688116187 82.79020067764213,175.3285530980138 90.41803492314648,178.8232389220866 95.9911389107001,179.94018592732755" stroke="#4DD2FF" stroke-linecap="round" stroke-linejoin="round" stroke-width="0.5"><title>2025-06-21 5.0km</title><desc>1750468889000</desc></polyline><polyline fill="none" points="119.75380613573361,178.14057821837923 125.99479764362331,179.38715095243242 127.33333333334303,179.4585683926416 126.18208247263101,179.38715095243242 115.98056766888476,177.3939206105315 114.88440058144624,176.96539984707124 111.60691607373883,175.40711656021813 111.02853645474534,175.21882123812975 104.34136638359632,173.9202166149007 103.33333333334303,173.87476494069415 104.22569045980345,173.89424423389937 106.83115293396986,174.37473145092008 111.5187820365827,175.38763776135602 115.00558488254319,177.03682018822292 115.8979420090327,177.3809351781092 116.867416418012,177.57571636754074" stroke="#4DD2FF" stroke-linecap="round" stroke-linejoin="round" stroke-width="0.5"><title>2025-06-17 8.1km</title><desc>1750165544000</desc></polyline><polyline fill="none" points="158.0,180.01413472225977 151.94895591645036,178.81082942642388 144.06032482598675,175.28834379074397 134.0,173.319198611076 144.0788863109192,175.33210213404527 151.81902552203974,178.79989022126392 156.92343387467554,179.83910939321504" stroke="#4DD2FF" stroke-linecap="round" stroke-linejoin="round" stroke-width="0.5"><title>2025-06-15 5.0km</title><desc>1749939796000</desc></polyline><polyline fill="none" points="181.25062069942942,178.04233614502664 186.9148045683396,179.1741014049294 188.66666666665697,179.2824606931863 187.2876498545811,179.1981812651211 177.80818613889278,177.35604167064594 176.88373412782676,177.00687103634482 173.79371497480315,175.5379221423027 173.10420656879432,175.3091478997303 166.87309356601327,174.10505733239916 166.11718805422424,174.0508726401422 164.66666666665697,174.1652624837443 166.72497694546473,174.093016294275 172.83861814570264,175.2730255643619 173.57920124847442,175.4777184860468 175.34638575583813,176.3145434291837" stroke="#4DD2FF" stroke-linecap="round" stroke-linejoin="round" stroke-width="0.5"><title>2025-06-11 8.1km</title><desc>1749642919000</desc></polyline><polyline fill="none" points="35.33333333331393,206.673432947151 29.09835853689583,205.46686160359968 21.262763344915584,201.9677229675508 11.33333333331393,199.99323371951323 21.37443453533342,202.0116000667258 29.16350006457651,205.5217060691357 34.30037482228363,206.55277646321338" stroke="#4DD2FF" stroke-linecap="round" stroke-linejoin="round" stroke-width="0.5"><title>2025-06-08 5.0km</title><desc>1749387304000</desc></polyline><polyline fill="none" points="51.29790209769271,209.78341987001477 53.8825174823869,208.24017707206076 59.32027972023934,207.2509154190193 62.07272727275267,205.1932425489067 65.06013986014295,205.27238402859075 65.86573426565155,204.59968090051552 60.56223776214756,195.9731421022443 56.97062937053852,196.68543288393994 53.54685314686503,198.70358251139987 51.63356643356383,198.70358251139987 48.579020978999324,200.12815196652082 43.577622377546504,201.15700420853682 43.74545454548206,204.4018268021464 42.0,206.5782159556693 43.47692307678517,208.20060665762867 44.11468531482387,210.21869229417644 45.054545454564504,210.81224475888303 50.89510489499662,209.58556859579403 53.98321678326465,208.20060665762867 58.481118881027214,207.6070499245834 62.240559440571815,205.1932425489067 64.8923076922074,205.31195476214634 65.96643356641289,204.4018268021464 60.56223776214756,195.85442683612928 56.56783216772601,196.72500455300906 53.61398601392284,198.66401105790283 50.92867132858373,198.94101114204386 47.63916083902586,200.40515093383146 43.67832167830784,201.07786183184362 43.77902097895276,204.59968090051552 42.0,206.5782159556693 43.577622377546504,208.2797474822146 44.383216783055104,210.33740286459215 45.52447552443482,210.89138501425623 54.721678321482614,208.0818953886337 58.58181818167213,207.6466204035969 61.904895104817115,205.3910962161317 64.99300699296873,205.35152549130726 66.0,204.36225596946315 60.19300699303858,195.73571153118974 56.232167832087725,196.962434477231 53.479720279807225,198.66401105790283 43.846153846010566,200.88000581471715 43.812587412656285,204.4018268021464 42.033566433470696,206.4990747605334 43.54405594395939,208.20060665762867 44.11468531482387,210.0999816847907 45.82657342648599,210.93095513549633 59.38741258729715,206.8156394380203 61.06573426560499,204.56011008951464 60.56223776214756,202.30456673217122 58.3468531469116,199.53458203937043 56.46713286708109,198.58486813801574 54.85594405583106,198.50572520069545 53.00979020970408,199.2575824080268 50.02237762243021,202.85856113530463 45.25594405597076,203.6499802452454 42.40279720281251,205.9055152463843 42.30209790205117,206.85521000323934 43.91328671318479,208.79416242073057" stroke="#4DD2FF" stroke-linecap="round" stroke-linejoin="round" stroke-width="0.5"><title>2025-06-04 6.4km</title><desc>1749041988000</desc></polyline><polyline fill="none" points="96.66666666668607,206.69537120411405 90.51544526300859,205.46686233356013 83.50807806645753,202.2309860058158 82.44720175780822,201.87996944179758 72.66666666668607,199.97129546255746 82.7263797337655,201.98966224945616 90.37585627502995,205.4449245389842 95.48481323511805,206.49793328901433" stroke="#4DD2FF" stroke-linecap="round" stroke-linejoin="round" stroke-width="0.5"><title>2025-05-28 5.0km</title><desc>1748436903000</desc></polyline><polyline fill="none" points="127.33333333331393,206.68486236030003 120.66877637128346,205.319667448377 112.95042194088455,201.82826680329163 103.33333333331393,199.9706142590876 112.63713080168236,201.7611233204807 113.79535864980426,202.13041193292156 121.22890295361867,205.53228096312523 127.2194092827267,206.69605240757664" stroke="#4DD2FF" stroke-linecap="round" stroke-linejoin="round" stroke-width="0.5"><title>2025-05-27 5.0km</title><desc>1748351986000</desc></polyline><polyline fill="none" points="151.77312449365854,208.28420934951282 151.8051974074915,206.84739879374683 152.55891088303179,205.14116583597206 153.05604104773374,201.97559595837083 153.02396813390078,202.26746020514838 152.30232757219346,202.35726445823093 148.79034350527218,204.8493079776381 147.45931758038932,205.16361641362164 146.9301145017962,204.28804104174924 147.53949986497173,203.30020540688565 148.66205184988212,202.42461760773585 148.4856508236844,200.92038903733192 149.01485390227754,199.95497953137965 148.3092497974867,199.5508525139885 145.7273802323034,199.59575557740754 145.05384904134553,198.607884635785 145.2783594383509,197.4403912118869 145.77548960311105,197.5975543929162 145.7273802323034,196.83418860831443 146.4650572509272,197.2832278427013 147.81211963278474,197.23832398837112 148.88656224688748,197.9567838144867 150.3458798271604,198.00168742314418 150.93922873347765,197.70981369278888 152.39854631375056,195.6666794107732 152.4626921414747,192.2539006834195 151.93348906288156,191.64767412989022 151.09959330270067,191.33333333333576 150.07326005940558,191.62522124082898 149.15918201458408,192.63559744758822 148.45357790979324,192.88257711536426 147.0102967864368,192.61314472744561 145.48683337838156,191.78239138374192 144.09166162583278,192.2539006834195 143.38605752098374,193.33162986633397 143.4181304348749,194.47670742878836 144.02751579805044,195.32989598195127 145.40665109374095,195.98100983149197 145.7273802323034,196.76683259070705 145.10195841215318,198.22620523565274 145.5509792061057,199.57330404766253 145.66323440457927,201.43676795200736 145.069885498262,203.4573615732952 145.534942749131,204.01863206025155 146.89804158796323,204.35539320071985 147.42724466649815,205.16361641362164 146.20847394008888,207.13925221044337 144.7010469889501,207.7454072337132 142.18332325149095,209.5863053340945 140.35516716184793,210.37204666355683 139.9382192817866,211.44962712610868 138.9118860384333,212.57209737039375 139.79389116948005,215.0863958960981 140.59571401571156,215.26598680562165 141.65412017289782,214.61496858999453 142.88892735628178,215.13129364657652 143.7869689441868,215.01904924175324 144.49257304891944,214.27823376362358 145.0057396706543,212.4149521138388 146.22451039700536,211.74147031275788 149.01485390227754,212.61699598058476 150.07326005940558,212.10066103656573 151.7250151228509,212.0108634477947 151.821233864408,207.02700097318302 153.0881139616249,202.58177482218161 152.89567647851072,202.26746020514838 152.41458277066704,202.31236233939126 148.80637996218866,204.87175860514253 147.50742695113877,205.14116583597206 146.0801822846406,207.2066029068228 144.55671887664357,207.8127576191182 142.16728679457447,209.5863053340945 140.45138590346323,210.25979819010536 139.9382192817866,211.51697561141918 138.9118860384333,212.66189457535074 139.71370888478123,214.97415145295963 140.24291196337435,215.33333333333576 141.55790143134072,214.61496858999453 143.06532838242128,215.15374251598405 144.0756251688581,214.7496622787803" stroke="#4DD2FF" stroke-linecap="round" stroke-linejoin="round" stroke-width="0.5"><title>2025-05-23 6.4km</title><desc>1747958832000</desc></polyline><polyline fill="none" points="178.84718237782363,204.4541421783506 179.49669769604225,205.071187601774 181.1204859915888,205.33099560133996 181.93238013936207,206.370224045153 181.7236073585227,210.46213076314598 181.32925877242815,211.20905660079734 179.91424325783737,211.63123077484488 178.52242471883073,211.1441066446423 177.22339408227708,211.43638127263694 175.01968139549717,210.13737948270864 173.69745378335938,210.65698126489588 172.72318080603145,210.494605860702 173.00154451385606,209.55282577843172 172.30563524435274,207.73420274733508 172.5144080251921,206.43517563404748 171.77210480440408,205.20109164592577 172.0968624635134,203.252521652641 176.78265154489782,203.0576635536563 178.38324286486022,203.6422372507659 179.21833398821764,204.97375951023423 181.00450111331884,205.29851962078828 181.79319828539155,206.04546576729626 181.7236073585227,210.559556038992 181.37565272371285,211.20905660079734 180.00703116029035,211.59875587173156 178.68480354826897,211.17658162549196 177.17700013099238,211.40390633621428 174.97328744421247,210.16985463570745 172.16645339049865,210.75440644077025 170.65864997310564,211.98845434290706 171.1457864617696,212.34567723910732 171.5169380721636,214.29415393572708 173.79024168592878,215.33333333332848 174.7645146632567,214.65137249493273 175.41402998159174,213.31991808619932 175.32124207890593,212.28072767157573 174.1149993450381,210.3647054372559 175.32124207890593,210.16985463570745 177.20019710669294,211.40390633621428 178.68480354826897,210.98173165685148 178.49922774301376,210.494605860702 176.9914243258536,210.52708095262642 176.1795301779639,209.48787525577063 176.94503037445247,206.43517563404748 174.95009046851192,203.38242694089422 175.089272322366,200.9466879988904 175.6228027624311,199.90742987515114 176.689863642212,199.29036767325306 178.70800052396953,199.93990677768306 180.35498579510022,199.51770661251794 178.49922774301376,201.33640832907986 176.57387876405846,201.23897832154762 175.41402998159174,200.36210600422055 173.62786285649054,199.97238367453974 173.67425680777524,196.01016125643218 174.46295397984795,194.35379787329293 174.50934793113265,191.88546484835388 174.99648441979662,191.39829006542277 176.48109086148906,191.33333333332848 180.74933438119479,191.95042139168072 181.6308194558369,192.72989817806229 181.93238013936207,194.35379787329293 182.6746833602665,195.16574251337443 182.18754687148612,195.81529572591535 182.4891075550113,196.23750412263325 181.0276980890194,197.11439548555063 180.86531925934833,199.16045958573523 178.70800052396953,201.27145499622566 177.01462130143773,201.33640832907986 175.34443905449007,200.2646754967427 173.72065075894352,200.06981433188776 173.65105983207468,196.23750412263325 174.64852978498675,192.92476687463932 175.69239368929993,192.53502928139642 175.7155906650005,191.56068179865542 180.47097067337018,191.85298656843952" stroke="#4DD2FF" stroke-linecap="round" stroke-linejoin="round" stroke-width="0.5"><title>2025-05-20 5.0km</title><desc>1747754393000</desc></polyline><polyline fill="none" points="32.15341701544821,231.67714654104202 34.396094839670695,231.95336911521736 35.33333333337214,230.96685895466362 29.776847977773286,222.60114477245952 25.89400278951507,223.54821645605261 22.88145048834849,225.32396918704035 21.006973500712775,225.40289132855833 16.454672245541587,227.13917408997077 12.806136680650525,227.65216513091582 13.107391910860315,231.00631941264146 11.333333333372138,233.29501862105099 12.806136680650525,234.59720309413387 13.341701534227468,236.4123615170829 14.145048814592883,237.20155799385975 15.651324965292588,237.43831660150317 23.18270571832545,234.99180352527765 27.668061366886832,234.3604426292004 31.550906555261463,231.79552767018322 34.396094839670695,231.87444840138778 35.26638772676233,231.1247007609345 29.91073919122573,222.64060614199843 28.437935843830928,222.68006750725908 23.015341701568104,225.24504702840932 20.538354253862053,225.52127450858825 17.425383542547934,226.94186964989058 12.538354253978468,227.84946918391506 13.241283124312758,230.45387260912685 11.333333333372138,233.25555841246387 12.739191074040718,234.43936280132039 13.174337517586537,236.09668244494242 14.178521618014202,237.16209821088705 15.651324965292588,237.3593970829388 23.81868898193352,234.67612321479828 28.203626220463775,234.12368200937635 31.383542538271286,231.87444840138778 34.4295676429756,231.87444840138778 35.26638772676233,231.04577986639924 29.91073919122573,222.68006750725908 28.739191073924303,222.56168339849683 25.726638772757724,223.54821645605261 23.11576011159923,225.24504702840932 20.973500697291456,225.32396918704035 16.956764295813628,227.02079143881565 12.973500697407871,227.7310867649212 13.174337517586537,230.8484775548277 11.40027894009836,233.17663798225112 12.739191074040718,234.5182829563273 13.676429567742161,236.84641979221487 15.785216178628616,237.31993731705006 22.5801952581387,235.03126354466076" stroke="#4DD2FF" stroke-linecap="round" stroke-linejoin="round" stroke-width="0.5"><title>2025-05-14 5.0km</title><desc>1747227249000</desc></polyline><polyline fill="none" points="50.49903199984692,241.73975474055624 50.98790590983117,241.2936190868204 51.697561585519,238.65395927184727 53.82652861252427,238.98856629682996 54.97774781973567,234.3783673142898 54.75696605397388,231.42256937912316 52.53337827016367,225.8640433947876 52.62799902696861,224.6184625709866 54.173471387359314,223.7818733312015 56.47590980178211,223.39146361548046 57.95830165769439,222.36895774550794 59.172601369326,222.48050413820602 59.62993502704194,221.9971359098563 57.185565477469936,218.09295771263714 56.570530558528844,218.0 54.88312706304714,218.61351996753365 53.82652861252427,219.3385861756251 52.911861297208816,219.3571775763703 51.05098641430959,220.1008319437824 49.14280115294969,220.37970149594184 49.268962162022945,221.82981581942295 48.370064972899854,222.9638709971041 48.5277662340668,223.37287265430496 49.06395052233711,223.726100569329 49.60013481072383,224.9716879073967 50.278250234085135,225.04605104292568 56.3339786666329,223.22414489241783 57.01209409011062,222.62923254826455 57.26441610814072,221.82981581942295 56.96478371164994,220.78870934784936 55.90818526124349,219.6546397122729 54.615034918824676,219.24562914167473 53.479585837747436,219.5616828505299 51.965653729625046,221.27208099971176 49.80514645035146,221.64390441543947 48.55930648633512,222.75936980078404 48.59084673860343,223.37287265430496 50.278250234085135,224.6742350411805 52.20220562146278,224.46973589484696 56.28666828828864,223.22414489241783 57.16979535133578,222.40613988450787 57.21710572973825,221.51376631211315 56.570530558528844,220.3425189153204 55.0408283242723,219.3014033681102 52.911861297208816,219.37576897504914 50.909055279160384,220.17519720227574 49.11126090073958,220.52843173734436 49.25319203588879,221.9041803243017 48.385835098917596,223.0382350077416 49.079720648529474,223.726100569329 49.4266634232481,224.73000749306811 50.230939855682664,225.06464182178024 51.17714742326643,224.58128091414983 52.927631423284765,224.283827367326 52.51760814408772,225.04605104292568 52.56491852237377,225.6409549604723 54.551954414346255,230.62319384657894 55.02505819813814,232.92835963031393 54.85158681077883,235.51233909724397 54.06308050442021,238.46806619677227 52.02873423410347,238.17063685540052 51.224457801668905,240.884660379641 50.60942288278602,241.14490694299457 50.35710086475592,242.0 50.02592821611324,241.86987741990015" stroke="#4DD2FF" stroke-linecap="round" stroke-linejoin="round" stroke-width="0.5"><title>2025-05-06 7.1km</title><desc>1746539597000</desc></polyline><polyline fill="none" points="81.83719432388898,242.0 81.67458097083727,241.80831967691483 82.43886373017449,239.25895152606245 84.37396263121627,239.71899061497243 84.71545067266561,239.1247732319316 85.72365346143488,234.88852019769547 85.69113079080125,232.77993994964345 82.81287444214104,224.8054443464207 82.03233034751611,224.63291520687926 80.92655954690417,225.16967197447957 80.24358346412191,225.0354829360731 78.95893797517056,223.0418051668821 79.83705008157995,222.0832981977146 79.6256527226069,220.54967618494993 80.76394619385246,220.49216509937833 84.56909865490161,219.4186213849316 85.80496013793163,218.65180043524015 87.83762705087429,218.03834126892616 90.45570203481475,222.04495781027072 90.13047532871133,222.5625523350609 88.69947782205418,222.4283613081643 87.17091230343794,223.54022672718565 84.8455413550837,223.88528698022128 83.47958918951917,224.5370656117302 81.73962631210452,224.76710455230204 80.6826395172975,225.20801168087928 79.99966343457345,224.92046367884905 79.60939138731919,223.84694698550447 78.99146064574597,223.3868663974572 78.99146064574597,223.02263507868338 79.83705008157995,221.89159617719997 79.60939138731919,220.56884654260648 81.39813827065518,220.33880211265932 84.52031464898027,219.34193944037543 87.47987767419545,218.0 87.93519506271696,218.15336502558785 90.43944069946883,222.04495781027072 90.19552066992037,222.52421205212886 88.81330716906814,222.4283613081643 86.8131629267009,223.67441690598207 85.18702939635841,223.78943697777868 80.76394619385246,225.16967197447957 80.0809701110702,224.97797331688344 79.64191405789461,223.84694698550447 78.99146064574597,223.34852629419765 79.82078874623403,221.92993659796775 79.6256527226069,220.54967618494993 81.33309292950435,220.33880211265932 84.39022396656219,219.39945090196852 85.47973343188642,218.72848268062808 87.51240034477087,218.0 87.88641105679562,218.15336502558785 90.42317936418112,222.02578761347104 90.17925933463266,222.50504190742504 88.69947782205418,222.40919115312863 87.12212829757482,223.55939675901027 84.82928001973778,223.88528698022128 83.18688515404938,224.59457537510025 81.83719432388898,224.70959484533523 80.79646886442788,225.18884182872716 80.03218610514887,224.90129379536666 79.6256527226069,223.84694698550447 78.97519931040006,223.36769634687516 78.95893797517056,223.0418051668821 79.60939138731919,222.40919115312863 78.84510862798197,223.11848549882416 79.56060738139786,223.9619669445674 79.88583408750128,224.84378413225932 80.58507150551304,225.26552122498106 84.63414399605244,224.00030691418215 87.05708295630757,223.71275693828647 88.61817114549922,222.52421205212886 90.06542998744408,222.52421205212886 90.48822470539017,222.0832981977146 87.77258170972345,218.0 85.70739212608896,218.61345930006064 84.4227466371376,219.43779186584288 83.26819183060434,219.51447376866417 81.49570628249785,220.24295017808618 79.39799402828794,220.66469829964626 79.7557434050832,221.89159617719997 78.92641530453693,222.9076145055442 78.8938926339033,223.40603644600196 79.54434604605194,223.9044569744001 79.83705008157995,224.8054443464207 80.45498082315316,225.18884182872716 82.81287444214104,224.7862744504091 85.34964274946833,231.3805954730051 85.64234678487992,232.87578505456622 85.70739212608896,234.8118449950416 84.55283731955569,239.5464760975592 82.34129571833182,239.27811984541768 81.85345565911848,241.59747108038573 81.59327429434052,241.80831967691483" stroke="#4DD2FF" stroke-linecap="round" stroke-linejoin="round" stroke-width="0.5"><title>2025-04-29 10.1km</title><desc>1745929124000</desc></polyline><polyline fill="none" points="126.41145158966538,227.7107766553745 126.00748093792936,227.36890521884197 126.23536181839881,226.1112977482553 125.66565961728338,227.9915988411376 125.23061430006055,228.0526470493205 123.935836570221,233.1317415270605 123.79082146455767,233.16836877658352 117.19263415329624,231.86198947999947 108.78175802039914,228.07706632327609 103.33333333331393,226.91714493573818 108.74032513302518,228.0892759582639 115.37994533154415,231.20268947578734 117.26514170615701,231.9108263630842 127.33333333331393,233.8887022517374 123.88404546107631,233.14395061154937 124.10156811965862,232.25268394924205 124.7127032080898,232.1061736828342 126.100704934448,226.27002568271564 126.37001870229142,226.1723469804274 126.00748093792936,227.12471069728053" stroke="#4DD2FF" stroke-linecap="round" stroke-linejoin="round" stroke-width="0.5"><title>2025-04-22 6.3km</title><desc>1745328842000</desc></polyline><polyline fill="none" points="142.51814127597027,241.2947395533265 142.91701769304927,241.11842400951718 143.74801022862084,238.39530644081242 145.87535111961188,238.70876092254184 146.98888111725682,234.6534013790224 146.8060627594823,230.55876684255782 144.49590351060033,224.89665448905725 144.44604395848,223.91703218511248 145.69253276183736,222.89821932771883 148.31846917414805,222.46718138114375 150.21313215524424,221.23283972717763 151.4596209586016,221.35039644023345 151.97483633062802,220.89976195619965 150.86130633292487,219.155991790627 149.3655197689659,219.92011787733645 148.16889051772887,218.52901411462517 146.88916201301618,218.0 144.49590351060033,218.1959313350817 142.86715814092895,218.9208754183055 140.6733378470526,219.29314286580484 141.0057348612463,220.6646478640323 140.04178352002054,222.05573510464455 140.7564371006447,222.66310784856614 141.12207381631015,223.6819220380712 141.86996709828964,224.07377211240237 144.59562261489918,223.42721903185884 146.17450843239203,222.74147837577038 148.25198977126274,222.46718138114375 149.9638343945262,221.31121087781503 151.4596209586016,221.33080366016657 151.95821647986304,220.8605762955267 150.87792618368985,219.155991790627 149.38213961967267,219.8809320031869 148.16889051772887,218.5094210270472 146.98888111725682,218.01959314312262 144.41280425706645,218.1959313350817 142.9003978424007,218.90128237342287 141.0888341148966,219.17558480775915 140.83953635423677,219.37151486183575 140.97249515989097,220.72342641589057 140.04178352002054,221.95777156672557 140.72319739917293,222.66310784856614 141.07221426413162,223.70151456203894 141.78686784475576,224.1129570728226 146.207748133922,222.72188574721804 148.18551036849385,222.50636669172673 149.98045424529118,221.31121087781503 151.52610036137048,221.31121087781503 151.94159662927268,220.82139062634087 150.8446864822181,219.1168057499308 149.2990403660806,219.86133906285977 148.1522706670803,218.5094210270472 147.1384597736178,218.07837255964114 144.91139977844432,218.09796569419268 142.73419933527475,218.9208754183055 141.05559441342484,219.17558480775915 140.8229165034718,219.35192186603672 140.93925545847742,220.89976195619965 140.02516366937198,222.0165496958798 140.77305695129326,222.70229311649746 141.10545396554517,223.70151456203894 141.65390903904336,224.05417962899082 148.33508902491303,222.21247665429837 149.1494617096614,221.54632412455976 149.4319991717348,220.54709070270474 149.19932126189815,219.80256022916 148.38494857703336,218.8033171169227 147.10522007226245,218.0391862841352 144.89477992767934,218.1175588266633 142.66771993238945,218.97965454023506 140.806296652765,219.29314286580484 141.0057348612463,220.62546215212205 140.04178352002054,221.97736427855853 140.85615620488534,222.9765897524776 140.5403790413984,223.58395938602916 141.37137157691177,225.28850191636593 142.01954575470882,228.14896226869314 142.3020832167822,231.36202785796195 142.2356038138969,233.47791775065707 140.60685844428372,241.4514643359871 141.78686784475576,242.0" stroke="#4DD2FF" stroke-linecap="round" stroke-linejoin="round" stroke-width="0.5"><title>2025-04-15 8.8km</title><desc>1744723077000</desc></polyline><polyline fill="none" points="188.50894487049663,227.4360449619562 187.812340270204,227.389566408674 188.3249361081398,225.88675166778557 187.720335889142,228.3965983299422 187.86491420236416,228.78391640131304 187.06316173792584,231.44863614543283 186.2876962395967,231.4641285561229 186.30083972256398,232.11480828208732 185.40708287712187,235.0118461751117 176.69295363279525,233.27672896142758 166.70390653522918,228.6444820171164 164.66666666668607,228.0557575547282 166.84848484856775,228.7529309944075 176.67981014971156,233.29222117307654 185.43336984311463,234.996354150775 185.72252646961715,233.83444751666684 186.3797006207169,233.75698673696024 186.94487039069645,232.11480828208732 188.66666666668607,224.9881538248883 188.20664476096863,227.5444948606455" stroke="#4DD2FF" stroke-linecap="round" stroke-linejoin="round" stroke-width="0.5"><title>2025-04-11 5.1km</title><desc>1744377642000</desc></polyline><polyline fill="none" points="18.23936150368536,268.6666666666715 19.05108384398045,267.7684332529316 19.26643875055015,268.4323453403922 20.078161090961657,267.7684332529316 20.989278003457002,265.01512453214673 23.1262613076251,265.50330292129365 23.50727383478079,265.36661310633644 24.501219557598233,261.09012197176344 24.567482605867554,258.7467958918278 24.153338554664515,256.65730430191616 21.767868819762953,251.4627617225051 21.701605771610048,250.58397083404998 22.861209114955273,249.60753146003117 25.528296804521233,249.1778964502446 27.383662153908517,247.90851426853624 28.592962783412077,248.02568838499428 29.205895979248453,247.51793332691886 27.897200777370017,245.46736941899871 26.522242527396884,246.2680685939995 24.8987978468067,244.901019062032 23.441010786569677,244.82290163096332 22.662419970321935,245.19395912524487 21.08867257577367,246.91253118540044 18.835728937352542,247.24452616139024 17.52703373559052,248.3772102748335 17.46077068737941,248.74826041063352 18.13996693136869,249.31459861050826 18.421584886149503,250.2324532721541 19.16704417829169,250.66208575411292 25.71052018716,248.82637613077532 26.60507133777719,247.96710133632587 26.704465909919236,247.01017683040118 25.72708594915457,245.48689870969974 24.153338554664515,244.66666666667152 22.032921012490988,244.78384290265967 19.962200756534003,245.5845451314235 18.17309845541604,245.89701332352706 18.322190313891042,247.26405525850714 17.46077068737941,248.31862334108155 17.46077068737941,248.6896735981427 18.13996693136869,249.256011983176 18.85229469940532,250.6425570272404 19.58118822943652,250.66208575411292 20.5585681903176,250.15433816482255 21.45311934093479,250.2324532721541 24.070509744342417,257.1650334704609 24.385259223286994,258.98112987833156 24.285864650970325,260.855790742251 23.358181976305787,264.819852804314 21.221198672195897,264.4878903787321 20.37634480779525,267.0654648334312" stroke="#4DD2FF" stroke-linecap="round" stroke-linejoin="round" stroke-width="0.5"><title>2025-04-08 5.6km</title><desc>1744119870000</desc></polyline><polyline fill="none" points="50.61192092509009,266.6424834148929 51.26168951479485,265.69420896949305 51.75675129739102,263.57880815988756 53.8143518314464,263.9617706326826 54.912770161696244,259.73089850372344 54.95918220380554,258.01663539285073 54.66523927036906,256.3388289671275 52.56122669420438,251.1229320293205 52.56122669420438,250.1198562929203 53.72152774728602,249.26267771871062 56.15042461833218,248.89791954722023 57.759375411842484,247.8036402634898 59.151736675412394,247.8036402634898 59.52303301246138,247.32945035220473 58.300849236606155,245.3962006566726 56.800193208036944,245.97982555929048 55.37689058290562,244.79433534447162 53.08722983824555,244.73962020879844 50.96774658135837,245.5238687780511 49.20408898073947,245.85215778576094 49.29691306495806,247.32945035220473 48.47696698753862,248.3143048195343 49.08032353507588,249.00734708215168 49.43614919134416,250.02866729156813 50.395331395207904,250.3569474639953 51.24621883407235,249.90100260617328 52.68499213986797,249.73686215333873 54.09282408421859,249.11677454551682 56.24324870260898,248.80672988016158 57.86767017678358,247.73068805690855 57.62013928545639,248.22311483453086 58.022376983833965,247.6212596873811 59.2136193983024,247.7124500003265 59.47662097035209,247.25649793889897 58.51743876648834,245.7062516396254 57.156018864305224,246.41754290073004 56.073071214719675,245.15910245873965 54.928240842418745,244.66666666667152 52.978935073304456,244.7213818262535 51.07604134629946,245.4873921818944 49.250501022848766,245.77920472856204 49.235030342126265,247.4024027337 48.523379029589705,248.13192479983263 48.47696698753862,248.49668464055867 49.09579421579838,249.04382291121874 49.265971703629475,249.8098134855827 50.10138846177142,250.33870969356212 51.199806791963056,249.88276478600164 52.623109417036176,249.73686215333873 53.9226465964457,249.15325035070418 55.16030105302343,248.9891091646423 55.299537179409526,250.02866729156813 58.471026724379044,256.46648874276434 55.23765445651952,257.5971853628871 55.05200628808234,260.46036684379214 54.26300157193327,263.5423354977538 53.860763873613905,263.8523528727528 52.74687486264156,268.6666666666715 48.47696698753862,267.5725165964104 49.12673557724338,264.7824015531369 49.343325107125565,264.6729843294597 48.97202877007658,266.4601233616995" stroke="#4DD2FF" stroke-linecap="round" stroke-linejoin="round" stroke-width="0.5"><title>2025-04-02 6.9km</title><desc>1743601029000</desc></polyline><polyline fill="none" points="80.89361222297885,268.6666666666715 81.46758918534033,268.14928698560107 82.26102792739403,265.30367254938756 84.91145095945103,265.9404572516796 86.0087598580867,260.90581759989436 85.67112635076046,257.18447302315326 83.0882300202502,251.29384748381563 83.07134834479075,250.7565174564661 83.57779860572191,250.0400749610708 84.4725273999502,249.6022476082726 87.34241221175762,249.08481392911926 88.67606456542853,248.01013929639885 89.19939650170272,247.93053351648268 89.21627817710396,247.21407993606408 88.54101116256788,245.84086938467226 88.00079755089246,245.88067273440538 87.47746561467648,245.2836215783318 87.03854205517564,245.3831302398612 86.05940488411579,244.78607745736372 85.01274101156741,244.70647027221275 83.93231378839118,245.0846040926117 82.48048970714444,246.87575365728117 80.2858719099313,247.19417840757524 78.64834939967841,248.5076746346167 79.62748657068005,250.3385930089862 80.74167714465875,250.79631973494543 84.60758080292726,249.50274124533462 87.10606875672238,249.1445178900467 89.01369807269657,247.831026242784 90.27982372499537,247.99023785462487 90.7187472844962,247.5126026027574 89.35133157996461,245.46273713007395 87.84886247263057,246.27870575412817 86.93725200300105,245.22391635538952 85.75553472765023,244.66666666667152 83.54403525503585,244.76617566432105 81.53511588677065,245.6020491044619 79.3911431155866,245.96027940770728 79.52619651856367,247.53250409649627 78.61458604887594,248.70668839049176 79.35737976490054,249.40323482827807 79.69501327216858,250.3982965600735 80.69103211857146,250.8162208708818 81.7208143157768,250.2987906307826 82.69995148677845,250.23908704724454 83.84790541155962,253.48295347946987 84.74263420584612,254.25908475996403 87.69692739431048,253.6421601648326 89.553911684372,257.542680611441 85.97499650728423,258.75660110331955 85.78929807833629,261.8013170107879 85.41790122038219,262.25901501454064 84.4725273999502,265.6220651779731 84.26994729565922,265.7812612841517 82.26102792739403,265.4230698501342 81.63640593894524,267.8109994788829" stroke="#4DD2FF" stroke-linecap="round" stroke-linejoin="round" stroke-width="0.5"><title>2025-03-25 6.1km</title><desc>1742909450000</desc></polyline></svg>