<?xml version="1.0" encoding="utf-8" ?>
<svg baseProfile="full" height="300mm" version="1.1" viewBox="0,0,200,300" width="200mm" xmlns="http://www.w3.org/2000/svg" xmlns:ev="http://www.w3.org/2001/xml-events" xmlns:xlink="http://www.w3.org/1999/xlink"><defs /><rect fill="#222222" height="300" width="200" x="0" y="0" /><text fill="#FFFFFF" style="font-size:12px; font-family:Arial; font-weight:bold;" x="10" y="20">Over 5km Runs</text><text fill="#FFFFFF" style="font-size:4px; font-family:Arial" x="10" y="280">Runner</text><text fill="#FFFFFF" style="font-size:9px; font-family:Arial" x="10" y="290">Elliont</text><text fill="#FFFFFF" style="font-size:4px; font-family:Arial" x="65" y="280">SPECIAL TRACKS</text><rect fill="yellow" height="2.6" width="2.6" x="65" y="283" /><text fill="#FFFFFF" style="font-size:3px; font-family:Arial" x="70" y="285.5">Over 20.0 km</text><rect fill="red" height="2.6" width="2.6" x="65" y="287" /><text fill="#FFFFFF" style="font-size:3px; font-family:Arial" x="70" y="289.5">Over 40.0 km</text><text fill="#FFFFFF" style="font-size:4px; font-family:Arial" x="120" y="280">STATISTICS</text><text fill="#FFFFFF" style="font-size:3px; font-family:Arial" x="120" y="285">Number: 65</text><text fill="#FFFFFF" style="font-size:3px; font-family:Arial" x="120" y="290">Weekly: 2.0</text><text fill="#FFFFFF" style="font-size:3px; font-family:Arial" x="141" y="285">Total: 446.5 km</text><text fill="#FFFFFF" style="font-size:3px; font-family:Arial" x="141" y="290">Avg: 6.9 km</text><text fill="#FFFFFF" style="font-size:3px; font-family:Arial" x="167" y="285">Min: 5.0 km</text><text fill="#FFFFFF" style="font-size:3px; font-family:Arial" x="167" y="290">Max: 11.4 km</text><polyline fill="none" points="32.80000000001746,44.61872353783838 28.115748031501425,43.741665000743524 22.758267716533737,41.28584774097544 21.872440944891423,40.98513001950778 13.248031496070325,39.297747600707226 11.200000000011642,39.297747600707226 13.269291338598123,39.34786840558081 21.737795275606913,41.01854315790115 22.588188976427773,41.28584774097544 28.051968503947137,43.7750769382983 32.75039370081504,44.70225239930005" stroke="#4DD2FF" stroke-linecap="round" stroke-linejoin="round" stroke-width="0.5"><title>2025-12-07 6.0km</title><desc>1765101913000</desc></polyline><polyline fill="none" points="57.8532556372229,47.55504297003063 57.65624524958548,48.29042336418934 57.41545477582258,48.387183262620965 56.72591841907706,51.04479334360076 52.99913858628133,50.29009580791535 48.4350646060484,48.24526869082911 41.49592095264234,46.87771084443011 38.96762097798637,46.94221899968397 38.2726121104788,46.69708763593735 37.83481124904938,46.34229044400854 37.500988092215266,45.852021735372546 37.23830757540418,45.19402314188119 37.20000000001164,44.82631486106402 39.542234608583385,42.89097048520853 41.89541423867922,40.48460408962637 42.73818089690758,39.77493312695515 44.62072460097261,38.52331087946368 44.976437800884014,38.36201742801859 45.57294147455832,38.29749992438883 45.77542437295779,38.1426576288286 46.360983025078895,37.47812151145263 46.90823410186567,36.284518490447226 47.51021028633113,35.684481935306394 50.22457562710042,34.194042238374095 53.125006333953934,32.95520665639924 53.13047884471598,33.4262253234192 53.56280719535425,33.73593418514429 54.00608056754572,34.548912236914475 54.94187990881619,36.613568212596874 56.977653914364055,40.53621619145997 57.907980744872475,42.76839654479045 58.18707879402791,43.78123675421375 58.25274892325979,44.671489638662024 58.14877121869358,45.79396333002296 57.95176083102706,46.439053525329655 58.13235368637834,46.71644014892081 58.80000000001746,46.96157143254095 58.61393463393324,47.82597365126276 58.48259437549859,47.800170782622445 58.41692424629582,48.07755103121235 58.25822143405094,48.071100342524005" stroke="#4DD2FF" stroke-linecap="round" stroke-linejoin="round" stroke-width="0.5"><title>2025-11-30 10.9km</title><desc>1764501077000</desc></polyline><polyline fill="none" points="84.78791608390748,48.12157678604126 84.80000000001746,48.20703562890412 84.57040559439338,48.164306221435254 80.77605594406486,47.40229376628122 76.37751048951759,45.37971297265176 75.44704895102768,45.052105971037236 68.0396083916421,43.613464490452316 64.99446153847384,43.656196871743305 64.63194405596005,43.5208775684805 64.04587412587716,43.10779585778073 63.55043356644455,42.402702081002644 63.23625174825429,41.56939963224431 63.26646153850015,41.312996742017276 65.90679720282787,39.15489923207497 67.59854545455892,37.32437784591457 69.32050349650672,35.771599677835184 67.64083916082745,37.25315029677586 65.85241958042025,39.183389432233525 63.22416783217341,41.34148600168555 63.20000000001164,41.53378817981866 63.47188811190426,42.31011344450235 64.07004195803893,43.18613914137677 64.54131468533888,43.49951133709692 65.23009790212382,43.713173336713226 67.91272727274918,43.64195274774829 75.4349650349759,45.10908121964894 76.19020979019115,45.351225472433725 80.55854545457987,47.380928803104325 84.6308251748269,48.22840032217209" stroke="#4DD2FF" stroke-linecap="round" stroke-linejoin="round" stroke-width="0.5"><title>2025-11-16 10.0km</title><desc>1763290106000</desc></polyline><polyline fill="none" points="110.80000000001746,45.004401112979394 110.67700094910106,45.117161996342475 108.83201518509304,44.75471568801004 103.5362227143778,42.322252279634995 102.50439734262181,42.00812037716241 94.34546029739431,40.42133114247554 92.92413793102605,40.389111719043285 91.37981651377049,40.52604417174007 90.73748813668499,40.42133114247554 89.78082885159529,39.801104775186104 89.20000000001164,38.8828380036648 89.35033217337332,39.31780789584445 89.65782980070799,39.72055551465746 90.64865548876696,40.41327628793806 91.52331540652085,40.55826353552402 93.43663397661294,40.389111719043285 94.33179373617168,40.44549570086383 102.8597279342066,42.104776489279175 107.87535590009065,44.41643086441036 108.79101550148334,44.762770069726685 110.34217019935022,45.04467287677835" stroke="#4DD2FF" stroke-linecap="round" stroke-linejoin="round" stroke-width="0.5"><title>2025-11-12 6.4km</title><desc>1762942582000</desc></polyline><polyline fill="none" points="123.55642458098009,47.6191540058353 126.30167597765103,46.2677379171073 130.40446927386802,45.69871894241078 133.27039106143638,43.636016843986 135.92513966478873,43.77827257968602 136.6793296089163,43.10255728306947 132.03351955325343,35.56290224278928 130.79664804472122,35.31394839831046 125.51731843571179,37.80347829760285 116.52737430180423,39.86621725704754 116.97988826816436,42.569096850260394 115.23016759788152,44.95188003292424 116.46703910618089,46.0899195940292 117.1005586591782,48.01035235571908 118.33743016771041,48.721620881638955 120.69050279341172,47.86809846453252 123.28491620114073,47.6191540058353 126.48268156428821,46.23217426016345 130.313966480433,45.840973779093474 133.14972067042254,43.74270865149447 136.01564245810732,43.84940042413655 136.80000000004657,42.92473723561852 132.15418994415086,35.56290224278928 130.8871508379234,35.20725383548415 127.56871508387849,36.52315100689884 125.54748603352346,37.91017201167415 123.55642458098009,37.98130113512161 119.93631284916773,39.43944474885939 116.34636871516705,40.04403897075099 116.97988826816436,41.573301709519 116.88938547496218,42.85360918962397 115.38100558659062,44.38285876440932 115.23016759788152,45.129698975913925 116.61787709512282,46.33886521903332 117.16089385491796,48.11704273347277 118.39776536310092,48.82831102667842 120.60000000009313,47.93922541788197 123.64692737429868,47.6191540058353 126.6636871509254,46.2677379171073 130.10279329610057,45.947664865874685 133.54189944139216,43.70714471954852 136.4379888268886,43.56488895291113 136.80000000004657,42.818045160820475 136.28715083794668,41.928943179984344 132.15418994415086,35.56290224278928 131.09832402237225,35.17168897335068 127.719553072704,36.41645683927345 125.57765363145154,37.80347829760285 116.3765363128623,39.97291029695771 116.9497206704691,42.569096850260394 115.19999999995343,44.95188003292424 116.52737430180423,46.23217426016345 116.9497206704691,47.79697149581625 118.00558659236412,48.614930701383855 119.21229050296824,48.57936730037909 126.63351955299731,46.2677379171073 130.22346368723083,45.91210117418086 133.27039106143638,43.77827257968602 135.9553072626004,43.84940042413655 136.64916201122105,43.28037723354646 136.10614525142591,41.679994191392325 131.58100558666047,35.24281869357219 127.44804469274823,36.629845139657846 124.79329608939588,38.443640059413156 123.37541899457574,40.29298920719884" stroke="#4DD2FF" stroke-linecap="round" stroke-linejoin="round" stroke-width="0.5"><title>2025-11-04 6.4km</title><desc>1762251473000</desc></polyline><polyline fill="none" points="162.80000000001746,44.987139823730104 157.4710526316194,43.879789308186446 150.76052631580387,40.8833571350915 141.20000000001164,39.01286017627717 150.54736842107377,40.892662987731455 151.51052631583298,41.199755556452146 157.2815789473825,43.879789308186446 162.7526315789437,44.987139823730104" stroke="#4DD2FF" stroke-linecap="round" stroke-linejoin="round" stroke-width="0.5"><title>2025-10-28 5.4km</title><desc>1761648009000</desc></polyline><polyline fill="none" points="188.80000000001746,44.50305286285584 184.44221954164095,43.62777781143086 178.85331724968273,41.140094649665116 170.6653799758933,39.535338871137355 169.47985524733667,39.496947137136885 167.89047044632025,39.62747894744098 167.20000000001164,39.496947137136885 167.37587454766617,39.58140892433585 167.9100120627554,39.67354894044547 169.39517490955768,39.535338871137355 170.6523522316129,39.56605224329542 178.7360675513046,41.15545098783332 179.62195416164468,41.45489891348552 184.4487334137666,43.67384519029292 187.71869722558768,44.33414097975765" stroke="#4DD2FF" stroke-linecap="round" stroke-linejoin="round" stroke-width="0.5"><title>2025-10-17 6.4km</title><desc>1760694739000</desc></polyline><polyline fill="none" points="32.80000000001746,73.43485306450748 30.982480376784224,73.09911882496817 25.651993720588507,70.66899663937511 24.89921507067629,70.43717156919593 16.476232339133276,68.82236973139516 13.322700157033978,68.88632295512798 12.400376766134286,68.47862019910826 11.925651491386816,68.03094397580571 11.362762951350305,66.91174146989943 11.26103610676364,66.27218951725081 14.217896389367525,63.881814746695454 16.082888540055137,61.835144369862974 18.00213500787504,60.12421204225393 20.40967032968183,58.54915962902305 18.097080062841997,60.02827073039225 16.211742543207947,61.68324077704165 14.319623233925086,63.73791010167042 11.281381475710077,66.22422289609676 11.200000000011642,66.39210593293683 11.288163265329786,66.75185400426562 11.912087912118295,68.04693245937233 12.909010989038507,68.78239893829596 13.546499215095537,68.96626440640102 16.46266875983565,68.84635219684424 24.967032967077103,70.50112338581675 25.767284144472796,70.75693009514362 30.77902668764,73.0751377491033 32.508383045584196,73.45084037096967 32.58298273157561,73.32294182194892" stroke="#4DD2FF" stroke-linecap="round" stroke-linejoin="round" stroke-width="0.5"><title>2025-10-12 10.0km</title><desc>1760258276000</desc></polyline><polyline fill="none" points="58.22654867259553,68.67456366348779 53.52566371683497,67.73160972309415 47.30973451328464,64.96109384476586 38.64424778759712,63.3004052821052 37.20000000001164,63.25867897525313 38.81415929205832,63.367167325821356 47.64247787609929,65.11130510539806 51.35221238937811,66.85540318295534 51.64247787609929,66.88878266327083 52.49911504428019,67.38947312356322 53.76637168144225,67.8651260304614 58.18407079647295,68.74132102475414 58.30442477876204,68.67456366348779 58.38230088495766,68.04871057320997 58.80000000001746,68.0236763432913" stroke="#4DD2FF" stroke-linecap="round" stroke-linejoin="round" stroke-width="0.5"><title>2025-10-09 6.0km</title><desc>1760007351000</desc></polyline><polyline fill="none" points="84.80000000001746,69.01809241441515 79.15928994081332,67.91332938857522 71.91668639052659,64.6692669248514 63.20000000001164,62.98190758558485 72.35976331360871,64.89022836150252 76.39005917159375,66.7985096471748 76.84165680475417,66.86881399299455 77.25065088761039,67.21029148162052 78.43502958581666,67.7124619620372 78.56284023672924,67.66224503707053 79.12520710058743,65.71380723368202 80.23289940829272,66.02515830601624 80.47147928993218,65.84437394038832 82.00520710059209,66.06533256137482 82.42272189349751,65.11118926867493" stroke="#4DD2FF" stroke-linecap="round" stroke-linejoin="round" stroke-width="0.5"><title>2025-10-05 5.0km</title><desc>1759662272000</desc></polyline><polyline fill="none" points="110.80000000001746,67.90756351863092 110.6307210031664,68.59393846190505 106.36489028215874,67.73197819825145 105.20025078370236,67.30099426473316 104.17780564265558,66.75028888346424 100.31824451411376,65.07420356305374 92.14545454547624,63.469914563364 90.62194357370026,63.406061538094946 89.20000000001164,63.53376753302291 91.7391849529813,63.461932938254904 99.87811912226607,65.05025920931803 101.01567398119369,65.4014422800683 105.10545454546809,67.34888149362087 106.21592476492515,67.77188398983708 108.07122257055016,68.09112954013835 108.22695924769505,67.80380860745208 108.13893416928477,67.67611005355138 108.20664576807758,67.50850536391954 108.6941692790133,67.50052417867846 109.47285266459221,67.708034712894" stroke="#4DD2FF" stroke-linecap="round" stroke-linejoin="round" stroke-width="0.5"><title>2025-10-02 6.2km</title><desc>1759399141000</desc></polyline><polyline fill="none" points="135.91378862634883,73.83893409433585 135.66138665284961,74.75790081051673 135.3585042846098,74.76451203145189 135.25754349521594,75.26035155009959 131.99314463775954,74.65212117755436 130.80965982860653,74.26866846298435 127.44430018175626,72.66210748189405 126.48517268244177,72.32492261845982 119.80493378339452,71.02905747677141 118.77849909113138,70.96294116657009 117.2192157880927,71.07533885106022 116.61905998442671,70.95632953157838 116.17034536483698,70.7050868686274 115.80015580367763,70.35466773357257 115.50849130094866,69.87201165038277 115.20000000001164,68.95297096214199 116.02451311345794,68.17937916426672 117.66793040765333,66.88342550987727 119.35621916383388,65.08491336170482 120.8425863411976,63.76905637053642 122.93471825501183,62.39365775905753 123.17590236302931,62.2812439943591 123.68631524278317,62.26140624956679 123.93310828355607,62.12915445181352 124.71274993507541,61.223221886797546 125.21755388210295,60.052763435669476 125.80649182028719,59.52373525744406 128.46512594132219,58.05565789983302 131.51077642169548,56.739648449900415 131.51077642169548,57.17611705969466 132.088496494398,57.658874137181556 132.90179174239165,59.49728372743266 135.26876136069768,64.02032774883264 136.43541937158443,66.77763215306913 136.73830173979513,67.90828910712662 136.80000000001746,68.82073374668835 136.71025707607623,69.82572935855205 136.50272656453308,70.50012497861462" stroke="#4DD2FF" stroke-linecap="round" stroke-linejoin="round" stroke-width="0.5"><title>2025-09-30 10.1km</title><desc>1759229695000</desc></polyline><polyline fill="none" points="162.78709291902487,68.50649539211736 158.23089333731332,67.57847284547461 153.6295189722441,65.4409313847791 152.7195697639836,65.12904264233657 144.85270391398808,63.60000694874907 143.58135643863352,63.56197080826678 142.0712279653817,63.69890081707854 141.20000000001164,63.478291226230795 141.98087839860818,63.744544093700824 144.4203167015512,63.5847924950358 145.16892739766627,63.67607916758425 152.7066626830201,65.1518638170237 153.345563190931,65.34203998308658 156.75948610695195,66.9699267771939 158.54066328058252,67.7001814229152 162.6451150283683,68.52170877376193 162.80000000001746,68.47606861886743" stroke="#4DD2FF" stroke-linecap="round" stroke-linejoin="round" stroke-width="0.5"><title>2025-09-29 6.6km</title><desc>1759141711000</desc></polyline><polyline fill="none" points="187.2265637065866,75.47779533461289 187.0820077220269,76.16589648401714 186.6094208494469,76.08070343514191 183.47922779925284,75.47124195250217 179.18702702704468,73.50519509708829 178.04725868726382,73.17096074319852 171.39768339769216,71.89954251156814 169.27382239385042,72.00440276367226 168.79567567567574,71.95197266047035 168.0506563706731,71.56529923828202 167.81714285715134,71.32280785819239 167.50023166026222,70.79849883047063 167.20000000001164,69.90716299702035 167.4724324324343,69.59257072642868 169.89096525099012,67.6525487053841 171.23088803089922,66.16471915843067 172.85436293439125,64.73584380678585 174.85034749037004,63.41836443764987 175.60092664090917,63.293825093933265 175.85111969112768,63.15617604557701 176.4905019305006,62.49414526906912 177.12432432433707,61.12417725212072 177.6969884170103,60.573559305070376 181.4610038610408,58.60702548125482 184.70239382240106,57.341854725520534 185.5641698841937,57.1386382886958 187.58239382243482,56.40443124538797 188.80000000001746,55.83410351597922 185.80324324328103,56.98786435951115 184.6134362934681,57.302522565532854 183.50146718148608,57.71550896214103 183.3457915058243,58.06949504453587 183.46254826255608,58.35792660797961 183.80169884173665,58.50214187092206 184.12972972972784,59.08555463209632 185.28617760617635,61.60924126685495 187.09312741315807,65.02424340081052 187.09312741315807,65.20121519437089 187.50455598457484,65.93531485253334 188.244015444041,67.72464523762756 188.44416988419835,68.4783765375214 188.716602316621,68.54391794338153" stroke="#4DD2FF" stroke-linecap="round" stroke-linejoin="round" stroke-width="0.5"><title>2025-09-26 11.4km</title><desc>1758886655000</desc></polyline><polyline fill="none" points="32.80000000001746,93.71470535787375 28.698963875649497,92.88054291237495 24.126127135270508,90.76300589154562 23.38818258192623,90.53484966704855 16.0208345001447,89.1159852963392 14.81713805659092,89.08033504170453 13.456174740975257,89.1944157881735 12.796863623632817,89.09459514587797 11.883506020734785,88.41723676625406 11.562923550838605,87.93238646387181 11.242341080942424,87.11954113459797 11.266535984352231,86.81293895866838 11.871408569044434,86.28529464212625 11.272584710182855,86.77728744964406 11.200000000011642,86.99832649252494 11.841164939804003,88.42436689096212 12.173844861390535,88.75948187623726 12.742425091011683,89.07320498843183 13.444077289284905,89.22293594374787 15.23450013998081,89.0874650941696 16.032931951864157,89.13024539276375 22.98291795013938,90.4778104866491 24.114029683580156,90.77726562919997 28.68686642398825,92.91619109754538 30.241388966649538,93.23702389044774" stroke="#4DD2FF" stroke-linecap="round" stroke-linejoin="round" stroke-width="0.5"><title>2025-09-25 7.3km</title><desc>1758798919000</desc></polyline><polyline fill="none" points="58.80000000001746,91.03656820525066 58.39365079370327,92.46597270963684 54.234920634975424,91.65772669504804 49.38412698416505,89.42003304446553 48.16507936510607,89.04582967016177 40.67301587303518,87.61635401890817 39.39047619048506,87.59390128454834 38.031746031774674,87.72113334891765 37.20000000001164,87.53402729037043 37.91111111114151,87.75107027099875 39.53015873016557,87.63132250440685 40.882539682555944,87.69868064879847 48.48253968259087,89.13563866586628 49.168253968295176,89.34519253264443 54.17142857145518,91.66521049804578 57.834920634981245,92.38365179109678" stroke="#4DD2FF" stroke-linecap="round" stroke-linejoin="round" stroke-width="0.5"><title>2025-09-23 6.7km</title><desc>1758623965000</desc></polyline><polyline fill="none" points="84.79999999998836,92.53187544148386 80.40383544695214,91.67350453385734 75.40637179088662,89.37396528589306 74.29062789981253,89.01957773389586 66.30671203217935,87.46812733742263 65.05734611814842,87.4287499906277 63.20000000001164,87.55475742492854 66.09291679554735,87.46812733742263 74.06347046088194,88.9880765341295 75.28611197031569,89.32671371264587 80.4973708629841,91.7207545735946 84.79999999998836,92.5712500093723" stroke="#4DD2FF" stroke-linecap="round" stroke-linejoin="round" stroke-width="0.5"><title>2025-09-22 6.4km</title><desc>1758538508000</desc></polyline><polyline fill="none" points="109.8855305466277,99.55903961576041 106.12347266881261,98.8154404095003 101.69003215435077,96.80290287188836 100.83922829583753,96.52318914708667 93.99228295823559,95.18600383799276 92.66109324761783,95.12460178624315 91.32411575564765,95.24058338901159 90.7627009646385,95.13824669183305 90.21864951771568,94.851703050168 89.81350482316338,94.47646534659725 89.20000000001164,93.0573642489253 89.30418006432592,92.88679704850074 91.80450160772307,90.887714831817 93.4077170418168,89.13420110122752 95.14983922831016,87.59216012284742 97.24501607721322,86.23431383651769 98.04372990355478,86.12513898677571 98.3504823151452,85.88631833927866 98.9987138263823,85.10843905730144 99.55434083603905,83.86654157517114 100.16205787783838,83.306997296786 102.7665594855498,81.86717134472929 106.0540192926419,80.44096038424323 106.0598070739652,80.87087428634914 106.51704180066008,81.21889766360982 106.95691318329773,81.9968252753606 107.176848874602,82.63144327237023 108.61800643085735,85.42232133416474 108.65273311897181,85.64749678080625 109.48038585210452,87.01900246784498 110.80000000001746,89.97343753456516" stroke="#4DD2FF" stroke-linecap="round" stroke-linejoin="round" stroke-width="0.5"><title>2025-09-21 9.0km</title><desc>1758451095000</desc></polyline><polyline fill="none" points="135.5551401869452,98.04840706669347 135.27476635514176,99.23812016781085 135.17383177572628,99.2645579718519 131.4953271028062,98.54412369297643 127.13271028039162,96.54140365801868 126.4093457943818,96.323281643472 119.77570093458053,95.03436282600524 116.84299065420055,95.03436282600524 116.321495327109,94.81623539454085 115.80560747665004,94.36014823146616 115.5252336448466,93.91727770573561 115.20000000001164,92.972035772058 115.65420560745406,92.48949400289712 117.76261682240875,90.83031425383888 119.45607476634905,89.00582517937073 120.85794392522075,87.78285794669137 123.07850467288517,86.32848644193655 123.73457943924586,86.26237781776581 124.02056074765278,86.07066240025961 124.6934579439112,85.27073980955902 125.226168224297,84.06753059136099 125.83738317756797,83.51880637514114 128.48411214954103,82.06433262694918 131.5177570093656,80.73544202814446 131.52897196263075,81.19824305366274 131.9775700934697,81.49575613372144 132.25233644861146,82.01144201523857 133.05420560747734,83.79647467126779 134.89906542058452,87.28705339639782 136.44112149532884,90.79726240350647 136.73831775703002,91.94745620634421 136.80000000001746,92.70762979846768 136.68785046730773,93.8710074643277 136.37383177570882,94.98809343637186" stroke="#4DD2FF" stroke-linecap="round" stroke-linejoin="round" stroke-width="0.5"><title>2025-09-18 10.1km</title><desc>1758194958000</desc></polyline><polyline fill="none" points="154.8844235634606,91.21461482347513 154.82197325627203,91.38943669026776 155.29815684858477,91.52745369799231 162.80000000001746,92.99042012012796 148.95164438022766,90.23928619162325 143.09692808095133,87.51566737395478 141.20000000001164,87.00957987987931 143.0578966389876,87.5432720591707 149.0453198410105,90.27609125006711 153.61199855443556,91.19621250066848" stroke="#4DD2FF" stroke-linecap="round" stroke-linejoin="round" stroke-width="0.5"><title>2025-09-16 5.4km</title><desc>1758020593000</desc></polyline><polyline fill="none" points="188.7934065934096,92.50252732780064 184.4021978022065,91.62433699439134 179.3582417582511,89.30057769726409 178.34285714285215,89.01301693747519 170.31868131869123,87.47415858288878 167.20000000001164,87.5363353214052 167.608791208826,87.60628408745106 169.3032967032923,87.46638648675435 170.46373626374407,87.50524695890635 178.5868131868192,89.06742041334655 179.44395604394958,89.36275284430303 184.454945054953,91.66319520225079 188.80000000001746,92.53361351324565" stroke="#4DD2FF" stroke-linecap="round" stroke-linejoin="round" stroke-width="0.5"><title>2025-09-15 6.5km</title><desc>1757932870000</desc></polyline><polyline fill="none" points="32.80000000001746,123.75549773908278 28.815005599113647,122.95720798324328 24.10436730121728,120.79750028606941 23.48756998879253,120.60504762693017 15.934826427750522,119.13668648446037 14.791937290021451,119.10817429152667 13.455543113086605,119.2293510256859 12.868980963045033,119.14381453076203 12.22799552071956,118.80879551573162 11.877267637173645,118.47377478556155 11.53258678613929,117.90352278976206 11.242329227301525,117.1621877657526 11.200000000011642,116.94121127796097 11.302799552067881,116.79864540592098 13.860694288887316,114.7028912415044 15.565957446815446,112.8494472700113 17.355879059352446,111.26684970546194 19.659798432257958,109.79114991565439 20.409630459122127,109.69847200630466 20.742217245220672,109.4632121082177 21.37110862263944,108.76455651449214 21.975811870099278,107.39574025033653 22.604703247459838,106.78261534320336 25.470996640535304,105.21413012099947 27.599552071653306,104.24450226090994" stroke="#4DD2FF" stroke-linecap="round" stroke-linejoin="round" stroke-width="0.5"><title>2025-09-13 7.0km</title><desc>1757768754000</desc></polyline><polyline fill="none" points="58.80000000001746,116.63155517823907 54.02504075644538,115.69352025850822 48.771177045971854,113.26951815970824 47.911966090643546,112.98726632935723 39.284642973623704,111.31033684356953 37.20000000001164,111.31863856557902 39.3973263775988,111.37675059420872 47.658428431721404,112.97066324797925 48.665536354790675,113.26951815970824 54.06729703294695,115.74332771258196 58.77182914901641,116.6896631564232" stroke="#4DD2FF" stroke-linecap="round" stroke-linejoin="round" stroke-width="0.5"><title>2025-09-11 6.0km</title><desc>1757587445000</desc></polyline><polyline fill="none" points="82.73634059808683,123.0503144438917 79.06335529653006,122.32768589600164 74.99077546884655,120.43719630732085 74.05473897623597,120.15974736630233 67.57364419670193,118.90798482506216 66.44602128741099,118.86927009797 65.17607704005786,118.97250931397139 64.54657881401363,118.85636518333558 63.769285352289444,118.24983102347687 63.44632539284066,117.67555359511971 63.20000000001164,116.86897477195816 65.61398884950904,114.86215900030948 66.3529650279088,114.15878947034435 67.2178408515465,113.13921146806751 68.8107450583193,111.73887636178551 69.98763304614113,111.04837635498188 70.78134820074774,110.46112235001783 71.48748099344084,110.34496152723295 71.80496705527185,110.15781305570272 72.43446528134518,109.43502719841854 72.97090724788723,108.2088524398605 73.57303598581348,107.67965338396971 76.04723770910641,106.30500446718361 79.1235681703256,104.94968555610467 79.11809427270782,105.4079158977438 79.57242777498323,105.68543395766392 79.88443993919645,106.25337383902661 80.49204257479869,107.67319970775861 82.92245311709121,112.37774302910475 83.05382665991783,112.82946277590963 83.21804358845111,113.01014970987671 83.93512417637976,114.7653655239701 84.11576279779547,115.46227502301554 84.37850988341961,115.53325608592422 84.45514445009758,116.79799530973833 84.17050177397323,118.68214856037594 84.38398378106649,118.8370078060725 84.78905220478191,118.9144372771043 84.80000000001746,119.03058129391502" stroke="#4DD2FF" stroke-linecap="round" stroke-linejoin="round" stroke-width="0.5"><title>2025-09-09 10.0km</title><desc>1757415422000</desc></polyline><polyline fill="none" points="110.77024793392047,116.8406334697138 105.63801652894472,115.7973444406307 100.18595041317167,113.26358622180123 99.189256198355,112.94795677466027 90.10743801650824,111.17690192166629 89.20000000001164,111.1593665302862 92.06363636360038,111.55391191240778 99.34545454542967,113.00932926408859 105.89834710743162,115.89378348943865 110.79999999998836,116.8406334697138" stroke="#4DD2FF" stroke-linecap="round" stroke-linejoin="round" stroke-width="0.5"><title>2025-09-08 5.7km</title><desc>1757333196000</desc></polyline><polyline fill="none" points="136.80000000001746,116.79019250415149 131.95479452057043,115.87468786455429 126.30328767123865,113.26762206282729 125.482191780844,112.98859995778184 116.59068493152154,111.253409413388 115.20000000001164,111.15749326118384 116.25041095892084,111.22725047417771 125.26767123292666,112.97116104392626 126.39205479453085,113.33737743712845 131.89561643835623,115.88340700572735 136.7334246575483,116.84250673880888" stroke="#4DD2FF" stroke-linecap="round" stroke-linejoin="round" stroke-width="0.5"><title>2025-09-04 5.8km</title><desc>1756983645000</desc></polyline><polyline fill="none" points="162.80000000001746,116.51697942698229 158.54879807692487,115.66781105441623 153.46682692310424,113.34975864609441 150.71490384617937,112.7071167125032 144.71778846156667,111.56717786552326 143.49110576923704,111.54422588666785 142.00480769234127,111.6666363539407 141.20000000001164,111.48302057301044 141.56995192309842,111.65133505719132 142.0826923077111,111.72019086628279 143.49110576923704,111.58247918060079 144.7956730769656,111.62073245370266 152.9346153846418,113.20439967566926 153.80432692312752,113.5180686571548 158.56177884619683,115.72136251629126 161.22932692308677,116.2033238362128" stroke="#4DD2FF" stroke-linecap="round" stroke-linejoin="round" stroke-width="0.5"><title>2025-09-02 6.2km</title><desc>1756809719000</desc></polyline><polyline fill="none" points="188.79999999998836,116.79810107860249 183.92523364484077,115.84633443273924 177.33831775700673,112.92927618528483 168.41869158879854,111.20190511226247 167.20000000001164,111.11377294633712 168.37383177570882,111.21953153395589 176.8822429906577,112.86758499624557 178.03364485982456,113.21129245055636 184.04485981308972,115.96089952903276 188.79252336447826,116.88622705366288" stroke="#4DD2FF" stroke-linecap="round" stroke-linejoin="round" stroke-width="0.5"><title>2025-08-29 5.7km</title><desc>1756465472000</desc></polyline><polyline fill="none" points="32.80000000001746,140.69108327425056 28.120118538063252,139.76893212165305 22.593875535123516,137.2371512494792 21.733289430383593,136.97726174526906 13.056305564736249,135.29215044338343 11.200000000011642,135.29215044338343 13.148765228892444,135.36760397723992 21.9679947316763,137.06948070205544 28.01343431021087,139.77731536370266 32.686203490331536,140.70784955661657" stroke="#4DD2FF" stroke-linecap="round" stroke-linejoin="round" stroke-width="0.5"><title>2025-08-27 6.0km</title><desc>1756291993000</desc></polyline><polyline fill="none" points="57.82437728330842,140.7016389829805 54.187313184986124,140.03364897720166 52.60909996679402,139.62777882525552 47.63055463301134,137.29398427699925 46.60471604115446,136.9642033035343 38.51278644966078,135.3829263534426 37.20000000001164,135.2391723063265 39.35928263035021,135.55204842100648 46.59036864826339,136.97265924344538 47.47273331118049,137.25170474329207 52.200199269340374,139.5009439676578 53.383859182999004,139.91527040204528 57.817203586833784,140.7608276936735 57.989372301555704,140.10129379624414 58.79999999998836,140.23658325758151 58.39827299900935,140.1435717782515 58.42696778476238,139.94063725476735" stroke="#4DD2FF" stroke-linecap="round" stroke-linejoin="round" stroke-width="0.5"><title>2025-08-26 6.0km</title><desc>1756205162000</desc></polyline><polyline fill="none" points="84.80000000001746,142.03366518364055 80.67795473599108,141.2227087659994 76.1937971500738,139.15970407468558 75.26437552392599,138.868032636914 67.85314333613496,137.43811235302564 65.37870913665392,137.5448239029356 64.72087175189517,137.39542768424144 64.08717518861522,137.01126440985536 63.76127409894252,136.61998467792728 63.22414082149044,135.28250171059335 63.61642917015706,134.84852528753981 64.71483654654003,133.96633481635217 63.411232187761925,135.00504170701606 63.20000000001164,135.296730396949 63.54400670583709,136.28561650399206 63.82766135793645,136.7551543048976 64.8234702431073,137.459454676944 65.44509639567696,137.5875084740619 66.79698239735444,137.466568783384 67.91349538977374,137.48791109801095 75.3790444258484,138.92494423925382 76.19983235542895,139.2023875904706 80.6055322716129,141.2227087659994" stroke="#4DD2FF" stroke-linecap="round" stroke-linejoin="round" stroke-width="0.5"><title>2025-08-23 7.3km</title><desc>1755948655000</desc></polyline><polyline fill="none" points="110.80000000001746,139.86660195981676 110.4732350659906,140.9924404991616 104.95174553923425,139.90610530306003 98.19022498067352,136.8247928511555 91.61303335923003,135.40261332724913 89.20000000001164,135.00755950083112 97.76291698994464,136.7359072844265 104.70876648570993,139.86660195981676 109.22482544611557,140.78505023948674" stroke="#4DD2FF" stroke-linecap="round" stroke-linejoin="round" stroke-width="0.5"><title>2025-08-19 5.0km</title><desc>1755607675000</desc></polyline><polyline fill="none" points="136.17765697199502,143.62319830062916 132.2557216635032,142.84812591182708 127.7055721663346,140.74431034366717 126.93645012233173,140.52285202134226 119.75602065777639,139.1456407539372 117.07290024464601,139.2217687893717 116.18635498775984,138.80652385158464 115.5757542810461,138.06599697712954 115.23522696385044,136.95865096800117 117.77743952162564,134.88924637516902 120.1728730633331,132.37680169937084 119.46833378632437,133.00665253549232 117.84789344930323,134.76466468319995 115.20000000001164,136.96557194050547 115.32916553411633,137.49156364409282 115.82234302800498,138.45356352069211 116.23919543356169,138.8411277000705 116.96134819247527,139.19408587795624 117.36058711606893,139.25637241168442 118.74618102746899,139.1317992831464 119.90279967384413,139.1456407539372 122.81489535202854,139.69929711287114 123.06735525958356,139.6093282828515 124.2239739059587,139.82386912876973 124.57037238380872,139.97612348318216 126.325849415618,140.2391074178522 127.45898341940483,140.60589898267062 128.04609948355937,140.5920578299847 128.03435716227978,140.75123090381385 128.41011144334334,140.73738978277106 128.12829573254567,140.92424466224475 128.55689045938198,141.18722467280168 131.99739059529384,142.73740051314235 132.65496058712597,142.9242495115177 132.8604512095626,142.82736491427204 133.98184289206984,142.91040886379778 133.98184289206984,143.17338065471267 135.88409893994685,143.55399579311052 136.21875509648817,143.5885970562813 136.31269366675406,143.11109796047822 136.62973634139053,143.05573551435373 136.80000000001746,142.4813472897149" stroke="#4DD2FF" stroke-linecap="round" stroke-linejoin="round" stroke-width="0.5"><title>2025-08-16 10.0km</title><desc>1755297330000</desc></polyline><polyline fill="none" points="154.19901477830717,137.24753434462036 153.80886699509574,139.23331854348362 162.79999999998836,140.99958680506097 147.88571428571595,138.0418529547751 141.20000000001164,135.00041319493903 147.68177339900285,138.03140143680503 153.31231527094496,139.16015880200575" stroke="#4DD2FF" stroke-linecap="round" stroke-linejoin="round" stroke-width="0.5"><title>2025-08-13 5.0km</title><desc>1755095249000</desc></polyline><polyline fill="none" points="188.67905935054296,142.02019168320112 184.71825307953986,141.22902860980685 180.21321388578508,139.15485298719432 179.37267637180048,138.88399358588504 171.97110862264526,137.45839931203955 169.34669652860612,137.54393584423815 168.7661814110179,137.42275905729184 168.1675251959823,137.06635544217716 167.85307950730203,136.75271865519608 167.56282194849337,136.26800430037838 167.2181410974299,135.29856481918978 167.96797312435228,134.55721905414975 168.83874580069096,133.89427774654905 168.17961926094722,134.35762452844938 167.20000000001164,135.30569310308056 167.84098544236622,136.7598467807038 168.34288913776982,137.2303013462224 168.76013437853544,137.44414321246586 169.34669652860612,137.5724479967903 171.40268756999285,137.45127126263105 172.14647256440367,137.50116759210505 179.71735722286394,139.01942342666007 184.6033594625187,141.22902860980685 188.80000000001746,142.10572225345095" stroke="#4DD2FF" stroke-linecap="round" stroke-linejoin="round" stroke-width="0.5"><title>2025-08-12 8.1km</title><desc>1754996616000</desc></polyline><polyline fill="none" points="32.80000000001746,164.50519530386373 28.444686648464995,163.63418363803794 23.52697547682328,161.36796146939741 22.716076294280356,161.09816828244948 18.09264305178658,160.1269042935819 14.607084468676476,159.525638953819 13.377656675758772,159.49480469613627 11.821253406000324,159.6258501985285 11.200000000011642,159.5179303906698 11.76893732973258,159.6258501985285 13.312261580402264,159.51022182664747 14.62016348776524,159.53334751616057 22.644141689350363,161.10587667349319 23.57929155312013,161.4373366940854 28.24196185285109,163.58793493131816 32.42724795639515,164.45123914040596" stroke="#4DD2FF" stroke-linecap="round" stroke-linejoin="round" stroke-width="0.5"><title>2025-08-10 6.4km</title><desc>1754781124000</desc></polyline><polyline fill="none" points="56.65803187454003,171.03750738702365 53.062585378211224,170.3161586319111 48.986288894491736,168.43545800479478 48.21037186947069,168.17782312410782 41.49486465976224,166.86386777273583 40.89380217556027,166.82522158513893 39.0141158613842,166.93471905110346 38.60430053123855,166.83810365048703 38.03055906906957,166.50961010754327 37.631672147719655,166.05873364591753 37.25464204401942,165.17629405068146 37.20000000001164,164.84135002636322 39.58785732355318,162.88317775850373 41.2380470528733,161.10530729045058 42.795345307386015,159.74610213850974 44.756994687602855,158.4641691164652 44.97556286366307,158.36109791726267 45.527447508240584,158.341772047399 45.740551479917485,158.20004880871056 46.34161396409036,157.5365218534207 46.95906906147138,156.20944559690906 47.516417910461314,155.68118365039845 50.01355932204751,154.33473855480042 53.10083480901085,152.96249261297635 53.10083480901085,153.4327964541444 53.64725524917594,153.78713249244902 53.81118138122838,153.99329066438804 53.89860865168157,154.32829616001982 55.8274728054821,157.7619930135079 56.6197824437113,159.50131305557443 57.117025044281036,160.19058498719096 57.122489248693455,160.39027909205834 57.34652162916609,160.7316900314072 57.75087275489932,161.91050887255915 58.06233240576694,162.46448119306297 58.3246142170392,163.6110585758106 58.41204148749239,164.77049623961648 58.16615228939918,166.43231724398356 58.231722742231796,166.52893330763254 58.79999999998836,166.70284182440082 58.734429547184845,167.21812331564797" stroke="#4DD2FF" stroke-linecap="round" stroke-linejoin="round" stroke-width="0.5"><title>2025-08-08 10.0km</title><desc>1754654808000</desc></polyline><polyline fill="none" points="84.80000000001746,165.02405471847305 79.03715415022452,163.8466667746834 72.42909090910689,160.79746415981208 65.60758893282036,159.32817548953608 63.20000000001164,158.97594528153422 72.27541501977248,160.79746415981208 79.207905138348,163.9472988091875 84.65486166009214,164.99386547139875" stroke="#4DD2FF" stroke-linecap="round" stroke-linejoin="round" stroke-width="0.5"><title>2025-08-07 5.0km</title><desc>1754573743000</desc></polyline><polyline fill="none" points="110.80000000001746,165.03482033329783 105.089850511431,163.89303733305132 98.56396538161789,160.89829351959634 97.73123524783296,160.6478924617768 89.20000000001164,158.96517966670945 91.46876475214958,159.44595789298182 91.6557041699707,159.3658283631521 92.15704169948003,159.576168230029 98.09661683713784,160.78811713816685 105.16632572779781,163.9731629183516 110.41762391818338,165.02480475455377" stroke="#4DD2FF" stroke-linecap="round" stroke-linejoin="round" stroke-width="0.5"><title>2025-08-04 5.0km</title><desc>1754309955000</desc></polyline><polyline fill="none" points="136.80000000001746,164.51361564642866 132.48262056417298,163.64874102436443 127.50354868063005,161.36295016977238 126.75668789810152,161.115833231117 118.8556869882159,159.5558876769428 117.4667879891349,159.48638435357861 115.77652411288,159.61766835161689 115.20000000001164,159.49410694841936 115.32447679713368,159.58677802101738 116.11719745225855,159.64083609075897 118.40363967246958,159.51727472792845 121.5417652411852,160.13507938863768 122.04622383989044,160.14280191283615 122.91756141951191,160.4053672348964 126.67151956327143,161.1235556485044 127.71319381255307,161.49423069309705 132.40400363970548,163.64101888203004 136.35450409466284,164.43639512691152" stroke="#4DD2FF" stroke-linecap="round" stroke-linejoin="round" stroke-width="0.5"><title>2025-08-03 6.5km</title><desc>1754227262000</desc></polyline><polyline fill="none" points="160.29813566044322,164.52988705886673 154.56612455376307,163.3886921075973 147.34327647759346,160.1771123592407 141.20000000001164,158.92476810025255 147.87449424833176,160.31850500328437 154.7888932963251,163.47958425558318 162.80000000001746,165.07523189974745 160.4780642602127,164.5500850731114 160.4780642602127,164.39859985899238" stroke="#4DD2FF" stroke-linecap="round" stroke-linejoin="round" stroke-width="0.5"><title>2025-08-01 5.0km</title><desc>1754057984000</desc></polyline><polyline fill="none" points="186.73348519363208,171.0162999546592 183.04874715264305,170.28814205905292 178.9922551253112,168.41937724771196 178.12300683371723,168.14227950954955 171.562642369041,166.87276862803992 170.36537585422047,166.83410289452877 169.17357630981132,166.937211461056 168.6050113895326,166.83410289452877 168.13485193622182,166.56988637257746 167.7904328018194,166.24122514968622 167.39681093394756,165.49367517665814 167.20000000001164,164.84278345534403 169.61093394079944,162.8449522582123 171.28382687928388,161.05973632922542 172.81457858771319,159.7191777552871 173.96810933944653,159.055332212778 174.87015945333405,158.39147921887343 175.50979498864035,158.3270270750363 175.73940774489893,158.18523211134743 176.43917995446827,157.37957245507278 176.98587699318887,156.16783966410003 177.52164009114495,155.68442869662977 180.08018223237013,154.27929171338837 183.07608200455434,152.98370004533717 183.12528473805287,153.40267558108462 183.562642369041,153.70562527287257 184.01640091117588,154.51778061822552 184.295216400933,155.29769707735613 184.9840546697087,156.72214604322653 186.77722095674835,160.08010036033738 187.01776765377144,160.8019389631554 187.7284738041344,162.29070326044166 188.2095671981806,163.94699006919473 188.24236902053235,164.97811796731185 188.17676537585794,165.35189739197813 188.34624145785347,165.4743418623948 188.18769931662246,166.4474441696184 188.80000000001746,166.67943970779743 188.77813211845933,166.99520995076819" stroke="#4DD2FF" stroke-linecap="round" stroke-linejoin="round" stroke-width="0.5"><title>2025-07-28 10.0km</title><desc>1753704756000</desc></polyline><polyline fill="none" points="30.67911468812963,188.64850022056635 24.94229376257863,187.50101867973717 18.37102615693584,184.48881304280803 17.301891348091885,184.13021070905234 11.200000000011642,182.9109525488093 17.97118712271913,184.3658638252382 23.62977867203881,187.02972756374947 25.098752515099477,187.5829821110965 32.80000000001746,189.0890474511907 30.766036217304645,188.6280096015107 30.870342052308843,187.96206205222552" stroke="#4DD2FF" stroke-linecap="round" stroke-linejoin="round" stroke-width="0.5"><title>2025-07-22 5.0km</title><desc>1753194638000</desc></polyline><polyline fill="none" points="49.48612099644379,187.1401546342022 56.641281138785416,188.55959383404843 58.79999999998836,188.68794594610517 56.91672597863362,188.58224422403146 45.123843416396994,186.27186633085512 39.980071174388286,183.93875954568648 37.20000000001164,183.3120540539021 39.94804270466557,183.95386081294419 44.771530249126954,186.18126170744654 46.7572953736817,186.6040822703726" stroke="#4DD2FF" stroke-linecap="round" stroke-linejoin="round" stroke-width="0.5"><title>2025-07-19 6.4km</title><desc>1752877000000</desc></polyline><polyline fill="none" points="82.82187738490757,195.0751299532094 79.14586619182955,194.34326736212824 74.96982955993735,192.43261018522753 74.25550750448019,192.20591797190355 67.46944797763717,190.89756316830972 65.11767997968127,190.97528802030865 64.60666497074999,190.87813193944385 64.12861867211177,190.59961696116443 63.66156194356154,190.10735473936438 63.25494785045157,189.19406798113778 63.20000000001164,188.86372676291649 65.60122106334893,186.87516339694048 67.18921394049539,185.15211985727365 68.75522767746588,183.7853091993129 70.66741287207697,182.5091590315169 71.00259475962957,182.3472090816722 71.51360976856085,182.32129704875115 71.87626558128977,182.09456627885083 72.46970236583729,181.38845634044628 73.00269651491544,180.17703718100165 73.56865937425755,179.65229715399255 76.34902060547029,178.1363554955169 79.1898244722106,176.92487004679424 79.19531925721094,177.39132726105163 79.63490206058486,177.68286116075615 79.92612566778553,178.22057549097008 80.52505723736249,179.5939924205668 82.37130501147476,183.0662634894361 82.85484609517152,184.22580137409022 82.98672093616915,184.34887948657342 83.81643347750651,186.47355620815142 84.00325616894406,186.73913545940377 84.29997456120327,187.84678247145348 84.3549224116432,188.57872502147075 84.26700585096842,189.69281497062912 83.99776138391462,190.7356360670201 84.80000000001746,190.91699439083095" stroke="#4DD2FF" stroke-linecap="round" stroke-linejoin="round" stroke-width="0.5"><title>2025-07-17 10.0km</title><desc>1752756134000</desc></polyline><polyline fill="none" points="110.80000000001746,189.04800965903996 105.0735677597695,187.901264471162 97.81098380088224,184.67219495613244 89.20000000001164,182.95199034095276 98.19502173058572,184.8331481348141 104.91141841173521,187.8912052398373 110.53544053732185,189.03795055260707" stroke="#4DD2FF" stroke-linecap="round" stroke-linejoin="round" stroke-width="0.5"><title>2025-07-14 5.0km</title><desc>1752500928000</desc></polyline><polyline fill="none" points="136.80000000001746,189.02579080695432 131.074902267399,187.90110282981186 125.15559030493023,185.15401913993992 123.7538702111342,184.64639681034168 115.20000000001164,182.9742091930384 124.31118060986046,184.79569778821315 131.17623143081437,187.9409150298743 136.19202501958353,188.94616733459407" stroke="#4DD2FF" stroke-linecap="round" stroke-linejoin="round" stroke-width="0.5"><title>2025-06-21 5.0km</title><desc>1750468889000</desc></polyline><polyline fill="none" points="155.97842552216025,187.32652039654204 161.59531787928427,188.44843585718627 162.80000000001746,188.512711553376 161.76387422537664,188.44843585718627 152.58251090199337,186.6545285494758 151.5959605232929,186.26885986236448 148.64622446638532,184.8664049041945 148.1256828092737,184.6969391143175 142.10722974524833,183.52819495340736 141.20000000001164,183.487288446624 142.00312141384347,183.50481981051053 144.34803764056414,183.93725830582844 148.56690383292153,184.84887398521823 151.70502639430924,186.333138169397 152.50814780814108,186.64284166029756 153.3806747762137,186.8181447307834" stroke="#4DD2FF" stroke-linecap="round" stroke-linejoin="round" stroke-width="0.5"><title>2025-06-17 8.1km</title><desc>1750165544000</desc></polyline><polyline fill="none" points="188.80000000001746,189.01272125003015 183.35406032484025,187.9297464837873 176.2542923433939,184.75950941166957 167.20000000001164,182.98727874996985 176.27099767985055,184.79889192064002 183.2371229698474,187.9199011991368 187.83109048724873,188.85519845389354" stroke="#4DD2FF" stroke-linecap="round" stroke-linejoin="round" stroke-width="0.5"><title>2025-06-15 5.0km</title><desc>1749939796000</desc></polyline><polyline fill="none" points="26.125558629486477,211.2381025305258 31.223324111488182,212.25669126443972 32.79999999998836,212.35421462386876 31.558884869125905,212.2783631386119 23.02736752500641,210.62043750358134 22.19536071503535,210.30618393271288 19.414343477314105,208.98412992807425 18.79378591189743,208.77823310975873 13.185784209432313,207.69455159916106 12.50546924880473,207.64578537613124 11.200000000011642,207.74873623537133 13.052479250909528,207.6837146648504 18.554756331141107,208.74572300792715 19.22128112363862,208.9299466374432 20.811747180268867,209.68308908626568" stroke="#4DD2FF" stroke-linecap="round" stroke-linejoin="round" stroke-width="0.5"><title>2025-06-11 8.1km</title><desc>1749642919000</desc></polyline><polyline fill="none" points="58.80000000001746,213.00608965243737 53.18852268322371,211.92017544324335 46.13648701045895,208.7709506707979 37.20000000001164,206.9939103475699 46.23699108182336,208.81044006006414 53.2471500581305,211.96953546222358 57.87033734007855,212.89749881689204" stroke="#4DD2FF" stroke-linecap="round" stroke-linejoin="round" stroke-width="0.5"><title>2025-06-08 5.0km</title><desc>1749387304000</desc></polyline><polyline fill="none" points="71.56811188790016,215.80507788300747 73.89426573412493,214.4161593648605 78.78825174819212,213.52582387713483 81.26545454538427,211.67391829402186 83.95412587397732,211.74514562575496 84.67916083906312,211.13971281045815 79.90601398586296,203.37582789201406 76.67356643348467,204.01688959554303 73.59216783207376,205.83322426024824 71.87020979018416,205.83322426024824 69.12111888104118,207.11533676987165 64.61986013967544,208.0413037876715 64.77090909087565,210.96164412194048 63.199999999953434,212.92039436011692 64.52923076902516,214.38054599188035 65.10321678326,216.1968230647617 65.94909090909641,216.73102028301219 71.20559440541547,215.62701173621463 73.98489510489162,214.38054599188035 78.03300699288957,213.84634493212798 81.41650349646807,211.67391829402186 83.80307692289352,211.7807592859317 84.76979020971339,210.96164412194048 79.90601398586296,203.268984152528 76.31104895088356,204.0525040977227 73.65258741239086,205.7976099521038 71.23580419563223,206.04691002782783 68.27524475508835,207.36463584043668 64.71048951032571,207.97007564865635 64.80111888097599,211.13971281045815 63.199999999953434,212.92039436011692 64.61986013967544,214.45177273399895 65.34489510476124,216.30366257813876 66.37202797201462,216.80224651284516 74.64951048931107,214.27370584977325 78.12363636342343,213.88195836322848 81.11440559430048,211.85198659449816 83.8937062935438,211.81637294217944 84.79999999993015,210.9260303725314 79.57370629359502,203.16214037805912 76.00895104883239,204.26619102951372 73.53174825175665,205.7976099521038 64.86153846140951,207.7920052332629 64.83132867130917,210.96164412194048 63.23020979005378,212.84916728449753 64.5896503495751,214.38054599188035 65.10321678326,216.08998351631453 66.64391608373262,216.83785962194088 78.84867132850923,213.13407549422118 80.35916083899792,211.10409908054862 79.90601398586296,209.0741100589512 77.91216783213895,206.5811238354363 76.2204195803497,205.72638132420252 74.7703496501781,205.65515268064337 73.10881118872203,206.3318241672241 70.42013986012898,209.57270502179745 66.13034965039697,210.2849822207354 63.562517482438125,212.31496372175752 63.47188811178785,213.1696890029125 64.92195804184303,214.91474617866334" stroke="#4DD2FF" stroke-linecap="round" stroke-linejoin="round" stroke-width="0.5"><title>2025-06-04 6.4km</title><desc>1749041988000</desc></polyline><polyline fill="none" points="110.80000000001746,213.02583408370265 105.26390073672519,211.92017610020412 98.95727025982342,209.00788740523421 98.00248158205068,208.69197249761783 89.20000000001164,206.97416591629735 98.25374176041805,208.7906960245091 105.13827064755606,211.90043208508723 109.73633191161207,212.84813996011508" stroke="#4DD2FF" stroke-linecap="round" stroke-linejoin="round" stroke-width="0.5"><title>2025-05-28 5.0km</title><desc>1748436903000</desc></polyline><polyline fill="none" points="136.79999999998836,213.01637612426566 130.8018987341784,211.78770070353494 123.85537974681938,208.64544012295664 115.20000000001164,206.97355283317302 123.57341772151995,208.5850109884268 124.61582278483547,208.91737073962577 131.3060126582568,211.97905286680907 136.69746835445403,213.0264471668197" stroke="#4DD2FF" stroke-linecap="round" stroke-linejoin="round" stroke-width="0.5"><title>2025-05-27 5.0km</title><desc>1748351986000</desc></polyline><polyline fill="none" points="157.19581204431597,214.45578841456154 157.2246776667307,213.1626589143707 157.9030197947286,211.6270492523763 158.3504369430011,208.7780363625352 158.32157132046996,209.04071418463718 157.67209481500322,209.1215380124122 154.51130915473914,211.36437717988156 153.31338582234457,211.64725477226602 152.83710305159912,210.8592369375765 153.38554987846874,209.97018486620073 154.39584666490555,209.1821558469601 154.23708574130433,207.82835013359727 154.71336851204978,206.95948157824023 154.0783248177613,206.5957672625882 151.75464220903814,206.63618001966825 151.14846413722262,205.7470961722065 151.35052349453326,204.6963520907011 151.79794064274756,204.83779895362386 151.75464220903814,204.1507697474808 152.41855152585777,204.55490505843773 153.6309076694888,204.5144915895362 154.59790602215799,205.16110543303512 155.91129184444435,205.20151868082758 156.4453058601357,204.93883232351072 157.75869168242207,203.1000114697017 157.81642292730976,200.0285106150841 157.3401401565643,199.48290671690484 156.58963397244224,199.20000000000437 155.6659340534825,199.46269911674608 154.84326381311985,200.3720377028294 154.20822011877317,200.59431940383365 152.9092671077815,200.35183025470178 151.53815004054923,199.60415224537428 150.28249546320876,200.0285106150841 149.64745176886208,200.9984668797042 149.67631739139324,202.0290366859117 150.22476421826286,202.79690638375905 151.46598598436685,203.38290884834714 151.75464220903814,204.09014933164144 151.19176257093204,205.40358471209038 151.59588128549512,206.61597364289628 151.69691096415045,208.293091156811 151.16289694840088,210.11162541596423 151.58144847425865,210.6167688542264 152.80823742918437,210.91985388064495 153.28452019981341,211.64725477226602 152.18762654607417,213.4253269894034 150.83094229002018,213.97086651033896 148.56499092635931,215.62767480068578 146.91965044569224,216.3348419972026 146.5443973536021,217.3046644135029 145.62069743458414,218.314887633358 146.41450205253204,220.5777563064912 147.13614261418115,220.73938812506094 148.08870815561386,220.15347173099872 149.20003462064778,220.61816428192105 150.00827204977395,220.51714431757864 150.64331574406242,219.85041038726922 151.1051657035714,218.17345690245565 152.20205935731065,217.56732328148792 154.71336851204978,218.35529638252774 155.6659340534825,217.8905949329128 157.15251361054834,217.8097771030225 157.2391104779672,213.32430087586545 158.37930256547406,209.32359733997146 158.20610883063637,209.04071418463718 157.77312449360033,209.08112610545504 154.5257419659756,211.38458274463483 153.356684256054,211.6270492523763 152.07216405618237,213.48594261614198 150.7010469889501,214.03148185720784 148.55055811512284,215.62767480068578 147.0062473131111,216.23381837109628 146.5443973536021,217.36527805028163 145.62069743458414,218.39570511781494 146.34233799629146,220.47673630766803 146.81862076703692,220.8000000000029 148.002111288195,220.15347173099872 149.3587955441908,220.63836826438637 150.2680626519723,220.274696050903" stroke="#4DD2FF" stroke-linecap="round" stroke-linejoin="round" stroke-width="0.5"><title>2025-05-23 6.4km</title><desc>1747958832000</desc></polyline><polyline fill="none" points="179.96246414014604,211.00872796052136 180.54702792642638,211.56406884160242 182.0084373925347,211.79789604120015 182.73914212547243,212.73320164064353 182.55124662269372,216.41591768682702 182.19633289519697,217.08815094071906 180.9228189321002,217.46810769736476 179.67018224694766,217.02969598017808 178.50105467403773,217.29274314538634 176.51771325594746,216.1236415344465 175.3277084050933,216.59128313840483 174.45086272549815,216.44514527462889 174.7013900624588,215.59754320059437 174.07507171994075,213.96078247261175 174.26296722271945,212.7916580706369 173.59489432396367,211.68098248133902 173.88717621716205,209.92726948737982 178.10438639041968,209.7518971982936 179.54491857835092,210.27801352569077 180.29650058946572,211.47638355921663 181.9040510019986,211.7686676587182 182.61387845687568,212.44091919057246 182.55124662269372,216.50360043509863 182.2380874514347,217.08815094071906 181.0063280443428,217.43888028456422 179.81632319348864,217.05892346295877 178.45930011791643,217.2635157025943 176.47595869982615,216.1528691721469 173.94980805146042,216.67896579670196 172.5927849757718,217.789608908628 173.03120781562757,218.11110951520095 173.36524426494725,219.86473854215 175.4112175173359,220.8000000000029 176.28806319704745,220.1862352454482 176.8726269834442,218.9879262775794 176.78911787108518,218.05265490441525 175.70349941053428,216.32823489353177 176.78911787108518,216.1528691721469 178.4801773960935,217.2635157025943 179.81632319348864,216.88355849117215 179.6493049687706,216.44514527462889 178.29228189319838,216.4743728573667 177.56157716026064,215.53908773019793 178.25052733707707,212.7916580706369 176.45508142164908,210.04418424681353 176.5803450901294,207.8520191990101 177.0605224862229,206.91668688764912 178.02087727806065,206.36133090594376 179.8372004715493,206.94591609992494 181.31948721560184,206.56593595127924 179.6493049687706,208.20276749618642 177.91649088764098,208.11508048939868 176.8726269834442,207.32589540380286 175.26507657091133,206.97514530709304 175.30683112703264,203.40914513079042 176.01665858190972,201.91841808597383 176.05841313803103,199.69691836352285 176.4968359778868,199.25846105888195 177.83298177528195,199.1999999999971 181.6744009430986,199.7553792525141 182.4677375103347,200.4569083602546 182.73914212547243,201.91841808597383 183.4072150242282,202.6491682620399 182.96879218437243,203.2337661533238 183.24019679962657,203.6137537103641 181.92492828017566,204.40295593701012 181.77878733351827,206.24441362716607 179.8372004715493,208.1443094966089 178.31315917125903,208.20276749618642 176.80999514914583,207.2382079470699 175.34858568315394,207.0628328987077 175.28595384897199,203.6137537103641 176.18367680651136,200.63229018718994 177.12315432040486,200.28152635325387 177.14403159846552,199.40461361879716 181.42387360602152,199.66768791159848" stroke="#4DD2FF" stroke-linecap="round" stroke-linejoin="round" stroke-width="0.5"><title>2025-05-20 5.0km</title><desc>1747754393000</desc></polyline><polyline fill="none" points="29.93807531381026,235.50943188689416 31.95648535573855,235.75803220368107 32.800000000046566,234.87017305917107 27.79916317993775,227.34103029518155 24.30460251052864,228.19339481042698 21.593305439455435,229.79157226829557 19.906276150606573,229.8626021956734 15.809205021010712,231.42525668095914 12.525523012503982,231.8869486177864 12.796652719727717,234.90568747132784 11.199999999953434,236.96551675893716 12.525523012503982,238.13748278471758 13.007531380746514,239.77112536533969 13.730543932993896,240.48140219444758 15.086192468646914,240.69448494134122 21.86443514644634,238.4926231727295 25.901255230186507,237.92439836624544 29.395815899712034,235.6159749031358 31.95648535573855,235.68700356120826 32.73974895407446,235.01223068480613 27.919665271998383,227.3765455277753 26.59414225933142,227.41206075649825 21.713807531399652,229.72054232555092 19.484518828452565,229.96914705770905 16.682845188188367,231.24768268488697 12.284518828499131,232.06452226548572 12.91715481178835,234.40848534819088 11.199999999953434,236.93000257120002 12.465271966531873,237.99542652114178 12.856903765699826,239.48701420042198 13.760669456096366,240.44588838977506 15.086192468646914,240.6234573746042 22.436820083647035,238.20851089328062 26.38326359842904,237.71131380842417 29.245188284432516,235.68700356120826 31.98661087860819,235.68700356120826 32.73974895407446,234.94120187975932 27.919665271998383,227.41206075649825 26.865271966555156,227.30551505862968 24.15397489548195,228.19339481042698 21.804184100357816,229.72054232555092 19.876150627504103,229.79157226829557 16.261087866150774,231.31871229488752 12.676150627667084,231.9579780884087 12.856903765699826,234.76362979930127 11.260251046041958,236.8589741839969 12.465271966531873,238.0664546606713 13.308786610839888,240.16177781298757 15.206694560707547,240.5879435853276 21.322175732348114,238.52813719018013" stroke="#4DD2FF" stroke-linecap="round" stroke-linejoin="round" stroke-width="0.5"><title>2025-05-14 5.0km</title><desc>1747227249000</desc></polyline><polyline fill="none" points="44.84912879986223,244.5657792665006 45.289115318853874,244.16425717812672 45.9278054269962,241.78856334467127 47.84387575130677,242.0897096671397 48.87997303780867,237.940530582855 48.68126944859978,235.2803124412021 46.68004044319969,230.27763905530446 46.76519912428921,229.15661631387775 48.15612424869323,228.4036859980697 50.22831882163882,228.05231725392514 51.56247149192495,227.1320619709586 52.65534123242833,227.23245372438396 53.066941524331924,226.79742231886485 50.86700892972294,223.28366194137197 50.31347750267014,223.1999999999971 48.79481435677735,223.75216797077155 47.84387575130677,224.40472755806695 47.020675167499576,224.42145981872454 45.34588777291356,225.09074874941143 43.628521037695464,225.3417313463433 43.74206594581483,226.64683423747192 42.93305847560987,227.6674838973995 43.07498961070087,228.03558538887592 43.557555470149964,228.3534905123961 44.04012132965727,229.47451911665848 44.650425210711546,229.54144593863748 50.10058079997543,227.90173040317313 50.71088468108792,227.36630929342937 50.93797449732665,226.64683423747192 50.66830534051405,225.70983841306588 49.717366735159885,224.68917574104853 48.553531426994596,224.3210662275087 47.53162725403672,224.60551456546818 46.16908835666254,226.14487289974932 44.22463180532213,226.47951397389988 43.10337583773071,227.48343282069254 43.13176206481876,228.03558538887592 44.650425210711546,229.2068115370639 46.38198505935725,229.02276230535062 50.05800145951798,227.90173040317313 50.852815816237126,227.1655258960527 50.89539515681099,226.36238968090038 50.31347750267014,225.30826702379272 48.93674549186835,224.3712630312948 47.020675167499576,224.4381920775486 45.218149751250166,225.15767748204235 43.60013481072383,225.47558856359683 43.72787283232901,226.71376229186717 42.94725158903748,227.73441150695726 43.57174858369399,228.3534905123961 43.883997080964036,229.25700674376276 44.60784587013768,229.5581776395993 45.459432680974714,229.1231528227363 47.03486828098539,228.85544463057886 46.66584732971387,229.54144593863748 46.70842667017132,230.0768594644178 48.49675897293491,234.5608744619094 48.922552378324326,236.635523667268 48.7664281296893,238.96110518751084 48.056772454001475,241.62125957709213 46.225860810722224,241.35357316986483 45.50201202154858,243.79619434167398 44.948480594553985,244.03041624870093 44.721390778315254,244.8000000000029 44.42333539453102,244.6828896779043" stroke="#4DD2FF" stroke-linecap="round" stroke-linejoin="round" stroke-width="0.5"><title>2025-05-06 7.1km</title><desc>1746539597000</desc></polyline><polyline fill="none" points="71.45347489148844,244.8000000000029 71.30712287366623,244.6274877092219 71.99497735709883,242.33305637346348 73.736566368083,242.74709155347955 74.0439056053292,242.21229590872827 74.95128811523318,238.39966817792447 74.92201771168038,236.50194595467474 72.33158699789783,229.32489991177863 71.62909731274704,229.16962368618988 70.63390359218465,229.65270477702143 70.01922511763405,229.53193464246579 68.86304417758947,227.73762465019536 69.65334507334046,226.87496837794606 69.46308745030547,225.4947085664462 70.48755157442065,225.44294858943613 73.9121887893998,224.47675924643409 75.02446412411518,223.7866203917074 76.85386434575776,223.23450714204228 79.21013183129253,226.8404620292422 78.91742779582273,227.30629710154608 77.62953003979055,227.18552517735225 76.25382107304176,228.18620405446563 74.1609872194822,228.49675828219915 72.93163027049741,229.08335905056447 71.36566368083004,229.29039409707184 70.41437556553865,229.68721051278408 69.79969709110446,229.4284173109627 69.44845224852907,228.4622522869613 68.89231458114227,228.04817975770857 68.89231458114227,227.7203715708165 69.65334507334046,226.70243655948434 69.44845224852907,225.5119618883473 71.05832444352563,225.30492190139194 73.8682831840706,224.4077454963408 76.53188990673516,223.1999999999971 76.94167555635795,223.3380285230378 79.19549662945792,226.8404620292422 78.97596860287013,227.2717908469058 77.73197645210894,227.18552517735225 75.93184663401917,228.3069752153824 74.46832645667018,228.41049327999644 70.48755157442065,229.65270477702143 69.87287309992826,229.48017598518345 69.47772265202366,228.4622522869613 68.89231458114227,228.01367366476916 69.63870987156406,226.73694293816516 69.46308745030547,225.4947085664462 70.99978363653645,225.30492190139194 73.7512015698594,224.4595058117702 74.73176008864539,223.85563441255363 76.56116031028796,223.1999999999971 76.89776995102875,223.3380285230378 79.18086142768152,226.8232088521181 78.96133340115193,227.25453771668253 77.62953003979055,227.16827203781577 76.20991546777077,228.20345708311652 74.1463520177058,228.49675828219915 72.66819663863862,229.13511783759168 71.45347489148844,229.2386353608017 70.51682197791524,229.66995764586318 69.82896749459906,229.41116441582562 69.46308745030547,228.4622522869613 68.87767937930766,228.03092671217746 68.86304417758947,227.73762465019536 69.44845224852907,227.16827203781577 68.76059776515467,227.80663694893883 69.40454664319986,228.56577025010483 69.69725067866966,229.35940571903484 70.32656435493845,229.73896910248732 73.97072959638899,228.6002762227581 76.15137466060696,228.34148124445346 77.55635403090855,227.2717908469058 78.85888698865892,227.2717908469058 79.23940223478712,226.87496837794606 76.79532353871036,223.1999999999971 74.93665291345678,223.7521133700502 73.7804719734122,224.49401267924986 72.74137264752062,224.5630263917992 71.14613565418404,225.218655160279 69.25819462543586,225.59822846968018 69.58016906451667,226.70243655948434 68.83377377403667,227.61685305499122 68.80450337048387,228.06543280140613 69.38991144142346,228.51401127695863 69.65334507334046,229.32489991177863 70.20948274078546,229.66995764586318 72.33158699789783,229.30764700536383 74.6146784744924,235.24253592570312 74.87811210635118,236.58820654910232 74.93665291345678,238.33066049554327 73.8975535875652,242.59182848779892 71.90716614644043,242.35030786087736 71.46811009314843,244.43772397233988 71.23394686484244,244.6274877092219" stroke="#4DD2FF" stroke-linecap="round" stroke-linejoin="round" stroke-width="0.5"><title>2025-04-29 10.1km</title><desc>1745929124000</desc></polyline><polyline fill="none" points="109.97030643076869,231.93969898984506 109.60673284420045,231.6320146969665 109.81182563665789,230.50016797344142 109.29909365560161,232.19243895702675 108.90755287010688,232.24738234440156 107.74225291324547,236.81856737435737 107.61173931811936,236.85153189893026 101.6733707380481,235.6757905320046 94.10358221840579,232.2693596909594 89.20000000001164,231.22543044216582 94.06629261974012,232.28034836244478 100.04195079841884,235.0824205282188 101.73862753564026,235.71974372678233 110.79999999998836,237.49983202656585 107.69564091501525,236.82955555040098 107.8914113077335,236.02741555432294 108.44143288733903,235.89555631455733 109.69063444109634,230.643023114455 109.93301683210302,230.55511228238902 109.60673284420045,231.4122396275634" stroke="#4DD2FF" stroke-linecap="round" stroke-linejoin="round" stroke-width="0.5"><title>2025-04-22 6.3km</title><desc>1745328842000</desc></polyline><polyline fill="none" points="122.86632714833831,244.16526559799968 123.22531592374435,244.00658160856983 123.97320920578204,241.55577579674718 125.88781600765651,241.8378848302964 126.8899930055486,238.1880612411187 126.72545648354571,234.50289015829912 124.64631315955194,229.40698904014425 124.60143956262618,228.52532896659977 125.72327948565362,227.60839739495714 128.08662225672742,227.2204632430221 129.79181893967325,226.10955575446133 130.9136588627589,226.21535679620865 131.37735269754194,225.80978576058988 130.37517569959164,224.24039261156577 129.02896779205184,224.9281060896028 127.95200146595016,223.6761127031641 126.8002458116971,223.20000000001164 124.64631315955194,223.37633820157498 123.18044232681859,224.02878787647933 121.20600406231824,224.36382857924036 121.5051613750984,225.59818307764363 120.63760516804177,226.85016159417864 121.28079339052783,227.3967970637168 121.60986643465003,228.31372983427718 122.28297038841993,228.66639490117086 124.73606035340345,228.08449712868605 126.15705758915283,227.46733053820208 128.02679079415975,227.2204632430221 129.56745095504448,226.18008979003935 130.9136588627589,226.19772329414263 131.36239483190002,225.77451866597403 130.39013356529176,224.24039261156577 129.04392565769376,224.89283880287257 127.95200146595016,223.65847892434977 126.8899930055486,223.21763382882637 124.57152383134235,223.37633820157498 123.21035805816064,224.01115413608204 121.5799507034244,224.25802632697742 121.35558271879563,224.43436337565072 121.47524564387277,225.6510837743117 120.63760516804177,226.76199441005883 121.250877659244,227.3967970637168 121.56499283772428,228.33136310584086 122.20818106026854,228.70166136554326 126.18697332055308,227.44969717250206 127.96695933165029,227.25573002255987 129.5824088207446,226.18008979003935 130.97349032521015,226.18008979003935 131.3474369663163,225.73925156370387 130.36021783400793,224.20512517493626 128.96913632948417,224.87520515658252 127.93704360036645,223.65847892434977 127.02461379626766,223.27053530367266 125.02025980054168,223.28816912477487 123.06077940174146,224.02878787647933 121.55003497202415,224.25802632697742 121.3406248530955,224.4167296794476 121.44532991264714,225.80978576058988 120.62264730239986,226.8148947262962 121.29575125616975,227.43206380485208 121.5949085689499,228.33136310584086 122.0885181351332,228.64876166608883 128.10158012242755,226.99122898887435 128.8345155387069,226.3916917121096 129.0887992545613,225.49238163244445 128.87938913569087,224.82230420624546 128.1464537192951,223.9229854052246 126.99469806504203,223.23526765572024 125.00530193489976,223.30580294399988 123.00094793911558,224.08168908621883 121.32566698745359,224.36382857924036 121.5051613750984,225.56291593691276 120.63760516804177,226.77962785070122 121.37054058437934,227.67893077724148 121.0863411372411,228.2255634474277 121.83423441922059,229.75965172472934 122.41759117919719,232.33406604183256 122.6718748951098,235.22582507217885 122.61204343248392,237.1301259756001 121.14617259980878,244.3063179023884 122.20818106026854,244.8000000000029" stroke="#4DD2FF" stroke-linecap="round" stroke-linejoin="round" stroke-width="0.5"><title>2025-04-15 8.8km</title><desc>1744723077000</desc></polyline><polyline fill="none" points="162.65805038344115,231.69244046576205 162.03110624314286,231.6506097678066 162.49244249728508,230.29807650099974 161.94830230018124,232.55693849694217 162.07842278206954,232.90552476116864 161.3568455640925,235.30377253088227 160.65892661560792,235.3177157004975 160.67075575026684,235.90332745386695 159.8663745893282,238.51066155759327 152.02365826943424,236.94905606527755 143.0335158816306,232.7800338153902 141.20000000001164,232.25018179924518 143.1636363636353,232.87763789495511 152.01182913471712,236.9629990557587 159.89003285876242,238.4967187356815 160.15027382259723,237.4510027649958 160.74173055862775,237.3812880632613 161.25038335158024,235.90332745386695 162.79999999998836,229.48933844239218 162.38598028483102,231.79004537456785" stroke="#4DD2FF" stroke-linecap="round" stroke-linejoin="round" stroke-width="0.5"><title>2025-04-11 5.1km</title><desc>1744377642000</desc></polyline><polyline fill="none" points="173.41542535333429,244.8000000000029 174.14597545959987,243.99158992763842 174.33979487553006,244.58911080635153 175.07034498191206,243.99158992763842 175.89035020314623,241.51361207893933 177.8136351769208,241.95297262916574 178.156546451326,241.8299517957057 179.05109760188498,237.98110977458418 179.11073434533319,235.87211630263482 178.738004699233,233.99157387172454 176.59108193783322,229.31648555024003 176.53144519450143,228.5255737506377 177.5750882034772,227.64677831402514 179.97546712413896,227.26010680521722 181.64529593859334,226.11766284168698 182.73366650514072,226.22311954648467 183.2853063813527,225.7661399942299 182.10748069966212,223.92063247709302 180.87001827469794,224.64126173460681 179.40891806216678,223.41091715582297 178.096909707936,223.34061146785098 177.3961779733654,223.6745632127131 175.97980531823123,225.22127806684875 173.95215604361147,225.52007354523812 172.7743303620955,226.53948924735596 172.7146936186473,226.8734343695687 173.32597023824928,227.38313874945743 173.57942639756948,228.20920794493577 174.25033976050327,228.59587717869726 180.13946816849057,226.94373851768614 180.94456420402275,226.17039120270056 181.03401931899134,225.30915914734942 180.15437735425076,223.93820883872104 178.738004699233,223.1999999999971 176.8296289112768,223.3054586123908 174.96598068095045,224.02609061828116 173.35578860988608,224.30731199117145 173.48997128248448,225.5376497326506 172.7146936186473,226.48676100697776 172.7146936186473,226.82070623831532 173.32597023824928,227.33041078486713 173.96706522948807,228.57830132450908 174.62306940654526,228.59587717869726 175.50271137134405,228.13890434833593 176.30780740687624,228.20920794493577 178.66345876996638,234.448530123409 178.94673330098158,236.08301689049404 178.85727818595478,237.77021166803024 178.0223637787276,241.33786752387823 176.09907880501123,241.03910134086618 175.33871032705065,243.3589183500735" stroke="#4DD2FF" stroke-linecap="round" stroke-linejoin="round" stroke-width="0.5"><title>2025-04-08 5.6km</title><desc>1744119870000</desc></polyline><polyline fill="none" points="18.95072883251123,266.9782350734022 19.53552056325134,266.1247880725423 19.98107616760535,264.220927343893 21.832916648243554,264.5655935694085 22.821493145485874,260.75780865334673 22.863263983395882,259.21497185356566 22.598715343279764,257.70494607041474 20.705104024731554,253.01063882638118 20.705104024731554,252.1078706636181 21.749374972539954,251.33640994684538 23.935382156458218,251.00812759248947 25.383437870594207,250.02327623713063 26.63656300783623,250.02327623713063 26.9707297111745,249.59650531697844 25.870764312916435,247.85658059100388 24.520173887140118,248.38184300335706 23.23920152458595,247.314901810023 21.17850685439771,247.26565818791278 19.27097192313522,247.97148190024018 17.683680082613137,248.2669420071761 17.767221758433152,249.59650531697844 17.029270288767293,250.48287433756923 17.572291181539185,251.10661237392924 17.892534272163175,252.0258005624055 18.755798255617265,252.32125271759287 19.521596950595267,251.9109023455385 20.816492925805505,251.76317593800195 22.0835416757036,251.20509709096223 24.018923832278233,250.92605689213087 25.480903159070294,249.9576192512177 25.258125356864184,250.40080335106177 25.62013928539818,249.85913371863717 26.69225745840231,249.94120500028657 26.92895887326449,249.53084814499016 26.065694889810402,248.13562647564686 24.840416977822315,248.77578861064103 23.86576409317786,247.64319221285405 22.835416758141946,247.1999999999971 21.081041565921623,247.24924364361505 19.368437211611308,247.93865296369768 17.725450920523144,248.20128425570147 17.711527307867073,249.662162460314 17.071041126619093,250.31873231983627 17.029270288767293,250.64701617648825 17.58621479413705,251.13944062008522 17.739374533179216,251.82883213702007 18.491249615559354,252.30483872420155 19.479826112743467,251.89448830740002 20.760798475297634,251.76317593800195 21.93038193671964,251.23792531562503 23.044270947691984,251.0901982481737 23.169583461422008,252.0258005624055 26.023924051900394,257.81983986847627 23.11388901079772,258.83746682658966 22.946805659215897,261.4143301594013 22.23670141468756,264.188101947977 21.87468748621177,264.4671175854601 20.872187376371585,268.8000000000029 17.029270288767293,267.8152649367694 17.614062019449193,265.30416139782756 17.80899259634316,265.20568589650793 17.47482589300489,266.81411102552374" stroke="#4DD2FF" stroke-linecap="round" stroke-linejoin="round" stroke-width="0.5"><title>2025-04-02 6.9km</title><desc>1743601029000</desc></polyline><polyline fill="none" points="44.60425100068096,268.8000000000029 45.120830266794655,268.33435828704387 45.834925134666264,265.7733052944386 48.220305863476824,266.34641152650875 49.2078838723246,261.8152358399093 48.904013715684414,258.4660257208452 46.57940701820189,253.16446273543988 46.564213510311674,252.6808657108195 47.02001874515554,252.03606746495643 47.82527465990279,251.64202284744533 50.40817099058768,251.1763325362117 51.60845810890896,250.20912536676042 52.07945685152663,250.13748016483441 52.094650359416846,249.49267194245476 51.486910046311095,248.25678244620212 51.00071779580321,248.29260546097066 50.529719053185545,247.75525942050444 50.13468784966972,247.84481721588236 49.25346439570421,247.30746971162444 48.31146691041067,247.23582324499148 47.33908240956953,247.57614368335635 46.03244073642418,249.18817829154432 44.057284718961455,249.47476056682353 42.58351445972221,250.65690717114194 43.464737913629506,252.3047337080934 44.46750943019288,252.71668776145088 47.94682272261707,251.5524671207968 50.19546188105596,251.23006610103766 51.912328265432734,250.0479236185056 53.05184135248419,250.1912140691711 53.44687255600002,249.7613423424773 52.216198421956506,247.91646341707383 50.863976225373335,248.65083517871972 50.04352680267766,247.70152471985784 48.97998125484446,247.1999999999971 46.98963172954973,247.28955809788022 45.181604298064485,248.0418441940128 43.25202880403958,248.36425146693364 43.37357686669566,249.77925368683646 42.55312744399998,250.83601955143968 43.22164178843377,251.46291134545754 43.52551194495754,252.35846690407197 44.42192890669685,252.73459878379072 45.34873288421659,252.2689115677058 46.229956338123884,252.21517834252154 47.26311487040948,255.1346581315156 48.06837078521494,255.83317628396617 50.72723465488525,255.27794414834352 52.39852051594062,258.78841255028965 49.17749685654417,259.88094099299633 49.01036827045027,262.62118530970474 48.67611109832069,263.03311351308366 47.82527465990279,266.05985866018455 47.6429525660933,266.203135155738 45.834925134666264,265.88076286511205 45.27276534505654,268.0298995310004" stroke="#4DD2FF" stroke-linecap="round" stroke-linejoin="round" stroke-width="0.5"><title>2025-03-25 6.1km</title><desc>1742909450000</desc></polyline></svg>