<?xml version="1.0" encoding="utf-8" ?>
<svg baseProfile="full" height="300mm" version="1.1" viewBox="0,0,200,300" width="200mm" xmlns="http://www.w3.org/2000/svg" xmlns:ev="http://www.w3.org/2001/xml-events" xmlns:xlink="http://www.w3.org/1999/xlink"><defs /><rect fill="#222222" height="300" width="200" x="0" y="0" /><text fill="#FFFFFF" style="font-size:12px; font-family:Arial; font-weight:bold;" x="10" y="20">Over 5km Runs</text><text fill="#FFFFFF" style="font-size:4px; font-family:Arial" x="10" y="280">Runner</text><text fill="#FFFFFF" style="font-size:9px; font-family:Arial" x="10" y="290">Elliont</text><text fill="#FFFFFF" style="font-size:4px; font-family:Arial" x="65" y="280">SPECIAL TRACKS</text><rect fill="yellow" height="2.6" width="2.6" x="65" y="283" /><text fill="#FFFFFF" style="font-size:3px; font-family:Arial" x="70" y="285.5">Over 20.0 km</text><rect fill="red" height="2.6" width="2.6" x="65" y="287" /><text fill="#FFFFFF" style="font-size:3px; font-family:Arial" x="70" y="289.5">Over 40.0 km</text><text fill="#FFFFFF" style="font-size:4px; font-family:Arial" x="120" y="280">STATISTICS</text><text fill="#FFFFFF" style="font-size:3px; font-family:Arial" x="120" y="285">Number: 39</text><text fill="#FFFFFF" style="font-size:3px; font-family:Arial" x="120" y="290">Weekly: 1.9</text><text fill="#FFFFFF" style="font-size:3px; font-family:Arial" x="141" y="285">Total: 253.8 km</text><text fill="#FFFFFF" style="font-size:3px; font-family:Arial" x="141" y="290">Avg: 6.5 km</text><text fill="#FFFFFF" style="font-size:3px; font-family:Arial" x="167" y="285">Min: 5.0 km</text><text fill="#FFFFFF" style="font-size:3px; font-family:Arial" x="167" y="290">Max: 10.1 km</text><polyline fill="none" points="38.5,48.14622428372968 33.18599759612698,47.08476381802757 26.833533653843915,44.18719830761984 23.393629807658726,43.38389589063445 15.89723557693651,41.95897233190772 14.363882211531745,41.93028235834208 12.50600961537566,42.083295442433155 11.5,41.853775716263044 11.962439903843915,42.06416882149642 12.603365384595236,42.15023858284985 14.363882211531745,41.97809897574916 15.994591346156085,42.02591556713014 26.168269230780425,44.00549959459022 27.255408653843915,44.39758582144714 33.202223557716934,47.15170314536954 36.53665865381481,47.754154795264185" stroke="#4DD2FF" stroke-linecap="round" stroke-linejoin="round" stroke-width="0.5"><title>2025-09-02 6.2km</title><desc>1756809719000</desc></polyline><polyline fill="none" points="76.0,48.49762634826038 69.90654205606552,47.30791804092587 61.67289719625842,43.66159523160604 50.523364485939965,41.502381390324445 49.0,41.39221618292504 50.4672897196142,41.52441441744304 61.10280373832211,43.58448124530696 62.54205607471522,44.0141155632009 70.05607476632576,47.451124411294586 75.99065420555416,48.60778381707496" stroke="#4DD2FF" stroke-linecap="round" stroke-linejoin="round" stroke-width="0.5"><title>2025-08-29 5.7km</title><desc>1756465472000</desc></polyline><polyline fill="none" points="113.5,48.36385409281502 107.65014817257179,47.21116515206813 100.74234441888984,44.04643906184356 99.66661178797949,43.721577181589964 88.82038195594214,41.615188054223836 86.5,41.615188054223836 88.93595653609373,41.70950497154263 99.95999341458082,43.836850877567485 107.51679288776359,47.2216442046265 113.3577543629217,48.38481194576889" stroke="#4DD2FF" stroke-linecap="round" stroke-linejoin="round" stroke-width="0.5"><title>2025-08-27 6.0km</title><desc>1756291993000</desc></polyline><polyline fill="none" points="149.7804716041428,48.377048728732916 145.23414148122538,47.54206122150936 143.2613749584998,47.03472353157849 137.038193291286,44.11748034624907 135.7558950514649,43.70525412942516 125.6409830620978,41.72865794180689 124.0,41.54896538291359 126.69910328794504,41.94006052626355 135.73796081036562,43.715824054314 136.84091663901927,44.06463092911872 142.75024908664636,46.87617995958135 144.2298239787342,47.39408800256206 149.77150448353495,48.45103461709368 149.98671537695918,47.62661724531063 151.0,47.79572907197871 150.49784124881262,47.67946472281619 150.53370973095298,47.42579656845919" stroke="#4DD2FF" stroke-linecap="round" stroke-linejoin="round" stroke-width="0.5"><title>2025-08-26 6.0km</title><desc>1756205162000</desc></polyline><polyline fill="none" points="188.5,50.042081479557964 183.3474434199452,49.02838595750654 177.74224643755588,46.44963009336789 176.5804694048711,46.08504079614795 167.3164291701396,44.29764044129115 164.22338642078103,44.43102987868042 163.40108968983986,44.244284605309076 162.60896898576175,43.76408051233011 162.2015926236345,43.274980847410916 161.53017602680484,41.60312713824533 162.02053646268905,41.060656609428406 163.3935456831532,39.95791852044931 161.7640402346733,41.25630213377735 161.5,41.62091299619351 161.93000838224543,42.85702062999917 162.28457669739146,43.4439428811238 163.5293378038332,44.324318346181826 164.306370494538,44.4843855925792 165.99622799665667,44.33321097923181 167.3918692371808,44.35988887251733 176.72380553226685,46.15618029906909 177.74979044427164,46.50298448809917 183.25691533950157,49.02838595750654" stroke="#4DD2FF" stroke-linecap="round" stroke-linejoin="round" stroke-width="0.5"><title>2025-08-23 7.3km</title><desc>1755948655000</desc></polyline><polyline fill="none" points="38.5,77.33325244977459 38.091543832444586,78.740550623952 31.189681924064644,77.38263162882504 22.737781225820072,73.53099106394075 14.516291699022986,71.75326665906323 11.5,71.259449376048 22.20364623743808,73.41988410553313 30.885958107130136,77.33325244977459 36.531031807593536,78.48131279935478" stroke="#4DD2FF" stroke-linecap="round" stroke-linejoin="round" stroke-width="0.5"><title>2025-08-19 5.0km</title><desc>1755607675000</desc></polyline><polyline fill="none" points="75.2220712150156,82.02899787578644 70.31965207937174,81.06015738978022 64.63196520792553,78.43038792958396 63.67056265292922,78.15356502668146 54.69502582223504,76.43205094241421 51.34112530580023,76.52721098670736 50.23294373470708,76.0081548144808 49.469692851329455,75.08249622141011 49.04403370482032,73.698313709996 52.22179940203205,71.11155796895764 55.21609132917365,67.97100212421356 54.33541723291273,68.75831566935813 52.309866811614484,70.95583085399994 49.0,73.70696492562274 49.16145691767451,74.36445455511421 49.7779287850135,75.56695440086332 50.29899429195211,76.05140962508449 51.201685240579536,76.49260734744894 51.700733895093435,76.57046551459644 53.43272628434352,76.41474910392571 54.878499592334265,76.43205094241421 58.5186191900284,77.12412139109074 58.83419407450128,77.01166035356437 60.27996738246293,77.27983641095489 60.712965479760896,77.4701543539777 62.907311769522494,77.79888427231344 64.32372927427059,78.257373728331 65.05762435446377,78.2400722874736 65.04294645282789,78.43903862976731 65.51263930418645,78.42173722845473 65.16036966568208,78.65530582780048 65.69611307422747,78.98403084100573 69.99673824411002,80.92175064142793 70.81870073388563,81.15531188939349 71.07556401196052,81.03420614283823 72.47730361510185,81.13801107974723 72.47730361510185,81.46672581839084 74.85512367493357,81.94249474137905 75.27344387062476,81.98574632034433 75.39086708344985,81.38887245059595 75.78717042674543,81.31966939293488 76.0,80.60168411214545" stroke="#4DD2FF" stroke-linecap="round" stroke-linejoin="round" stroke-width="0.5"><title>2025-08-16 10.0km</title><desc>1755297330000</desc></polyline><polyline fill="none" points="102.74876847286941,74.05941793077363 102.26108374382602,76.54164817935089 113.5,78.74948350632621 94.85714285715949,75.05231619346887 86.5,71.25051649366651 94.60221674875356,75.03925179599901 101.64039408869576,76.4501985024981" stroke="#4DD2FF" stroke-linecap="round" stroke-linejoin="round" stroke-width="0.5"><title>2025-08-13 5.0km</title><desc>1755095249000</desc></polyline><polyline fill="none" points="150.84882418817142,80.02523960399412 145.897816349403,79.03628576226038 140.26651735723135,76.44356623398926 139.21584546472877,76.1049919823563 129.9638857782993,74.32299914004398 126.68337066072854,74.42991980529041 125.95772676373599,74.27844882161298 125.20940649497788,73.83294430272508 124.81634938414209,73.44089831899328 124.45352743563126,72.83500537547661 124.02267637179466,71.6232060239854 124.95996640541125,70.69652381768537 126.04843225085642,69.86784718318813 125.22452407618403,70.44703066056536 124.0,71.63211637885252 124.80123180293594,73.4498084758743 125.42861142219044,74.037876682778 125.95016797314747,74.3051790155805 126.68337066072854,74.46555999598786 129.2533594624838,74.31408907828882 130.18309070548275,74.37645949012949 139.64669652856537,76.27427928332327 145.75419932810473,79.03628576226038 151.0,80.13215281681187" stroke="#4DD2FF" stroke-linecap="round" stroke-linejoin="round" stroke-width="0.5"><title>2025-08-12 8.1km</title><desc>1754996616000</desc></polyline><polyline fill="none" points="188.5,78.1314941298333 183.05585831060307,77.0427295475456 176.90871934604365,74.20995183674677 175.89509536785772,73.87271035306912 170.11580381472595,72.65863036698283 165.75885558585287,71.9070486922792 164.22207084472757,71.86850587017398 162.2765667575004,72.0323127481679 161.5,71.8974129883427 162.211171662173,72.0323127481679 164.14032697549555,71.88777728331479 165.77520435969927,71.91668439520436 175.8051771117025,73.8823458418774 176.97411444140016,74.29667086761037 182.80245231607114,76.98491866415134 188.03405994549394,78.06404892551654" stroke="#4DD2FF" stroke-linecap="round" stroke-linejoin="round" stroke-width="0.5"><title>2025-08-10 6.4km</title><desc>1754781124000</desc></polyline><polyline fill="none" points="35.82253984318231,116.29688423377956 31.328231722756755,115.39519828988705 26.23286111812922,113.04432250599348 25.26296483684564,112.72227890513022 16.86858082472463,111.07983471591433 16.117252719472162,111.03152698141639 13.767644826730248,111.16839881387568 13.255375664070016,111.04762956310879 12.538198836351512,110.63701263442636 12.039590184664121,110.07341705739236 11.568302555038827,108.97036756335001 11.5,108.55168753294856 14.484821654477855,106.10397219812876 16.547558816120727,103.88163411305868 18.494181634217966,102.18262767313718 20.94624335950357,100.58021139557968 21.219453579600668,100.45137239657197 21.909309385315282,100.42721505924419 22.175689349882305,100.25006101088366 22.92701745510567,99.42065231677407 23.698836326861056,97.76180699613178 24.395522388105746,97.10147956299625 27.516949152573943,95.41842319349962 31.37604351126356,93.70311576621316 31.37604351126356,94.29099556767324 32.0590690614772,94.73391561555763 32.26397672656458,94.9916133304796 32.37326081460924,95.41037020002113 34.784341006859904,99.70249126688577 35.7747280546464,101.87664131946804 36.3962813053804,102.73823123398324 36.40311156088137,102.98784886506473 36.68315203647944,103.41461253925809 37.1885909436387,104.88813609069621 37.577915507223224,105.58060149132507 37.9057677713281,107.01382321975689 38.01505185937276,108.46312029951514 37.7076903617708,110.54039655497763 37.78965342781157,110.66116663453431 38.5,110.87855228049739 38.41803693398833,111.52265414455906" stroke="#4DD2FF" stroke-linecap="round" stroke-linejoin="round" stroke-width="0.5"><title>2025-08-08 10.0km</title><desc>1754654808000</desc></polyline><polyline fill="none" points="76.0,108.7800683980895 68.79644268780248,107.30833346835425 60.536363636376336,103.4968301997651 52.00948616606183,101.66021936192556 49.0,101.2199316019105 60.34426877473015,103.4968301997651 69.00988142297138,107.43412351148436 75.81857707514428,108.74233183924662" stroke="#4DD2FF" stroke-linecap="round" stroke-linejoin="round" stroke-width="0.5"><title>2025-08-07 5.0km</title><desc>1754573743000</desc></polyline><polyline fill="none" points="113.5,108.79352541661501 106.36231313925236,107.36629666630324 98.20495672698598,103.62286689948814 97.16404405975481,103.3098655772119 86.5,101.20647458337771 89.33595594018698,101.80744736621273 89.56963021238334,101.70728545392194 90.19630212429911,101.97021028753079 97.62077104637865,103.48514642270311 106.45790715969633,107.46645364792494 113.02202989766374,108.78100594317948" stroke="#4DD2FF" stroke-linecap="round" stroke-linejoin="round" stroke-width="0.5"><title>2025-08-04 5.0km</title><desc>1754309955000</desc></polyline><polyline fill="none" points="151.0,108.14201955803583 145.60327570518712,107.06092628045735 139.379435850773,104.20368771221547 138.44585987261962,103.89479153889988 128.56960873521166,101.94485959618032 126.83348498636042,101.85798044197145 124.72065514104906,102.02208543952293 124.0,101.86763368552784 124.155595996388,101.9834725262699 125.14649681528681,102.05104511344689 128.0045495905797,101.89659340991057 131.9272065514233,102.66884923579346 132.55777979985578,102.67850239104155 133.64695177433896,103.0067090436205 138.33939945403836,103.90444456062687 139.64149226568406,104.3677883663695 145.50500454960275,107.05127360253391 150.44313011830673,108.04549390864122" stroke="#4DD2FF" stroke-linecap="round" stroke-linejoin="round" stroke-width="0.5"><title>2025-08-03 6.5km</title><desc>1754227262000</desc></polyline><polyline fill="none" points="185.3726695755613,108.1623588235816 178.20765569218202,106.73586513449845 169.17909559700638,102.72139044905634 161.5,101.15596012532478 169.84311781043652,102.89813125411456 178.48611662042094,106.84948031948443 188.5,108.8440398746825 185.59758032526588,108.18760634139471 185.59758032526588,107.99824982374412" stroke="#4DD2FF" stroke-linecap="round" stroke-linejoin="round" stroke-width="0.5"><title>2025-08-01 5.0km</title><desc>1754057984000</desc></polyline><polyline fill="none" points="35.916856492025545,146.27037494332762 31.31093394078198,145.3601775738207 26.2403189066099,143.0242215596445 25.15375854211743,142.6778493869424 16.953302961279405,141.09096078505536 15.456719817768317,141.04262861816096 13.966970387235051,141.1715143263209 13.256264236901188,141.04262861816096 12.668564920255449,140.71235796572728 12.238041002274258,140.30153143710777 11.746013667434454,139.3670939708245 11.5,138.5534793191764 14.51366742598475,136.05619032276445 16.604783599090297,133.82467041152995 18.51822323462693,132.14897219411068 19.960136674257228,131.31916526597342 21.08769931664574,130.48934902359179 21.88724373577861,130.40878384379903 22.174259681109106,130.23154013918975 23.048974943056237,129.22446556884097 23.732346241449704,127.70979958012322 24.40205011391663,127.10553587078903 27.600227790448116,125.34911464173638 31.345102505671093,123.72962505667238 31.406605922529707,124.25334447635396 31.953302961279405,124.63203159109253 32.52050113896257,125.64722577278008 32.86902050112258,126.62212134669971 33.730068337143166,128.40268255403498 35.971526195906335,132.60012545042264 36.272209567192476,133.502423703947 37.16059225512436,135.36337907554844 37.76195899772574,137.4337375864925 37.80296127562178,138.72264745914435 37.7209567198006,139.18987173997448 37.93280182231683,139.34292732799076 37.73462414575624,140.5593052120239 38.5,140.8492996347486 38.4726651480305,141.24401243845932" stroke="#4DD2FF" stroke-linecap="round" stroke-linejoin="round" stroke-width="0.5"><title>2025-07-28 10.0km</title><desc>1753704756000</desc></polyline><polyline fill="none" points="73.34889336017659,138.31062527570612 66.17786720325239,136.87627334967692 57.9637826961698,133.11101630351186 56.62736418511486,132.66276338630996 49.0,131.13869068601343 57.46398390340619,132.95732978155138 64.53722334007034,136.28715945468866 66.37344064383069,136.97872763887426 76.0,138.86130931398657 73.45754527160898,138.28501200188475 73.58792756538605,137.45257756528008" stroke="#4DD2FF" stroke-linecap="round" stroke-linejoin="round" stroke-width="0.5"><title>2025-07-22 5.0km</title><desc>1753194638000</desc></polyline><polyline fill="none" points="101.85765124554746,136.42519329274364 110.8016014234745,138.19949229255872 113.5,138.35993243262783 111.14590747331386,138.22780528003204 96.40480427048169,135.33983291356708 89.97508896799991,132.42344943210628 86.5,131.64006756737217 89.93505338081741,132.4423260161784 95.96441281138686,135.2265771343009 98.4466192171094,135.7551028379603" stroke="#4DD2FF" stroke-linecap="round" stroke-linejoin="round" stroke-width="0.5"><title>2025-07-19 6.4km</title><desc>1752877000000</desc></polyline><polyline fill="none" points="148.52734673110535,146.34391244150902 143.93233273975784,145.4290842026603 138.7122869498853,143.04076273152896 137.81938438056386,142.7573974648767 129.3368099720101,141.12195396038442 126.3970999745361,141.21911002537672 125.75833121340838,141.09766492430208 125.16077334008878,140.74952120145463 124.57695242940099,140.13419342420093 124.06868481301353,138.99258497641858 124.0,138.5796584536438 127.00152632917161,136.09395424617105 128.9865174255974,133.94014982158842 130.9440345967887,132.23163649913477 133.3342660900671,130.63644878939522 133.7532434494933,130.43401135208114 134.39201221065014,130.4016213109353 134.84533197659766,130.1182078485581 135.58712795726024,129.2355704255533 136.25337064362247,127.72129647624388 136.96082421779283,127.06537144248432 140.43627575680148,125.17044436939614 143.98728059019777,123.65608755849098 143.99414907148457,124.23915907630726 144.54362757568015,124.60357645093609 144.90765708469553,125.27571936370805 145.656321546674,126.99249052570667 147.96413126430707,131.33282936178875 148.56855761894258,132.78225171761005 148.73340117017506,132.9360993582086 149.77054184686858,135.59194526018837 150.0040702111437,135.92391932424653 150.37496820147499,137.3084780893114 150.44365301451762,138.22340627683297 150.33375731366687,139.61601871328457 149.9972017298569,140.9195450837724 151.0,141.14624298853596" stroke="#4DD2FF" stroke-linecap="round" stroke-linejoin="round" stroke-width="0.5"><title>2025-07-17 10.0km</title><desc>1752756134000</desc></polyline><polyline fill="none" points="188.5,138.81001207380177 181.34195969975553,137.37658058895613 172.26372975111008,133.34024369516555 161.5,131.18998792619095 172.74377716321032,133.54143516851764 181.1392730146763,137.3640065497966 188.16930067166686,138.79743819076248" stroke="#4DD2FF" stroke-linecap="round" stroke-linejoin="round" stroke-width="0.5"><title>2025-07-14 5.0km</title><desc>1752500928000</desc></polyline><polyline fill="none" points="38.5,168.78223850869836 31.343627834226936,167.37637853726483 23.944487881148234,163.94252392493217 22.19233776384499,163.30799601293256 11.5,161.21776149130892 22.888975762296468,163.4946222352737 31.470289288496133,167.42614378735016 37.74003127444303,168.68270916824258" stroke="#4DD2FF" stroke-linecap="round" stroke-linejoin="round" stroke-width="0.5"><title>2025-06-21 5.0km</title><desc>1750468889000</desc></polyline><polyline fill="none" points="67.47303190268576,166.65815049567027 74.49414734909078,168.06054482147738 76.0,168.14088944171817 74.70484278173535,168.06054482147738 63.22813862748444,165.81816068684566 61.99495065413066,165.33607482795196 58.307780582952546,163.5830061302404 57.65710351159214,163.3711738928905 50.134037181560416,161.91024369176012 49.0,161.85911055827455 50.003901767282514,161.8810247631336 52.93504705070518,162.4215728822819 58.20862979115918,163.56109248151915 62.131282992864726,165.4164227117435 63.13518476014724,165.80355207536923 64.22584347025258,166.0226809134765" stroke="#4DD2FF" stroke-linecap="round" stroke-linejoin="round" stroke-width="0.5"><title>2025-06-17 8.1km</title><desc>1750165544000</desc></polyline><polyline fill="none" points="113.5,168.7659015625395 106.6925754059921,167.41218310472323 97.81786542921327,163.44938676458696 86.5,161.2340984374605 97.83874709974043,163.49861490079638 106.54640371224377,167.39987649892282 112.28886310901726,168.56899806736328" stroke="#4DD2FF" stroke-linecap="round" stroke-linejoin="round" stroke-width="0.5"><title>2025-06-15 5.0km</title><desc>1749939796000</desc></polyline><polyline fill="none" points="142.65694828683627,166.5476281631636 149.02915513937478,167.8208640805533 151.0,167.94276827983776 149.4486060864001,167.84795392326487 138.7842094062653,165.77554687948214 137.7442008937942,165.38272991589474 134.2679293466499,163.73016241009464 133.4922323898645,163.47279138720114 126.48223026178312,162.11818949895314 125.63183656099136,162.05723172016587 124.0,162.18592029421416 126.31559906364419,162.10464333106574 133.19344541392638,163.43215375990985 134.02660140453372,163.66243329680947 136.01468397531426,164.60386135783847" stroke="#4DD2FF" stroke-linecap="round" stroke-linejoin="round" stroke-width="0.5"><title>2025-06-11 8.1km</title><desc>1749642919000</desc></polyline><polyline fill="none" points="188.5,168.75761206554307 181.48565335402964,167.40021930405055 172.67060876305914,163.46368833849556 161.5,161.24238793445693 172.79623885225737,163.51305007506744 181.5589375726413,167.46191932777583 187.3379216750618,168.62187352111505" stroke="#4DD2FF" stroke-linecap="round" stroke-linejoin="round" stroke-width="0.5"><title>2025-06-08 5.0km</title><desc>1749387304000</desc></polyline><polyline fill="none" points="21.960139859933406,202.2563473537739 24.867832167539746,200.52019920607563 30.985314685152844,199.40727984640398 34.08181818178855,197.09239786749822 37.44265734264627,197.18143203217187 38.348951048916206,196.42464101308724 32.3825174823869,186.7197848650394 28.34195804176852,187.5211119944288 24.490209790179506,189.7915303253103 22.337762237759307,189.7915303253103 18.901398601476103,191.39417096233228 13.274825174827129,192.55162973457482 13.463636363623664,196.20205515241832 11.5,198.65049295013887 13.161538461456075,200.4756824898359 13.879020979162306,202.74602883096668 14.936363636283204,203.41377535375068 21.506993006914854,202.03376467025373 24.98111888114363,200.4756824898359 30.041258741170168,199.8079311651527 34.270629370585084,197.09239786749822 37.253846153616905,197.22594910740736 38.46223776205443,196.20205515241832 32.3825174823869,186.58623019064544 27.88881118874997,187.5656301221461 24.565734265604988,189.74701244014432 21.544755244627595,190.05863753479207 17.844055943889543,191.70579480053857 13.388111887965351,192.46259456081316 13.501398601336405,196.42464101308724 11.5,198.65049295013887 13.274825174827129,200.56471591748414 14.181118881097063,202.87957822266617 15.465034964960068,203.50280814105645 25.81188811152242,200.34213231221656 30.15454545430839,199.8524479540356 33.893006992992014,197.3149832431227 37.36713286698796,197.2704661777243 38.5,196.15753796565696 31.96713286708109,186.45267547256663 27.511188810924068,187.8327387869067 24.414685314754024,189.74701244014432 13.576923076761886,192.24000654157135 13.539160839281976,196.20205515241832 11.537762237712741,198.56145910560736 13.237062936881557,200.4756824898359 13.879020979162306,202.6124793953786 15.804895104840398,203.54732452743337 31.060839160578325,198.91759436775465 32.94895104877651,196.38012385068578 32.3825174823869,193.842637573689 29.890209790319204,190.7264047942881 27.775524475611746,189.65797665526043 25.962937062839046,189.56894085078966 23.88601398584433,190.4147802090156 20.525174825219437,194.46588127722498 15.16293706302531,195.35622777591925 11.953146853018552,197.89370465217507 11.83986013988033,198.96211125364061 13.652447552420199,201.14343272330007" stroke="#4DD2FF" stroke-linecap="round" stroke-linejoin="round" stroke-width="0.5"><title>2025-06-04 6.4km</title><desc>1749041988000</desc></polyline><polyline fill="none" points="76.0,198.7822926046283 69.07987592089921,197.4002201252515 61.19658782478655,193.75985925654095 60.00310197751969,193.36496562202228 49.0,191.2177073953717 60.31717720051529,193.4883700306309 68.92283830943052,197.37554010635358 74.67041488946415,198.56017495014385" stroke="#4DD2FF" stroke-linecap="round" stroke-linejoin="round" stroke-width="0.5"><title>2025-05-28 5.0km</title><desc>1748436903000</desc></polyline><polyline fill="none" points="113.5,198.7704701553448 106.00237341772299,197.2346258794205 97.31922468356788,193.30680015370308 86.5,191.21694104147173 96.9667721518781,193.2312637355426 98.26977848104434,193.64671342453948 106.63251582282828,197.4738160835186 113.37183544307481,198.78305895852827" stroke="#4DD2FF" stroke-linecap="round" stroke-linejoin="round" stroke-width="0.5"><title>2025-05-27 5.0km</title><desc>1748351986000</desc></polyline><polyline fill="none" points="143.99476505536586,200.56973551820556 144.03084708336974,198.9533236429561 144.87877474335255,197.03381156545947 145.43804617866408,193.47254545317264 145.4019641505438,193.80089273079648 144.59011851868127,193.90192251550616 140.63913644338027,196.70547147485195 139.1417322778725,197.0590684653289 138.5463788144407,196.0740461719688 139.2319373480277,194.9627310827491 140.49480833107373,193.97769480869465 140.29635717655765,192.28543766700022 140.89171063998947,191.19935197279847 140.09790602215799,190.74470907823707 137.19330276129767,190.79522502458713 136.43558017147006,189.68387021525996 136.68815436813748,188.37044011337275 137.247425803449,188.54724869203346 137.19330276129767,187.6884621843492 138.02318940724945,188.19363132303988 139.53863458684646,188.14311448692752 140.74738252768293,188.95138179129572 142.38911480555544,189.0018983510381 143.05663232511142,188.67354040438659 144.69836460298393,186.37501433712896 144.7705286591081,182.53563826884783 144.17517519567627,181.85363339612377 143.23704246553825,181.5 142.0824175667949,181.82837389592896 141.05407976638526,182.9650471285422 140.26027514843736,183.24289925477933 138.6365838847123,182.93978781838086 136.92268755059922,182.00519030670694 135.3531193289673,182.53563826884783 134.5593147110776,183.7480835996248 134.5953967391979,185.0362958573969 135.28095527278492,185.99613297969336 136.832482480444,186.72863606043393 137.19330276129767,187.61268666454998 136.4897032136214,189.2544808901148 136.9948516068398,190.769967053624 137.1211387051153,192.86636394601373 136.4536211855011,195.13953176994983 136.97681059275055,195.7709610677848 138.5102967864368,196.14981735081528 139.10565024975222,197.0590684653289 137.73453318257816,199.28165873675607 136.03867786249612,199.96358313792734 133.20623865787638,202.03459350085177 131.1495630570571,202.91855249649961 130.68049669195898,204.13083051687863 129.52587179321563,205.3936095416866 130.5181275656214,208.22219538311765 131.42017826763913,208.42423515632981 132.61088519450277,207.6918396637484 134.00004327576607,208.2727053523995 135.01034006214468,208.14643039696966 135.80414468003437,207.31301298408653 136.38145712943515,205.21682112806593 137.7525741966092,204.4591541018599 140.89171063998947,205.4441204781615 142.0824175667949,204.8632436661428 143.94064201315632,204.76222137876903 144.04888809740078,199.15537609483 145.47412820678437,194.15449667496432 145.25763603823725,193.80089273079648 144.71640561695676,193.8514076318097 140.6571774574113,196.7307284307899 139.19585532002384,197.03381156545947 137.59020507021341,199.35742827017384 135.87630873615853,200.03935232151707 133.18819764390355,202.03459350085177 131.25780914135976,202.7922729638667 130.68049669195898,204.20659756285022 129.52587179321563,205.49463139727595 130.42792249534978,208.09592038458504 131.0232759587816,208.5 132.5026391102001,207.6918396637484 134.19849443022395,208.29796033048478 135.33507831487805,207.8433700636233" stroke="#4DD2FF" stroke-linecap="round" stroke-linejoin="round" stroke-width="0.5"><title>2025-05-23 6.4km</title><desc>1747958832000</desc></polyline><polyline fill="none" points="177.45308017521165,196.2609099506517 178.1837849081494,196.95508605199575 180.01054674061015,197.24737005149655 180.92392765684053,198.41650205080805 180.68905827833805,203.01989710853377 180.24541611899622,203.86018867589883 178.65352366515435,204.33513462169503 177.08772780874278,203.78711997522623 175.62631834263448,204.11592893171473 173.14714156999253,202.65455191805086 171.6596355063375,203.23910392301332 170.5635784069309,203.0564315932861 170.87673757807352,201.99692900072841 170.09383965004236,199.95097809076833 170.32870902842842,198.48957258829614 169.493617905071,197.10122810167377 169.85897027153987,194.90908685923205 175.1304829880828,194.6898714978597 176.93114822299685,195.3475169071171 177.87062573677395,196.84547944900987 179.88006375252735,197.21083457340137 180.76734807121102,198.05114898820466 180.68905827833805,203.1295005438733 180.29760931432247,203.86018867589883 178.75791005545761,204.29860035570164 177.2704039918026,203.8236543286912 175.57412514742464,204.07939462825016 173.0949483747827,202.6910864651727 169.93726006429642,203.3487072458811 168.24098121980205,204.73701113578863 168.78900976956356,205.1388868940121 169.20655533124227,207.33092317769479 171.76402189675719,208.5 172.8600789962802,207.7327940568066 173.59078372933436,206.2349078469706 173.48639733879827,205.0658186305227 172.12937426322605,202.91029361690744 173.48639733879827,202.6910864651727 175.60022174508777,204.07939462825016 177.2704039918026,203.60444811395428 177.06163121107966,203.0564315932861 175.36535236658528,203.09296607170836 174.4519714503549,201.92385966274014 175.31315917137545,198.48957258829614 173.06885177711956,195.05523030851327 173.22543136274908,192.315023998759 173.82565310772043,191.14585860955412 175.0260965975467,190.45166363242606 177.29650058946572,191.18239512490982 179.1493590195896,190.70741993909178 177.06163121107966,192.7534593702294 174.89561360958032,192.64385061174107 173.59078372933436,191.65736925475358 171.58134571358096,191.21893163386267 171.6335389087908,186.7614314134844 172.52082322735805,184.89802260746364 172.5730164225679,182.12114795439993 173.1210449723294,181.57307632359152 174.79122721916065,181.5 179.59300117893144,182.19422406563535 180.58467188791838,183.0711354503146 180.92392765684053,184.89802260746364 181.75901878031436,185.81146032754623 181.21099023055285,186.5422076916584 181.550245999475,187.0171921379515 179.90616035019048,188.00369492125174 179.72348416689783,190.30551703396486 177.29650058946572,192.68038687076478 175.391448964132,192.7534593702294 173.5124939364614,191.54775993383373 171.68573210388422,191.328541123381 171.60744231124409,187.0171921379515 172.7295960081974,183.29036273398378 173.9039429005934,182.85190794157097 173.9300394981401,181.7557670234819 179.279842007556,182.0846098894981" stroke="#4DD2FF" stroke-linecap="round" stroke-linejoin="round" stroke-width="0.5"><title>2025-05-20 5.0km</title><desc>1747754393000</desc></polyline><polyline fill="none" points="34.92259414237924,226.88678985866136 37.4456066947896,227.19754025462316 38.5,226.08771632399294 32.2489539750386,216.6762878690206 27.88075313810259,217.74174351306283 24.4916317993775,219.73946533541312 22.382845188258216,219.82825274462812 17.261506276205182,221.78157085122075 13.156903765862808,222.35868577228393 13.49581589968875,226.13210933920345 11.5,228.70689594867872 13.156903765862808,230.1718534809188 13.759414226049557,232.21390670671826 14.663179916329682,233.10175274306675 16.357740585925058,233.36810617669835 24.830543933203444,230.6157789659337 29.87656903779134,229.9054979578359 34.24476987472735,227.01996862894157 37.4456066947896,227.10875445153215 38.424686192767695,226.26528835605131 32.399581590201706,216.72068190973368 30.742677824338898,216.76507594564464 24.642259414307773,219.65067790696048 21.855648535769433,219.9614338221727 18.353556485380977,221.5596033561451 12.855648535769433,222.58065283187898 13.646443514851853,225.51060668524588 11.5,228.66250321402913 13.081589958397672,229.9942831514636 13.571129707386717,231.85876775055658 14.70083682029508,233.05736048726249 16.357740585925058,233.2793217182916 25.546025104587898,230.26063861662988 30.479079498210922,229.63914226053748 34.05648535559885,227.10875445153215 37.48326359852217,227.10875445153215 38.424686192767695,226.17650234969915 32.399581590201706,216.76507594564464 31.08158995816484,216.63189382333076 27.69246861943975,217.74174351306283 24.755230125505477,219.65067790696048 22.345188284525648,219.73946533541312 17.826359832892194,221.64839036864578 13.345188284758478,222.44747261054 13.571129707386717,225.95453724917024 11.575313807697967,228.5737177300034 13.081589958397672,230.08306832588278 14.135983263608068,232.70222226623446 16.50836820108816,233.23492948169587 24.152719665551558,230.660171487747" stroke="#4DD2FF" stroke-linecap="round" stroke-linejoin="round" stroke-width="0.5"><title>2025-05-14 5.0km</title><desc>1747227249000</desc></polyline><polyline fill="none" points="58.56141099985689,238.2072240831185 59.111394148669206,237.70532147266204 59.90975678374525,234.73570418082818 62.304844689089805,235.1121370839246 63.59996629727539,229.92566322856874 63.35158681077883,226.60039055150992 60.85005055402871,220.3470488191233 60.95649890543427,218.94577039235446 62.695155310910195,218.00460749759804 65.28539852704853,217.56539656739915 66.95308936492074,216.41507746368006 68.31917654059362,216.5405671554763 68.83367690548766,215.99677789857378 66.08376116224099,211.60457742671133 65.39184687833767,211.5 63.49351794598624,212.1902099634608 62.304844689089805,213.00590944757278 61.275843959418125,213.02682477340568 59.1823597161565,213.863435936757 57.03565129719209,214.17716418294003 57.17758243228309,215.80854279684718 56.166323094512336,217.08435487173847 56.34373701340519,217.54448173608398 56.946944337687455,217.9418631404842 57.55015166208614,219.34314889581583 58.313031513476744,219.42680742329685 65.1257260000566,217.37716300397005 65.88860585144721,216.7078866167867 66.17246812174562,215.80854279684718 65.83538167562801,214.6372980163287 64.64670841896441,213.3614696762961 63.1919142837869,212.9013327843859 61.914534067502245,213.25689320683887 60.21136044594459,215.1810911246721 57.78078975668177,215.59939246736758 56.37921979720704,216.85429102586932 56.414702581008896,217.54448173608398 58.313031513476744,219.00851442132262 60.477481324225664,218.77845288168464 65.07250182447024,217.37716300397005 66.06601977034006,216.45690737005498 66.11924394604284,215.4529871011182 65.39184687833767,214.13533377973363 63.670931864879094,212.96407878912578 61.275843959418125,213.04774009693938 59.02268718916457,213.94709685254202 57.000168513390236,214.34448570449604 57.15984104049858,215.8922028648376 56.18406448629685,217.1680143837002 56.9646857297048,217.9418631404842 57.35499635129236,219.0712584296998 58.259807337773964,219.44772204950277 59.3242908512475,218.90394102841674 61.29358535131905,218.56930578823085 60.832309162127785,219.42680742329685 60.88553333771415,220.09607433053316 63.12094871618319,225.70109307739767 63.65319047297817,228.294404584085 63.45803516218439,231.20138148439582 62.57096556760371,234.5265744713688 60.282326013431884,234.19196646231285 59.37751502695028,237.24524292709248 58.68560074316338,237.53802031086525 58.40173847286496,238.5 58.02916924317833,238.35361209738767" stroke="#4DD2FF" stroke-linecap="round" stroke-linejoin="round" stroke-width="0.5"><title>2025-05-06 7.1km</title><desc>1746539597000</desc></polyline><polyline fill="none" points="96.81684361433145,238.5 96.63390359212644,238.28435963652737 97.49372169631533,235.41632046682935 99.67070796014741,235.9338644418458 100.05488200671971,235.26536988592125 101.18911014404148,230.49958522240922 101.15252213960048,228.12743244334706 97.91448374732863,219.1561248897342 97.03637164086103,218.96202960774826 95.79237949021626,219.56588097129134 95.02403139707167,219.41491830308223 93.5788052220596,217.1720308127551 94.56668134173378,216.09371047242894 94.32885931292549,214.36838570807595 95.60943946801126,214.3036857367988 99.890235986677,213.09594905805716 101.28058015508577,212.2332754896488 103.56733043212444,211.54313392755284 106.51266478910111,216.05057753656 106.14678474480752,216.63287137694715 104.53691254975274,216.48190647170122 102.81727634125855,217.7327550680784 100.2012340243673,218.1209478527453 98.66453783819452,218.85419881320558 96.70707960100845,219.11299262134708 95.51796945696697,219.60901314098737 94.74962136382237,219.28552163871063 94.31056531064678,218.07781535870163 93.61539322638419,217.56022469713935 93.61539322638419,217.1504644635279 94.56668134173378,215.87804569935543 94.31056531064678,214.3899523604341 96.32290555443615,214.13115237673628 99.8353539800737,213.00968187041872 103.16486238338985,211.5 103.67709444544744,211.6725356537936 106.4943707868224,216.05057753656 106.2199607535731,216.58973855864315 104.66497056512162,216.48190647170122 102.41480829252396,217.883719019228 100.58540807082318,218.01311659999192 95.60943946801126,219.56588097129134 94.84109137486666,219.3502199814975 94.34715331508778,218.07781535870163 93.61539322638419,217.517092080976 94.54838733945508,215.92117867272464 94.32885931292549,214.36838570807595 96.24972954567056,214.13115237673628 99.6890019623097,213.07438226472004 100.91470011079218,212.31954301570659 103.20145038783085,211.5 103.62221243884414,211.6725356537936 106.47607678466011,216.02901106515492 106.20166675141081,216.56817214586772 104.53691254975274,216.4603400472697 102.76239433477167,217.75432135388837 100.18294002208859,218.1209478527453 98.33524579822551,218.91889729698596 96.81684361433145,219.0482942009985 95.64602747245226,219.5874470573326 94.78620936826337,219.26395551979658 94.32885931292549,218.07781535870163 93.59709922410548,217.5386583902291 93.5788052220596,217.1720308127551 94.31056531064678,216.4603400472697 93.45074720645789,217.25829618619173 94.25568330404349,218.20721281263104 94.62156334833708,219.19925714879355 95.40820544364396,219.67371137811278 99.96341199544258,218.25034527845855 102.68921832577325,217.9268515555741 104.44544253859203,216.58973855864315 106.0736087358091,216.58973855864315 106.54925279354211,216.09371047242894 103.49415442335885,211.5 101.17081614176277,212.19014171257732 99.7255899667507,213.11751584906597 98.42671580938622,213.20378298975993 96.43266956775915,214.02331895034877 94.07274328183848,214.49778558711114 94.47521133068949,215.87804569935543 93.54221721750218,217.0210663187463 93.50562921306118,217.58179100176494 94.23738930176478,218.1425140962092 94.56668134173378,219.1561248897342 95.26185342599638,219.5874470573326 97.91448374732863,219.13455875671934 100.7683480931446,226.5531699071289 101.09764013299718,228.23525818638154 101.17081614176277,230.41332561943273 99.87194198439829,235.73978560976684 97.38395768299233,235.43788482611126 96.83513761649374,238.04715496544668 96.54243358108215,238.28435963652737" stroke="#4DD2FF" stroke-linecap="round" stroke-linejoin="round" stroke-width="0.5"><title>2025-04-29 10.1km</title><desc>1745929124000</desc></polyline><polyline fill="none" points="149.9628830384463,222.42462373730086 149.508416055236,222.0400183712045 149.76478204579325,220.62520996679086 149.12386706948746,222.74054869628162 148.6344410876627,222.80922793049103 147.17781614157138,228.52320921795035 147.0146741476492,228.564414873661 139.59171342250193,227.09473816500395 130.12947777297813,222.83669961369014 124.0,221.53178805270727 130.0828657746897,222.85043545305234 137.552438498009,226.35302566026803 139.67328441952122,227.1496796584761 151.0,229.37479003320914 147.1195511437254,228.5369444379976 147.36426413466688,227.5342694429055 148.0517911091447,227.36944539318938 149.6132930513122,220.80377889306692 149.91627104009967,220.6938903529881 149.508416055236,221.76529953444697" stroke="#4DD2FF" stroke-linecap="round" stroke-linejoin="round" stroke-width="0.5"><title>2025-04-22 6.3km</title><desc>1745328842000</desc></polyline><polyline fill="none" points="171.08290893549565,237.7065819974814 171.5316449047532,237.50822701070865 172.46651150728576,234.44471974590851 174.8597700096434,234.79735603785957 176.11249125690665,230.23507655138383 175.90682060446125,225.62861269786663 173.30789144942537,219.25873630018032 173.25179945328273,218.1566612082388 174.65409935708158,217.01049674367823 177.60827782098204,216.52557905377762 179.73977367463522,215.1369446930621 181.14207357843406,215.2691959952499 181.72169087198563,214.7622322007228 180.46896962460596,212.80049076444993 178.7862097400939,213.66013261199987 177.4400018324377,212.09514087894058 176.00030726462137,211.5 173.30789144942537,211.72042275195417 171.47555290861055,212.5359848455846 169.00750507798512,212.954785724025 169.38145171897486,214.49772884703998 168.2970064600231,216.06270199271967 169.10099173826165,216.74599632962781 169.5123330433853,217.89216229283193 170.3537129855249,218.33299362644902 173.42007544171065,217.60562141083938 175.19632198649924,216.83416317273804 177.53348849271424,216.52557905377762 179.4593136938056,215.225112237531 181.14207357843406,215.2471541176783 181.70299353986047,214.71814833245298 180.4876669566147,212.80049076444993 178.80490707210265,213.6160485035798 177.4400018324377,212.0730986554263 176.11249125690665,211.52204228601477 173.21440478926525,211.72042275195417 171.51294757274445,212.51394267009164 169.4749383792514,212.8225329087145 169.1944783985382,213.04295421954885 169.34405705484096,214.5638547178678 168.2970064600231,215.95249301256263 169.06359707412776,216.74599632962781 169.45624104724266,217.91420388229017 170.26022632536478,218.37707670690725 175.23371665063314,216.81212146561302 177.45869916456286,216.56966252817074 179.47801102593075,215.225112237531 181.21686290658545,215.225112237531 181.68429620796815,214.67406445462257 180.4502722924808,212.7564064686594 178.7114204118261,213.59400644570997 177.42130450042896,212.0730986554263 176.28076724533457,211.5881691295799 173.77532475069165,211.6102114059613 171.32597425219137,212.5359848455846 169.4375437151175,212.8225329087145 169.17578106641304,213.02091209929495 169.30666239082348,214.7622322007228 168.27830912801437,216.01861840786296 169.1196890702704,216.79007975605782 169.49363571126014,217.91420388229017 170.1106476689456,218.3109520825965 177.6269751531072,216.23903623607475 178.5431444233982,215.48961464011518 178.8609990682453,214.365477040541 178.59923641965725,213.5278802577959 177.68306714913342,212.40373175652348 176.2433725813171,211.54408456964302 173.7566274186829,211.6322536799853 171.25118492392357,212.602111357759 169.1570837344043,212.954785724025 169.38145171897486,214.45364492113004 168.2970064600231,215.97453481335833 169.21317573054694,217.0986634715373 168.85792642156594,217.78195430927735 169.7927930240985,219.69956465590803 170.52198897406925,222.91758255226887 170.83984361891635,226.53228134020173 170.76505429064855,228.91265746948193 168.93271574983373,237.8828973779746 170.26022632536478,238.5" stroke="#4DD2FF" stroke-linecap="round" stroke-linejoin="round" stroke-width="0.5"><title>2025-04-15 8.8km</title><desc>1744723077000</desc></polyline><polyline fill="none" points="38.32256297930144,252.11555058220983 37.53888280398678,252.0632622097619 38.11555312166456,250.37259562626423 37.43537787522655,253.1961731211777 37.59802847763058,253.63190595147898 36.69605695514474,256.62971566361375 35.82365826953901,256.6471446256328 35.838444687833544,257.3791593173373 34.83296823670389,260.6383269469952 25.0295728368219,258.6863200816151 13.791894852067344,253.47504226924502 11.5,252.81272724908195 13.954545454587787,253.5970473687048 25.01478641841095,258.7037488197093 34.86254107346758,260.6208984196128 35.18784227827564,259.31375345625565 35.92716319829924,259.22661007908755 36.562979189504404,257.3791593173373 38.5,249.36167305300478 37.98247535608243,252.23755671823164" stroke="#4DD2FF" stroke-linecap="round" stroke-linejoin="round" stroke-width="0.5"><title>2025-04-11 5.1km</title><desc>1744377642000</desc></polyline><polyline fill="none" points="56.76928169163875,268.5 57.68246932455804,267.489487409548 57.924743594485335,268.23638850795396 58.837931227404624,267.489487409548 59.862937754020095,264.39201509868144 62.26704397122376,264.9412157864572 62.695683064172044,264.78743974464305 63.81387200241443,259.9763872182375 63.888417931622826,257.3401453783008 63.42250587407034,254.98946733966295 60.738852422335185,249.14560693781823 60.66430649312679,248.1569671883044 61.968860254390165,247.05847289254598 64.9693339051446,246.5751335065288 67.05661992321257,245.14707855210872 68.41708313138224,245.2788994331204 69.10663297667634,244.70767499279464 67.63435087457765,242.40079059636628 66.08752284338698,243.30157716825488 64.26114757778123,241.76364644480054 62.62113713496365,241.67576433482463 61.745222466648556,242.09320401590958 59.97475664783269,244.02659758357913 57.440195054514334,244.40009193155856 55.967912952648476,245.6743615591986 55.89336702332366,246.09179296197544 56.657462797826156,246.72892343683634 56.97428299696185,247.76150993116607 57.81292470067274,248.24484647337522 65.17433521070052,246.17967314712587 66.18070525501389,245.21298900338297 66.29252414871007,244.1364489342086 65.1929716928862,242.42276104840857 63.42250587407034,241.5 61.03703613905236,241.6318232654885 58.70747585117351,242.53261327285145 56.694735762430355,242.88413998897886 56.86246410314925,244.4220621658169 55.89336702332366,245.60845125872584 55.89336702332366,246.02588279791235 56.657462797826156,246.6630134810839 57.45883153693285,248.22287665563636 58.278836758225225,248.24484647337522 59.37838921416551,247.67363043544174 60.384759258595295,247.76150993116607 63.329323462443426,255.56066265427216 63.68341662629973,257.60377111313574 63.571597732487135,259.71276458504144 62.52795472345315,264.1723344048514 60.12384850624949,263.7988766760827 59.173387908842415,266.69864793760644" stroke="#4DD2FF" stroke-linecap="round" stroke-linejoin="round" stroke-width="0.5"><title>2025-04-08 5.6km</title><desc>1744119870000</desc></polyline><polyline fill="none" points="96.18841104069725,266.22279384173453 96.91940070415149,265.15598509067786 97.47634520957945,262.7761591798626 99.79114581033355,263.2069919617643 101.0268664318719,258.44726081666886 101.07907997927396,256.5187148169498 100.74839417915791,254.63118258801114 98.38138003100175,248.7632985329692 98.38138003100175,247.63483832952625 99.68671871570405,246.67051243354217 102.41922769561643,246.26015949061548 104.22929733828641,245.02909529639874 105.7957037598826,245.02909529639874 106.21341213898268,244.49563164620486 104.83845539117465,242.3207257387403 103.15021735901246,242.97730375418905 101.5490019057761,241.6436272625142 98.97313356801169,241.58207273487642 96.58871490403544,242.4643523752893 94.60460010328097,242.83367750897014 94.7090271980851,244.49563164620486 93.78658786095912,245.60359292195062 94.46536397695309,246.38326546740427 94.86566784029128,247.53225070299231 95.94474781956524,247.90156589698745 96.9019961883314,247.38862793192675 98.52061615732964,247.20396992248425 100.10442709468771,246.50637136369187 102.52365479042055,246.15757111515268 104.35112894885242,244.94702406400756 104.07265669613844,245.50100418883085 104.52517410682049,244.82391714828555 105.86532182310475,244.92650625035458 106.16119859163882,244.41356018124497 105.08211861230666,242.66953309456585 103.55052122229245,243.46973576329765 102.33220511657419,242.05399026606756 101.04427094775019,241.5 98.85130195744568,241.56155455451517 96.71054651460145,242.42331620461482 94.65681365068303,242.75160531961592 94.63940913486294,244.57770307539613 93.83880140830297,245.39841539978806 93.78658786095912,245.8087702206103 94.48276849271497,246.42430077510653 94.67421816656133,247.2860401712678 95.6140620195074,247.88104840523738 96.84978264098754,247.36811038423912 98.4509980941657,247.20396992248425 99.91297742095776,246.5474066445313 101.30533868464408,246.36274781019893 101.46197932685027,247.53225070299231 105.0299050649046,254.7747998355917 101.39236126356991,256.04683353322616 101.18350707407808,259.26791269924433 100.29587676847586,262.73512743496394 99.84335935779382,263.08389698182873 98.59023422049358,268.5 93.78658786095912,267.2690811709472 94.51757752435515,264.1302017472626 94.76124074548716,264.0071073706349 94.34353236632887,266.01763878189377" stroke="#4DD2FF" stroke-linecap="round" stroke-linejoin="round" stroke-width="0.5"><title>2025-04-02 6.9km</title><desc>1743601029000</desc></polyline><polyline fill="none" points="133.2553137508221,268.5 133.90103783342056,267.91794785880484 134.79365641833283,264.7166316180519 137.77538232936058,265.4330144081323 139.00985484034754,259.76904479989025 138.63001714460552,255.58253215104924 135.7242587726796,248.95557841929258 135.70526688790414,248.351082138528 136.27502343140077,247.54508433119918 137.28159332484938,247.05252855930303 140.51021373819094,246.47041567025008 142.01057263615075,245.26140670843597 142.59932106442284,245.17185020603938 142.6183129491983,244.36583992806845 141.85863755783066,242.82097805774538 141.25089724478312,242.86575682619878 140.66214881651103,242.19407427562692 140.16835981211625,242.3060215198493 139.06683049467392,241.63433713953418 137.88933363801334,241.54477905623207 136.67385301191825,241.97017960417725 135.04055092053022,243.9852228644304 132.57160589867271,244.3434507085185 130.7293930746382,245.82113396393834 131.83092239196412,247.88091713511676 133.08438678772654,248.39585970180633 137.4335284032859,246.94058390099963 140.2443273512181,246.53758262630436 142.39041033177637,245.05990452312108 143.81480169063434,245.2390175864566 144.30859069502912,244.70167792809661 142.77024802740198,242.3955792713241 141.07997028168757,243.31354397338873 140.05440850334708,242.12690589981503 138.72497656859923,241.5 136.23703966184985,241.6119476223539 133.9770053725224,242.55230524252693 131.56503600499127,242.95531433366705 131.71697108331136,244.72406710854557 130.69140930497088,246.0450244392996 131.52705223544035,246.828639181811 131.90688993118238,247.94808363007905 133.02741113340016,248.41824847973476 134.1859161052853,247.8361394596286 135.2874454226112,247.76897292815556 136.57889358792454,251.4183226643945 137.58546348148957,252.29147035496135 140.909043318592,251.5974301854294 142.99815064494032,255.98551568786206 138.9718710706802,257.35117624123814 138.76296033803374,260.77648163713457 138.3451388728572,261.29139189134 137.28159332484938,265.0748233252234 137.05369070754386,265.25391894466884 134.79365641833283,264.8509535813937 134.09095668129157,267.5373744137469" stroke="#4DD2FF" stroke-linecap="round" stroke-linejoin="round" stroke-width="0.5"><title>2025-03-25 6.1km</title><desc>1742909450000</desc></polyline></svg>