<?xml version="1.0" encoding="utf-8" ?>
<svg baseProfile="full" height="300mm" version="1.1" viewBox="0,0,200,300" width="200mm" xmlns="http://www.w3.org/2000/svg" xmlns:ev="http://www.w3.org/2001/xml-events" xmlns:xlink="http://www.w3.org/1999/xlink"><defs /><rect fill="#222222" height="300" width="200" x="0" y="0" /><text fill="#FFFFFF" style="font-size:12px; font-family:Arial; font-weight:bold;" x="10" y="20">Over 5km Runs</text><text fill="#FFFFFF" style="font-size:4px; font-family:Arial" x="10" y="280">Runner</text><text fill="#FFFFFF" style="font-size:9px; font-family:Arial" x="10" y="290">Elliont</text><text fill="#FFFFFF" style="font-size:4px; font-family:Arial" x="65" y="280">SPECIAL TRACKS</text><rect fill="yellow" height="2.6" width="2.6" x="65" y="283" /><text fill="#FFFFFF" style="font-size:3px; font-family:Arial" x="70" y="285.5">Over 20.0 km</text><rect fill="red" height="2.6" width="2.6" x="65" y="287" /><text fill="#FFFFFF" style="font-size:3px; font-family:Arial" x="70" y="289.5">Over 40.0 km</text><text fill="#FFFFFF" style="font-size:4px; font-family:Arial" x="120" y="280">STATISTICS</text><text fill="#FFFFFF" style="font-size:3px; font-family:Arial" x="120" y="285">Number: 66</text><text fill="#FFFFFF" style="font-size:3px; font-family:Arial" x="120" y="290">Weekly: 2.0</text><text fill="#FFFFFF" style="font-size:3px; font-family:Arial" x="141" y="285">Total: 452.5 km</text><text fill="#FFFFFF" style="font-size:3px; font-family:Arial" x="141" y="290">Avg: 6.9 km</text><text fill="#FFFFFF" style="font-size:3px; font-family:Arial" x="167" y="285">Min: 5.0 km</text><text fill="#FFFFFF" style="font-size:3px; font-family:Arial" x="167" y="290">Max: 11.4 km</text><polyline fill="none" points="32.80000000001746,44.18581687154074 32.55889691400807,44.61209792892623 30.5449770190462,44.21089229341305 25.191070256085368,41.74510327095777 24.297570584370987,41.460905546249705 15.610768220649334,39.76405605379114 14.192514773487346,39.722261257884384 12.412606697325828,39.85600452469225 11.76021011164994,39.70554333314794 11.200000000011642,39.38790207106649 11.611293499707244,39.66374850535067 12.384241628373275,39.88108136127994 15.582403151667677,39.78077396579465 24.290479317161953,41.502699395314266 25.361260669742478,41.86212555759266 30.318056467483984,44.15238296301686 32.42416283651255,44.60373949958739" stroke="#4DD2FF" stroke-linecap="round" stroke-linejoin="round" stroke-width="0.5"><title>2025-12-11 6.0km</title><desc>1765450773000</desc></polyline><polyline fill="none" points="58.80000000001746,44.61872353783838 54.115748031501425,43.741665000743524 48.75826771653374,41.28584774097544 47.87244094489142,40.98513001950778 39.248031496070325,39.297747600707226 37.20000000001164,39.297747600707226 39.26929133859812,39.34786840558081 47.73779527560691,41.01854315790115 48.58818897642777,41.28584774097544 54.05196850394714,43.7750769382983 58.75039370081504,44.70225239930005" stroke="#4DD2FF" stroke-linecap="round" stroke-linejoin="round" stroke-width="0.5"><title>2025-12-07 6.0km</title><desc>1765101913000</desc></polyline><polyline fill="none" points="83.8532556372229,47.55504297003063 83.65624524958548,48.29042336418934 83.41545477582258,48.387183262620965 82.72591841907706,51.04479334360076 78.99913858628133,50.29009580791535 74.4350646060484,48.24526869082911 67.49592095264234,46.87771084443011 64.96762097798637,46.94221899968397 64.2726121104788,46.69708763593735 63.83481124904938,46.34229044400854 63.500988092215266,45.852021735372546 63.23830757540418,45.19402314188119 63.20000000001164,44.82631486106402 65.54223460858339,42.89097048520853 67.89541423867922,40.48460408962637 68.73818089690758,39.77493312695515 70.62072460097261,38.52331087946368 70.97643780088401,38.36201742801859 71.57294147455832,38.29749992438883 71.77542437295779,38.1426576288286 72.3609830250789,37.47812151145263 72.90823410186567,36.284518490447226 73.51021028633113,35.684481935306394 76.22457562710042,34.194042238374095 79.12500633395393,32.95520665639924 79.13047884471598,33.4262253234192 79.56280719535425,33.73593418514429 80.00608056754572,34.548912236914475 80.94187990881619,36.613568212596874 82.97765391436405,40.53621619145997 83.90798074487248,42.76839654479045 84.18707879402791,43.78123675421375 84.25274892325979,44.671489638662024 84.14877121869358,45.79396333002296 83.95176083102706,46.439053525329655 84.13235368637834,46.71644014892081 84.80000000001746,46.96157143254095 84.61393463393324,47.82597365126276 84.48259437549859,47.800170782622445 84.41692424629582,48.07755103121235 84.25822143405094,48.071100342524005" stroke="#4DD2FF" stroke-linecap="round" stroke-linejoin="round" stroke-width="0.5"><title>2025-11-30 10.9km</title><desc>1764501077000</desc></polyline><polyline fill="none" points="110.78791608390748,48.12157678604126 110.80000000001746,48.20703562890412 110.57040559439338,48.164306221435254 106.77605594406486,47.40229376628122 102.37751048951759,45.37971297265176 101.44704895102768,45.052105971037236 94.0396083916421,43.613464490452316 90.99446153847384,43.656196871743305 90.63194405596005,43.5208775684805 90.04587412587716,43.10779585778073 89.55043356644455,42.402702081002644 89.23625174825429,41.56939963224431 89.26646153850015,41.312996742017276 91.90679720282787,39.15489923207497 93.59854545455892,37.32437784591457 95.32050349650672,35.771599677835184 93.64083916082745,37.25315029677586 91.85241958042025,39.183389432233525 89.2241678321734,41.34148600168555 89.20000000001164,41.53378817981866 89.47188811190426,42.31011344450235 90.07004195803893,43.18613914137677 90.54131468533888,43.49951133709692 91.23009790212382,43.713173336713226 93.91272727274918,43.64195274774829 101.4349650349759,45.10908121964894 102.19020979019115,45.351225472433725 106.55854545457987,47.380928803104325 110.6308251748269,48.22840032217209" stroke="#4DD2FF" stroke-linecap="round" stroke-linejoin="round" stroke-width="0.5"><title>2025-11-16 10.0km</title><desc>1763290106000</desc></polyline><polyline fill="none" points="136.80000000001746,45.004401112979394 136.67700094910106,45.117161996342475 134.83201518509304,44.75471568801004 129.5362227143778,42.322252279634995 128.50439734262181,42.00812037716241 120.34546029739431,40.42133114247554 118.92413793102605,40.389111719043285 117.37981651377049,40.52604417174007 116.73748813668499,40.42133114247554 115.78082885159529,39.801104775186104 115.20000000001164,38.8828380036648 115.35033217337332,39.31780789584445 115.65782980070799,39.72055551465746 116.64865548876696,40.41327628793806 117.52331540652085,40.55826353552402 119.43663397661294,40.389111719043285 120.33179373617168,40.44549570086383 128.8597279342066,42.104776489279175 133.87535590009065,44.41643086441036 134.79101550148334,44.762770069726685 136.34217019935022,45.04467287677835" stroke="#4DD2FF" stroke-linecap="round" stroke-linejoin="round" stroke-width="0.5"><title>2025-11-12 6.4km</title><desc>1762942582000</desc></polyline><polyline fill="none" points="149.5564245809801,47.6191540058353 152.30167597765103,46.2677379171073 156.40446927386802,45.69871894241078 159.27039106143638,43.636016843986 161.92513966478873,43.77827257968602 162.6793296089163,43.10255728306947 158.03351955325343,35.56290224278928 156.79664804472122,35.31394839831046 151.5173184357118,37.80347829760285 142.52737430180423,39.86621725704754 142.97988826816436,42.569096850260394 141.23016759788152,44.95188003292424 142.4670391061809,46.0899195940292 143.1005586591782,48.01035235571908 144.3374301677104,48.721620881638955 146.69050279341172,47.86809846453252 149.28491620114073,47.6191540058353 152.4826815642882,46.23217426016345 156.313966480433,45.840973779093474 159.14972067042254,43.74270865149447 162.01564245810732,43.84940042413655 162.80000000004657,42.92473723561852 158.15418994415086,35.56290224278928 156.8871508379234,35.20725383548415 153.5687150838785,36.52315100689884 151.54748603352346,37.91017201167415 149.5564245809801,37.98130113512161 145.93631284916773,39.43944474885939 142.34636871516705,40.04403897075099 142.97988826816436,41.573301709519 142.88938547496218,42.85360918962397 141.38100558659062,44.38285876440932 141.23016759788152,45.129698975913925 142.61787709512282,46.33886521903332 143.16089385491796,48.11704273347277 144.39776536310092,48.82831102667842 146.60000000009313,47.93922541788197 149.64692737429868,47.6191540058353 152.6636871509254,46.2677379171073 156.10279329610057,45.947664865874685 159.54189944139216,43.70714471954852 162.4379888268886,43.56488895291113 162.80000000004657,42.818045160820475 162.28715083794668,41.928943179984344 158.15418994415086,35.56290224278928 157.09832402237225,35.17168897335068 153.719553072704,36.41645683927345 151.57765363145154,37.80347829760285 142.3765363128623,39.97291029695771 142.9497206704691,42.569096850260394 141.19999999995343,44.95188003292424 142.52737430180423,46.23217426016345 142.9497206704691,47.79697149581625 144.00558659236412,48.614930701383855 145.21229050296824,48.57936730037909 152.6335195529973,46.2677379171073 156.22346368723083,45.91210117418086 159.27039106143638,43.77827257968602 161.9553072626004,43.84940042413655 162.64916201122105,43.28037723354646 162.10614525142591,41.679994191392325 157.58100558666047,35.24281869357219 153.44804469274823,36.629845139657846 150.79329608939588,38.443640059413156 149.37541899457574,40.29298920719884" stroke="#4DD2FF" stroke-linecap="round" stroke-linejoin="round" stroke-width="0.5"><title>2025-11-04 6.4km</title><desc>1762251473000</desc></polyline><polyline fill="none" points="188.80000000001746,44.987139823730104 183.4710526316194,43.879789308186446 176.76052631580387,40.8833571350915 167.20000000001164,39.01286017627717 176.54736842107377,40.892662987731455 177.51052631583298,41.199755556452146 183.2815789473825,43.879789308186446 188.7526315789437,44.987139823730104" stroke="#4DD2FF" stroke-linecap="round" stroke-linejoin="round" stroke-width="0.5"><title>2025-10-28 5.4km</title><desc>1761648009000</desc></polyline><polyline fill="none" points="32.80000000001746,68.50305286285584 28.442219541640952,67.62777781143086 22.853317249682732,65.14009464966512 14.665379975893302,63.535338871137355 13.479855247336673,63.496947137136885 11.89047044632025,63.62747894744098 11.200000000011642,63.496947137136885 11.375874547666172,63.58140892433585 11.910012062755413,63.67354894044547 13.395174909557682,63.535338871137355 14.652352231612895,63.56605224329542 22.736067551304586,65.15545098783332 23.62195416164468,65.45489891348552 28.448733413766604,67.67384519029292 31.718697225587675,68.33414097975765" stroke="#4DD2FF" stroke-linecap="round" stroke-linejoin="round" stroke-width="0.5"><title>2025-10-17 6.4km</title><desc>1760694739000</desc></polyline><polyline fill="none" points="58.80000000001746,73.43485306450748 56.982480376784224,73.09911882496817 51.65199372058851,70.66899663937511 50.89921507067629,70.43717156919593 42.476232339133276,68.82236973139516 39.32270015703398,68.88632295512798 38.400376766134286,68.47862019910826 37.925651491386816,68.03094397580571 37.362762951350305,66.91174146989943 37.26103610676364,66.27218951725081 40.217896389367525,63.881814746695454 42.08288854005514,61.835144369862974 44.00213500787504,60.12421204225393 46.40967032968183,58.54915962902305 44.097080062842,60.02827073039225 42.21174254320795,61.68324077704165 40.319623233925086,63.73791010167042 37.28138147571008,66.22422289609676 37.20000000001164,66.39210593293683 37.288163265329786,66.75185400426562 37.912087912118295,68.04693245937233 38.90901098903851,68.78239893829596 39.54649921509554,68.96626440640102 42.46266875983565,68.84635219684424 50.9670329670771,70.50112338581675 51.7672841444728,70.75693009514362 56.77902668764,73.0751377491033 58.508383045584196,73.45084037096967 58.58298273157561,73.32294182194892" stroke="#4DD2FF" stroke-linecap="round" stroke-linejoin="round" stroke-width="0.5"><title>2025-10-12 10.0km</title><desc>1760258276000</desc></polyline><polyline fill="none" points="84.22654867259553,68.67456366348779 79.52566371683497,67.73160972309415 73.30973451328464,64.96109384476586 64.64424778759712,63.3004052821052 63.20000000001164,63.25867897525313 64.81415929205832,63.367167325821356 73.64247787609929,65.11130510539806 77.35221238937811,66.85540318295534 77.64247787609929,66.88878266327083 78.49911504428019,67.38947312356322 79.76637168144225,67.8651260304614 84.18407079647295,68.74132102475414 84.30442477876204,68.67456366348779 84.38230088495766,68.04871057320997 84.80000000001746,68.0236763432913" stroke="#4DD2FF" stroke-linecap="round" stroke-linejoin="round" stroke-width="0.5"><title>2025-10-09 6.0km</title><desc>1760007351000</desc></polyline><polyline fill="none" points="110.80000000001746,69.01809241441515 105.15928994081332,67.91332938857522 97.91668639052659,64.6692669248514 89.20000000001164,62.98190758558485 98.35976331360871,64.89022836150252 102.39005917159375,66.7985096471748 102.84165680475417,66.86881399299455 103.25065088761039,67.21029148162052 104.43502958581666,67.7124619620372 104.56284023672924,67.66224503707053 105.12520710058743,65.71380723368202 106.23289940829272,66.02515830601624 106.47147928993218,65.84437394038832 108.00520710059209,66.06533256137482 108.42272189349751,65.11118926867493" stroke="#4DD2FF" stroke-linecap="round" stroke-linejoin="round" stroke-width="0.5"><title>2025-10-05 5.0km</title><desc>1759662272000</desc></polyline><polyline fill="none" points="136.80000000001746,67.90756351863092 136.6307210031664,68.59393846190505 132.36489028215874,67.73197819825145 131.20025078370236,67.30099426473316 130.17780564265558,66.75028888346424 126.31824451411376,65.07420356305374 118.14545454547624,63.469914563364 116.62194357370026,63.406061538094946 115.20000000001164,63.53376753302291 117.7391849529813,63.461932938254904 125.87811912226607,65.05025920931803 127.01567398119369,65.4014422800683 131.1054545454681,67.34888149362087 132.21592476492515,67.77188398983708 134.07122257055016,68.09112954013835 134.22695924769505,67.80380860745208 134.13893416928477,67.67611005355138 134.20664576807758,67.50850536391954 134.6941692790133,67.50052417867846 135.4728526645922,67.708034712894" stroke="#4DD2FF" stroke-linecap="round" stroke-linejoin="round" stroke-width="0.5"><title>2025-10-02 6.2km</title><desc>1759399141000</desc></polyline><polyline fill="none" points="161.91378862634883,73.83893409433585 161.66138665284961,74.75790081051673 161.3585042846098,74.76451203145189 161.25754349521594,75.26035155009959 157.99314463775954,74.65212117755436 156.80965982860653,74.26866846298435 153.44430018175626,72.66210748189405 152.48517268244177,72.32492261845982 145.80493378339452,71.02905747677141 144.77849909113138,70.96294116657009 143.2192157880927,71.07533885106022 142.6190599844267,70.95632953157838 142.17034536483698,70.7050868686274 141.80015580367763,70.35466773357257 141.50849130094866,69.87201165038277 141.20000000001164,68.95297096214199 142.02451311345794,68.17937916426672 143.66793040765333,66.88342550987727 145.35621916383388,65.08491336170482 146.8425863411976,63.76905637053642 148.93471825501183,62.39365775905753 149.1759023630293,62.2812439943591 149.68631524278317,62.26140624956679 149.93310828355607,62.12915445181352 150.7127499350754,61.223221886797546 151.21755388210295,60.052763435669476 151.8064918202872,59.52373525744406 154.46512594132219,58.05565789983302 157.51077642169548,56.739648449900415 157.51077642169548,57.17611705969466 158.088496494398,57.658874137181556 158.90179174239165,59.49728372743266 161.26876136069768,64.02032774883264 162.43541937158443,66.77763215306913 162.73830173979513,67.90828910712662 162.80000000001746,68.82073374668835 162.71025707607623,69.82572935855205 162.50272656453308,70.50012497861462" stroke="#4DD2FF" stroke-linecap="round" stroke-linejoin="round" stroke-width="0.5"><title>2025-09-30 10.1km</title><desc>1759229695000</desc></polyline><polyline fill="none" points="188.78709291902487,68.50649539211736 184.23089333731332,67.57847284547461 179.6295189722441,65.4409313847791 178.7195697639836,65.12904264233657 170.85270391398808,63.60000694874907 169.58135643863352,63.56197080826678 168.0712279653817,63.69890081707854 167.20000000001164,63.478291226230795 167.98087839860818,63.744544093700824 170.4203167015512,63.5847924950358 171.16892739766627,63.67607916758425 178.7066626830201,65.1518638170237 179.345563190931,65.34203998308658 182.75948610695195,66.9699267771939 184.54066328058252,67.7001814229152 188.6451150283683,68.52170877376193 188.80000000001746,68.47606861886743" stroke="#4DD2FF" stroke-linecap="round" stroke-linejoin="round" stroke-width="0.5"><title>2025-09-29 6.6km</title><desc>1759141711000</desc></polyline><polyline fill="none" points="31.226563706586603,99.47779533461289 31.0820077220269,100.16589648401714 30.609420849446906,100.08070343514191 27.47922779925284,99.47124195250217 23.187027027044678,97.50519509708829 22.04725868726382,97.17096074319852 15.397683397692163,95.89954251156814 13.273822393850423,96.00440276367226 12.795675675675739,95.95197266047035 12.050656370673096,95.56529923828202 11.817142857151339,95.32280785819239 11.500231660262216,94.79849883047063 11.200000000011642,93.90716299702035 11.472432432434289,93.59257072642868 13.89096525099012,91.6525487053841 15.230888030899223,90.16471915843067 16.854362934391247,88.73584380678585 18.85034749037004,87.41836443764987 19.600926640909165,87.29382509393326 19.85111969112768,87.15617604557701 20.490501930500614,86.49414526906912 21.124324324337067,85.12417725212072 21.69698841701029,84.57355930507038 25.46100386104081,82.60702548125482 28.702393822401064,81.34185472552053 29.56416988419369,81.1386382886958 31.582393822434824,80.40443124538797 32.80000000001746,79.83410351597922 29.80324324328103,80.98786435951115 28.613436293468112,81.30252256553285 27.501467181486078,81.71550896214103 27.34579150582431,82.06949504453587 27.462548262556084,82.3579266079796 27.801698841736652,82.50214187092206 28.129729729727842,83.08555463209632 29.286177606176352,85.60924126685495 31.093127413158072,89.02424340081052 31.093127413158072,89.20121519437089 31.504555984574836,89.93531485253334 32.244015444041,91.72464523762756 32.444169884198345,92.4783765375214 32.71660231662099,92.54391794338153" stroke="#4DD2FF" stroke-linecap="round" stroke-linejoin="round" stroke-width="0.5"><title>2025-09-26 11.4km</title><desc>1758886655000</desc></polyline><polyline fill="none" points="58.80000000001746,93.71470535787375 54.6989638756495,92.88054291237495 50.12612713527051,90.76300589154562 49.38818258192623,90.53484966704855 42.0208345001447,89.1159852963392 40.81713805659092,89.08033504170453 39.45617474097526,89.1944157881735 38.79686362363282,89.09459514587797 37.883506020734785,88.41723676625406 37.562923550838605,87.93238646387181 37.242341080942424,87.11954113459797 37.26653598435223,86.81293895866838 37.87140856904443,86.28529464212625 37.272584710182855,86.77728744964406 37.20000000001164,86.99832649252494 37.841164939804,88.42436689096212 38.173844861390535,88.75948187623726 38.74242509101168,89.07320498843183 39.444077289284905,89.22293594374787 41.23450013998081,89.0874650941696 42.03293195186416,89.13024539276375 48.98291795013938,90.4778104866491 50.114029683580156,90.77726562919997 54.68686642398825,92.91619109754538 56.24138896664954,93.23702389044774" stroke="#4DD2FF" stroke-linecap="round" stroke-linejoin="round" stroke-width="0.5"><title>2025-09-25 7.3km</title><desc>1758798919000</desc></polyline><polyline fill="none" points="84.80000000001746,91.03656820525066 84.39365079370327,92.46597270963684 80.23492063497542,91.65772669504804 75.38412698416505,89.42003304446553 74.16507936510607,89.04582967016177 66.67301587303518,87.61635401890817 65.39047619048506,87.59390128454834 64.03174603177467,87.72113334891765 63.20000000001164,87.53402729037043 63.91111111114151,87.75107027099875 65.53015873016557,87.63132250440685 66.88253968255594,87.69868064879847 74.48253968259087,89.13563866586628 75.16825396829518,89.34519253264443 80.17142857145518,91.66521049804578 83.83492063498124,92.38365179109678" stroke="#4DD2FF" stroke-linecap="round" stroke-linejoin="round" stroke-width="0.5"><title>2025-09-23 6.7km</title><desc>1758623965000</desc></polyline><polyline fill="none" points="110.79999999998836,92.53187544148386 106.40383544695214,91.67350453385734 101.40637179088662,89.37396528589306 100.29062789981253,89.01957773389586 92.30671203217935,87.46812733742263 91.05734611814842,87.4287499906277 89.20000000001164,87.55475742492854 92.09291679554735,87.46812733742263 100.06347046088194,88.9880765341295 101.28611197031569,89.32671371264587 106.4973708629841,91.7207545735946 110.79999999998836,92.5712500093723" stroke="#4DD2FF" stroke-linecap="round" stroke-linejoin="round" stroke-width="0.5"><title>2025-09-22 6.4km</title><desc>1758538508000</desc></polyline><polyline fill="none" points="135.8855305466277,99.55903961576041 132.1234726688126,98.8154404095003 127.69003215435077,96.80290287188836 126.83922829583753,96.52318914708667 119.99228295823559,95.18600383799276 118.66109324761783,95.12460178624315 117.32411575564765,95.24058338901159 116.7627009646385,95.13824669183305 116.21864951771568,94.851703050168 115.81350482316338,94.47646534659725 115.20000000001164,93.0573642489253 115.30418006432592,92.88679704850074 117.80450160772307,90.887714831817 119.4077170418168,89.13420110122752 121.14983922831016,87.59216012284742 123.24501607721322,86.23431383651769 124.04372990355478,86.12513898677571 124.3504823151452,85.88631833927866 124.9987138263823,85.10843905730144 125.55434083603905,83.86654157517114 126.16205787783838,83.306997296786 128.7665594855498,81.86717134472929 132.0540192926419,80.44096038424323 132.0598070739652,80.87087428634914 132.51704180066008,81.21889766360982 132.95691318329773,81.9968252753606 133.176848874602,82.63144327237023 134.61800643085735,85.42232133416474 134.6527331189718,85.64749678080625 135.48038585210452,87.01900246784498 136.80000000001746,89.97343753456516" stroke="#4DD2FF" stroke-linecap="round" stroke-linejoin="round" stroke-width="0.5"><title>2025-09-21 9.0km</title><desc>1758451095000</desc></polyline><polyline fill="none" points="161.5551401869452,98.04840706669347 161.27476635514176,99.23812016781085 161.17383177572628,99.2645579718519 157.4953271028062,98.54412369297643 153.13271028039162,96.54140365801868 152.4093457943818,96.323281643472 145.77570093458053,95.03436282600524 142.84299065420055,95.03436282600524 142.321495327109,94.81623539454085 141.80560747665004,94.36014823146616 141.5252336448466,93.91727770573561 141.20000000001164,92.972035772058 141.65420560745406,92.48949400289712 143.76261682240875,90.83031425383888 145.45607476634905,89.00582517937073 146.85794392522075,87.78285794669137 149.07850467288517,86.32848644193655 149.73457943924586,86.26237781776581 150.02056074765278,86.07066240025961 150.6934579439112,85.27073980955902 151.226168224297,84.06753059136099 151.83738317756797,83.51880637514114 154.48411214954103,82.06433262694918 157.5177570093656,80.73544202814446 157.52897196263075,81.19824305366274 157.9775700934697,81.49575613372144 158.25233644861146,82.01144201523857 159.05420560747734,83.79647467126779 160.89906542058452,87.28705339639782 162.44112149532884,90.79726240350647 162.73831775703002,91.94745620634421 162.80000000001746,92.70762979846768 162.68785046730773,93.8710074643277 162.37383177570882,94.98809343637186" stroke="#4DD2FF" stroke-linecap="round" stroke-linejoin="round" stroke-width="0.5"><title>2025-09-18 10.1km</title><desc>1758194958000</desc></polyline><polyline fill="none" points="180.8844235634606,91.21461482347513 180.82197325627203,91.38943669026776 181.29815684858477,91.52745369799231 188.80000000001746,92.99042012012796 174.95164438022766,90.23928619162325 169.09692808095133,87.51566737395478 167.20000000001164,87.00957987987931 169.0578966389876,87.5432720591707 175.0453198410105,90.27609125006711 179.61199855443556,91.19621250066848" stroke="#4DD2FF" stroke-linecap="round" stroke-linejoin="round" stroke-width="0.5"><title>2025-09-16 5.4km</title><desc>1758020593000</desc></polyline><polyline fill="none" points="32.7934065934096,116.50252732780064 28.4021978022065,115.62433699439134 23.358241758251097,113.30057769726409 22.342857142852154,113.01301693747519 14.318681318691233,111.47415858288878 11.200000000011642,111.5363353214052 11.608791208826005,111.60628408745106 13.30329670329229,111.46638648675435 14.463736263744067,111.50524695890635 22.5868131868192,113.06742041334655 23.443956043949584,113.36275284430303 28.454945054952987,115.66319520225079 32.80000000001746,116.53361351324565" stroke="#4DD2FF" stroke-linecap="round" stroke-linejoin="round" stroke-width="0.5"><title>2025-09-15 6.5km</title><desc>1757932870000</desc></polyline><polyline fill="none" points="58.80000000001746,123.75549773908278 54.81500559911365,122.95720798324328 50.10436730121728,120.79750028606941 49.48756998879253,120.60504762693017 41.93482642775052,119.13668648446037 40.79193729002145,119.10817429152667 39.455543113086605,119.2293510256859 38.86898096304503,119.14381453076203 38.22799552071956,118.80879551573162 37.877267637173645,118.47377478556155 37.53258678613929,117.90352278976206 37.242329227301525,117.1621877657526 37.20000000001164,116.94121127796097 37.30279955206788,116.79864540592098 39.860694288887316,114.7028912415044 41.565957446815446,112.8494472700113 43.355879059352446,111.26684970546194 45.65979843225796,109.79114991565439 46.40963045912213,109.69847200630466 46.74221724522067,109.4632121082177 47.37110862263944,108.76455651449214 47.97581187009928,107.39574025033653 48.60470324745984,106.78261534320336 51.470996640535304,105.21413012099947 53.59955207165331,104.24450226090994" stroke="#4DD2FF" stroke-linecap="round" stroke-linejoin="round" stroke-width="0.5"><title>2025-09-13 7.0km</title><desc>1757768754000</desc></polyline><polyline fill="none" points="84.80000000001746,116.63155517823907 80.02504075644538,115.69352025850822 74.77117704597185,113.26951815970824 73.91196609064355,112.98726632935723 65.2846429736237,111.31033684356953 63.20000000001164,111.31863856557902 65.3973263775988,111.37675059420872 73.6584284317214,112.97066324797925 74.66553635479067,113.26951815970824 80.06729703294695,115.74332771258196 84.77182914901641,116.6896631564232" stroke="#4DD2FF" stroke-linecap="round" stroke-linejoin="round" stroke-width="0.5"><title>2025-09-11 6.0km</title><desc>1757587445000</desc></polyline><polyline fill="none" points="108.73634059808683,123.0503144438917 105.06335529653006,122.32768589600164 100.99077546884655,120.43719630732085 100.05473897623597,120.15974736630233 93.57364419670193,118.90798482506216 92.44602128741099,118.86927009797 91.17607704005786,118.97250931397139 90.54657881401363,118.85636518333558 89.76928535228944,118.24983102347687 89.44632539284066,117.67555359511971 89.20000000001164,116.86897477195816 91.61398884950904,114.86215900030948 92.3529650279088,114.15878947034435 93.2178408515465,113.13921146806751 94.8107450583193,111.73887636178551 95.98763304614113,111.04837635498188 96.78134820074774,110.46112235001783 97.48748099344084,110.34496152723295 97.80496705527185,110.15781305570272 98.43446528134518,109.43502719841854 98.97090724788723,108.2088524398605 99.57303598581348,107.67965338396971 102.04723770910641,106.30500446718361 105.1235681703256,104.94968555610467 105.11809427270782,105.4079158977438 105.57242777498323,105.68543395766392 105.88443993919645,106.25337383902661 106.49204257479869,107.67319970775861 108.92245311709121,112.37774302910475 109.05382665991783,112.82946277590963 109.21804358845111,113.01014970987671 109.93512417637976,114.7653655239701 110.11576279779547,115.46227502301554 110.37850988341961,115.53325608592422 110.45514445009758,116.79799530973833 110.17050177397323,118.68214856037594 110.38398378106649,118.8370078060725 110.78905220478191,118.9144372771043 110.80000000001746,119.03058129391502" stroke="#4DD2FF" stroke-linecap="round" stroke-linejoin="round" stroke-width="0.5"><title>2025-09-09 10.0km</title><desc>1757415422000</desc></polyline><polyline fill="none" points="136.77024793392047,116.8406334697138 131.63801652894472,115.7973444406307 126.18595041317167,113.26358622180123 125.189256198355,112.94795677466027 116.10743801650824,111.17690192166629 115.20000000001164,111.1593665302862 118.06363636360038,111.55391191240778 125.34545454542967,113.00932926408859 131.89834710743162,115.89378348943865 136.79999999998836,116.8406334697138" stroke="#4DD2FF" stroke-linecap="round" stroke-linejoin="round" stroke-width="0.5"><title>2025-09-08 5.7km</title><desc>1757333196000</desc></polyline><polyline fill="none" points="162.80000000001746,116.79019250415149 157.95479452057043,115.87468786455429 152.30328767123865,113.26762206282729 151.482191780844,112.98859995778184 142.59068493152154,111.253409413388 141.20000000001164,111.15749326118384 142.25041095892084,111.22725047417771 151.26767123292666,112.97116104392626 152.39205479453085,113.33737743712845 157.89561643835623,115.88340700572735 162.7334246575483,116.84250673880888" stroke="#4DD2FF" stroke-linecap="round" stroke-linejoin="round" stroke-width="0.5"><title>2025-09-04 5.8km</title><desc>1756983645000</desc></polyline><polyline fill="none" points="188.80000000001746,116.51697942698229 184.54879807692487,115.66781105441623 179.46682692310424,113.34975864609441 176.71490384617937,112.7071167125032 170.71778846156667,111.56717786552326 169.49110576923704,111.54422588666785 168.00480769234127,111.6666363539407 167.20000000001164,111.48302057301044 167.56995192309842,111.65133505719132 168.0826923077111,111.72019086628279 169.49110576923704,111.58247918060079 170.7956730769656,111.62073245370266 178.9346153846418,113.20439967566926 179.80432692312752,113.5180686571548 184.56177884619683,115.72136251629126 187.22932692308677,116.2033238362128" stroke="#4DD2FF" stroke-linecap="round" stroke-linejoin="round" stroke-width="0.5"><title>2025-09-02 6.2km</title><desc>1756809719000</desc></polyline><polyline fill="none" points="32.79999999998836,140.79810107860249 27.925233644840773,139.84633443273924 21.338317757006735,136.92927618528483 12.418691588798538,135.20190511226247 11.200000000011642,135.11377294633712 12.373831775708823,135.2195315339559 20.882242990657687,136.86758499624557 22.033644859824562,137.21129245055636 28.044859813089715,139.96089952903276 32.79252336447826,140.88622705366288" stroke="#4DD2FF" stroke-linecap="round" stroke-linejoin="round" stroke-width="0.5"><title>2025-08-29 5.7km</title><desc>1756465472000</desc></polyline><polyline fill="none" points="58.80000000001746,140.69108327425056 54.12011853806325,139.76893212165305 48.593875535123516,137.2371512494792 47.73328943038359,136.97726174526906 39.05630556473625,135.29215044338343 37.20000000001164,135.29215044338343 39.148765228892444,135.36760397723992 47.9679947316763,137.06948070205544 54.01343431021087,139.77731536370266 58.686203490331536,140.70784955661657" stroke="#4DD2FF" stroke-linecap="round" stroke-linejoin="round" stroke-width="0.5"><title>2025-08-27 6.0km</title><desc>1756291993000</desc></polyline><polyline fill="none" points="83.82437728330842,140.7016389829805 80.18731318498612,140.03364897720166 78.60909996679402,139.62777882525552 73.63055463301134,137.29398427699925 72.60471604115446,136.9642033035343 64.51278644966078,135.3829263534426 63.20000000001164,135.2391723063265 65.35928263035021,135.55204842100648 72.5903686482634,136.97265924344538 73.47273331118049,137.25170474329207 78.20019926934037,139.5009439676578 79.383859182999,139.91527040204528 83.81720358683378,140.7608276936735 83.9893723015557,140.10129379624414 84.79999999998836,140.23658325758151 84.39827299900935,140.1435717782515 84.42696778476238,139.94063725476735" stroke="#4DD2FF" stroke-linecap="round" stroke-linejoin="round" stroke-width="0.5"><title>2025-08-26 6.0km</title><desc>1756205162000</desc></polyline><polyline fill="none" points="110.80000000001746,142.03366518364055 106.67795473599108,141.2227087659994 102.1937971500738,139.15970407468558 101.26437552392599,138.868032636914 93.85314333613496,137.43811235302564 91.37870913665392,137.5448239029356 90.72087175189517,137.39542768424144 90.08717518861522,137.01126440985536 89.76127409894252,136.61998467792728 89.22414082149044,135.28250171059335 89.61642917015706,134.84852528753981 90.71483654654003,133.96633481635217 89.41123218776193,135.00504170701606 89.20000000001164,135.296730396949 89.54400670583709,136.28561650399206 89.82766135793645,136.7551543048976 90.8234702431073,137.459454676944 91.44509639567696,137.5875084740619 92.79698239735444,137.466568783384 93.91349538977374,137.48791109801095 101.3790444258484,138.92494423925382 102.19983235542895,139.2023875904706 106.6055322716129,141.2227087659994" stroke="#4DD2FF" stroke-linecap="round" stroke-linejoin="round" stroke-width="0.5"><title>2025-08-23 7.3km</title><desc>1755948655000</desc></polyline><polyline fill="none" points="136.80000000001746,139.86660195981676 136.4732350659906,140.9924404991616 130.95174553923425,139.90610530306003 124.19022498067352,136.8247928511555 117.61303335923003,135.40261332724913 115.20000000001164,135.00755950083112 123.76291698994464,136.7359072844265 130.70876648570993,139.86660195981676 135.22482544611557,140.78505023948674" stroke="#4DD2FF" stroke-linecap="round" stroke-linejoin="round" stroke-width="0.5"><title>2025-08-19 5.0km</title><desc>1755607675000</desc></polyline><polyline fill="none" points="162.17765697199502,143.62319830062916 158.2557216635032,142.84812591182708 153.7055721663346,140.74431034366717 152.93645012233173,140.52285202134226 145.7560206577764,139.1456407539372 143.072900244646,139.2217687893717 142.18635498775984,138.80652385158464 141.5757542810461,138.06599697712954 141.23522696385044,136.95865096800117 143.77743952162564,134.88924637516902 146.1728730633331,132.37680169937084 145.46833378632437,133.00665253549232 143.84789344930323,134.76466468319995 141.20000000001164,136.96557194050547 141.32916553411633,137.49156364409282 141.82234302800498,138.45356352069211 142.2391954335617,138.8411277000705 142.96134819247527,139.19408587795624 143.36058711606893,139.25637241168442 144.746181027469,139.1317992831464 145.90279967384413,139.1456407539372 148.81489535202854,139.69929711287114 149.06735525958356,139.6093282828515 150.2239739059587,139.82386912876973 150.57037238380872,139.97612348318216 152.325849415618,140.2391074178522 153.45898341940483,140.60589898267062 154.04609948355937,140.5920578299847 154.03435716227978,140.75123090381385 154.41011144334334,140.73738978277106 154.12829573254567,140.92424466224475 154.55689045938198,141.18722467280168 157.99739059529384,142.73740051314235 158.65496058712597,142.9242495115177 158.8604512095626,142.82736491427204 159.98184289206984,142.91040886379778 159.98184289206984,143.17338065471267 161.88409893994685,143.55399579311052 162.21875509648817,143.5885970562813 162.31269366675406,143.11109796047822 162.62973634139053,143.05573551435373 162.80000000001746,142.4813472897149" stroke="#4DD2FF" stroke-linecap="round" stroke-linejoin="round" stroke-width="0.5"><title>2025-08-16 10.0km</title><desc>1755297330000</desc></polyline><polyline fill="none" points="180.19901477830717,137.24753434462036 179.80886699509574,139.23331854348362 188.79999999998836,140.99958680506097 173.88571428571595,138.0418529547751 167.20000000001164,135.00041319493903 173.68177339900285,138.03140143680503 179.31231527094496,139.16015880200575" stroke="#4DD2FF" stroke-linecap="round" stroke-linejoin="round" stroke-width="0.5"><title>2025-08-13 5.0km</title><desc>1755095249000</desc></polyline><polyline fill="none" points="32.67905935054296,166.02019168320112 28.718253079539863,165.22902860980685 24.21321388578508,163.15485298719432 23.37267637180048,162.88399358588504 15.97110862264526,161.45839931203955 13.346696528606117,161.54393584423815 12.766181411017897,161.42275905729184 12.167525195982307,161.06635544217716 11.853079507302027,160.75271865519608 11.562821948493365,160.26800430037838 11.218141097429907,159.29856481918978 11.967973124352284,158.55721905414975 12.838745800690958,157.89427774654905 12.17961926094722,158.35762452844938 11.200000000011642,159.30569310308056 11.840985442366218,160.7598467807038 12.342889137769816,161.2303013462224 12.76013437853544,161.44414321246586 13.346696528606117,161.5724479967903 15.40268756999285,161.45127126263105 16.146472564403666,161.50116759210505 23.71735722286394,163.01942342666007 28.60335946251871,165.22902860980685 32.80000000001746,166.10572225345095" stroke="#4DD2FF" stroke-linecap="round" stroke-linejoin="round" stroke-width="0.5"><title>2025-08-12 8.1km</title><desc>1754996616000</desc></polyline><polyline fill="none" points="58.80000000001746,164.50519530386373 54.444686648464995,163.63418363803794 49.52697547682328,161.36796146939741 48.716076294280356,161.09816828244948 44.09264305178658,160.1269042935819 40.607084468676476,159.525638953819 39.37765667575877,159.49480469613627 37.821253406000324,159.6258501985285 37.20000000001164,159.5179303906698 37.76893732973258,159.6258501985285 39.312261580402264,159.51022182664747 40.62016348776524,159.53334751616057 48.64414168935036,161.10587667349319 49.57929155312013,161.4373366940854 54.24196185285109,163.58793493131816 58.42724795639515,164.45123914040596" stroke="#4DD2FF" stroke-linecap="round" stroke-linejoin="round" stroke-width="0.5"><title>2025-08-10 6.4km</title><desc>1754781124000</desc></polyline><polyline fill="none" points="82.65803187454003,171.03750738702365 79.06258537821122,170.3161586319111 74.98628889449174,168.43545800479478 74.21037186947069,168.17782312410782 67.49486465976224,166.86386777273583 66.89380217556027,166.82522158513893 65.0141158613842,166.93471905110346 64.60430053123855,166.83810365048703 64.03055906906957,166.50961010754327 63.631672147719655,166.05873364591753 63.25464204401942,165.17629405068146 63.20000000001164,164.84135002636322 65.58785732355318,162.88317775850373 67.2380470528733,161.10530729045058 68.79534530738601,159.74610213850974 70.75699468760286,158.4641691164652 70.97556286366307,158.36109791726267 71.52744750824058,158.341772047399 71.74055147991749,158.20004880871056 72.34161396409036,157.5365218534207 72.95906906147138,156.20944559690906 73.51641791046131,155.68118365039845 76.01355932204751,154.33473855480042 79.10083480901085,152.96249261297635 79.10083480901085,153.4327964541444 79.64725524917594,153.78713249244902 79.81118138122838,153.99329066438804 79.89860865168157,154.32829616001982 81.8274728054821,157.7619930135079 82.6197824437113,159.50131305557443 83.11702504428104,160.19058498719096 83.12248924869346,160.39027909205834 83.34652162916609,160.7316900314072 83.75087275489932,161.91050887255915 84.06233240576694,162.46448119306297 84.3246142170392,163.6110585758106 84.41204148749239,164.77049623961648 84.16615228939918,166.43231724398356 84.2317227422318,166.52893330763254 84.79999999998836,166.70284182440082 84.73442954718485,167.21812331564797" stroke="#4DD2FF" stroke-linecap="round" stroke-linejoin="round" stroke-width="0.5"><title>2025-08-08 10.0km</title><desc>1754654808000</desc></polyline><polyline fill="none" points="110.80000000001746,165.02405471847305 105.03715415022452,163.8466667746834 98.42909090910689,160.79746415981208 91.60758893282036,159.32817548953608 89.20000000001164,158.97594528153422 98.27541501977248,160.79746415981208 105.207905138348,163.9472988091875 110.65486166009214,164.99386547139875" stroke="#4DD2FF" stroke-linecap="round" stroke-linejoin="round" stroke-width="0.5"><title>2025-08-07 5.0km</title><desc>1754573743000</desc></polyline><polyline fill="none" points="136.80000000001746,165.03482033329783 131.089850511431,163.89303733305132 124.56396538161789,160.89829351959634 123.73123524783296,160.6478924617768 115.20000000001164,158.96517966670945 117.46876475214958,159.44595789298182 117.6557041699707,159.3658283631521 118.15704169948003,159.576168230029 124.09661683713784,160.78811713816685 131.1663257277978,163.9731629183516 136.41762391818338,165.02480475455377" stroke="#4DD2FF" stroke-linecap="round" stroke-linejoin="round" stroke-width="0.5"><title>2025-08-04 5.0km</title><desc>1754309955000</desc></polyline><polyline fill="none" points="162.80000000001746,164.51361564642866 158.48262056417298,163.64874102436443 153.50354868063005,161.36295016977238 152.75668789810152,161.115833231117 144.8556869882159,159.5558876769428 143.4667879891349,159.48638435357861 141.77652411288,159.61766835161689 141.20000000001164,159.49410694841936 141.32447679713368,159.58677802101738 142.11719745225855,159.64083609075897 144.40363967246958,159.51727472792845 147.5417652411852,160.13507938863768 148.04622383989044,160.14280191283615 148.9175614195119,160.4053672348964 152.67151956327143,161.1235556485044 153.71319381255307,161.49423069309705 158.40400363970548,163.64101888203004 162.35450409466284,164.43639512691152" stroke="#4DD2FF" stroke-linecap="round" stroke-linejoin="round" stroke-width="0.5"><title>2025-08-03 6.5km</title><desc>1754227262000</desc></polyline><polyline fill="none" points="186.29813566044322,164.52988705886673 180.56612455376307,163.3886921075973 173.34327647759346,160.1771123592407 167.20000000001164,158.92476810025255 173.87449424833176,160.31850500328437 180.7888932963251,163.47958425558318 188.80000000001746,165.07523189974745 186.4780642602127,164.5500850731114 186.4780642602127,164.39859985899238" stroke="#4DD2FF" stroke-linecap="round" stroke-linejoin="round" stroke-width="0.5"><title>2025-08-01 5.0km</title><desc>1754057984000</desc></polyline><polyline fill="none" points="30.733485193632077,195.0162999546592 27.048747152643045,194.28814205905292 22.992255125311203,192.41937724771196 22.123006833717227,192.14227950954955 15.562642369040987,190.87276862803992 14.365375854220474,190.83410289452877 13.173576309811324,190.937211461056 12.605011389532592,190.83410289452877 12.134851936221821,190.56988637257746 11.790432801819406,190.24122514968622 11.396810933947563,189.49367517665814 11.200000000011642,188.84278345534403 13.610933940799441,186.8449522582123 15.283826879283879,185.05973632922542 16.814578587713186,183.7191777552871 17.968109339446528,183.055332212778 18.870159453334054,182.39147921887343 19.50979498864035,182.3270270750363 19.739407744898926,182.18523211134743 20.439179954468273,181.37957245507278 20.985876993188867,180.16783966410003 21.521640091144945,179.68442869662977 24.080182232370134,178.27929171338837 27.076082004554337,176.98370004533717 27.12528473805287,177.40267558108462 27.562642369040987,177.70562527287257 28.01640091117588,178.51778061822552 28.295216400932986,179.29769707735613 28.984054669708712,180.72214604322653 30.77722095674835,184.08010036033738 31.017767653771443,184.8019389631554 31.72847380413441,186.29070326044166 32.20956719818059,187.94699006919473 32.24236902053235,188.97811796731185 32.17676537585794,189.35189739197813 32.346241457853466,189.4743418623948 32.18769931662246,190.4474441696184 32.80000000001746,190.67943970779743 32.778132118459325,190.99520995076819" stroke="#4DD2FF" stroke-linecap="round" stroke-linejoin="round" stroke-width="0.5"><title>2025-07-28 10.0km</title><desc>1753704756000</desc></polyline><polyline fill="none" points="56.67911468812963,188.64850022056635 50.94229376257863,187.50101867973717 44.37102615693584,184.48881304280803 43.301891348091885,184.13021070905234 37.20000000001164,182.9109525488093 43.97118712271913,184.3658638252382 49.62977867203881,187.02972756374947 51.09875251509948,187.5829821110965 58.80000000001746,189.0890474511907 56.766036217304645,188.6280096015107 56.87034205230884,187.96206205222552" stroke="#4DD2FF" stroke-linecap="round" stroke-linejoin="round" stroke-width="0.5"><title>2025-07-22 5.0km</title><desc>1753194638000</desc></polyline><polyline fill="none" points="75.48612099644379,187.1401546342022 82.64128113878542,188.55959383404843 84.79999999998836,188.68794594610517 82.91672597863362,188.58224422403146 71.123843416397,186.27186633085512 65.98007117438829,183.93875954568648 63.20000000001164,183.3120540539021 65.94804270466557,183.95386081294419 70.77153024912695,186.18126170744654 72.7572953736817,186.6040822703726" stroke="#4DD2FF" stroke-linecap="round" stroke-linejoin="round" stroke-width="0.5"><title>2025-07-19 6.4km</title><desc>1752877000000</desc></polyline><polyline fill="none" points="108.82187738490757,195.0751299532094 105.14586619182955,194.34326736212824 100.96982955993735,192.43261018522753 100.25550750448019,192.20591797190355 93.46944797763717,190.89756316830972 91.11767997968127,190.97528802030865 90.60666497074999,190.87813193944385 90.12861867211177,190.59961696116443 89.66156194356154,190.10735473936438 89.25494785045157,189.19406798113778 89.20000000001164,188.86372676291649 91.60122106334893,186.87516339694048 93.18921394049539,185.15211985727365 94.75522767746588,183.7853091993129 96.66741287207697,182.5091590315169 97.00259475962957,182.3472090816722 97.51360976856085,182.32129704875115 97.87626558128977,182.09456627885083 98.46970236583729,181.38845634044628 99.00269651491544,180.17703718100165 99.56865937425755,179.65229715399255 102.34902060547029,178.1363554955169 105.1898244722106,176.92487004679424 105.19531925721094,177.39132726105163 105.63490206058486,177.68286116075615 105.92612566778553,178.22057549097008 106.52505723736249,179.5939924205668 108.37130501147476,183.0662634894361 108.85484609517152,184.22580137409022 108.98672093616915,184.34887948657342 109.81643347750651,186.47355620815142 110.00325616894406,186.73913545940377 110.29997456120327,187.84678247145348 110.3549224116432,188.57872502147075 110.26700585096842,189.69281497062912 109.99776138391462,190.7356360670201 110.80000000001746,190.91699439083095" stroke="#4DD2FF" stroke-linecap="round" stroke-linejoin="round" stroke-width="0.5"><title>2025-07-17 10.0km</title><desc>1752756134000</desc></polyline><polyline fill="none" points="136.80000000001746,189.04800965903996 131.0735677597695,187.901264471162 123.81098380088224,184.67219495613244 115.20000000001164,182.95199034095276 124.19502173058572,184.8331481348141 130.9114184117352,187.8912052398373 136.53544053732185,189.03795055260707" stroke="#4DD2FF" stroke-linecap="round" stroke-linejoin="round" stroke-width="0.5"><title>2025-07-14 5.0km</title><desc>1752500928000</desc></polyline><polyline fill="none" points="162.80000000001746,189.02579080695432 157.074902267399,187.90110282981186 151.15559030493023,185.15401913993992 149.7538702111342,184.64639681034168 141.20000000001164,182.9742091930384 150.31118060986046,184.79569778821315 157.17623143081437,187.9409150298743 162.19202501958353,188.94616733459407" stroke="#4DD2FF" stroke-linecap="round" stroke-linejoin="round" stroke-width="0.5"><title>2025-06-21 5.0km</title><desc>1750468889000</desc></polyline><polyline fill="none" points="181.97842552216025,187.32652039654204 187.59531787928427,188.44843585718627 188.80000000001746,188.512711553376 187.76387422537664,188.44843585718627 178.58251090199337,186.6545285494758 177.5959605232929,186.26885986236448 174.64622446638532,184.8664049041945 174.1256828092737,184.6969391143175 168.10722974524833,183.52819495340736 167.20000000001164,183.487288446624 168.00312141384347,183.50481981051053 170.34803764056414,183.93725830582844 174.56690383292153,184.84887398521823 177.70502639430924,186.333138169397 178.50814780814108,186.64284166029756 179.3806747762137,186.8181447307834" stroke="#4DD2FF" stroke-linecap="round" stroke-linejoin="round" stroke-width="0.5"><title>2025-06-17 8.1km</title><desc>1750165544000</desc></polyline><polyline fill="none" points="32.80000000001746,213.01272125003015 27.354060324840248,211.9297464837873 20.2542923433939,208.75950941166957 11.200000000011642,206.98727874996985 20.270997679850552,208.79889192064002 27.237122969847405,211.9199011991368 31.83109048724873,212.85519845389354" stroke="#4DD2FF" stroke-linecap="round" stroke-linejoin="round" stroke-width="0.5"><title>2025-06-15 5.0km</title><desc>1749939796000</desc></polyline><polyline fill="none" points="52.12555862948648,211.2381025305258 57.22332411148818,212.25669126443972 58.79999999998836,212.35421462386876 57.558884869125905,212.2783631386119 49.02736752500641,210.62043750358134 48.19536071503535,210.30618393271288 45.414343477314105,208.98412992807425 44.79378591189743,208.77823310975873 39.18578420943231,207.69455159916106 38.50546924880473,207.64578537613124 37.20000000001164,207.74873623537133 39.05247925090953,207.6837146648504 44.55475633114111,208.74572300792715 45.22128112363862,208.9299466374432 46.81174718026887,209.68308908626568" stroke="#4DD2FF" stroke-linecap="round" stroke-linejoin="round" stroke-width="0.5"><title>2025-06-11 8.1km</title><desc>1749642919000</desc></polyline><polyline fill="none" points="84.80000000001746,213.00608965243737 79.18852268322371,211.92017544324335 72.13648701045895,208.7709506707979 63.20000000001164,206.9939103475699 72.23699108182336,208.81044006006414 79.2471500581305,211.96953546222358 83.87033734007855,212.89749881689204" stroke="#4DD2FF" stroke-linecap="round" stroke-linejoin="round" stroke-width="0.5"><title>2025-06-08 5.0km</title><desc>1749387304000</desc></polyline><polyline fill="none" points="97.56811188790016,215.80507788300747 99.89426573412493,214.4161593648605 104.78825174819212,213.52582387713483 107.26545454538427,211.67391829402186 109.95412587397732,211.74514562575496 110.67916083906312,211.13971281045815 105.90601398586296,203.37582789201406 102.67356643348467,204.01688959554303 99.59216783207376,205.83322426024824 97.87020979018416,205.83322426024824 95.12111888104118,207.11533676987165 90.61986013967544,208.0413037876715 90.77090909087565,210.96164412194048 89.19999999995343,212.92039436011692 90.52923076902516,214.38054599188035 91.10321678326,216.1968230647617 91.94909090909641,216.73102028301219 97.20559440541547,215.62701173621463 99.98489510489162,214.38054599188035 104.03300699288957,213.84634493212798 107.41650349646807,211.67391829402186 109.80307692289352,211.7807592859317 110.76979020971339,210.96164412194048 105.90601398586296,203.268984152528 102.31104895088356,204.0525040977227 99.65258741239086,205.7976099521038 97.23580419563223,206.04691002782783 94.27524475508835,207.36463584043668 90.71048951032571,207.97007564865635 90.80111888097599,211.13971281045815 89.19999999995343,212.92039436011692 90.61986013967544,214.45177273399895 91.34489510476124,216.30366257813876 92.37202797201462,216.80224651284516 100.64951048931107,214.27370584977325 104.12363636342343,213.88195836322848 107.11440559430048,211.85198659449816 109.8937062935438,211.81637294217944 110.79999999993015,210.9260303725314 105.57370629359502,203.16214037805912 102.00895104883239,204.26619102951372 99.53174825175665,205.7976099521038 90.86153846140951,207.7920052332629 90.83132867130917,210.96164412194048 89.23020979005378,212.84916728449753 90.5896503495751,214.38054599188035 91.10321678326,216.08998351631453 92.64391608373262,216.83785962194088 104.84867132850923,213.13407549422118 106.35916083899792,211.10409908054862 105.90601398586296,209.0741100589512 103.91216783213895,206.5811238354363 102.2204195803497,205.72638132420252 100.7703496501781,205.65515268064337 99.10881118872203,206.3318241672241 96.42013986012898,209.57270502179745 92.13034965039697,210.2849822207354 89.56251748243812,212.31496372175752 89.47188811178785,213.1696890029125 90.92195804184303,214.91474617866334" stroke="#4DD2FF" stroke-linecap="round" stroke-linejoin="round" stroke-width="0.5"><title>2025-06-04 6.4km</title><desc>1749041988000</desc></polyline><polyline fill="none" points="136.80000000001746,213.02583408370265 131.2639007367252,211.92017610020412 124.95727025982342,209.00788740523421 124.00248158205068,208.69197249761783 115.20000000001164,206.97416591629735 124.25374176041805,208.7906960245091 131.13827064755606,211.90043208508723 135.73633191161207,212.84813996011508" stroke="#4DD2FF" stroke-linecap="round" stroke-linejoin="round" stroke-width="0.5"><title>2025-05-28 5.0km</title><desc>1748436903000</desc></polyline><polyline fill="none" points="162.79999999998836,213.01637612426566 156.8018987341784,211.78770070353494 149.85537974681938,208.64544012295664 141.20000000001164,206.97355283317302 149.57341772151995,208.5850109884268 150.61582278483547,208.91737073962577 157.3060126582568,211.97905286680907 162.69746835445403,213.0264471668197" stroke="#4DD2FF" stroke-linecap="round" stroke-linejoin="round" stroke-width="0.5"><title>2025-05-27 5.0km</title><desc>1748351986000</desc></polyline><polyline fill="none" points="183.19581204431597,214.45578841456154 183.2246776667307,213.1626589143707 183.9030197947286,211.6270492523763 184.3504369430011,208.7780363625352 184.32157132046996,209.04071418463718 183.67209481500322,209.1215380124122 180.51130915473914,211.36437717988156 179.31338582234457,211.64725477226602 178.83710305159912,210.8592369375765 179.38554987846874,209.97018486620073 180.39584666490555,209.1821558469601 180.23708574130433,207.82835013359727 180.71336851204978,206.95948157824023 180.0783248177613,206.5957672625882 177.75464220903814,206.63618001966825 177.14846413722262,205.7470961722065 177.35052349453326,204.6963520907011 177.79794064274756,204.83779895362386 177.75464220903814,204.1507697474808 178.41855152585777,204.55490505843773 179.6309076694888,204.5144915895362 180.59790602215799,205.16110543303512 181.91129184444435,205.20151868082758 182.4453058601357,204.93883232351072 183.75869168242207,203.1000114697017 183.81642292730976,200.0285106150841 183.3401401565643,199.48290671690484 182.58963397244224,199.20000000000437 181.6659340534825,199.46269911674608 180.84326381311985,200.3720377028294 180.20822011877317,200.59431940383365 178.9092671077815,200.35183025470178 177.53815004054923,199.60415224537428 176.28249546320876,200.0285106150841 175.64745176886208,200.9984668797042 175.67631739139324,202.0290366859117 176.22476421826286,202.79690638375905 177.46598598436685,203.38290884834714 177.75464220903814,204.09014933164144 177.19176257093204,205.40358471209038 177.59588128549512,206.61597364289628 177.69691096415045,208.293091156811 177.16289694840088,210.11162541596423 177.58144847425865,210.6167688542264 178.80823742918437,210.91985388064495 179.28452019981341,211.64725477226602 178.18762654607417,213.4253269894034 176.83094229002018,213.97086651033896 174.56499092635931,215.62767480068578 172.91965044569224,216.3348419972026 172.5443973536021,217.3046644135029 171.62069743458414,218.314887633358 172.41450205253204,220.5777563064912 173.13614261418115,220.73938812506094 174.08870815561386,220.15347173099872 175.20003462064778,220.61816428192105 176.00827204977395,220.51714431757864 176.64331574406242,219.85041038726922 177.1051657035714,218.17345690245565 178.20205935731065,217.56732328148792 180.71336851204978,218.35529638252774 181.6659340534825,217.8905949329128 183.15251361054834,217.8097771030225 183.2391104779672,213.32430087586545 184.37930256547406,209.32359733997146 184.20610883063637,209.04071418463718 183.77312449360033,209.08112610545504 180.5257419659756,211.38458274463483 179.356684256054,211.6270492523763 178.07216405618237,213.48594261614198 176.7010469889501,214.03148185720784 174.55055811512284,215.62767480068578 173.0062473131111,216.23381837109628 172.5443973536021,217.36527805028163 171.62069743458414,218.39570511781494 172.34233799629146,220.47673630766803 172.81862076703692,220.8000000000029 174.002111288195,220.15347173099872 175.3587955441908,220.63836826438637 176.2680626519723,220.274696050903" stroke="#4DD2FF" stroke-linecap="round" stroke-linejoin="round" stroke-width="0.5"><title>2025-05-23 6.4km</title><desc>1747958832000</desc></polyline><polyline fill="none" points="23.96246414014604,235.00872796052136 24.54702792642638,235.56406884160242 26.008437392534688,235.79789604120015 26.739142125472426,236.73320164064353 26.551246622693725,240.41591768682702 26.196332895196974,241.08815094071906 24.9228189321002,241.46810769736476 23.67018224694766,241.02969598017808 22.501054674037732,241.29274314538634 20.517713255947456,240.1236415344465 19.32770840509329,240.59128313840483 18.450862725498155,240.44514527462889 18.701390062458813,239.59754320059437 18.075071719940752,237.96078247261175 18.262967222719453,236.7916580706369 17.594894323963672,235.68098248133902 17.88717621716205,233.92726948737982 22.104386390419677,233.7518971982936 23.544918578350917,234.27801352569077 24.296500589465722,235.47638355921663 25.904051001998596,235.7686676587182 26.613878456875682,236.44091919057246 26.551246622693725,240.50360043509863 26.238087451434694,241.08815094071906 25.00632804434281,241.43888028456422 23.816323193488643,241.05892346295877 22.459300117916428,241.2635157025943 20.47595869982615,240.1528691721469 17.949808051460423,240.67896579670196 16.592784975771792,241.789608908628 17.031207815627567,242.11110951520095 17.36524426494725,243.86473854215 19.4112175173359,244.8000000000029 20.28806319704745,244.1862352454482 20.872626983444206,242.9879262775794 20.789117871085182,242.05265490441525 19.703499410534278,240.32823489353177 20.789117871085182,240.1528691721469 22.480177396093495,241.2635157025943 23.816323193488643,240.88355849117215 23.649304968770593,240.44514527462889 22.29228189319838,240.4743728573667 21.56157716026064,239.53908773019793 22.250527337077074,236.7916580706369 20.455081421649083,234.04418424681353 20.580345090129413,231.8520191990101 21.060522486222908,230.91668688764912 22.020877278060652,230.36133090594376 23.837200471549295,230.94591609992494 25.31948721560184,230.56593595127924 23.649304968770593,232.20276749618642 21.916490887640975,232.11508048939868 20.872626983444206,231.32589540380286 19.265076570911333,230.97514530709304 19.306831127032638,227.40914513079042 20.016658581909724,225.91841808597383 20.058413138031028,223.69691836352285 20.496835977886803,223.25846105888195 21.83298177528195,223.1999999999971 25.67440094309859,223.7553792525141 26.4677375103347,224.4569083602546 26.739142125472426,225.91841808597383 27.407215024228208,226.6491682620399 26.968792184372433,227.2337661533238 27.240196799626574,227.6137537103641 25.924928280175664,228.40295593701012 25.778787333518267,230.24441362716607 23.837200471549295,232.1443094966089 22.31315917125903,232.20276749618642 20.809995149145834,231.2382079470699 19.348585683153942,231.0628328987077 19.285953848971985,227.6137537103641 20.183676806511357,224.63229018718994 21.123154320404865,224.28152635325387 21.144031598465517,223.40461361879716 25.423873606021516,223.66768791159848" stroke="#4DD2FF" stroke-linecap="round" stroke-linejoin="round" stroke-width="0.5"><title>2025-05-20 5.0km</title><desc>1747754393000</desc></polyline><polyline fill="none" points="55.93807531381026,235.50943188689416 57.95648535573855,235.75803220368107 58.800000000046566,234.87017305917107 53.79916317993775,227.34103029518155 50.30460251052864,228.19339481042698 47.593305439455435,229.79157226829557 45.90627615060657,229.8626021956734 41.80920502101071,231.42525668095914 38.52552301250398,231.8869486177864 38.79665271972772,234.90568747132784 37.199999999953434,236.96551675893716 38.52552301250398,238.13748278471758 39.007531380746514,239.77112536533969 39.730543932993896,240.48140219444758 41.086192468646914,240.69448494134122 47.86443514644634,238.4926231727295 51.90125523018651,237.92439836624544 55.395815899712034,235.6159749031358 57.95648535573855,235.68700356120826 58.73974895407446,235.01223068480613 53.91966527199838,227.3765455277753 52.59414225933142,227.41206075649825 47.71380753139965,229.72054232555092 45.484518828452565,229.96914705770905 42.68284518818837,231.24768268488697 38.28451882849913,232.06452226548572 38.91715481178835,234.40848534819088 37.199999999953434,236.93000257120002 38.46527196653187,237.99542652114178 38.856903765699826,239.48701420042198 39.760669456096366,240.44588838977506 41.086192468646914,240.6234573746042 48.436820083647035,238.20851089328062 52.38326359842904,237.71131380842417 55.245188284432516,235.68700356120826 57.98661087860819,235.68700356120826 58.73974895407446,234.94120187975932 53.91966527199838,227.41206075649825 52.865271966555156,227.30551505862968 50.15397489548195,228.19339481042698 47.804184100357816,229.72054232555092 45.8761506275041,229.79157226829557 42.261087866150774,231.31871229488752 38.676150627667084,231.9579780884087 38.856903765699826,234.76362979930127 37.26025104604196,236.8589741839969 38.46527196653187,238.0664546606713 39.30878661083989,240.16177781298757 41.20669456070755,240.5879435853276 47.322175732348114,238.52813719018013" stroke="#4DD2FF" stroke-linecap="round" stroke-linejoin="round" stroke-width="0.5"><title>2025-05-14 5.0km</title><desc>1747227249000</desc></polyline><polyline fill="none" points="70.84912879986223,244.5657792665006 71.28911531885387,244.16425717812672 71.9278054269962,241.78856334467127 73.84387575130677,242.0897096671397 74.87997303780867,237.940530582855 74.68126944859978,235.2803124412021 72.68004044319969,230.27763905530446 72.76519912428921,229.15661631387775 74.15612424869323,228.4036859980697 76.22831882163882,228.05231725392514 77.56247149192495,227.1320619709586 78.65534123242833,227.23245372438396 79.06694152433192,226.79742231886485 76.86700892972294,223.28366194137197 76.31347750267014,223.1999999999971 74.79481435677735,223.75216797077155 73.84387575130677,224.40472755806695 73.02067516749958,224.42145981872454 71.34588777291356,225.09074874941143 69.62852103769546,225.3417313463433 69.74206594581483,226.64683423747192 68.93305847560987,227.6674838973995 69.07498961070087,228.03558538887592 69.55755547014996,228.3534905123961 70.04012132965727,229.47451911665848 70.65042521071155,229.54144593863748 76.10058079997543,227.90173040317313 76.71088468108792,227.36630929342937 76.93797449732665,226.64683423747192 76.66830534051405,225.70983841306588 75.71736673515989,224.68917574104853 74.5535314269946,224.3210662275087 73.53162725403672,224.60551456546818 72.16908835666254,226.14487289974932 70.22463180532213,226.47951397389988 69.10337583773071,227.48343282069254 69.13176206481876,228.03558538887592 70.65042521071155,229.2068115370639 72.38198505935725,229.02276230535062 76.05800145951798,227.90173040317313 76.85281581623713,227.1655258960527 76.89539515681099,226.36238968090038 76.31347750267014,225.30826702379272 74.93674549186835,224.3712630312948 73.02067516749958,224.4381920775486 71.21814975125017,225.15767748204235 69.60013481072383,225.47558856359683 69.72787283232901,226.71376229186717 68.94725158903748,227.73441150695726 69.57174858369399,228.3534905123961 69.88399708096404,229.25700674376276 70.60784587013768,229.5581776395993 71.45943268097471,229.1231528227363 73.03486828098539,228.85544463057886 72.66584732971387,229.54144593863748 72.70842667017132,230.0768594644178 74.49675897293491,234.5608744619094 74.92255237832433,236.635523667268 74.7664281296893,238.96110518751084 74.05677245400148,241.62125957709213 72.22586081072222,241.35357316986483 71.50201202154858,243.79619434167398 70.94848059455398,244.03041624870093 70.72139077831525,244.8000000000029 70.42333539453102,244.6828896779043" stroke="#4DD2FF" stroke-linecap="round" stroke-linejoin="round" stroke-width="0.5"><title>2025-05-06 7.1km</title><desc>1746539597000</desc></polyline><polyline fill="none" points="97.45347489148844,244.8000000000029 97.30712287366623,244.6274877092219 97.99497735709883,242.33305637346348 99.736566368083,242.74709155347955 100.0439056053292,242.21229590872827 100.95128811523318,238.39966817792447 100.92201771168038,236.50194595467474 98.33158699789783,229.32489991177863 97.62909731274704,229.16962368618988 96.63390359218465,229.65270477702143 96.01922511763405,229.53193464246579 94.86304417758947,227.73762465019536 95.65334507334046,226.87496837794606 95.46308745030547,225.4947085664462 96.48755157442065,225.44294858943613 99.9121887893998,224.47675924643409 101.02446412411518,223.7866203917074 102.85386434575776,223.23450714204228 105.21013183129253,226.8404620292422 104.91742779582273,227.30629710154608 103.62953003979055,227.18552517735225 102.25382107304176,228.18620405446563 100.1609872194822,228.49675828219915 98.93163027049741,229.08335905056447 97.36566368083004,229.29039409707184 96.41437556553865,229.68721051278408 95.79969709110446,229.4284173109627 95.44845224852907,228.4622522869613 94.89231458114227,228.04817975770857 94.89231458114227,227.7203715708165 95.65334507334046,226.70243655948434 95.44845224852907,225.5119618883473 97.05832444352563,225.30492190139194 99.8682831840706,224.4077454963408 102.53188990673516,223.1999999999971 102.94167555635795,223.3380285230378 105.19549662945792,226.8404620292422 104.97596860287013,227.2717908469058 103.73197645210894,227.18552517735225 101.93184663401917,228.3069752153824 100.46832645667018,228.41049327999644 96.48755157442065,229.65270477702143 95.87287309992826,229.48017598518345 95.47772265202366,228.4622522869613 94.89231458114227,228.01367366476916 95.63870987156406,226.73694293816516 95.46308745030547,225.4947085664462 96.99978363653645,225.30492190139194 99.7512015698594,224.4595058117702 100.73176008864539,223.85563441255363 102.56116031028796,223.1999999999971 102.89776995102875,223.3380285230378 105.18086142768152,226.8232088521181 104.96133340115193,227.25453771668253 103.62953003979055,227.16827203781577 102.20991546777077,228.20345708311652 100.1463520177058,228.49675828219915 98.66819663863862,229.13511783759168 97.45347489148844,229.2386353608017 96.51682197791524,229.66995764586318 95.82896749459906,229.41116441582562 95.46308745030547,228.4622522869613 94.87767937930766,228.03092671217746 94.86304417758947,227.73762465019536 95.44845224852907,227.16827203781577 94.76059776515467,227.80663694893883 95.40454664319986,228.56577025010483 95.69725067866966,229.35940571903484 96.32656435493845,229.73896910248732 99.97072959638899,228.6002762227581 102.15137466060696,228.34148124445346 103.55635403090855,227.2717908469058 104.85888698865892,227.2717908469058 105.23940223478712,226.87496837794606 102.79532353871036,223.1999999999971 100.93665291345678,223.7521133700502 99.7804719734122,224.49401267924986 98.74137264752062,224.5630263917992 97.14613565418404,225.218655160279 95.25819462543586,225.59822846968018 95.58016906451667,226.70243655948434 94.83377377403667,227.61685305499122 94.80450337048387,228.06543280140613 95.38991144142346,228.51401127695863 95.65334507334046,229.32489991177863 96.20948274078546,229.66995764586318 98.33158699789783,229.30764700536383 100.6146784744924,235.24253592570312 100.87811210635118,236.58820654910232 100.93665291345678,238.33066049554327 99.8975535875652,242.59182848779892 97.90716614644043,242.35030786087736 97.46811009314843,244.43772397233988 97.23394686484244,244.6274877092219" stroke="#4DD2FF" stroke-linecap="round" stroke-linejoin="round" stroke-width="0.5"><title>2025-04-29 10.1km</title><desc>1745929124000</desc></polyline><polyline fill="none" points="135.9703064307687,231.93969898984506 135.60673284420045,231.6320146969665 135.8118256366579,230.50016797344142 135.2990936556016,232.19243895702675 134.90755287010688,232.24738234440156 133.74225291324547,236.81856737435737 133.61173931811936,236.85153189893026 127.6733707380481,235.6757905320046 120.10358221840579,232.2693596909594 115.20000000001164,231.22543044216582 120.06629261974012,232.28034836244478 126.04195079841884,235.0824205282188 127.73862753564026,235.71974372678233 136.79999999998836,237.49983202656585 133.69564091501525,236.82955555040098 133.8914113077335,236.02741555432294 134.44143288733903,235.89555631455733 135.69063444109634,230.643023114455 135.93301683210302,230.55511228238902 135.60673284420045,231.4122396275634" stroke="#4DD2FF" stroke-linecap="round" stroke-linejoin="round" stroke-width="0.5"><title>2025-04-22 6.3km</title><desc>1745328842000</desc></polyline><polyline fill="none" points="148.8663271483383,244.16526559799968 149.22531592374435,244.00658160856983 149.97320920578204,241.55577579674718 151.8878160076565,241.8378848302964 152.8899930055486,238.1880612411187 152.7254564835457,234.50289015829912 150.64631315955194,229.40698904014425 150.60143956262618,228.52532896659977 151.72327948565362,227.60839739495714 154.08662225672742,227.2204632430221 155.79181893967325,226.10955575446133 156.9136588627589,226.21535679620865 157.37735269754194,225.80978576058988 156.37517569959164,224.24039261156577 155.02896779205184,224.9281060896028 153.95200146595016,223.6761127031641 152.8002458116971,223.20000000001164 150.64631315955194,223.37633820157498 149.1804423268186,224.02878787647933 147.20600406231824,224.36382857924036 147.5051613750984,225.59818307764363 146.63760516804177,226.85016159417864 147.28079339052783,227.3967970637168 147.60986643465003,228.31372983427718 148.28297038841993,228.66639490117086 150.73606035340345,228.08449712868605 152.15705758915283,227.46733053820208 154.02679079415975,227.2204632430221 155.56745095504448,226.18008979003935 156.9136588627589,226.19772329414263 157.36239483190002,225.77451866597403 156.39013356529176,224.24039261156577 155.04392565769376,224.89283880287257 153.95200146595016,223.65847892434977 152.8899930055486,223.21763382882637 150.57152383134235,223.37633820157498 149.21035805816064,224.01115413608204 147.5799507034244,224.25802632697742 147.35558271879563,224.43436337565072 147.47524564387277,225.6510837743117 146.63760516804177,226.76199441005883 147.250877659244,227.3967970637168 147.56499283772428,228.33136310584086 148.20818106026854,228.70166136554326 152.18697332055308,227.44969717250206 153.9669593316503,227.25573002255987 155.5824088207446,226.18008979003935 156.97349032521015,226.18008979003935 157.3474369663163,225.73925156370387 156.36021783400793,224.20512517493626 154.96913632948417,224.87520515658252 153.93704360036645,223.65847892434977 153.02461379626766,223.27053530367266 151.02025980054168,223.28816912477487 149.06077940174146,224.02878787647933 147.55003497202415,224.25802632697742 147.3406248530955,224.4167296794476 147.44532991264714,225.80978576058988 146.62264730239986,226.8148947262962 147.29575125616975,227.43206380485208 147.5949085689499,228.33136310584086 148.0885181351332,228.64876166608883 154.10158012242755,226.99122898887435 154.8345155387069,226.3916917121096 155.0887992545613,225.49238163244445 154.87938913569087,224.82230420624546 154.1464537192951,223.9229854052246 152.99469806504203,223.23526765572024 151.00530193489976,223.30580294399988 149.00094793911558,224.08168908621883 147.3256669874536,224.36382857924036 147.5051613750984,225.56291593691276 146.63760516804177,226.77962785070122 147.37054058437934,227.67893077724148 147.0863411372411,228.2255634474277 147.8342344192206,229.75965172472934 148.4175911791972,232.33406604183256 148.6718748951098,235.22582507217885 148.61204343248392,237.1301259756001 147.14617259980878,244.3063179023884 148.20818106026854,244.8000000000029" stroke="#4DD2FF" stroke-linecap="round" stroke-linejoin="round" stroke-width="0.5"><title>2025-04-15 8.8km</title><desc>1744723077000</desc></polyline><polyline fill="none" points="188.65805038344115,231.69244046576205 188.03110624314286,231.6506097678066 188.49244249728508,230.29807650099974 187.94830230018124,232.55693849694217 188.07842278206954,232.90552476116864 187.3568455640925,235.30377253088227 186.65892661560792,235.3177157004975 186.67075575026684,235.90332745386695 185.8663745893282,238.51066155759327 178.02365826943424,236.94905606527755 169.0335158816306,232.7800338153902 167.20000000001164,232.25018179924518 169.1636363636353,232.87763789495511 178.01182913471712,236.9629990557587 185.89003285876242,238.4967187356815 186.15027382259723,237.4510027649958 186.74173055862775,237.3812880632613 187.25038335158024,235.90332745386695 188.79999999998836,229.48933844239218 188.38598028483102,231.79004537456785" stroke="#4DD2FF" stroke-linecap="round" stroke-linejoin="round" stroke-width="0.5"><title>2025-04-11 5.1km</title><desc>1744377642000</desc></polyline><polyline fill="none" points="17.415425353334285,268.8000000000029 18.145975459599867,267.9915899276384 18.33979487553006,268.5891108063515 19.070344981912058,267.9915899276384 19.890350203146227,265.51361207893933 21.813635176920798,265.95297262916574 22.156546451325994,265.8299517957057 23.051097601884976,261.9811097745842 23.110734345333185,259.8721163026348 22.738004699232988,257.99157387172454 20.591081937833223,253.31648555024003 20.53144519450143,252.5255737506377 21.575088203477208,251.64677831402514 23.97546712413896,251.26010680521722 25.645295938593335,250.11766284168698 26.733666505140718,250.22311954648467 27.28530638135271,249.7661399942299 26.10748069966212,247.92063247709302 24.87001827469794,248.64126173460681 23.408918062166777,247.41091715582297 22.096909707935993,247.34061146785098 21.39617797336541,247.6745632127131 19.97980531823123,249.22127806684875 17.952156043611467,249.52007354523812 16.774330362095498,250.53948924735596 16.71469361864729,250.8734343695687 17.325970238249283,251.38313874945743 17.579426397569478,252.20920794493577 18.250339760503266,252.59587717869726 24.139468168490566,250.94373851768614 24.944564204022754,250.17039120270056 25.03401931899134,249.30915914734942 24.154377354250755,247.93820883872104 22.738004699232988,247.1999999999971 20.829628911276814,247.3054586123908 18.96598068095045,248.02609061828116 17.355788609886076,248.30731199117145 17.489971282484476,249.5376497326506 16.71469361864729,250.48676100697776 16.71469361864729,250.82070623831532 17.325970238249283,251.33041078486713 17.96706522948807,252.57830132450908 18.623069406545255,252.59587717869726 19.50271137134405,252.13890434833593 20.307807406876236,252.20920794493577 22.663458769966383,258.448530123409 22.946733300981577,260.08301689049404 22.857278185954783,261.77021166803024 22.022363778727595,265.33786752387823 20.09907880501123,265.0391013408662 19.33871032705065,267.3589183500735" stroke="#4DD2FF" stroke-linecap="round" stroke-linejoin="round" stroke-width="0.5"><title>2025-04-08 5.6km</title><desc>1744119870000</desc></polyline><polyline fill="none" points="44.95072883251123,266.9782350734022 45.53552056325134,266.1247880725423 45.98107616760535,264.220927343893 47.832916648243554,264.5655935694085 48.821493145485874,260.75780865334673 48.86326398339588,259.21497185356566 48.598715343279764,257.70494607041474 46.705104024731554,253.01063882638118 46.705104024731554,252.1078706636181 47.749374972539954,251.33640994684538 49.93538215645822,251.00812759248947 51.38343787059421,250.02327623713063 52.63656300783623,250.02327623713063 52.9707297111745,249.59650531697844 51.870764312916435,247.85658059100388 50.52017388714012,248.38184300335706 49.23920152458595,247.314901810023 47.17850685439771,247.26565818791278 45.27097192313522,247.97148190024018 43.68368008261314,248.2669420071761 43.76722175843315,249.59650531697844 43.02927028876729,250.48287433756923 43.572291181539185,251.10661237392924 43.892534272163175,252.0258005624055 44.755798255617265,252.32125271759287 45.52159695059527,251.9109023455385 46.816492925805505,251.76317593800195 48.0835416757036,251.20509709096223 50.01892383227823,250.92605689213087 51.480903159070294,249.9576192512177 51.258125356864184,250.40080335106177 51.62013928539818,249.85913371863717 52.69225745840231,249.94120500028657 52.92895887326449,249.53084814499016 52.0656948898104,248.13562647564686 50.840416977822315,248.77578861064103 49.86576409317786,247.64319221285405 48.835416758141946,247.1999999999971 47.08104156592162,247.24924364361505 45.36843721161131,247.93865296369768 43.725450920523144,248.20128425570147 43.71152730786707,249.662162460314 43.07104112661909,250.31873231983627 43.02927028876729,250.64701617648825 43.58621479413705,251.13944062008522 43.739374533179216,251.82883213702007 44.491249615559354,252.30483872420155 45.47982611274347,251.89448830740002 46.760798475297634,251.76317593800195 47.93038193671964,251.23792531562503 49.044270947691984,251.0901982481737 49.16958346142201,252.0258005624055 52.023924051900394,257.81983986847627 49.11388901079772,258.83746682658966 48.9468056592159,261.4143301594013 48.23670141468756,264.188101947977 47.87468748621177,264.4671175854601 46.872187376371585,268.8000000000029 43.02927028876729,267.8152649367694 43.61406201944919,265.30416139782756 43.80899259634316,265.20568589650793 43.47482589300489,266.81411102552374" stroke="#4DD2FF" stroke-linecap="round" stroke-linejoin="round" stroke-width="0.5"><title>2025-04-02 6.9km</title><desc>1743601029000</desc></polyline><polyline fill="none" points="70.60425100068096,268.8000000000029 71.12083026679466,268.33435828704387 71.83492513466626,265.7733052944386 74.22030586347682,266.34641152650875 75.2078838723246,261.8152358399093 74.90401371568441,258.4660257208452 72.57940701820189,253.16446273543988 72.56421351031167,252.6808657108195 73.02001874515554,252.03606746495643 73.82527465990279,251.64202284744533 76.40817099058768,251.1763325362117 77.60845810890896,250.20912536676042 78.07945685152663,250.13748016483441 78.09465035941685,249.49267194245476 77.4869100463111,248.25678244620212 77.00071779580321,248.29260546097066 76.52971905318554,247.75525942050444 76.13468784966972,247.84481721588236 75.25346439570421,247.30746971162444 74.31146691041067,247.23582324499148 73.33908240956953,247.57614368335635 72.03244073642418,249.18817829154432 70.05728471896145,249.47476056682353 68.58351445972221,250.65690717114194 69.4647379136295,252.3047337080934 70.46750943019288,252.71668776145088 73.94682272261707,251.5524671207968 76.19546188105596,251.23006610103766 77.91232826543273,250.0479236185056 79.05184135248419,250.1912140691711 79.44687255600002,249.7613423424773 78.2161984219565,247.91646341707383 76.86397622537334,248.65083517871972 76.04352680267766,247.70152471985784 74.97998125484446,247.1999999999971 72.98963172954973,247.28955809788022 71.18160429806449,248.0418441940128 69.25202880403958,248.36425146693364 69.37357686669566,249.77925368683646 68.55312744399998,250.83601955143968 69.22164178843377,251.46291134545754 69.52551194495754,252.35846690407197 70.42192890669685,252.73459878379072 71.34873288421659,252.2689115677058 72.22995633812388,252.21517834252154 73.26311487040948,255.1346581315156 74.06837078521494,255.83317628396617 76.72723465488525,255.27794414834352 78.39852051594062,258.78841255028965 75.17749685654417,259.88094099299633 75.01036827045027,262.62118530970474 74.67611109832069,263.03311351308366 73.82527465990279,266.05985866018455 73.6429525660933,266.203135155738 71.83492513466626,265.88076286511205 71.27276534505654,268.0298995310004" stroke="#4DD2FF" stroke-linecap="round" stroke-linejoin="round" stroke-width="0.5"><title>2025-03-25 6.1km</title><desc>1742909450000</desc></polyline></svg>