<?xml version="1.0" encoding="utf-8" ?>
<svg baseProfile="full" height="300mm" version="1.1" viewBox="0,0,200,300" width="200mm" xmlns="http://www.w3.org/2000/svg" xmlns:ev="http://www.w3.org/2001/xml-events" xmlns:xlink="http://www.w3.org/1999/xlink"><defs /><rect fill="#222222" height="300" width="200" x="0" y="0" /><text fill="#FFFFFF" style="font-size:12px; font-family:Arial; font-weight:bold;" x="10" y="20">Over 5km Runs</text><text fill="#FFFFFF" style="font-size:4px; font-family:Arial" x="10" y="280">Runner</text><text fill="#FFFFFF" style="font-size:9px; font-family:Arial" x="10" y="290">Elliont</text><text fill="#FFFFFF" style="font-size:4px; font-family:Arial" x="65" y="280">SPECIAL TRACKS</text><rect fill="yellow" height="2.6" width="2.6" x="65" y="283" /><text fill="#FFFFFF" style="font-size:3px; font-family:Arial" x="70" y="285.5">Over 20.0 km</text><rect fill="red" height="2.6" width="2.6" x="65" y="287" /><text fill="#FFFFFF" style="font-size:3px; font-family:Arial" x="70" y="289.5">Over 40.0 km</text><text fill="#FFFFFF" style="font-size:4px; font-family:Arial" x="120" y="280">STATISTICS</text><text fill="#FFFFFF" style="font-size:3px; font-family:Arial" x="120" y="285">Number: 31</text><text fill="#FFFFFF" style="font-size:3px; font-family:Arial" x="120" y="290">Weekly: 1.7</text><text fill="#FFFFFF" style="font-size:3px; font-family:Arial" x="141" y="285">Total: 202.6 km</text><text fill="#FFFFFF" style="font-size:3px; font-family:Arial" x="141" y="290">Avg: 6.5 km</text><text fill="#FFFFFF" style="font-size:3px; font-family:Arial" x="167" y="285">Min: 5.0 km</text><text fill="#FFFFFF" style="font-size:3px; font-family:Arial" x="167" y="290">Max: 10.1 km</text><polyline fill="none" points="42.39865621502395,52.885988118854584 36.74036154214991,51.75575515687524 30.304591265390627,48.79264712456643 29.103823388257297,48.405705122699146 18.530155175190885,46.36914187434013 14.780995040811831,46.49133692034229 13.951687729975674,46.31822722470679 13.096464565664064,45.809079203121655 12.647256438998738,45.36102665028011 12.232602783566108,44.66857757197431 11.740201567736221,43.283664027418126 12.8113901776087,42.22459864879056 14.05535114381928,41.27753963793657 13.113741801324068,41.939463612077816 11.714285714289872,43.29384729012236 12.629979203338735,45.37120968671661 13.346984482486732,46.04328763746162 13.943049112160224,46.34877601781045 14.780995040811831,46.532068566848466 17.718125099956524,46.35895894662099 18.78067509198445,46.43023941729189 29.59622460405808,48.599176323805295 36.57622780353995,51.75575515687524 42.571428571420256,53.00817464778811" stroke="#4DD2FF" stroke-linecap="round" stroke-linejoin="round" stroke-width="0.5"><title>2025-08-12 8.1km</title><desc>1754996616000</desc></polyline><polyline fill="none" points="78.99999999994179,50.7217075769513 72.77812378347153,49.477405197198095 65.75282210973091,46.23994495627994 64.59439470607322,45.85452611778601 57.98949007393094,44.46700613368739 53.010120669496246,43.60805564832117 51.253795251017436,43.5640067087661 49.03036200848874,43.75121456933266 48.14285714284051,43.59704341524048 48.955624756694306,43.75121456933266 51.16037368623074,43.58603118093015 53.02880498248851,43.61906788023043 64.49163098476129,45.86553810499754 65.82755936152535,46.33905242012406 72.48851693258621,49.4113356161688 78.46749708050629,50.64462734344124" stroke="#4DD2FF" stroke-linecap="round" stroke-linejoin="round" stroke-width="0.5"><title>2025-08-10 6.4km</title><desc>1754781124000</desc></polyline><polyline fill="none" points="112.3686169636203,60.05358198146132 107.23226482598693,59.02308375987195 101.40898413499235,56.33636857827514 100.30053124207188,55.96831874871714 90.70694951392943,54.09123967533378 89.84828882222064,54.036030835908605 87.1630226590787,54.19245578729169 86.57757218749612,54.05443378641212 85.75794152723392,53.585157296482066 85.1881030681543,52.94104806559335 84.64948863428435,51.68042007240001 84.57142857142026,51.20192860908719 87.98265331937,48.4045396549991 90.34006721837795,45.86472470063745 92.56477901051403,43.92300305500976 95.36713526796666,42.09167016637366 95.67937551951036,41.94442559608433 96.46778215459199,41.91681721056375 96.77221639984054,41.71435544101405 97.63087709152023,40.766459790596855 98.51295580208534,38.87063656700775 99.30916844352032,38.11597664342844 102.87651331719826,36.19248364971281 107.28690686999471,34.23213230424881 107.28690686999471,34.903994934487855 108.0675074988103,35.41018927492405 108.3016876874608,35.704700949121616 108.42658378809574,36.18328022860078 111.18210400780663,41.088561447868415 112.31397491958342,43.57330436510529 113.02432149183005,44.557978553122666 113.03212749809609,44.843255845793465 113.35217375593493,45.3309857591521 113.92981822128058,47.01501267508138 114.37476057966705,47.80640170437255 114.74944888148457,49.44436939401203 114.8743449820904,51.10070891373471 114.52307469915831,53.47473891997652 114.6167467746127,53.61276186804025 115.42857142855064,53.86120260628377 115.33489935312537,54.59731902235217" stroke="#4DD2FF" stroke-linecap="round" stroke-linejoin="round" stroke-width="0.5"><title>2025-08-08 10.0km</title><desc>1754654808000</desc></polyline><polyline fill="none" points="151.8571428571595,51.462935312098125 143.62450592889218,49.780952535249526 134.1844155844301,45.42494879971491 124.43941276118858,43.32596498505154 121.0,42.822778973612 133.9648785996833,45.42494879971491 143.86843591195066,49.92471258454316 151.6498023715685,51.41980781627353" stroke="#4DD2FF" stroke-linecap="round" stroke-linejoin="round" stroke-width="0.5"><title>2025-08-07 5.0km</title><desc>1754573743000</desc></polyline><polyline fill="none" points="188.28571428568102,51.47831476184365 180.12835787341464,49.847196190050454 170.80566483084112,45.56899074226385 169.61605035403045,45.211274945380865 157.42857142857974,42.80739952385193 160.66966393159237,43.494225561385974 160.93672024272382,43.37975480448222 161.65291671350133,43.6802403285983 170.1380240530125,45.411595911646145 180.23760818247683,49.96166131191421 187.73946274019545,51.46400679220096" stroke="#4DD2FF" stroke-linecap="round" stroke-linejoin="round" stroke-width="0.5"><title>2025-08-04 5.0km</title><desc>1754309955000</desc></polyline><polyline fill="none" points="42.57142857136205,85.01945092346432 36.40374366304604,83.78391574908892 29.290783829404972,80.51850024252053 28.2238398543559,80.16547604445077 16.936695697368123,77.93698239562946 14.952554270101245,77.83769193368062 12.537891589745414,78.02524050230568 11.714285714260768,77.84872421202454 11.892109710141085,77.98111145859002 13.024567788874265,78.05833727250138 16.290913817763794,77.88182103989675 20.773950344475452,78.7643991266159 21.494605485524517,78.77543130404229 22.73937345633749,79.15052462127642 28.10217080457369,80.1765080692785 29.590276875009295,80.70604384726903 36.29143377096625,83.77288411717745 41.93500584946014,84.90913589558477" stroke="#4DD2FF" stroke-linecap="round" stroke-linejoin="round" stroke-width="0.5"><title>2025-08-03 6.5km</title><desc>1754227262000</desc></polyline><polyline fill="none" points="75.42590808629757,85.04269579837273 67.23732079105685,83.41241729656758 56.918966396537144,78.8244462274888 48.14285714284051,77.0353830003587 57.67784892616328,79.02643571898807 67.5555618518847,83.54226322226168 79.0,85.82175985677168 75.68294894316932,85.07155010444694 75.68294894316932,84.85514265569509" stroke="#4DD2FF" stroke-linecap="round" stroke-linejoin="round" stroke-width="0.5"><title>2025-08-01 5.0km</title><desc>1754057984000</desc></polyline><polyline fill="none" points="112.47640741945361,94.30899993523053 107.21249593229732,93.26877437008079 101.41750732183573,90.59911035387631 100.17572404816747,90.20325644221884 90.80377481286996,88.38966946863366 89.09339407744119,88.33443270647695 87.39082329970552,88.48173065865558 86.57858769933227,88.33443270647695 85.9069313374639,87.95698053226079 85.414904002595,87.48746449955797 84.8525870484882,86.41953596665553 84.57142857142026,85.4896906504946 88.0156199154153,82.63564608316665 90.40546697037644,80.0853376131854 92.59225512528792,78.17025393612857 94.2401561991719,77.22190316111664 95.52879921899876,76.27354174125503 96.44256426946959,76.181467250055 96.77058249269612,75.97890301621374 97.77025707779103,74.82796065010916 98.55125284736278,73.09691380585718 99.31662870160653,72.40632670947525 102.97168890337343,70.39898816198547 107.2515457207628,68.5481429219144 107.3218353400589,69.1466794015505 107.94663195573958,69.57946467553847 108.59485844452865,70.73968659746606 108.99316628702218,71.8538529676589 109.97722095673089,73.88878006175219 112.5388870810275,78.68585765763419 112.88252521966933,79.71705566165474 113.89781972015044,81.84386180063302 114.585095997405,84.20998581314052 114.6319557435927,85.68302566759667 114.53823625121731,86.21699627426278 114.78034493979067,86.39191694628244 114.55385616660351,87.78206309946108 115.42857142857974,88.11348529686074 115.39733159774914,88.56458564395871" stroke="#4DD2FF" stroke-linecap="round" stroke-linejoin="round" stroke-width="0.5"><title>2025-07-28 10.0km</title><desc>1753704756000</desc></polyline><polyline fill="none" points="148.82730669731973,85.21214317223348 140.63184823223855,83.57288382819388 131.24432308133692,79.26973291829927 129.71698764007306,78.75744387006853 121.0,77.01564649830107 130.67312446102733,79.0940911789221 138.75682667433284,82.89961080535431 140.85536073578987,83.68997444442357 151.8571428571595,85.84149635884387 148.95148031041026,85.18287085929478 149.10048864613054,84.23151721745671" stroke="#4DD2FF" stroke-linecap="round" stroke-linejoin="round" stroke-width="0.5"><title>2025-07-22 5.0km</title><desc>1753194638000</desc></polyline><polyline fill="none" points="174.98017285205424,83.05736376313871 185.20183019823162,85.08513404864061 188.28571428568102,85.2684942087144 185.5953228266444,85.11749174860597 168.74834773771,81.81695190121536 161.40010167768924,78.48394220812042 157.42857142857974,77.58864864842326 161.35434672090923,78.50551544705377 168.24504321301356,81.68751672491635 171.08185053383932,82.29154610052501" stroke="#4DD2FF" stroke-linecap="round" stroke-linejoin="round" stroke-width="0.5"><title>2025-07-19 6.4km</title><desc>1752877000000</desc></polyline><polyline fill="none" points="39.74553912130068,128.67875707601343 34.49409455971909,127.63323908875464 28.528327942738542,124.90372883603413 27.507867863518186,124.57988281700091 17.813497110910248,122.7108045261557 14.453828542376868,122.82184002900613 13.723807101079728,122.68304562777485 13.040883817273425,122.2851670873788 12.373659919336205,121.58193534194288 11.792782643460669,120.27723997304565 11.714285714289872,119.80532394702459 15.144601519074058,116.96451913848432 17.413162772136275,114.50302836752962 19.65032525351853,112.55044171329791 22.382018388656434,110.72737004502414 22.8608496565721,110.49601297381014 23.590871097898344,110.4589957839271 24.10895083041396,110.13509468406846 24.956717665452743,109.12636620063859 25.718137878458947,107.39576740142365 26.526656248926884,106.64613879140961 30.498600864957552,104.48050785073428 34.55689210310811,102.74981435255904 34.564741795999,103.41618180149817 35.19271722936537,103.83265880107501 35.60875095395022,104.60082212995621 36.4643674819381,106.56284631509334 39.10186430209433,111.52323355633416 39.79263727879152,113.17971624869824 39.98102990881307,113.35554212366696 41.16633353929501,116.39079458307242 41.43322309845826,116.77019351343188 41.8571065159922,118.3525463877886 41.9356034451921,119.39817860209587 41.81000835850136,120.98973567232315 41.42537340556737,122.47948009573884 42.57142857144936,122.73856341547071" stroke="#4DD2FF" stroke-linecap="round" stroke-linejoin="round" stroke-width="0.5"><title>2025-07-17 10.0km</title><desc>1752756134000</desc></polyline><polyline fill="none" points="79.0,120.06858522719995 70.81938251393149,118.43037781595194 60.4442625726806,113.81742136590765 48.14285714284051,111.35998620136525 60.9928881865344,114.04735447830171 70.58774058817653,118.41600748548808 78.62205791042652,120.05421507515712" stroke="#4DD2FF" stroke-linecap="round" stroke-linejoin="round" stroke-width="0.5"><title>2025-07-14 5.0km</title><desc>1752500928000</desc></polyline><polyline fill="none" points="115.42857142852154,120.03684400994098 107.24986038194038,118.4301468997437 98.79370043554809,114.50574162849807 96.7912431586883,113.78056687192293 84.57142857142026,111.39172741863877 97.58740087115439,113.99385398316372 107.39461632969324,118.48702147125732 114.56003574217902,119.92309619228763" stroke="#4DD2FF" stroke-linecap="round" stroke-linejoin="round" stroke-width="0.5"><title>2025-06-21 5.0km</title><desc>1750468889000</desc></polyline><polyline fill="none" points="142.11203646019567,117.60931485220499 150.13616839892347,119.21205122456013 151.85714285713038,119.30387364768103 150.37696317909285,119.21205122456013 137.26072985996143,116.6493264992605 135.8513721761119,116.0983712319503 131.63746352336602,114.0948641488576 130.89383258466842,113.85277016331383 122.29604249319527,112.18313564773416 121.0,112.12469778089871 122.14731630546157,112.14974258644361 125.4971966293524,112.76751186547335 131.52414833274088,114.06981997888943 136.0071805632615,116.19019738485804 137.15449686872307,116.63263094328431 138.4009639660071,116.88306390112848" stroke="#4DD2FF" stroke-linecap="round" stroke-linejoin="round" stroke-width="0.5"><title>2025-06-17 8.1km</title><desc>1750165544000</desc></polyline><polyline fill="none" points="188.28571428573923,120.01817321432463 180.50580046401592,118.47106640540005 170.36327477626037,113.94215630237886 157.42857142857974,111.41039821424056 170.38713954261038,113.99841702947742 180.33874709974043,118.45700171304634 186.9015578388935,119.7931406484131" stroke="#4DD2FF" stroke-linecap="round" stroke-linejoin="round" stroke-width="0.5"><title>2025-06-15 5.0km</title><desc>1749939796000</desc></polyline><polyline fill="none" points="33.036512327817036,151.7687179007553 40.31903444498312,153.2238446634874 42.571428571420256,153.36316374838498 40.798406955902465,153.25480448373128 28.610525035735918,150.8863392908388 27.421943878638558,150.4374056181623 23.449062110448722,148.5487570401092 22.56255130271893,148.2546187282278 14.551120299176546,146.70650228451996 13.579241783998441,146.6368362516223 11.714285714289872,146.78390890767332 14.360684644168941,146.69102094978734 22.221080473042093,148.20817572560918 23.173258748051012,148.4713523392129 25.445353114657337,149.54727012324292" stroke="#4DD2FF" stroke-linecap="round" stroke-linejoin="round" stroke-width="0.5"><title>2025-06-11 8.1km</title><desc>1749642919000</desc></polyline><polyline fill="none" points="79.0,154.29441378919 70.98360383312684,152.7431077760557 60.90926715778187,148.24421524399077 48.14285714284051,145.70558621081 61.05284440255491,148.30062865721993 71.06735722586745,152.81362208888459 77.6719104857766,154.13928402413148" stroke="#4DD2FF" stroke-linecap="round" stroke-linejoin="round" stroke-width="0.5"><title>2025-06-08 5.0km</title><desc>1749387304000</desc></polyline><polyline fill="none" points="96.5258741255384,158.2929684043047 99.84895104868338,156.30879909265786 106.8403596400749,155.0368912530248 110.37922077905387,152.39131184856524 114.2201798199676,152.49306517961668 115.25594405573793,151.6281611577724 108.4371628370136,140.53689698857488 103.8193806190975,141.45269942216692 99.41738261724822,144.04746322892606 96.95744255720638,144.04746322892606 93.03016982995905,145.8790525283839 86.59980019950308,147.20186255380395 86.81558441533707,151.37377731702873 84.57142857136205,154.17199194300338 86.47032967000268,156.25792284551426 87.29030969017185,158.85260437821853 88.49870129860938,159.61574326141272 96.00799200776964,158.0385881945549 99.97842157818377,156.25792284551426 105.76143856113777,155.4947784744436 110.59500499488786,152.39131184856524 114.0043956041336,152.54394183700788 115.38541458523832,151.37377731702873 108.4371628370136,140.38426307501504 103.30149850109592,141.50357728241943 99.50369630334899,143.99658564585843 96.05114885093644,144.35272861117846 91.82177822152153,146.23519405775005 86.72927072900347,147.10010806948412 86.85874125850387,151.6281611577724 84.57142857136205,154.17199194300338 86.59980019950308,156.35967533427174 87.63556443527341,159.00523225445068 89.10289710271172,159.71749501832528 100.92787212738767,156.1052940710797 105.89090909063816,155.54565480459132 110.16343656321988,152.64569513499737 114.133866133634,152.59481848881114 115.42857142840512,151.32290053216275 107.96243756217882,140.23162911151303 102.86993006966077,141.80884432786843 99.33106893091463,143.99658564585843 86.94505494460464,146.84572176175425 86.9018981019035,151.37377731702873 84.61458541429602,154.0702389778162 86.55664335633628,156.25792284551426 87.29030969017185,158.69997645184048 89.49130869098008,159.76837088848697 106.92667332640849,154.477250705997 109.08451548428275,151.5772844007879 108.4371628370136,148.67730008420767 105.5888111887034,145.11589119344717 103.17202797182836,143.89483046313399 101.1004995002877,143.7930752580287 98.72687312657945,144.75974881029106 94.88591408589855,149.38957860253868 88.75764235761017,150.4071174581768 85.0893106891308,153.3070910310489 84.9598401596304,154.52812714700121 87.03136863117106,157.0210659694858" stroke="#4DD2FF" stroke-linecap="round" stroke-linejoin="round" stroke-width="0.5"><title>2025-06-04 6.4km</title><desc>1749041988000</desc></polyline><polyline fill="none" points="151.8571428571595,154.32262011957937 143.94842962390976,152.74310871458147 134.9389575140085,148.58269629318966 133.5749736886355,148.13138928232365 121.0,145.67737988043518 133.93391680059722,148.27242289215792 143.7689580679871,152.71490297869605 150.33761701657204,154.0687713715888" stroke="#4DD2FF" stroke-linecap="round" stroke-linejoin="round" stroke-width="0.5"><title>2025-05-28 5.0km</title><desc>1748436903000</desc></polyline><polyline fill="none" points="188.28571428568102,154.30910874895926 179.7169981916668,152.55385814790498 169.79339963832172,148.0649144613708 157.42857142857974,145.67650404739834 169.39059674501186,147.97858712633024 170.87974683544599,148.45338677089603 180.43716094037518,152.82721838116413 188.13924050633796,154.32349595260166" stroke="#4DD2FF" stroke-linecap="round" stroke-linejoin="round" stroke-width="0.5"><title>2025-05-27 5.0km</title><desc>1748351986000</desc></polyline><polyline fill="none" points="34.56544577749446,190.65112630651856 34.606682381010614,188.8037984491093 35.575742563814856,186.61007036053343 36.214909918489866,182.54005194648926 36.1736733148573,182.91530597805104 35.24584973556921,183.0307685891603 30.730441649560817,186.23482454268378 29.019122603232972,186.63893538895354 28.33871864504181,185.51319562511344 29.12221411196515,184.2431212374213 30.5654952354962,183.11736549566558 30.338693916099146,181.18335733370623 31.01909787429031,179.94211654034734 30.11189259670209,179.42252466084028 26.792346012894996,179.4802571709588 25.92637733882293,178.21013738887268 26.215033563552424,176.70907441528107 26.85420091811102,176.91114136231772 26.792346012894996,175.9296710678318 27.740787893999368,176.50700722633337 29.47272524202708,176.44927369934157 30.85415146010928,177.37300776148913 32.730416920618154,177.43074097261706 33.493294085841626,177.05547474787454 35.369559546234086,174.42858781386167 35.452032753266394,170.04072945012012 34.77162879507523,169.26129530987237 33.699477103422396,168.8571428571595 32.37990579055622,169.23242730964557 31.20466259017121,170.53148243261967 30.297457312466577,170.84902771975612 28.4418101538904,170.5026146495802 26.483071486349218,169.4345032076817 24.68927923310548,170.04072945012012 23.782073955400847,171.42638125672238 23.823310559033416,172.89862383702712 24.606806025956757,173.99558054823137 26.37997997761704,174.83272692620812 26.792346012894996,175.84307047376933 25.988232244038954,177.71940673155768 26.56554469349794,179.45139091843157 26.709872805862688,181.8472730811627 25.9469956405228,184.44517916567565 26.544926391681656,185.16681264889485 28.297482041525654,185.59979125806422 28.97788599971682,186.63893538895354 27.41089506575372,189.17903855629265 25.472774699912407,189.9583807290619 22.235701323254034,192.32524971527164 19.885214922367595,193.33548856743437 19.349139076424763,194.720949162147 18.029567763675004,196.16412519050937 19.163574360660277,199.3967947235651 20.194489448680542,199.62769732151355 21.55529736506287,198.79067390142882 23.142906600842252,199.45452040275268 24.297531499527395,199.3102061679674 25.204736777115613,198.357729124662 25.864522433606908,195.96208128922444 27.43151336745359,195.09617611640715 31.01909787429031,196.22185197504587 32.37990579055622,195.55799276131438 34.50359087216202,195.44253871860565 34.627300682710484,189.03471553695272 36.25614652200602,183.31942477138364 36.00872690079268,182.91530597805104 35.390177847933955,182.97303729350097 30.751059951260686,186.26368963519053 29.08097750856541,186.61007036053343 27.24594865157269,189.26563230877218 25.28720998414792,190.04497408172756 22.215083021554165,192.32524971527164 20.008924732916057,193.19116910157027 19.349139076424763,194.8075400718226 18.029567763675004,196.2795787397481 19.060482851811685,199.2524804395216 19.74088681000285,199.71428571428987 21.431587554514408,198.79067390142882 23.369707920239307,199.48338323483767 24.668660931289196,198.96385150129208" stroke="#4DD2FF" stroke-linecap="round" stroke-linejoin="round" stroke-width="0.5"><title>2025-05-23 6.4km</title><desc>1747958832000</desc></polyline><polyline fill="none" points="66.37494877155405,185.72675422931206 67.21003989502788,186.52009834515047 69.29776770353783,186.85413720172073 70.34163160785101,188.1902880580601 70.07320946094114,193.45131098118145 69.56618985033128,194.41164420102723 67.7468841887312,194.95443956766394 65.95740320987534,194.3281371145422 64.28722096292768,194.7039187791088 61.45387607999146,193.03377362062747 59.75386915006675,193.70183305487444 58.501232465030625,193.49306467805582 58.85912866063882,192.28220457227144 57.964388171443716,189.94397496087186 58.232810318120755,188.27379724377533 57.27842046285514,186.6871178304864 57.695966024533845,184.18181355339766 63.720551986363716,183.931281711848 65.77845511201303,184.6828764652746 66.85214369918685,186.39483365601336 69.14864428865258,186.81238236959325 70.1626835098723,187.77274170081364 70.07320946094114,193.57657205013675 69.62583921628539,194.41164420102723 67.86618292052299,194.91268612079148 66.16617599059828,194.3698906613572 64.22757159697358,194.6621652894246 61.39422671403736,193.07552738877712 57.785440073465,193.82709399529267 55.84683567972388,195.41372701233195 56.47315402235836,195.8730135931546 56.95034894999117,198.37819791736547 59.87316788197495,199.71428571428987 61.12580456712749,198.83747892206884 61.960895690717734,197.1256089679664 61.84159695869312,195.78950700630958 60.29071344365366,193.32604984789214 61.84159695869312,193.07552738877712 64.25739628006704,194.6621652894246 66.16617599059828,194.11936927310308 65.92757852689829,193.49306467805582 63.98897413327359,193.53481836766878 62.94511022884399,192.19869675743394 63.92932476720307,188.27379724377533 61.36440203094389,184.3488346383092 61.543350128806196,181.2171702843043 62.229317837394774,179.88098126805562 63.6012532543391,179.0876155799051 66.19600067369174,179.92273728561122 68.31355316517875,179.3799085018254 65.92757852689829,181.71823928026424 63.45212983957026,181.59297212770616 61.960895690717734,180.4655648625776 59.66439510125201,179.9644932958472 59.7240444670897,174.87020732970268 60.73808368842583,172.74059726567066 60.79773305426352,169.56702623360616 61.42405139701441,168.94065865554148 63.33283110766206,168.85714285714494 68.82057277590502,169.65054178930586 69.95391072903294,170.652726228931 70.34163160785101,172.74059726567066 71.29602146323305,173.7845260886388 70.66970312059857,174.6196659333218 71.05742399941664,175.1625053005264 69.17846897162963,176.2899370528612 68.96969619067386,178.92059089595568 66.19600067369174,181.6347278523026 64.01879881613422,181.71823928026424 61.87142164155375,180.34029706724687 59.7836938330438,180.0897612838744 59.69421978422906,175.1625053005264 60.976681152242236,170.9032716959773 62.318791886325926,170.40218050465046 62.348616569302976,169.14944802684477 68.462676580064,169.52526844514068" stroke="#4DD2FF" stroke-linecap="round" stroke-linejoin="round" stroke-width="0.5"><title>2025-05-20 5.0km</title><desc>1747754393000</desc></polyline><polyline fill="none" points="111.34010759112425,186.44204555274337 114.22355050803162,186.79718886243063 115.42857142840512,185.52881865599193 108.28451882838272,174.77290042172535 103.29228930058889,175.99056401493726 99.41900777048431,178.27367466903524 97.00896592927165,178.37514599383576 91.15600717277266,180.60750954423565 86.46503287483938,181.26706945401384 86.85236102808267,185.5795535305224 84.57142857136205,188.52216679850244 86.46503287483938,190.19640397818875 87.15361625817604,192.53017909338814 88.18649133271538,193.54486027779058 90.1231320980005,193.84926420194097 99.80633592349477,190.70374738963437 105.57322175730951,189.89199766609818 110.56545128510334,186.59424986163503 114.22355050803162,186.6957193731796 115.34249850572087,185.73175812119734 108.45666467421688,174.82363646826707 106.56306037050672,174.87437250930816 99.59115361608565,178.17220332223224 96.4064554690849,178.52735293962178 92.40406455448829,180.3538324070105 86.12074118340388,181.5207460935926 87.02450687391683,184.86926478313399 84.57142857136205,188.47143224457977 86.37895995215513,189.99346645880723 86.93843395099975,192.12430600062362 88.22952779429033,193.49412627113634 90.1231320980005,193.7477962494595 100.62402869085781,190.2978727047157 106.26180514041334,189.5875911549083 110.35026897769421,186.6957193731796 114.26658696937375,186.6957193731796 115.34249850572087,185.63028839966864 108.45666467421688,174.87437250930816 106.95038852351718,174.7221643695084 103.0771069934126,175.99056401493726 99.72026300057769,178.17220332223224 96.9659294676967,178.27367466903524 91.80155409453437,180.45530327846063 86.6802151822485,181.36854012633557 86.93843395099975,185.37661399904755 84.65750149427913,188.36996312002884 86.37895995215513,190.094935229572 87.58398087252863,193.0882540185703 90.29527794383466,193.69706226477865 99.03167961747386,190.75448170027812" stroke="#4DD2FF" stroke-linecap="round" stroke-linejoin="round" stroke-width="0.5"><title>2025-05-14 5.0km</title><desc>1747227249000</desc></polyline><polyline fill="none" points="131.92732685699593,199.37968466641905 132.55587902700063,198.80608168304025 133.46829346718732,195.41223334951792 136.205536787631,195.84244238163228 137.6856757682981,189.91504368979076 137.4018134981161,186.11473205886432 134.5429149188567,178.96805579328793 134.66457017755602,177.36659473412146 136.6516060695285,176.2909799972549 139.61188403097913,175.78902464846033 141.51781641703565,174.47437424422242 143.0790589035023,174.61779103483423 143.6670593204908,173.99631759837212 140.5242984710494,168.97665991623944 139.73353928956203,168.85714285714494 137.5640205097152,169.6459542439552 136.205536787631,170.57818222579954 135.02953595365398,170.60208545532078 132.63698253280018,171.5582124991488 130.1836014824221,171.91675906621094 130.3458084941376,173.7811917678191 129.19008353666868,175.2392627105728 129.39284230105113,175.76512198410637 130.08222210023087,176.21927216056793 130.771601899527,177.82074159522017 131.64346458681393,177.91635134091484 139.42940114287194,175.57390057596785 140.30126383015886,174.80901327633183 140.62567785335705,173.7811917678191 140.240436200751,172.44262630437152 138.8819524787832,170.984536772914 137.2193306100089,170.45866603929608 135.75946750573348,170.86502080781793 133.8129833667772,173.06410414249694 131.03518829343375,173.54216281985282 129.4333940539509,174.97633260099974 129.47394580685068,175.76512198410637 131.64346458681393,177.4383021958056 134.11712151335087,177.17537472193362 139.3685735135805,175.57390057596785 140.50402259465773,174.52217985149764 140.5648502240656,173.37484240128833 139.73353928956203,171.86895289113454 137.76677927409764,170.5303757590009 135.02953595365398,170.62598868220812 132.454499644693,171.6538249743462 130.14304972963873,172.10798366229574 130.3255326176295,173.8768032740918 129.21035941294394,175.3348735813779 130.10249797673896,176.21927216056793 130.54856725852005,177.51000963394472 131.58263695740607,177.94025377086655 132.79918954428285,177.31878974675783 135.04981183004566,176.93634947226383 134.52263904246502,177.91635134091484 134.58346667175647,178.6812278063153 137.13822710420936,185.08696351702383 137.74650339770596,188.0507480961096 137.52346875681542,191.37300741074432 136.50967493432108,195.1732279672724 133.89408687246032,194.79081881408638 132.86001717369072,198.28027763096907 132.06925799220335,198.61488035527873 131.74484396900516,199.71428571428987 131.31905056361575,199.54698525415733" stroke="#4DD2FF" stroke-linecap="round" stroke-linejoin="round" stroke-width="0.5"><title>2025-05-06 7.1km</title><desc>1746539597000</desc></polyline><polyline fill="none" points="169.21924984501675,199.71428571428987 169.01017553394195,199.4678395846131 169.99282479588874,196.19008053351718 172.4808090972947,196.78155936211988 172.9198651505867,196.01756558391207 174.21612587897107,190.5709545399004 174.17431101680268,187.85992279239872 170.47369571134914,177.60699987398402 169.47013901825994,177.3851766945736 168.04843370313756,178.07529253861867 167.17032159666996,177.9027637749532 165.5186345394468,175.33946378600376 166.64763581915759,174.10709768277593 166.375839214772,172.13529795208888 167.83935939206276,172.06135512777837 172.7316982705379,170.68108463777753 174.32066303445026,169.6951719881763 176.93409192247782,168.90643877434195 180.3001883304678,174.05780289892573 179.8820397083182,174.72328157364973 178.04218577116262,174.55075025337283 176.07688724726904,175.9802915063774 173.0871245993767,176.42394040313957 171.3309003864415,177.26194150080846 169.09380525839515,177.55770585295977 167.73482223658357,178.12458644683647 166.8567101302324,177.75488187282463 166.35493178362958,176.37464612424083 165.5604494016152,175.78311393958575 165.5604494016152,175.31481652974617 166.64763581915759,173.86062365640828 166.35493178362958,172.15994555478392 168.65474920510314,171.86417414485186 172.6689759772271,170.5824935661949 176.47412843827624,168.85714285714494 177.05953650921583,169.05432646148256 180.27928089932539,174.05780289892573 179.9656694327714,174.6739869241719 178.1885377888102,174.55075025337283 175.61692376295105,176.15282173626474 173.52618065243587,176.3007046857092 167.83935939206276,178.07529253861867 166.96124728571158,177.82882283598883 166.39674664579798,176.37464612424083 165.5604494016152,175.73381952110503 166.62672838801518,173.90991848311387 166.375839214772,172.13529795208888 168.57111948076636,171.86417414485186 172.5017165284371,170.65643687396368 173.90251441241708,169.79376344651973 176.51594330044463,168.85714285714494 176.99681421590503,169.05432646148256 180.25837346818298,174.0331555030425 179.944762001629,174.64933959527116 178.04218577116262,174.52610291117162 176.01416495407466,176.00493869016645 173.0662171682343,176.42394040313957 170.95456662669312,177.33588262513513 169.21924984501675,177.4837648011453 167.88117425423115,178.09993949408818 166.89852499228436,177.73023487976752 166.375839214772,176.37464612424083 165.53954197047278,175.75846673169872 165.5186345394468,175.33946378600376 166.35493178362958,174.52610291117162 165.3722825216828,175.43805278421496 166.29220949031878,176.52252892873366 166.71035811246838,177.65629388434172 167.60937764996197,178.19852728926344 172.81532799487468,176.57182317538536 175.93053522950504,176.20211606350495 177.937648615567,174.6739869241719 179.79840998386499,174.6739869241719 180.34200319263618,174.10709768277593 176.85046219825745,168.85714285714494 174.19521844782867,169.64587624293927 172.5435313906055,170.70573239894293 171.05910378217231,170.80432341687265 168.78019379172474,171.74093594326405 166.08313517924398,172.28318352812494 166.5430986636784,173.86062365640828 165.4768196772784,175.16693293571007 165.4350048149936,175.80776114486798 166.27130205917638,176.44858753852895 166.64763581915759,177.60699987398402 167.44211820117198,178.09993949408818 170.47369571134914,177.58235286481795 173.73525496362709,186.06076560815563 174.11158872337546,187.98315221301164 174.19521844782867,190.47237213648623 172.7107908393955,196.55975498259068 169.86738020926714,196.2147255155578 169.24015727604274,199.19674853193283 168.90563837846275,199.4678395846131" stroke="#4DD2FF" stroke-linecap="round" stroke-linejoin="round" stroke-width="0.5"><title>2025-04-29 10.1km</title><desc>1745929124000</desc></polyline><polyline fill="none" points="41.38615204393864,215.62814141405397 40.86676120600896,215.18859242422332 41.15975090942811,213.57166853347735 40.42727665085113,215.9891985100403 39.86793267156463,216.0676890634204 38.203218447451945,222.5979533919308 38.016770454414655,222.64504556989414 29.533386768598575,220.96541504572087 18.719403169117868,216.09908527278458 11.714285714260768,214.60775777451636 18.666132313897833,216.1147833749128 27.20278685487574,220.11774361172866 29.62661076511722,221.0282053239789 42.571428571420256,223.5711886093777 38.13662987854332,222.61365078628296 38.41630186815746,221.46773650616524 39.202046981896274,221.27936616363877 40.986620630079415,213.77574730635388 41.3328811887186,213.65016040341288 40.86676120600896,214.87462803936796" stroke="#4DD2FF" stroke-linecap="round" stroke-linejoin="round" stroke-width="0.5"><title>2025-04-22 6.3km</title><desc>1745328842000</desc></polyline><polyline fill="none" points="59.09475306910463,233.0932365685585 59.607594176894054,232.866545155106 60.676013151183724,229.3653939953365 63.41116572532337,229.76840690041718 64.84284715086687,224.554373201594 64.6077949765604,219.28984308328654 61.63759022799786,212.0099843430653 61.573485089465976,210.7504699522833 63.1761135510169,209.4405677070754 66.5523175096605,208.88637606146222 68.9883127710782,207.29936536352034 70.5909412325127,207.4505097088695 71.2533609966049,206.87112251512008 69.82167957094498,204.62913230223057 67.8985254173167,205.61158012801025 66.36000209429767,203.8230181473773 64.71463687391952,203.14285714286962 61.63759022799786,203.39476885939075 59.54348903836217,204.32683982353774 56.72286294621881,204.8054693988961 57.15023053600453,206.56883296805609 55.910864525823854,208.3573737059778 56.829704843694344,209.13828151958296 57.29980919242371,210.44818547753675 58.261386269237846,210.95199271594174 61.76580050494522,210.12071018382267 63.79579655604903,209.23904362598842 66.46684399165679,208.88637606146222 68.66778707876801,207.4001282714744 70.5909412325127,207.4253189916344 71.23199261701666,206.82074095138523 69.84304795053322,204.62913230223057 67.91989379678853,205.56119828982628 66.36000209429767,203.79782703478122 64.84284715086687,203.1680483268865 61.530748330638744,203.39476885939075 59.58622579742223,204.3016487658315 57.25707243348006,204.65432332425553 56.93654674116988,204.9062333937909 57.10749377706088,206.64440539186762 55.910864525823854,208.23142058579833 56.7869680847507,209.13828151958296 57.23570405400824,210.4733758654911 58.15454437187873,211.00237337933504 63.83853331510909,209.2138531035598 66.38137047388591,208.93675717507722 68.68915545823984,207.4001282714744 70.6764147504,207.4001282714744 71.21062423766125,206.7703593767219 69.80031119147316,204.57875024991517 67.813051899313,205.53600736653607 66.33863371482585,203.79782703478122 65.03516256611329,203.2436218623916 62.1717997151427,203.26881303539267 59.37254200258758,204.32683982353774 57.21433567442,204.65432332425553 56.91517836158164,204.8810423991963 57.064757018117234,206.87112251512008 55.88949614635203,208.3069924661395 56.85107322316617,209.18866257836635 57.27844081283547,210.4733758654911 57.98359733587131,210.9268023801269 66.57368588924874,208.55889855552232 67.62073648395017,207.70241673156852 67.983998935204,206.41768804633466 67.68484162248205,205.46043458035274 66.6377910276642,204.175693436031 64.99242580728605,203.1932395081676 62.15043133567087,203.29400420570164 59.28706848458387,204.40241298030014 56.89380998222623,204.8054693988961 57.15023053600453,206.51845133844472 55.910864525823854,208.25661121528537 56.9579151206417,209.54132968177146 56.55191591044422,210.32223349632113 57.62033488473389,212.51378817818477 58.453701684600674,216.19152291689534 58.816964135854505,220.32260724596563 58.731490617850795,223.04303710800014 56.63738942844793,233.2947398605611 58.15454437187873,234.0" stroke="#4DD2FF" stroke-linecap="round" stroke-linejoin="round" stroke-width="0.5"><title>2025-04-15 8.8km</title><desc>1744723077000</desc></polyline><polyline fill="none" points="115.22578626207542,215.2749149510928 114.33015177596826,215.21515681115852 114.98920356755843,213.2829664300225 114.21186042885529,216.5099121384992 114.39774683158612,217.00789251597598 113.36692223441787,220.4339607584261 112.36989516514586,220.45387957216008 112.38679392897757,221.29046779124474 111.23767798481276,225.01523079657636 100.03379752783803,222.78436580755806 87.19073697383283,216.82861973629042 84.57142857142026,216.07168828466092 87.37662337668007,216.96805413566472 100.01689876388991,222.80428436538205 111.27147551253438,224.99531247955747 111.64324831799604,223.5014325214288 112.48818651237525,223.40184009038785 113.21483335940866,221.29046779124474 115.42857142857974,212.12762634629325 114.83711469266564,215.4143505351094" stroke="#4DD2FF" stroke-linecap="round" stroke-linejoin="round" stroke-width="0.5"><title>2025-04-11 5.1km</title><desc>1744377642000</desc></polyline><polyline fill="none" points="129.8791790761752,234.0 130.92282208509278,232.84512846804864 131.1997069651261,233.6987297233718 132.24334997416008,232.84512846804864 133.41478600457776,229.30516011276632 136.16233596706297,229.93281804166327 136.65220921614673,229.75707399386738 137.93013943126425,224.25872824942053 138.0153347790474,221.24588043233962 137.48286385601386,218.5593912453187 134.41583133977838,211.88069364320836 134.33063599211164,210.75081964377023 135.821554576396,209.49539759146865 139.25066732021514,208.94300972174096 141.6361370551167,207.31094691669568 143.19095215015113,207.46159935212927 143.9790091161849,206.8087714203284 142.29640099953394,204.1723321101308 140.52859753533266,205.2018024780118 138.4413115173811,203.4441673654801 136.56701386848,203.34373066837725 135.5659685333958,203.82080458960263 133.54257902607787,206.03039723835536 130.64593720517587,206.45724792177498 128.96332908864133,207.91355606765137 128.8781337409746,208.39062052796362 129.7513860546751,209.11876964208204 130.11346628225874,210.29886849276954 131.071913943626,210.85125311241427 139.4849545264151,208.491055025268 140.6350917200325,207.38627314670885 140.7628847414162,206.155941639081 139.50625336321536,204.19744119817915 137.48286385601386,203.14285714285506 134.75661273044534,203.29351230341126 132.09425811562687,204.3229865975445 129.79398372850846,204.7247314159613 129.98567326075863,206.48235676092736 128.8781337409746,207.838230009962 128.8781337409746,208.3152946261689 129.7513860546751,209.04344397837122 130.66723604220897,210.8261447492987 131.6043848665431,210.85125311241427 132.86101624474395,210.1984347833495 134.01115343836136,210.29886849276954 137.37636967143044,219.21218589058844 137.78104757284746,221.5471669864346 137.65325455134735,223.95744524004112 136.46051968389656,229.05409646268527 133.71296972141135,228.6272876298026 132.62672903866041,231.941311928691" stroke="#4DD2FF" stroke-linecap="round" stroke-linejoin="round" stroke-width="0.5"><title>2025-04-08 5.6km</title><desc>1744119870000</desc></polyline><polyline fill="none" points="168.50104118941817,231.39747867628466 169.33645794761833,230.17826867506665 169.9729659537552,227.45846763414738 172.61845235468354,227.95084795630828 174.0307044936344,222.51115521906468 174.09037711913697,220.3071026479447 173.71245049044956,218.14992295774573 171.00729146401864,211.44376975198975 171.00729146401864,210.15410094804247 172.4991071036784,209.0520142097812 175.6219745093258,208.5830394178629 177.69062552950345,207.17610891019285 179.48080429702532,207.17610891019285 179.95818530174438,206.5664361671079 178.38680616137572,204.08082941571774 176.45739126740955,204.83120429051633 174.62743074947502,203.30700258574507 171.68358122056816,203.23665455415903 168.9585313188145,204.2449741432065 166.69097154657356,204.66706001026614 166.81031679781154,206.5664361671079 165.7561004125746,207.83267762510513 166.53184454515576,208.7237319627602 166.98933467455208,210.03685794629564 168.22256893664598,210.45893245370826 169.31656707229558,209.87271763650642 171.16641846555285,209.6616799114272 172.97648810828105,208.86442441567488 175.74131976044737,208.4657955602015 177.82986165583134,207.08231321602943 177.5116076527629,207.71543335868046 178.0287704077782,206.94161959805933 179.56036779785063,207.05886428612575 179.8985126761254,206.4726402071392 178.6652784140315,204.4794663937937 176.91488139692228,205.39398372950382 175.52252013317775,203.7759888755245 174.05059536884073,203.14285714286962 171.54434509424027,203.21320520517475 169.0977674452588,204.19807566242525 166.75064417219255,204.57326322243898 166.73075329698622,206.66023208617116 165.81577303807717,207.59818902834377 165.7561004125746,208.06716596642218 166.55173542024568,208.7706294572854 166.7705350475153,209.75547448145517 167.84464230795857,210.43548389172065 169.256894446793,209.84926901056315 171.08685496472754,209.6616799114272 172.75768848112784,208.91132187948097 174.34895849670283,208.70028321168502 174.5279763735598,210.03685794629564 178.60560578852892,218.31405695498688 174.44841287261806,219.76780975228758 174.20972237037495,223.4490430848673 173.19528773531783,227.4115742113936 172.67812498030253,227.8101679792453 171.24598196626175,234.0 165.7561004125746,232.59323562395002 166.59151717065834,229.00594485404145 166.86998942343052,228.86526556644822 166.39260841871146,231.16301575074613" stroke="#4DD2FF" stroke-linecap="round" stroke-linejoin="round" stroke-width="0.5"><title>2025-04-02 6.9km</title><desc>1743601029000</desc></polyline><polyline fill="none" points="22.291787143796682,268.2857142857101 23.02975752390921,267.6205118386133 24.049893049523234,263.96186470633256 27.457579805050045,264.7805878950021 28.868405531859025,258.3074797712907 28.434305308153853,253.52289388689678 25.113438597414643,245.94923247917905 25.091733586159535,245.25837958687043 25.74288392160088,244.33723923563957 26.89324951416347,243.7743183534767 30.58310141507536,243.10904648028372 32.29779729840811,241.7273219524941 32.97065264498815,241.62497166403045 32.99235765624326,240.70381706063927 32.12415720894933,238.9382606374129 31.429596851114184,238.98943637279444 30.756741504534148,238.22179917212634 30.19241121376399,238.34973887981323 28.933520565275103,237.58209958802036 27.587809871998616,237.47974749282002 26.198689156444743,237.96591954762698 24.332058194908313,240.26882613076305 21.510406741290353,240.6782293811557 19.405020656762645,242.36701024448848 20.663911305135116,244.72104815440252 22.096442043199204,245.3095539449132 27.066889603738673,243.64638160112372 30.27923125855159,243.18580871575978 32.73189752199687,241.4970337406994 34.35977336065844,241.7017343845073 34.924103651428595,241.08763191782054 33.16599774570204,238.45209059579065 31.234251750516705,239.50119311244634 30.062181146699004,238.14503531406808 28.542830364080146,237.4285714285652 25.699473899323493,237.55651156838576 23.116577568696812,238.63120599144895 20.360041148611344,239.09178780989896 20.53368123807013,241.1132195526152 19.36161063425243,242.62288507347694 20.31663112633396,243.5184447792126 20.750731349922717,244.79780986293918 22.031327009550296,245.3351411196927 23.35533269168809,244.66987366812828 24.614223340176977,244.59311191787128 26.09016410051845,248.76379733072827 27.24052969319746,249.76168040565972 31.03890664980281,248.96849164048035 33.42645787994843,253.98344650040963 28.82499550934881,255.54420141853916 28.58624038635753,259.4588361567148 28.10873014049139,260.04730501867016 26.89324951416347,264.3712266573857 26.632789380149916,264.57590736533166 24.049893049523234,264.11537552157824 23.246807635761797,267.1855707585637" stroke="#4DD2FF" stroke-linecap="round" stroke-linejoin="round" stroke-width="0.5"><title>2025-03-25 6.1km</title><desc>1742909450000</desc></polyline></svg>