<?xml version="1.0" encoding="utf-8" ?>
<svg baseProfile="full" height="300mm" version="1.1" viewBox="0,0,200,300" width="200mm" xmlns="http://www.w3.org/2000/svg" xmlns:ev="http://www.w3.org/2001/xml-events" xmlns:xlink="http://www.w3.org/1999/xlink"><defs /><rect fill="#222222" height="300" width="200" x="0" y="0" /><text fill="#FFFFFF" style="font-size:12px; font-family:Arial; font-weight:bold;" x="10" y="20">Over 5km Runs</text><text fill="#FFFFFF" style="font-size:4px; font-family:Arial" x="10" y="280">Runner</text><text fill="#FFFFFF" style="font-size:9px; font-family:Arial" x="10" y="290">Elliont</text><text fill="#FFFFFF" style="font-size:4px; font-family:Arial" x="65" y="280">SPECIAL TRACKS</text><rect fill="yellow" height="2.6" width="2.6" x="65" y="283" /><text fill="#FFFFFF" style="font-size:3px; font-family:Arial" x="70" y="285.5">Over 20.0 km</text><rect fill="red" height="2.6" width="2.6" x="65" y="287" /><text fill="#FFFFFF" style="font-size:3px; font-family:Arial" x="70" y="289.5">Over 40.0 km</text><text fill="#FFFFFF" style="font-size:4px; font-family:Arial" x="120" y="280">STATISTICS</text><text fill="#FFFFFF" style="font-size:3px; font-family:Arial" x="120" y="285">Number: 28</text><text fill="#FFFFFF" style="font-size:3px; font-family:Arial" x="120" y="290">Weekly: 1.6</text><text fill="#FFFFFF" style="font-size:3px; font-family:Arial" x="141" y="285">Total: 178.0 km</text><text fill="#FFFFFF" style="font-size:3px; font-family:Arial" x="141" y="290">Avg: 6.4 km</text><text fill="#FFFFFF" style="font-size:3px; font-family:Arial" x="167" y="285">Min: 5.0 km</text><text fill="#FFFFFF" style="font-size:3px; font-family:Arial" x="167" y="290">Max: 10.1 km</text><polyline fill="none" points="44.20000000001164,52.53608207771322 35.55573122529313,50.7700001620251 25.64363636361668,46.19619623971812 15.411383399215993,43.99226323430776 11.799999999988358,43.463917922301334 25.413122529629618,46.19619623971812 35.81185770750744,50.92094821378123 43.98229249008,52.49079820710176" stroke="#4DD2FF" stroke-linecap="round" stroke-linejoin="round" stroke-width="0.5"><title>2025-08-07 5.0km</title><desc>1754573743000</desc></polyline><polyline fill="none" points="80.20000000001164,52.552230499946745 71.63477576716105,50.83955599956971 61.84594807238318,46.347440279394505 60.596852871763986,45.971838692668825 47.79999999998836,43.44776950006781 51.20314712822437,44.168936839472735 51.483556254941504,44.04874254472088 52.2355625492055,44.36425234503986 61.14492525567766,46.182175707261194 71.74948859162396,50.959744377527386 79.62643587723142,52.53720713182702" stroke="#4DD2FF" stroke-linecap="round" stroke-linejoin="round" stroke-width="0.5"><title>2025-08-04 5.0km</title><desc>1754309955000</desc></polyline><polyline fill="none" points="116.20000000001164,51.77042346964299 109.72393084620126,50.473111536543 102.25532302091597,47.04442525465129 101.13503184716683,46.67374984667549 89.28353048226563,44.333831515410566 87.20018198364414,44.229576530364284 84.66478616930544,44.42650252742169 83.79999999998836,44.24116042262176 83.98671519570053,44.38016703152243 85.17579617834417,44.461254136127536 88.60545950866072,44.27591209189268 93.3126478617196,45.202619082941965 94.06933575979201,45.21420286924695 95.37634212919511,45.60805085233733 101.00727934483439,46.68533347274206 102.56979071884416,47.241346039634664 109.60600545955822,50.46152832303778 115.53175614197971,51.65459269036364" stroke="#4DD2FF" stroke-linecap="round" stroke-linejoin="round" stroke-width="0.5"><title>2025-08-03 6.5km</title><desc>1754227262000</desc></polyline><polyline fill="none" points="148.44720349065028,51.79483058828919 139.84918683063006,50.083038161392324 129.0149147163611,45.2656685388647 119.79999999998836,43.38715215037519 129.81174137245398,45.47775750492292 140.18333994445857,50.2193763833784 152.20000000001164,52.61284784961026 148.71709639031906,51.825127609670744 148.71709639031906,51.5978997884813" stroke="#4DD2FF" stroke-linecap="round" stroke-linejoin="round" stroke-width="0.5"><title>2025-08-01 5.0km</title><desc>1754057984000</desc></polyline><polyline fill="none" points="185.100227790419,61.524449931988784 179.5731207289209,60.43221308858483 173.4883826879086,57.6290658715734 172.18451025054674,57.21341926432797 162.34396355351782,55.30915294206352 160.54806378131616,55.25115434180043 158.76036446468788,55.40581719158217 157.90751708426978,55.25115434180043 157.20227790431818,54.854829558869824 156.6856492027,54.3618377245366 156.09521640089224,53.240512764990854 155.79999999998836,52.26417518301605 159.41640091114095,49.26742838732025 161.92574031889671,46.58960449384176 164.22186788154067,44.578766632934276 165.95216400909703,43.582998319172475 167.30523917995743,42.58721882831014 168.26469248291687,42.49054061255447 168.6091116173193,42.277848167024786 169.6587699316733,41.06935868260916 170.47881548971054,39.25175949615368 171.28246013668831,38.52664304494829 175.1202733485261,36.41893757008074 179.61412300678785,34.475550068011216 179.68792710703565,35.10401337163057 180.34396355351782,35.55843790931249 181.02460136672016,36.77667092734191 181.44282460134127,37.94654561603966 182.47608200454852,40.08321906484343 185.16583143506432,45.12015054051153 185.5266514806135,46.20290844473493 186.5927107061434,48.43605489066249 187.3143507972418,50.92048510379391 187.36355353074032,52.467176950973226 187.26514806377236,53.02784608797083 187.5193621867511,53.21151279359037 187.28154897489003,54.67116625442577 188.19999999998254,55.01915956169978 188.16719817763078,55.4928149261541" stroke="#4DD2FF" stroke-linecap="round" stroke-linejoin="round" stroke-width="0.5"><title>2025-07-28 10.0km</title><desc>1753704756000</desc></polyline><polyline fill="none" points="41.01867203216534,92.77275033085607 32.41344064386794,91.05152801962686 22.55653923540376,86.53321956422587 20.95283702207962,85.99531606357777 11.799999999988358,84.16642882322776 21.956780684064142,86.34879573786748 30.444668008072767,90.34459134563804 32.64812877262011,91.17447316665493 44.20000000001164,93.43357117679261 41.149054325942416,92.74201440227625 41.305513078463264,91.74309307834483" stroke="#4DD2FF" stroke-linecap="round" stroke-linejoin="round" stroke-width="0.5"><title>2025-07-22 5.0km</title><desc>1753194638000</desc></polyline><polyline fill="none" points="66.22918149462203,90.51023195129528 76.96192170813447,92.63939075106464 80.19999999995343,92.8319189191534 77.37508896790678,92.67336633603554 59.68576512456639,89.20779949627467 51.970106761553325,85.70813931852172 47.79999999998836,84.76808108084515 51.92206405696925,85.73079121940827 59.15729537361767,89.07189256115817 62.135943060508,89.7061234055509" stroke="#4DD2FF" stroke-linecap="round" stroke-linejoin="round" stroke-width="0.5"><title>2025-07-19 6.4km</title><desc>1752877000000</desc></polyline><polyline fill="none" points="113.23281607733225,102.41269492981519 107.71879928768612,101.31490104319528 101.45474433986237,98.44891527784057 100.38326125667663,98.10887695785641 90.2041719664121,96.14634475246567 86.67651996944915,96.26293203046225 85.90999745609588,96.11719790916686 85.192928008124,95.69942544175137 84.49234291526955,94.96103210904403 83.8824217756046,93.59110197170958 83.79999999998836,93.09559014438128 87.40183159499429,90.11274509541545 89.78382091069943,87.52817978591338 92.13284151616972,85.47796379897045 95.00111930808634,83.56373854728008 95.50389213938615,83.32081362250756 96.27041465276852,83.28194557312236 96.81439837190555,82.9418494182828 97.70455354871228,81.88268451067415 98.50404477232951,80.0655557715072 99.35298906132812,79.27844573098992 103.52353090816177,77.00453324327827 107.78473670824314,75.18730507019063 107.7929788857582,75.88699089158035 108.45235309080454,76.3242917411335 108.88918850160553,77.13086323645985 109.78758585598553,79.19098863085674 112.55695751716848,84.39939523415524 113.28226914271363,86.13870206113643 113.48008140421007,86.32331922985759 114.72465021623066,89.51033431223186 115.00488425337244,89.90870318910311 115.4499618417467,91.57017370717949 115.53238361742115,92.66808753220539 115.40050877639442,94.33922245594295 114.99664207579917,95.90345410053123 116.19999999998254,96.17549158624752" stroke="#4DD2FF" stroke-linecap="round" stroke-linejoin="round" stroke-width="0.5"><title>2025-07-17 10.0km</title><desc>1752756134000</desc></polyline><polyline fill="none" points="152.19999999995343,93.37201448855922 143.61035163962515,91.65189670675318 132.7164757012506,86.80829243420158 119.79999999998836,84.22798551143205 133.29253259580582,87.04972220222407 143.36712761753006,91.63680785975885 151.80316080595367,93.3569258289208" stroke="#4DD2FF" stroke-linecap="round" stroke-linejoin="round" stroke-width="0.5"><title>2025-07-14 5.0km</title><desc>1752500928000</desc></polyline><polyline fill="none" points="188.20000000001164,93.33868621043803 179.61235340102576,91.6516542447207 170.73338545736624,87.53102870992734 168.630805316614,86.76959521551908 155.79999999998836,84.2613137895678 169.46677091473248,86.99354668233718 179.764347146207,91.71137254482892 187.28803752933163,93.21925100189401" stroke="#4DD2FF" stroke-linecap="round" stroke-linejoin="round" stroke-width="0.5"><title>2025-06-21 5.0km</title><desc>1750468889000</desc></polyline><polyline fill="none" points="33.96763828318217,131.5897805948116 42.39297681886819,133.27265378578159 44.19999999998254,133.36906733006617 42.645811338035855,133.27265378578159 28.873766352946404,130.5817928242177 27.393940784910228,130.00328979354526 22.969336699519772,127.89960735629575 22.188524213881465,127.64540867148025 13.160844617843395,125.89229243011505 11.799999999988358,125.83093266993819 13.004682120721554,125.85722971576615 16.52205646081711,126.50588745874848 22.850355749367736,127.87331097783317 27.55753959142021,130.09970725409948 28.762221712153405,130.56426249045035 30.07101216429146,130.82721709617908" stroke="#4DD2FF" stroke-linecap="round" stroke-linejoin="round" stroke-width="0.5"><title>2025-06-17 8.1km</title><desc>1750165544000</desc></polyline><polyline fill="none" points="80.19999999995343,134.1190818750474 72.03109048720216,132.4946197256795 61.38143851503264,127.73926411751017 47.79999999998836,125.08091812494968 61.40649651968852,127.79833788095857 71.85568445472745,132.4798517987074 78.74663573078578,133.88279768083885" stroke="#4DD2FF" stroke-linecap="round" stroke-linejoin="round" stroke-width="0.5"><title>2025-06-15 5.0km</title><desc>1749939796000</desc></polyline><polyline fill="none" points="106.18833794421516,131.45715379578905 113.83498616723227,132.98503689665813 116.19999999998254,133.13132193580532 114.3383273036743,133.0175447079164 101.54105128749507,130.5306562553742 100.29304107255302,130.05927589906787 96.1215152159566,128.07619489211356 95.1906788678316,127.76734966463846 86.77867631410481,126.14182739874377 85.75820387317799,126.06867806419905 83.79999999998836,126.22310435305553 86.57871887634974,126.12557199727598 94.83213449668256,127.71858451188746 95.83192168545793,127.994919956167 98.21762077038875,129.1246336293989" stroke="#4DD2FF" stroke-linecap="round" stroke-linejoin="round" stroke-width="0.5"><title>2025-06-11 8.1km</title><desc>1749642919000</desc></polyline><polyline fill="none" points="152.19999999995343,134.1091344786546 143.78278402477736,132.48026316486357 133.20473051565932,127.75642600619176 119.79999999998836,125.0908655213425 133.35548662266228,127.81566009008384 143.8707250871812,132.5543031933339 150.80550601007417,133.94624822532933" stroke="#4DD2FF" stroke-linecap="round" stroke-linejoin="round" stroke-width="0.5"><title>2025-06-08 5.0km</title><desc>1749387304000</desc></polyline><polyline fill="none" points="168.35216783173382,138.30761682454613 171.8413986011874,136.22423904729658 179.18237762222998,134.88873581567896 182.89818181819282,132.1108774410095 186.9311888110824,132.2177184386237 188.01874125842005,131.30956921569305 180.85902097891085,119.66374183804146 176.0103496501688,120.62533439332037 171.38825174816884,123.34983639040729 168.80531468521804,123.34983639040729 164.68167832144536,125.27300515482784 157.92979020951316,126.66195568151306 158.15636363625526,131.042466182902 155.80000000004657,133.98059154016664 157.79384615365416,136.17081898782635 158.65482517471537,138.89523459714837 159.9236363635864,139.696530424495 167.808391608065,138.04051760429866 171.97734265727922,136.17081898782635 178.04951048921794,135.36951739818323 183.12475524446927,132.1108774410095 186.7046153843403,132.27113892888883 188.15468531451188,131.042466182902 180.85902097891085,119.50347622879781 175.46657342626713,120.67875614657532 171.4788811185863,123.29641492819064 167.85370629350655,123.67036504176212 163.41286713257432,125.64695376067539 158.065734265605,126.55511347297579 158.201678321464,131.30956921569305 155.80000000004657,133.98059154016664 157.92979020951316,136.27765910100425 159.01734265708365,139.0554938671994 160.55804195790552,139.80336976927356 172.9742657339666,136.0105587746657 178.18545454507694,135.42293754484854 182.67160839145072,132.37797989178216 186.84055944019929,132.32455941327498 188.19999999995343,130.98904555878835 180.36055944045074,119.34321056710905 175.01342657301575,120.9992865442764 171.29762237751856,123.29641492819064 158.29230769188143,126.28800784988562 158.24699300690554,131.042466182902 155.84531468502246,133.8737509267521 157.88447552430443,136.17081898782635 158.65482517471537,138.73497527444852 160.96587412571535,139.8567894329317 179.27300699264742,134.30111324132304 181.53874125843868,131.25614862082875 180.85902097891085,128.2111650884326 177.86825174815021,124.47168575314572 175.33062937040813,123.18957198632415 173.15552447526716,123.08272902094177 170.66321678296663,124.09773625084199 166.63020979007706,128.95905753268744 160.19552447553724,130.02747333110892 156.3437762237154,133.07244558262755 156.20783216762356,134.35453350437456 158.38293706276454,136.97211926797172" stroke="#4DD2FF" stroke-linecap="round" stroke-linejoin="round" stroke-width="0.5"><title>2025-06-04 6.4km</title><desc>1749041988000</desc></polyline><polyline fill="none" points="44.199999999953434,174.93875112554815 35.89585110504413,173.28026415030763 26.435905389662366,168.91183110784914 25.003722372988705,168.43795874642092 11.799999999988358,165.8612488744402 25.380612640583422,168.58604403675417 35.70740597130498,173.2506481276214 42.604497867345344,174.6722099401668" stroke="#4DD2FF" stroke-linecap="round" stroke-linejoin="round" stroke-width="0.5"><title>2025-05-28 5.0km</title><desc>1748436903000</desc></polyline><polyline fill="none" points="80.20000000001164,174.92456418641086 71.20284810126759,173.0815510553075 60.783069620258175,168.3681601844437 47.79999999998836,165.86032924975734 60.360126582265366,168.2775164826453 61.92373417725321,168.77605610944738 71.95901898737065,173.36857930020778 80.0462025316665,174.93967075023102" stroke="#4DD2FF" stroke-linecap="round" stroke-linejoin="round" stroke-width="0.5"><title>2025-05-27 5.0km</title><desc>1748351986000</desc></polyline><polyline fill="none" points="107.79371806641575,177.08368262184376 107.83701650006697,175.14398837155022 108.85452969209291,172.84057387856592 109.52565541444346,168.56705454380426 109.48235698067583,168.96107127694995 108.50814222241752,169.08230701861612 103.7669637320796,172.44656576981652 101.97007873351686,172.87088215838594 101.25565457739867,171.68885540636256 102.0783248177031,170.3552772992989 103.59376999735832,169.17323377044522 103.35562861186918,167.14252520039736 104.07005276798736,165.83922236735816 103.11748722661287,165.2936508938874 99.63196331355721,165.35427002950746 98.72269620583393,164.02064425831486 99.02578524174169,162.44452813603857 99.69691096409224,162.65669843043725 99.63196331355721,161.62615462121903 100.62782728869934,162.23235758765077 102.44636150426231,162.17173738431302 103.89685903326608,163.14165814955777 105.86693776666652,163.20227802124282 106.66795879020356,162.8082484852639 108.638037523604,160.0500172045431 108.72463439090643,155.4427659226203 108.01021023490466,154.62436007535143 106.88445095869247,154.20000000001164 105.49890108022373,154.59404867512058 104.26489571970887,155.95805655424192 103.31233017821796,156.29147910574102 101.36390066170134,155.92774538205413 99.30722506076563,154.80622836806288 97.42374319478404,155.4427659226203 96.47117765329313,156.8977003195614 96.51447608706076,158.44355502886174 97.33714632736519,159.59535957562912 99.19897897657938,160.4743632725149 99.63196331355721,161.53522399745998 98.78764385636896,163.5053770681261 99.3938219283009,165.32396046434587 99.54536644613836,167.83963673521066 98.74434542260133,170.56743812395143 99.37217271130066,171.32515328133013 101.21235614374746,171.77978082097252 101.92678029974923,172.87088215838594 100.28143981914036,175.5379904841102 98.24641343508847,176.3562997655099 94.84748638956808,178.8415122010192 92.37947566853836,179.90226299580536 91.81659603037406,181.35699662024854 90.43104615190532,182.87233145003847 91.62175307876896,186.26663445973827 92.70421392121352,186.50908218759287 94.13306223344989,185.63020759649226 95.80005193094257,186.3272464228794 97.01240807457361,186.17571647636942 97.96497361606453,185.175615580898 98.6577485552989,182.66018535368494 100.30308903590776,181.75098492222605 104.07005276798736,182.9329445737967 105.49890108022373,182.23589239937428 107.7287704157643,182.11466565453156 107.85866571695078,175.386451313796 109.5689538482111,169.38539600995136 109.30916324595455,168.96107127694995 108.6596867403714,169.02168915818038 103.78861294896342,172.4768741169537 102.03502638405189,172.84057387856592 100.10824608430266,175.62891392421443 98.05157048348337,176.44722278580593 94.82583717268426,178.8415122010192 92.50937096960843,179.75072755664587 91.81659603037406,181.44791707542026 90.43104615190532,182.99355767673114 91.5135069944663,186.11510446149623 92.22793115058448,186.60000000000582 94.00316693226341,185.63020759649226 96.0381933163153,186.35755239658465 97.40209397790022,185.8120440763596" stroke="#4DD2FF" stroke-linecap="round" stroke-linejoin="round" stroke-width="0.5"><title>2025-05-23 6.4km</title><desc>1747958832000</desc></polyline><polyline fill="none" points="138.94369621016085,171.91309194079076 139.82054188963957,172.74610326241236 142.01265608868562,173.09684406181623 143.10871318809222,174.49980246096675 142.82686993398238,180.02387653024925 142.29449934279546,181.03222641107277 140.3842283980921,181.6021615460486 138.5052733704215,180.94454397028312 136.7515820109984,181.3391147180664 133.77656988392118,179.58546230166394 131.99156260758173,180.28692470761598 130.67629408824723,180.06771791195206 131.05208509368822,178.79631480088574 130.11260757991113,176.3411737089191 130.39445083402097,174.5874871059641 129.3923414859455,172.92147372201725 129.83076432568487,170.29090423107846 136.15657958562952,170.02784579743457 138.31737786752637,170.81702028855216 139.44475088408217,172.6145753388264 141.8560765029397,173.05300148807873 142.92081768531352,174.06137878586014 142.82686993398238,180.15540065265668 142.35713117709383,181.03222641107277 140.509492066456,181.55832042684779 138.72448479011655,180.98838519443234 136.68895017681643,181.2952735539002 133.7139380496228,179.6293037582218 129.92471207713243,180.4184486950544 127.8891774637159,182.08441336294345 128.54681172338314,182.56666427281743 129.04786639742088,185.19710781323374 132.11682627606206,186.60000000000582 133.43209479551297,185.67935286817374 134.3089404751081,183.88188941637054 134.18367680651136,182.47898235663888 132.55524911580142,179.89235234029184 134.18367680651136,179.6293037582218 136.72026609408204,181.2952735539002 138.72448479011655,180.72533773675968 138.4739574531559,180.06771791195206 136.43842283985578,180.11155928605876 135.34236574033275,178.70863159530563 136.3757910055574,174.5874871059641 133.68262213247363,170.46627637022175 133.87051763525233,167.1780287985166 134.59078372921795,165.77503033146786 136.03131591703277,164.94199635890254 138.75580070738215,165.81887414988887 140.97923082346097,165.24890392691304 138.4739574531559,167.7041512442811 135.87473633140326,167.5726207340922 134.3089404751081,166.38884310571302 131.89761485625058,165.86271796064102 131.96024669043254,160.5137176961871 133.02498787280638,158.2776271289622 133.08761970698833,154.94537754528574 133.745253966772,154.28769158832438 135.74947266292293,154.20000000001164 141.51160141464788,155.03306887876533 142.70160626550205,156.08536254038336 143.10871318809222,158.2776271289622 144.1108225362841,159.37375239307585 143.45318827650044,160.25064923000173 143.86029519932345,160.82063056556217 141.8873924202053,162.00443390550208 141.66818100016098,164.76662044075783 138.75580070738215,167.61646424492938 136.46973875688855,167.7041512442811 134.21499272366054,166.2573119206063 132.0228785246145,165.99424934806302 131.92893077339977,160.82063056556217 133.27551520976704,156.34843528078636 134.6847314806655,155.82228952988226 134.71604739769828,154.50692042818991 141.13581040897407,154.90153186740645" stroke="#4DD2FF" stroke-linecap="round" stroke-linejoin="round" stroke-width="0.5"><title>2025-05-20 5.0km</title><desc>1747754393000</desc></polyline><polyline fill="none" points="183.90711297094822,172.66414783036453 186.93472803360783,173.03704830553033 188.20000000018626,171.70525958877988 180.69874477013946,160.4115454427956 175.45690376590937,161.69009221566375 171.38995815929957,164.08735840246663 168.85941422590986,164.19390329351882 162.71380753163248,166.53788502144744 157.7882845189888,167.23042292671744 158.19497907953337,171.75853120701504 155.80000000004657,174.84827513841446 157.7882845189888,176.6062241770851 158.5112970713526,179.0566880480328 159.59581589954905,180.1221032916801 161.6292887032032,180.44172741202055 171.79665271984413,177.138934759103 177.85188284539618,176.28659754939144 183.09372384962626,172.82396235471242 186.93472803360783,172.93050534185022 188.1096234312281,171.91834602723247 180.87949790805578,160.46481829168624 178.89121338911355,160.5180911347561 171.5707112972159,163.98081348833512 168.22677824273705,164.3537205866014 164.02426778245717,166.27152402733918 157.42677824292332,167.49678339826642 158.37573221791536,171.01272802229505 155.80000000004657,174.7950038568233 157.69790795003064,176.3931397817505 158.28535564872436,178.63052130065626 159.64100418426096,180.06883258468588 161.6292887032032,180.3351860619441 172.65523012564518,176.7127663399442 178.57489539775997,175.96697071264498 182.8677824267652,172.93050534185022 186.9799163180869,172.93050534185022 188.1096234312281,171.81180281963316 180.87949790805578,160.5180911347561 179.29790794989094,160.3582725879678 175.23096234328113,161.69009221566375 171.70627615065314,163.98081348833512 168.81422594143078,164.08735840246663 163.3916317995172,166.3780684423691 158.01422594161704,167.33696713263635 158.28535564872436,171.5454446989752 155.89037656923756,174.6884612760041 157.69790795003064,176.49968199103023 158.96317991637625,179.64266671947553 161.81004184111953,180.28191537800012 170.98326359852217,177.19220578527893" stroke="#4DD2FF" stroke-linecap="round" stroke-linejoin="round" stroke-width="0.5"><title>2025-05-14 5.0km</title><desc>1747227249000</desc></polyline><polyline fill="none" points="23.27369319985155,227.04866889973346 23.933672978309914,226.4463857671799 24.891708140494302,222.88284501698217 27.76581362693105,223.33456450070662 29.319959556683898,217.11079587426502 29.021904172957875,213.12046866180026 26.020060664857738,205.61645858293923 26.147798686521128,203.9349244708137 28.23418637306895,202.80552899709437 31.342478232458234,202.27847588087025 33.34370723797474,200.89809295641317 34.98301184864249,201.04868058656575 35.6004122865852,200.3961334782798 32.30051339464262,195.12549291203322 31.47021625400521,194.99999999998545 29.192221535136923,195.82825195614714 27.76581362693105,196.8070913370757 26.531012751278467,196.8321897280839 24.01883165934123,197.8361231240997 21.442781556630507,198.21259701950476 21.613098918809555,200.17025135620497 20.399587713414803,201.70122584608907 20.61248441610951,202.2533780833037 21.336333205224946,202.73023576858395 22.060181994573213,204.41177867497026 22.975637816125527,204.51216890793876 31.150871200021356,202.0525956047495 32.066327021690086,201.24946394014114 32.40696174604818,200.17025135620497 32.00245801080018,198.76475761958864 30.576050102710724,197.23376361155533 28.830297140520997,196.6815993412456 27.297440881025977,197.1082718481921 25.253632535110228,199.4173093496065 22.336947708041407,199.91927096083236 20.655063756625168,201.42514923102863 20.69764309725724,202.2533780833037 22.975637816125527,204.0102173055784 25.57297758909408,203.73414345801575 31.08700218924787,202.0525956047495 32.27922372438479,200.94828884406888 32.34309273515828,199.7435845213331 31.47021625400521,198.16240053567162 29.40511823783163,196.7568945469393 26.531012751278467,196.8572881163127 23.827224626904353,197.93651622305333 21.40020221611485,198.41338284539233 21.591809248551726,200.27064343779057 20.420877383672632,201.8016172604257 21.35762287559919,202.73023576858395 21.825995621504262,204.08551011563395 22.911768805235624,204.53726645938877 24.18914902152028,203.8847292340797 26.552302421536297,203.48316694586538 25.99877099459991,204.51216890793876 26.06264000525698,205.31528919663106 28.74513845948968,212.04131169285392 29.3838285675738,215.15328550089907 29.149642194621265,218.64165778126335 28.085158681031317,222.631889365628 25.338791216141544,222.2303597547725 24.253018032293767,225.8942915124935 23.422720891889185,226.24562437302666 23.082086167531088,227.39999999999418 22.635003091883846,227.22433451685356" stroke="#4DD2FF" stroke-linecap="round" stroke-linejoin="round" stroke-width="0.5"><title>2025-05-06 7.1km</title><desc>1746539597000</desc></polyline><polyline fill="none" points="60.18021233729087,227.39999999999418 59.960684310644865,227.14123156382993 60.992466035764664,223.6995845601923 63.604849552270025,224.32063733020914 64.06585840811022,223.51844386309676 65.42693217296619,217.79950226689107 65.38302656763699,214.95291893200192 61.497380496934056,204.18734986765776 60.44364596926607,203.95443552928919 58.9508553884225,204.67905716552923 58.0288376766257,204.49790196369577 56.294566266587935,201.80643697528285 57.480017610127106,200.5124525669089 57.19463117560372,198.44206284967368 58.73132736177649,198.364422884144 63.86828318412881,196.91513886964822 65.53669618628919,195.87993058757274 68.28079651866574,195.05176071304595 71.81519774708431,200.46069304386037 71.3761416937923,201.15944565233076 69.44429505977314,200.97828776601818 67.38073160964996,202.47930608168826 64.24148082942702,202.94513742328854 62.39744540583342,203.82503857582924 60.04849552141968,204.13559114560485 58.62156334845349,204.7308157691732 57.69954563677311,204.34262596644112 57.17267837293912,202.89337843043904 56.33847187180072,202.27226963655266 56.33847187180072,201.78055735622183 57.480017610127106,200.25365483920905 57.17267837293912,198.46794283251802 59.587486665463075,198.15738285207772 63.80242477625143,196.81161824449373 67.79783486027736,194.99999999998545 68.41251333465334,195.2070427845465 71.7932449443033,200.46069304386037 71.46395290445071,201.10768627036305 69.59796467830893,200.97828776601818 66.89776995114516,202.66046282305615 64.7024896851508,202.81573991998448 58.73132736177649,204.67905716552923 57.809309649979696,204.42026397777954 57.2165839781519,202.89337843043904 56.33847187180072,202.22051049715083 57.458064807462506,200.3054144072521 57.19463117560372,198.44206284967368 59.49967545492109,198.15738285207772 63.626802354934625,196.8892587176524 65.0976401331136,195.98345161882753 67.84174046549015,194.99999999998545 68.34665492665954,195.2070427845465 71.7712921416387,200.43481327817426 71.4420001017861,201.0818065750209 69.44429505977314,200.9524080567062 67.31487320177257,202.50518562465732 64.219528026646,202.94513742328854 62.00229495798703,203.90267675637733 60.18021233729087,204.05795304119238 58.77523296698928,204.70493646878458 57.743451241985895,204.31674662373553 57.19463117560372,202.89337843043904 56.31651906913612,202.24639006826328 56.294566266587935,201.80643697528285 57.17267837293912,200.9524080567062 56.14089664781932,201.9099554234126 57.106819964945316,203.04865537515434 57.54587601812091,204.2391085785348 58.489846532582305,204.8084536537208 63.9560943946708,203.10041433414153 67.22706199111417,202.71222186667728 69.33453104645014,201.10768627036305 71.2883304831339,201.10768627036305 71.8591033522971,200.5124525669089 68.19298530824017,194.99999999998545 65.40497937030159,195.8281700550724 63.670707960263826,196.9410190188646 62.11205897142645,197.04453958770318 59.71920348145068,198.0279827404156 56.88729193829931,198.59734270452464 57.37025359692052,200.25365483920905 56.25066066114232,201.62527958248393 56.20675505581312,202.2981492021063 57.084867162280716,202.9710169154423 57.480017610127106,204.18734986765776 58.3142241112655,204.70493646878458 61.497380496934056,204.16147050804284 64.9220177117968,213.06380388855177 65.31716815964319,215.0823098236433 65.40497937030159,217.69599074330472 63.84633038146421,224.08774273170275 60.86074921977706,223.72546179131314 60.20216513983905,226.85658595852146 59.85092029743828,227.14123156382993" stroke="#4DD2FF" stroke-linecap="round" stroke-linejoin="round" stroke-width="0.5"><title>2025-04-29 10.1km</title><desc>1745929124000</desc></polyline><polyline fill="none" points="114.95545964606572,208.10954848476104 114.41009926627157,207.64802204543957 114.71773845492862,205.95025196015195 113.94864048337331,208.48865843554086 113.36132930516033,208.57107351659215 111.6133793698391,215.42785106152587 111.41760897717904,215.47729784838157 102.51005610701395,213.7136857979931 91.15537332755048,208.60403953642526 83.79999999998836,207.0381456632458 91.09943892958108,208.620522543657 100.06292619759915,212.82363079232164 102.60794130334398,213.77961559017422 116.19999999995343,216.44974803984223 111.54346137243556,215.4443333255913 111.83711696154205,214.24112333147787 112.66214933095034,214.04333447181853 114.5359516615863,206.16453467166866 114.89952524809632,206.03266842357698 114.41009926627157,207.31835944132763" stroke="#4DD2FF" stroke-linecap="round" stroke-linejoin="round" stroke-width="0.5"><title>2025-04-22 6.3km</title><desc>1745328842000</desc></polyline><polyline fill="none" points="131.29949072259478,226.44789839697478 131.83797388570383,226.20987241284456 132.95981380867306,222.53366369509604 135.83172401157208,222.95682724541984 137.3349895083811,217.4820918616606 137.08818472537678,211.95433523743122 133.969469739357,204.31048356019892 133.90215934393927,202.98799344987492 135.58491922856774,201.61259609241097 139.12993338517845,201.03069486451568 141.6877284096554,199.36433363167453 143.37048829416744,199.5230351943028 144.06602904642932,198.91467864086735 142.56276354950387,196.5605889173312 140.54345168813597,197.59215913439402 138.92800219904166,195.7141690547287 137.20036871766206,194.99999999998545 133.969469739357,195.264507302345 131.7706634902861,196.24318181470153 128.80900609353557,196.7457428688358 129.2577420627931,198.59727461643342 127.95640775212087,200.47524239125778 128.92119008593727,201.29519559555047 129.41479965206236,202.6705947513983 130.4244555827463,203.19959235172428 134.10409053019248,202.32674569300434 136.23558638384566,201.4009958072711 139.04018619132694,201.03069486451568 141.35117643268313,199.47013468503428 143.37048829416744,199.4965849411965 144.04359224787913,198.86177799894358 142.58520034805406,196.5605889173312 140.56588848656975,197.53925820429868 138.92800219904166,195.6877183864999 137.3349895083811,195.0264507432148 133.85728574707173,195.264507302345 131.81553708727006,196.21673120411288 129.3699260551948,196.5870394904632 129.03337407822255,196.85154506345862 129.21286846592557,198.6766256614501 127.95640775212087,200.34299161507806 128.8763164889533,201.29519559555047 129.34748925664462,202.6970446587511 130.31227159046102,203.25249204829743 136.28045998082962,201.37454575873562 138.95043899759185,201.0835950338078 141.37361323123332,199.47013468503428 143.46023548790254,199.47013468503428 144.02115544956177,198.80887734553835 142.5403267510701,196.5076877623942 140.45370449428447,197.51280773484905 138.90556540060788,195.6877183864999 137.5369206945179,195.1058029554988 134.53038970089983,195.13225368714484 131.5911691026995,196.24318181470153 129.32505245809443,196.5870394904632 129.01093727967236,196.82509451913938 129.16799486905802,198.91467864086735 127.9339709536871,200.42234208942682 128.94362688437104,201.34809570726065 129.39236285351217,202.6970446587511 130.132777202758,203.17314249911578 139.15237018372864,200.6868434832868 140.25177330814768,199.7875375681324 140.63319888187107,198.43857244863466 140.3190837035654,197.433456309358 139.21968057902995,196.08447810781945 137.49204709765036,195.0529014835629 134.50795290234964,195.15870441598236 131.50142190873157,196.32253362929623 128.9885004812386,196.7457428688358 129.2577420627931,198.54437390535895 127.95640775212087,200.3694417760271 129.05581087665632,201.71839616584475 128.62951170594897,202.5383451711241 129.7513516289182,204.83947758708382 130.6263867688831,208.70109906271682 131.0078123427229,213.03873760823626 130.91806514875498,215.8951889633754 128.71925889980048,226.65947685357241 130.31227159046102,227.39999999999418" stroke="#4DD2FF" stroke-linecap="round" stroke-linejoin="round" stroke-width="0.5"><title>2025-04-15 8.8km</title><desc>1744723077000</desc></polyline><polyline fill="none" points="187.98707557527814,207.73866069864016 187.0466593648307,207.67591465171427 187.73866374604404,205.64711475151125 186.92245345038828,209.03540774541034 187.11763417324983,209.55828714175732 186.03526834619697,213.15565879632777 184.9883899234701,213.17657355075062 185.00613362551667,214.0549911808048 183.7995618841378,217.96599233639427 172.03548740432598,215.62358409792068 158.5502738226205,209.37005072309694 155.80000000004657,208.5752726988867 158.74545454559848,209.5164568424516 172.017743702163,215.64449858364242 183.83504928823095,217.9450781035266 184.22541073395405,216.37650414749805 185.11259583802894,216.27193209489633 185.87557502742857,214.0549911808048 188.20000000006985,204.4340076635999 187.57897042739205,207.88506806186342" stroke="#4DD2FF" stroke-linecap="round" stroke-linejoin="round" stroke-width="0.5"><title>2025-04-11 5.1km</title><desc>1744377642000</desc></polyline><polyline fill="none" points="21.12313802994322,268.1999999999971 22.218963189283386,266.9873848914576 22.509692313265987,267.8836662095273 23.605517472722568,266.9873848914576 24.835525304661132,263.270418118409 27.720452765352093,263.9294589437486 28.234819676843472,263.74492769356584 29.57664640271105,257.9716646618763 29.66610151785426,254.80817445395223 29.107007048791274,251.9873608075868 25.886622906662524,244.97472832536732 25.79716779163573,243.78836062595656 27.3626323051285,242.47016747105226 30.96320068615023,241.89016020782583 33.46794390771538,240.17649426251592 35.10049975756556,240.33467931974155 35.927959571941756,239.64920999133028 34.16122104949318,236.88094871563953 32.30502741201781,237.96189260190295 30.11337709322106,236.116375733749 28.145364561816677,236.01091720178374 27.0942669599317,236.51184481907694 24.96970797725953,238.8319171002804 21.928234065300785,239.28011031786446 20.161495542968623,240.80923387102666 20.07204042794183,241.31015155436762 20.98895535734482,242.07470812418615 21.3691395962378,243.31381191739638 22.375509640667588,243.89381576803862 31.209202252677642,241.4156077765365 32.41684630594682,240.25558680405084 32.55102897831239,238.96373872103868 31.23156603134703,236.90731325808156 29.107007048791274,235.8000000000029 26.2444433667697,235.9581879185862 23.448971021338366,237.03913592742174 21.03368291480001,237.46096798675717 21.234956923639402,239.30647459896863 20.07204042794183,240.73014151045936 20.07204042794183,241.23105935748026 20.98895535734482,241.99561617728614 21.950597844203003,243.86745198676363 22.93460410973057,243.89381576803862 24.25406705692876,243.20835652251844 25.46171111019794,243.31381191739638 28.995188154862262,252.67279518512078 29.420099951443262,255.12452533574833 29.285917278844863,257.6553175020381 28.03354566800408,263.00680128581007 25.148618207429536,262.5586520112847 24.008065490517765,266.0383775251248" stroke="#4DD2FF" stroke-linecap="round" stroke-linejoin="round" stroke-width="0.5"><title>2025-04-08 5.6km</title><desc>1744119870000</desc></polyline><polyline fill="none" points="59.42609324876685,265.467352610096 60.303280844935216,264.18718210881343 60.971614251378924,261.33139101584675 63.74937497230712,261.84839035412006 65.23223971819971,256.1367129800201 65.29489597503562,253.82245778033393 64.89807301491965,251.5574191056221 62.05765603715554,244.51595823957177 62.05765603715554,243.1618059954344 63.62406245875172,242.00461492025352 66.90307323471643,241.51219138874148 69.07515680592041,240.03491435569595 70.95484451181255,240.03491435569595 71.45609456673265,239.39475797546038 69.80614646931645,236.78487088649126 67.78026083076838,237.5727645050356 65.85880228690803,235.9723527150345 62.76776028156746,235.89848728186917 59.90645788470283,236.957222850353 57.5255201238906,237.40041301076417 57.65083263767883,239.39475797546038 56.54390543315094,240.72431150634657 57.35843677225057,241.65991856089386 57.83880140830297,243.03870084360824 59.133697383455,243.48187907638203 60.28239542595111,242.866353518315 62.224739388679154,242.64476390699565 64.1253125135554,241.80764563645062 67.02838574838825,241.38908533820359 69.22135473857634,239.93642887682654 68.88718803529628,240.60120502659993 69.43020892806817,239.78870057794848 71.03838618763257,239.91180750043713 71.39343830989674,239.2962722174998 70.0985423347447,237.20343971348484 68.26062546670437,238.16368291596882 66.79864613979589,236.46478831929562 65.25312513718382,235.8000000000029 62.62156234891154,235.87386546542984 60.05265581747517,236.90797944554652 57.58817638072651,237.30192638355948 57.5672909617424,239.49324369047827 56.60656168987043,240.4780984797544 56.54390543315094,240.97052426474693 57.37932219123468,241.7091609301424 57.60906179982703,242.7432482055301 58.73687442333903,243.45725808628777 60.2197391691152,242.84173246109276 62.14119771285914,242.64476390699565 63.89557290507946,241.8568879734521 65.56640642147977,241.63529737225326 65.75437519210391,243.03870084360824 70.03588607779238,251.72975980272167 65.67083351628389,253.25620023989177 65.42020848882385,257.12149523910193 64.35505212203134,261.2821529219509 63.812031229259446,261.7006763781974 62.30828106449917,268.1999999999971 56.54390543315094,266.7228974051395 57.42109302920289,262.9562420967268 57.71348889451474,262.80852884477645 57.21223883947823,265.22116653827834" stroke="#4DD2FF" stroke-linecap="round" stroke-linejoin="round" stroke-width="0.5"><title>2025-04-02 6.9km</title><desc>1743601029000</desc></polyline><polyline fill="none" points="94.90637650096323,268.1999999999971 95.68124540010467,267.50153743055125 96.75238770188298,263.65995794165065 100.33045879518613,264.51961728975584 101.81182580837049,257.72285375985666 101.35602057352662,252.69903858125326 97.86911052721553,244.74669410314527 97.84632026543841,244.02129856622196 98.5300281177042,243.05410119742737 99.73791198979598,242.46303427116072 103.61225648585241,241.764498804303 105.41268716333434,240.31368805012607 106.11918527726084,240.20622024724435 106.14197553903796,239.23900791368214 105.23036506946664,237.38517366928863 104.50107669364661,237.43890819144144 103.79457857972011,236.63288913073484 103.20203177444637,236.7672258238017 101.88019659358542,235.96120456742938 100.46720036561601,235.85373486747267 99.00862361432519,236.3642155250127 97.04866110451985,238.78226743731648 94.08592707838397,239.21214085022802 91.875271689496,240.98536075670563 93.19710687035695,243.45710056212556 94.70126414531842,244.07503164216178 99.9202340838965,242.3287006811879 103.29319282155484,241.8450991515565 105.8684923981782,240.07188542773656 107.57776202866808,240.2868211037421 108.17030883394182,239.6420135137014 106.32429763290565,236.87469512558891 104.2959643380018,237.9762527680723 103.06529020401649,236.5522870797722 101.4699718822958,235.79999999998836 98.48444759426638,235.93433714681305 95.77240644709673,237.06276629101194 92.87804320605937,237.54637720040046 93.06036530004349,239.66888053025468 91.82969116594177,241.25402932714496 92.83246268262155,242.19436701817904 93.288267917349,243.53770035608613 94.63289335998707,244.1018981756788 96.02309932629578,243.40336735155142 97.34493450715672,243.32276751377503 98.89467230555601,247.70198719725886 100.1025561777642,248.74976442594198 104.09085198224057,247.91691622250073 106.59778077388182,253.18261882543447 101.76624528481625,254.82141148947994 101.51555240573362,258.93177796454984 101.01416664745193,259.54967026961094 99.73791198979598,264.08978799026227 99.46442884905264,264.3047027335997 96.75238770188298,263.8211442976608 95.9091480175266,267.04484929649334" stroke="#4DD2FF" stroke-linecap="round" stroke-linejoin="round" stroke-width="0.5"><title>2025-03-25 6.1km</title><desc>1742909450000</desc></polyline></svg>