<?xml version="1.0" encoding="utf-8" ?>
<svg baseProfile="full" height="300mm" version="1.1" viewBox="0,0,200,300" width="200mm" xmlns="http://www.w3.org/2000/svg" xmlns:ev="http://www.w3.org/2001/xml-events" xmlns:xlink="http://www.w3.org/1999/xlink"><defs /><rect fill="#222222" height="300" width="200" x="0" y="0" /><text fill="#FFFFFF" style="font-size:12px; font-family:Arial; font-weight:bold;" x="10" y="20">Over 5km Runs</text><text fill="#FFFFFF" style="font-size:4px; font-family:Arial" x="10" y="280">Runner</text><text fill="#FFFFFF" style="font-size:9px; font-family:Arial" x="10" y="290">Elliont</text><text fill="#FFFFFF" style="font-size:4px; font-family:Arial" x="65" y="280">SPECIAL TRACKS</text><rect fill="yellow" height="2.6" width="2.6" x="65" y="283" /><text fill="#FFFFFF" style="font-size:3px; font-family:Arial" x="70" y="285.5">Over 20.0 km</text><rect fill="red" height="2.6" width="2.6" x="65" y="287" /><text fill="#FFFFFF" style="font-size:3px; font-family:Arial" x="70" y="289.5">Over 40.0 km</text><text fill="#FFFFFF" style="font-size:4px; font-family:Arial" x="120" y="280">STATISTICS</text><text fill="#FFFFFF" style="font-size:3px; font-family:Arial" x="120" y="285">Number: 50</text><text fill="#FFFFFF" style="font-size:3px; font-family:Arial" x="120" y="290">Weekly: 2.1</text><text fill="#FFFFFF" style="font-size:3px; font-family:Arial" x="141" y="285">Total: 332.4 km</text><text fill="#FFFFFF" style="font-size:3px; font-family:Arial" x="141" y="290">Avg: 6.6 km</text><text fill="#FFFFFF" style="font-size:3px; font-family:Arial" x="167" y="285">Min: 5.0 km</text><text fill="#FFFFFF" style="font-size:3px; font-family:Arial" x="167" y="290">Max: 10.1 km</text><polyline fill="none" points="35.333333333343035,44.48507578361023 34.88183421519352,46.073303010707605 30.261022927734302,45.17525188338914 24.871252204611665,42.688925604961696 23.516754850104917,42.273144077953475 15.192239858908579,40.68483779878443 13.767195767199155,40.65989031616482 12.257495590834878,40.80125927656627 11.333333333343035,40.59336365596391 12.123456790141063,40.834522523327905 13.922398589056684,40.70146944934095 15.425044091709424,40.77631183199264 23.86948853620561,42.372931850957684 24.631393298099283,42.60576948070957 30.190476190502523,45.183567220046825 34.2610229277343,45.981835323436826" stroke="#4DD2FF" stroke-linecap="round" stroke-linejoin="round" stroke-width="0.5"><title>2025-09-23 6.7km</title><desc>1758623965000</desc></polyline><polyline fill="none" points="66.0,46.14652826832025 61.11537271880661,45.192782815407554 55.56263532320736,42.637739206555125 54.322919888654724,42.243975259894796 45.45190225797705,40.520141486034845 44.06371790904086,40.476388878480066 42.0,40.616397138815955 45.21435199503321,40.520141486034845 54.07052273431327,42.20897392681218 55.42901330033783,42.58523745850107 61.21930095885182,45.24528285954875 66.0,46.19027778819145" stroke="#4DD2FF" stroke-linecap="round" stroke-linejoin="round" stroke-width="0.5"><title>2025-09-22 6.4km</title><desc>1758538508000</desc></polyline><polyline fill="none" points="95.65058949624654,53.95448846195359 91.47052518758574,53.12826712166134 86.54448017149116,50.8921143020998 85.59914255092735,50.58132127454155 77.99142550912802,49.09555981999438 76.5123258306703,49.027335318045516 75.02679528403678,49.156203765567625 74.40300107182702,49.042496324262174 73.7984994641156,48.72411450018262 73.34833869239083,48.307183718439774 72.66666666665697,46.7304047210273 72.78242229370517,46.54088560944365 75.56055734190159,44.31968314646656 77.34190782421501,42.371334556919464 79.2775991425442,40.657955692047835 81.60557341910317,39.14923759613157 82.49303322614287,39.027932207529375 82.83386923905346,38.762575932531036 83.55412647375488,37.89826561922382 84.17148981781793,36.51837952796632 84.84673097537598,35.89666366309393 87.74062165059149,34.29685704969597 91.3933547695924,32.71217820471065 91.39978563771001,33.189860318161664 91.90782422292978,33.57655295956647 92.39657020365121,34.44091697262047 92.64094319398282,35.146048080408946 94.24222936760634,38.247023704621824 94.28081457663211,38.49721864533785 95.20042872455087,40.02111385315948 96.66666666665697,43.30381948284776" stroke="#4DD2FF" stroke-linecap="round" stroke-linejoin="round" stroke-width="0.5"><title>2025-09-21 9.0km</title><desc>1758451095000</desc></polyline><polyline fill="none" points="125.95015576324658,52.276007851876784 125.63862928349408,53.59791129756195 125.52647975081345,53.62728663539019 121.43925233645132,52.82680410330795 116.59190031152684,50.601559620015905 115.78816199375433,50.359201826082426 108.41744548286078,48.92706980667572 105.15887850464787,48.92706980667572 104.57943925232394,48.68470599393186 104.00623052960145,48.17794247940765 103.69470404981985,47.685864117484016 103.33333333334303,46.635595302286674 103.83800623050774,46.099437780998414 106.1806853582384,44.25590472648764 108.06230529592722,42.22869464374526 109.61993769468972,40.86984216298879 112.08722741433303,39.25387382437475 112.81619937694632,39.18041979752161 113.13395638627117,38.967402666952694 113.88161993768881,38.078599788401334 114.47352024921565,36.74170065706858 115.15264797507552,36.132007083484496 118.09345794393448,34.51592514105869 121.46417445485713,33.03938003127405 121.47663551403093,33.55360339296021 121.9750778816524,33.88417348191433 122.28037383180344,34.45715779470629 123.17133956387988,36.44052741251653 125.2211838006333,40.31894821822061 126.9345794392575,44.21918044833728 127.26479750781436,45.497173562602256 127.33333333334303,46.34181088718469 127.20872274143039,47.63445273814432 126.85981308412738,48.87565937374893" stroke="#4DD2FF" stroke-linecap="round" stroke-linejoin="round" stroke-width="0.5"><title>2025-09-18 10.1km</title><desc>1758194958000</desc></polyline><polyline fill="none" points="149.20491507049883,44.68290535941924 149.1355258402764,44.87715187807771 149.66461872064974,45.03050410888682 158.0,46.65602235569531 142.61293820024002,43.5992068795822 136.10769786773017,40.572963748840266 134.0,40.010644310976204 136.0643295988557,40.60363562130078 142.71702204554458,43.64010138896265 147.79110950490576,44.66245833407447" stroke="#4DD2FF" stroke-linecap="round" stroke-linejoin="round" stroke-width="0.5"><title>2025-09-16 5.4km</title><desc>1758020593000</desc></polyline><polyline fill="none" points="188.65934065933106,46.11391925310454 183.78021978022298,45.13815221598634 178.17582417582162,42.556197441408585 177.0476190476038,42.236685486081115 168.1318681318662,40.52684286987642 164.66666666665697,40.59592813489871 165.1208791208919,40.67364898605592 167.0036630036484,40.51820720750402 168.29304029303603,40.561385509892716 177.31868131866213,42.2971337925992 178.27106227105833,42.625280938111246 183.83882783883018,45.18132800250169 188.66666666665697,46.14845945916022" stroke="#4DD2FF" stroke-linecap="round" stroke-linejoin="round" stroke-width="0.5"><title>2025-09-15 6.5km</title><desc>1757932870000</desc></polyline><polyline fill="none" points="35.333333333343035,80.83944193231582 30.90556177677354,79.95245331471233 25.671519223571522,77.55277809563268 24.98618887644261,77.33894180769857 16.594251586386235,75.70742942717334 15.324374766700203,75.67574921280902 13.83949234787724,75.81039002854232 13.18775662558619,75.71534947862528 12.475550578557886,75.34310612858826 12.08585293017677,74.97086087284697 11.702874206821434,74.33724754417926 11.38036580811604,73.51354196194734 11.333333333343035,73.26801253106532 11.447555057849968,73.10960600658291 14.289660320995608,70.78099026833661 16.184397163102403,68.72160807779437 18.17319895484252,66.96316633940296 20.733109369146405,65.323499906277 21.566256065678317,65.220524451448 21.935796939127613,64.95912456468068 22.634565136249876,64.18284057165147 23.306457633443642,62.6619336114818 24.005225830507698,61.980683714667975 27.18999626726145,60.23792235666042 29.55505785738933,59.1605580676769" stroke="#4DD2FF" stroke-linecap="round" stroke-linejoin="round" stroke-width="0.5"><title>2025-09-13 7.0km</title><desc>1757768754000</desc></polyline><polyline fill="none" points="66.0,72.92395019804098 60.69448972938699,71.88168917612347 54.856863384397,69.18835351079179 53.902184545149794,68.87474036595813 44.3162699706736,67.01148538175039 42.0,67.02070951731002 44.44147375290049,67.0852784380113 53.620476035255706,68.85629249775957 54.739484838646604,69.18835351079179 60.74144114769297,71.93703079175611 65.96869905444328,72.98851461824961" stroke="#4DD2FF" stroke-linecap="round" stroke-linejoin="round" stroke-width="0.5"><title>2025-09-11 6.0km</title><desc>1757587445000</desc></polyline><polyline fill="none" points="94.37371177560999,80.05590493766067 90.29261699609924,79.25298432889394 85.76752829866018,77.15244034146599 84.72748775131186,76.84416374033754 77.52627132961061,75.45331647229614 76.27335698597017,75.41030010885879 74.86230782224447,75.5250103488579 74.16286534888786,75.39596131481812 73.29920594693976,74.72203447053471 72.94036154754576,74.08394843902352 72.66666666665697,73.18774974661937 75.34887649939628,70.95795444479154 76.16996114206268,70.17643274483271 77.13093427944114,69.04356829785684 78.90082784253173,67.48764040198876 80.20848116234993,66.72041817220452 81.09038688967121,66.06791372224689 81.87497888156213,65.93884614136914 82.227741172479,65.73090339522605 82.92718364586472,64.92780799824686 83.52323027537204,63.565391599848226 84.19226220643031,62.97739264885604 86.94137523230165,61.45000496353896 90.35952018923126,59.94409506233933 90.35343808072503,60.453239886388474 90.85825308327912,60.761593286297284 91.20493326574797,61.392637598917645 91.88004730528337,62.97022189751442 94.58050346339587,68.19749225456326 94.72647406652686,68.69940308434889 94.90893732046243,68.90016634431231 95.7056935292785,70.85040613774618 95.90640310858726,71.62475002557767 96.19834431487834,71.70361787325237 96.28349383338355,73.1088836774943 95.96722419324215,75.20238728931145 96.20442642335547,75.37445311785996 96.6545024497027,75.46048586345569 96.66666666665697,75.5895347710175" stroke="#4DD2FF" stroke-linecap="round" stroke-linejoin="round" stroke-width="0.5"><title>2025-09-09 10.0km</title><desc>1757415422000</desc></polyline><polyline fill="none" points="127.30027548215003,73.15625941079634 121.59779614329454,71.99704937848583 115.53994490354671,69.1817624686737 114.43250688709668,68.83106308295828 104.34159779615584,66.86322435741022 103.33333333334303,66.84374058921094 106.5151515151374,67.28212434712623 114.60606060604914,68.89925473788026 121.88705234159715,72.10420387715567 127.33333333334303,73.15625941079634" stroke="#4DD2FF" stroke-linecap="round" stroke-linejoin="round" stroke-width="0.5"><title>2025-09-08 5.7km</title><desc>1757333196000</desc></polyline><polyline fill="none" points="158.0,73.10021389350004 152.61643835616997,72.08298651617224 146.3369863013795,69.18624673647719 145.42465753425495,68.87622217531316 135.54520547945867,66.94823268154141 134.0,66.84165917909559 135.16712328765425,66.91916719353321 145.1863013698894,68.85684560436493 146.43561643833527,69.2637527079205 152.55068493148428,72.09267445081059 157.9260273972468,73.15834082090441" stroke="#4DD2FF" stroke-linecap="round" stroke-linejoin="round" stroke-width="0.5"><title>2025-09-04 5.8km</title><desc>1756983645000</desc></polyline><polyline fill="none" points="188.66666666665697,72.79664380776376 183.9431089743157,71.85312339381198 178.29647435896914,69.27750960678532 175.2387820512522,68.56346301390295 168.57532051281305,67.29686429503636 167.21233974356437,67.27136209631135 165.56089743587654,67.40737372661533 164.66666666665697,67.20335619224352 165.07772435896914,67.39037228577945 165.6474358974083,67.46687874032068 167.21233974356437,67.31386575623037 168.6618589743739,67.35636939301185 177.70512820512522,69.11599963964545 178.67147435896914,69.46452073018008 183.9575320512813,71.91262501811434 186.92147435894003,72.44813759579847" stroke="#4DD2FF" stroke-linecap="round" stroke-linejoin="round" stroke-width="0.5"><title>2025-09-02 6.2km</title><desc>1756809719000</desc></polyline><polyline fill="none" points="35.333333333343035,99.77566786511306 29.91692627206794,98.71814936970623 22.598130841128295,95.47697353920375 12.687435098661808,93.55767234695668 11.333333333343035,93.45974771815236 12.637590861908393,93.57725725994533 22.091381100733997,95.40842777360376 23.370716510922648,95.790324945061 30.04984423678252,98.84544392114185 35.3250259605411,99.87358561517613" stroke="#4DD2FF" stroke-linecap="round" stroke-linejoin="round" stroke-width="0.5"><title>2025-08-29 5.7km</title><desc>1756465472000</desc></polyline><polyline fill="none" points="66.0,99.6567591936182 60.80013170893653,98.63214680185047 54.65986170567339,95.81905694387387 53.70365492263227,95.53029082808644 44.06256173859583,93.65794493709836 42.0,93.65794493709836 44.16529469875968,93.74178219694295 53.964438590744976,95.63275633562444 60.68159367798944,98.64146151523164 65.87355943367584,99.67538839624467" stroke="#4DD2FF" stroke-linecap="round" stroke-linejoin="round" stroke-width="0.5"><title>2025-08-27 6.0km</title><desc>1756291993000</desc></polyline><polyline fill="none" points="95.58264142589178,99.66848775887047 91.54145909441286,98.92627664133761 89.78788885197719,98.4753098058427 84.25617181445705,95.88220475221897 83.11635115681565,95.51578144836822 74.1253182773944,93.75880705937743 72.66666666665697,93.59908034036198 75.06586958927801,93.94672046778578 83.10040960917831,95.52517693716072 84.08081479018438,95.83522749254189 89.33355474367272,98.33438218628726 90.64873242552858,98.79474489116546 95.5746706520149,99.73425299297378 95.76596922392491,99.00143755137833 96.66666666665697,99.15175917508896 96.22030333222938,99.04841308694449 96.25218642750406,98.82293028307322" stroke="#4DD2FF" stroke-linecap="round" stroke-linejoin="round" stroke-width="0.5"><title>2025-08-26 6.0km</title><desc>1756205162000</desc></polyline><polyline fill="none" points="127.33333333334303,101.14851687071496 122.75328303995775,100.24745418444218 117.77088572230423,97.95522674965468 116.73819502655533,97.63114737435535 108.50349259571522,96.04234705892304 105.7541212629294,96.16091544771189 105.02319083543262,95.99491964915796 104.31908354291227,95.56807156651485 103.95697122102138,95.13331630880566 103.36015646829037,93.64722412288393 103.79603241127916,93.16502809726808 105.01648505171761,92.1848164626208 103.56803576418315,93.33893523002189 103.33333333334303,93.6630337743918 103.71556300646625,94.76179611554835 104.03073484214838,95.28350478321954 105.13718915899517,96.06606075215677 105.8278848840564,96.20834274896333 107.32998044148553,96.07396531487029 108.570550433069,96.09767899779399 116.865604917577,97.69438248805818 117.77759150601923,98.00265287830553 122.67281363511574,100.24745418444218" stroke="#4DD2FF" stroke-linecap="round" stroke-linejoin="round" stroke-width="0.5"><title>2025-08-23 7.3km</title><desc>1755948655000</desc></polyline><polyline fill="none" points="158.0,98.74066884423519 157.63692785106832,99.99160055462562 151.5019394879928,98.78456144784286 143.98913886735681,95.36088094572915 136.6811481768964,93.78068147472368 134.0,93.34173277870286 143.5143522110302,95.26211920491914 151.23196276184171,98.74066884423519 156.24980605120072,99.7611669327598" stroke="#4DD2FF" stroke-linecap="round" stroke-linejoin="round" stroke-width="0.5"><title>2025-08-19 5.0km</title><desc>1755607675000</desc></polyline><polyline fill="none" points="187.97517441332457,102.91466477848007 183.61746851500357,102.05347323536262 178.5617468514829,99.7159003818524 177.70716680257465,99.46983557927888 169.7289118419576,97.93960083770799 166.74766693846323,98.0241875437423 165.76261665308266,97.56280427954334 165.0841714233975,96.73999664126313 164.70580773762777,95.50961218667362 167.53048835735535,93.21027375019185 170.192081181478,90.41866855485569 169.40925976258586,91.11850281721854 167.60877049920964,93.07184964800399 164.66666666665697,95.51730215612042 164.81018392680562,96.10173738232697 165.35815892001847,97.17062613410963 165.82132825950976,97.60125300008076 166.62372021382907,97.99342875328875 167.06731901786407,98.0626360129827 168.60686780829565,97.9242214257174 169.89199963762076,97.93960083770799 173.1276615022507,98.5547745698641 173.40817251065164,98.45480920317641 174.69330433994764,98.69318792085687 175.07819153755554,98.86235942575877 177.02872157288948,99.15456379761599 178.28775935489102,99.56210998074675 178.94011053728173,99.54673092220764 178.9270635136345,99.72358989313216 179.34456827037502,99.7082108697432 179.03143970281235,99.91582740249578 179.50765606595087,100.20802741422813 183.33043399473536,101.93044501460827 184.06106731900945,102.13805501279421 184.28939023282146,102.03040546031116 185.53538099120487,102.1226765153333 185.53538099120487,102.41486739413085 187.64899882217287,102.83777310345613 188.02083899610443,102.87621895142365 188.1252151852823,102.34566440053459 188.47748482375755,102.28415057150414 188.66666666665697,101.64594143302384" stroke="#4DD2FF" stroke-linecap="round" stroke-linejoin="round" stroke-width="0.5"><title>2025-08-16 10.0km</title><desc>1755297330000</desc></polyline><polyline fill="none" points="25.776683086995035,122.49726038291556 25.343185550067574,124.70368727054301 35.33333333331393,126.66620756118209 18.761904761893675,123.3798366164192 11.33333333331393,120.00045910548943 18.5353037766763,123.36822381867387 24.791461412154604,124.62239866889286" stroke="#4DD2FF" stroke-linecap="round" stroke-linejoin="round" stroke-width="0.5"><title>2025-08-13 5.0km</title><desc>1755095249000</desc></polyline><polyline fill="none" points="65.86562150059035,127.80021298132488 61.46472564392025,126.92114289978053 56.4591265397612,124.61650331909914 55.5251959686575,124.3155484287563 47.301231802935945,122.73155479114939 44.385218365088804,122.82659538248117 43.74020156779443,122.69195450809639 43.07502799553913,122.29595049130876 42.725643897021655,121.94746517243766 42.403135498345364,121.40889366708143 42.02015677493182,120.33173868797894 42.853303471492836,119.50802117127023 43.8208286674344,118.77141971838864 43.08846584550338,119.28624947605567 42.0,120.33965900342446 42.71220604705741,121.95538531188504 43.26987681974424,122.4781126069065 43.73348264282686,122.71571468051116 44.385218365088804,122.85827555198921 46.66965285554761,122.72363473625592 47.49608062711195,122.7790751023349 55.90817469207104,124.46602602961502 61.337066069449065,126.92114289978053 66.0,127.8952469482756" stroke="#4DD2FF" stroke-linecap="round" stroke-linejoin="round" stroke-width="0.5"><title>2025-08-12 8.1km</title><desc>1754996616000</desc></polyline><polyline fill="none" points="96.66666666665697,126.11688367096212 91.82742960940232,125.1490929311476 86.36330608534627,122.63106829932804 85.46230699363514,122.33129809160891 80.32515894639073,121.25211588175443 76.45231607629103,120.58404328202596 75.08628519528429,120.54978299570212 73.35694822887308,120.69538910947449 72.66666666665697,120.5754782118529 73.29881925522932,120.69538910947449 75.01362397821504,120.56691314071941 76.46684831971652,120.59260835128953 85.38237965482404,122.33986297054798 86.42143505901913,122.7081518823179 91.60217983648181,125.09770547923836 96.25249772929237,126.05693237823289" stroke="#4DD2FF" stroke-linecap="round" stroke-linejoin="round" stroke-width="0.5"><title>2025-08-10 6.4km</title><desc>1754781124000</desc></polyline><polyline fill="none" points="124.95336874949862,133.37500820780406 120.958428198006,132.57350959101313 116.42920988280093,130.48384222754976 115.5670798549836,130.19758124900545 108.1054051775136,128.73763085859537 107.43755797288031,128.69469065015437 105.34901762375375,128.8163545012285 104.89366725695436,128.70900405609427 104.25617674342357,128.34401123059797 103.81296905304771,127.84303738435119 103.39404671557713,126.86254894520243 103.33333333334303,126.49038891818054 105.98650813731365,124.3146419538898 107.82005228099297,122.3392303227156 109.55038367488305,120.82900237612193 111.72999409734621,119.40463235162315 111.9728476263117,119.29010879695852 112.58605278693722,119.26863560821948 112.8228349776764,119.11116534301254 113.49068218230968,118.37391317046422 114.17674340165104,116.89938399656239 114.79601990053197,116.31242627822212 117.57062146894168,114.81637617199885 121.00092756556114,113.29165845886018 121.00092756556114,113.81421828237944 121.60806138798944,114.20792499160598 121.79020153472084,114.43698962709459 121.88734294631286,114.80921795557515 124.03052533941809,118.62443668167543 124.91086938191438,120.55701450619381 125.4633611603349,121.32287220798753 125.46943249856122,121.54475454672502 125.71835736575304,121.92410003489204 126.16763639432611,123.23389874728309 126.51370267308084,123.84942354785017 126.8051269078569,125.1233984175633 126.90226831941982,126.41166248846275 126.62905809935182,128.2581302710896 126.70191415806767,128.3654814529218 127.33333333334303,128.5587131382199 127.2604772746563,129.13124812849856" stroke="#4DD2FF" stroke-linecap="round" stroke-linejoin="round" stroke-width="0.5"><title>2025-08-08 10.0km</title><desc>1754654808000</desc></polyline><polyline fill="none" points="158.0,126.69339413163107 151.59683794470038,125.3851853051965 144.25454545457615,121.99718239978392 136.67509881424485,120.36463943281706 134.0,119.97327253503317 144.08379446645267,121.99718239978392 151.7865612648311,125.49699867687013 157.83873517788015,126.65985052377073" stroke="#4DD2FF" stroke-linecap="round" stroke-linejoin="round" stroke-width="0.5"><title>2025-08-07 5.0km</title><desc>1754573743000</desc></polyline><polyline fill="none" points="188.66666666668607,126.70535592588567 182.32205612381222,125.436708147834 175.0710726462421,122.10921502177371 174.14581694203662,121.8309916241924 164.66666666668607,119.96131074078585 167.1875163912773,120.49550876997819 167.39522685547126,120.40647595905466 167.95226855494548,120.64018692225363 174.5517964856699,121.98679682018701 182.40702858642908,125.52573657594621 188.24180435348535,126.69422750506055" stroke="#4DD2FF" stroke-linecap="round" stroke-linejoin="round" stroke-width="0.5"><title>2025-08-04 5.0km</title><desc>1754309955000</desc></polyline><polyline fill="none" points="35.333333333343035,152.79290627380396 30.536245071300073,151.8319344715128 25.003942978481064,149.29216685529536 24.174097664566943,149.01759247901646 15.395207764668157,147.28431964103947 13.851986654568464,147.20709372618876 11.973915680951905,147.35296483512502 11.333333333343035,147.215674387131 11.471640885720262,147.3186422455692 12.352441613620613,147.37870676750026 14.892932969407411,147.24141636436252 18.37973915686598,147.9278659873671 18.94024871100555,147.93644656980905 19.908401577209588,148.22818581654428 24.079466181399766,149.02617294277297 25.23688201396726,149.4380341034339 30.448892932996387,151.82335431336105 34.83833788294578,152.70710569656512" stroke="#4DD2FF" stroke-linecap="round" stroke-linejoin="round" stroke-width="0.5"><title>2025-08-03 6.5km</title><desc>1754227262000</desc></polyline><polyline fill="none" points="63.22015073383227,152.81098562095576 56.85124950419413,151.54299123066448 48.825862752855755,147.97456928804604 42.0,146.58307566694566 49.416104720381554,148.13167222587072 57.09877032926306,151.64398250620434 66.0,153.41692433304706 63.42007140023634,152.83342785901186 63.42007140023634,152.66511095443275" stroke="#4DD2FF" stroke-linecap="round" stroke-linejoin="round" stroke-width="0.5"><title>2025-08-01 5.0km</title><desc>1754057984000</desc></polyline><polyline fill="none" points="94.370539104013,160.01811106073 90.2763857251266,159.20904673227778 85.76917236141162,157.13264138634258 84.80334092632984,156.8247550106098 77.5140470766637,155.41418736448395 76.18375094913063,155.3712254383645 74.85952923310106,155.48579051227716 74.22779043280752,155.3712254383645 73.70539104021736,155.07765152508364 73.32270311311004,154.7124723885354 72.88534548215102,153.88186130738904 72.66666666665697,153.15864828370832 75.34548215640825,150.93883584245486 77.2042520880641,148.9552625880242 78.90508731966838,147.46575306142768 80.18678815488238,146.72814690308587 81.18906605921802,145.99053246541007 81.89977220955188,145.91891897226014 82.1548974942998,145.76136901260907 82.93242217160878,144.86619161674025 83.53986332571367,143.5198218489968 84.13515565678244,142.98269855180843 86.9779802581761,141.42143523709092 90.30675778281875,139.98188893926272 90.36142748669954,140.44741731230897 90.84738041000674,140.78402808096143 91.35155656794086,141.68642290913704 91.66135155654047,142.5529967526163 92.42672741078422,144.13571782580402 94.41913439636119,147.8667781781478 94.68640850417432,148.66882107016863 95.47608200454852,150.32300362271053 96.01063022017479,152.1633222991004 96.04707668942865,153.30901996367902 95.97418375092093,153.72433043552883 96.16249050872284,153.86037984710129 95.98633257401525,154.9416046329061 96.66666666665697,155.19937745310745 96.64236902046832,155.55023327862727" stroke="#4DD2FF" stroke-linecap="round" stroke-linejoin="round" stroke-width="0.5"><title>2025-07-28 10.0km</title><desc>1753704756000</desc></polyline><polyline fill="none" points="124.97679409792181,152.9427780228507 118.60254862508737,151.66779853304615 111.30114017438609,148.3209033808962 110.11321260896511,147.92245634338906 103.33333333331393,146.5677250542285 110.8568745807861,148.1842931391584 117.14419852447463,151.14414173750265 118.7763916834374,151.75886901233025 127.33333333331393,153.4322749457715 125.07337357476354,152.920010668342 125.18926894699689,152.18006894691644" stroke="#4DD2FF" stroke-linecap="round" stroke-linejoin="round" stroke-width="0.5"><title>2025-07-22 5.0km</title><desc>1753194638000</desc></polyline><polyline fill="none" points="147.65124555159127,151.26683848243556 155.60142348753288,152.8439931489338 158.0,152.98660660677706 155.90747330960585,152.86916024891252 142.80427046265686,150.30207370094286 137.08896797153284,147.70973282853083 134.0,147.01339339321567 137.0533807829488,147.7265120143711 142.41281138788327,150.20140189715312 144.61921708186856,150.67120252262976" stroke="#4DD2FF" stroke-linecap="round" stroke-linejoin="round" stroke-width="0.5"><title>2025-07-19 6.4km</title><desc>1752877000000</desc></polyline><polyline fill="none" points="186.46875264990376,160.08347772578418 182.38429576868657,159.27029706902977 177.74425506658736,157.14734465024958 176.95056389385718,156.89546441322454 169.4104977529205,155.44173685367423 166.79742219962645,155.52809780033567 166.22962774525513,155.42014659938286 165.6984651912062,155.1106855124017 165.17951327058836,154.56372748818103 164.72771983381244,153.548964423484 164.66666666665697,153.1819186254579 167.33469007039093,150.97240377437265 169.09912660054397,149.05791095252061 170.8391418638348,147.53923244367616 172.96379208005965,146.1212878127917 173.33621639956255,145.9413434240778 173.90401085393387,145.91255227638612 174.3069617569854,145.6606291987191 174.96633596200263,144.87606260049506 175.55855168323615,143.53004131222406 176.18739930470474,142.94699683776707 179.27668956163689,141.26261721723858 182.43313830241095,139.91652227421582 182.4392436190974,140.4348080678319 182.9276689561666,140.75873462305753 183.2512507419451,141.35619498996675 183.916730263707,142.88221380062896 185.96811667940347,146.74029276603687 186.50538455016795,148.02866819343035 186.6519121512829,148.16542165174178 187.57381497501046,150.5261735646127 187.78139574325178,150.82126162155328 188.11108284577494,152.0519805238364 188.17213601293042,152.86525002385315 188.07445094551076,154.10312774514023 187.77529042653623,155.26181785224617 188.66666666665697,155.46332710092247" stroke="#4DD2FF" stroke-linecap="round" stroke-linejoin="round" stroke-width="0.5"><title>2025-07-17 10.0km</title><desc>1752756134000</desc></polyline><polyline fill="none" points="35.33333333331393,180.05334406559996 28.97063084418187,178.7791827457404 20.901093112071976,175.19132772903686 11.33333333331393,173.27998926772852 21.32780192286009,175.37016459424194 28.79046490188921,178.76800582204305 35.03937837475678,180.04216728068423" stroke="#4DD2FF" stroke-linecap="round" stroke-linejoin="round" stroke-width="0.5"><title>2025-07-14 5.0km</title><desc>1752500928000</desc></polyline><polyline fill="none" points="66.0,180.0286564521739 59.638780297129415,178.7790031442346 53.06176700547803,175.72668793326739 51.50430023460649,175.16266312260268 42.0,173.30467688116187 52.123534010956064,175.3285530980138 59.75136825646041,178.8232389220866 65.32447224401403,179.94018592732755" stroke="#4DD2FF" stroke-linecap="round" stroke-linejoin="round" stroke-width="0.5"><title>2025-06-21 5.0km</title><desc>1750468889000</desc></polyline><polyline fill="none" points="89.08713946904754,178.14057821837923 95.32813097693725,179.38715095243242 96.66666666665697,179.4585683926416 95.51541580594494,179.38715095243242 85.31390100219869,177.3939206105315 84.21773391476017,176.96539984707124 80.94024940705276,175.40711656021813 80.36186978805927,175.21882123812975 73.67469971691025,173.9202166149007 72.66666666665697,173.87476494069415 73.55902379311738,173.89424423389937 76.16448626728379,174.37473145092008 80.85211536989664,175.38763776135602 84.33891821585712,177.03682018822292 85.23127534234663,177.3809351781092 86.20074975132593,177.57571636754074" stroke="#4DD2FF" stroke-linecap="round" stroke-linejoin="round" stroke-width="0.5"><title>2025-06-17 8.1km</title><desc>1750165544000</desc></polyline><polyline fill="none" points="127.33333333331393,180.01413472225977 121.28228924976429,178.81082942642388 113.39365815930068,175.28834379074397 103.33333333331393,173.319198611076 113.41221964423312,175.33210213404527 121.15235885535367,178.79989022126392 126.25676720798947,179.83910939321504" stroke="#4DD2FF" stroke-linecap="round" stroke-linejoin="round" stroke-width="0.5"><title>2025-06-15 5.0km</title><desc>1749939796000</desc></polyline><polyline fill="none" points="150.58395403277245,178.04233614502664 156.24813790168264,179.1741014049294 158.0,179.2824606931863 156.62098318792414,179.1981812651211 147.1415194722358,177.35604167064594 146.2170674611698,177.00687103634482 143.1270483081462,175.5379221423027 142.43753990213736,175.3091478997303 136.2064268993563,174.10505733239916 135.45052138756728,174.0508726401422 134.0,174.1652624837443 136.05831027880777,174.093016294275 142.17195147904567,175.2730255643619 142.91253458181745,175.4777184860468 144.67971908918116,176.3145434291837" stroke="#4DD2FF" stroke-linecap="round" stroke-linejoin="round" stroke-width="0.5"><title>2025-06-11 8.1km</title><desc>1749642919000</desc></polyline><polyline fill="none" points="188.66666666668607,180.00676628048677 182.43169187026797,178.80019493693544 174.59609667828772,175.30105630088656 164.66666666668607,173.326567052849 174.70776786870556,175.34493340006156 182.49683339794865,178.85503940247145 187.63370815565577,179.88610979654914" stroke="#4DD2FF" stroke-linecap="round" stroke-linejoin="round" stroke-width="0.5"><title>2025-06-08 5.0km</title><desc>1749387304000</desc></polyline><polyline fill="none" points="20.63123543106485,209.78341987001477 23.21585081575904,208.24017707206076 28.65361305361148,207.2509154190193 31.40606060612481,205.1932425489067 34.39347319351509,205.27238402859075 35.19906759902369,204.59968090051552 29.8955710955197,195.9731421022443 26.303962703910656,196.68543288393994 22.88018648023717,198.70358251139987 20.966899766935967,198.70358251139987 17.912354312371463,200.12815196652082 12.910955710918643,201.15700420853682 13.0787878788542,204.4018268021464 11.333333333372138,206.5782159556693 12.810256410157308,208.20060665762867 13.448018648196012,210.21869229417644 14.387878787936643,210.81224475888303 20.22843822836876,209.58556859579403 23.31655011663679,208.20060665762867 27.814452214399353,207.6070499245834 31.573892773943953,205.1932425489067 34.225641025579534,205.31195476214634 35.29976689978503,204.4018268021464 29.8955710955197,195.85442683612928 25.90116550109815,196.72500455300906 22.94731934729498,198.66401105790283 20.26200466195587,198.94101114204386 16.972494172398,200.40515093383146 13.011655011679977,201.07786183184362 13.112354312324896,204.59968090051552 11.333333333372138,206.5782159556693 12.910955710918643,208.2797474822146 13.716550116427243,210.33740286459215 14.857808857806958,210.89138501425623 24.055011654854752,208.0818953886337 27.915151515044272,207.6466204035969 31.238228438189253,205.3910962161317 34.32634032634087,205.35152549130726 35.33333333337214,204.36225596946315 29.52634032641072,195.73571153118974 25.565501165459864,196.962434477231 22.813053613179363,198.66401105790283 13.179487179382704,200.88000581471715 13.145920746028423,204.4018268021464 11.366899766842835,206.4990747605334 12.877389277331531,208.20060665762867 13.448018648196012,210.0999816847907 15.159906759858131,210.93095513549633 28.720745920669287,206.8156394380203 30.399067598977126,204.56011008951464 29.8955710955197,202.30456673217122 27.680186480283737,199.53458203937043 25.80046620045323,198.58486813801574 24.1892773892032,198.50572520069545 22.343123543076217,199.2575824080268 19.35571095580235,202.85856113530463 14.589277389342897,203.6499802452454 11.736130536184646,205.9055152463843 11.635431235423312,206.85521000323934 13.246620046556927,208.79416242073057" stroke="#4DD2FF" stroke-linecap="round" stroke-linejoin="round" stroke-width="0.5"><title>2025-06-04 6.4km</title><desc>1749041988000</desc></polyline><polyline fill="none" points="66.0,206.69537120411405 59.84877859632252,205.46686233356013 52.84141139977146,202.2309860058158 51.78053509112215,201.87996944179758 42.0,199.97129546255746 52.05971306707943,201.98966224945616 59.70918960834388,205.4449245389842 64.81814656843198,206.49793328901433" stroke="#4DD2FF" stroke-linecap="round" stroke-linejoin="round" stroke-width="0.5"><title>2025-05-28 5.0km</title><desc>1748436903000</desc></polyline><polyline fill="none" points="96.66666666668607,206.68486236030003 90.0021097046556,205.319667448377 82.28375527425669,201.82826680329163 72.66666666668607,199.9706142590876 81.9704641350545,201.7611233204807 83.1286919831764,202.13041193292156 90.56223628699081,205.53228096312523 96.55274261609884,206.69605240757664" stroke="#4DD2FF" stroke-linecap="round" stroke-linejoin="round" stroke-width="0.5"><title>2025-05-27 5.0km</title><desc>1748351986000</desc></polyline><polyline fill="none" points="121.10645782697247,208.28420934951282 121.13853074080544,206.84739879374683 121.89224421634572,205.14116583597206 122.38937438104767,201.97559595837083 122.35730146721471,202.26746020514838 121.6356609055074,202.35726445823093 118.1236768385861,204.8493079776381 116.79265091370326,205.16361641362164 116.26344783511013,204.28804104174924 116.87283319828566,203.30020540688565 117.99538518319605,202.42461760773585 117.81898415699834,200.92038903733192 118.34818723559147,199.95497953137965 117.64258313080063,199.5508525139885 115.06071356561733,199.59575557740754 114.38718237465946,198.607884635785 114.61169277166482,197.4403912118869 115.10882293642499,197.5975543929162 115.06071356561733,196.83418860831443 115.79839058424113,197.2832278427013 117.14545296609867,197.23832398837112 118.21989558020141,197.9567838144867 119.67921316047432,198.00168742314418 120.27256206679158,197.70981369278888 121.73187964706449,195.6666794107732 121.79602547478862,192.2539006834195 121.2668223961955,191.64767412989022 120.4329266360146,191.33333333333576 119.40659339271951,191.62522124082898 118.492515347898,192.63559744758822 117.78691124310717,192.88257711536426 116.34363011975074,192.61314472744561 114.82016671169549,191.78239138374192 113.42499495914672,192.2539006834195 112.71939085429767,193.33162986633397 112.75146376818884,194.47670742878836 113.36084913136438,195.32989598195127 114.73998442705488,195.98100983149197 115.06071356561733,196.76683259070705 114.43529174546711,198.22620523565274 114.88431253941962,199.57330404766253 114.9965677378932,201.43676795200736 114.40321883157594,203.4573615732952 114.86827608244494,204.01863206025155 116.23137492127717,204.35539320071985 116.76057799981209,205.16361641362164 115.54180727340281,207.13925221044337 114.03438032226404,207.7454072337132 111.51665658480488,209.5863053340945 109.68850049516186,210.37204666355683 109.27155261510052,211.44962712610868 108.24521937174723,212.57209737039375 109.12722450279398,215.0863958960981 109.9290473490255,215.26598680562165 110.98745350621175,214.61496858999453 112.22226068959571,215.13129364657652 113.12030227750074,215.01904924175324 113.82590638223337,214.27823376362358 114.33907300396822,212.4149521138388 115.55784373031929,211.74147031275788 118.34818723559147,212.61699598058476 119.40659339271951,212.10066103656573 121.05834845616482,212.0108634477947 121.15456719772192,207.02700097318302 122.42144729493884,202.58177482218161 122.22900981182465,202.26746020514838 121.74791610398097,202.31236233939126 118.13971329550259,204.87175860514253 116.8407602844527,205.14116583597206 115.41351561795454,207.2066029068228 113.8900522099575,207.8127576191182 111.5006201278884,209.5863053340945 109.78471923677716,210.25979819010536 109.27155261510052,211.51697561141918 108.24521937174723,212.66189457535074 109.04704221809516,214.97415145295963 109.57624529668828,215.33333333333576 110.89123476465466,214.61496858999453 112.39866171573522,215.15374251598405 113.40895850217203,214.7496622787803" stroke="#4DD2FF" stroke-linecap="round" stroke-linejoin="round" stroke-width="0.5"><title>2025-05-23 6.4km</title><desc>1747958832000</desc></polyline><polyline fill="none" points="148.18051571119577,204.4541421783506 148.83003102941439,205.071187601774 150.45381932496093,205.33099560133996 151.2657134727342,206.370224045153 151.05694069189485,210.46213076314598 150.6625921058003,211.20905660079734 149.2475765912095,211.63123077484488 147.85575805220287,211.1441066446423 146.55672741564922,211.43638127263694 144.3530147288693,210.13737948270864 143.03078711673152,210.65698126489588 142.0565141394036,210.494605860702 142.3348778472282,209.55282577843172 141.63896857772488,207.73420274733508 141.84774135856424,206.43517563404748 141.10543813777622,205.20109164592577 141.43019579688553,203.252521652641 146.11598487826996,203.0576635536563 147.71657619823236,203.6422372507659 148.55166732158978,204.97375951023423 150.33783444669098,205.29851962078828 151.1265316187637,206.04546576729626 151.05694069189485,210.559556038992 150.70898605708499,211.20905660079734 149.3403644936625,211.59875587173156 148.0181368816411,211.17658162549196 146.51033346436452,211.40390633621428 144.3066207775846,210.16985463570745 141.49978672387078,210.75440644077025 139.99198330647778,211.98845434290706 140.47911979514174,212.34567723910732 140.85027140553575,214.29415393572708 143.12357501930092,215.33333333332848 144.09784799662884,214.65137249493273 144.74736331496388,213.31991808619932 144.65457541227806,212.28072767157573 143.44833267841022,210.3647054372559 144.65457541227806,210.16985463570745 146.53353044006508,211.40390633621428 148.0181368816411,210.98173165685148 147.8325610763859,210.494605860702 146.32475765922572,210.52708095262642 145.51286351133604,209.48787525577063 146.2783637078246,206.43517563404748 144.28342380188406,203.38242694089422 144.42260565573815,200.9466879988904 144.95613609580323,199.90742987515114 146.02319697558414,199.29036767325306 148.04133385734167,199.93990677768306 149.68831912847236,199.51770661251794 147.8325610763859,201.33640832907986 145.9072120974306,201.23897832154762 144.74736331496388,200.36210600422055 142.96119618986268,199.97238367453974 143.00759014114738,196.01016125643218 143.7962873132201,194.35379787329293 143.8426812645048,191.88546484835388 144.32981775316875,191.39829006542277 145.8144241948612,191.33333333332848 150.08266771456692,191.95042139168072 150.96415278920904,192.72989817806229 151.2657134727342,194.35379787329293 152.00801669363864,195.16574251337443 151.52088020485826,195.81529572591535 151.82244088838343,196.23750412263325 150.36103142239153,197.11439548555063 150.19865259272046,199.16045958573523 148.04133385734167,201.27145499622566 146.34795463480987,201.33640832907986 144.6777723878622,200.2646754967427 143.05398409231566,200.06981433188776 142.98439316544682,196.23750412263325 143.9818631183589,192.92476687463932 145.02572702267207,192.53502928139642 145.04892399837263,191.56068179865542 149.8043040067423,191.85298656843952" stroke="#4DD2FF" stroke-linecap="round" stroke-linejoin="round" stroke-width="0.5"><title>2025-05-20 5.0km</title><desc>1747754393000</desc></polyline><polyline fill="none" points="185.48675034870394,205.01047987438506 187.72942817292642,205.2867024485604 188.66666666662786,204.30019228800666 183.110181311029,195.93447810580255 179.2273361227708,196.88154978939565 176.21478382160421,198.65730252038338 174.3403068339685,198.73622466190136 169.7880055787973,200.4725074233138 166.13947001390625,200.98549846425885 166.44072524411604,204.3396527459845 164.66666666662786,206.62835195439402 166.13947001390625,207.9305364274769 166.6750348674832,209.74569485042593 167.4783821478486,210.53489132720279 168.9846582985483,210.7716499348462 176.51603905158117,208.32513685862068 181.00139470014255,207.69377596254344 184.8842398885172,205.12886100352625 187.72942817292642,205.20778173473082 188.59972106001806,204.45803409427754 183.24407252448145,195.97393947534147 181.77126917708665,196.01340084060212 176.34867503482383,198.57838036175235 173.87168758711778,198.85460784193128 170.75871687580366,200.2752029832336 165.8716875872342,201.1828025172581 166.57461645756848,203.78720594246988 164.66666666662786,206.5888917458069 166.07252440729644,207.77269613466342 166.50767085084226,209.43001577828545 167.51185495126992,210.4954315442301 168.9846582985483,210.69273041628185 177.15202231518924,208.00945654814132 181.5369595537195,207.4570153427194 184.716875871527,205.20778173473082 187.76290097623132,205.20778173473082 188.59972106001806,204.37911319974228 183.24407252448145,196.01340084060212 182.07252440718003,195.89501673183986 179.05997210601345,196.88154978939565 176.44909344485495,198.57838036175235 174.30683403054718,198.65730252038338 170.29009762906935,200.35412477215868 166.3068340306636,201.06442009826424 166.50767085084226,204.18181088817073 164.73361227335408,206.50997131559416 166.07252440729644,207.85161628967035 167.00976290099788,210.1797531255579 169.11854951188434,210.6532706503931 175.91352859139442,208.3645968780038" stroke="#4DD2FF" stroke-linecap="round" stroke-linejoin="round" stroke-width="0.5"><title>2025-05-14 5.0km</title><desc>1747227249000</desc></polyline><polyline fill="none" points="19.83236533321906,241.73975474055624 20.32123924320331,241.2936190868204 21.030894918891136,238.65395927184727 23.15986194589641,238.98856629682996 24.311081153107807,234.3783673142898 24.090299387346022,231.42256937912316 21.866711603535805,225.8640433947876 21.961332360340748,224.6184625709866 23.506804720731452,223.7818733312015 25.809243135154247,223.39146361548046 27.29163499106653,222.36895774550794 28.50593470269814,222.48050413820602 28.963268360414077,221.9971359098563 26.518898810842074,218.09295771263714 25.903863891900983,218.0 24.21646039641928,218.61351996753365 23.15986194589641,219.3385861756251 22.245194630580954,219.3571775763703 20.38431974768173,220.1008319437824 18.476134486321826,220.37970149594184 18.602295495395083,221.82981581942295 17.703398306271993,222.9638709971041 17.86109956743894,223.37287265430496 18.397283855709247,223.726100569329 18.93346814409597,224.9716879073967 19.611583567457274,225.04605104292568 25.66731200000504,223.22414489241783 26.34542742348276,222.62923254826455 26.59774944151286,221.82981581942295 26.29811704502208,220.78870934784936 25.241518594615627,219.6546397122729 23.948368252196815,219.24562914167473 22.812919171119574,219.5616828505299 21.298987062997185,221.27208099971176 19.138479783723596,221.64390441543947 17.892639819707256,222.75936980078404 17.92418007197557,223.37287265430496 19.611583567457274,224.6742350411805 21.53553895483492,224.46973589484696 25.620001621660776,223.22414489241783 26.503128684707917,222.40613988450787 26.55043906311039,221.51376631211315 25.903863891900983,220.3425189153204 24.374161657644436,219.3014033681102 22.245194630580954,219.37576897504914 20.242388612532523,220.17519720227574 18.44459423411172,220.52843173734436 18.586525369260926,221.9041803243017 17.719168432289734,223.0382350077416 18.413053981901612,223.726100569329 18.75999675662024,224.73000749306811 19.564273189054802,225.06464182178024 20.51048075663857,224.58128091414983 22.260964756656904,224.283827367326 21.850941477459855,225.04605104292568 21.89825185574591,225.6409549604723 23.885287747718394,230.62319384657894 24.35839153151028,232.92835963031393 24.184920144150965,235.51233909724397 23.396413837792352,238.46806619677227 21.362067567475606,238.17063685540052 20.557791135041043,240.884660379641 19.94275621615816,241.14490694299457 19.69043419812806,242.0 19.35926154948538,241.86987741990015" stroke="#4DD2FF" stroke-linecap="round" stroke-linejoin="round" stroke-width="0.5"><title>2025-05-06 7.1km</title><desc>1746539597000</desc></polyline><polyline fill="none" points="51.17052765720291,242.0 51.0079143041512,241.80831967691483 51.77219706348842,239.25895152606245 53.7072959645302,239.71899061497243 54.04878400597954,239.1247732319316 55.05698679474881,234.88852019769547 55.024464124115184,232.77993994964345 52.14620777545497,224.8054443464207 51.36566368083004,224.63291520687926 50.2598928802181,225.16967197447957 49.57691679743584,225.0354829360731 48.29227130848449,223.0418051668821 49.17038341489388,222.0832981977146 48.95898605592083,220.54967618494993 50.09727952716639,220.49216509937833 53.90243198821554,219.4186213849316 55.13829347124556,218.65180043524015 57.17096038418822,218.03834126892616 59.78903536812868,222.04495781027072 59.46380866202526,222.5625523350609 58.03281115536811,222.4283613081643 56.504245636751875,223.54022672718565 54.17887468839763,223.88528698022128 52.812922522833105,224.5370656117302 51.07295964541845,224.76710455230204 50.01597285061143,225.20801168087928 49.33299676788738,224.92046367884905 48.94272472063312,223.84694698550447 48.324793979059905,223.3868663974572 48.324793979059905,223.02263507868338 49.17038341489388,221.89159617719997 48.94272472063312,220.56884654260648 50.73147160396911,220.33880211265932 53.853647982294206,219.34193944037543 56.81321100750938,218.0 57.26852839603089,218.15336502558785 59.77277403278276,222.04495781027072 59.5288540032343,222.52421205212886 58.14664050238207,222.4283613081643 56.14649626001483,223.67441690598207 54.52036272967234,223.78943697777868 50.09727952716639,225.16967197447957 49.41430344438413,224.97797331688344 48.97524739120854,223.84694698550447 48.324793979059905,223.34852629419765 49.15412207954796,221.92993659796775 48.95898605592083,220.54967618494993 50.66642626281828,220.33880211265932 53.72355729987612,219.39945090196852 54.81306676520035,218.72848268062808 56.8457336780848,218.0 57.219744390109554,218.15336502558785 59.756512697495054,222.02578761347104 59.51259266794659,222.50504190742504 58.03281115536811,222.40919115312863 56.45546163088875,223.55939675901027 54.16261335305171,223.88528698022128 52.52021848736331,224.59457537510025 51.17052765720291,224.70959484533523 50.12980219774181,225.18884182872716 49.3655194384628,224.90129379536666 48.95898605592083,223.84694698550447 48.30853264371399,223.36769634687516 48.29227130848449,223.0418051668821 48.94272472063312,222.40919115312863 48.1784419612959,223.11848549882416 48.89394071471179,223.9619669445674 49.21916742081521,224.84378413225932 49.91840483882697,225.26552122498106 53.967477329366375,224.00030691418215 56.3904162896215,223.71275693828647 57.95150447881315,222.52421205212886 59.39876332075801,222.52421205212886 59.8215580387041,222.0832981977146 57.105915043037385,218.0 55.04072545940289,218.61345930006064 53.75607997045154,219.43779186584288 52.60152516391827,219.51447376866417 50.82903961581178,220.24295017808618 48.73132736160187,220.66469829964626 49.089076738397125,221.89159617719997 48.25974863785086,222.9076145055442 48.22722596721724,223.40603644600196 48.87767937936587,223.9044569744001 49.17038341489388,224.8054443464207 49.788314156467095,225.18884182872716 52.14620777545497,224.7862744504091 54.68297608278226,231.3805954730051 54.97568011819385,232.87578505456622 55.04072545940289,234.8118449950416 53.88617065286962,239.5464760975592 51.67462905164575,239.27811984541768 51.18678899243241,241.59747108038573 50.92660762765445,241.80831967691483" stroke="#4DD2FF" stroke-linecap="round" stroke-linejoin="round" stroke-width="0.5"><title>2025-04-29 10.1km</title><desc>1745929124000</desc></polyline><polyline fill="none" points="95.74478492303751,227.7107766553745 95.3408142713015,227.36890521884197 95.56869515177095,226.1112977482553 94.99899295065552,227.9915988411376 94.56394763343269,228.0526470493205 93.26916990359314,233.1317415270605 93.1241547979298,233.16836877658352 86.52596748666838,231.86198947999947 78.11509135377128,228.07706632327609 72.66666666668607,226.91714493573818 78.07365846639732,228.0892759582639 84.71327866491629,231.20268947578734 86.59847503952915,231.9108263630842 96.66666666668607,233.8887022517374 93.21737879444845,233.14395061154937 93.43490145303076,232.25268394924205 94.04603654146194,232.1061736828342 95.43403826782014,226.27002568271564 95.70335203566356,226.1723469804274 95.3408142713015,227.12471069728053" stroke="#4DD2FF" stroke-linecap="round" stroke-linejoin="round" stroke-width="0.5"><title>2025-04-22 6.3km</title><desc>1745328842000</desc></polyline><polyline fill="none" points="111.8514746092842,241.2947395533265 112.2503510263632,241.11842400951718 113.08134356193477,238.39530644081242 115.20868445292581,238.70876092254184 116.32221445057075,234.6534013790224 116.13939609279623,230.55876684255782 113.82923684391426,224.89665448905725 113.77937729179394,223.91703218511248 115.02586609515129,222.89821932771883 117.65180250746198,222.46718138114375 119.54646548855817,221.23283972717763 120.79295429191552,221.35039644023345 121.30816966394195,220.89976195619965 120.1946396662388,219.155991790627 118.69885310227983,219.92011787733645 117.5022238510428,218.52901411462517 116.2224953463301,218.0 113.82923684391426,218.1959313350817 112.20049147424288,218.9208754183055 110.00667118036654,219.29314286580484 110.33906819456024,220.6646478640323 109.37511685333448,222.05573510464455 110.08977043395862,222.66310784856614 110.45540714962408,223.6819220380712 111.20330043160357,224.07377211240237 113.92895594821312,223.42721903185884 115.50784176570596,222.74147837577038 117.58532310457667,222.46718138114375 119.29716772784013,221.31121087781503 120.79295429191552,221.33080366016657 121.29154981317697,220.8605762955267 120.21125951700378,219.155991790627 118.7154729529866,219.8809320031869 117.5022238510428,218.5094210270472 116.32221445057075,218.01959314312262 113.74613759038039,218.1959313350817 112.23373117571464,218.90128237342287 110.42216744821053,219.17558480775915 110.1728696875507,219.37151486183575 110.3058284932049,220.72342641589057 109.37511685333448,221.95777156672557 110.05653073248686,222.66310784856614 110.40554759744555,223.70151456203894 111.12020117806969,224.1129570728226 115.54108146723593,222.72188574721804 117.51884370180778,222.50636669172673 119.31378757860512,221.31121087781503 120.85943369468441,221.31121087781503 121.27492996258661,220.82139062634087 120.17801981553202,219.1168057499308 118.63237369939452,219.86133906285977 117.48560400039423,218.5094210270472 116.47179310693173,218.07837255964114 114.24473311175825,218.09796569419268 112.06753266858868,218.9208754183055 110.38892774673877,219.17558480775915 110.15624983678572,219.35192186603672 110.27258879179135,220.89976195619965 109.35849700268591,222.0165496958798 110.10639028460719,222.70229311649746 110.4387872988591,223.70151456203894 110.98724237235729,224.05417962899082 117.66842235822696,222.21247665429837 118.48279504297534,221.54632412455976 118.76533250504872,220.54709070270474 118.53265459521208,219.80256022916 117.71828191034729,218.8033171169227 116.43855340557639,218.0391862841352 114.22811326099327,218.1175588266633 112.00105326570338,218.97965454023506 110.13962998607894,219.29314286580484 110.33906819456024,220.62546215212205 109.37511685333448,221.97736427855853 110.18948953819927,222.9765897524776 109.87371237471234,223.58395938602916 110.7047049102257,225.28850191636593 111.35287908802275,228.14896226869314 111.63541655009612,231.36202785796195 111.56893714721082,233.47791775065707 109.94019177759765,241.4514643359871 111.12020117806969,242.0" stroke="#4DD2FF" stroke-linecap="round" stroke-linejoin="round" stroke-width="0.5"><title>2025-04-15 8.8km</title><desc>1744723077000</desc></polyline><polyline fill="none" points="157.84227820381057,227.4360449619562 157.14567360351793,227.389566408674 157.65826944145374,225.88675166778557 157.05366922245594,228.3965983299422 157.1982475356781,228.78391640131304 156.39649507123977,231.44863614543283 155.62102957291063,231.4641285561229 155.6341730558779,232.11480828208732 154.7404162104358,235.0118461751117 146.02628696610918,233.27672896142758 136.0372398685431,228.6444820171164 134.0,228.0557575547282 136.18181818188168,228.7529309944075 146.0131434830255,233.29222117307654 154.76670317642856,234.996354150775 155.05585980293108,233.83444751666684 155.71303395403083,233.75698673696024 156.27820372401038,232.11480828208732 158.0,224.9881538248883 157.53997809428256,227.5444948606455" stroke="#4DD2FF" stroke-linecap="round" stroke-linejoin="round" stroke-width="0.5"><title>2025-04-11 5.1km</title><desc>1744377642000</desc></polyline><polyline fill="none" points="171.5726948369993,242.0 172.38441717729438,241.10176658626006 172.59977208386408,241.76567867372069 173.4114944242756,241.10176658626006 174.32261133677093,238.3484578654752 176.45959464093903,238.83663625462214 176.84060716809472,238.69994643966493 177.83455289091216,234.42345530509192 177.90081593918148,232.08012922515627 177.48667188797845,229.99063763524464 175.10120215307688,224.79609505583358 175.03493910492398,223.91730416737846 176.1945424482692,222.94086479335965 178.86163013783516,222.51122978357307 180.71699548722245,221.24184760186472 181.926296116726,221.35902171832277 182.53922931256238,220.85126666024735 181.23053411068395,218.8007027523272 179.85557586071081,219.60140192732797 178.23213118012063,218.23435239536047 176.7743441198836,218.1562349642918 175.99575330363587,218.52729245857336 174.4220059090876,220.24586451872892 172.16906227066647,220.57785949471872 170.86036706890445,221.71054360816197 170.79410402069334,222.081593743962 171.47330026468262,222.64793194383674 171.75491821946343,223.56578660548257 172.50037751160562,223.9954190874414 179.04385352047393,222.1597094641038 179.93840467109112,221.30043466965435 180.03779924323317,220.34351016372966 179.0604192824685,218.82023204302823 177.48667188797845,218.0 175.36625434580492,218.11717623598815 173.29553408984793,218.917878464752 171.50643178872997,219.23034665685555 171.65552364720497,220.59738859183562 170.79410402069334,221.65195667441003 170.79410402069334,222.02300693147117 171.47330026468262,222.58934531650448 172.18562803271925,223.97589036056888 172.91452156275045,223.9954190874414 173.89190152363153,223.48767149815103 174.78645267424872,223.56578660548257 177.40384307765635,230.4983668037894 177.71859255660092,232.31446321166004 177.61919798428426,234.18912407557946 176.69151530961972,238.15318613764248 174.55453200550983,237.8212237120606 173.70967814110918,240.39879816675966" stroke="#4DD2FF" stroke-linecap="round" stroke-linejoin="round" stroke-width="0.5"><title>2025-04-08 5.6km</title><desc>1744119870000</desc></polyline><polyline fill="none" points="19.94525425840402,266.6424834148929 20.595022848108783,265.69420896949305 21.09008463070495,263.57880815988756 23.147685164760333,263.9617706326826 24.246103495010175,259.73089850372344 24.29251553711947,258.01663539285073 23.998572603682987,256.3388289671275 21.89456002751831,251.1229320293205 21.89456002751831,250.1198562929203 23.05486108059995,249.26267771871062 25.483757951646112,248.89791954722023 27.092708745156415,247.8036402634898 28.485070008726325,247.8036402634898 28.856366345775314,247.32945035220473 27.634182569920085,245.3962006566726 26.133526541350875,245.97982555929048 24.710223916219547,244.79433534447162 22.42056317155948,244.73962020879844 20.3010799146723,245.5238687780511 18.5374223140534,245.85215778576094 18.630246398271993,247.32945035220473 17.810300320852548,248.3143048195343 18.413656868389808,249.00734708215168 18.769482524658088,250.02866729156813 19.728664728521835,250.3569474639953 20.579552167386282,249.90100260617328 22.018325473181903,249.73686215333873 23.426157417532522,249.11677454551682 25.57658203592291,248.80672988016158 27.201003510097507,247.73068805690855 26.95347261877032,248.22311483453086 27.355710317147896,247.6212596873811 28.54695273161633,247.7124500003265 28.809954303666018,247.25649793889897 27.85077209980227,245.7062516396254 26.489352197619155,246.41754290073004 25.406404548033606,245.15910245873965 24.261574175732676,244.66666666667152 22.312268406618387,244.7213818262535 20.409374679613393,245.4873921818944 18.583834356162697,245.77920472856204 18.568363675440196,247.4024027337 17.856712362903636,248.13192479983263 17.810300320852548,248.49668464055867 18.42912754911231,249.04382291121874 18.599305036943406,249.8098134855827 19.434721795085352,250.33870969356212 20.533140125276987,249.88276478600164 21.956442750350107,249.73686215333873 23.255979929759633,249.15325035070418 24.493634386337362,248.9891091646423 24.632870512723457,250.02866729156813 27.804360057692975,256.46648874276434 24.570987789833453,257.5971853628871 24.38533962139627,260.46036684379214 23.596334905247204,263.5423354977538 23.194097206927836,263.8523528727528 22.080208195955493,268.6666666666715 17.810300320852548,267.5725165964104 18.46006891055731,264.7824015531369 18.676658440439496,264.6729843294597 18.305362103390507,266.4601233616995" stroke="#4DD2FF" stroke-linecap="round" stroke-linejoin="round" stroke-width="0.5"><title>2025-04-02 6.9km</title><desc>1743601029000</desc></polyline><polyline fill="none" points="50.226945556292776,268.6666666666715 50.80092251865426,268.14928698560107 51.594361260707956,265.30367254938756 54.24478429276496,265.9404572516796 55.342093191400636,260.90581759989436 55.00445968407439,257.18447302315326 52.421563353564125,251.29384748381563 52.40468167810468,250.7565174564661 52.91113193903584,250.0400749610708 53.805860733264126,249.6022476082726 56.67574554507155,249.08481392911926 58.00939789874246,248.01013929639885 58.53272983501665,247.93053351648268 58.54961151041789,247.21407993606408 57.874344495881815,245.84086938467226 57.33413088420639,245.88067273440538 56.810798947990406,245.2836215783318 56.37187538848957,245.3831302398612 55.392738217429724,244.78607745736372 54.346074344881345,244.70647027221275 53.265647121705115,245.0846040926117 51.813823040458374,246.87575365728117 49.61920524324523,247.19417840757524 47.98168273299234,248.5076746346167 48.96081990399398,250.3385930089862 50.07501047797268,250.79631973494543 53.94091413624119,249.50274124533462 56.43940209003631,249.1445178900467 58.3470314060105,247.831026242784 59.6131570583093,247.99023785462487 60.052080617810134,247.5126026027574 58.68466491327854,245.46273713007395 57.1821958059445,246.27870575412817 56.27058533631498,245.22391635538952 55.08886806096416,244.66666666667152 52.87736858834978,244.76617566432105 50.868449220084585,245.6020491044619 48.72447644890053,245.96027940770728 48.859529851877596,247.53250409649627 47.947919382189866,248.70668839049176 48.690713098214474,249.40323482827807 49.02834660548251,250.3982965600735 50.02436545188539,250.8162208708818 51.05414764909074,250.2987906307826 52.033284820092376,250.23908704724454 53.18123874487355,253.48295347946987 54.07596753916005,254.25908475996403 57.03026072762441,253.6421601648326 58.88724501768593,257.542680611441 55.30832984059816,258.75660110331955 55.12263141165022,261.8013170107879 54.75123455369612,262.25901501454064 53.805860733264126,265.6220651779731 53.60328062897315,265.7812612841517 51.594361260707956,265.4230698501342 50.969739272259176,267.8109994788829" stroke="#4DD2FF" stroke-linecap="round" stroke-linejoin="round" stroke-width="0.5"><title>2025-03-25 6.1km</title><desc>1742909450000</desc></polyline></svg>