<?xml version="1.0" encoding="utf-8" ?>
<svg baseProfile="full" height="300mm" version="1.1" viewBox="0,0,200,300" width="200mm" xmlns="http://www.w3.org/2000/svg" xmlns:ev="http://www.w3.org/2001/xml-events" xmlns:xlink="http://www.w3.org/1999/xlink"><defs /><rect fill="#222222" height="300" width="200" x="0" y="0" /><text fill="#FFFFFF" style="font-size:12px; font-family:Arial; font-weight:bold;" x="10" y="20">Over 5km Runs</text><text fill="#FFFFFF" style="font-size:4px; font-family:Arial" x="10" y="280">Runner</text><text fill="#FFFFFF" style="font-size:9px; font-family:Arial" x="10" y="290">Elliont</text><text fill="#FFFFFF" style="font-size:4px; font-family:Arial" x="65" y="280">SPECIAL TRACKS</text><rect fill="yellow" height="2.6" width="2.6" x="65" y="283" /><text fill="#FFFFFF" style="font-size:3px; font-family:Arial" x="70" y="285.5">Over 20.0 km</text><rect fill="red" height="2.6" width="2.6" x="65" y="287" /><text fill="#FFFFFF" style="font-size:3px; font-family:Arial" x="70" y="289.5">Over 40.0 km</text><text fill="#FFFFFF" style="font-size:4px; font-family:Arial" x="120" y="280">STATISTICS</text><text fill="#FFFFFF" style="font-size:3px; font-family:Arial" x="120" y="285">Number: 67</text><text fill="#FFFFFF" style="font-size:3px; font-family:Arial" x="120" y="290">Weekly: 2.0</text><text fill="#FFFFFF" style="font-size:3px; font-family:Arial" x="141" y="285">Total: 461.5 km</text><text fill="#FFFFFF" style="font-size:3px; font-family:Arial" x="141" y="290">Avg: 6.9 km</text><text fill="#FFFFFF" style="font-size:3px; font-family:Arial" x="167" y="285">Min: 5.0 km</text><text fill="#FFFFFF" style="font-size:3px; font-family:Arial" x="167" y="290">Max: 11.4 km</text><polyline fill="none" points="32.80000000001746,47.657368992055126 32.60588782152627,48.138636803778354 30.611217849422246,47.75204487976589 25.59107530215988,45.440339916356606 24.64728850327083,45.12474307217781 16.58159281068947,43.562518445156456 15.396839169523446,43.5072876649574 13.542733188747661,43.6335293864031 12.886767895921366,43.5072876649574 12.384753641177667,43.2074626947433 11.675240161159309,42.39477298191923 11.220080570230493,41.06920126324985 14.386117136687972,38.43376637890469 16.822559652966447,35.861363196221646 16.13312674316694,36.43740006948792 14.138456771004712,38.59947019987885 11.200000000011642,41.00607819532888 11.213387046853313,41.32958333687566 11.735481871728553,42.528906863757584 12.565478772914503,43.35737533497013 13.602974899346009,43.68086997520004 16.414254725794308,43.554628336263704 24.459869848185917,45.10896319387393 25.457204834237928,45.4087802938011 28.7035636814835,46.970965106047515 30.791942981100874,47.81516206948436 32.53895258755074,48.12285758196958 32.69290362569154,47.59425166487199" stroke="#4DD2FF" stroke-linecap="round" stroke-linejoin="round" stroke-width="0.5"><title>2025-12-30 9.0km</title><desc>1767091508000</desc></polyline><polyline fill="none" points="58.80000000001746,44.18581687154074 58.55889691400807,44.61209792892623 56.5449770190462,44.21089229341305 51.19107025608537,41.74510327095777 50.29757058437099,41.460905546249705 41.610768220649334,39.76405605379114 40.192514773487346,39.722261257884384 38.41260669732583,39.85600452469225 37.76021011164994,39.70554333314794 37.20000000001164,39.38790207106649 37.611293499707244,39.66374850535067 38.384241628373275,39.88108136127994 41.58240315166768,39.78077396579465 50.29047931716195,41.502699395314266 51.36126066974248,41.86212555759266 56.318056467483984,44.15238296301686 58.42416283651255,44.60373949958739" stroke="#4DD2FF" stroke-linecap="round" stroke-linejoin="round" stroke-width="0.5"><title>2025-12-11 6.0km</title><desc>1765450773000</desc></polyline><polyline fill="none" points="84.80000000001746,44.61872353783838 80.11574803150143,43.741665000743524 74.75826771653374,41.28584774097544 73.87244094489142,40.98513001950778 65.24803149607033,39.297747600707226 63.20000000001164,39.297747600707226 65.26929133859812,39.34786840558081 73.73779527560691,41.01854315790115 74.58818897642777,41.28584774097544 80.05196850394714,43.7750769382983 84.75039370081504,44.70225239930005" stroke="#4DD2FF" stroke-linecap="round" stroke-linejoin="round" stroke-width="0.5"><title>2025-12-07 6.0km</title><desc>1765101913000</desc></polyline><polyline fill="none" points="109.8532556372229,47.55504297003063 109.65624524958548,48.29042336418934 109.41545477582258,48.387183262620965 108.72591841907706,51.04479334360076 104.99913858628133,50.29009580791535 100.4350646060484,48.24526869082911 93.49592095264234,46.87771084443011 90.96762097798637,46.94221899968397 90.2726121104788,46.69708763593735 89.83481124904938,46.34229044400854 89.50098809221527,45.852021735372546 89.23830757540418,45.19402314188119 89.20000000001164,44.82631486106402 91.54223460858339,42.89097048520853 93.89541423867922,40.48460408962637 94.73818089690758,39.77493312695515 96.62072460097261,38.52331087946368 96.97643780088401,38.36201742801859 97.57294147455832,38.29749992438883 97.77542437295779,38.1426576288286 98.3609830250789,37.47812151145263 98.90823410186567,36.284518490447226 99.51021028633113,35.684481935306394 102.22457562710042,34.194042238374095 105.12500633395393,32.95520665639924 105.13047884471598,33.4262253234192 105.56280719535425,33.73593418514429 106.00608056754572,34.548912236914475 106.94187990881619,36.613568212596874 108.97765391436405,40.53621619145997 109.90798074487248,42.76839654479045 110.18707879402791,43.78123675421375 110.25274892325979,44.671489638662024 110.14877121869358,45.79396333002296 109.95176083102706,46.439053525329655 110.13235368637834,46.71644014892081 110.80000000001746,46.96157143254095 110.61393463393324,47.82597365126276 110.48259437549859,47.800170782622445 110.41692424629582,48.07755103121235 110.25822143405094,48.071100342524005" stroke="#4DD2FF" stroke-linecap="round" stroke-linejoin="round" stroke-width="0.5"><title>2025-11-30 10.9km</title><desc>1764501077000</desc></polyline><polyline fill="none" points="136.78791608390748,48.12157678604126 136.80000000001746,48.20703562890412 136.57040559439338,48.164306221435254 132.77605594406486,47.40229376628122 128.3775104895176,45.37971297265176 127.44704895102768,45.052105971037236 120.0396083916421,43.613464490452316 116.99446153847384,43.656196871743305 116.63194405596005,43.5208775684805 116.04587412587716,43.10779585778073 115.55043356644455,42.402702081002644 115.23625174825429,41.56939963224431 115.26646153850015,41.312996742017276 117.90679720282787,39.15489923207497 119.59854545455892,37.32437784591457 121.32050349650672,35.771599677835184 119.64083916082745,37.25315029677586 117.85241958042025,39.183389432233525 115.2241678321734,41.34148600168555 115.20000000001164,41.53378817981866 115.47188811190426,42.31011344450235 116.07004195803893,43.18613914137677 116.54131468533888,43.49951133709692 117.23009790212382,43.713173336713226 119.91272727274918,43.64195274774829 127.4349650349759,45.10908121964894 128.19020979019115,45.351225472433725 132.55854545457987,47.380928803104325 136.6308251748269,48.22840032217209" stroke="#4DD2FF" stroke-linecap="round" stroke-linejoin="round" stroke-width="0.5"><title>2025-11-16 10.0km</title><desc>1763290106000</desc></polyline><polyline fill="none" points="162.80000000001746,45.004401112979394 162.67700094910106,45.117161996342475 160.83201518509304,44.75471568801004 155.5362227143778,42.322252279634995 154.50439734262181,42.00812037716241 146.3454602973943,40.42133114247554 144.92413793102605,40.389111719043285 143.3798165137705,40.52604417174007 142.737488136685,40.42133114247554 141.7808288515953,39.801104775186104 141.20000000001164,38.8828380036648 141.35033217337332,39.31780789584445 141.657829800708,39.72055551465746 142.64865548876696,40.41327628793806 143.52331540652085,40.55826353552402 145.43663397661294,40.389111719043285 146.33179373617168,40.44549570086383 154.8597279342066,42.104776489279175 159.87535590009065,44.41643086441036 160.79101550148334,44.762770069726685 162.34217019935022,45.04467287677835" stroke="#4DD2FF" stroke-linecap="round" stroke-linejoin="round" stroke-width="0.5"><title>2025-11-12 6.4km</title><desc>1762942582000</desc></polyline><polyline fill="none" points="175.5564245809801,47.6191540058353 178.30167597765103,46.2677379171073 182.40446927386802,45.69871894241078 185.27039106143638,43.636016843986 187.92513966478873,43.77827257968602 188.6793296089163,43.10255728306947 184.03351955325343,35.56290224278928 182.79664804472122,35.31394839831046 177.5173184357118,37.80347829760285 168.52737430180423,39.86621725704754 168.97988826816436,42.569096850260394 167.23016759788152,44.95188003292424 168.4670391061809,46.0899195940292 169.1005586591782,48.01035235571908 170.3374301677104,48.721620881638955 172.69050279341172,47.86809846453252 175.28491620114073,47.6191540058353 178.4826815642882,46.23217426016345 182.313966480433,45.840973779093474 185.14972067042254,43.74270865149447 188.01564245810732,43.84940042413655 188.80000000004657,42.92473723561852 184.15418994415086,35.56290224278928 182.8871508379234,35.20725383548415 179.5687150838785,36.52315100689884 177.54748603352346,37.91017201167415 175.5564245809801,37.98130113512161 171.93631284916773,39.43944474885939 168.34636871516705,40.04403897075099 168.97988826816436,41.573301709519 168.88938547496218,42.85360918962397 167.38100558659062,44.38285876440932 167.23016759788152,45.129698975913925 168.61787709512282,46.33886521903332 169.16089385491796,48.11704273347277 170.39776536310092,48.82831102667842 172.60000000009313,47.93922541788197 175.64692737429868,47.6191540058353 178.6636871509254,46.2677379171073 182.10279329610057,45.947664865874685 185.54189944139216,43.70714471954852 188.4379888268886,43.56488895291113 188.80000000004657,42.818045160820475 188.28715083794668,41.928943179984344 184.15418994415086,35.56290224278928 183.09832402237225,35.17168897335068 179.719553072704,36.41645683927345 177.57765363145154,37.80347829760285 168.3765363128623,39.97291029695771 168.9497206704691,42.569096850260394 167.19999999995343,44.95188003292424 168.52737430180423,46.23217426016345 168.9497206704691,47.79697149581625 170.00558659236412,48.614930701383855 171.21229050296824,48.57936730037909 178.6335195529973,46.2677379171073 182.22346368723083,45.91210117418086 185.27039106143638,43.77827257968602 187.9553072626004,43.84940042413655 188.64916201122105,43.28037723354646 188.10614525142591,41.679994191392325 183.58100558666047,35.24281869357219 179.44804469274823,36.629845139657846 176.79329608939588,38.443640059413156 175.37541899457574,40.29298920719884" stroke="#4DD2FF" stroke-linecap="round" stroke-linejoin="round" stroke-width="0.5"><title>2025-11-04 6.4km</title><desc>1762251473000</desc></polyline><polyline fill="none" points="32.80000000001746,68.9871398237301 27.471052631619386,67.87978930818645 20.760526315803872,64.8833571350915 11.200000000011642,63.01286017627717 20.54736842107377,64.89266298773146 21.510526315832976,65.19975555645215 27.281578947382513,67.87978930818645 32.75263157894369,68.9871398237301" stroke="#4DD2FF" stroke-linecap="round" stroke-linejoin="round" stroke-width="0.5"><title>2025-10-28 5.4km</title><desc>1761648009000</desc></polyline><polyline fill="none" points="58.80000000001746,68.50305286285584 54.44221954164095,67.62777781143086 48.85331724968273,65.14009464966512 40.6653799758933,63.535338871137355 39.47985524733667,63.496947137136885 37.89047044632025,63.62747894744098 37.20000000001164,63.496947137136885 37.37587454766617,63.58140892433585 37.91001206275541,63.67354894044547 39.39517490955768,63.535338871137355 40.652352231612895,63.56605224329542 48.736067551304586,65.15545098783332 49.62195416164468,65.45489891348552 54.448733413766604,67.67384519029292 57.718697225587675,68.33414097975765" stroke="#4DD2FF" stroke-linecap="round" stroke-linejoin="round" stroke-width="0.5"><title>2025-10-17 6.4km</title><desc>1760694739000</desc></polyline><polyline fill="none" points="84.80000000001746,73.43485306450748 82.98248037678422,73.09911882496817 77.65199372058851,70.66899663937511 76.89921507067629,70.43717156919593 68.47623233913328,68.82236973139516 65.32270015703398,68.88632295512798 64.40037676613429,68.47862019910826 63.925651491386816,68.03094397580571 63.362762951350305,66.91174146989943 63.26103610676364,66.27218951725081 66.21789638936752,63.881814746695454 68.08288854005514,61.835144369862974 70.00213500787504,60.12421204225393 72.40967032968183,58.54915962902305 70.097080062842,60.02827073039225 68.21174254320795,61.68324077704165 66.31962323392509,63.73791010167042 63.28138147571008,66.22422289609676 63.20000000001164,66.39210593293683 63.288163265329786,66.75185400426562 63.912087912118295,68.04693245937233 64.9090109890385,68.78239893829596 65.54649921509554,68.96626440640102 68.46266875983565,68.84635219684424 76.9670329670771,70.50112338581675 77.7672841444728,70.75693009514362 82.77902668764,73.0751377491033 84.5083830455842,73.45084037096967 84.58298273157561,73.32294182194892" stroke="#4DD2FF" stroke-linecap="round" stroke-linejoin="round" stroke-width="0.5"><title>2025-10-12 10.0km</title><desc>1760258276000</desc></polyline><polyline fill="none" points="110.22654867259553,68.67456366348779 105.52566371683497,67.73160972309415 99.30973451328464,64.96109384476586 90.64424778759712,63.3004052821052 89.20000000001164,63.25867897525313 90.81415929205832,63.367167325821356 99.64247787609929,65.11130510539806 103.35221238937811,66.85540318295534 103.64247787609929,66.88878266327083 104.49911504428019,67.38947312356322 105.76637168144225,67.8651260304614 110.18407079647295,68.74132102475414 110.30442477876204,68.67456366348779 110.38230088495766,68.04871057320997 110.80000000001746,68.0236763432913" stroke="#4DD2FF" stroke-linecap="round" stroke-linejoin="round" stroke-width="0.5"><title>2025-10-09 6.0km</title><desc>1760007351000</desc></polyline><polyline fill="none" points="136.80000000001746,69.01809241441515 131.15928994081332,67.91332938857522 123.91668639052659,64.6692669248514 115.20000000001164,62.98190758558485 124.35976331360871,64.89022836150252 128.39005917159375,66.7985096471748 128.84165680475417,66.86881399299455 129.2506508876104,67.21029148162052 130.43502958581666,67.7124619620372 130.56284023672924,67.66224503707053 131.12520710058743,65.71380723368202 132.23289940829272,66.02515830601624 132.47147928993218,65.84437394038832 134.0052071005921,66.06533256137482 134.4227218934975,65.11118926867493" stroke="#4DD2FF" stroke-linecap="round" stroke-linejoin="round" stroke-width="0.5"><title>2025-10-05 5.0km</title><desc>1759662272000</desc></polyline><polyline fill="none" points="162.80000000001746,67.90756351863092 162.6307210031664,68.59393846190505 158.36489028215874,67.73197819825145 157.20025078370236,67.30099426473316 156.17780564265558,66.75028888346424 152.31824451411376,65.07420356305374 144.14545454547624,63.469914563364 142.62194357370026,63.406061538094946 141.20000000001164,63.53376753302291 143.7391849529813,63.461932938254904 151.87811912226607,65.05025920931803 153.0156739811937,65.4014422800683 157.1054545454681,67.34888149362087 158.21592476492515,67.77188398983708 160.07122257055016,68.09112954013835 160.22695924769505,67.80380860745208 160.13893416928477,67.67611005355138 160.20664576807758,67.50850536391954 160.6941692790133,67.50052417867846 161.4728526645922,67.708034712894" stroke="#4DD2FF" stroke-linecap="round" stroke-linejoin="round" stroke-width="0.5"><title>2025-10-02 6.2km</title><desc>1759399141000</desc></polyline><polyline fill="none" points="187.91378862634883,73.83893409433585 187.66138665284961,74.75790081051673 187.3585042846098,74.76451203145189 187.25754349521594,75.26035155009959 183.99314463775954,74.65212117755436 182.80965982860653,74.26866846298435 179.44430018175626,72.66210748189405 178.48517268244177,72.32492261845982 171.80493378339452,71.02905747677141 170.77849909113138,70.96294116657009 169.2192157880927,71.07533885106022 168.6190599844267,70.95632953157838 168.17034536483698,70.7050868686274 167.80015580367763,70.35466773357257 167.50849130094866,69.87201165038277 167.20000000001164,68.95297096214199 168.02451311345794,68.17937916426672 169.66793040765333,66.88342550987727 171.35621916383388,65.08491336170482 172.8425863411976,63.76905637053642 174.93471825501183,62.39365775905753 175.1759023630293,62.2812439943591 175.68631524278317,62.26140624956679 175.93310828355607,62.12915445181352 176.7127499350754,61.223221886797546 177.21755388210295,60.052763435669476 177.8064918202872,59.52373525744406 180.46512594132219,58.05565789983302 183.51077642169548,56.739648449900415 183.51077642169548,57.17611705969466 184.088496494398,57.658874137181556 184.90179174239165,59.49728372743266 187.26876136069768,64.02032774883264 188.43541937158443,66.77763215306913 188.73830173979513,67.90828910712662 188.80000000001746,68.82073374668835 188.71025707607623,69.82572935855205 188.50272656453308,70.50012497861462" stroke="#4DD2FF" stroke-linecap="round" stroke-linejoin="round" stroke-width="0.5"><title>2025-09-30 10.1km</title><desc>1759229695000</desc></polyline><polyline fill="none" points="32.78709291902487,92.50649539211736 28.23089333731332,91.57847284547461 23.629518972244114,89.4409313847791 22.7195697639836,89.12904264233657 14.85270391398808,87.60000694874907 13.58135643863352,87.56197080826678 12.071227965381695,87.69890081707854 11.200000000011642,87.4782912262308 11.980878398608183,87.74454409370082 14.4203167015512,87.5847924950358 15.168927397666266,87.67607916758425 22.706662683020113,89.1518638170237 23.34556319093099,89.34203998308658 26.759486106951954,90.9699267771939 28.54066328058252,91.7001814229152 32.64511502836831,92.52170877376193 32.80000000001746,92.47606861886743" stroke="#4DD2FF" stroke-linecap="round" stroke-linejoin="round" stroke-width="0.5"><title>2025-09-29 6.6km</title><desc>1759141711000</desc></polyline><polyline fill="none" points="57.2265637065866,99.47779533461289 57.0820077220269,100.16589648401714 56.609420849446906,100.08070343514191 53.47922779925284,99.47124195250217 49.18702702704468,97.50519509708829 48.04725868726382,97.17096074319852 41.39768339769216,95.89954251156814 39.27382239385042,96.00440276367226 38.79567567567574,95.95197266047035 38.050656370673096,95.56529923828202 37.81714285715134,95.32280785819239 37.500231660262216,94.79849883047063 37.20000000001164,93.90716299702035 37.47243243243429,93.59257072642868 39.89096525099012,91.6525487053841 41.23088803089922,90.16471915843067 42.85436293439125,88.73584380678585 44.85034749037004,87.41836443764987 45.600926640909165,87.29382509393326 45.85111969112768,87.15617604557701 46.49050193050061,86.49414526906912 47.12432432433707,85.12417725212072 47.69698841701029,84.57355930507038 51.46100386104081,82.60702548125482 54.70239382240106,81.34185472552053 55.56416988419369,81.1386382886958 57.582393822434824,80.40443124538797 58.80000000001746,79.83410351597922 55.80324324328103,80.98786435951115 54.61343629346811,81.30252256553285 53.50146718148608,81.71550896214103 53.34579150582431,82.06949504453587 53.46254826255608,82.3579266079796 53.80169884173665,82.50214187092206 54.12972972972784,83.08555463209632 55.28617760617635,85.60924126685495 57.09312741315807,89.02424340081052 57.09312741315807,89.20121519437089 57.504555984574836,89.93531485253334 58.244015444041,91.72464523762756 58.444169884198345,92.4783765375214 58.71660231662099,92.54391794338153" stroke="#4DD2FF" stroke-linecap="round" stroke-linejoin="round" stroke-width="0.5"><title>2025-09-26 11.4km</title><desc>1758886655000</desc></polyline><polyline fill="none" points="84.80000000001746,93.71470535787375 80.6989638756495,92.88054291237495 76.12612713527051,90.76300589154562 75.38818258192623,90.53484966704855 68.0208345001447,89.1159852963392 66.81713805659092,89.08033504170453 65.45617474097526,89.1944157881735 64.79686362363282,89.09459514587797 63.883506020734785,88.41723676625406 63.562923550838605,87.93238646387181 63.242341080942424,87.11954113459797 63.26653598435223,86.81293895866838 63.87140856904443,86.28529464212625 63.272584710182855,86.77728744964406 63.20000000001164,86.99832649252494 63.841164939804,88.42436689096212 64.17384486139053,88.75948187623726 64.74242509101168,89.07320498843183 65.4440772892849,89.22293594374787 67.23450013998081,89.0874650941696 68.03293195186416,89.13024539276375 74.98291795013938,90.4778104866491 76.11402968358016,90.77726562919997 80.68686642398825,92.91619109754538 82.24138896664954,93.23702389044774" stroke="#4DD2FF" stroke-linecap="round" stroke-linejoin="round" stroke-width="0.5"><title>2025-09-25 7.3km</title><desc>1758798919000</desc></polyline><polyline fill="none" points="110.80000000001746,91.03656820525066 110.39365079370327,92.46597270963684 106.23492063497542,91.65772669504804 101.38412698416505,89.42003304446553 100.16507936510607,89.04582967016177 92.67301587303518,87.61635401890817 91.39047619048506,87.59390128454834 90.03174603177467,87.72113334891765 89.20000000001164,87.53402729037043 89.91111111114151,87.75107027099875 91.53015873016557,87.63132250440685 92.88253968255594,87.69868064879847 100.48253968259087,89.13563866586628 101.16825396829518,89.34519253264443 106.17142857145518,91.66521049804578 109.83492063498124,92.38365179109678" stroke="#4DD2FF" stroke-linecap="round" stroke-linejoin="round" stroke-width="0.5"><title>2025-09-23 6.7km</title><desc>1758623965000</desc></polyline><polyline fill="none" points="136.79999999998836,92.53187544148386 132.40383544695214,91.67350453385734 127.40637179088662,89.37396528589306 126.29062789981253,89.01957773389586 118.30671203217935,87.46812733742263 117.05734611814842,87.4287499906277 115.20000000001164,87.55475742492854 118.09291679554735,87.46812733742263 126.06347046088194,88.9880765341295 127.28611197031569,89.32671371264587 132.4973708629841,91.7207545735946 136.79999999998836,92.5712500093723" stroke="#4DD2FF" stroke-linecap="round" stroke-linejoin="round" stroke-width="0.5"><title>2025-09-22 6.4km</title><desc>1758538508000</desc></polyline><polyline fill="none" points="161.8855305466277,99.55903961576041 158.1234726688126,98.8154404095003 153.69003215435077,96.80290287188836 152.83922829583753,96.52318914708667 145.9922829582356,95.18600383799276 144.66109324761783,95.12460178624315 143.32411575564765,95.24058338901159 142.7627009646385,95.13824669183305 142.21864951771568,94.851703050168 141.81350482316338,94.47646534659725 141.20000000001164,93.0573642489253 141.30418006432592,92.88679704850074 143.80450160772307,90.887714831817 145.4077170418168,89.13420110122752 147.14983922831016,87.59216012284742 149.24501607721322,86.23431383651769 150.04372990355478,86.12513898677571 150.3504823151452,85.88631833927866 150.9987138263823,85.10843905730144 151.55434083603905,83.86654157517114 152.16205787783838,83.306997296786 154.7665594855498,81.86717134472929 158.0540192926419,80.44096038424323 158.0598070739652,80.87087428634914 158.51704180066008,81.21889766360982 158.95691318329773,81.9968252753606 159.176848874602,82.63144327237023 160.61800643085735,85.42232133416474 160.6527331189718,85.64749678080625 161.48038585210452,87.01900246784498 162.80000000001746,89.97343753456516" stroke="#4DD2FF" stroke-linecap="round" stroke-linejoin="round" stroke-width="0.5"><title>2025-09-21 9.0km</title><desc>1758451095000</desc></polyline><polyline fill="none" points="187.5551401869452,98.04840706669347 187.27476635514176,99.23812016781085 187.17383177572628,99.2645579718519 183.4953271028062,98.54412369297643 179.13271028039162,96.54140365801868 178.4093457943818,96.323281643472 171.77570093458053,95.03436282600524 168.84299065420055,95.03436282600524 168.321495327109,94.81623539454085 167.80560747665004,94.36014823146616 167.5252336448466,93.91727770573561 167.20000000001164,92.972035772058 167.65420560745406,92.48949400289712 169.76261682240875,90.83031425383888 171.45607476634905,89.00582517937073 172.85794392522075,87.78285794669137 175.07850467288517,86.32848644193655 175.73457943924586,86.26237781776581 176.02056074765278,86.07066240025961 176.6934579439112,85.27073980955902 177.226168224297,84.06753059136099 177.83738317756797,83.51880637514114 180.48411214954103,82.06433262694918 183.5177570093656,80.73544202814446 183.52897196263075,81.19824305366274 183.9775700934697,81.49575613372144 184.25233644861146,82.01144201523857 185.05420560747734,83.79647467126779 186.89906542058452,87.28705339639782 188.44112149532884,90.79726240350647 188.73831775703002,91.94745620634421 188.80000000001746,92.70762979846768 188.68785046730773,93.8710074643277 188.37383177570882,94.98809343637186" stroke="#4DD2FF" stroke-linecap="round" stroke-linejoin="round" stroke-width="0.5"><title>2025-09-18 10.1km</title><desc>1758194958000</desc></polyline><polyline fill="none" points="24.884423563460587,115.21461482347513 24.82197325627203,115.38943669026776 25.298156848584767,115.52745369799231 32.80000000001746,116.99042012012796 18.951644380227663,114.23928619162325 13.09692808095133,111.51566737395478 11.200000000011642,111.00957987987931 13.057896638987586,111.5432720591707 19.045319841010496,114.27609125006711 23.61199855443556,115.19621250066848" stroke="#4DD2FF" stroke-linecap="round" stroke-linejoin="round" stroke-width="0.5"><title>2025-09-16 5.4km</title><desc>1758020593000</desc></polyline><polyline fill="none" points="58.7934065934096,116.50252732780064 54.4021978022065,115.62433699439134 49.3582417582511,113.30057769726409 48.342857142852154,113.01301693747519 40.31868131869123,111.47415858288878 37.20000000001164,111.5363353214052 37.608791208826005,111.60628408745106 39.30329670329229,111.46638648675435 40.46373626374407,111.50524695890635 48.5868131868192,113.06742041334655 49.44395604394958,113.36275284430303 54.45494505495299,115.66319520225079 58.80000000001746,116.53361351324565" stroke="#4DD2FF" stroke-linecap="round" stroke-linejoin="round" stroke-width="0.5"><title>2025-09-15 6.5km</title><desc>1757932870000</desc></polyline><polyline fill="none" points="84.80000000001746,123.75549773908278 80.81500559911365,122.95720798324328 76.10436730121728,120.79750028606941 75.48756998879253,120.60504762693017 67.93482642775052,119.13668648446037 66.79193729002145,119.10817429152667 65.4555431130866,119.2293510256859 64.86898096304503,119.14381453076203 64.22799552071956,118.80879551573162 63.877267637173645,118.47377478556155 63.53258678613929,117.90352278976206 63.242329227301525,117.1621877657526 63.20000000001164,116.94121127796097 63.30279955206788,116.79864540592098 65.86069428888732,114.7028912415044 67.56595744681545,112.8494472700113 69.35587905935245,111.26684970546194 71.65979843225796,109.79114991565439 72.40963045912213,109.69847200630466 72.74221724522067,109.4632121082177 73.37110862263944,108.76455651449214 73.97581187009928,107.39574025033653 74.60470324745984,106.78261534320336 77.4709966405353,105.21413012099947 79.5995520716533,104.24450226090994" stroke="#4DD2FF" stroke-linecap="round" stroke-linejoin="round" stroke-width="0.5"><title>2025-09-13 7.0km</title><desc>1757768754000</desc></polyline><polyline fill="none" points="110.80000000001746,116.63155517823907 106.02504075644538,115.69352025850822 100.77117704597185,113.26951815970824 99.91196609064355,112.98726632935723 91.2846429736237,111.31033684356953 89.20000000001164,111.31863856557902 91.3973263775988,111.37675059420872 99.6584284317214,112.97066324797925 100.66553635479067,113.26951815970824 106.06729703294695,115.74332771258196 110.77182914901641,116.6896631564232" stroke="#4DD2FF" stroke-linecap="round" stroke-linejoin="round" stroke-width="0.5"><title>2025-09-11 6.0km</title><desc>1757587445000</desc></polyline><polyline fill="none" points="134.73634059808683,123.0503144438917 131.06335529653006,122.32768589600164 126.99077546884655,120.43719630732085 126.05473897623597,120.15974736630233 119.57364419670193,118.90798482506216 118.44602128741099,118.86927009797 117.17607704005786,118.97250931397139 116.54657881401363,118.85636518333558 115.76928535228944,118.24983102347687 115.44632539284066,117.67555359511971 115.20000000001164,116.86897477195816 117.61398884950904,114.86215900030948 118.3529650279088,114.15878947034435 119.2178408515465,113.13921146806751 120.8107450583193,111.73887636178551 121.98763304614113,111.04837635498188 122.78134820074774,110.46112235001783 123.48748099344084,110.34496152723295 123.80496705527185,110.15781305570272 124.43446528134518,109.43502719841854 124.97090724788723,108.2088524398605 125.57303598581348,107.67965338396971 128.0472377091064,106.30500446718361 131.1235681703256,104.94968555610467 131.11809427270782,105.4079158977438 131.57242777498323,105.68543395766392 131.88443993919645,106.25337383902661 132.4920425747987,107.67319970775861 134.9224531170912,112.37774302910475 135.05382665991783,112.82946277590963 135.2180435884511,113.01014970987671 135.93512417637976,114.7653655239701 136.11576279779547,115.46227502301554 136.3785098834196,115.53325608592422 136.45514445009758,116.79799530973833 136.17050177397323,118.68214856037594 136.3839837810665,118.8370078060725 136.7890522047819,118.9144372771043 136.80000000001746,119.03058129391502" stroke="#4DD2FF" stroke-linecap="round" stroke-linejoin="round" stroke-width="0.5"><title>2025-09-09 10.0km</title><desc>1757415422000</desc></polyline><polyline fill="none" points="162.77024793392047,116.8406334697138 157.63801652894472,115.7973444406307 152.18595041317167,113.26358622180123 151.189256198355,112.94795677466027 142.10743801650824,111.17690192166629 141.20000000001164,111.1593665302862 144.06363636360038,111.55391191240778 151.34545454542967,113.00932926408859 157.89834710743162,115.89378348943865 162.79999999998836,116.8406334697138" stroke="#4DD2FF" stroke-linecap="round" stroke-linejoin="round" stroke-width="0.5"><title>2025-09-08 5.7km</title><desc>1757333196000</desc></polyline><polyline fill="none" points="188.80000000001746,116.79019250415149 183.95479452057043,115.87468786455429 178.30328767123865,113.26762206282729 177.482191780844,112.98859995778184 168.59068493152154,111.253409413388 167.20000000001164,111.15749326118384 168.25041095892084,111.22725047417771 177.26767123292666,112.97116104392626 178.39205479453085,113.33737743712845 183.89561643835623,115.88340700572735 188.7334246575483,116.84250673880888" stroke="#4DD2FF" stroke-linecap="round" stroke-linejoin="round" stroke-width="0.5"><title>2025-09-04 5.8km</title><desc>1756983645000</desc></polyline><polyline fill="none" points="32.80000000001746,140.5169794269823 28.548798076924868,139.66781105441623 23.466826923104236,137.34975864609441 20.714903846179368,136.7071167125032 14.71778846156667,135.56717786552326 13.491105769237038,135.54422588666785 12.004807692341274,135.6666363539407 11.200000000011642,135.48302057301044 11.569951923098415,135.65133505719132 12.082692307711113,135.7201908662828 13.491105769237038,135.58247918060079 14.795673076965613,135.62073245370266 22.934615384641802,137.20439967566926 23.80432692312752,137.5180686571548 28.56177884619683,139.72136251629126 31.229326923086774,140.2033238362128" stroke="#4DD2FF" stroke-linecap="round" stroke-linejoin="round" stroke-width="0.5"><title>2025-09-02 6.2km</title><desc>1756809719000</desc></polyline><polyline fill="none" points="58.79999999998836,140.79810107860249 53.92523364484077,139.84633443273924 47.338317757006735,136.92927618528483 38.41869158879854,135.20190511226247 37.20000000001164,135.11377294633712 38.37383177570882,135.2195315339559 46.88224299065769,136.86758499624557 48.03364485982456,137.21129245055636 54.044859813089715,139.96089952903276 58.79252336447826,140.88622705366288" stroke="#4DD2FF" stroke-linecap="round" stroke-linejoin="round" stroke-width="0.5"><title>2025-08-29 5.7km</title><desc>1756465472000</desc></polyline><polyline fill="none" points="84.80000000001746,140.69108327425056 80.12011853806325,139.76893212165305 74.59387553512352,137.2371512494792 73.73328943038359,136.97726174526906 65.05630556473625,135.29215044338343 63.20000000001164,135.29215044338343 65.14876522889244,135.36760397723992 73.9679947316763,137.06948070205544 80.01343431021087,139.77731536370266 84.68620349033154,140.70784955661657" stroke="#4DD2FF" stroke-linecap="round" stroke-linejoin="round" stroke-width="0.5"><title>2025-08-27 6.0km</title><desc>1756291993000</desc></polyline><polyline fill="none" points="109.82437728330842,140.7016389829805 106.18731318498612,140.03364897720166 104.60909996679402,139.62777882525552 99.63055463301134,137.29398427699925 98.60471604115446,136.9642033035343 90.51278644966078,135.3829263534426 89.20000000001164,135.2391723063265 91.35928263035021,135.55204842100648 98.5903686482634,136.97265924344538 99.47273331118049,137.25170474329207 104.20019926934037,139.5009439676578 105.383859182999,139.91527040204528 109.81720358683378,140.7608276936735 109.9893723015557,140.10129379624414 110.79999999998836,140.23658325758151 110.39827299900935,140.1435717782515 110.42696778476238,139.94063725476735" stroke="#4DD2FF" stroke-linecap="round" stroke-linejoin="round" stroke-width="0.5"><title>2025-08-26 6.0km</title><desc>1756205162000</desc></polyline><polyline fill="none" points="136.80000000001746,142.03366518364055 132.67795473599108,141.2227087659994 128.1937971500738,139.15970407468558 127.26437552392599,138.868032636914 119.85314333613496,137.43811235302564 117.37870913665392,137.5448239029356 116.72087175189517,137.39542768424144 116.08717518861522,137.01126440985536 115.76127409894252,136.61998467792728 115.22414082149044,135.28250171059335 115.61642917015706,134.84852528753981 116.71483654654003,133.96633481635217 115.41123218776193,135.00504170701606 115.20000000001164,135.296730396949 115.54400670583709,136.28561650399206 115.82766135793645,136.7551543048976 116.8234702431073,137.459454676944 117.44509639567696,137.5875084740619 118.79698239735444,137.466568783384 119.91349538977374,137.48791109801095 127.3790444258484,138.92494423925382 128.19983235542895,139.2023875904706 132.6055322716129,141.2227087659994" stroke="#4DD2FF" stroke-linecap="round" stroke-linejoin="round" stroke-width="0.5"><title>2025-08-23 7.3km</title><desc>1755948655000</desc></polyline><polyline fill="none" points="162.80000000001746,139.86660195981676 162.4732350659906,140.9924404991616 156.95174553923425,139.90610530306003 150.19022498067352,136.8247928511555 143.61303335923003,135.40261332724913 141.20000000001164,135.00755950083112 149.76291698994464,136.7359072844265 156.70876648570993,139.86660195981676 161.22482544611557,140.78505023948674" stroke="#4DD2FF" stroke-linecap="round" stroke-linejoin="round" stroke-width="0.5"><title>2025-08-19 5.0km</title><desc>1755607675000</desc></polyline><polyline fill="none" points="188.17765697199502,143.62319830062916 184.2557216635032,142.84812591182708 179.7055721663346,140.74431034366717 178.93645012233173,140.52285202134226 171.7560206577764,139.1456407539372 169.072900244646,139.2217687893717 168.18635498775984,138.80652385158464 167.5757542810461,138.06599697712954 167.23522696385044,136.95865096800117 169.77743952162564,134.88924637516902 172.1728730633331,132.37680169937084 171.46833378632437,133.00665253549232 169.84789344930323,134.76466468319995 167.20000000001164,136.96557194050547 167.32916553411633,137.49156364409282 167.82234302800498,138.45356352069211 168.2391954335617,138.8411277000705 168.96134819247527,139.19408587795624 169.36058711606893,139.25637241168442 170.746181027469,139.1317992831464 171.90279967384413,139.1456407539372 174.81489535202854,139.69929711287114 175.06735525958356,139.6093282828515 176.2239739059587,139.82386912876973 176.57037238380872,139.97612348318216 178.325849415618,140.2391074178522 179.45898341940483,140.60589898267062 180.04609948355937,140.5920578299847 180.03435716227978,140.75123090381385 180.41011144334334,140.73738978277106 180.12829573254567,140.92424466224475 180.55689045938198,141.18722467280168 183.99739059529384,142.73740051314235 184.65496058712597,142.9242495115177 184.8604512095626,142.82736491427204 185.98184289206984,142.91040886379778 185.98184289206984,143.17338065471267 187.88409893994685,143.55399579311052 188.21875509648817,143.5885970562813 188.31269366675406,143.11109796047822 188.62973634139053,143.05573551435373 188.80000000001746,142.4813472897149" stroke="#4DD2FF" stroke-linecap="round" stroke-linejoin="round" stroke-width="0.5"><title>2025-08-16 10.0km</title><desc>1755297330000</desc></polyline><polyline fill="none" points="24.199014778307173,161.24753434462036 23.80886699509574,163.23331854348362 32.79999999998836,164.99958680506097 17.88571428571595,162.0418529547751 11.200000000011642,159.00041319493903 17.68177339900285,162.03140143680503 23.312315270944964,163.16015880200575" stroke="#4DD2FF" stroke-linecap="round" stroke-linejoin="round" stroke-width="0.5"><title>2025-08-13 5.0km</title><desc>1755095249000</desc></polyline><polyline fill="none" points="58.67905935054296,166.02019168320112 54.71825307953986,165.22902860980685 50.21321388578508,163.15485298719432 49.37267637180048,162.88399358588504 41.97110862264526,161.45839931203955 39.34669652860612,161.54393584423815 38.7661814110179,161.42275905729184 38.16752519598231,161.06635544217716 37.85307950730203,160.75271865519608 37.562821948493365,160.26800430037838 37.21814109742991,159.29856481918978 37.967973124352284,158.55721905414975 38.83874580069096,157.89427774654905 38.17961926094722,158.35762452844938 37.20000000001164,159.30569310308056 37.84098544236622,160.7598467807038 38.342889137769816,161.2303013462224 38.76013437853544,161.44414321246586 39.34669652860612,161.5724479967903 41.40268756999285,161.45127126263105 42.146472564403666,161.50116759210505 49.71735722286394,163.01942342666007 54.60335946251871,165.22902860980685 58.80000000001746,166.10572225345095" stroke="#4DD2FF" stroke-linecap="round" stroke-linejoin="round" stroke-width="0.5"><title>2025-08-12 8.1km</title><desc>1754996616000</desc></polyline><polyline fill="none" points="84.80000000001746,164.50519530386373 80.444686648465,163.63418363803794 75.52697547682328,161.36796146939741 74.71607629428036,161.09816828244948 70.09264305178658,160.1269042935819 66.60708446867648,159.525638953819 65.37765667575877,159.49480469613627 63.821253406000324,159.6258501985285 63.20000000001164,159.5179303906698 63.76893732973258,159.6258501985285 65.31226158040226,159.51022182664747 66.62016348776524,159.53334751616057 74.64414168935036,161.10587667349319 75.57929155312013,161.4373366940854 80.24196185285109,163.58793493131816 84.42724795639515,164.45123914040596" stroke="#4DD2FF" stroke-linecap="round" stroke-linejoin="round" stroke-width="0.5"><title>2025-08-10 6.4km</title><desc>1754781124000</desc></polyline><polyline fill="none" points="108.65803187454003,171.03750738702365 105.06258537821122,170.3161586319111 100.98628889449174,168.43545800479478 100.21037186947069,168.17782312410782 93.49486465976224,166.86386777273583 92.89380217556027,166.82522158513893 91.0141158613842,166.93471905110346 90.60430053123855,166.83810365048703 90.03055906906957,166.50961010754327 89.63167214771966,166.05873364591753 89.25464204401942,165.17629405068146 89.20000000001164,164.84135002636322 91.58785732355318,162.88317775850373 93.2380470528733,161.10530729045058 94.79534530738601,159.74610213850974 96.75699468760286,158.4641691164652 96.97556286366307,158.36109791726267 97.52744750824058,158.341772047399 97.74055147991749,158.20004880871056 98.34161396409036,157.5365218534207 98.95906906147138,156.20944559690906 99.51641791046131,155.68118365039845 102.01355932204751,154.33473855480042 105.10083480901085,152.96249261297635 105.10083480901085,153.4327964541444 105.64725524917594,153.78713249244902 105.81118138122838,153.99329066438804 105.89860865168157,154.32829616001982 107.8274728054821,157.7619930135079 108.6197824437113,159.50131305557443 109.11702504428104,160.19058498719096 109.12248924869346,160.39027909205834 109.34652162916609,160.7316900314072 109.75087275489932,161.91050887255915 110.06233240576694,162.46448119306297 110.3246142170392,163.6110585758106 110.41204148749239,164.77049623961648 110.16615228939918,166.43231724398356 110.2317227422318,166.52893330763254 110.79999999998836,166.70284182440082 110.73442954718485,167.21812331564797" stroke="#4DD2FF" stroke-linecap="round" stroke-linejoin="round" stroke-width="0.5"><title>2025-08-08 10.0km</title><desc>1754654808000</desc></polyline><polyline fill="none" points="136.80000000001746,165.02405471847305 131.03715415022452,163.8466667746834 124.42909090910689,160.79746415981208 117.60758893282036,159.32817548953608 115.20000000001164,158.97594528153422 124.27541501977248,160.79746415981208 131.207905138348,163.9472988091875 136.65486166009214,164.99386547139875" stroke="#4DD2FF" stroke-linecap="round" stroke-linejoin="round" stroke-width="0.5"><title>2025-08-07 5.0km</title><desc>1754573743000</desc></polyline><polyline fill="none" points="162.80000000001746,165.03482033329783 157.089850511431,163.89303733305132 150.5639653816179,160.89829351959634 149.73123524783296,160.6478924617768 141.20000000001164,158.96517966670945 143.46876475214958,159.44595789298182 143.6557041699707,159.3658283631521 144.15704169948003,159.576168230029 150.09661683713784,160.78811713816685 157.1663257277978,163.9731629183516 162.41762391818338,165.02480475455377" stroke="#4DD2FF" stroke-linecap="round" stroke-linejoin="round" stroke-width="0.5"><title>2025-08-04 5.0km</title><desc>1754309955000</desc></polyline><polyline fill="none" points="188.80000000001746,164.51361564642866 184.48262056417298,163.64874102436443 179.50354868063005,161.36295016977238 178.75668789810152,161.115833231117 170.8556869882159,159.5558876769428 169.4667879891349,159.48638435357861 167.77652411288,159.61766835161689 167.20000000001164,159.49410694841936 167.32447679713368,159.58677802101738 168.11719745225855,159.64083609075897 170.40363967246958,159.51727472792845 173.5417652411852,160.13507938863768 174.04622383989044,160.14280191283615 174.9175614195119,160.4053672348964 178.67151956327143,161.1235556485044 179.71319381255307,161.49423069309705 184.40400363970548,163.64101888203004 188.35450409466284,164.43639512691152" stroke="#4DD2FF" stroke-linecap="round" stroke-linejoin="round" stroke-width="0.5"><title>2025-08-03 6.5km</title><desc>1754227262000</desc></polyline><polyline fill="none" points="30.298135660443222,188.52988705886673 24.566124553763075,187.3886921075973 17.343276477593463,184.1771123592407 11.200000000011642,182.92476810025255 17.874494248331757,184.31850500328437 24.788893296325114,187.47958425558318 32.80000000001746,189.07523189974745 30.478064260212705,188.5500850731114 30.478064260212705,188.39859985899238" stroke="#4DD2FF" stroke-linecap="round" stroke-linejoin="round" stroke-width="0.5"><title>2025-08-01 5.0km</title><desc>1754057984000</desc></polyline><polyline fill="none" points="56.73348519363208,195.0162999546592 53.048747152643045,194.28814205905292 48.9922551253112,192.41937724771196 48.12300683371723,192.14227950954955 41.56264236904099,190.87276862803992 40.365375854220474,190.83410289452877 39.173576309811324,190.937211461056 38.60501138953259,190.83410289452877 38.13485193622182,190.56988637257746 37.79043280181941,190.24122514968622 37.39681093394756,189.49367517665814 37.20000000001164,188.84278345534403 39.61093394079944,186.8449522582123 41.28382687928388,185.05973632922542 42.814578587713186,183.7191777552871 43.96810933944653,183.055332212778 44.870159453334054,182.39147921887343 45.50979498864035,182.3270270750363 45.73940774489893,182.18523211134743 46.43917995446827,181.37957245507278 46.98587699318887,180.16783966410003 47.521640091144945,179.68442869662977 50.080182232370134,178.27929171338837 53.07608200455434,176.98370004533717 53.12528473805287,177.40267558108462 53.56264236904099,177.70562527287257 54.01640091117588,178.51778061822552 54.295216400932986,179.29769707735613 54.98405466970871,180.72214604322653 56.77722095674835,184.08010036033738 57.01776765377144,184.8019389631554 57.72847380413441,186.29070326044166 58.20956719818059,187.94699006919473 58.24236902053235,188.97811796731185 58.17676537585794,189.35189739197813 58.346241457853466,189.4743418623948 58.18769931662246,190.4474441696184 58.80000000001746,190.67943970779743 58.778132118459325,190.99520995076819" stroke="#4DD2FF" stroke-linecap="round" stroke-linejoin="round" stroke-width="0.5"><title>2025-07-28 10.0km</title><desc>1753704756000</desc></polyline><polyline fill="none" points="82.67911468812963,188.64850022056635 76.94229376257863,187.50101867973717 70.37102615693584,184.48881304280803 69.30189134809189,184.13021070905234 63.20000000001164,182.9109525488093 69.97118712271913,184.3658638252382 75.62977867203881,187.02972756374947 77.09875251509948,187.5829821110965 84.80000000001746,189.0890474511907 82.76603621730465,188.6280096015107 82.87034205230884,187.96206205222552" stroke="#4DD2FF" stroke-linecap="round" stroke-linejoin="round" stroke-width="0.5"><title>2025-07-22 5.0km</title><desc>1753194638000</desc></polyline><polyline fill="none" points="101.48612099644379,187.1401546342022 108.64128113878542,188.55959383404843 110.79999999998836,188.68794594610517 108.91672597863362,188.58224422403146 97.123843416397,186.27186633085512 91.98007117438829,183.93875954568648 89.20000000001164,183.3120540539021 91.94804270466557,183.95386081294419 96.77153024912695,186.18126170744654 98.7572953736817,186.6040822703726" stroke="#4DD2FF" stroke-linecap="round" stroke-linejoin="round" stroke-width="0.5"><title>2025-07-19 6.4km</title><desc>1752877000000</desc></polyline><polyline fill="none" points="134.82187738490757,195.0751299532094 131.14586619182955,194.34326736212824 126.96982955993735,192.43261018522753 126.25550750448019,192.20591797190355 119.46944797763717,190.89756316830972 117.11767997968127,190.97528802030865 116.60666497074999,190.87813193944385 116.12861867211177,190.59961696116443 115.66156194356154,190.10735473936438 115.25494785045157,189.19406798113778 115.20000000001164,188.86372676291649 117.60122106334893,186.87516339694048 119.18921394049539,185.15211985727365 120.75522767746588,183.7853091993129 122.66741287207697,182.5091590315169 123.00259475962957,182.3472090816722 123.51360976856085,182.32129704875115 123.87626558128977,182.09456627885083 124.46970236583729,181.38845634044628 125.00269651491544,180.17703718100165 125.56865937425755,179.65229715399255 128.3490206054703,178.1363554955169 131.1898244722106,176.92487004679424 131.19531925721094,177.39132726105163 131.63490206058486,177.68286116075615 131.92612566778553,178.22057549097008 132.5250572373625,179.5939924205668 134.37130501147476,183.0662634894361 134.85484609517152,184.22580137409022 134.98672093616915,184.34887948657342 135.8164334775065,186.47355620815142 136.00325616894406,186.73913545940377 136.29997456120327,187.84678247145348 136.3549224116432,188.57872502147075 136.26700585096842,189.69281497062912 135.99776138391462,190.7356360670201 136.80000000001746,190.91699439083095" stroke="#4DD2FF" stroke-linecap="round" stroke-linejoin="round" stroke-width="0.5"><title>2025-07-17 10.0km</title><desc>1752756134000</desc></polyline><polyline fill="none" points="162.80000000001746,189.04800965903996 157.0735677597695,187.901264471162 149.81098380088224,184.67219495613244 141.20000000001164,182.95199034095276 150.19502173058572,184.8331481348141 156.9114184117352,187.8912052398373 162.53544053732185,189.03795055260707" stroke="#4DD2FF" stroke-linecap="round" stroke-linejoin="round" stroke-width="0.5"><title>2025-07-14 5.0km</title><desc>1752500928000</desc></polyline><polyline fill="none" points="188.80000000001746,189.02579080695432 183.074902267399,187.90110282981186 177.15559030493023,185.15401913993992 175.7538702111342,184.64639681034168 167.20000000001164,182.9742091930384 176.31118060986046,184.79569778821315 183.17623143081437,187.9409150298743 188.19202501958353,188.94616733459407" stroke="#4DD2FF" stroke-linecap="round" stroke-linejoin="round" stroke-width="0.5"><title>2025-06-21 5.0km</title><desc>1750468889000</desc></polyline><polyline fill="none" points="25.97842552216025,211.32652039654204 31.595317879284266,212.44843585718627 32.80000000001746,212.512711553376 31.76387422537664,212.44843585718627 22.582510901993373,210.6545285494758 21.595960523292888,210.26885986236448 18.64622446638532,208.8664049041945 18.125682809273712,208.6969391143175 12.107229745248333,207.52819495340736 11.200000000011642,207.487288446624 12.003121413843473,207.50481981051053 14.348037640564144,207.93725830582844 18.566903832921525,208.84887398521823 21.705026394309243,210.333138169397 22.508147808141075,210.64284166029756 23.38067477621371,210.8181447307834" stroke="#4DD2FF" stroke-linecap="round" stroke-linejoin="round" stroke-width="0.5"><title>2025-06-17 8.1km</title><desc>1750165544000</desc></polyline><polyline fill="none" points="58.80000000001746,213.01272125003015 53.35406032484025,211.9297464837873 46.2542923433939,208.75950941166957 37.20000000001164,206.98727874996985 46.27099767985055,208.79889192064002 53.237122969847405,211.9199011991368 57.83109048724873,212.85519845389354" stroke="#4DD2FF" stroke-linecap="round" stroke-linejoin="round" stroke-width="0.5"><title>2025-06-15 5.0km</title><desc>1749939796000</desc></polyline><polyline fill="none" points="78.12555862948648,211.2381025305258 83.22332411148818,212.25669126443972 84.79999999998836,212.35421462386876 83.5588848691259,212.2783631386119 75.02736752500641,210.62043750358134 74.19536071503535,210.30618393271288 71.4143434773141,208.98412992807425 70.79378591189743,208.77823310975873 65.18578420943231,207.69455159916106 64.50546924880473,207.64578537613124 63.20000000001164,207.74873623537133 65.05247925090953,207.6837146648504 70.5547563311411,208.74572300792715 71.22128112363862,208.9299466374432 72.81174718026887,209.68308908626568" stroke="#4DD2FF" stroke-linecap="round" stroke-linejoin="round" stroke-width="0.5"><title>2025-06-11 8.1km</title><desc>1749642919000</desc></polyline><polyline fill="none" points="110.80000000001746,213.00608965243737 105.18852268322371,211.92017544324335 98.13648701045895,208.7709506707979 89.20000000001164,206.9939103475699 98.23699108182336,208.81044006006414 105.2471500581305,211.96953546222358 109.87033734007855,212.89749881689204" stroke="#4DD2FF" stroke-linecap="round" stroke-linejoin="round" stroke-width="0.5"><title>2025-06-08 5.0km</title><desc>1749387304000</desc></polyline><polyline fill="none" points="123.56811188790016,215.80507788300747 125.89426573412493,214.4161593648605 130.78825174819212,213.52582387713483 133.26545454538427,211.67391829402186 135.95412587397732,211.74514562575496 136.67916083906312,211.13971281045815 131.90601398586296,203.37582789201406 128.67356643348467,204.01688959554303 125.59216783207376,205.83322426024824 123.87020979018416,205.83322426024824 121.12111888104118,207.11533676987165 116.61986013967544,208.0413037876715 116.77090909087565,210.96164412194048 115.19999999995343,212.92039436011692 116.52923076902516,214.38054599188035 117.10321678326,216.1968230647617 117.94909090909641,216.73102028301219 123.20559440541547,215.62701173621463 125.98489510489162,214.38054599188035 130.03300699288957,213.84634493212798 133.41650349646807,211.67391829402186 135.80307692289352,211.7807592859317 136.7697902097134,210.96164412194048 131.90601398586296,203.268984152528 128.31104895088356,204.0525040977227 125.65258741239086,205.7976099521038 123.23580419563223,206.04691002782783 120.27524475508835,207.36463584043668 116.71048951032571,207.97007564865635 116.80111888097599,211.13971281045815 115.19999999995343,212.92039436011692 116.61986013967544,214.45177273399895 117.34489510476124,216.30366257813876 118.37202797201462,216.80224651284516 126.64951048931107,214.27370584977325 130.12363636342343,213.88195836322848 133.11440559430048,211.85198659449816 135.8937062935438,211.81637294217944 136.79999999993015,210.9260303725314 131.57370629359502,203.16214037805912 128.0089510488324,204.26619102951372 125.53174825175665,205.7976099521038 116.86153846140951,207.7920052332629 116.83132867130917,210.96164412194048 115.23020979005378,212.84916728449753 116.5896503495751,214.38054599188035 117.10321678326,216.08998351631453 118.64391608373262,216.83785962194088 130.84867132850923,213.13407549422118 132.35916083899792,211.10409908054862 131.90601398586296,209.0741100589512 129.91216783213895,206.5811238354363 128.2204195803497,205.72638132420252 126.7703496501781,205.65515268064337 125.10881118872203,206.3318241672241 122.42013986012898,209.57270502179745 118.13034965039697,210.2849822207354 115.56251748243812,212.31496372175752 115.47188811178785,213.1696890029125 116.92195804184303,214.91474617866334" stroke="#4DD2FF" stroke-linecap="round" stroke-linejoin="round" stroke-width="0.5"><title>2025-06-04 6.4km</title><desc>1749041988000</desc></polyline><polyline fill="none" points="162.80000000001746,213.02583408370265 157.2639007367252,211.92017610020412 150.95727025982342,209.00788740523421 150.00248158205068,208.69197249761783 141.20000000001164,206.97416591629735 150.25374176041805,208.7906960245091 157.13827064755606,211.90043208508723 161.73633191161207,212.84813996011508" stroke="#4DD2FF" stroke-linecap="round" stroke-linejoin="round" stroke-width="0.5"><title>2025-05-28 5.0km</title><desc>1748436903000</desc></polyline><polyline fill="none" points="188.79999999998836,213.01637612426566 182.8018987341784,211.78770070353494 175.85537974681938,208.64544012295664 167.20000000001164,206.97355283317302 175.57341772151995,208.5850109884268 176.61582278483547,208.91737073962577 183.3060126582568,211.97905286680907 188.69746835445403,213.0264471668197" stroke="#4DD2FF" stroke-linecap="round" stroke-linejoin="round" stroke-width="0.5"><title>2025-05-27 5.0km</title><desc>1748351986000</desc></polyline><polyline fill="none" points="27.19581204431597,238.45578841456154 27.224677666730713,237.1626589143707 27.903019794728607,235.6270492523763 28.350436943001114,232.7780363625352 28.321571320469957,233.04071418463718 27.67209481500322,233.1215380124122 24.511309154739138,235.36437717988156 23.31338582234457,235.64725477226602 22.837103051599115,234.8592369375765 23.385549878468737,233.97018486620073 24.395846664905548,233.1821558469601 24.237085741304327,231.82835013359727 24.713368512049783,230.95948157824023 24.078324817761313,230.5957672625882 21.75464220903814,230.63618001966825 21.148464137222618,229.7470961722065 21.350523494533263,228.6963520907011 21.797940642747562,228.83779895362386 21.75464220903814,228.1507697474808 22.418551525857765,228.55490505843773 23.630907669488806,228.5144915895362 24.597906022157986,229.16110543303512 25.91129184444435,229.20151868082758 26.445305860135704,228.93883232351072 27.758691682422068,227.1000114697017 27.81642292730976,224.0285106150841 27.340140156564303,223.48290671690484 26.589633972442243,223.20000000000437 25.665934053482488,223.46269911674608 24.843263813119847,224.3720377028294 24.20822011877317,224.59431940383365 22.90926710778149,224.35183025470178 21.538150040549226,223.60415224537428 20.28249546320876,224.0285106150841 19.647451768862084,224.9984668797042 19.67631739139324,226.0290366859117 20.224764218262862,226.79690638375905 21.465985984366853,227.38290884834714 21.75464220903814,228.09014933164144 21.191762570932042,229.40358471209038 21.595881285495125,230.61597364289628 21.696910964150447,232.293091156811 21.162896948400885,234.11162541596423 21.58144847425865,234.6167688542264 22.808237429184373,234.91985388064495 23.284520199813414,235.64725477226602 22.18762654607417,237.4253269894034 20.830942290020175,237.97086651033896 18.564990926359314,239.62767480068578 16.91965044569224,240.3348419972026 16.544397353602108,241.3046644135029 15.620697434584145,242.314887633358 16.414502052532043,244.5777563064912 17.136142614181153,244.73938812506094 18.08870815561386,244.15347173099872 19.200034620647784,244.61816428192105 20.00827204977395,244.51714431757864 20.64331574406242,243.85041038726922 21.1051657035714,242.17345690245565 22.202059357310645,241.56732328148792 24.713368512049783,242.35529638252774 25.665934053482488,241.8905949329128 27.15251361054834,241.8097771030225 27.239110477967188,237.32430087586545 28.379302565474063,233.32359733997146 28.206108830636367,233.04071418463718 27.773124493600335,233.08112610545504 24.525741965975612,235.38458274463483 23.356684256053995,235.6270492523763 22.072164056182373,237.48594261614198 20.70104698895011,238.03148185720784 18.55055811512284,239.62767480068578 17.00624731311109,240.23381837109628 16.544397353602108,241.36527805028163 15.620697434584145,242.39570511781494 16.342337996291462,244.47673630766803 16.81862076703692,244.8000000000029 18.00211128819501,244.15347173099872 19.358795544190798,244.63836826438637 20.268062651972286,244.274696050903" stroke="#4DD2FF" stroke-linecap="round" stroke-linejoin="round" stroke-width="0.5"><title>2025-05-23 6.4km</title><desc>1747958832000</desc></polyline><polyline fill="none" points="49.96246414014604,235.00872796052136 50.54702792642638,235.56406884160242 52.00843739253469,235.79789604120015 52.739142125472426,236.73320164064353 52.551246622693725,240.41591768682702 52.196332895196974,241.08815094071906 50.9228189321002,241.46810769736476 49.67018224694766,241.02969598017808 48.50105467403773,241.29274314538634 46.517713255947456,240.1236415344465 45.32770840509329,240.59128313840483 44.450862725498155,240.44514527462889 44.70139006245881,239.59754320059437 44.07507171994075,237.96078247261175 44.26296722271945,236.7916580706369 43.59489432396367,235.68098248133902 43.88717621716205,233.92726948737982 48.10438639041968,233.7518971982936 49.54491857835092,234.27801352569077 50.29650058946572,235.47638355921663 51.904051001998596,235.7686676587182 52.61387845687568,236.44091919057246 52.551246622693725,240.50360043509863 52.238087451434694,241.08815094071906 51.00632804434281,241.43888028456422 49.81632319348864,241.05892346295877 48.45930011791643,241.2635157025943 46.47595869982615,240.1528691721469 43.94980805146042,240.67896579670196 42.59278497577179,241.789608908628 43.03120781562757,242.11110951520095 43.36524426494725,243.86473854215 45.4112175173359,244.8000000000029 46.28806319704745,244.1862352454482 46.872626983444206,242.9879262775794 46.78911787108518,242.05265490441525 45.70349941053428,240.32823489353177 46.78911787108518,240.1528691721469 48.480177396093495,241.2635157025943 49.81632319348864,240.88355849117215 49.64930496877059,240.44514527462889 48.29228189319838,240.4743728573667 47.56157716026064,239.53908773019793 48.250527337077074,236.7916580706369 46.45508142164908,234.04418424681353 46.58034509012941,231.8520191990101 47.06052248622291,230.91668688764912 48.02087727806065,230.36133090594376 49.837200471549295,230.94591609992494 51.31948721560184,230.56593595127924 49.64930496877059,232.20276749618642 47.916490887640975,232.11508048939868 46.872626983444206,231.32589540380286 45.26507657091133,230.97514530709304 45.30683112703264,227.40914513079042 46.016658581909724,225.91841808597383 46.05841313803103,223.69691836352285 46.4968359778868,223.25846105888195 47.83298177528195,223.1999999999971 51.67440094309859,223.7553792525141 52.4677375103347,224.4569083602546 52.739142125472426,225.91841808597383 53.40721502422821,226.6491682620399 52.96879218437243,227.2337661533238 53.240196799626574,227.6137537103641 51.92492828017566,228.40295593701012 51.77878733351827,230.24441362716607 49.837200471549295,232.1443094966089 48.31315917125903,232.20276749618642 46.809995149145834,231.2382079470699 45.34858568315394,231.0628328987077 45.285953848971985,227.6137537103641 46.18367680651136,224.63229018718994 47.123154320404865,224.28152635325387 47.14403159846552,223.40461361879716 51.423873606021516,223.66768791159848" stroke="#4DD2FF" stroke-linecap="round" stroke-linejoin="round" stroke-width="0.5"><title>2025-05-20 5.0km</title><desc>1747754393000</desc></polyline><polyline fill="none" points="81.93807531381026,235.50943188689416 83.95648535573855,235.75803220368107 84.80000000004657,234.87017305917107 79.79916317993775,227.34103029518155 76.30460251052864,228.19339481042698 73.59330543945543,229.79157226829557 71.90627615060657,229.8626021956734 67.80920502101071,231.42525668095914 64.52552301250398,231.8869486177864 64.79665271972772,234.90568747132784 63.199999999953434,236.96551675893716 64.52552301250398,238.13748278471758 65.00753138074651,239.77112536533969 65.7305439329939,240.48140219444758 67.08619246864691,240.69448494134122 73.86443514644634,238.4926231727295 77.90125523018651,237.92439836624544 81.39581589971203,235.6159749031358 83.95648535573855,235.68700356120826 84.73974895407446,235.01223068480613 79.91966527199838,227.3765455277753 78.59414225933142,227.41206075649825 73.71380753139965,229.72054232555092 71.48451882845256,229.96914705770905 68.68284518818837,231.24768268488697 64.28451882849913,232.06452226548572 64.91715481178835,234.40848534819088 63.199999999953434,236.93000257120002 64.46527196653187,237.99542652114178 64.85690376569983,239.48701420042198 65.76066945609637,240.44588838977506 67.08619246864691,240.6234573746042 74.43682008364704,238.20851089328062 78.38326359842904,237.71131380842417 81.24518828443252,235.68700356120826 83.98661087860819,235.68700356120826 84.73974895407446,234.94120187975932 79.91966527199838,227.41206075649825 78.86527196655516,227.30551505862968 76.15397489548195,228.19339481042698 73.80418410035782,229.72054232555092 71.8761506275041,229.79157226829557 68.26108786615077,231.31871229488752 64.67615062766708,231.9579780884087 64.85690376569983,234.76362979930127 63.26025104604196,236.8589741839969 64.46527196653187,238.0664546606713 65.30878661083989,240.16177781298757 67.20669456070755,240.5879435853276 73.32217573234811,238.52813719018013" stroke="#4DD2FF" stroke-linecap="round" stroke-linejoin="round" stroke-width="0.5"><title>2025-05-14 5.0km</title><desc>1747227249000</desc></polyline><polyline fill="none" points="96.84912879986223,244.5657792665006 97.28911531885387,244.16425717812672 97.9278054269962,241.78856334467127 99.84387575130677,242.0897096671397 100.87997303780867,237.940530582855 100.68126944859978,235.2803124412021 98.68004044319969,230.27763905530446 98.76519912428921,229.15661631387775 100.15612424869323,228.4036859980697 102.22831882163882,228.05231725392514 103.56247149192495,227.1320619709586 104.65534123242833,227.23245372438396 105.06694152433192,226.79742231886485 102.86700892972294,223.28366194137197 102.31347750267014,223.1999999999971 100.79481435677735,223.75216797077155 99.84387575130677,224.40472755806695 99.02067516749958,224.42145981872454 97.34588777291356,225.09074874941143 95.62852103769546,225.3417313463433 95.74206594581483,226.64683423747192 94.93305847560987,227.6674838973995 95.07498961070087,228.03558538887592 95.55755547014996,228.3534905123961 96.04012132965727,229.47451911665848 96.65042521071155,229.54144593863748 102.10058079997543,227.90173040317313 102.71088468108792,227.36630929342937 102.93797449732665,226.64683423747192 102.66830534051405,225.70983841306588 101.71736673515989,224.68917574104853 100.5535314269946,224.3210662275087 99.53162725403672,224.60551456546818 98.16908835666254,226.14487289974932 96.22463180532213,226.47951397389988 95.10337583773071,227.48343282069254 95.13176206481876,228.03558538887592 96.65042521071155,229.2068115370639 98.38198505935725,229.02276230535062 102.05800145951798,227.90173040317313 102.85281581623713,227.1655258960527 102.89539515681099,226.36238968090038 102.31347750267014,225.30826702379272 100.93674549186835,224.3712630312948 99.02067516749958,224.4381920775486 97.21814975125017,225.15767748204235 95.60013481072383,225.47558856359683 95.72787283232901,226.71376229186717 94.94725158903748,227.73441150695726 95.57174858369399,228.3534905123961 95.88399708096404,229.25700674376276 96.60784587013768,229.5581776395993 97.45943268097471,229.1231528227363 99.03486828098539,228.85544463057886 98.66584732971387,229.54144593863748 98.70842667017132,230.0768594644178 100.49675897293491,234.5608744619094 100.92255237832433,236.635523667268 100.7664281296893,238.96110518751084 100.05677245400148,241.62125957709213 98.22586081072222,241.35357316986483 97.50201202154858,243.79619434167398 96.94848059455398,244.03041624870093 96.72139077831525,244.8000000000029 96.42333539453102,244.6828896779043" stroke="#4DD2FF" stroke-linecap="round" stroke-linejoin="round" stroke-width="0.5"><title>2025-05-06 7.1km</title><desc>1746539597000</desc></polyline><polyline fill="none" points="123.45347489148844,244.8000000000029 123.30712287366623,244.6274877092219 123.99497735709883,242.33305637346348 125.736566368083,242.74709155347955 126.0439056053292,242.21229590872827 126.95128811523318,238.39966817792447 126.92201771168038,236.50194595467474 124.33158699789783,229.32489991177863 123.62909731274704,229.16962368618988 122.63390359218465,229.65270477702143 122.01922511763405,229.53193464246579 120.86304417758947,227.73762465019536 121.65334507334046,226.87496837794606 121.46308745030547,225.4947085664462 122.48755157442065,225.44294858943613 125.9121887893998,224.47675924643409 127.02446412411518,223.7866203917074 128.85386434575776,223.23450714204228 131.21013183129253,226.8404620292422 130.91742779582273,227.30629710154608 129.62953003979055,227.18552517735225 128.25382107304176,228.18620405446563 126.1609872194822,228.49675828219915 124.93163027049741,229.08335905056447 123.36566368083004,229.29039409707184 122.41437556553865,229.68721051278408 121.79969709110446,229.4284173109627 121.44845224852907,228.4622522869613 120.89231458114227,228.04817975770857 120.89231458114227,227.7203715708165 121.65334507334046,226.70243655948434 121.44845224852907,225.5119618883473 123.05832444352563,225.30492190139194 125.8682831840706,224.4077454963408 128.53188990673516,223.1999999999971 128.94167555635795,223.3380285230378 131.19549662945792,226.8404620292422 130.97596860287013,227.2717908469058 129.73197645210894,227.18552517735225 127.93184663401917,228.3069752153824 126.46832645667018,228.41049327999644 122.48755157442065,229.65270477702143 121.87287309992826,229.48017598518345 121.47772265202366,228.4622522869613 120.89231458114227,228.01367366476916 121.63870987156406,226.73694293816516 121.46308745030547,225.4947085664462 122.99978363653645,225.30492190139194 125.7512015698594,224.4595058117702 126.73176008864539,223.85563441255363 128.56116031028796,223.1999999999971 128.89776995102875,223.3380285230378 131.18086142768152,226.8232088521181 130.96133340115193,227.25453771668253 129.62953003979055,227.16827203781577 128.20991546777077,228.20345708311652 126.1463520177058,228.49675828219915 124.66819663863862,229.13511783759168 123.45347489148844,229.2386353608017 122.51682197791524,229.66995764586318 121.82896749459906,229.41116441582562 121.46308745030547,228.4622522869613 120.87767937930766,228.03092671217746 120.86304417758947,227.73762465019536 121.44845224852907,227.16827203781577 120.76059776515467,227.80663694893883 121.40454664319986,228.56577025010483 121.69725067866966,229.35940571903484 122.32656435493845,229.73896910248732 125.97072959638899,228.6002762227581 128.15137466060696,228.34148124445346 129.55635403090855,227.2717908469058 130.85888698865892,227.2717908469058 131.23940223478712,226.87496837794606 128.79532353871036,223.1999999999971 126.93665291345678,223.7521133700502 125.7804719734122,224.49401267924986 124.74137264752062,224.5630263917992 123.14613565418404,225.218655160279 121.25819462543586,225.59822846968018 121.58016906451667,226.70243655948434 120.83377377403667,227.61685305499122 120.80450337048387,228.06543280140613 121.38991144142346,228.51401127695863 121.65334507334046,229.32489991177863 122.20948274078546,229.66995764586318 124.33158699789783,229.30764700536383 126.6146784744924,235.24253592570312 126.87811210635118,236.58820654910232 126.93665291345678,238.33066049554327 125.8975535875652,242.59182848779892 123.90716614644043,242.35030786087736 123.46811009314843,244.43772397233988 123.23394686484244,244.6274877092219" stroke="#4DD2FF" stroke-linecap="round" stroke-linejoin="round" stroke-width="0.5"><title>2025-04-29 10.1km</title><desc>1745929124000</desc></polyline><polyline fill="none" points="161.9703064307687,231.93969898984506 161.60673284420045,231.6320146969665 161.8118256366579,230.50016797344142 161.2990936556016,232.19243895702675 160.90755287010688,232.24738234440156 159.74225291324547,236.81856737435737 159.61173931811936,236.85153189893026 153.6733707380481,235.6757905320046 146.1035822184058,232.2693596909594 141.20000000001164,231.22543044216582 146.06629261974012,232.28034836244478 152.04195079841884,235.0824205282188 153.73862753564026,235.71974372678233 162.79999999998836,237.49983202656585 159.69564091501525,236.82955555040098 159.8914113077335,236.02741555432294 160.44143288733903,235.89555631455733 161.69063444109634,230.643023114455 161.93301683210302,230.55511228238902 161.60673284420045,231.4122396275634" stroke="#4DD2FF" stroke-linecap="round" stroke-linejoin="round" stroke-width="0.5"><title>2025-04-22 6.3km</title><desc>1745328842000</desc></polyline><polyline fill="none" points="174.8663271483383,244.16526559799968 175.22531592374435,244.00658160856983 175.97320920578204,241.55577579674718 177.8878160076565,241.8378848302964 178.8899930055486,238.1880612411187 178.7254564835457,234.50289015829912 176.64631315955194,229.40698904014425 176.60143956262618,228.52532896659977 177.72327948565362,227.60839739495714 180.08662225672742,227.2204632430221 181.79181893967325,226.10955575446133 182.9136588627589,226.21535679620865 183.37735269754194,225.80978576058988 182.37517569959164,224.24039261156577 181.02896779205184,224.9281060896028 179.95200146595016,223.6761127031641 178.8002458116971,223.20000000001164 176.64631315955194,223.37633820157498 175.1804423268186,224.02878787647933 173.20600406231824,224.36382857924036 173.5051613750984,225.59818307764363 172.63760516804177,226.85016159417864 173.28079339052783,227.3967970637168 173.60986643465003,228.31372983427718 174.28297038841993,228.66639490117086 176.73606035340345,228.08449712868605 178.15705758915283,227.46733053820208 180.02679079415975,227.2204632430221 181.56745095504448,226.18008979003935 182.9136588627589,226.19772329414263 183.36239483190002,225.77451866597403 182.39013356529176,224.24039261156577 181.04392565769376,224.89283880287257 179.95200146595016,223.65847892434977 178.8899930055486,223.21763382882637 176.57152383134235,223.37633820157498 175.21035805816064,224.01115413608204 173.5799507034244,224.25802632697742 173.35558271879563,224.43436337565072 173.47524564387277,225.6510837743117 172.63760516804177,226.76199441005883 173.250877659244,227.3967970637168 173.56499283772428,228.33136310584086 174.20818106026854,228.70166136554326 178.18697332055308,227.44969717250206 179.9669593316503,227.25573002255987 181.5824088207446,226.18008979003935 182.97349032521015,226.18008979003935 183.3474369663163,225.73925156370387 182.36021783400793,224.20512517493626 180.96913632948417,224.87520515658252 179.93704360036645,223.65847892434977 179.02461379626766,223.27053530367266 177.02025980054168,223.28816912477487 175.06077940174146,224.02878787647933 173.55003497202415,224.25802632697742 173.3406248530955,224.4167296794476 173.44532991264714,225.80978576058988 172.62264730239986,226.8148947262962 173.29575125616975,227.43206380485208 173.5949085689499,228.33136310584086 174.0885181351332,228.64876166608883 180.10158012242755,226.99122898887435 180.8345155387069,226.3916917121096 181.0887992545613,225.49238163244445 180.87938913569087,224.82230420624546 180.1464537192951,223.9229854052246 178.99469806504203,223.23526765572024 177.00530193489976,223.30580294399988 175.00094793911558,224.08168908621883 173.3256669874536,224.36382857924036 173.5051613750984,225.56291593691276 172.63760516804177,226.77962785070122 173.37054058437934,227.67893077724148 173.0863411372411,228.2255634474277 173.8342344192206,229.75965172472934 174.4175911791972,232.33406604183256 174.6718748951098,235.22582507217885 174.61204343248392,237.1301259756001 173.14617259980878,244.3063179023884 174.20818106026854,244.8000000000029" stroke="#4DD2FF" stroke-linecap="round" stroke-linejoin="round" stroke-width="0.5"><title>2025-04-15 8.8km</title><desc>1744723077000</desc></polyline><polyline fill="none" points="32.65805038344115,255.69244046576205 32.03110624314286,255.6506097678066 32.49244249728508,254.29807650099974 31.94830230018124,256.55693849694217 32.07842278206954,256.90552476116864 31.35684556409251,259.30377253088227 30.658926615607925,259.3177157004975 30.670755750266835,259.90332745386695 29.86637458932819,262.51066155759327 22.023658269434236,260.94905606527755 13.033515881630592,256.7800338153902 11.200000000011642,256.2501817992452 13.163636363635305,256.8776378949551 22.011829134717118,260.9629990557587 29.890032858762424,262.4967187356815 30.150273822597228,261.4510027649958 30.74173055862775,261.3812880632613 31.25038335158024,259.90332745386695 32.79999999998836,253.48933844239218 32.38598028483102,255.79004537456785" stroke="#4DD2FF" stroke-linecap="round" stroke-linejoin="round" stroke-width="0.5"><title>2025-04-11 5.1km</title><desc>1744377642000</desc></polyline><polyline fill="none" points="43.415425353334285,268.8000000000029 44.14597545959987,267.9915899276384 44.33979487553006,268.5891108063515 45.07034498191206,267.9915899276384 45.89035020314623,265.51361207893933 47.8136351769208,265.95297262916574 48.156546451325994,265.8299517957057 49.051097601884976,261.9811097745842 49.110734345333185,259.8721163026348 48.73800469923299,257.99157387172454 46.59108193783322,253.31648555024003 46.53144519450143,252.5255737506377 47.57508820347721,251.64677831402514 49.97546712413896,251.26010680521722 51.645295938593335,250.11766284168698 52.73366650514072,250.22311954648467 53.28530638135271,249.7661399942299 52.10748069966212,247.92063247709302 50.87001827469794,248.64126173460681 49.40891806216678,247.41091715582297 48.09690970793599,247.34061146785098 47.39617797336541,247.6745632127131 45.97980531823123,249.22127806684875 43.95215604361147,249.52007354523812 42.7743303620955,250.53948924735596 42.71469361864729,250.8734343695687 43.32597023824928,251.38313874945743 43.57942639756948,252.20920794493577 44.250339760503266,252.59587717869726 50.139468168490566,250.94373851768614 50.944564204022754,250.17039120270056 51.03401931899134,249.30915914734942 50.154377354250755,247.93820883872104 48.73800469923299,247.1999999999971 46.829628911276814,247.3054586123908 44.96598068095045,248.02609061828116 43.355788609886076,248.30731199117145 43.489971282484476,249.5376497326506 42.71469361864729,250.48676100697776 42.71469361864729,250.82070623831532 43.32597023824928,251.33041078486713 43.96706522948807,252.57830132450908 44.623069406545255,252.59587717869726 45.50271137134405,252.13890434833593 46.307807406876236,252.20920794493577 48.66345876996638,258.448530123409 48.94673330098158,260.08301689049404 48.85727818595478,261.77021166803024 48.022363778727595,265.33786752387823 46.09907880501123,265.0391013408662 45.33871032705065,267.3589183500735" stroke="#4DD2FF" stroke-linecap="round" stroke-linejoin="round" stroke-width="0.5"><title>2025-04-08 5.6km</title><desc>1744119870000</desc></polyline><polyline fill="none" points="70.95072883251123,266.9782350734022 71.53552056325134,266.1247880725423 71.98107616760535,264.220927343893 73.83291664824355,264.5655935694085 74.82149314548587,260.75780865334673 74.86326398339588,259.21497185356566 74.59871534327976,257.70494607041474 72.70510402473155,253.01063882638118 72.70510402473155,252.1078706636181 73.74937497253995,251.33640994684538 75.93538215645822,251.00812759248947 77.38343787059421,250.02327623713063 78.63656300783623,250.02327623713063 78.9707297111745,249.59650531697844 77.87076431291644,247.85658059100388 76.52017388714012,248.38184300335706 75.23920152458595,247.314901810023 73.17850685439771,247.26565818791278 71.27097192313522,247.97148190024018 69.68368008261314,248.2669420071761 69.76722175843315,249.59650531697844 69.0292702887673,250.48287433756923 69.57229118153919,251.10661237392924 69.89253427216318,252.0258005624055 70.75579825561726,252.32125271759287 71.52159695059527,251.9109023455385 72.8164929258055,251.76317593800195 74.0835416757036,251.20509709096223 76.01892383227823,250.92605689213087 77.4809031590703,249.9576192512177 77.25812535686418,250.40080335106177 77.62013928539818,249.85913371863717 78.69225745840231,249.94120500028657 78.92895887326449,249.53084814499016 78.0656948898104,248.13562647564686 76.84041697782231,248.77578861064103 75.86576409317786,247.64319221285405 74.83541675814195,247.1999999999971 73.08104156592162,247.24924364361505 71.36843721161131,247.93865296369768 69.72545092052314,248.20128425570147 69.71152730786707,249.662162460314 69.0710411266191,250.31873231983627 69.0292702887673,250.64701617648825 69.58621479413705,251.13944062008522 69.73937453317922,251.82883213702007 70.49124961555935,252.30483872420155 71.47982611274347,251.89448830740002 72.76079847529763,251.76317593800195 73.93038193671964,251.23792531562503 75.04427094769198,251.0901982481737 75.16958346142201,252.0258005624055 78.0239240519004,257.81983986847627 75.11388901079772,258.83746682658966 74.9468056592159,261.4143301594013 74.23670141468756,264.188101947977 73.87468748621177,264.4671175854601 72.87218737637158,268.8000000000029 69.0292702887673,267.8152649367694 69.6140620194492,265.30416139782756 69.80899259634316,265.20568589650793 69.47482589300489,266.81411102552374" stroke="#4DD2FF" stroke-linecap="round" stroke-linejoin="round" stroke-width="0.5"><title>2025-04-02 6.9km</title><desc>1743601029000</desc></polyline><polyline fill="none" points="96.60425100068096,268.8000000000029 97.12083026679466,268.33435828704387 97.83492513466626,265.7733052944386 100.22030586347682,266.34641152650875 101.2078838723246,261.8152358399093 100.90401371568441,258.4660257208452 98.57940701820189,253.16446273543988 98.56421351031167,252.6808657108195 99.02001874515554,252.03606746495643 99.82527465990279,251.64202284744533 102.40817099058768,251.1763325362117 103.60845810890896,250.20912536676042 104.07945685152663,250.13748016483441 104.09465035941685,249.49267194245476 103.4869100463111,248.25678244620212 103.00071779580321,248.29260546097066 102.52971905318554,247.75525942050444 102.13468784966972,247.84481721588236 101.25346439570421,247.30746971162444 100.31146691041067,247.23582324499148 99.33908240956953,247.57614368335635 98.03244073642418,249.18817829154432 96.05728471896145,249.47476056682353 94.58351445972221,250.65690717114194 95.4647379136295,252.3047337080934 96.46750943019288,252.71668776145088 99.94682272261707,251.5524671207968 102.19546188105596,251.23006610103766 103.91232826543273,250.0479236185056 105.05184135248419,250.1912140691711 105.44687255600002,249.7613423424773 104.2161984219565,247.91646341707383 102.86397622537334,248.65083517871972 102.04352680267766,247.70152471985784 100.97998125484446,247.1999999999971 98.98963172954973,247.28955809788022 97.18160429806449,248.0418441940128 95.25202880403958,248.36425146693364 95.37357686669566,249.77925368683646 94.55312744399998,250.83601955143968 95.22164178843377,251.46291134545754 95.52551194495754,252.35846690407197 96.42192890669685,252.73459878379072 97.34873288421659,252.2689115677058 98.22995633812388,252.21517834252154 99.26311487040948,255.1346581315156 100.06837078521494,255.83317628396617 102.72723465488525,255.27794414834352 104.39852051594062,258.78841255028965 101.17749685654417,259.88094099299633 101.01036827045027,262.62118530970474 100.67611109832069,263.03311351308366 99.82527465990279,266.05985866018455 99.6429525660933,266.203135155738 97.83492513466626,265.88076286511205 97.27276534505654,268.0298995310004" stroke="#4DD2FF" stroke-linecap="round" stroke-linejoin="round" stroke-width="0.5"><title>2025-03-25 6.1km</title><desc>1742909450000</desc></polyline></svg>