<?xml version="1.0" encoding="utf-8" ?>
<svg baseProfile="full" height="300mm" version="1.1" viewBox="0,0,200,300" width="200mm" xmlns="http://www.w3.org/2000/svg" xmlns:ev="http://www.w3.org/2001/xml-events" xmlns:xlink="http://www.w3.org/1999/xlink"><defs /><rect fill="#222222" height="300" width="200" x="0" y="0" /><text fill="#FFFFFF" style="font-size:12px; font-family:Arial; font-weight:bold;" x="10" y="20">Over 5km Runs</text><text fill="#FFFFFF" style="font-size:4px; font-family:Arial" x="10" y="280">Runner</text><text fill="#FFFFFF" style="font-size:9px; font-family:Arial" x="10" y="290">Elliont</text><text fill="#FFFFFF" style="font-size:4px; font-family:Arial" x="65" y="280">SPECIAL TRACKS</text><rect fill="yellow" height="2.6" width="2.6" x="65" y="283" /><text fill="#FFFFFF" style="font-size:3px; font-family:Arial" x="70" y="285.5">Over 20.0 km</text><rect fill="red" height="2.6" width="2.6" x="65" y="287" /><text fill="#FFFFFF" style="font-size:3px; font-family:Arial" x="70" y="289.5">Over 40.0 km</text><text fill="#FFFFFF" style="font-size:4px; font-family:Arial" x="120" y="280">STATISTICS</text><text fill="#FFFFFF" style="font-size:3px; font-family:Arial" x="120" y="285">Number: 57</text><text fill="#FFFFFF" style="font-size:3px; font-family:Arial" x="120" y="290">Weekly: 2.2</text><text fill="#FFFFFF" style="font-size:3px; font-family:Arial" x="141" y="285">Total: 385.0 km</text><text fill="#FFFFFF" style="font-size:3px; font-family:Arial" x="141" y="290">Avg: 6.8 km</text><text fill="#FFFFFF" style="font-size:3px; font-family:Arial" x="167" y="285">Min: 5.0 km</text><text fill="#FFFFFF" style="font-size:3px; font-family:Arial" x="167" y="290">Max: 11.4 km</text><polyline fill="none" points="33.81415929202922,45.72274678230315 28.77749683946604,44.71243898902321 22.11757269280497,41.74402911939251 12.833122629555874,39.96471994510648 11.285714285710128,39.92001318776602 13.015170670027146,40.03625070623093 22.474083438661182,41.90496975577116 26.44879898862564,43.77364626744384 26.759797724400414,43.80940999635641 27.67762326169759,44.34586406095332 29.035398230102146,44.85549217548396 33.768647281918675,45.79427252651658 33.89759797725128,45.72274678230315 33.98103666244424,45.052189899855875 34.428571428579744,45.02536751066509" stroke="#4DD2FF" stroke-linecap="round" stroke-linejoin="round" stroke-width="0.5"><title>2025-10-09 6.0km</title><desc>1760007351000</desc></polyline><polyline fill="none" points="60.14285714289872,46.09081330116169 54.09923922229791,44.90713863061683 46.339306847017724,41.43135741948936 37.0,39.623472413128184 46.81403212173609,41.66810181589972 51.132206255279016,43.71268890768988 51.616060862201266,43.788014992496755 52.054268808162306,44.15388373031601 53.323245984793175,44.69192353075778 53.46018596790964,44.63811968258233 54.062721893482376,42.55050775037671 55.2495350803365,42.884098185022594 55.50515638210345,42.690400650426454 57.148436179209966,42.92714203004289 57.59577345731668,41.90484564501821" stroke="#4DD2FF" stroke-linecap="round" stroke-linejoin="round" stroke-width="0.5"><title>2025-10-05 5.0km</title><desc>1759662272000</desc></polyline><polyline fill="none" points="85.85714285713038,44.900960912818846 85.67577250336763,45.636362637756974 81.10523958801059,44.712833783836686 79.85741155393771,44.251065283642674 78.76193461712683,43.66102380371012 74.62669055079459,41.86521810326667 65.8701298701344,40.14633703217987 64.23779668606585,40.07792307652562 62.71428571428987,40.21475092824403 65.4348410210514,40.13778529098636 74.1551276309765,41.83956343855971 75.3739364084031,42.215831014364085 79.75584415582125,44.302373028884176 80.94563367668889,44.75558998911583 82.93345275413594,45.0976387930059 83.10031347966287,44.78979493655061 83.00600089566433,44.65297505738272 83.07854903719272,44.473398604204704 83.60089565606904,44.46484733430407 84.43519928347087,44.68718004953553" stroke="#4DD2FF" stroke-linecap="round" stroke-linejoin="round" stroke-width="0.5"><title>2025-10-02 6.2km</title><desc>1759399141000</desc></polyline><polyline fill="none" points="110.62191638536751,51.256000815359585 110.35148569947341,52.24060801126325 110.02696887636557,52.24769146226754 109.91879660199629,52.77894808939163 106.42122639759327,52.12727269023162 105.15320695922128,51.71643049605336 101.54746448044898,49.99511515917402 100.51982787402812,49.633845662632666 93.36242905363906,48.24541872510599 92.26267759763869,48.17457982132328 90.59201691579074,48.29500591184478 89.94899284045096,48.1674959266893 89.46822717660689,47.89830735923897 89.07159550394863,47.52285828596359 88.75909782241797,47.00572676826414 88.42857142857974,46.021040316576546 89.31197833584156,45.192191961708886 91.0727825796348,43.80367018915422 92.8816633898241,41.87669288754114 94.47419965127483,40.466846111281484 96.71576955894125,38.9932047418406 96.97418110325816,38.87276142252813 97.52105204583495,38.85150669595896 97.78547316094046,38.70980834122747 98.62080350186443,37.739166307284904 99.16166487368173,36.48510368107236 99.79266980747343,35.9182877758285 102.64120636568987,34.34534774981876 105.90440330895944,32.93533762489096 105.90440330895944,33.40298256395181 106.52338910114486,33.920222289831145 107.39477686685859,35.88994685081707 109.93081574360258,40.73606544517679 111.18080646955059,43.690320164001605 111.50532329262933,44.90173832906294 111.57142857144936,45.8793575857344 111.47527543865726,46.95613859844161 111.25292131913011,47.678705334226834" stroke="#4DD2FF" stroke-linecap="round" stroke-linejoin="round" stroke-width="0.5"><title>2025-09-30 10.1km</title><desc>1759229695000</desc></polyline><polyline fill="none" points="137.27188527039834,45.54267363442341 132.3902428614092,44.54836376301682 127.46019889882882,42.25814076941606 126.48525331856217,41.92397425965464 118.0564684792771,40.28572173081193 116.69431046996033,40.24496872314921 115.0763156771718,40.39167944687506 114.14285714286962,40.155312028116896 114.9795125699311,40.44058295754803 117.59319646592485,40.26942053040693 118.39527935464866,40.36722767956235 126.47142430322128,41.948425518254226 127.15596056170762,42.152185696177185 130.81373511458514,43.896350118433475 132.7221392292122,44.67876581027667 137.1197661018232,45.55897368618025 137.28571428573923,45.510073520228616" stroke="#4DD2FF" stroke-linecap="round" stroke-linejoin="round" stroke-width="0.5"><title>2025-09-29 6.6km</title><desc>1759141711000</desc></polyline><polyline fill="none" points="161.31417539986433,53.01192357279797 161.15929398784647,53.74917480430304 160.65295091009466,53.65789653765387 157.29917264200049,53.00490209196869 152.70038610036136,50.89842331830732 151.47920573630836,50.540315081998415 144.35466078319587,49.17808126239834 142.07909542191192,49.29043153250677 141.56679536675802,49.23425642193615 140.76856039708946,48.81996346958476 140.51836734690005,48.56015127663704 140.17881963594118,47.9983916040801 139.85714285713038,47.043388925383624 140.14903474898892,46.706325778322935 142.74031991171069,44.627730755768425 144.17595146162785,43.03362766974897 145.91538885820773,41.50268979298562 148.0539437396219,40.09110475462512 148.85813568666345,39.957669743504084 149.12619966903003,39.81018862026394 149.81125206834986,39.100869931149646 150.4903474903258,37.633047055845964 151.10391616102424,37.043099255432026 155.13678985106526,34.93609872992238 158.60970766682294,33.580558634486806 159.5330391615862,33.3628267378881 161.69542195255053,32.57617633434711 162.9999999999709,31.965110909979558 159.7891891891777,33.201283242335194 158.5143960286805,33.53841703449871 157.32300055155065,33.980902459443314 157.1562051847577,34.360173262008175 157.2813017098233,34.66920707998361 157.64467733036145,34.82372343313182 157.9961389960954,35.44880853439099 159.23519029229647,38.15275850020407 161.17120794262155,41.81168935801543 161.17120794262155,42.00130199397245 161.61202426912496,42.787837342002604 162.40430226142053,44.70497704031732 162.6187534473138,45.51254629019968 162.91064533917233,45.5827692250532" stroke="#4DD2FF" stroke-linecap="round" stroke-linejoin="round" stroke-width="0.5"><title>2025-09-26 11.4km</title><desc>1758886655000</desc></polyline><polyline fill="none" points="188.71428571428987,46.837184312003956 184.32031843820005,45.94343883468537 179.42085050206515,43.674649169508484 178.63019562349655,43.43019607183669 170.73660839302465,41.90998424607824 169.44693363204715,41.871787544681865 167.98875865104492,41.99401691590174 167.28235388247413,41.88706622772588 166.30375645079766,41.16132510670286 165.96027523302473,40.64184263985953 165.6167940152809,39.77093692991912 165.64271712608752,39.442434598575346 166.2907948954089,38.87710140227864 165.6491979037528,39.404236553193186 165.57142857142026,39.641064099130745 166.25839100693702,41.168964526026684 166.6148337800696,41.52801629596797 167.22402688322472,41.86414820189384 167.97579709565616,42.02457422544103 169.89410729284282,41.87942688661133 170.7495699484134,41.92526292081311 178.19598351800232,43.36908266426326 179.4078889467055,43.689927459854516 184.3073568828404,45.98163331879914 185.97291675000452,46.32538273976388" stroke="#4DD2FF" stroke-linecap="round" stroke-linejoin="round" stroke-width="0.5"><title>2025-09-25 7.3km</title><desc>1758798919000</desc></polyline><polyline fill="none" points="34.42857142855064,70.7534659341909 33.99319727893453,72.28497076032363 29.5374149660056,71.4189928875494 24.340136054437608,69.02146397621254 23.03401360544376,68.62053178945644 15.006802721065469,67.08895073454187 13.632653061213205,67.06489423344465 12.176870748284273,67.20121430240397 11.285714285710128,67.00074352539377 12.047619047632907,67.23328957606282 13.78231292514829,67.10498839757201 15.231292517011752,67.17715783799213 23.37414965988137,68.71675571342348 24.108843537425855,68.94127771354397 29.469387755088974,71.42701124789892 33.39455782316509,72.196769776172" stroke="#4DD2FF" stroke-linecap="round" stroke-linejoin="round" stroke-width="0.5"><title>2025-09-23 6.7km</title><desc>1758623965000</desc></polyline><polyline fill="none" points="60.142857142869616,72.35558083016076 55.4326808360056,71.43589771484403 50.07825549025438,68.97210566345166 48.88281560692121,68.59240471488738 40.328620034473715,66.93013643295126 38.99001369802863,66.88794641853019 37.0,67.02295438384317 40.09955370950047,66.93013643295126 48.6394326366717,68.55865342941979 49.949405682476936,68.92147897782706 55.532897353201406,71.48652275741915 60.142857142869616,72.39776786717994" stroke="#4DD2FF" stroke-linecap="round" stroke-linejoin="round" stroke-width="0.5"><title>2025-09-22 6.4km</title><desc>1758538508000</desc></polyline><polyline fill="none" points="84.87735415709903,79.88468530259706 80.84657785945456,79.08797186731681 76.09646302252077,76.93168164844974 75.18488745982177,76.6319883718752 67.84887459810125,75.19928982641432 66.42259990813909,75.13350191382779 64.9901240238978,75.25776791679527 64.3886081764067,75.14812145553151 63.8056959118112,74.84111041088909 63.37161231052596,74.43907001420303 62.71428571428987,72.91860455241113 62.82590721177985,72.73585398053547 65.50482315113186,70.59398017694184 67.22255397337722,68.71521546559961 69.08911345890374,67.06302870304353 71.33394579699961,65.60819339626323 72.18971061092452,65.49122034297034 72.51837390908622,65.23534107779415 73.2129076711426,64.40189898996323 73.80822232432547,63.07129454482492 74.45934772625333,62.47178281797824 77.24988516309531,60.929112155063194 80.77216352781397,59.401028983113065 80.7783647220931,59.86165102108498 81.26825907212333,60.23453321100533 81.73954983922886,61.06802708074247 81.97519522279617,61.74797493467486 83.51929260449833,64.73820142945624 83.55649977031862,64.97946083657007 84.4432705558138,66.44893121554196 85.85714285715949,69.61439735846216" stroke="#4DD2FF" stroke-linecap="round" stroke-linejoin="round" stroke-width="0.5"><title>2025-09-21 9.0km</title><desc>1758451095000</desc></polyline><polyline fill="none" points="110.23765020025894,78.26615042859339 109.9372496662254,79.54084303693526 109.8291054739675,79.56916925555561 105.88785046729026,78.79727538532461 101.2136181575479,76.65150391930365 100.43858477968024,76.4178017608574 93.33110814419342,75.0368173135721 90.18891855803668,75.0368173135721 89.63017356474302,74.80310935129091 89.07743658209802,74.31444453370932 88.77703604803537,73.83994039899699 88.42857142857974,72.82718118434423 88.91522029368207,72.31017214596068 91.17423230971326,70.53247955768165 92.98865153535735,68.57766983503825 94.49065420558327,67.26734780002153 96.86982643522788,65.70909261635825 97.5727636849042,65.63826194760622 97.8791722296155,65.43285257170646 98.60013351132511,64.57579265309323 99.1708945260034,63.28663991931535 99.82576769022853,62.69872111621953 102.66154873164487,61.1403563860149 105.91188251003041,59.71654503015452 105.92389853138593,60.212403271776566 106.4045393858396,60.53116728612804 106.69893190922448,61.08368787346262 107.55807743658079,62.99622286207159 109.53471295058262,66.73612863899325 111.18691588783986,70.49706686089485 111.50534045393579,71.72941736393841 111.57142857142026,72.5438890697842 111.45126835780684,73.7903651403467 111.11481975967763,74.9872429675379" stroke="#4DD2FF" stroke-linecap="round" stroke-linejoin="round" stroke-width="0.5"><title>2025-09-18 10.1km</title><desc>1758194958000</desc></polyline><polyline fill="none" points="128.80473953229375,70.94423016800283 128.73782848884002,71.13153931099805 129.2480251949164,71.27941467642086 137.28571428573923,72.84687870013295 122.44819040739094,69.89923520530283 116.17528008675436,66.98107218637597 114.14285714286962,66.43883558557718 116.13346068462124,67.01064863481588 122.54855697249877,69.93866919649736 127.44142702259705,70.92451339356921" stroke="#4DD2FF" stroke-linecap="round" stroke-linejoin="round" stroke-width="0.5"><title>2025-09-16 5.4km</title><desc>1758020593000</desc></polyline><polyline fill="none" points="162.99293563576066,72.32413642264146 158.2880690737802,71.38321820827696 152.88383045524824,68.89347610421828 151.79591836733744,68.58537529015302 143.1985871271463,66.93659848166863 139.85714285713038,67.00321641579649 140.29513343799044,67.07816152227315 142.1106750392355,66.92827123581083 143.3540031397133,66.9699074559685 152.05729984299978,68.64366472858092 152.97566718995222,68.96009233318182 158.344583987433,71.42485200241208 163.0,72.35744304990658" stroke="#4DD2FF" stroke-linecap="round" stroke-linejoin="round" stroke-width="0.5"><title>2025-09-15 6.5km</title><desc>1757932870000</desc></polyline><polyline fill="none" points="188.71428571426077,80.09517614902143 184.44464885615162,79.23986569633416 179.3975363941572,76.92589316365047 178.73668213083874,76.71969388599973 170.644456886861,75.14644980477897 169.4199328107352,75.11590102664195 167.98808190686395,75.24573324181256 167.35962246038252,75.15408699724503 166.6728523435886,74.79513805257011 166.2970724683837,74.43618727025023 165.9277715565695,73.82520298903546 165.61678131495137,73.03091546331416 165.57142857142026,72.79415494067507 165.68157094862545,72.64140579206287 168.42217245235224,70.39595490161446 170.24924012157135,68.41012207501626 172.16701327788178,66.71448182727909 174.63549832024728,65.13337490963022 175.43888977760798,65.03407714961213 175.79523276272812,64.78201297308988 176.46904495279887,64.03345340838132 177.11694128939416,62.566864553933556 177.7907534794067,61.90994501057867 180.8617821148364,60.22942512964073 183.14237721962854,59.19053813669598" stroke="#4DD2FF" stroke-linecap="round" stroke-linejoin="round" stroke-width="0.5"><title>2025-09-13 7.0km</title><desc>1757768754000</desc></polyline><polyline fill="none" points="34.428571428579744,99.24809483383433 29.312543667620048,98.24305741984426 23.68340397780412,95.64591231398663 22.762820811389247,95.34349963860586 13.519260328874225,93.54678947526554 11.285714285710128,93.55568417741597 13.639992547425209,93.61794706523506 22.49117331969319,95.32571062284842 23.57021752296714,95.64591231398663 29.35781824955484,98.29642254920327 34.398388373927446,99.31035338188667" stroke="#4DD2FF" stroke-linecap="round" stroke-linejoin="round" stroke-width="0.5"><title>2025-09-11 6.0km</title><desc>1757587445000</desc></polyline><polyline fill="none" points="57.93179349790444,106.12533690417331 53.99645210336894,105.35109203142929 49.632973716565175,103.32556747212948 48.630077474488644,103.02830074961093 41.68604735354893,101.68712659828452 40.47787995074759,101.64564653354319 39.117225400026655,101.75625997925818 38.44276301498758,101.63181983929098 37.6099485916784,100.98196181087405 37.26392006370588,100.36666456620151 37.0,99.50247296995803 39.58641662442824,97.35231321462197 40.37817681557499,96.59870300394687 41.30482948376448,95.50629800150637 43.011512562428834,94.00593895906059 44.27246397797717,93.26611752319877 45.122873072192306,92.63691680359625 45.87944392149802,92.51245877917972 46.21960755917826,92.31194255968148 46.89406994424644,91.53752914116194 47.468829194112914,90.22377047128248 48.11396712763235,89.65677148282703 50.76489754542126,88.18393335770088 54.06096589675872,86.73180595297163 54.055101006437326,87.22276703330135 54.541886901744874,87.52010781178979 54.87618564910372,88.12861482753215 55.527188472944545,89.64985682973929 58.13119976827875,94.6904389597621 58.27195713558467,95.174424402765 58.44790384473163,95.36801754630142 59.21620447465102,97.2486059185394 59.409745854733046,97.99529466751846 59.69126058934489,98.07134580634738 59.773369053640636,99.42642354615236 59.46839475777233,101.44515917183162 59.69712547966628,101.61107979222288 60.131127362226835,101.6940399397572 60.14285714284051,101.81847995777207" stroke="#4DD2FF" stroke-linecap="round" stroke-linejoin="round" stroke-width="0.5"><title>2025-09-09 10.0km</title><desc>1757415422000</desc></polyline><polyline fill="none" points="85.8252656434779,99.47210728898062 80.32644628101843,98.35429761496925 74.48494687126367,95.63955666621769 73.41706021252321,95.30138225857081 63.68654073198559,93.40382348750427 62.71428571428987,93.38503556816431 65.7824675324373,93.80776276329561 73.58441558439517,95.36713849724038 80.60537190080504,98.45762516725517 85.85714285713038,99.47210728898062" stroke="#4DD2FF" stroke-linecap="round" stroke-linejoin="round" stroke-width="0.5"><title>2025-09-08 5.7km</title><desc>1757333196000</desc></polyline><polyline fill="none" points="111.57142857142026,99.41806339730829 106.3801369862922,98.43716556916479 100.32495107629802,95.64388078160118 99.44520547945285,95.34492852619587 89.91859099804424,93.48579580005753 88.42857142857974,93.38302849412867 89.55401174168219,93.45776836519508 99.21536203523283,95.32624397563632 100.42005870837602,95.71861868263659 106.3167318982014,98.446507506138 111.50009784733993,99.474114363009" stroke="#4DD2FF" stroke-linecap="round" stroke-linejoin="round" stroke-width="0.5"><title>2025-09-04 5.8km</title><desc>1756983645000</desc></polyline><polyline fill="none" points="137.28571428573923,99.12533510033973 132.73085508242366,98.21551184402051 127.2858859890257,95.73188426367415 124.3373969780223,95.04333933482849 117.91191620880272,93.82197628448921 116.59761332417838,93.79738487857685 115.00515109891421,93.92853895065491 114.14285714286962,93.73180775679793 114.53923420331557,93.91214470413979 115.08859890108579,93.98591878529987 116.59761332417838,93.83837055064214 117.9953640110325,93.87935620039934 126.71565934069804,95.5761425096498 127.64749313189532,95.9122164183791 132.74476304950076,98.27288841031259 135.60285027470673,98.78927553880203" stroke="#4DD2FF" stroke-linecap="round" stroke-linejoin="round" stroke-width="0.5"><title>2025-09-02 6.2km</title><desc>1756809719000</desc></polyline><polyline fill="none" points="163.0,99.42653686993435 157.77703604803537,98.40678689222113 150.71962616819656,95.28136734137661 141.16288384512882,93.43061262027913 139.85714285713038,93.33618529964588 141.11481975967763,93.44949807209196 150.2309746328392,95.21526963883662 151.4646194926463,95.58352762559662 157.90520694258157,98.52953520968003 162.99198931906722,99.52095755749178" stroke="#4DD2FF" stroke-linecap="round" stroke-linejoin="round" stroke-width="0.5"><title>2025-08-29 5.7km</title><desc>1756465472000</desc></polyline><polyline fill="none" points="188.71428571428987,99.31187493669859 183.70012700505322,98.32385584463191 177.77915235905675,95.61123348158435 176.85709581826814,95.33278044136387 167.56032739079092,93.52730404648173 165.57142857142026,93.52730404648173 167.65939131664345,93.60814711847343 177.10856578394305,95.43158646648953 183.5858224752301,98.33283788968401 188.5923608824669,99.3298388106632" stroke="#4DD2FF" stroke-linecap="round" stroke-linejoin="round" stroke-width="0.5"><title>2025-08-27 6.0km</title><desc>1756291993000</desc></polyline><polyline fill="none" points="33.383261374983704,126.1088989103373 29.486406983894994,125.39319533271919 27.795464250142686,124.95833445563039 22.461308535392163,122.4578402967818 21.36219575838186,122.1045035395 12.692271196079673,120.41027823583136 11.285714285710128,120.25625604249217 13.599231389671331,120.59148045108304 21.346823551721172,122.11356347511901 22.292214261979098,122.4125407963802 27.357356360007543,124.82243996534817 28.625563410343602,125.26636114505527 33.375575271609705,126.1723153860803 33.56004175165435,125.46567192454677 34.428571428579744,125.61062491883786 33.9981496418186,125.5109697624066 34.02889405511087,125.29353991581593" stroke="#4DD2FF" stroke-linecap="round" stroke-linejoin="round" stroke-width="0.5"><title>2025-08-26 6.0km</title><desc>1756205162000</desc></polyline><polyline fill="none" points="60.142857142869616,127.536069839618 55.72638007425121,126.66718796356872 50.92192551790504,124.45682579431013 49.926116632763296,124.14432068241149 41.98551071729162,122.61226323538722 39.334331217833096,122.72659703886166 38.6295054484508,122.56652966168622 37.950544844934484,122.15492615342373 37.60136510597658,121.73569786920416 37.025865165836876,120.30268040420196 37.446174110868014,119.83770566522435 38.623039156984305,118.89250158895447 37.2263202011527,120.00540182894474 37.0,120.31792542530457 37.368578613357386,121.37744625427877 37.67249431204982,121.88052246953157 38.739432403293904,122.63513001101092 39.405460423906334,122.77233050791983 40.85390971141169,122.64275226790778 42.05017363186926,122.66561903358524 50.04897617051029,124.20529739920312 50.92839180937153,124.50255813264812 55.64878457671148,126.66718796356872" stroke="#4DD2FF" stroke-linecap="round" stroke-linejoin="round" stroke-width="0.5"><title>2025-08-23 7.3km</title><desc>1755948655000</desc></polyline><polyline fill="none" points="85.85714285710128,125.2142163855242 85.50703757064184,126.42047196339263 79.59115593484603,125.25654139614198 72.34666962205665,121.95513519766973 65.29967859911267,120.43137142205524 62.71428571426077,120.00809946518712 71.88883963203989,121.8599006618897 79.33082123461645,125.2142163855242 84.16945583507186,126.19826811373787" stroke="#4DD2FF" stroke-linecap="round" stroke-linejoin="round" stroke-width="0.5"><title>2025-08-19 5.0km</title><desc>1755607675000</desc></polyline><polyline fill="none" points="110.90463246998843,129.23914103639254 106.70255892517162,128.4087063340994 101.82739874965046,126.15461822535872 101.003339416784,125.91734145144437 93.31002213331521,124.44175795064803 90.43525026208954,124.52332370289514 89.48538034403464,124.07841841241316 88.83116530111874,123.28499676121282 88.46631460412755,122.09855460857216 91.19011377313291,119.88133540197305 93.75664971070364,117.1894303921872 93.00178619963117,117.86427057374385 91.26560012422851,119.7478550177184 88.42857142857974,122.1059699362595 88.56696307225502,122.66953247581841 89.09536753001157,123.70024662931974 89.5419951073709,124.11549396436021 90.31573020620272,124.49366344066948 90.74348619577358,124.56039901251643 92.22805110085756,124.42692780336802 93.46728536483715,124.44175795064803 96.5873878771672,125.03496119236661 96.85788063527434,124.93856601734296 98.09711489922483,125.16843120939302 98.46825612548855,125.33156087484531 100.34912437386811,125.61332937627594 101.56319652078673,126.00632033857255 102.19224944667076,125.9914905321275 102.17966838812572,126.16203311123536 102.58226226072293,126.14720333868172 102.2803168562823,126.34740499526379 102.73952549215755,126.62916929229687 106.42577563779196,128.290071978372 107.13031491474248,128.49026733377104 107.35048343878589,128.38646240815433 108.55197452721768,128.47543806835893 108.55197452721768,128.75719355862384 110.59010600709007,129.1649954926179 110.94866617480875,129.20206827458605 111.04931464293622,128.69046210051602 111.38900322292466,128.63114519395458 111.57142857142026,128.01572923898493" stroke="#4DD2FF" stroke-linecap="round" stroke-linejoin="round" stroke-width="0.5"><title>2025-08-16 10.0km</title><desc>1755297330000</desc></polyline><polyline fill="none" points="128.07037297677016,122.40807251208753 127.6523574947496,124.53569843943842 137.28571428573923,126.42812871970818 121.30612244899385,123.2591281658315 114.14285714284051,120.00044270885701 121.08761435607448,123.24793011085421 127.12033779034391,124.45731300214538" stroke="#4DD2FF" stroke-linecap="round" stroke-linejoin="round" stroke-width="0.5"><title>2025-08-13 5.0km</title><desc>1755095249000</desc></polyline><polyline fill="none" points="162.87042073268094,127.52163394628587 158.62669972801814,126.67395922479773 153.79987202043412,124.4516282005643 152.8992961125914,124.16142169916566 144.96904495279887,122.63399926290003 142.1571748520364,122.72564554739802 141.53519436888746,122.59581327567139 140.89377699565375,122.21395225948072 140.55687090064748,121.87791284485138 140.24588065908756,121.35857603612385 139.87657974721515,120.31989087770489 140.67997120460495,119.5255918437324 141.61294192928472,118.8152975855919 140.90673492240603,119.31174056619784 139.85714285713038,120.32752832473489 140.5439129739243,121.88555012217694 141.0816669332853,122.38960858523933 141.52871540552587,122.61872487050277 142.1571748520364,122.75619428227947 144.3600223963731,122.62636206710886 145.15693489040132,122.67982242011203 153.26859702446382,124.30652509999345 158.50359942406067,126.67395922479773 162.9999999999709,127.61327384298056" stroke="#4DD2FF" stroke-linecap="round" stroke-linejoin="round" stroke-width="0.5"><title>2025-08-12 8.1km</title><desc>1754996616000</desc></polyline><polyline fill="none" points="188.71428571426077,125.89842353985296 184.04787855190807,124.96519675503805 178.77890229658806,122.53710157435125 177.91008174384478,122.24803744548262 172.95640326975263,121.20739745740866 169.22187621641206,120.56318459338218 167.90463215258205,120.53014788871224 166.23705722068553,120.6705537841408 165.57142857142026,120.55492541856802 166.18100428182515,120.6705537841408 167.83456597896293,120.54666624283709 169.2358894511417,120.57144376731594 177.83300895284628,122.25629643588763 178.83495523547754,122.61143217223434 183.83067341372953,124.91564456926426 188.31490852468414,125.84061336472223" stroke="#4DD2FF" stroke-linecap="round" stroke-linejoin="round" stroke-width="0.5"><title>2025-08-10 6.4km</title><desc>1754781124000</desc></polyline><polyline fill="none" points="32.13360557984561,159.6830436289565 28.28134147662786,158.91016996276085 23.913880958396476,156.89513357656324 23.082541288691573,156.619096204402 15.887354992592009,155.21128689936086 15.243359473824967,155.16988026979016 13.229409851453966,155.28719898332565 12.790321997745195,155.18368248266415 12.17559900257038,154.83172511522207 11.748220158275217,154.34864319205735 11.344259332865477,153.4031721971587 11.285714285710128,153.0443035996759 13.844132846657885,150.94626188410984 15.612193270935677,149.0414006683386 17.280727115023183,147.58510943411602 19.382494308112655,146.21160976763713 19.616674496763153,146.1011763399256 20.20797947308165,146.08047005078333 20.436305157025345,145.92862372361924 21.080300675792387,145.21770198580998 21.741859708708944,143.79583456811451 22.33901918976335,143.22983962543003 25.014527845050907,141.78721988014513 28.322323009633692,140.3169563710435 28.322323009633692,140.8208533437246 28.907773481245385,141.20049909904992 29.083408622740535,141.42138285470355 29.177080698194914,141.78031731430747 31.243720862985356,145.45927822876183 32.09262404681067,147.3228354166895 32.62538397600292,148.06134105770252 32.631238480709726,148.27529902720198 32.87127317409613,148.64109646222278 33.3045065230981,149.90411664916974 33.638213291880675,150.49765842114357 33.91922951824381,151.72613418836772 34.01290159372729,152.96838882816155 33.74944888151367,154.74891133283745 33.81970293811173,154.85242854389435 34.42857142855064,155.0387590975697 34.358317371981684,155.59084640962465" stroke="#4DD2FF" stroke-linecap="round" stroke-linejoin="round" stroke-width="0.5"><title>2025-08-08 10.0km</title><desc>1754654808000</desc></polyline><polyline fill="none" points="60.14285714289872,153.24005862693593 53.96837944665458,151.97857154429948 46.888311688322574,148.7115687426558 39.57955957087688,147.13733088164736 37.0,146.75994137307134 46.72365894977702,148.7115687426558 54.15132693393389,152.08639158127335 59.98735177866183,153.2077130050675" stroke="#4DD2FF" stroke-linecap="round" stroke-linejoin="round" stroke-width="0.5"><title>2025-08-07 5.0km</title><desc>1754573743000</desc></polyline><polyline fill="none" points="85.85714285710128,153.25159321424144 79.7391255479306,152.02825428539654 72.74710576597136,148.81960019956023 71.8548949083197,148.5513133518907 62.71428571426077,146.74840678575129 65.14510509156389,147.26352631389454 65.34539732488338,147.177673246224 65.8825446779374,147.40303738931107 72.24637518258533,148.7015540766006 79.82106327969814,152.114103126798 85.44745419797255,153.24086223701306" stroke="#4DD2FF" stroke-linecap="round" stroke-linejoin="round" stroke-width="0.5"><title>2025-08-04 5.0km</title><desc>1754309955000</desc></polyline><polyline fill="none" points="111.57142857144936,152.69315962117253 106.9456648901687,151.76650824039098 101.61094501498155,149.31744661046832 100.81073703369475,149.05267846191418 92.34537891592481,147.38130822529638 90.8572728454892,147.30684037883475 89.04627583522233,147.44750180530536 88.42857142857974,147.31511458758905 88.56193942550453,147.41440502252226 89.41128298456897,147.47232438295032 91.86104250620701,147.33993720849685 95.22331990124076,148.0018707735362 95.76381125702756,148.010144906606 96.69738723518094,148.29146489452978 100.71948524634354,149.06095248053316 101.83556479917024,149.45810431402788 106.86143247110886,151.75823451645556 111.09411152999382,152.61042335026286" stroke="#4DD2FF" stroke-linecap="round" stroke-linejoin="round" stroke-width="0.5"><title>2025-08-03 6.5km</title><desc>1754227262000</desc></polyline><polyline fill="none" points="134.60514535044786,152.71059327735566 128.4637048789882,151.4878844010018 120.72493908309843,148.04690609918907 114.14285714284051,146.70510867884877 121.29410098033259,148.19839821781352 128.7023856746382,151.58526884527237 137.28571428568102,153.2948913211585 134.79792599310167,152.73223400691495 134.79792599310167,152.56992842035106" stroke="#4DD2FF" stroke-linecap="round" stroke-linejoin="round" stroke-width="0.5"><title>2025-08-01 5.0km</title><desc>1754057984000</desc></polyline><polyline fill="none" points="160.78587699314812,159.6603213799899 156.83794337778818,158.88015220612579 152.49170191996382,156.8779041939706 151.56036446467624,156.58101376023114 144.5314025382395,155.22082353004225 143.24861698664608,155.17939595841744 141.97168890334433,155.28986942255142 141.36251220304985,155.17939595841744 140.85876993165584,154.89630682775896 140.48974943050416,154.54416980323003 140.06801171493134,153.74322340355866 139.85714285713038,153.04583941643796 142.44028636513394,150.90530599093472 144.2326716563548,148.99257463845424 145.87276277254568,147.55626188065798 147.1086885779514,146.84499879940267 148.07517084284336,146.133727734501 148.76049463066738,146.06467186610826 149.00650829810183,145.91274869072367 149.7562642369012,145.04954191614524 150.34201106408727,143.75125678296172 150.91604295477737,143.233316460668 153.65733810610254,141.72781255005248 156.86723071915912,140.33967862000281 156.91994793360936,140.7885809797299 157.38854539536987,141.11316993521177 157.87471526194713,141.98333637666656 158.17344614383182,142.81896115430573 158.91148714610608,144.34515647488297 160.83273673933581,147.94296467179083 161.09046534332447,148.71636317480443 161.85193621867802,150.31146777903632 162.36739342662622,152.08606078841694 162.40253823625972,153.19084067925724 162.33224861699273,153.59131863425864 162.51383013342274,153.72250913827884 162.34396355351782,154.7651187531592 163.0,155.01368540120893 162.9765701268916,155.3520106615324" stroke="#4DD2FF" stroke-linecap="round" stroke-linejoin="round" stroke-width="0.5"><title>2025-07-28 10.0km</title><desc>1753704756000</desc></polyline><polyline fill="none" points="186.4419085943955,152.83767880774394 180.29531474562827,151.60823429971788 173.25467088242294,148.38087111728964 172.1091693015187,147.99665433112386 165.57142857142026,146.690306302291 172.8262719172053,148.24913981275313 178.8890485771699,151.1032795325882 180.46294912329176,151.69605226189015 188.71428571426077,153.30969369770173 186.53503880422795,152.81572457303992 186.6467950560036,152.10220934166136" stroke="#4DD2FF" stroke-linecap="round" stroke-linejoin="round" stroke-width="0.5"><title>2025-07-22 5.0km</title><desc>1753194638000</desc></polyline><polyline fill="none" points="24.44941535333055,178.00730853663117 32.11565836297814,179.52813625075942 34.42857142855064,179.66565637082385 32.41077783424407,179.5524045257407 19.775546517543262,177.07699964019412 14.264361972542247,174.57724237036746 11.285714285710128,173.90577220060368 14.230045754957246,174.59342229957838 19.398068124020938,176.97992325796804 21.525673614640255,177.43294528967817" stroke="#4DD2FF" stroke-linecap="round" stroke-linejoin="round" stroke-width="0.5"><title>2025-07-19 6.4km</title><desc>1752877000000</desc></polyline><polyline fill="none" points="58.023440055229,186.5090678070119 54.08485663405736,185.72492931657325 49.61053167132195,183.67779662703106 48.84518661189941,183.43491211275978 41.574408547458006,182.0331033946204 39.05465712104342,182.11638002176187 38.50714104005601,182.0122842208366 37.99494857722311,181.71387531553773 37.494530653755646,181.18645150646626 37.05887269688537,180.20792997979152 37.0,179.85399296027026 39.572736853559036,177.72338935386506 41.274157793377526,175.8772712756545 42.95202965440694,174.4128312849789 45.000799505767645,173.04552753377357 45.359922956704395,172.8720097303667 45.9074390376918,172.84424683795078 46.29599883707124,172.60132101306226 46.9318239633576,171.84477465048258 47.50288912310498,170.54682555107865 48.109277900948655,169.9846040935663 51.088236362993484,168.360380888058 54.131954791606404,167.06236076442292 54.13784206126002,167.5621363511309 54.6088236362848,167.87449410081172 54.92084892973071,168.45061659747444 55.56256132572889,169.92213473632728 57.54068394083879,173.6424251672579 58.05876367338351,174.88478718652914 58.20005814588512,175.0166565927575 59.089035868732026,177.2930959373116 59.28920303811901,177.57764513507573 59.60711560124764,178.76440979084873 59.66598829816212,179.54863395157736 59.57179198315134,180.742301754246 59.283315768436296,181.85961007181322 60.14285714284051,182.0539225616085" stroke="#4DD2FF" stroke-linecap="round" stroke-linejoin="round" stroke-width="0.5"><title>2025-07-17 10.0km</title><desc>1752756134000</desc></polyline><polyline fill="none" points="85.85714285710128,180.0514389204036 79.72167974256445,178.8227833619676 71.94033978664083,175.363066024438 62.71428571426077,173.5199896510312 72.35180899704574,175.53551585873356 79.54794829821913,178.8120056141197 85.57368628995027,180.0406613063751" stroke="#4DD2FF" stroke-linecap="round" stroke-linejoin="round" stroke-width="0.5"><title>2025-07-14 5.0km</title><desc>1752500928000</desc></polyline><polyline fill="none" points="111.57142857142026,180.02763300745573 105.43739528645528,178.82261017479323 99.09527532669017,175.87930622136628 97.59343236900168,175.3354251539422 88.42857142857974,173.5437955639718 98.19055065338034,175.49539048736915 105.54596224724082,178.865266103443 110.92002680664882,179.9423221442048" stroke="#4DD2FF" stroke-linecap="round" stroke-linejoin="round" stroke-width="0.5"><title>2025-06-21 5.0km</title><desc>1750468889000</desc></polyline><polyline fill="none" points="129.97688448801637,178.2069861391501 135.9949834420695,179.40903841841282 137.28571428571013,179.47790523575895 136.17557952718926,179.40903841841282 126.33840453784796,177.4869948744381 125.28138627496082,177.07377842395726 122.12095478540868,175.57114811163774 121.56323158135638,175.38957762248174 115.11488901276607,174.13735173579335 114.14285714286962,174.09352333566494 115.00334437197307,174.1123069398309 117.51575461489847,174.57563389909774 122.035968392418,175.55236498416343 125.39824256530846,177.1426480386399 126.25872979441192,177.47447320745778 127.19358011736767,177.66229792583908" stroke="#4DD2FF" stroke-linecap="round" stroke-linejoin="round" stroke-width="0.5"><title>2025-06-17 8.1km</title><desc>1750165544000</desc></polyline><polyline fill="none" points="163.0,180.0136299107471 157.16506463376572,178.8532998040464 149.5581703679054,175.45661722678778 139.8571428571595,173.55779866068042 149.57606894266792,175.49881277210807 157.03977461054455,178.84275128478475 161.96188266488025,179.84485548631346" stroke="#4DD2FF" stroke-linecap="round" stroke-linejoin="round" stroke-width="0.5"><title>2025-06-15 5.0km</title><desc>1749939796000</desc></polyline><polyline fill="none" points="181.56309853156563,178.11225271128205 187.02499011944747,179.20359778332931 188.71428571426077,179.30808709700432 187.38451950260787,179.22681764851222 178.2436080625048,177.45046875384287 177.35217219465994,177.1137684993373 174.37251086853212,175.69728206579748 173.70762776274933,175.47667833188825 167.6990545100707,174.31559099910373 166.9701456236944,174.2633414744305 165.57142857142026,174.3736459664724 167.55622776882956,174.3039799980579 173.4515246404917,175.4418460799243 174.16565834672656,175.63922854012344 175.8697291216813,176.44616687814778" stroke="#4DD2FF" stroke-linecap="round" stroke-linejoin="round" stroke-width="0.5"><title>2025-06-11 8.1km</title><desc>1749642919000</desc></polyline><polyline fill="none" points="34.42857142863795,206.79223891332367 28.416274303512182,205.62875940347294 20.860521796974353,202.2545900044206 11.285714285739232,200.3506182295314 20.968204730539583,202.29690006434976 28.479089348053094,205.6816451380946 33.43250429298496,206.67589158952615" stroke="#4DD2FF" stroke-linecap="round" stroke-linejoin="round" stroke-width="0.5"><title>2025-06-08 5.0km</title><desc>1749387304000</desc></polyline><polyline fill="none" points="45.96583416557405,209.79115487463423 48.45814185787458,208.30302789091365 53.70169830159284,207.3490970111743 56.355844155768864,205.36491245785146 59.23656343645416,205.44122745614732 60.0133866132237,204.79254943976412 54.89930069912225,196.47410131286597 51.43596403580159,197.16095313805272 48.13446553435642,199.1070259931148 46.289510489441454,199.1070259931148 43.34405594400596,200.4807179677009 38.521278721047565,201.47282548676594 38.683116883039474,204.60176155919908 37.0,206.7004225286655 38.424175824038684,208.26487070554867 39.03916083916556,210.21088185510598 39.945454545435496,210.7832360174798 45.5774225773057,209.6003697173437 48.55524475511629,208.26487070554867 52.89250749233179,207.69251242725295 56.51768231752794,205.36491245785146 59.07472527457867,205.479384949198 60.110489510349,204.60176155919908 54.89930069912225,196.3596258776961 51.047552447300404,197.19911153326393 48.199200798990205,199.06886780582136 45.60979020956438,199.33597502979683 42.43776223761961,200.74782411474735 38.61838161817286,201.39650962353335 38.71548451529816,204.79254943976412 37.0,206.7004225286655 38.521278721047565,208.3411850721168 39.29810189793352,210.32535276227281 40.39860139857046,210.85954983517877 49.26733266701922,208.15039912474458 52.989610389457084,207.73066967487102 56.19400599389337,205.55569992266828 59.17182817158755,205.5175424380286 60.14285714284051,204.56360397054232 54.54325674311258,196.24515040504048 50.72387612366583,197.42806181733613 48.06973026972264,199.06886780582136 38.78021977993194,201.2057198927505 38.74785214778967,204.60176155919908 37.03236763214227,206.62410780478967 38.48891108878888,208.26487070554867 39.03916083916556,210.0964109103079 40.68991008971352,210.89770673780004 53.766433566226624,206.92936660093255 55.384815184632316,204.7543918720039 54.89930069912225,202.57940363459056 52.76303696294781,199.90834696652018 50.95044955029152,198.99255141877802 49.39680319663603,198.91623501494178 47.61658341647126,199.64124017916038 44.73586413578596,203.11361252333154 40.13966033956967,203.87676666505286 37.388411588268355,206.0517468447215 37.29130869114306,206.96752393167117 38.84495504479855,208.8372280485346" stroke="#4DD2FF" stroke-linecap="round" stroke-linejoin="round" stroke-width="0.5"><title>2025-06-04 6.4km</title><desc>1749041988000</desc></polyline><polyline fill="none" points="85.85714285710128,206.81339366111206 79.92560793220764,205.62876010735636 73.16850384976715,202.50845079131977 72.14551598072285,202.169970533163 62.71428571426077,200.32946348175028 72.41472331469413,202.2757457405387 79.7910042652511,205.60760580544593 84.71749847667525,206.62300710011914" stroke="#4DD2FF" stroke-linecap="round" stroke-linejoin="round" stroke-width="0.5"><title>2025-05-28 5.0km</title><desc>1748436903000</desc></polyline><polyline fill="none" points="111.57142857147846,206.80326013315062 105.14489150093868,205.48682218236354 97.70219258591533,202.1201144174629 88.42857142857974,200.32880660697992 97.40009041590383,202.0553689161825 98.51695298374398,202.41146864961047 105.68501356244087,205.69184235730063 111.46157323691295,206.81405053588242" stroke="#4DD2FF" stroke-linecap="round" stroke-linejoin="round" stroke-width="0.5"><title>2025-05-27 5.0km</title><desc>1748351986000</desc></polyline><polyline fill="none" points="131.28122719033854,208.34548758702294 131.31215464294655,206.9599916939551 132.03894978004973,205.31469562753045 132.518325296056,202.2621818169937 132.48739784338977,202.5436223406723 131.7915301588946,202.63021929899696 128.4049740943592,205.03326126414322 127.12148480961332,205.3363443988419 126.61118184099905,204.49203957596183 127.19880344119156,203.5394837852 128.28126428381074,202.69516697887593 128.11116329423385,201.24466085741733 128.62146626284812,200.31373026238725 127.94106230471516,199.92403635276423 125.45140236685984,199.96733573534584 124.80192586127669,199.0147458987849 125.01841802988201,197.88894866859482 125.49779354583006,198.0404988788723 125.45140236685984,197.30439615800424 126.16273377765901,197.73739827688405 127.46168678876711,197.69409813163657 128.49775645229965,198.38689867823996 129.9049555476522,198.43019858658954 130.4771134215407,198.1487489180363 131.88431251683505,196.17858371752664 131.94616742210928,192.88768994472048 131.43586445349501,192.30311433952738 130.6317506847554,191.99999999999272 129.64207220013486,192.2814633393573 128.760639799817,193.25575468159514 128.08023584156763,193.49391364694748 126.6885004726355,193.2341038443119 125.21944647200871,192.43302026288438 123.8741022820468,192.88768994472048 123.19369832379743,193.92692879967217 123.22462577646365,195.03111073489708 123.81224737665616,195.85382826830028 125.14212784043048,196.48168805179012 125.45140236685984,197.23944571246102 124.84831704024691,198.646697905795 125.28130137734115,199.9456860459468 125.38954746158561,201.74259766799514 124.81738958758069,203.6910272313835 125.26583765097894,204.23225234379788 126.58025438839104,204.55698630068218 127.0905573569471,205.3363443988419 125.91531415650388,207.24142177434987 124.4617238821811,207.82592840392317 122.03391884965822,209.60108014357684 120.27105404896429,210.3587592827098 119.86899716453627,211.39785472874064 118.87931867991574,212.48023675000877 119.7298236276838,214.90473889980058 120.5030099437572,215.07791584826919 121.52361588104395,214.45014828319836 122.71432280784938,214.94803315919125 123.58029148186324,214.83979748310958 124.2606954400544,214.12543970063416 124.75553468236467,212.32870382404508 125.93077788280789,211.67927494443575 128.62146626284812,212.52353183841478 129.64207220013486,212.0256374281089 131.2348360113101,211.93904689607734 131.32761836925056,207.13317950984492 132.5492527487222,202.8467114356681 132.3636880328413,202.5436223406723 131.89977624313906,202.5869208272561 128.4204378206632,205.05491008352692 127.16787598858355,205.31469562753045 125.79160434589721,207.30636708871316 124.32255034532864,207.8908734184297 122.01845512335422,209.60108014357684 120.36383640690474,210.2505196833008 119.86899716453627,211.46279791100096 118.87931867991574,212.56682691193419 119.65250499604736,214.7965031867716 120.16280796466162,215.14285714285506 121.4308335230453,214.45014828319836 122.88442379736807,214.96968028326228 123.85863855568459,214.58003148309945" stroke="#4DD2FF" stroke-linecap="round" stroke-linejoin="round" stroke-width="0.5"><title>2025-05-23 6.4km</title><desc>1747958832000</desc></polyline><polyline fill="none" points="153.53121157863643,204.6522085291217 154.1575299211545,205.24721661600051 155.72332577756606,205.49774575843185 156.50622370571364,206.49985890068638 156.30490709561855,210.44562609303102 155.92464238766115,211.1658760079008 154.5601631414611,211.57297253288561 153.2180524073774,211.10324569305521 151.96541572210845,211.38508194148017 149.84040705987718,210.13247307261918 148.56540186249185,210.63351764829713 147.62592434871476,210.47694136567588 147.8943464953918,209.56879628634488 147.22329112852458,207.8151240777952 147.42460773850325,206.56249078997644 146.70881534705404,205.3724812300061 147.02197451831307,203.49350302219682 151.54041398968548,203.30560414101637 153.08384133398067,203.86930020610453 153.88910777424462,205.15326809915132 155.61148321640212,205.46642963433987 156.3720126323169,206.18669913275517 156.30490709561855,210.53957189474022 155.96937941212673,211.1658760079008 154.64963719027583,211.54165744774218 153.3746319928905,211.13456085315556 151.92067869764287,211.3537668242061 149.7956700354116,210.16378839872777 147.08908005501144,210.7274633535999 145.6351267597638,211.91743811639026 146.10486551665235,212.26190305199998 146.46276171237696,214.14079129516904 148.654875911423,215.14285714285506 149.5943534253165,214.4852520486893 150.220671767951,213.20134958311974 150.13119771890342,212.19927311188076 148.96803508268204,210.35168024306768 150.13119771890342,210.16378839872777 151.94304720999207,211.3537668242061 153.3746319928905,210.94666981196497 153.1956838950282,210.47694136567588 151.74173059978057,210.50825663289288 150.958832671633,209.50616542520584 151.696993575315,206.56249078997644 149.77330152317882,203.61876883586228 149.90751259657554,201.2700205703586 150.42198837792967,200.267878808183 151.4509399406379,199.6728545420774 153.3970005052397,200.2991958213388 154.98516487388406,199.89207423350308 153.1956838950282,201.64582231733948 151.33909737959038,201.55187195292092 150.220671767951,200.7063165040745 148.4982963257935,200.33051282902306 148.54303335025907,196.50979835441103 149.30356276617385,194.91259080640157 149.34829979063943,192.53241253233864 149.8180385476444,192.06263684880105 151.24962333065923,192.0 155.36542958184145,192.59504919910978 156.2154330466874,193.34668752884318 156.50622370571364,194.91259080640157 157.22201609727927,195.69553742361313 156.7522773402743,196.32189230713993 157.04306799941696,196.7290218325361 155.6338517286349,197.5745956467872 155.47727214288898,199.54758602910442 153.3970005052397,201.5831887463719 151.76409911201335,201.64582231733948 150.1535662311362,200.61236565758009 148.58777037472464,200.4244638200471 148.52066483802628,196.7290218325361 149.48251086403616,193.53459662912064 150.48909391462803,193.15877823562187 150.51146242686082,192.2192288772785 155.09700743493158,192.50109419100045" stroke="#4DD2FF" stroke-linecap="round" stroke-linejoin="round" stroke-width="0.5"><title>2025-05-20 5.0km</title><desc>1747754393000</desc></polyline><polyline fill="none" points="185.64793783635832,205.18867702170974 187.81052002403885,205.45503450394608 188.71428571431898,204.50375684912433 183.35624626430217,196.43681817341712 179.6120741184568,197.35006586831878 176.70711297087837,199.06239885889227 174.89958158996888,199.13850235252175 170.50986252247822,200.81277501530712 166.99163179926109,201.3074449476553 167.28212791401893,204.5418080050149 165.57142857147846,206.7487679560145 166.99163179926109,208.00444584077923 167.50806933664717,209.75477717717877 168.28272564255167,210.51578806547332 169.7352062164573,210.7440910085861 176.9976090856362,208.38495339936344 181.32277346099727,207.77614110670402 185.06694560684264,205.30283025334938 187.81052002403885,205.37893238701508 188.6497310223058,204.65596144803567 183.4853556486778,196.47487020833069 182.06515242077876,196.5129222391115 176.83622235513758,198.9862953488191 174.4476987448288,199.252657561854 171.44590555888135,200.62251716238097 166.73341303062625,201.49770242732484 167.41123729851097,204.00909144448815 165.57142857147846,206.71071704057977 166.92707710713148,207.85224270125036 167.34668260626495,209.45037235759082 168.3150029887911,210.4777375604899 169.7352062164573,210.667990044225 177.6108786611585,208.08054738567444 181.83921099838335,207.54783622329705 184.9055588762276,205.37893238701508 187.84279737004545,205.37893238701508 188.6497310223058,204.57985915688914 183.4853556486778,196.5129222391115 182.35564853565302,196.3987661342544 179.45068738807458,197.35006586831878 176.9330543933902,198.9862953488191 174.86730424384587,199.06239885889227 170.9940227138577,200.6986203159904 167.1530185296433,201.3835479518748 167.34668260626495,204.38960335642332 165.63598326372448,206.63461519713746 166.92707710713148,207.92834427932394 167.8308427974116,210.1733333710581 169.86431560083292,210.62993955571437 176.41661685612053,208.42300413234625" stroke="#4DD2FF" stroke-linecap="round" stroke-linejoin="round" stroke-width="0.5"><title>2025-05-14 5.0km</title><desc>1747227249000</desc></polyline><polyline fill="none" points="19.481209428457078,241.677620642673 19.95262355590239,241.2474184051389 20.63693438610062,238.7020321549935 22.689866876404267,239.024688929072 23.7999711119337,234.57913991018722 23.587074409238994,231.72890618699603 21.442900474881753,226.36889898781374 21.53414191887714,225.16780319344252 23.0244188378565,224.3610921407817 25.24462730891537,223.98462562919303 26.674076598486863,222.99863782600733 27.84500846330775,223.10620041897346 28.286008776107337,222.6400953416305 25.928938138997182,218.87535208002373 25.335868752852548,218.78571428571013 23.708729667996522,219.37732282582147 22.689866876404267,220.07649381220108 21.807866250921506,220.09442123434565 20.013451185252052,220.8115165172203 18.173415397526696,221.08042644250963 18.295070656284224,222.47875096871576 17.42827693815343,223.57230417577375 17.58034601144027,223.9666986309312 18.097380860883277,224.3073112632701 18.614415710384492,225.50841333926655 19.26831272576237,225.58012064853392 25.107765142864082,223.82328257482732 25.76166215830017,223.24961710009666 26.00497267569881,222.47875096871576 25.716041436244268,221.47482687112642 24.697178644768428,220.38125972254784 23.450212243187707,219.9868566723162 22.35531491501024,220.29162274871487 20.895451810734812,221.94093524971686 18.81210550572723,222.2994792577374 17.610759826144204,223.37510659359396 17.641173640848137,223.9666986309312 19.26831272576237,225.22158378970926 21.123555420723278,225.02438818430528 25.062144420924596,223.82328257482732 25.913731231703423,223.03449203148193 25.959351953701116,222.17398894381768 25.335868752852548,221.04457181120233 23.86079874128336,220.04063896210573 21.807866250921506,220.11234865451115 19.876589019200765,220.88322587360744 18.14300158288097,221.22384488956595 18.279863748932257,222.5504595984239 17.44348384544719,223.64401232887758 18.112587768235244,224.3073112632701 18.44713972962927,225.27536436830997 19.222692003764678,225.59804747099406 20.135106443951372,225.13194945291616 21.823073158215266,224.84511924705293 21.427693567529786,225.58012064853392 21.473314289469272,226.15377799759153 23.389384613838047,230.95807978061202 23.845591833931394,233.18091821493 23.678315853292588,235.6726127009024 22.91797048645094,238.52277811830572 20.956279440084472,238.23597125340893 20.180727165949065,240.85306536607095 19.58765777986264,241.10401740930683 19.344347262463998,241.9285714285652 19.025002208421938,241.8030960834585" stroke="#4DD2FF" stroke-linecap="round" stroke-linejoin="round" stroke-width="0.5"><title>2025-05-06 7.1km</title><desc>1746539597000</desc></polyline><polyline fill="none" points="45.843008812342305,241.9285714285652 45.6862030790071,241.7437368312967 46.4231900254963,239.28541754298203 48.28917825152166,239.72902666444134 48.61847029149067,239.15603133078548 49.59066583780805,235.0710730477731 49.55930469115265,233.03779923715047 46.78384321206249,225.3481070483249 46.03117569221649,225.181739663778 44.964896705932915,225.6993265468045 44.30631262611132,225.56992997406633 43.06754733319394,223.64745498234697 43.91429829294793,222.723180404937 43.71045083965873,221.24433060690353 44.80809097265592,221.1888734886743 48.477345131512266,220.1536706211773 49.66906870441744,219.41423613397637 51.62914037046721,218.82268622360425 54.15371267643059,222.6862093170348 53.840101209818386,223.18531832308508 52.460210756922606,223.05591983287013 50.98623686400242,224.12807577263447 48.743914878112264,224.4608124452061 47.426746718469076,225.08931326845777 45.74892537237611,225.3111365325749 44.729688105988316,225.73629697797878 44.07110402622493,225.4590185474517 43.69477026636014,224.4238417360175 43.098908479791135,223.98019259753346 43.098908479791135,223.62896954015014 43.91429829294793,222.53832488514308 43.69477026636014,221.26281630893936 45.4196333324071,221.04098775147577 48.43030341150006,220.0797273174976 51.28416775725782,218.78571428571013 51.72322381043341,218.9336019889597 54.138032103015576,222.6862093170348 53.902823503129184,223.14834733596945 52.5699747701874,223.05591983287013 50.64126425073482,224.25747344504634 49.073206917906646,224.3683856571297 44.80809097265592,225.6993265468045 44.149506892834324,225.5144742698467 43.72613141295733,224.4238417360175 43.098908479791135,223.94322178367293 43.89861771953292,222.57529600517591 43.71045083965873,221.24433060690353 45.35691103915451,221.04098775147577 48.30485882493667,220.1351847983169 49.35545723786345,219.48817972773395 51.31552890391322,218.78571428571013 51.676182090479415,218.9336019889597 54.12235152971698,222.6677237701224 53.88714292983059,223.1298618393048 52.460210756922606,223.03743432622286 50.939195144106634,224.14656116046535 48.72823430469725,224.4608124452061 47.14449639857048,225.14476911169186 45.843008812342305,225.25568074370676 44.83945211925311,225.71781176341756 44.10246517282212,225.44053330266615 43.71045083965873,224.4238417360175 43.08322790643433,223.96170719161455 43.06754733319394,223.64745498234697 43.69477026636014,223.03743432622286 42.957783319812734,223.721396731009 43.647728546347935,224.53475383938348 43.96134001290193,225.38507755610044 44.63560466602212,225.79175260980264 48.54006742476486,224.5717245243868 50.87647285073763,224.29444419048377 52.381807890255004,223.14834733596945 53.77737891644938,223.14834733596945 54.18507382302778,222.723180404937 51.56641807721462,218.78571428571013 49.57498526445124,219.37726432505588 48.336219971533865,220.17215644204407 47.222899265238084,220.24609970550227 45.5137167723733,220.94855910028855 43.49092281301273,221.35524478893785 43.83589542633854,222.53832488514308 43.03618618653854,223.51805684462306 43.00482503982494,223.9986780015024 43.63204797299113,224.4792977967445 43.91429829294793,225.3481070483249 44.51016007945873,225.71781176341756 46.78384321206249,225.32962179146125 49.23001265124185,231.68843134895724 49.512262971140444,233.13022130260651 49.57498526445124,234.99713624521974 48.46166455815546,239.56267337978352 46.3291065855301,239.30390127950523 45.85868938558269,241.54041854180105 45.607800212397706,241.7437368312967" stroke="#4DD2FF" stroke-linecap="round" stroke-linejoin="round" stroke-width="0.5"><title>2025-04-29 10.1km</title><desc>1745929124000</desc></polyline><polyline fill="none" points="84.96818546153372,228.14967748911295 84.57864233304281,227.8200157467436 84.79838461067993,226.60732282868412 84.24902891670354,228.4204703111027 83.82952093228232,228.47933822613413 82.58098526421236,233.37703647252783 82.44114926940529,233.41235560599307 76.07861150504323,232.15263271285949 67.96812380541814,228.5028853831609 62.71428571426077,227.38438975946337 67.92817066400312,228.51465895975707 74.330661569722,231.5168791373726 76.14852950244676,232.199725421553 85.85714285715949,234.10696288560575 82.53104383748723,233.3888095182847 82.74079782969784,232.52937380820367 83.33010666497285,232.38809605130518 84.66853690112475,226.76038190833788 84.9282323201187,226.6661917311285 84.57864233304281,227.58454245809844" stroke="#4DD2FF" stroke-linecap="round" stroke-linejoin="round" stroke-width="0.5"><title>2025-04-22 6.3km</title><desc>1745328842000</desc></polyline><polyline fill="none" points="96.64249337324873,241.2484988549695 97.0271242040908,241.07848029489105 97.82843843480805,238.45261692506028 99.87980286538368,238.75487660386716 100.95356393454131,234.8443513297534 100.77727480378235,230.89595374102646 98.54962124238955,225.43605968586053 98.50154238851974,224.49142389277404 99.70351373462472,223.50899720886082 102.23566670366563,223.09335347465822 104.0626631497289,221.90309545119817 105.26463449583389,222.01645371021004 105.76144931884483,221.58191331490525 104.68768824962899,219.90042065523448 103.24532263440778,220.63725652456924 102.0914301421144,219.29583503909816 100.8574062268599,218.78571428571013 98.54962124238955,218.97464807309734 96.97904535022099,219.67370129621122 94.86357578111347,220.03267347773362 95.18410147336544,221.35519615460362 94.25457696575904,222.69660170804127 94.94370720419101,223.2822825682524 95.29628546576714,224.26471053670684 96.01746827334864,224.6425659655215 98.64577895007096,224.01910406642128 100.16827598842792,223.35785414805287 102.17156156519195,223.09335347465822 103.82226888043806,221.97866763216734 105.26463449583389,221.99756067228736 105.74542303418275,221.54412714210048 104.70371453429107,219.90042065523448 103.26134891901165,220.59947014592763 102.0914301421144,219.27694170463656 100.95356393454131,218.80460767372278 98.46948981937021,218.97464807309734 97.01109791948693,219.65480800293153 95.2642328965594,219.9193139217532 95.02383862732677,220.1082464739011 95.15204890421592,221.41187547246227 94.25457696575904,222.60213686790667 94.91165463492507,223.2822825682524 95.24820661189733,224.28360332766897 95.9373368503293,224.6803514630592 100.20032855775207,223.3389612562314 102.10745642677648,223.13113930985855 103.83829516510013,221.97866763216734 105.32873963419115,221.97866763216734 105.72939674963709,221.50634096110298 104.67166196502512,219.86263411599793 103.1812174958759,220.5805769534636 102.07540385756874,219.27694170463656 101.09780049603432,218.86128782534797 98.95027835777728,218.8801812051097 96.85083507333184,219.67370129621122 95.23218032723526,219.9193139217532 95.00781234266469,220.08935322795878 95.11999633500818,221.58191331490525 94.23855068115517,222.65881577816617 94.95973348879488,223.32006836232904 95.28025918110507,224.28360332766897 95.80912657338195,224.62367321366037 102.2516929883277,222.84774534520693 103.03698093432467,222.20538397724158 103.30942777276505,221.24183746331255 103.08505978825269,220.52389736381883 102.29977184213931,219.56034150558116 101.06574792682659,218.82350105968362 98.9342520731152,218.89907458283415 96.78672993479995,219.73038116378302 94.99178605806082,220.03267347773362 95.18410147336544,221.3174099323951 94.25457696575904,222.62102984002559 95.03986491187243,223.58456868988287 94.73536550422432,224.17024655079877 95.53667973494157,225.8139125621965 96.16170483489987,228.57221361622214 96.43415167334024,231.67052686303214 96.37004653480835,233.71084925955802 94.799470642698,241.39962632398237 95.9373368503293,241.9285714285652" stroke="#4DD2FF" stroke-linecap="round" stroke-linejoin="round" stroke-width="0.5"><title>2025-04-15 8.8km</title><desc>1744723077000</desc></polyline><polyline fill="none" points="137.13362541078823,227.88475764189207 136.46189954620786,227.839939036945 136.95618838991504,226.3907962510857 136.37318103585858,228.81100553243596 136.5125958379358,229.18449081554718 135.73947739007417,231.75404199738114 134.99170708813472,231.76898110768525 135.0043811609503,232.39642227200966 134.1425442028558,235.18999452599382 125.73963386012474,233.51684578423738 116.10733844462084,229.05003623077937 114.14285714284051,228.48233764206816 116.24675324675627,229.15461203032464 125.72695978713455,233.53178470260173 134.16789234866155,235.17505578824785 134.4467219527578,234.0546458196477 135.080425598484,233.97995149635244 135.6254107338027,232.39642227200966 137.28571428568102,225.5242911882815 136.8421217337018,227.98933432990452" stroke="#4DD2FF" stroke-linecap="round" stroke-linejoin="round" stroke-width="0.5"><title>2025-04-11 5.1km</title><desc>1744377642000</desc></polyline><polyline fill="none" points="146.51652716432,241.9285714285652 147.29925942100817,241.06241777959804 147.50692308094585,241.70261872108676 148.28965533775045,241.06241777959804 149.1682323605637,238.40744151313265 151.2288948324276,238.87818495981628 151.59629976929864,238.74637692396936 152.55474743060768,234.62261761561967 152.61864394141594,232.36298175281263 152.2192907491699,230.34811486255785 149.91901636199327,225.33909166097874 149.85511985124322,224.49168616138923 150.9733087894856,223.55011962217395 153.54514334729174,223.13582871986728 155.3342456484679,221.91178161608696 156.50035696977284,222.02477094266214 157.09139969432727,221.5351499938115 155.82944360683905,219.55782051116694 154.503591008659,220.32992328706314 152.93812649522442,219.01169695267163 151.53240325854858,218.9363694298372 150.78161925717723,219.29417487076716 149.2640771266888,220.951369357339 147.0915957610705,221.2715073698928 145.8296396736405,222.36373847929644 145.76574316283222,222.7215368245379 146.4206823981367,223.26764866012672 146.69224256882444,224.15272279814235 147.41107831482077,224.56701126287226 153.7208587519708,222.79686269751983 154.58346164715476,221.9682762885932 154.67930641316343,221.0455276578723 153.73683287960012,219.57665232718864 152.2192907491699,218.78571428571013 150.17460240493529,218.89870565611636 148.17783644387964,219.67081137672358 146.45263065351173,219.97211999053252 146.59639780269936,221.29033899925707 145.76574316283222,222.30724393604032 145.76574316283222,222.66504239819187 146.4206823981367,223.21115441234724 147.107569888758,224.5481799905392 147.81043150700862,224.56701126287226 148.75290504074655,224.07739751607005 149.6155079359305,224.15272279814235 152.1394201106741,230.83771084650652 152.44292853679508,232.5889466683875 152.34708377067,234.3966553585924 151.4525326200528,238.21914377558278 149.3918701482471,237.8990371509135 148.5771896361257,240.38455537507252" stroke="#4DD2FF" stroke-linecap="round" stroke-linejoin="round" stroke-width="0.5"><title>2025-04-08 5.6km</title><desc>1744119870000</desc></polyline><polyline fill="none" points="173.87578089203453,239.9766804357787 174.50234346068464,239.06227293485426 174.9797244653455,237.02242215415754 176.96383926604176,237.3917073957855 178.0230283702258,233.31193784285279 178.06778283941094,231.65889841452008 177.78433786786627,230.0410136468563 175.75546859798487,225.01139874254295 175.75546859798487,224.04414713958977 176.8743303277297,223.2175820858829 179.21648088196525,222.8658509919478 180.7679691471276,221.81065311119892 182.11060322273988,221.81065311119892 182.46863897627918,221.35339855388156 181.2901046210318,219.4891934903426 179.84304345061537,220.05197464644152 178.47057306207716,218.90882336786308 176.26268591545522,218.85606234417355 174.21889848913997,219.61230203595187 172.51822865998838,219.92886643625388 172.60773759835865,221.35339855388156 171.81707530940184,222.30307964737585 172.39888340886682,222.97137040062808 172.74200100597227,223.95621488826873 173.6669267024845,224.27277076883183 174.4874253042508,223.83310965592682 175.87481384916464,223.67483136212104 177.23236608121078,223.07688974030316 179.30598982039373,222.77791809869814 180.8723962418735,221.74030634058 180.63370573951397,222.21514644756098 181.02157780586276,221.6347861270915 182.17027584835887,221.7227196431486 182.42388450709404,221.28305158391595 181.49895881058183,219.7881712239032 180.18616104772082,220.47405922567123 179.14189009991242,219.26056308519037 178.03794652665965,218.78571428569558 176.1582588207093,218.83847533243534 174.3233255839441,219.57712817536958 172.56298312917352,219.85851884538715 172.54806497273967,221.4237454931863 171.86182977852877,222.1272131998121 171.81707530940184,222.4789459033782 172.41380156524247,223.0065435215074 172.57790128560737,223.74517728964565 173.38348173099803,224.25518434733385 174.44267083512386,223.81552318648028 175.81514122354565,223.67483136212104 177.06826636084588,223.11206283816136 178.26171887258533,222.95378383730713 178.39598228014074,223.95621488826873 181.4542043413967,230.1641141447908 178.33630965452176,231.25442874275905 178.1572917777812,234.0153537422011 177.39646580151748,236.98725208709948 177.0085937352851,237.2861974129919 175.93448647472542,241.9285714285652 171.81707530940184,240.87349814652407 172.44363787805196,238.1830300690781 172.6524920675438,238.07752060340135 172.2944563140045,239.80083324162115" stroke="#4DD2FF" stroke-linecap="round" stroke-linejoin="round" stroke-width="0.5"><title>2025-04-02 6.9km</title><desc>1743601029000</desc></polyline><polyline fill="none" points="19.21884035784751,268.7142857142899 19.772318142990116,268.2153838789818 20.537419787142426,265.47139852977125 23.093184853787534,266.0854409212625 24.15130414889427,261.2306098284753 23.82572898111539,257.6421704152017 21.335078948060982,251.9619243594061 21.318800189648755,251.44378469017101 21.807162941258866,250.75292942674423 22.669937135651708,250.33073876512935 25.43732606136473,249.83178486023098 26.72334797383519,248.7954914643924 27.22798948379932,248.7187287480483 27.244268242211547,248.02786279549764 26.593117906770203,246.70369547807786 26.072197638393845,246.74207727961766 25.567556128429715,246.16634937911294 25.144308410352096,246.26230415987084 24.200140424014535,245.68657469103346 23.190857404028066,245.60981061962957 22.149016867391765,245.97443966074206 20.74904364615213,247.70161959809775 18.63280505599687,248.00867203589587 17.053765492571983,249.27525768337364 17.997933478851337,251.04078611581645 19.0723315323703,251.48216545869946 22.80016720283311,250.23478620086098 25.209423443942796,249.88935653683438 27.04892314155586,248.62277530554275 28.269830020552035,248.77630078840593 28.693077738629654,248.31572393837268 27.374498309276532,246.3390679468721 25.925688812858425,247.12589483434567 25.046635860053357,246.10877648556198 23.90712277306011,245.5714285714348 21.77460542449262,245.6673836763075 19.83743317652261,246.4734044936049 17.770030861487612,246.81884085743513 17.900260928610805,248.33491466447595 17.02120797568932,249.46716380512225 17.737473344721366,250.138833584424 18.063048512442037,251.09835739721893 19.023495257191826,251.50135583979136 20.016499518824276,251.0024052511144 20.96066750510363,250.9448339384253 22.067623075447045,254.07284799806075 22.930397269898094,254.82126030426298 25.779179987381212,254.22636873037845 27.56984340993222,257.9875848753145 24.118746632011607,259.15815106392256 23.939680289826356,262.0941271175543 23.581547605339438,262.53547876402445 22.669937135651708,265.7784199930611 22.474592035112437,265.9319305240206 20.537419787142426,265.58653164120915 19.935105726821348,267.88917806893005" stroke="#4DD2FF" stroke-linecap="round" stroke-linejoin="round" stroke-width="0.5"><title>2025-03-25 6.1km</title><desc>1742909450000</desc></polyline></svg>