<?xml version="1.0" encoding="utf-8" ?>
<svg baseProfile="full" height="300mm" version="1.1" viewBox="0,0,200,300" width="200mm" xmlns="http://www.w3.org/2000/svg" xmlns:ev="http://www.w3.org/2001/xml-events" xmlns:xlink="http://www.w3.org/1999/xlink"><defs /><rect fill="#222222" height="300" width="200" x="0" y="0" /><text fill="#FFFFFF" style="font-size:12px; font-family:Arial; font-weight:bold;" x="10" y="20">Over 5km Runs</text><text fill="#FFFFFF" style="font-size:4px; font-family:Arial" x="10" y="280">Runner</text><text fill="#FFFFFF" style="font-size:9px; font-family:Arial" x="10" y="290">Elliont</text><text fill="#FFFFFF" style="font-size:4px; font-family:Arial" x="65" y="280">SPECIAL TRACKS</text><rect fill="yellow" height="2.6" width="2.6" x="65" y="283" /><text fill="#FFFFFF" style="font-size:3px; font-family:Arial" x="70" y="285.5">Over 20.0 km</text><rect fill="red" height="2.6" width="2.6" x="65" y="287" /><text fill="#FFFFFF" style="font-size:3px; font-family:Arial" x="70" y="289.5">Over 40.0 km</text><text fill="#FFFFFF" style="font-size:4px; font-family:Arial" x="120" y="280">STATISTICS</text><text fill="#FFFFFF" style="font-size:3px; font-family:Arial" x="120" y="285">Number: 62</text><text fill="#FFFFFF" style="font-size:3px; font-family:Arial" x="120" y="290">Weekly: 2.1</text><text fill="#FFFFFF" style="font-size:3px; font-family:Arial" x="141" y="285">Total: 419.6 km</text><text fill="#FFFFFF" style="font-size:3px; font-family:Arial" x="141" y="290">Avg: 6.8 km</text><text fill="#FFFFFF" style="font-size:3px; font-family:Arial" x="167" y="285">Min: 5.0 km</text><text fill="#FFFFFF" style="font-size:3px; font-family:Arial" x="167" y="290">Max: 11.4 km</text><polyline fill="none" points="34.42857142855064,46.07614404962078 34.29678673113813,46.19695928179135 32.3200162697176,45.80862395144504 26.6459529082058,43.202413156759576 25.540425724204397,42.86584326125012 16.798707461479353,41.16571193837444 15.275862068927381,41.131191127547936 13.621231979021104,41.27790446972358 12.933023003541166,41.16571193837444 11.908030912396498,40.501183687701996 11.285714285710128,39.51732643249852 11.446784471423598,39.983365602689446 11.776246215013089,40.414880908567284 12.837845166504849,41.15708173708117 13.774980792659335,41.312425216638076 15.824964974919567,41.131191127547936 16.78406471729977,41.19160253663722 25.921137072349666,42.96940338137938 31.295024178631138,45.446175926153956 32.27608803726616,45.81725364614249 33.93803949927678,46.11929236797732" stroke="#4DD2FF" stroke-linecap="round" stroke-linejoin="round" stroke-width="0.5"><title>2025-11-12 6.4km</title><desc>1762942582000</desc></polyline><polyline fill="none" points="45.95331205113325,48.877665006235475 48.89465283323079,47.429719196865335 53.29050279350486,46.82005600971752 56.36113328009378,44.61001804712578 59.205506783677265,44.76243490676279 60.01356743823271,44.0384542318352 55.03591380699072,35.96025240296149 53.71069433365483,35.693516141036525 48.054269752581604,38.36086960454122 38.42218675184995,40.5709470610891 38.90702314453665,43.46688948239898 37.03232242632657,46.01987146382453 38.35754189954605,47.23919956499594 39.03631284914445,49.296806095400825 40.36153232259676,50.05887951600016 42.8826815643115,49.144391211972106 45.662410215474665,48.877665006235475 49.08858739025891,47.39161527872784 53.19353551475797,46.97247190613416 56.23184357548598,44.724330697994446 59.30247406219132,44.838643311552005 60.14285714284051,43.84793275242555 55.16520351159852,35.96025240296149 53.80766161205247,35.579200538020814 50.25219473266043,36.989090364513686 48.08659217879176,38.47518429820775 45.95331205113325,38.55139407329261 42.074620909872465,40.11369080233271 38.228252194821835,40.76147032575682 38.90702314453665,42.39996611731476 38.81005586613901,43.77172413171502 37.19393455714453,45.410205818974646 37.03232242632657,46.21039175987244 38.51915403048042,47.505927020392846 39.10095770168118,49.41111721438938 40.42617717478424,50.173190385714406 42.78571428579744,49.22059866198106 46.05027932964731,48.877665006235475 49.28252194740344,47.429719196865335 52.967278531519696,47.08678378482 56.65203511575237,44.68622648520977 59.75498802878428,44.53380959239439 60.14285714284051,43.733619815146085 59.59337589784991,42.78101054998115 55.16520351159852,35.96025240296149 54.03391859540716,35.541095328575466 50.413806863711216,36.874775184929604 48.118914605118334,38.36086960454122 38.26057462091558,40.68526103242766 38.874700718326494,43.46688948239898 37.0,46.01987146382453 38.42218675184995,47.39161527872784 38.874700718326494,49.06818374549039 40.00598563463427,49.94456860862556 41.298882681760006,49.90646496464615 49.250199521076865,47.429719196865335 53.096568236360326,47.048679829458706 56.36113328009378,44.76243490676279 59.23782921000384,44.838643311552005 59.981245012022555,44.22897560734418 59.399441340821795,42.51427949074423 54.55107741430402,35.61730574307148 50.12290502805263,37.103405506757554 47.27853152435273,39.046757206495386 45.75937749410514,41.0282027219946" stroke="#4DD2FF" stroke-linecap="round" stroke-linejoin="round" stroke-width="0.5"><title>2025-11-04 6.4km</title><desc>1762251473000</desc></polyline><polyline fill="none" points="85.85714285715949,46.05764981113316 80.14755639099167,44.871202830196125 72.95770676693064,41.660739787585044 62.71428571428987,39.656635903149436 72.72932330827462,41.67071034399123 73.76127819551039,41.99973809619405 79.94454887218308,44.871202830196125 85.80639097743551,46.05764981113316" stroke="#4DD2FF" stroke-linecap="round" stroke-linejoin="round" stroke-width="0.5"><title>2025-10-28 5.4km</title><desc>1761648009000</desc></polyline><polyline fill="none" points="111.57142857144936,45.53898521020892 106.90237808029633,44.601190512257745 100.91426848180708,41.93581569608068 92.14147854558541,40.21643450480042 90.8712734792498,40.17530050408823 89.16836119248183,40.31515601512365 88.42857142857974,40.17530050408823 88.6170084439218,40.265795276085555 89.18929863866651,40.3645167219147 90.78054454593803,40.21643450480042 92.12752024814836,40.2493416892612 100.78864380496088,41.95226891554921 101.73780803033151,42.27310597874748 106.90935722901486,44.65054841818346 110.41288988455199,45.35800819260476" stroke="#4DD2FF" stroke-linecap="round" stroke-linejoin="round" stroke-width="0.5"><title>2025-10-17 6.4km</title><desc>1760694739000</desc></polyline><polyline fill="none" points="137.28571428571013,50.823056854824245 135.33837183224387,50.463341598180705 129.62713612918742,47.859639256465016 128.82058757569757,47.61125525270472 119.79596322047291,45.88111042649689 116.41717873964808,45.949631737632444 115.42897510653711,45.512807356186386 114.92034088360379,45.033154259792354 114.31724601928727,43.834008717749384 114.20825297149713,43.14877448276093 117.37631756000337,40.58765865717578 119.37452343574842,38.39479753913474 121.43085893697571,36.56165575955674 124.01036106751417,34.87409960252262 121.53258578159148,36.4588614968452 119.51258129626513,38.23204368968436 117.4853106077644,40.43347510892636 114.23005158107844,43.09738167438627 114.14285714286962,43.27725635671959 114.23731778425281,43.66270071885083 114.90580847725505,45.05028477789165 115.97394034537137,45.83828457674099 116.65696344472235,46.035283292570966 119.78143081406597,45.906805925187655 128.89324960755766,47.67977505623276 129.7506615833263,47.95385367336712 135.1203857367509,50.43764758832549 136.97326754880487,50.8401861117527 137.05319578381022,50.703151952089684" stroke="#4DD2FF" stroke-linecap="round" stroke-linejoin="round" stroke-width="0.5"><title>2025-10-12 10.0km</title><desc>1760258276000</desc></polyline><polyline fill="none" points="162.38558786344947,45.72274678230315 157.3489254108863,44.71243898902321 150.68900126422523,41.74402911939251 141.40455120097613,39.96471994510648 139.85714285713038,39.92001318776602 141.5865992414474,40.03625070623093 151.04551201008144,41.90496975577116 155.0202275600459,43.77364626744384 155.33122629582067,43.80940999635641 156.24905183311785,44.34586406095332 157.6068268015224,44.85549217548396 162.34007585333893,45.79427252651658 162.46902654867154,45.72274678230315 162.5524652338645,45.052189899855875 163.0,45.02536751066509" stroke="#4DD2FF" stroke-linecap="round" stroke-linejoin="round" stroke-width="0.5"><title>2025-10-09 6.0km</title><desc>1760007351000</desc></polyline><polyline fill="none" points="188.71428571431898,46.09081330116169 182.67066779371817,44.90713863061683 174.91073541843798,41.43135741948936 165.57142857142026,39.623472413128184 175.38546069315635,41.66810181589972 179.70363482669927,43.71268890768988 180.18748943362152,43.788014992496755 180.62569737958256,44.15388373031601 181.89467455621343,44.69192353075778 182.0316145393299,44.63811968258233 182.63415046490263,42.55050775037671 183.82096365175676,42.884098185022594 184.0765849535237,42.690400650426454 185.71986475063022,42.92714203004289 186.16720202873694,41.90484564501821" stroke="#4DD2FF" stroke-linecap="round" stroke-linejoin="round" stroke-width="0.5"><title>2025-10-05 5.0km</title><desc>1759662272000</desc></polyline><polyline fill="none" points="34.42857142855064,71.68667519853625 34.24720107478788,72.42207692347438 29.676668159430847,71.49854806955409 28.428840125357965,71.03677956936008 27.333363188547082,70.44673808942753 23.198119122214848,68.65093238898407 14.441558441554662,66.93205131789728 12.809225257486105,66.86363736224303 11.285714285710128,67.00046521396143 14.006269592471654,66.92349957670376 22.72655620239675,68.62527772427711 23.945364979823353,69.00154530008149 28.327272727241507,71.08808731460158 29.51706224810914,71.54130427483324 31.504881325556198,71.8833530787233 31.67174205108313,71.57550922226801 31.577429467084585,71.43868934310012 31.64997760861297,71.25911288992211 32.1723242274893,71.25056162002147 33.00662785489112,71.47289433525293" stroke="#4DD2FF" stroke-linecap="round" stroke-linejoin="round" stroke-width="0.5"><title>2025-10-02 6.2km</title><desc>1759399141000</desc></polyline><polyline fill="none" points="59.19334495678777,78.04171510107699 58.92291427089367,79.02632229698065 58.59839744778583,79.03340574798494 58.49022517341655,79.56466237510904 54.99265496901353,78.91298697594902 53.724635530641535,78.50214478177077 50.118893051869236,76.78082944489142 49.09125644544838,76.41955994835007 41.93385762505932,75.0311330108234 40.83410616905894,74.96029410704068 39.16344548721099,75.08072019756219 38.52042141187121,74.9532102124067 38.039655748027144,74.68402164495637 37.643024075368885,74.308572571681 37.33052639383823,73.79144105398154 37.0,72.80675460229395 37.883406907261815,71.97790624742629 39.64421115105506,70.58938447487162 41.453091961244354,68.66240717325854 43.045628222695086,67.25256039699889 45.2871981303615,65.778919027558 45.54560967467842,65.65847570824553 46.092480617255205,65.63722098167636 46.35690173236071,65.49552262694488 47.192232073284686,64.52488059300231 47.733093445101986,63.270817966789764 48.36409837889369,62.70400206154591 51.212634937110124,61.13106203553616 54.4758318803797,59.72105191060837 54.4758318803797,60.18869684966921 55.094817672565114,60.70593657554855 55.96620543827885,62.67566113653447 58.502244315022836,67.5217797308942 59.752235040970845,70.47603444971901 60.076751864049584,71.68745261478034 60.142857142869616,72.6650718714518 60.04670401007752,73.74185288415902 59.824349890550366,74.46441961994424" stroke="#4DD2FF" stroke-linecap="round" stroke-linejoin="round" stroke-width="0.5"><title>2025-09-30 10.1km</title><desc>1759229695000</desc></polyline><polyline fill="none" points="85.8433138418186,72.32838792013354 80.96167143282946,71.33407804872695 76.03162747024908,69.04385505512619 75.05668188998243,68.70968854536477 66.62789705069736,67.07143601652206 65.26573904138058,67.03068300885934 63.64774424859206,67.17739373258519 62.71428571428987,66.94102631382702 63.55094114135136,67.22629724325816 66.1646250373451,67.05513481611706 66.96670792606892,67.15294196527248 75.04285287464154,68.73413980396435 75.72738913312787,68.93789998188731 79.3851636860054,70.6820644041436 81.29356780063245,71.4644800959868 85.69119467324344,72.34468797189038 85.85714285715949,72.29578780593874" stroke="#4DD2FF" stroke-linecap="round" stroke-linejoin="round" stroke-width="0.5"><title>2025-09-29 6.6km</title><desc>1759141711000</desc></polyline><polyline fill="none" points="109.88560397131369,79.79763785851537 109.73072255929583,80.53488909002044 109.22437948154402,80.44361082337127 105.87060121344985,79.79061637768609 101.27181467181072,77.68413760402473 100.05063430775772,77.32602936771582 92.92608935464523,75.96379554811574 90.65052399336128,76.07614581822418 90.13822393820737,76.01997070765356 89.33998896853882,75.60567775530217 89.08979591834941,75.34586556235445 88.75024820739054,74.7841058897975 88.42857142857974,73.82910321110103 88.72046332043828,73.49204006404034 91.31174848316004,71.41344504148583 92.7473800330772,69.81934195546637 94.4868174296571,68.28840407870302 96.62537231107126,66.87681904034253 97.4295642581128,66.74338402922149 97.69762824047939,66.59590290598135 98.38268063979922,65.88658421686705 99.06177606177516,64.41876134156337 99.6753447324736,63.82881354114943 103.70821842251462,61.72181301563978 107.1811362382723,60.36627292020421 108.10446773303556,60.1485410236055 110.26685052399989,59.361890620064514 111.57142857142026,58.75082519569696 108.36061776062706,59.9869975280526 107.08582460012985,60.32413132021611 105.89442912300001,60.76661674516072 105.72763375620707,61.14588754772558 105.85273028127267,61.45492136570101 106.2161059018108,61.60943771884922 106.56756756754476,62.234522820108396 107.80661886374583,64.93847278592148 109.74263651407091,68.59740364373283 109.74263651407091,68.78701627968985 110.18345284057432,69.57355162772001 110.97573083286989,71.49069132603472 111.19018201876315,72.29826057591708 111.4820739106217,72.3684835107706" stroke="#4DD2FF" stroke-linecap="round" stroke-linejoin="round" stroke-width="0.5"><title>2025-09-26 11.4km</title><desc>1758886655000</desc></polyline><polyline fill="none" points="137.28571428573923,73.62289859772136 132.8917470096494,72.72915312040277 127.99227907351451,70.46036345522589 127.20162419494591,70.2159103575541 119.30803696447401,68.69569853179564 118.01836220349651,68.65750183039927 116.56018722249428,68.77973120161914 115.85378245392349,68.67278051344329 114.87518502224702,67.94703939242027 114.53170380447409,67.42755692557694 114.18822258673026,66.55665121563652 114.21414569753688,66.22814888429275 114.86222346685827,65.66281568799604 114.22062647520215,66.18995083891059 114.14285714286962,66.42677838484815 114.82981957838638,67.95467881174409 115.18626235151896,68.31373058168538 115.79545545467408,68.64986248761124 116.54722566710552,68.81028851115843 118.46553586429218,68.66514117232873 119.32099851986277,68.71097720653052 126.76741208945168,70.15479694998066 127.97931751815486,70.47564174557192 132.87878545428975,72.76734760451654 134.54434532145387,73.11109702548129" stroke="#4DD2FF" stroke-linecap="round" stroke-linejoin="round" stroke-width="0.5"><title>2025-09-25 7.3km</title><desc>1758798919000</desc></polyline><polyline fill="none" points="162.9999999999709,70.7534659341909 162.5646258503548,72.28497076032363 158.10884353742586,71.4189928875494 152.91156462585786,69.02146397621254 151.60544217686402,68.62053178945644 143.57823129248573,67.08895073454187 142.20408163263346,67.06489423344465 140.74829931970453,67.20121430240397 139.85714285713038,67.00074352539377 140.61904761905316,67.23328957606282 142.35374149656855,67.10498839757201 143.802721088432,67.17715783799213 151.94557823130162,68.71675571342348 152.6802721088461,68.94127771354397 158.04081632650923,71.42701124789892 161.96598639458534,72.196769776172" stroke="#4DD2FF" stroke-linecap="round" stroke-linejoin="round" stroke-width="0.5"><title>2025-09-23 6.7km</title><desc>1758623965000</desc></polyline><polyline fill="none" points="188.71428571428987,72.35558083016076 184.00410940742586,71.43589771484403 178.64968406167463,68.97210566345166 177.45424417834147,68.59240471488738 168.90004860589397,66.93013643295126 167.5614422694489,66.88794641853019 165.57142857142026,67.02295438384317 168.67098228092073,66.93013643295126 177.21086120809196,68.55865342941979 178.5208342538972,68.92147897782706 184.10432592462166,71.48652275741915 188.71428571428987,72.39776786717994" stroke="#4DD2FF" stroke-linecap="round" stroke-linejoin="round" stroke-width="0.5"><title>2025-09-22 6.4km</title><desc>1758538508000</desc></polyline><polyline fill="none" points="33.44878272851929,106.67039958831447 29.41800643087481,105.87368615303421 24.66789159394102,103.71739593416714 23.756316031242022,103.4177026575926 16.420303169521503,101.98500411213172 14.994028479559347,101.91921619954519 13.561552595318062,102.04348220251268 12.960036747826962,101.93383574124891 12.377124483231455,101.62682469660649 11.943040881946217,101.22478429992043 11.285714285710128,99.70431883812853 11.397335783200106,99.52156826625287 14.076251722552115,97.37969446265924 15.793982544797473,95.50092975131702 17.660542030323995,93.84874298876093 19.90537436841987,92.39390768198064 20.761139182344778,92.27693462868774 21.089802480506478,92.02105536351155 21.78433624256286,91.18761327568063 22.379650895745726,89.85700883054233 23.030776297673583,89.25749710369564 25.82131373451557,87.7148264407806 29.34359209923423,86.18674326883047 29.349793293513358,86.64736530680239 29.839687643543584,87.02024749672273 30.310978410649113,87.85374136645987 30.54662379421643,88.53368922039226 32.09072117591859,91.52391571517364 32.12792834173888,91.76517512228747 33.01469912723405,93.23464550125937 34.428571428579744,96.40011164417956" stroke="#4DD2FF" stroke-linecap="round" stroke-linejoin="round" stroke-width="0.5"><title>2025-09-21 9.0km</title><desc>1758451095000</desc></polyline><polyline fill="none" points="58.8090787716792,105.0518647143108 58.508678237645654,106.32655732265266 58.40053404538776,106.35488354127301 54.45927903871052,105.58298967104201 49.785046728968155,103.43721820502105 49.0100133511005,103.2035160465748 41.90253671561368,101.8225315992895 38.76034712945693,101.8225315992895 38.201602136163274,101.58882363700832 37.64886515351827,101.10015881942672 37.348464619455626,100.62565468471439 37.0,99.61289547006163 37.486648865102325,99.09588643167808 39.74566088113352,97.31819384339906 41.560080106777605,95.36338412075565 43.062082777003525,94.05306208573893 45.441255006648134,92.49480690207565 46.14419225632446,92.42397623332363 46.45060080103576,92.21856685742387 47.17156208274537,91.36150693881063 47.74232309742365,90.07235420503275 48.39719626164879,89.48443540193693 51.23297730306513,87.9260706717323 54.483311081450665,86.50225931587192 54.495327102806186,86.99811755749397 54.975967957259854,87.31688157184544 55.27036048064474,87.86940215918003 56.129506008001044,89.781937147789 58.10614152200287,93.52184292471065 59.758344459260115,97.28278114661225 60.07676902535604,98.51513164965581 60.14285714284051,99.3296033555016 60.022696929227095,100.5760794260641 59.686248331097886,101.7729572532553" stroke="#4DD2FF" stroke-linecap="round" stroke-linejoin="round" stroke-width="0.5"><title>2025-09-18 10.1km</title><desc>1758194958000</desc></polyline><polyline fill="none" points="77.37616810371401,97.72994445372024 77.30925706026028,97.91725359671545 77.81945376633666,98.06512896213826 85.85714285715949,99.63259298585035 71.0196189788112,96.68494949102023 64.74670865817461,93.76678647209337 62.71428571428987,93.22454987129458 64.7048892560415,93.79636292053328 71.11998554391903,96.72438348221476 76.01285559401731,97.71022767928662" stroke="#4DD2FF" stroke-linecap="round" stroke-linejoin="round" stroke-width="0.5"><title>2025-09-16 5.4km</title><desc>1758020593000</desc></polyline><polyline fill="none" points="111.56436420721002,99.10985070835159 106.85949764522957,98.16893249398709 101.4552590266976,95.67919038992841 100.3673469387868,95.37108957586315 91.77001569859567,93.72231276737875 88.42857142857974,93.78893070150662 88.8665620094398,93.86387580798328 90.68210361068486,93.71398552152095 91.92543171116267,93.75562174167862 100.62872841444914,95.42937901429104 101.54709576140158,95.74580661889195 106.91601255888236,98.21056628812221 111.57142857144936,99.1431573356167" stroke="#4DD2FF" stroke-linecap="round" stroke-linejoin="round" stroke-width="0.5"><title>2025-09-15 6.5km</title><desc>1757932870000</desc></polyline><polyline fill="none" points="137.28571428571013,106.88089043473155 133.01607742760098,106.02557998204429 127.96896496560657,103.7116074493606 127.3081107022881,103.50540817170986 119.21588545831037,101.9321640904891 117.99136138218455,101.90161531235208 116.55951047831331,102.03144752752269 115.93105103183188,101.93980128295516 115.24428091503796,101.58085233828024 114.86850103983306,101.22190155596036 114.49920012801886,100.61091727474559 114.18820988640073,99.81662974902429 114.14285714286962,99.5798692263852 114.25299952007481,99.427120077773 116.9936010238016,97.18166918732459 118.8206686930207,95.19583636072639 120.73844184933114,93.50019611298922 123.20692689169664,91.91908919534035 124.01031834905734,91.81979143532226 124.36666133417748,91.5677272588 125.04047352424823,90.81916769409145 125.68836986084352,89.35257883964368 126.36218205085606,88.6956592962888 129.43321068628575,87.01513941535086 131.7138057910779,85.9762524224061" stroke="#4DD2FF" stroke-linecap="round" stroke-linejoin="round" stroke-width="0.5"><title>2025-09-13 7.0km</title><desc>1757768754000</desc></polyline><polyline fill="none" points="163.0,99.24809483383433 157.8839722390403,98.24305741984426 152.25483254922437,95.64591231398663 151.3342493828095,95.34349963860586 142.09068890029448,93.54678947526554 139.85714285713038,93.55568417741597 142.21142111884546,93.61794706523506 151.06260189111345,95.32571062284842 152.1416460943874,95.64591231398663 157.9292468209751,98.29642254920327 162.9698169453477,99.31035338188667" stroke="#4DD2FF" stroke-linecap="round" stroke-linejoin="round" stroke-width="0.5"><title>2025-09-11 6.0km</title><desc>1757587445000</desc></polyline><polyline fill="none" points="186.5032220693247,106.12533690417331 182.5678806747892,105.35109203142929 178.20440228798543,103.32556747212948 177.2015060459089,103.02830074961093 170.25747592496919,101.68712659828452 169.04930852216785,101.64564653354319 167.6886539714469,101.75625997925818 167.01419158640783,101.63181983929098 166.18137716309866,100.98196181087405 165.83534863512614,100.36666456620151 165.57142857142026,99.50247296995803 168.1578451958485,97.35231321462197 168.94960538699524,96.59870300394687 169.87625805518473,95.50629800150637 171.5829411338491,94.00593895906059 172.84389254939742,93.26611752319877 173.69430164361256,92.63691680359625 174.45087249291828,92.51245877917972 174.7910361305985,92.31194255968148 175.4654985156667,91.53752914116194 176.04025776553317,90.22377047128248 176.6853956990526,89.65677148282703 179.33632611684152,88.18393335770088 182.63239446817897,86.73180595297163 182.62652957785758,87.22276703330135 183.11331547316513,87.52010781178979 183.44761422052397,88.12861482753215 184.0986170443648,89.64985682973929 186.702628339699,94.6904389597621 186.84338570700493,95.174424402765 187.01933241615188,95.36801754630142 187.78763304607128,97.2486059185394 187.9811744261533,97.99529466751846 188.26268916076515,98.07134580634738 188.3447976250609,99.42642354615236 188.0398233291926,101.44515917183162 188.26855405108654,101.61107979222288 188.7025559336471,101.6940399397572 188.71428571426077,101.81847995777207" stroke="#4DD2FF" stroke-linecap="round" stroke-linejoin="round" stroke-width="0.5"><title>2025-09-09 10.0km</title><desc>1757415422000</desc></polyline><polyline fill="none" points="34.39669421489816,126.25782157469803 28.89787485243869,125.14001190068666 23.05637544268393,122.42527095193509 21.988488783943467,122.08709654428822 12.257969303405844,120.18953777322167 11.285714285710128,120.17074985388172 14.35389610385755,120.59347704901302 22.15584415581543,122.15285278295778 29.176800472225295,125.24333945297258 34.42857142855064,126.25782157469803" stroke="#4DD2FF" stroke-linecap="round" stroke-linejoin="round" stroke-width="0.5"><title>2025-09-08 5.7km</title><desc>1757333196000</desc></polyline><polyline fill="none" points="60.14285714284051,126.20377768302569 54.951565557712456,125.2228798548822 48.89637964771828,122.42959506731859 48.01663405087311,122.13064281191328 38.49001956946449,120.27151008577493 37.0,120.16874277984607 38.125440313102445,120.24348265091248 47.786790606653085,122.11195826135372 48.991487279796274,122.50433296835399 54.88816046962165,125.23222179185541 60.071526418760186,126.2598286487264" stroke="#4DD2FF" stroke-linecap="round" stroke-linejoin="round" stroke-width="0.5"><title>2025-09-04 5.8km</title><desc>1756983645000</desc></polyline><polyline fill="none" points="85.85714285715949,125.91104938605713 81.30228365384392,125.00122612973792 75.85731456044596,122.51759854939155 72.90882554944255,121.82905362054589 66.48334478022298,120.60769057020661 65.16904189559864,120.58309916429425 63.57657967033447,120.71425323637231 62.71428571428987,120.51752204251534 63.11066277473583,120.6978589898572 63.660027472506044,120.77163307101728 65.16904189559864,120.62408483635954 66.56679258245276,120.66507048611675 75.2870879121183,122.3618567953672 76.21892170331557,122.6979307040965 81.31619162092102,125.05860269603 84.17427884612698,125.57498982451943" stroke="#4DD2FF" stroke-linecap="round" stroke-linejoin="round" stroke-width="0.5"><title>2025-09-02 6.2km</title><desc>1756809719000</desc></polyline><polyline fill="none" points="111.57142857144936,126.21225115565176 106.34846461948473,125.19250117793854 99.29105473964592,122.06708162709401 89.73431241657818,120.21632690599654 88.42857142857974,120.12189958536328 89.68624833112699,120.23521235780936 98.80240320428857,122.00098392455402 100.03604806409567,122.36924191131402 106.47663551403093,125.31524949539744 111.56341789051658,126.30667184320919" stroke="#4DD2FF" stroke-linecap="round" stroke-linejoin="round" stroke-width="0.5"><title>2025-08-29 5.7km</title><desc>1756465472000</desc></polyline><polyline fill="none" points="137.28571428573923,126.09758922240871 132.27155557650258,125.10957013034204 126.35058093050611,122.39694776729448 125.4285243897175,122.118494727074 116.13175596224028,120.31301833219186 114.14285714286962,120.31301833219186 116.23081988809281,120.39386140418355 125.67999435539241,122.21730075219966 132.15725104667945,125.11855217539414 137.16378945391625,126.11555309637333" stroke="#4DD2FF" stroke-linecap="round" stroke-linejoin="round" stroke-width="0.5"><title>2025-08-27 6.0km</title><desc>1756291993000</desc></polyline><polyline fill="none" points="161.95468994640396,126.1088989103373 158.05783555531525,125.39319533271919 156.36689282156294,124.95833445563039 151.03273710681242,122.4578402967818 149.93362432980211,122.1045035395 141.26369976749993,120.41027823583136 139.85714285713038,120.25625604249217 142.1706599610916,120.59148045108304 149.91825212314143,122.11356347511901 150.86364283339935,122.4125407963802 155.9287849314278,124.82243996534817 157.19699198176386,125.26636114505527 161.94700384302996,126.1723153860803 162.1314703230746,125.46567192454677 163.0,125.61062491883786 162.56957821323886,125.5109697624066 162.60032262653112,125.29353991581593" stroke="#4DD2FF" stroke-linecap="round" stroke-linejoin="round" stroke-width="0.5"><title>2025-08-26 6.0km</title><desc>1756205162000</desc></polyline><polyline fill="none" points="188.71428571428987,127.536069839618 184.29780864567147,126.66718796356872 179.4933540893253,124.45682579431013 178.49754520418355,124.14432068241149 170.55693928871187,122.61226323538722 167.90575978925335,122.72659703886166 167.20093401987106,122.56652966168622 166.52197341635474,122.15492615342373 166.17279367739684,121.73569786920416 165.59729373725713,120.30268040420196 166.01760268228827,119.83770566522435 167.19446772840456,118.89250158895447 165.79774877257296,120.00540182894474 165.57142857142026,120.31792542530457 165.94000718477764,121.37744625427877 166.24392288347008,121.88052246953157 167.31086097471416,122.63513001101092 167.9768889953266,122.77233050791983 169.42533828283194,122.64275226790778 170.6216022032895,122.66561903358524 178.62040474193054,124.20529739920312 179.4998203807918,124.50255813264812 184.22021314813173,126.66718796356872" stroke="#4DD2FF" stroke-linecap="round" stroke-linejoin="round" stroke-width="0.5"><title>2025-08-23 7.3km</title><desc>1755948655000</desc></polyline><polyline fill="none" points="34.428571428579744,151.99993067123432 34.078466142120305,153.20618624910276 28.162584506324492,152.0422556818521 20.918098193535116,148.74084948337986 13.87110717059113,147.21708570776536 11.285714285739232,146.79381375089724 20.460268203518353,148.64561494759982 27.902249806094915,151.99993067123432 32.74088440655032,152.983982399448" stroke="#4DD2FF" stroke-linecap="round" stroke-linejoin="round" stroke-width="0.5"><title>2025-08-19 5.0km</title><desc>1755607675000</desc></polyline><polyline fill="none" points="59.476061041408684,156.02485532210267 55.27398749659187,155.19442061980953 50.39882732107071,152.94033251106885 49.57476798820426,152.7030557371545 41.88145070473547,151.22747223635815 39.006678833509795,151.30903798860527 38.056808915454894,150.86413269812329 37.402593872539,150.07071104692295 37.0377431755478,148.8842688942823 39.76154234455316,146.66704968768317 42.3280782821239,143.97514467789733 41.573214771051425,144.64998485945398 39.83702869564877,146.53356930342852 37.0,148.89168422196963 37.13839164367528,149.45524676152854 37.66679610143183,150.48596091502986 38.11342367879115,150.90120825007034 38.88715877762297,151.2793777263796 39.31491476719384,151.34611329822656 40.79947967227781,151.21264208907814 42.03871393625741,151.22747223635815 45.15881644858746,151.82067547807674 45.4293092066946,151.7242803030531 46.66854347064509,151.95414549510315 47.03968469690881,152.11727516055544 48.920552945288364,152.39904366198607 50.13462509220699,152.79203462428268 50.763678018091014,152.77720481783763 50.751096959545976,152.9477473969455 51.153690832143184,152.93291762439185 50.851745427702554,153.13311928097392 51.31095406357781,153.414883578007 54.997204209212214,155.07578626408213 55.70174348616274,155.27598161948117 55.92191201020614,155.17217669386446 57.12340309863794,155.26115235406905 57.12340309863794,155.54290784433397 59.16153457851033,155.95070977832802 59.520094746229006,155.98778256029618 59.62074321435648,155.47617638622614 59.96043179434491,155.4168594796647 60.14285714284051,154.80144352469506" stroke="#4DD2FF" stroke-linecap="round" stroke-linejoin="round" stroke-width="0.5"><title>2025-08-16 10.0km</title><desc>1755297330000</desc></polyline><polyline fill="none" points="76.64180154819041,149.19378679780493 76.22378606616985,151.32141272515582 85.85714285715949,153.2138430054256 69.8775510204141,150.0448424515489 62.71428571426077,146.7861569945744 69.65904292749474,150.03364439657162 75.69176636176417,151.2430272878628" stroke="#4DD2FF" stroke-linecap="round" stroke-linejoin="round" stroke-width="0.5"><title>2025-08-13 5.0km</title><desc>1755095249000</desc></polyline><polyline fill="none" points="111.4418493041303,154.30734823200328 107.1981282994675,153.45967351051513 102.37130059188348,151.2373424862817 101.47072468404076,150.94713598488306 93.54047352424823,149.41971354861744 90.72860342348577,149.51135983311542 90.10662294033682,149.3815275613888 89.46520556710311,148.99966654519812 89.12829947209684,148.66362713056878 88.81730923053692,148.14429032184125 88.4480083186645,147.1056051634223 89.25139977605431,146.3113061294498 90.18437050073408,145.6010118713093 89.47816349385539,146.09745485191524 88.42857142857974,147.1132426104523 89.11534154537367,148.67126440789434 89.65309550473467,149.17532287095673 90.10014397697523,149.40443915622018 90.72860342348577,149.54190856799687 92.93145096782246,149.41207635282626 93.72836346185068,149.46553670582944 101.84002559591318,151.09223938571085 107.07502799551003,153.45967351051513 111.57142857142026,154.39898812869797" stroke="#4DD2FF" stroke-linecap="round" stroke-linejoin="round" stroke-width="0.5"><title>2025-08-12 8.1km</title><desc>1754996616000</desc></polyline><polyline fill="none" points="137.28571428571013,152.68413782557036 132.61930712335743,151.75091104075545 127.35033086803742,149.32281586006866 126.48151031529414,149.03375173120003 121.52783184120199,147.99311174312606 117.79330478786142,147.34889887909958 116.47606072403141,147.31586217442964 114.80848579213489,147.4562680698582 114.14285714286962,147.34063970428542 114.75243285327451,147.4562680698582 116.40599455041229,147.3323805285545 117.80731802259106,147.35715805303334 126.40443752429564,149.04201072160504 127.4063838069269,149.39714645795175 132.4021019851789,151.70135885498166 136.8863370961335,152.62632765043963" stroke="#4DD2FF" stroke-linecap="round" stroke-linejoin="round" stroke-width="0.5"><title>2025-08-10 6.4km</title><desc>1754781124000</desc></polyline><polyline fill="none" points="160.70503415126586,159.6830436289565 156.85277004804811,158.91016996276085 152.48530952981673,156.89513357656324 151.65396986011183,156.619096204402 144.45878356401226,155.21128689936086 143.81478804524522,155.16988026979016 141.80083842287422,155.28719898332565 141.36175056916545,155.18368248266415 140.74702757399064,154.83172511522207 140.31964872969547,154.34864319205735 139.91568790428573,153.4031721971587 139.85714285713038,153.0443035996759 142.41556141807814,150.94626188410984 144.18362184235593,149.0414006683386 145.85215568644344,147.58510943411602 147.9539228795329,146.21160976763713 148.1881030681834,146.1011763399256 148.7794080445019,146.08047005078333 149.0077337284456,145.92862372361924 149.65172924721264,145.21770198580998 150.3132882801292,143.79583456811451 150.9104477611836,143.22983962543003 153.58595641647116,141.78721988014513 156.89375158105395,140.3169563710435 156.89375158105395,140.8208533437246 157.47920205266564,141.20049909904992 157.6548371941608,141.42138285470355 157.74850926961517,141.78031731430747 159.8151494344056,145.45927822876183 160.66405261823093,147.3228354166895 161.19681254742318,148.06134105770252 161.20266705212998,148.27529902720198 161.4427017455164,148.64109646222278 161.87593509451835,149.90411664916974 162.20964186330093,150.49765842114357 162.49065808966407,151.72613418836772 162.58433016514755,152.96838882816155 162.32087745293393,154.74891133283745 162.391131509532,154.85242854389435 162.9999999999709,155.0387590975697 162.92974594340194,155.59084640962465" stroke="#4DD2FF" stroke-linecap="round" stroke-linejoin="round" stroke-width="0.5"><title>2025-08-08 10.0km</title><desc>1754654808000</desc></polyline><polyline fill="none" points="188.71428571431898,153.24005862693593 182.53980801807484,151.97857154429948 175.45974025974283,148.7115687426558 168.15098814229714,147.13733088164736 165.57142857142026,146.75994137307134 175.29508752119727,148.7115687426558 182.72275550535414,152.08639158127335 188.5587803500821,153.2077130050675" stroke="#4DD2FF" stroke-linecap="round" stroke-linejoin="round" stroke-width="0.5"><title>2025-08-07 5.0km</title><desc>1754573743000</desc></polyline><polyline fill="none" points="34.428571428579744,180.03730749995884 28.310554119409062,178.81396857111395 21.31853433744982,175.60531448527763 20.426323479798157,175.33702763760812 11.285714285739232,173.5341210714687 13.716533663042355,174.04924059961195 13.916825896361843,173.9633875319414 14.453973249415867,174.18875167502847 20.81780375406379,175.487268362318 28.3924918511766,178.8998174125154 34.01888276945101,180.02657652273047" stroke="#4DD2FF" stroke-linecap="round" stroke-linejoin="round" stroke-width="0.5"><title>2025-08-04 5.0km</title><desc>1754309955000</desc></polyline><polyline fill="none" points="60.142857142869616,179.47887390688265 55.517093461588956,178.5522225261011 50.18237358640181,176.10316089617845 49.382165605115006,175.8383927476243 40.91680748734507,174.1670225110065 39.42870141690946,174.09255466454488 37.61770440664259,174.2332160910155 37.0,174.10082887329918 37.13336799692479,174.2001193082324 37.982711555989226,174.25803866866045 40.43247107762727,174.12565149420698 43.79474847266101,174.78758505924634 44.33523982844781,174.79585919231613 45.2688158066012,175.0771791802399 49.290913817763794,175.8466667662433 50.4069933705905,176.243818599738 55.43286104252911,178.5439488021657 59.66554010141408,179.396137635973" stroke="#4DD2FF" stroke-linecap="round" stroke-linejoin="round" stroke-width="0.5"><title>2025-08-03 6.5km</title><desc>1754227262000</desc></polyline><polyline fill="none" points="83.17657392186811,179.49630756306578 77.03513345040847,178.27359868671192 69.29636765451869,174.8326203848992 62.71428571426077,173.4908229645589 69.86552955175284,174.98411250352365 77.27381424605846,178.3709831309825 85.85714285710128,180.08060560686863 83.36935456452193,179.51794829262508 83.36935456452193,179.3556427060612" stroke="#4DD2FF" stroke-linecap="round" stroke-linejoin="round" stroke-width="0.5"><title>2025-08-01 5.0km</title><desc>1754057984000</desc></polyline><polyline fill="none" points="109.35730556459748,186.4460356657073 105.40937194923754,185.6658664918432 101.06313049141318,183.663618479688 100.1317930361256,183.36672804594855 93.10283110968885,182.00653781575966 91.82004555809544,181.96511024413485 90.54311747479369,182.07558370826882 89.9339407744992,181.96511024413485 89.4301985031052,181.68202111347637 89.06117800195352,181.32988408894744 88.6394402863807,180.52893768927606 88.42857142857974,179.83155370215536 91.0117149365833,177.69102027665213 92.80410022780416,175.77828892417165 94.44419134399504,174.3419761663754 95.68011714940076,173.63071308512008 96.64659941429272,172.9194420202184 97.33192320211674,172.85038615182566 97.5779368695512,172.69846297644108 98.32769280835055,171.83525620186265 98.91343963553663,170.53697106867912 99.48747152622673,170.0190307463854 102.2287666775519,168.51352683576988 105.43865929060848,167.12539290572022 105.49137650505872,167.5742952654473 105.95997396681923,167.89888422092918 106.44614383339649,168.76905066238396 106.74487471528118,169.60467544002313 107.48291571755544,171.13087076060037 109.40416531078517,174.72867895750824 109.66189391477383,175.50207746052183 110.42336479012738,177.09718206475372 110.93882199807558,178.87177507413435 110.97396680770908,179.97655496497464 110.90367718844209,180.37703291997605 111.0852587048721,180.50822342399624 110.91539212496718,181.5508330388766 111.57142857144936,181.79939968692634 111.54799869834096,182.1377249472498" stroke="#4DD2FF" stroke-linecap="round" stroke-linejoin="round" stroke-width="0.5"><title>2025-07-28 10.0km</title><desc>1753704756000</desc></polyline><polyline fill="none" points="135.01333716581576,179.62339309346135 128.86674331704853,178.39394858543528 121.8260994538432,175.16658540300705 120.68059787293896,174.78236861684127 114.14285714284051,173.4760205880084 121.39770048862556,175.03485409847053 127.46047714859014,177.8889938183056 129.03437769471202,178.48176654760755 137.28571428568102,180.09540798341914 135.1064673756482,179.60143885875732 135.21822362742387,178.88792362737877" stroke="#4DD2FF" stroke-linecap="round" stroke-linejoin="round" stroke-width="0.5"><title>2025-07-22 5.0km</title><desc>1753194638000</desc></polyline><polyline fill="none" points="153.0208439247508,178.00730853663117 160.6870869343984,179.52813625075942 162.9999999999709,179.66565637082385 160.98220640566433,179.5524045257407 148.34697508896352,177.07699964019412 142.8357905439625,174.57724237036746 139.85714285713038,173.90577220060368 142.8014743263775,174.59342229957838 147.9694966954412,176.97992325796804 150.0971021860605,177.43294528967817" stroke="#4DD2FF" stroke-linecap="round" stroke-linejoin="round" stroke-width="0.5"><title>2025-07-19 6.4km</title><desc>1752877000000</desc></polyline><polyline fill="none" points="186.59486862664926,186.5090678070119 182.65628520547762,185.72492931657325 178.1819602427422,183.67779662703106 177.41661518331966,183.43491211275978 170.14583711887826,182.0331033946204 167.62608569246368,182.11638002176187 167.07856961147627,182.0122842208366 166.56637714864337,181.71387531553773 166.0659592251759,181.18645150646626 165.63030126830563,180.20792997979152 165.57142857142026,179.85399296027026 168.1441654249793,177.72338935386506 169.84558636479778,175.8772712756545 171.5234582258272,174.4128312849789 173.5722280771879,173.04552753377357 173.93135152812465,172.8720097303667 174.47886760911206,172.84424683795078 174.8674274084915,172.60132101306226 175.50325253477786,171.84477465048258 176.07431769452523,170.54682555107865 176.6807064723689,169.9846040935663 179.65966493441374,168.360380888058 182.70338336302666,167.06236076442292 182.70927063268027,167.5621363511309 183.18025220770505,167.87449410081172 183.49227750115097,168.45061659747444 184.13398989714915,169.92213473632728 186.11211251225905,173.6424251672579 186.63019224480377,174.88478718652914 186.77148671730538,175.0166565927575 187.66046444015228,177.2930959373116 187.86063160953927,177.57764513507573 188.1785441726679,178.76440979084873 188.23741686958238,179.54863395157736 188.1432205545716,180.742301754246 187.85474433985655,181.85961007181322 188.71428571426077,182.0539225616085" stroke="#4DD2FF" stroke-linecap="round" stroke-linejoin="round" stroke-width="0.5"><title>2025-07-17 10.0km</title><desc>1752756134000</desc></polyline><polyline fill="none" points="34.428571428579744,206.83715320611373 28.29310831404291,205.60849764767772 20.511768358119298,202.14878031014814 11.285714285739232,200.30570393674134 20.9232375685242,202.3212301444437 28.11937686969759,205.59771989982983 34.14511486142874,206.82637559208524" stroke="#4DD2FF" stroke-linecap="round" stroke-linejoin="round" stroke-width="0.5"><title>2025-07-14 5.0km</title><desc>1752500928000</desc></polyline><polyline fill="none" points="60.14285714284051,206.81334729316586 54.00882385787554,205.60832446050335 47.66670389811043,202.6650205070764 46.16486094042193,202.12113943965232 37.0,200.32950984968193 46.7619792248006,202.28110477307928 54.11739081866108,205.65098038915312 59.49145537806908,206.72803642991494" stroke="#4DD2FF" stroke-linecap="round" stroke-linejoin="round" stroke-width="0.5"><title>2025-06-21 5.0km</title><desc>1750468889000</desc></polyline><polyline fill="none" points="78.54831305943662,204.99270042486387 84.56641201348975,206.19475270412659 85.85714285713038,206.26361952147272 84.74700809860951,206.19475270412659 74.90983310926822,204.27270916015186 73.85281484638108,203.85949270967103 70.69238335682894,202.3568623973515 70.13466015277663,202.1752919081955 63.68631758418633,200.9230660215071 62.71428571428987,200.8792376213787 63.57477294339333,200.89802122554465 66.08718318631873,201.3613481848115 70.60739696383826,202.3380792698772 73.96967113672872,203.92836232435366 74.83015836583218,204.26018749317154 75.76500868878793,204.44801221155285" stroke="#4DD2FF" stroke-linecap="round" stroke-linejoin="round" stroke-width="0.5"><title>2025-06-17 8.1km</title><desc>1750165544000</desc></polyline><polyline fill="none" points="111.57142857142026,206.79934419646452 105.73649320518598,205.6390140897638 98.12959893932566,202.2423315125052 88.42857142857974,200.34351294639782 98.14749751408817,202.28452705782547 105.61120318196481,205.62846557050216 110.5333112363005,206.63056977203087" stroke="#4DD2FF" stroke-linecap="round" stroke-linejoin="round" stroke-width="0.5"><title>2025-06-15 5.0km</title><desc>1749939796000</desc></polyline><polyline fill="none" points="130.134527103015,204.89796699699582 135.59641869089683,205.98931206904308 137.28571428571013,206.09380138271808 135.95594807405723,206.012531934226 126.81503663395415,204.23618303955664 125.9236007661093,203.89948278505108 122.94393943998148,202.48299635151125 122.27905633419869,202.26239261760202 116.27048308152007,201.1013052848175 115.54157419514377,201.04905576014426 114.14285714286962,201.15936025218616 116.12765634027892,201.08969428377168 122.02295321194106,202.22756036563806 122.73708691817592,202.4249428258372 124.44115769313066,203.23188116386154" stroke="#4DD2FF" stroke-linecap="round" stroke-linejoin="round" stroke-width="0.5"><title>2025-06-11 8.1km</title><desc>1749642919000</desc></polyline><polyline fill="none" points="163.0000000000582,206.79223891332367 156.98770287493244,205.62875940347294 149.4319503683946,202.2545900044206 139.8571428571595,200.3506182295314 149.53963330195984,202.29690006434976 157.05051791947335,205.6816451380946 162.00393286440521,206.67589158952615" stroke="#4DD2FF" stroke-linecap="round" stroke-linejoin="round" stroke-width="0.5"><title>2025-06-08 5.0km</title><desc>1749387304000</desc></polyline><polyline fill="none" points="174.53726273705252,209.79115487463423 177.02957042935304,208.30302789091365 182.2731268730713,207.3490970111743 184.92727272724733,205.36491245785146 187.80799200793263,205.44122745614732 188.58481518470217,204.79254943976412 183.4707292706007,196.47410131286597 180.00739260728005,197.16095313805272 176.7058941058349,199.1070259931148 174.86093906091992,199.1070259931148 171.91548451548442,200.4807179677009 167.09270729252603,201.47282548676594 167.25454545451794,204.60176155919908 165.57142857147846,206.7004225286655 166.99560439551715,208.26487070554867 167.61058941064402,210.21088185510598 168.51688311691396,210.7832360174798 174.14885114878416,209.6003697173437 177.12667332659476,208.26487070554867 181.46393606381025,207.69251242725295 185.0891108890064,205.36491245785146 187.64615384605713,205.479384949198 188.68191808182746,204.60176155919908 183.4707292706007,196.3596258776961 179.61898101877887,197.19911153326393 176.77062937046867,199.06886780582136 174.18121878104284,199.33597502979683 171.00919080909807,200.74782411474735 167.18981018965133,201.39650962353335 167.28691308677662,204.79254943976412 165.57142857147846,206.7004225286655 167.09270729252603,208.3411850721168 167.86953046941198,210.32535276227281 168.97002997004893,210.85954983517877 177.83876123849768,208.15039912474458 181.56103896093555,207.73066967487102 184.76543456537183,205.55569992266828 187.743256743066,205.5175424380286 188.71428571431898,204.56360397054232 183.11468531459104,196.24515040504048 179.2953046951443,197.42806181733613 176.6411588412011,199.06886780582136 167.3516483514104,201.2057198927505 167.31928071926814,204.60176155919908 165.60379620362073,206.62410780478967 167.06033966026735,208.26487070554867 167.61058941064402,210.0964109103079 169.26133866119199,210.89770673780004 182.3378621377051,206.92936660093255 183.95624375611078,204.7543918720039 183.4707292706007,202.57940363459056 181.33446553442627,199.90834696652018 179.52187812177,198.99255141877802 177.9682317681145,198.91623501494178 176.18801198794972,199.64124017916038 173.30729270726442,203.11361252333154 168.71108891104814,203.87676666505286 165.95984015974682,206.0517468447215 165.86273726262152,206.96752393167117 167.41638361627702,208.8372280485346" stroke="#4DD2FF" stroke-linecap="round" stroke-linejoin="round" stroke-width="0.5"><title>2025-06-04 6.4km</title><desc>1749041988000</desc></polyline><polyline fill="none" points="34.428571428579744,233.5991079468222 28.497036503686104,232.41447439306648 21.739932421245612,229.2941650770299 20.716944552201312,228.95568481887312 11.285714285739232,227.1151777674604 20.986151886172593,229.06146002624882 28.362432836729567,232.39332009115606 33.28892704815371,233.40872138582927" stroke="#4DD2FF" stroke-linecap="round" stroke-linejoin="round" stroke-width="0.5"><title>2025-05-28 5.0km</title><desc>1748436903000</desc></polyline><polyline fill="none" points="60.14285714289872,233.58897441886074 53.71632007235894,232.27253646807367 46.27362115733558,228.90582870317303 37.0,227.11452089269005 45.97151898732409,228.84108320189262 47.08838155516423,229.1971829353206 54.25644213386113,232.47755664301076 60.03300180833321,233.59976482159254" stroke="#4DD2FF" stroke-linecap="round" stroke-linejoin="round" stroke-width="0.5"><title>2025-05-27 5.0km</title><desc>1748351986000</desc></polyline><polyline fill="none" points="79.8526557617588,235.13120187274035 79.88358321436681,233.7457059796725 80.61037835146999,232.10040991324786 81.08975386747625,229.0478961027111 81.05882641481003,229.3293366263897 80.36295873031486,229.41593358471437 76.97640266577946,231.81897554986062 75.69291338103358,232.1220586845593 75.18261041241931,231.27775386167923 75.77023201261181,230.3251980709174 76.852692855231,229.48088126459334 76.6825918656541,228.03037514313473 77.19289483426837,227.09944454810466 76.51249087613542,226.70975063848164 74.0228309382801,226.75305002106325 73.37335443269694,225.8004601845023 73.58984660130227,224.67466295431223 74.06922211725032,224.82621316458972 74.0228309382801,224.09011044372164 74.73416234907927,224.52311256260145 76.03311536018737,224.47981241735397 77.06918502371991,225.17261296395736 78.47638411907246,225.21591287230694 79.04854199296096,224.9344632037537 80.45574108825531,222.96429800324404 80.51759599352954,219.67340423043788 80.00729302491527,219.0888286252448 79.20317925617564,218.78571428571013 78.21350077155512,219.0671776250747 77.33206837123726,220.04146896731254 76.65166441298788,220.27962793266488 75.25992904405575,220.0198181300293 73.79087504342897,219.2187345486018 72.44553085346706,219.67340423043788 71.76512689521769,220.71264308538957 71.79605434788391,221.8168250206145 72.38367594807642,222.63954255401768 73.71355641185073,223.26740233750752 74.0228309382801,224.02515999817842 73.41974561166717,225.4324121915124 73.85272994876141,226.7314003316642 73.96097603300586,228.52831195371255 73.38881815900095,230.4767415171009 73.8372662223992,231.01796662951529 75.1516829598113,231.3427005863996 75.66198592836736,232.1220586845593 74.48674272792414,234.02713606006728 73.03315245360136,234.61164268964058 70.60534742107848,236.38679442929424 68.84248262038454,237.1444735684272 68.44042573595652,238.18356901445804 67.450747251336,239.26595103572618 68.30125219910406,241.69045318551798 69.07443851517746,241.8636301339866 70.09504445246421,241.23586256891576 71.28575137926964,241.73374744490866 72.1517200532835,241.62551176882698 72.83212401147466,240.91115398635156 73.32696325378492,239.11441810976248 74.50220645422814,238.46498923015315 77.19289483426837,239.3092461241322 78.21350077155512,238.8113517138263 79.80626458273036,238.72476118179475 79.89904694067081,233.91889379556233 81.12068132014247,229.63242572138552 80.93511660426157,229.3293366263897 80.47120481455931,229.3726351129735 76.99186639208347,231.84062436924432 75.7393045600038,232.10040991324786 74.36303291731747,234.09208137443056 72.89397891674889,234.6765877041471 70.58988369477447,236.38679442929424 68.935264978325,237.0362339690182 68.44042573595652,238.24851219671837 67.450747251336,239.3525411976516 68.22393356746761,241.582217472489 68.73423653608188,241.92857142857247 70.00226209446555,241.23586256891576 71.45585236878833,241.75539456897968 72.43006712710485,241.36574576881685" stroke="#4DD2FF" stroke-linecap="round" stroke-linejoin="round" stroke-width="0.5"><title>2025-05-23 6.4km</title><desc>1747958832000</desc></polyline><polyline fill="none" points="102.1026401501149,231.43792281483184 102.72895849263296,232.03293090171064 104.29475434904452,232.28346004414198 105.0776522771921,233.2855731863965 104.87633566709701,237.23134037874115 104.49607095913962,237.95159029361093 103.13159171293955,238.35868681859574 101.78948097885586,237.88895997876534 100.53684429358691,238.1707962271903 98.41183563135564,236.9181873583293 97.13683043397032,237.41923193400726 96.19735292019323,237.262655651386 96.46577506687026,236.354510572055 95.79471970000304,234.60083836350532 95.99603630998172,233.34820507568656 95.2802439185325,232.15819551571622 95.59340308979154,230.27921730790695 100.11184256116394,230.0913184267265 101.65526990545914,230.65501449181465 102.46053634572309,231.93898238486145 104.18291178788058,232.25214392005 104.94344120379537,232.9724134184653 104.87633566709701,237.32528618045035 104.54080798360519,237.95159029361093 103.22106576175429,238.3273717334523 101.94606056436896,237.9202751388657 100.49210726912133,238.13948110991623 98.36709860689007,236.9495026844379 95.6605086264899,237.51317763931002 94.20655533124227,238.7031524021004 94.67629408813082,239.0476173377101 95.03419028385542,240.92650558087917 97.22630448290147,241.9285714285652 98.16578199679498,241.27096633439942 98.79210033942945,239.98706386882986 98.70262629038189,238.98498739759088 97.5394636541605,237.1373945287778 98.70262629038189,236.9495026844379 100.51447578147054,238.13948110991623 101.94606056436896,237.7323840976751 101.76711246650666,237.262655651386 100.31315917125903,237.293970918603 99.53026124311145,236.29187971091596 100.26842214679345,233.34820507568656 98.34473009465728,230.4044831215724 98.478941168054,228.05573485606874 98.99341694940813,227.05359309389314 100.02236851211637,226.45856882778753 101.96842907671817,227.08491010704893 103.55659344536252,226.6777885192132 101.76711246650666,228.4315366030496 99.91052595106885,228.33758623863105 98.79210033942945,227.49203078978462 97.06972489727195,227.1162271147332 97.11446192173753,223.29551264012116 97.87499133765232,221.6983050921117 97.9197283621179,219.31812681804877 98.38946711912286,218.84835113451118 99.8210519021377,218.78571428571013 103.93685815331992,219.3807634848199 104.78686161816586,220.1324018145533 105.0776522771921,221.6983050921117 105.79344466875773,222.48125170932326 105.32370591175277,223.10760659285006 105.61449657089543,223.51473611824622 104.20528030011337,224.36030993249733 104.04870071436744,226.33330031481455 101.96842907671817,228.36890303208202 100.33552768349182,228.4315366030496 98.72499480261467,227.3980799432902 97.1591989462031,227.21017810575722 97.09209340950474,223.51473611824622 98.05393943551462,220.32031091483077 99.06052248610649,219.944492521332 99.08289099833928,219.00494316298864 103.66843600641005,219.28680847671058" stroke="#4DD2FF" stroke-linecap="round" stroke-linejoin="round" stroke-width="0.5"><title>2025-05-20 5.0km</title><desc>1747754393000</desc></polyline><polyline fill="none" points="134.21936640772037,231.97439130741986 136.3819485954009,232.2407487896562 137.28571428568102,231.28947113483446 131.92767483566422,223.22253245912725 128.18350268981885,224.1357801540289 125.27854154224042,225.8481131446024 123.47101016133092,225.92421663823188 119.08129109384026,227.59848930101725 115.56306037062313,228.09315923336544 115.85355648538098,231.32752229072503 114.14285714284051,233.53448224172462 115.56306037062313,234.79016012648935 116.07949790800922,236.5404914628889 116.85415421391372,237.30150235118344 118.30663478781935,237.52980529429624 125.56903765699826,235.17066768507357 129.89420203235932,234.56185539241415 133.63837417820469,232.0885445390595 136.3819485954009,232.1646466727252 137.22115959366783,231.4416757337458 132.05678422003984,223.2605844940408 130.6365809921408,223.29863652482163 125.40765092649963,225.77200963452924 123.01912731619086,226.03837184756412 120.0173341302434,227.4082314480911 115.3048416019883,228.28341671303497 115.98266586987302,230.79480573019828 114.14285714284051,233.4964313262899 115.49850567849353,234.6379569869605 115.918111177627,236.23608664330095 116.88643156015314,237.26345184620004 118.30663478781935,237.45370432993514 126.18230723252054,234.86626167138456 130.4106395697454,234.33355050900718 133.47698744758964,232.1646466727252 136.4142259414075,232.1646466727252 137.22115959366783,231.36557344259927 132.05678422003984,223.29863652482163 130.92707710701507,223.18448041996453 128.02211595943663,224.1357801540289 125.50448296475224,225.77200963452924 123.43873281520791,225.8481131446024 119.56545128521975,227.48433460170054 115.72444710100535,228.16926223758492 115.918111177627,231.17531764213345 114.20741183508653,233.4203294828476 115.49850567849353,234.71405856503407 116.40227136877365,236.95904765676823 118.43574417219497,237.4156538414245 124.98804542748258,235.20871841805638" stroke="#4DD2FF" stroke-linecap="round" stroke-linejoin="round" stroke-width="0.5"><title>2025-05-14 5.0km</title><desc>1747227249000</desc></polyline><polyline fill="none" points="148.05263799993554,241.677620642673 148.52405212738086,241.2474184051389 149.20836295757908,238.7020321549935 151.26129544788273,239.024688929072 152.37139968341216,234.57913991018722 152.15850298071746,231.72890618699603 150.01432904636022,226.36889898781374 150.1055704903556,225.16780319344252 151.59584740933497,224.3610921407817 153.81605588039383,223.98462562919303 155.24550516996533,222.99863782600733 156.4164370347862,223.10620041897346 156.8574373475858,222.6400953416305 154.50036671047565,218.87535208002373 153.907297324331,218.78571428571013 152.28015823947499,219.37732282582147 151.26129544788273,220.07649381220108 150.37929482239997,220.09442123434565 148.58487975673052,220.8115165172203 146.74484396900516,221.08042644250963 146.8664992277627,222.47875096871576 145.9997055096319,223.57230417577375 146.15177458291873,223.9666986309312 146.66880943236174,224.3073112632701 147.18584428186296,225.50841333926655 147.83974129724083,225.58012064853392 153.67919371434255,223.82328257482732 154.33309072977863,223.24961710009666 154.57640124717727,222.47875096871576 154.28747000772273,221.47482687112642 153.2686072162469,220.38125972254784 152.02164081466617,219.9868566723162 150.9267434864887,220.29162274871487 149.46688038221328,221.94093524971686 147.3835340772057,222.2994792577374 146.18218839762267,223.37510659359396 146.2126022123266,223.9666986309312 147.83974129724083,225.22158378970926 149.69498399220174,225.02438818430528 153.63357299240306,223.82328257482732 154.4851598031819,223.03449203148193 154.53078052517958,222.17398894381768 153.907297324331,221.04457181120233 152.43222731276182,220.04063896210573 150.37929482239997,220.11234865451115 148.44801759067923,220.88322587360744 146.71443015435943,221.22384488956595 146.85129232041072,222.5504595984239 146.01491241692565,223.64401232887758 146.6840163397137,224.3073112632701 147.01856830110773,225.27536436830997 147.79412057524314,225.59804747099406 148.70653501542984,225.13194945291616 150.39450172969373,224.84511924705293 149.99912213900825,225.58012064853392 150.04474286094774,226.15377799759153 151.9608131853165,230.95807978061202 152.41702040540986,233.18091821493 152.24974442477105,235.6726127009024 151.4893990579294,238.52277811830572 149.52770801156294,238.23597125340893 148.75215573742753,240.85306536607095 148.1590863513411,241.10401740930683 147.91577583394246,241.9285714285652 147.5964307799004,241.8030960834585" stroke="#4DD2FF" stroke-linecap="round" stroke-linejoin="round" stroke-width="0.5"><title>2025-05-06 7.1km</title><desc>1746539597000</desc></polyline><polyline fill="none" points="174.41443738376256,241.9285714285652 174.25763165042736,241.7437368312967 174.99461859691655,239.28541754298203 176.86060682294192,239.72902666444134 177.18989886291092,239.15603133078548 178.1620944092283,235.0710730477731 178.1307332625729,233.03779923715047 175.35527178348275,225.3481070483249 174.60260426363675,225.181739663778 173.53632527735317,225.6993265468045 172.87774119753158,225.56992997406633 171.6389759046142,223.64745498234697 172.4857268643682,222.723180404937 172.281879411079,221.24433060690353 173.37951954407617,221.1888734886743 177.04877370293252,220.1536706211773 178.2404972758377,219.41423613397637 180.20056894188747,218.82268622360425 182.72514124785084,222.6862093170348 182.41152978123864,223.18531832308508 181.03163932834286,223.05591983287013 179.55766543542268,224.12807577263447 177.31534344953252,224.4608124452061 175.99817528988933,225.08931326845777 174.32035394379636,225.3111365325749 173.30111667740857,225.73629697797878 172.6425325976452,225.4590185474517 172.2661988377804,224.4238417360175 171.6703370512114,223.98019259753346 171.6703370512114,223.62896954015014 172.4857268643682,222.53832488514308 172.2661988377804,221.26281630893936 173.99106190382736,221.04098775147577 177.00173198292032,220.0797273174976 179.85559632867808,218.78571428571013 180.29465238185367,218.9336019889597 182.70946067443583,222.6862093170348 182.47425207454944,223.14834733596945 181.14140334160766,223.05591983287013 179.21269282215508,224.25747344504634 177.6446354893269,224.3683856571297 173.37951954407617,225.6993265468045 172.72093546425458,225.5144742698467 172.29755998437759,224.4238417360175 171.6703370512114,223.94322178367293 172.47004629095318,222.57529600517591 172.281879411079,221.24433060690353 173.92833961057477,221.04098775147577 176.87628739635693,220.1351847983169 177.9268858092837,219.48817972773395 179.88695747533347,218.78571428571013 180.24761066189967,218.9336019889597 182.69378010113724,222.6677237701224 182.45857150125084,223.1298618393048 181.03163932834286,223.03743432622286 179.5106237155269,224.14656116046535 177.2996628761175,224.4608124452061 175.71592496999074,225.14476911169186 174.41443738376256,225.25568074370676 173.41088069067337,225.71781176341756 172.67389374424238,225.44053330266615 172.281879411079,224.4238417360175 171.6546564778546,223.96170719161455 171.6389759046142,223.64745498234697 172.2661988377804,223.03743432622286 171.529211891233,223.721396731009 172.2191571177682,224.53475383938348 172.53276858432218,225.38507755610044 173.20703323744237,225.79175260980264 177.1114959961851,224.5717245243868 179.44790142215788,224.29444419048377 180.95323646167526,223.14834733596945 182.34880748786964,223.14834733596945 182.75650239444803,222.723180404937 180.13784664863488,218.78571428571013 178.1464138358715,219.37726432505588 176.90764854295412,220.17215644204407 175.79432783665834,220.24609970550227 174.08514534379356,220.94855910028855 172.062351384433,221.35524478893785 172.4073239977588,222.53832488514308 171.6076147579588,223.51805684462306 171.5762536112452,223.9986780015024 172.2034765444114,224.4792977967445 172.4857268643682,225.3481070483249 173.08158865087898,225.71781176341756 175.35527178348275,225.32962179146125 177.8014412226621,231.68843134895724 178.0836915425607,233.13022130260651 178.1464138358715,234.99713624521974 177.03309312957572,239.56267337978352 174.90053515695035,239.30390127950523 174.43011795700295,241.54041854180105 174.17922878381796,241.7437368312967" stroke="#4DD2FF" stroke-linecap="round" stroke-linejoin="round" stroke-width="0.5"><title>2025-04-29 10.1km</title><desc>1745929124000</desc></polyline><polyline fill="none" points="33.539614033012185,254.93539177483035 33.15007090452127,254.605730032461 33.369813182158396,253.39303711440152 32.820457488182,255.2061845968201 32.400949503760785,255.26505251185154 31.152413835690822,260.16275075824524 31.01257784088375,260.1980698917105 24.65004007652169,258.9383469985769 16.53955237689661,255.2885996688783 11.285714285739232,254.17010404518078 16.499599235481583,255.30037324547447 22.90209014120046,258.30259342309 24.719958073925227,258.9854397072704 34.42857142863795,260.89267717132316 31.102472408965696,260.1745238040021 31.312226401176304,259.3150880939211 31.90153523645131,259.1738103370226 33.23996547260322,253.54609619405528 33.49966089159716,253.4519060168459 33.15007090452127,254.37025674381584" stroke="#4DD2FF" stroke-linecap="round" stroke-linejoin="round" stroke-width="0.5"><title>2025-04-22 6.3km</title><desc>1745328842000</desc></polyline><polyline fill="none" points="45.21392194466898,268.0342131406942 45.59855277551105,267.86419458061573 46.399867006228305,265.23833121078496 48.45123143680394,265.54059088959184 49.52499250596156,261.6300656154781 49.348703375202604,257.68166802675114 47.121049813809805,252.2217739715852 47.072970959939994,251.27713817849872 48.27494230604498,250.2947114945855 50.807095275085885,249.8790677603829 52.63409172114916,248.68880973692285 53.836063067254145,248.80216799593472 54.33287789026508,248.36762760062993 53.25911682104925,246.68613494095916 51.81675120582804,247.42297081029392 50.66285871353466,246.08154932482284 49.42883479828015,245.5714285714348 47.121049813809805,245.76036235882202 45.55047392164124,246.4594155819359 43.435004352533724,246.8183877634583 43.7555300447857,248.1409104403283 42.8260055371793,249.48231599376595 43.51513577561127,250.0679968539771 43.8677140371874,251.05042482243152 44.5888968447689,251.42828025124618 47.21720752149122,250.80481835214596 48.73970455984818,250.14356843377755 50.74299013661221,249.8790677603829 52.393697451858316,248.76438191789202 53.836063067254145,248.78327495801204 54.316851605603006,248.32984142782516 53.27514310571132,246.68613494095916 51.83277749043191,247.3851844316523 50.66285871353466,246.06265599036124 49.52499250596156,245.59032195944746 47.040918390790466,245.76036235882202 45.582526490907185,246.4405222886562 43.83566146797966,246.70502820747788 43.595267198747024,246.89396075962577 43.72347747563617,248.19758975818695 42.8260055371793,249.38785115363135 43.48308320634533,250.0679968539771 43.81963518331759,251.06931761339365 44.50876542174956,251.46606574878388 48.77175712917233,250.1246755419561 50.678884998196736,249.91685359558323 52.40972373652039,248.76438191789202 53.90016820561141,248.76438191789202 54.300825321057346,248.29205524682766 53.24309053644538,246.64834840172261 51.752646067296155,247.36629123918829 50.646832428989,246.06265599036124 49.66922906745458,245.64700211107265 47.521706929197535,245.66589549083437 45.42226364475209,246.4594155819359 43.80360889865551,246.70502820747788 43.57924091408495,246.87506751368346 43.69142490642844,248.36762760062993 42.80997925257543,249.44453006389085 43.53116206021514,250.10578264805372 43.85168775252532,251.06931761339365 44.3805551448022,251.40938749938505 50.82312155974796,249.6334596309316 51.60840950574493,248.99109826296626 51.880856344185304,248.02755174903723 51.65648835967295,247.3096116495435 50.87120041355956,246.34605579130584 49.637176498246845,245.6092153454083 47.50568064453546,245.68478886855883 45.35815850622021,246.5160954495077 43.56321462948108,246.8183877634583 43.7555300447857,248.10312421811977 42.8260055371793,249.40674412575027 43.611293483292684,250.37028297560755 43.306794075644575,250.95596083652345 44.10810830636183,252.59962684792117 44.73313340632012,255.35792790194682 45.005580244760495,258.4562411487568 44.94147510622861,260.4965635452827 43.37089921411825,268.18534060970705 44.50876542174956,268.7142857142899" stroke="#4DD2FF" stroke-linecap="round" stroke-linejoin="round" stroke-width="0.5"><title>2025-04-15 8.8km</title><desc>1744723077000</desc></polyline><polyline fill="none" points="85.70505398220848,254.67047192761675 85.03332811762812,254.62565332266968 85.5276169613353,253.17651053681038 84.94460960727884,255.59671981816064 85.08402440935606,255.97020510127186 84.31090596149443,258.5397562831058 83.56313565955497,258.55469539340993 83.57580973237054,259.18213655773434 82.71397277427604,261.9757088117185 74.311062431545,260.30256006996206 64.67876701604109,255.83575051650405 62.71428571426077,255.26805192779284 64.81818181817653,255.94032631604932 74.2983883585548,260.3174989883264 82.73932092008181,261.9607700739725 83.01815052417805,260.8403601053724 83.65185416990425,260.7656657820771 84.19683930522297,259.18213655773434 85.85714285710128,252.31000547400618 85.41355030512204,254.7750486156292" stroke="#4DD2FF" stroke-linecap="round" stroke-linejoin="round" stroke-width="0.5"><title>2025-04-11 5.1km</title><desc>1744377642000</desc></polyline><polyline fill="none" points="95.08795573574025,268.7142857142899 95.87068799242843,267.8481320653227 96.07835165236611,268.48833300681144 96.8610839091707,267.8481320653227 97.73966093198396,265.19315579885733 99.80032340384787,265.66389924554096 100.1677283407189,265.53209120969404 101.12617600202793,261.40833190134435 101.1900725128362,259.1486960385373 100.79071932059014,257.13382914828253 98.49044493341353,252.12480594670342 98.42654842266347,251.2774004471139 99.54473736090586,250.33583390789863 102.116571918712,249.92154300559196 103.90567421988817,248.69749590181164 105.0717855411931,248.81048522838682 105.66282826574752,248.32086427953618 104.4008721782593,246.34353479689162 103.07501958007924,247.11563757278782 101.50955506664468,245.7974112383963 100.10383182996884,245.7220837155619 99.35304782859748,246.07988915649184 97.83550569810905,247.73708364306367 95.66302433249075,248.05722165561747 94.40106824506074,249.14945276502112 94.33717173425248,249.5072511102626 94.99211096955696,250.0533629458514 95.2636711402447,250.93843708386703 95.98250688624103,251.35272554859694 102.29228732339107,249.5825769832445 103.15489021857502,248.75399057431787 103.25073498458369,247.83124194359698 102.30826145102037,246.36236661291332 100.79071932059014,245.5714285714348 98.74603097635554,245.68441994184104 96.7492650152999,246.45652566244826 95.02405922493199,246.7578342762572 95.16782637411961,248.07605328498175 94.33717173425248,249.092958221765 94.33717173425248,249.45075668391655 94.99211096955696,249.99686869807192 95.67899846017826,251.3338942762639 96.38186007842887,251.35272554859694 97.32433361216681,250.86311180179473 98.18693650735077,250.93843708386703 100.71084868209437,257.6234251322312 101.01435710821534,259.3746609541122 100.91851234209025,261.1823696443171 100.02396119147306,265.00485806130746 97.96329871966736,264.6847514366382 97.14861820754595,267.1702696607972" stroke="#4DD2FF" stroke-linecap="round" stroke-linejoin="round" stroke-width="0.5"><title>2025-04-08 5.6km</title><desc>1744119870000</desc></polyline><polyline fill="none" points="122.44720946345478,266.76239472150337 123.0737720321049,265.84798722057894 123.55115303676575,263.8081364398822 125.53526783746202,264.17742168151017 126.59445694164606,260.09765212857747 126.6392114108312,258.44461270024476 126.35576643928653,256.826727932581 124.32689716940513,251.79711302826763 124.32689716940513,250.82986142531445 125.44575889914995,250.00329637160758 127.78790945338551,249.6515652776725 129.33939771854784,248.5963673969236 130.68203179416014,248.5963673969236 131.04006754769944,248.13911283960624 129.86153319245204,246.27490777606727 128.41447202203562,246.8376889321662 127.04200163349742,245.69453765358776 124.83411448687548,245.64177662989823 122.79032706056023,246.39801632167655 121.08965723140864,246.71458072197856 121.17916616977891,248.13911283960624 120.3885038808221,249.08879393310053 120.97031198028708,249.75708468635275 121.31342957739253,250.7419291739934 122.23835527390474,251.0584850545565 123.05885387567105,250.6188239416515 124.4462424205849,250.46054564784572 125.80379465263104,249.86260402602784 127.87741839181399,249.56363238442282 129.44382481329376,248.52602062630467 129.20513431093423,249.00086073328566 129.59300637728302,248.42050041281618 130.74170441977913,248.50843392887327 130.9953130785143,248.06876586964063 130.07038738200208,246.57388550962787 128.75758961914107,247.2597735113959 127.71331867133267,246.04627737091505 126.60937509807991,245.57142857142026 124.72968739212956,245.62418961816002 122.89475415536435,246.36284246109426 121.13441170059377,246.64423313111183 121.11949354415992,248.20945977891097 120.43325834994903,248.91292748553678 120.3885038808221,249.26466018910287 120.98523013666272,249.7922578072321 121.14932985702762,250.53089157537033 121.95491030241828,251.04089863305853 123.01409940654412,250.60123747220496 124.38656979496591,250.46054564784572 125.63969493226614,249.89777712388604 126.83314744400559,249.7394981230318 126.967410851561,250.7419291739934 130.02563291281695,256.9498284305155 126.90773822594201,258.0401430284837 126.72872034920147,260.8010680279258 125.96789437293774,263.77296637282416 125.58002230670536,264.0719116987166 124.50591504614567,268.7142857142899 120.3885038808221,267.65921243224875 121.01506644947222,264.96874435480277 121.22392063896405,264.86323488912603 120.86588488542475,266.58654752734583" stroke="#4DD2FF" stroke-linecap="round" stroke-linejoin="round" stroke-width="0.5"><title>2025-04-02 6.9km</title><desc>1743601029000</desc></polyline><polyline fill="none" points="147.79026892926777,268.7142857142899 148.34374671441037,268.2153838789818 149.10884835856268,265.47139852977125 151.6646134252078,266.0854409212625 152.72273272031453,261.2306098284753 152.39715755253565,257.6421704152017 149.90650751948124,251.9619243594061 149.890228761069,251.44378469017101 150.37859151267912,250.75292942674423 151.24136570707196,250.33073876512935 154.00875463278499,249.83178486023098 155.29477654525544,248.7954914643924 155.79941805521958,248.7187287480483 155.8156968136318,248.02786279549764 155.16454647819046,246.70369547807786 154.6436262098141,246.74207727961766 154.13898469984997,246.16634937911294 153.71573698177235,246.26230415987084 152.7715689954348,245.68657469103346 151.76228597544832,245.60981061962957 150.72044543881202,245.97443966074206 149.3204722175724,247.70161959809775 147.20423362741712,248.00867203589587 145.62519406399224,249.27525768337364 146.5693620502716,251.04078611581645 147.64376010379056,251.48216545869946 151.37159577425336,250.23478620086098 153.78085201536305,249.88935653683438 155.62035171297612,248.62277530554275 156.8412585919723,248.77630078840593 157.2645063100499,248.31572393837268 155.9459268806968,246.3390679468721 154.49711738427868,247.12589483434567 153.6180644314736,246.10877648556198 152.47855134448037,245.5714285714348 150.34603399591288,245.6673836763075 148.40886174794286,246.4734044936049 146.34145943290787,246.81884085743513 146.47168950003106,248.33491466447595 145.59263654710958,249.46716380512225 146.30890191614162,250.138833584424 146.6344770838623,251.09835739721893 147.59492382861208,251.50135583979136 148.58792809024453,251.0024052511144 149.53209607652389,250.9448339384253 150.6390516468673,254.07284799806075 151.50182584131835,254.82126030426298 154.35060855880147,254.22636873037845 156.14127198135247,257.9875848753145 152.69017520343186,259.15815106392256 152.5111088612466,262.0941271175543 152.1529761767597,262.53547876402445 151.24136570707196,265.7784199930611 151.0460206065327,265.9319305240206 149.10884835856268,265.58653164120915 148.5065342982416,267.88917806893005" stroke="#4DD2FF" stroke-linecap="round" stroke-linejoin="round" stroke-width="0.5"><title>2025-03-25 6.1km</title><desc>1742909450000</desc></polyline></svg>