<?xml version="1.0" encoding="utf-8" ?>
<svg baseProfile="full" height="300mm" version="1.1" viewBox="0,0,200,300" width="200mm" xmlns="http://www.w3.org/2000/svg" xmlns:ev="http://www.w3.org/2001/xml-events" xmlns:xlink="http://www.w3.org/1999/xlink"><defs /><rect fill="#222222" height="300" width="200" x="0" y="0" /><text fill="#FFFFFF" style="font-size:12px; font-family:Arial; font-weight:bold;" x="10" y="20">Over 5km Runs</text><text fill="#FFFFFF" style="font-size:4px; font-family:Arial" x="10" y="280">Runner</text><text fill="#FFFFFF" style="font-size:9px; font-family:Arial" x="10" y="290">Elliont</text><text fill="#FFFFFF" style="font-size:4px; font-family:Arial" x="65" y="280">SPECIAL TRACKS</text><rect fill="yellow" height="2.6" width="2.6" x="65" y="283" /><text fill="#FFFFFF" style="font-size:3px; font-family:Arial" x="70" y="285.5">Over 20.0 km</text><rect fill="red" height="2.6" width="2.6" x="65" y="287" /><text fill="#FFFFFF" style="font-size:3px; font-family:Arial" x="70" y="289.5">Over 40.0 km</text><text fill="#FFFFFF" style="font-size:4px; font-family:Arial" x="120" y="280">STATISTICS</text><text fill="#FFFFFF" style="font-size:3px; font-family:Arial" x="120" y="285">Number: 43</text><text fill="#FFFFFF" style="font-size:3px; font-family:Arial" x="120" y="290">Weekly: 2.0</text><text fill="#FFFFFF" style="font-size:3px; font-family:Arial" x="141" y="285">Total: 281.4 km</text><text fill="#FFFFFF" style="font-size:3px; font-family:Arial" x="141" y="290">Avg: 6.5 km</text><text fill="#FFFFFF" style="font-size:3px; font-family:Arial" x="167" y="285">Min: 5.0 km</text><text fill="#FFFFFF" style="font-size:3px; font-family:Arial" x="167" y="290">Max: 10.1 km</text><polyline fill="none" points="38.5,48.28944397279702 32.53130094555672,47.116900323140726 25.96397130744299,44.08689769964258 24.889957613311708,43.73408291170199 14.105803716985974,41.63792105446919 11.5,41.648298206979234 14.246657971991226,41.72093824276817 24.573035539651755,43.713329059981334 25.831920443451963,44.08689769964258 32.584121291176416,47.17915964072745 38.464786436234135,48.36207894553081" stroke="#4DD2FF" stroke-linecap="round" stroke-linejoin="round" stroke-width="0.5"><title>2025-09-11 6.0km</title><desc>1757587445000</desc></polyline><polyline fill="none" points="65.92042574757943,56.3128930548628 61.329194120597094,55.40960736999841 56.238469336007256,53.04649538414378 55.0684237202513,52.69968420787336 46.96705524582649,51.13498103132588 45.557526609220076,51.08658762246341 43.97009630003595,51.215636642460595 43.18322351749521,51.07045647916675 42.21160669031087,50.31228877934336 41.80790674101445,49.59444199389691 41.5,48.58621846494498 44.51748606184265,46.077698750385025 45.441206284827786,45.19848683792952 46.52230106436764,43.924014335083484 48.51343132284819,42.173595452230074 49.98454130764003,41.31047044372826 50.97668525087647,40.57640293752047 51.859351241757395,40.431201909035735 52.25620881904615,40.1972663196284 53.043081601615995,39.29378399802226 53.71363405979355,37.76106554982107 54.46629498223774,37.09956672995759 57.55904713633936,35.38125558397587 61.40446021288517,33.687106945129926 61.3976178408484,34.25989487217885 61.9655347186781,34.60679244707717 62.35554992395919,35.31671729878144 63.11505321844015,37.09149963469099 66.1530663963349,42.972178786381846 66.31728332483908,43.53682846988522 66.52255448553478,43.762687137343164 67.41890522043104,45.95670690495899 67.64470349717885,46.82784377876669 67.97313735424541,46.91657010740164 68.06893056258559,48.49749413716927 67.71312721740105,50.85268570046901 67.97997972628218,51.04625975758972 68.48631525592646,51.143046596378554 68.5,51.28822661739105" stroke="#4DD2FF" stroke-linecap="round" stroke-linejoin="round" stroke-width="0.5"><title>2025-09-09 10.0km</title><desc>1757415422000</desc></polyline><polyline fill="none" points="98.46280991740059,48.55079183714406 92.04752066120273,47.246680550793826 85.23243801645003,44.07948277725518 83.98657024797285,43.684945968328975 72.63429752062075,41.47112740208104 71.5,41.44920816285594 75.07954545452958,41.94238989050791 84.18181818176527,43.76166158010892 92.3729338842677,47.36722936180013 98.5,48.55079183714406" stroke="#4DD2FF" stroke-linecap="round" stroke-linejoin="round" stroke-width="0.5"><title>2025-09-08 5.7km</title><desc>1757333196000</desc></polyline><polyline fill="none" points="128.5,48.487740630189364 122.44349315069849,47.343359830687405 115.37910958903376,44.08452757853229 114.35273972601863,43.735749947227305 103.23835616436554,41.566761766735 101.5,41.446866576479806 102.81301369861467,41.534063092723954 114.08458904112922,43.71395130491146 115.4900684931199,44.171721796410566 122.36952054791618,47.354258757164644 128.41678082192084,48.55313342351292" stroke="#4DD2FF" stroke-linecap="round" stroke-linejoin="round" stroke-width="0.5"><title>2025-09-04 5.8km</title><desc>1756983645000</desc></polyline><polyline fill="none" points="158.5,48.14622428372968 153.18599759612698,47.08476381802757 146.83353365384392,44.18719830761984 143.39362980765873,43.38389589063445 135.8972355769365,41.95897233190772 134.36388221153175,41.93028235834208 132.50600961537566,42.083295442433155 131.5,41.853775716263044 131.96243990384392,42.06416882149642 132.60336538459524,42.15023858284985 134.36388221153175,41.97809897574916 135.99459134615608,42.02591556713014 146.16826923078042,44.00549959459022 147.25540865384392,44.39758582144714 153.20222355771693,47.15170314536954 156.5366586538148,47.754154795264185" stroke="#4DD2FF" stroke-linecap="round" stroke-linejoin="round" stroke-width="0.5"><title>2025-09-02 6.2km</title><desc>1756809719000</desc></polyline><polyline fill="none" points="188.5,48.49762634826038 182.40654205606552,47.30791804092587 174.17289719625842,43.66159523160604 163.02336448593996,41.502381390324445 161.5,41.39221618292504 162.9672897196142,41.52441441744304 173.6028037383221,43.58448124530696 175.04205607471522,44.0141155632009 182.55607476632576,47.451124411294586 188.49065420555416,48.60778381707496" stroke="#4DD2FF" stroke-linecap="round" stroke-linejoin="round" stroke-width="0.5"><title>2025-08-29 5.7km</title><desc>1756465472000</desc></polyline><polyline fill="none" points="38.5,78.36385409281502 32.65014817257179,77.21116515206813 25.742344418889843,74.04643906184356 24.66661178797949,73.72157718158996 13.820381955942139,71.61518805422384 11.5,71.61518805422384 13.935956536093727,71.70950497154263 24.959993414580822,73.83685087756749 32.516792887763586,77.2216442046265 38.357754362921696,78.38481194576889" stroke="#4DD2FF" stroke-linecap="round" stroke-linejoin="round" stroke-width="0.5"><title>2025-08-27 6.0km</title><desc>1756291993000</desc></polyline><polyline fill="none" points="67.2804716041428,78.37704872873292 62.73414148122538,77.54206122150936 60.7613749584998,77.03472353157849 54.53819329128601,74.11748034624907 53.255895051464904,73.70525412942516 43.1409830620978,71.72865794180689 41.5,71.5489653829136 44.199103287945036,71.94006052626355 53.23796081036562,73.715824054314 54.34091663901927,74.06463092911872 60.25024908664636,76.87617995958135 61.7298239787342,77.39408800256206 67.27150448353495,78.45103461709368 67.48671537695918,77.62661724531063 68.5,77.79572907197871 67.99784124881262,77.67946472281619 68.03370973095298,77.42579656845919" stroke="#4DD2FF" stroke-linecap="round" stroke-linejoin="round" stroke-width="0.5"><title>2025-08-26 6.0km</title><desc>1756205162000</desc></polyline><polyline fill="none" points="98.5,80.04208147955796 93.3474434199452,79.02838595750654 87.74224643755588,76.44963009336789 86.58046940487111,76.08504079614795 77.3164291701396,74.29764044129115 74.22338642078103,74.43102987868042 73.40108968983986,74.24428460530908 72.60896898576175,73.76408051233011 72.2015926236345,73.27498084741092 71.53017602680484,71.60312713824533 72.02053646268905,71.0606566094284 73.3935456831532,69.95791852044931 71.7640402346733,71.25630213377735 71.5,71.62091299619351 71.93000838224543,72.85702062999917 72.28457669739146,73.4439428811238 73.52933780383319,74.32431834618183 74.30637049453799,74.4843855925792 75.99622799665667,74.33321097923181 77.3918692371808,74.35988887251733 86.72380553226685,76.15618029906909 87.74979044427164,76.50298448809917 93.25691533950157,79.02838595750654" stroke="#4DD2FF" stroke-linecap="round" stroke-linejoin="round" stroke-width="0.5"><title>2025-08-23 7.3km</title><desc>1755948655000</desc></polyline><polyline fill="none" points="128.5,77.33325244977459 128.0915438324446,78.740550623952 121.18968192406464,77.38263162882504 112.73778122582007,73.53099106394075 104.51629169902299,71.75326665906323 101.5,71.259449376048 112.20364623743808,73.41988410553313 120.88595810713014,77.33325244977459 126.53103180759354,78.48131279935478" stroke="#4DD2FF" stroke-linecap="round" stroke-linejoin="round" stroke-width="0.5"><title>2025-08-19 5.0km</title><desc>1755607675000</desc></polyline><polyline fill="none" points="157.7220712150156,82.02899787578644 152.81965207937174,81.06015738978022 147.13196520792553,78.43038792958396 146.17056265292922,78.15356502668146 137.19502582223504,76.43205094241421 133.84112530580023,76.52721098670736 132.73294373470708,76.0081548144808 131.96969285132946,75.08249622141011 131.54403370482032,73.698313709996 134.72179940203205,71.11155796895764 137.71609132917365,67.97100212421356 136.83541723291273,68.75831566935813 134.80986681161448,70.95583085399994 131.5,73.70696492562274 131.6614569176745,74.36445455511421 132.2779287850135,75.56695440086332 132.7989942919521,76.05140962508449 133.70168524057954,76.49260734744894 134.20073389509344,76.57046551459644 135.93272628434352,76.41474910392571 137.37849959233426,76.43205094241421 141.0186191900284,77.12412139109074 141.33419407450128,77.01166035356437 142.77996738246293,77.27983641095489 143.2129654797609,77.4701543539777 145.4073117695225,77.79888427231344 146.8237292742706,78.257373728331 147.55762435446377,78.2400722874736 147.5429464528279,78.43903862976731 148.01263930418645,78.42173722845473 147.66036966568208,78.65530582780048 148.19611307422747,78.98403084100573 152.49673824411002,80.92175064142793 153.31870073388563,81.15531188939349 153.57556401196052,81.03420614283823 154.97730361510185,81.13801107974723 154.97730361510185,81.46672581839084 157.35512367493357,81.94249474137905 157.77344387062476,81.98574632034433 157.89086708344985,81.38887245059595 158.28717042674543,81.31966939293488 158.5,80.60168411214545" stroke="#4DD2FF" stroke-linecap="round" stroke-linejoin="round" stroke-width="0.5"><title>2025-08-16 10.0km</title><desc>1755297330000</desc></polyline><polyline fill="none" points="177.74876847286941,74.05941793077363 177.26108374382602,76.54164817935089 188.5,78.74948350632621 169.8571428571595,75.05231619346887 161.5,71.25051649366651 169.60221674875356,75.03925179599901 176.64039408869576,76.4501985024981" stroke="#4DD2FF" stroke-linecap="round" stroke-linejoin="round" stroke-width="0.5"><title>2025-08-13 5.0km</title><desc>1755095249000</desc></polyline><polyline fill="none" points="38.34882418817142,110.02523960399412 33.397816349403,109.03628576226038 27.76651735723135,106.44356623398926 26.715845464728773,106.1049919823563 17.4638857782993,104.32299914004398 14.183370660728542,104.42991980529041 13.457726763735991,104.27844882161298 12.709406494977884,103.83294430272508 12.316349384142086,103.44089831899328 11.953527435631258,102.83500537547661 11.52267637179466,101.6232060239854 12.459966405411251,100.69652381768537 13.548432250856422,99.86784718318813 12.724524076184025,100.44703066056536 11.5,101.63211637885252 12.301231802935945,103.4498084758743 12.928611422190443,104.037876682778 13.450167973147472,104.3051790155805 14.183370660728542,104.46555999598786 16.753359462483786,104.31408907828882 17.683090705482755,104.37645949012949 27.14669652856537,106.27427928332327 33.25419932810473,109.03628576226038 38.5,110.13215281681187" stroke="#4DD2FF" stroke-linecap="round" stroke-linejoin="round" stroke-width="0.5"><title>2025-08-12 8.1km</title><desc>1754996616000</desc></polyline><polyline fill="none" points="68.5,108.1314941298333 63.05585831060307,107.0427295475456 56.908719346043654,104.20995183674677 55.89509536785772,103.87271035306912 50.11580381472595,102.65863036698283 45.75885558585287,101.9070486922792 44.22207084472757,101.86850587017398 42.276566757500404,102.0323127481679 41.5,101.8974129883427 42.211171662173,102.0323127481679 44.140326975495555,101.88777728331479 45.77520435969927,101.91668439520436 55.805177111702505,103.8823458418774 56.97411444140016,104.29667086761037 62.80245231607114,106.98491866415134 68.03405994549394,108.06404892551654" stroke="#4DD2FF" stroke-linecap="round" stroke-linejoin="round" stroke-width="0.5"><title>2025-08-10 6.4km</title><desc>1754781124000</desc></polyline><polyline fill="none" points="95.82253984318231,116.29688423377956 91.32823172275675,115.39519828988705 86.23286111812922,113.04432250599348 85.26296483684564,112.72227890513022 76.86858082472463,111.07983471591433 76.11725271947216,111.03152698141639 73.76764482673025,111.16839881387568 73.25537566407002,111.04762956310879 72.53819883635151,110.63701263442636 72.03959018466412,110.07341705739236 71.56830255503883,108.97036756335001 71.5,108.55168753294856 74.48482165447786,106.10397219812876 76.54755881612073,103.88163411305868 78.49418163421797,102.18262767313718 80.94624335950357,100.58021139557968 81.21945357960067,100.45137239657197 81.90930938531528,100.42721505924419 82.1756893498823,100.25006101088366 82.92701745510567,99.42065231677407 83.69883632686106,97.76180699613178 84.39552238810575,97.10147956299625 87.51694915257394,95.41842319349962 91.37604351126356,93.70311576621316 91.37604351126356,94.29099556767324 92.0590690614772,94.73391561555763 92.26397672656458,94.9916133304796 92.37326081460924,95.41037020002113 94.7843410068599,99.70249126688577 95.7747280546464,101.87664131946804 96.3962813053804,102.73823123398324 96.40311156088137,102.98784886506473 96.68315203647944,103.41461253925809 97.1885909436387,104.88813609069621 97.57791550722322,105.58060149132507 97.9057677713281,107.01382321975689 98.01505185937276,108.46312029951514 97.7076903617708,110.54039655497763 97.78965342781157,110.66116663453431 98.5,110.87855228049739 98.41803693398833,111.52265414455906" stroke="#4DD2FF" stroke-linecap="round" stroke-linejoin="round" stroke-width="0.5"><title>2025-08-08 10.0km</title><desc>1754654808000</desc></polyline><polyline fill="none" points="128.5,108.7800683980895 121.29644268780248,107.30833346835425 113.03636363637634,103.4968301997651 104.50948616606183,101.66021936192556 101.5,101.2199316019105 112.84426877473015,103.4968301997651 121.50988142297138,107.43412351148436 128.31857707514428,108.74233183924662" stroke="#4DD2FF" stroke-linecap="round" stroke-linejoin="round" stroke-width="0.5"><title>2025-08-07 5.0km</title><desc>1754573743000</desc></polyline><polyline fill="none" points="158.5,108.79352541661501 151.36231313925236,107.36629666630324 143.20495672698598,103.62286689948814 142.16404405975481,103.3098655772119 131.5,101.20647458337771 134.33595594018698,101.80744736621273 134.56963021238334,101.70728545392194 135.1963021242991,101.97021028753079 142.62077104637865,103.48514642270311 151.45790715969633,107.46645364792494 158.02202989766374,108.78100594317948" stroke="#4DD2FF" stroke-linecap="round" stroke-linejoin="round" stroke-width="0.5"><title>2025-08-04 5.0km</title><desc>1754309955000</desc></polyline><polyline fill="none" points="188.5,108.14201955803583 183.10327570518712,107.06092628045735 176.879435850773,104.20368771221547 175.94585987261962,103.89479153889988 166.06960873521166,101.94485959618032 164.33348498636042,101.85798044197145 162.22065514104906,102.02208543952293 161.5,101.86763368552784 161.655595996388,101.9834725262699 162.6464968152868,102.05104511344689 165.5045495905797,101.89659340991057 169.4272065514233,102.66884923579346 170.05777979985578,102.67850239104155 171.14695177433896,103.0067090436205 175.83939945403836,103.90444456062687 177.14149226568406,104.3677883663695 183.00500454960275,107.05127360253391 187.94313011830673,108.04549390864122" stroke="#4DD2FF" stroke-linecap="round" stroke-linejoin="round" stroke-width="0.5"><title>2025-08-03 6.5km</title><desc>1754227262000</desc></polyline><polyline fill="none" points="35.372669575561304,138.1623588235816 28.207655692182016,136.73586513449845 19.17909559700638,132.72139044905634 11.5,131.15596012532478 19.843117810436524,132.89813125411456 28.486116620420944,136.84948031948443 38.5,138.8440398746825 35.59758032526588,138.1876063413947 35.59758032526588,137.99824982374412" stroke="#4DD2FF" stroke-linecap="round" stroke-linejoin="round" stroke-width="0.5"><title>2025-08-01 5.0km</title><desc>1754057984000</desc></polyline><polyline fill="none" points="65.91685649202554,146.27037494332762 61.31093394078198,145.3601775738207 56.2403189066099,143.0242215596445 55.15375854211743,142.6778493869424 46.953302961279405,141.09096078505536 45.45671981776832,141.04262861816096 43.96697038723505,141.1715143263209 43.25626423690119,141.04262861816096 42.66856492025545,140.71235796572728 42.23804100227426,140.30153143710777 41.746013667434454,139.3670939708245 41.5,138.5534793191764 44.51366742598475,136.05619032276445 46.6047835990903,133.82467041152995 48.51822323462693,132.14897219411068 49.96013667425723,131.31916526597342 51.08769931664574,130.48934902359179 51.88724373577861,130.40878384379903 52.174259681109106,130.23154013918975 53.04897494305624,129.22446556884097 53.732346241449704,127.70979958012322 54.40205011391663,127.10553587078903 57.600227790448116,125.34911464173638 61.34510250567109,123.72962505667238 61.40660592252971,124.25334447635396 61.953302961279405,124.63203159109253 62.52050113896257,125.64722577278008 62.86902050112258,126.62212134669971 63.730068337143166,128.40268255403498 65.97152619590634,132.60012545042264 66.27220956719248,133.502423703947 67.16059225512436,135.36337907554844 67.76195899772574,137.4337375864925 67.80296127562178,138.72264745914435 67.7209567198006,139.18987173997448 67.93280182231683,139.34292732799076 67.73462414575624,140.5593052120239 68.5,140.8492996347486 68.4726651480305,141.24401243845932" stroke="#4DD2FF" stroke-linecap="round" stroke-linejoin="round" stroke-width="0.5"><title>2025-07-28 10.0km</title><desc>1753704756000</desc></polyline><polyline fill="none" points="95.84889336017659,138.31062527570612 88.67786720325239,136.87627334967692 80.4637826961698,133.11101630351186 79.12736418511486,132.66276338630996 71.5,131.13869068601343 79.96398390340619,132.95732978155138 87.03722334007034,136.28715945468866 88.87344064383069,136.97872763887426 98.5,138.86130931398657 95.95754527160898,138.28501200188475 96.08792756538605,137.45257756528008" stroke="#4DD2FF" stroke-linecap="round" stroke-linejoin="round" stroke-width="0.5"><title>2025-07-22 5.0km</title><desc>1753194638000</desc></polyline><polyline fill="none" points="116.85765124554746,136.42519329274364 125.8016014234745,138.19949229255872 128.5,138.35993243262783 126.14590747331386,138.22780528003204 111.40480427048169,135.33983291356708 104.97508896799991,132.42344943210628 101.5,131.64006756737217 104.93505338081741,132.4423260161784 110.96441281138686,135.2265771343009 113.4466192171094,135.7551028379603" stroke="#4DD2FF" stroke-linecap="round" stroke-linejoin="round" stroke-width="0.5"><title>2025-07-19 6.4km</title><desc>1752877000000</desc></polyline><polyline fill="none" points="156.02734673110535,146.34391244150902 151.43233273975784,145.4290842026603 146.2122869498853,143.04076273152896 145.31938438056386,142.7573974648767 136.8368099720101,141.12195396038442 133.8970999745361,141.21911002537672 133.25833121340838,141.09766492430208 132.66077334008878,140.74952120145463 132.076952429401,140.13419342420093 131.56868481301353,138.99258497641858 131.5,138.5796584536438 134.5015263291716,136.09395424617105 136.4865174255974,133.94014982158842 138.4440345967887,132.23163649913477 140.8342660900671,130.63644878939522 141.2532434494933,130.43401135208114 141.89201221065014,130.4016213109353 142.34533197659766,130.1182078485581 143.08712795726024,129.2355704255533 143.75337064362247,127.72129647624388 144.46082421779283,127.06537144248432 147.93627575680148,125.17044436939614 151.48728059019777,123.65608755849098 151.49414907148457,124.23915907630726 152.04362757568015,124.60357645093609 152.40765708469553,125.27571936370805 153.156321546674,126.99249052570667 155.46413126430707,131.33282936178875 156.06855761894258,132.78225171761005 156.23340117017506,132.9360993582086 157.27054184686858,135.59194526018837 157.5040702111437,135.92391932424653 157.87496820147499,137.3084780893114 157.94365301451762,138.22340627683297 157.83375731366687,139.61601871328457 157.4972017298569,140.9195450837724 158.5,141.14624298853596" stroke="#4DD2FF" stroke-linecap="round" stroke-linejoin="round" stroke-width="0.5"><title>2025-07-17 10.0km</title><desc>1752756134000</desc></polyline><polyline fill="none" points="188.5,138.81001207380177 181.34195969975553,137.37658058895613 172.26372975111008,133.34024369516555 161.5,131.18998792619095 172.74377716321032,133.54143516851764 181.1392730146763,137.3640065497966 188.16930067166686,138.79743819076248" stroke="#4DD2FF" stroke-linecap="round" stroke-linejoin="round" stroke-width="0.5"><title>2025-07-14 5.0km</title><desc>1752500928000</desc></polyline><polyline fill="none" points="38.5,168.78223850869836 31.343627834226936,167.37637853726483 23.944487881148234,163.94252392493217 22.19233776384499,163.30799601293256 11.5,161.21776149130892 22.888975762296468,163.4946222352737 31.470289288496133,167.42614378735016 37.74003127444303,168.68270916824258" stroke="#4DD2FF" stroke-linecap="round" stroke-linejoin="round" stroke-width="0.5"><title>2025-06-21 5.0km</title><desc>1750468889000</desc></polyline><polyline fill="none" points="59.97303190268576,166.65815049567027 66.99414734909078,168.06054482147738 68.5,168.14088944171817 67.20484278173535,168.06054482147738 55.72813862748444,165.81816068684566 54.49495065413066,165.33607482795196 50.807780582952546,163.5830061302404 50.15710351159214,163.3711738928905 42.634037181560416,161.91024369176012 41.5,161.85911055827455 42.503901767282514,161.8810247631336 45.43504705070518,162.4215728822819 50.70862979115918,163.56109248151915 54.631282992864726,165.4164227117435 55.63518476014724,165.80355207536923 56.725843470252585,166.0226809134765" stroke="#4DD2FF" stroke-linecap="round" stroke-linejoin="round" stroke-width="0.5"><title>2025-06-17 8.1km</title><desc>1750165544000</desc></polyline><polyline fill="none" points="98.5,168.7659015625395 91.6925754059921,167.41218310472323 82.81786542921327,163.44938676458696 71.5,161.2340984374605 82.83874709974043,163.49861490079638 91.54640371224377,167.39987649892282 97.28886310901726,168.56899806736328" stroke="#4DD2FF" stroke-linecap="round" stroke-linejoin="round" stroke-width="0.5"><title>2025-06-15 5.0km</title><desc>1749939796000</desc></polyline><polyline fill="none" points="120.15694828683627,166.5476281631636 126.52915513937478,167.8208640805533 128.5,167.94276827983776 126.9486060864001,167.84795392326487 116.28420940626529,165.77554687948214 115.24420089379419,165.38272991589474 111.76792934664991,163.73016241009464 110.99223238986451,163.47279138720114 103.98223026178312,162.11818949895314 103.13183656099136,162.05723172016587 101.5,162.18592029421416 103.81559906364419,162.10464333106574 110.69344541392638,163.43215375990985 111.52660140453372,163.66243329680947 113.51468397531426,164.60386135783847" stroke="#4DD2FF" stroke-linecap="round" stroke-linejoin="round" stroke-width="0.5"><title>2025-06-11 8.1km</title><desc>1749642919000</desc></polyline><polyline fill="none" points="158.5,168.75761206554307 151.48565335402964,167.40021930405055 142.67060876305914,163.46368833849556 131.5,161.24238793445693 142.79623885225737,163.51305007506744 151.5589375726413,167.46191932777583 157.3379216750618,168.62187352111505" stroke="#4DD2FF" stroke-linecap="round" stroke-linejoin="round" stroke-width="0.5"><title>2025-06-08 5.0km</title><desc>1749387304000</desc></polyline><polyline fill="none" points="171.9601398599334,172.2563473537739 174.86783216753975,170.52019920607563 180.98531468515284,169.40727984640398 184.08181818178855,167.09239786749822 187.44265734264627,167.18143203217187 188.3489510489162,166.42464101308724 182.3825174823869,156.7197848650394 178.34195804176852,157.5211119944288 174.4902097901795,159.7915303253103 172.3377622377593,159.7915303253103 168.9013986014761,161.39417096233228 163.27482517482713,162.55162973457482 163.46363636362366,166.20205515241832 161.5,168.65049295013887 163.16153846145608,170.4756824898359 163.8790209791623,172.74602883096668 164.9363636362832,173.41377535375068 171.50699300691485,172.03376467025373 174.98111888114363,170.4756824898359 180.04125874117017,169.8079311651527 184.27062937058508,167.09239786749822 187.2538461536169,167.22594910740736 188.46223776205443,166.20205515241832 182.3825174823869,156.58623019064544 177.88881118874997,157.5656301221461 174.565734265605,159.74701244014432 171.5447552446276,160.05863753479207 167.84405594388954,161.70579480053857 163.38811188796535,162.46259456081316 163.5013986013364,166.42464101308724 161.5,168.65049295013887 163.27482517482713,170.56471591748414 164.18111888109706,172.87957822266617 165.46503496496007,173.50280814105645 175.81188811152242,170.34213231221656 180.1545454543084,169.8524479540356 183.893006992992,167.3149832431227 187.36713286698796,167.2704661777243 188.5,166.15753796565696 181.9671328670811,156.45267547256663 177.51118881092407,157.8327387869067 174.41468531475402,159.74701244014432 163.5769230767619,162.24000654157135 163.53916083928198,166.20205515241832 161.53776223771274,168.56145910560736 163.23706293688156,170.4756824898359 163.8790209791623,172.6124793953786 165.8048951048404,173.54732452743337 181.06083916057833,168.91759436775465 182.9489510487765,166.38012385068578 182.3825174823869,163.842637573689 179.8902097903192,160.7264047942881 177.77552447561175,159.65797665526043 175.96293706283905,159.56894085078966 173.88601398584433,160.4147802090156 170.52517482521944,164.46588127722498 165.1629370630253,165.35622777591925 161.95314685301855,167.89370465217507 161.83986013988033,168.96211125364061 163.6524475524202,171.14343272330007" stroke="#4DD2FF" stroke-linecap="round" stroke-linejoin="round" stroke-width="0.5"><title>2025-06-04 6.4km</title><desc>1749041988000</desc></polyline><polyline fill="none" points="38.5,198.7822926046283 31.579875920899212,197.4002201252515 23.696587824786548,193.75985925654095 22.50310197751969,193.36496562202228 11.5,191.2177073953717 22.81717720051529,193.4883700306309 31.422838309430517,197.37554010635358 37.170414889464155,198.56017495014385" stroke="#4DD2FF" stroke-linecap="round" stroke-linejoin="round" stroke-width="0.5"><title>2025-05-28 5.0km</title><desc>1748436903000</desc></polyline><polyline fill="none" points="68.5,198.7704701553448 61.00237341772299,197.2346258794205 52.31922468356788,193.30680015370308 41.5,191.21694104147173 51.966772151878104,193.2312637355426 53.26977848104434,193.64671342453948 61.63251582282828,197.4738160835186 68.37183544307481,198.78305895852827" stroke="#4DD2FF" stroke-linecap="round" stroke-linejoin="round" stroke-width="0.5"><title>2025-05-27 5.0km</title><desc>1748351986000</desc></polyline><polyline fill="none" points="91.49476505536586,200.56973551820556 91.53084708336974,198.9533236429561 92.37877474335255,197.03381156545947 92.93804617866408,193.47254545317264 92.90196415054379,193.80089273079648 92.09011851868127,193.90192251550616 88.13913644338027,196.70547147485195 86.6417322778725,197.0590684653289 86.04637881444069,196.0740461719688 86.73193734802771,194.9627310827491 87.99480833107373,193.97769480869465 87.79635717655765,192.28543766700022 88.39171063998947,191.19935197279847 87.59790602215799,190.74470907823707 84.69330276129767,190.79522502458713 83.93558017147006,189.68387021525996 84.18815436813748,188.37044011337275 84.747425803449,188.54724869203346 84.69330276129767,187.6884621843492 85.52318940724945,188.19363132303988 87.03863458684646,188.14311448692752 88.24738252768293,188.95138179129572 89.88911480555544,189.0018983510381 90.55663232511142,188.67354040438659 92.19836460298393,186.37501433712896 92.2705286591081,182.53563826884783 91.67517519567627,181.85363339612377 90.73704246553825,181.5 89.5824175667949,181.82837389592896 88.55407976638526,182.9650471285422 87.76027514843736,183.24289925477933 86.13658388471231,182.93978781838086 84.42268755059922,182.00519030670694 82.8531193289673,182.53563826884783 82.0593147110776,183.7480835996248 82.0953967391979,185.0362958573969 82.78095527278492,185.99613297969336 84.33248248044401,186.72863606043393 84.69330276129767,187.61268666454998 83.9897032136214,189.2544808901148 84.4948516068398,190.769967053624 84.6211387051153,192.86636394601373 83.9536211855011,195.13953176994983 84.47681059275055,195.7709610677848 86.01029678643681,196.14981735081528 86.60565024975222,197.0590684653289 85.23453318257816,199.28165873675607 83.53867786249612,199.96358313792734 80.70623865787638,202.03459350085177 78.6495630570571,202.91855249649961 78.18049669195898,204.13083051687863 77.02587179321563,205.3936095416866 78.0181275656214,208.22219538311765 78.92017826763913,208.42423515632981 80.11088519450277,207.6918396637484 81.50004327576607,208.2727053523995 82.51034006214468,208.14643039696966 83.30414468003437,207.31301298408653 83.88145712943515,205.21682112806593 85.2525741966092,204.4591541018599 88.39171063998947,205.4441204781615 89.5824175667949,204.8632436661428 91.44064201315632,204.76222137876903 91.54888809740078,199.15537609483 92.97412820678437,194.15449667496432 92.75763603823725,193.80089273079648 92.21640561695676,193.8514076318097 88.15717745741131,196.7307284307899 86.69585532002384,197.03381156545947 85.09020507021341,199.35742827017384 83.37630873615853,200.03935232151707 80.68819764390355,202.03459350085177 78.75780914135976,202.7922729638667 78.18049669195898,204.20659756285022 77.02587179321563,205.49463139727595 77.92792249534978,208.09592038458504 78.5232759587816,208.5 80.0026391102001,207.6918396637484 81.69849443022395,208.29796033048478 82.83507831487805,207.8433700636233" stroke="#4DD2FF" stroke-linecap="round" stroke-linejoin="round" stroke-width="0.5"><title>2025-05-23 6.4km</title><desc>1747958832000</desc></polyline><polyline fill="none" points="117.45308017521165,196.2609099506517 118.18378490814939,196.95508605199575 120.01054674061015,197.24737005149655 120.92392765684053,198.41650205080805 120.68905827833805,203.01989710853377 120.24541611899622,203.86018867589883 118.65352366515435,204.33513462169503 117.08772780874278,203.78711997522623 115.62631834263448,204.11592893171473 113.14714156999253,202.65455191805086 111.65963550633751,203.23910392301332 110.5635784069309,203.0564315932861 110.87673757807352,201.99692900072841 110.09383965004236,199.95097809076833 110.32870902842842,198.48957258829614 109.493617905071,197.10122810167377 109.85897027153987,194.90908685923205 115.1304829880828,194.6898714978597 116.93114822299685,195.3475169071171 117.87062573677395,196.84547944900987 119.88006375252735,197.21083457340137 120.76734807121102,198.05114898820466 120.68905827833805,203.1295005438733 120.29760931432247,203.86018867589883 118.75791005545761,204.29860035570164 117.2704039918026,203.8236543286912 115.57412514742464,204.07939462825016 113.09494837478269,202.6910864651727 109.93726006429642,203.3487072458811 108.24098121980205,204.73701113578863 108.78900976956356,205.1388868940121 109.20655533124227,207.33092317769479 111.76402189675719,208.5 112.86007899628021,207.7327940568066 113.59078372933436,206.2349078469706 113.48639733879827,205.0658186305227 112.12937426322605,202.91029361690744 113.48639733879827,202.6910864651727 115.60022174508777,204.07939462825016 117.2704039918026,203.60444811395428 117.06163121107966,203.0564315932861 115.36535236658528,203.09296607170836 114.4519714503549,201.92385966274014 115.31315917137545,198.48957258829614 113.06885177711956,195.05523030851327 113.22543136274908,192.315023998759 113.82565310772043,191.14585860955412 115.02609659754671,190.45166363242606 117.29650058946572,191.18239512490982 119.14935901958961,190.70741993909178 117.06163121107966,192.7534593702294 114.89561360958032,192.64385061174107 113.59078372933436,191.65736925475358 111.58134571358096,191.21893163386267 111.6335389087908,186.7614314134844 112.52082322735805,184.89802260746364 112.57301642256789,182.12114795439993 113.1210449723294,181.57307632359152 114.79122721916065,181.5 119.59300117893144,182.19422406563535 120.58467188791838,183.0711354503146 120.92392765684053,184.89802260746364 121.75901878031436,185.81146032754623 121.21099023055285,186.5422076916584 121.55024599947501,187.0171921379515 119.90616035019048,188.00369492125174 119.72348416689783,190.30551703396486 117.29650058946572,192.68038687076478 115.391448964132,192.7534593702294 113.5124939364614,191.54775993383373 111.68573210388422,191.328541123381 111.60744231124409,187.0171921379515 112.7295960081974,183.29036273398378 113.90394290059339,182.85190794157097 113.9300394981401,181.7557670234819 119.279842007556,182.0846098894981" stroke="#4DD2FF" stroke-linecap="round" stroke-linejoin="round" stroke-width="0.5"><title>2025-05-20 5.0km</title><desc>1747754393000</desc></polyline><polyline fill="none" points="154.92259414237924,196.88678985866136 157.4456066947896,197.19754025462316 158.5,196.08771632399294 152.2489539750386,186.6762878690206 147.8807531381026,187.74174351306283 144.4916317993775,189.73946533541312 142.38284518825822,189.82825274462812 137.26150627620518,191.78157085122075 133.1569037658628,192.35868577228393 133.49581589968875,196.13210933920345 131.5,198.70689594867872 133.1569037658628,200.1718534809188 133.75941422604956,202.21390670671826 134.66317991632968,203.10175274306675 136.35774058592506,203.36810617669835 144.83054393320344,200.6157789659337 149.87656903779134,199.9054979578359 154.24476987472735,197.01996862894157 157.4456066947896,197.10875445153215 158.4246861927677,196.26528835605131 152.3995815902017,186.72068190973368 150.7426778243389,186.76507594564464 144.64225941430777,189.65067790696048 141.85564853576943,189.9614338221727 138.35355648538098,191.5596033561451 132.85564853576943,192.58065283187898 133.64644351485185,195.51060668524588 131.5,198.66250321402913 133.08158995839767,199.9942831514636 133.57112970738672,201.85876775055658 134.70083682029508,203.05736048726249 136.35774058592506,203.2793217182916 145.5460251045879,200.26063861662988 150.47907949821092,199.63914226053748 154.05648535559885,197.10875445153215 157.48326359852217,197.10875445153215 158.4246861927677,196.17650234969915 152.3995815902017,186.76507594564464 151.08158995816484,186.63189382333076 147.69246861943975,187.74174351306283 144.75523012550548,189.65067790696048 142.34518828452565,189.73946533541312 137.8263598328922,191.64839036864578 133.34518828475848,192.44747261054 133.57112970738672,195.95453724917024 131.57531380769797,198.5737177300034 133.08158995839767,200.08306832588278 134.13598326360807,202.70222226623446 136.50836820108816,203.23492948169587 144.15271966555156,200.660171487747" stroke="#4DD2FF" stroke-linecap="round" stroke-linejoin="round" stroke-width="0.5"><title>2025-05-14 5.0km</title><desc>1747227249000</desc></polyline><polyline fill="none" points="171.0614109998569,208.2072240831185 171.6113941486692,207.70532147266204 172.40975678374525,204.73570418082818 174.8048446890898,205.1121370839246 176.0999662972754,199.92566322856874 175.85158681077883,196.60039055150992 173.3500505540287,190.3470488191233 173.45649890543427,188.94577039235446 175.1951553109102,188.00460749759804 177.78539852704853,187.56539656739915 179.45308936492074,186.41507746368006 180.81917654059362,186.5405671554763 181.33367690548766,185.99677789857378 178.583761162241,181.60457742671133 177.89184687833767,181.5 175.99351794598624,182.1902099634608 174.8048446890898,183.00590944757278 173.77584395941813,183.02682477340568 171.6823597161565,183.863435936757 169.5356512971921,184.17716418294003 169.6775824322831,185.80854279684718 168.66632309451234,187.08435487173847 168.8437370134052,187.54448173608398 169.44694433768746,187.9418631404842 170.05015166208614,189.34314889581583 170.81303151347674,189.42680742329685 177.6257260000566,187.37716300397005 178.3886058514472,186.7078866167867 178.67246812174562,185.80854279684718 178.335381675628,184.6372980163287 177.1467084189644,183.3614696762961 175.6919142837869,182.9013327843859 174.41453406750225,183.25689320683887 172.7113604459446,185.1810911246721 170.28078975668177,185.59939246736758 168.87921979720704,186.85429102586932 168.9147025810089,187.54448173608398 170.81303151347674,189.00851442132262 172.97748132422566,188.77845288168464 177.57250182447024,187.37716300397005 178.56601977034006,186.45690737005498 178.61924394604284,185.4529871011182 177.89184687833767,184.13533377973363 176.1709318648791,182.96407878912578 173.77584395941813,183.04774009693938 171.52268718916457,183.94709685254202 169.50016851339024,184.34448570449604 169.65984104049858,185.8922028648376 168.68406448629685,187.1680143837002 169.4646857297048,187.9418631404842 169.85499635129236,189.0712584296998 170.75980733777396,189.44772204950277 171.8242908512475,188.90394102841674 173.79358535131905,188.56930578823085 173.33230916212779,189.42680742329685 173.38553333771415,190.09607433053316 175.6209487161832,195.70109307739767 176.15319047297817,198.294404584085 175.9580351621844,201.20138148439582 175.0709655676037,204.5265744713688 172.78232601343188,204.19196646231285 171.87751502695028,207.24524292709248 171.18560074316338,207.53802031086525 170.90173847286496,208.5 170.52916924317833,208.35361209738767" stroke="#4DD2FF" stroke-linecap="round" stroke-linejoin="round" stroke-width="0.5"><title>2025-05-06 7.1km</title><desc>1746539597000</desc></polyline><polyline fill="none" points="21.816843614331447,238.5 21.633903592126444,238.28435963652737 22.493721696315333,235.41632046682935 24.67070796014741,235.9338644418458 25.05488200671971,235.26536988592125 26.18911014404148,230.49958522240922 26.152522139600478,228.12743244334706 22.91448374732863,219.1561248897342 22.036371640861034,218.96202960774826 20.792379490216263,219.56588097129134 20.024031397071667,219.41491830308223 18.5788052220596,217.1720308127551 19.566681341733783,216.09371047242894 19.328859312925488,214.36838570807595 20.60943946801126,214.3036857367988 24.890235986677,213.09594905805716 26.280580155085772,212.2332754896488 28.567330432124436,211.54313392755284 31.51266478910111,216.05057753656 31.14678474480752,216.63287137694715 29.536912549752742,216.48190647170122 27.817276341258548,217.7327550680784 25.201234024367295,218.1209478527453 23.66453783819452,218.85419881320558 21.707079601008445,219.11299262134708 20.517969456966966,219.60901314098737 19.74962136382237,219.28552163871063 19.31056531064678,218.07781535870163 18.615393226384185,217.56022469713935 18.615393226384185,217.1504644635279 19.566681341733783,215.87804569935543 19.31056531064678,214.3899523604341 21.322905554436147,214.13115237673628 24.835353980073705,213.00968187041872 28.164862383389845,211.5 28.677094445447437,211.6725356537936 31.4943707868224,216.05057753656 31.219960753573105,216.58973855864315 29.66497056512162,216.48190647170122 27.414808292523958,217.883719019228 25.585408070823178,218.01311659999192 20.60943946801126,219.56588097129134 19.841091374866664,219.3502199814975 19.34715331508778,218.07781535870163 18.615393226384185,217.517092080976 19.548387339455076,215.92117867272464 19.328859312925488,214.36838570807595 21.24972954567056,214.13115237673628 24.689001962309703,213.07438226472004 25.914700110792182,212.31954301570659 28.201450387830846,211.5 28.622212438844144,211.6725356537936 31.47607678466011,216.02901106515492 31.201666751410812,216.56817214586772 29.536912549752742,216.4603400472697 27.76239433477167,217.75432135388837 25.182940022088587,218.1209478527453 23.335245798225515,218.91889729698596 21.816843614331447,219.0482942009985 20.64602747245226,219.5874470573326 19.78620936826337,219.26395551979658 19.328859312925488,218.07781535870163 18.597099224105477,217.5386583902291 18.5788052220596,217.1720308127551 19.31056531064678,216.4603400472697 18.45074720645789,217.25829618619173 19.255683304043487,218.20721281263104 19.621563348337077,219.19925714879355 20.408205443643965,219.67371137811278 24.963411995442584,218.25034527845855 27.689218325773254,217.9268515555741 29.445442538592033,216.58973855864315 31.073608735809103,216.58973855864315 31.54925279354211,216.09371047242894 28.49415442335885,211.5 26.17081614176277,212.19014171257732 24.725589966750704,213.11751584906597 23.426715809386224,213.20378298975993 21.43266956775915,214.02331895034877 19.072743281838484,214.49778558711114 19.47521133068949,215.87804569935543 18.542217217502184,217.0210663187463 18.505629213061184,217.58179100176494 19.23738930176478,218.1425140962092 19.566681341733783,219.1561248897342 20.261853425996378,219.5874470573326 22.91448374732863,219.13455875671934 25.768348093144596,226.5531699071289 26.097640132997185,228.23525818638154 26.17081614176277,230.41332561943273 24.87194198439829,235.73978560976684 22.38395768299233,235.43788482611126 21.83513761649374,238.04715496544668 21.54243358108215,238.28435963652737" stroke="#4DD2FF" stroke-linecap="round" stroke-linejoin="round" stroke-width="0.5"><title>2025-04-29 10.1km</title><desc>1745929124000</desc></polyline><polyline fill="none" points="67.46288303844631,222.42462373730086 67.00841605523601,222.0400183712045 67.26478204579325,220.62520996679086 66.62386706948746,222.74054869628162 66.13444108766271,222.80922793049103 64.67781614157138,228.52320921795035 64.5146741476492,228.564414873661 57.091713422501925,227.09473816500395 47.629477772978134,222.83669961369014 41.5,221.53178805270727 47.58286577468971,222.85043545305234 55.052438498008996,226.35302566026803 57.173284419521224,227.1496796584761 68.5,229.37479003320914 64.6195511437254,228.5369444379976 64.86426413466688,227.5342694429055 65.55179110914469,227.36944539318938 67.11329305131221,220.80377889306692 67.41627104009967,220.6938903529881 67.00841605523601,221.76529953444697" stroke="#4DD2FF" stroke-linecap="round" stroke-linejoin="round" stroke-width="0.5"><title>2025-04-22 6.3km</title><desc>1745328842000</desc></polyline><polyline fill="none" points="81.08290893549565,237.7065819974814 81.5316449047532,237.50822701070865 82.46651150728576,234.44471974590851 84.8597700096434,234.79735603785957 86.11249125690665,230.23507655138383 85.90682060446125,225.62861269786663 83.30789144942537,219.25873630018032 83.25179945328273,218.1566612082388 84.65409935708158,217.01049674367823 87.60827782098204,216.52557905377762 89.73977367463522,215.1369446930621 91.14207357843406,215.2691959952499 91.72169087198563,214.7622322007228 90.46896962460596,212.80049076444993 88.78620974009391,213.66013261199987 87.4400018324377,212.09514087894058 86.00030726462137,211.5 83.30789144942537,211.72042275195417 81.47555290861055,212.5359848455846 79.00750507798512,212.954785724025 79.38145171897486,214.49772884703998 78.29700646002311,216.06270199271967 79.10099173826165,216.74599632962781 79.5123330433853,217.89216229283193 80.35371298552491,218.33299362644902 83.42007544171065,217.60562141083938 85.19632198649924,216.83416317273804 87.53348849271424,216.52557905377762 89.4593136938056,215.225112237531 91.14207357843406,215.2471541176783 91.70299353986047,214.71814833245298 90.4876669566147,212.80049076444993 88.80490707210265,213.6160485035798 87.4400018324377,212.0730986554263 86.11249125690665,211.52204228601477 83.21440478926525,211.72042275195417 81.51294757274445,212.51394267009164 79.4749383792514,212.8225329087145 79.1944783985382,213.04295421954885 79.34405705484096,214.5638547178678 78.29700646002311,215.95249301256263 79.06359707412776,216.74599632962781 79.45624104724266,217.91420388229017 80.26022632536478,218.37707670690725 85.23371665063314,216.81212146561302 87.45869916456286,216.56966252817074 89.47801102593075,215.225112237531 91.21686290658545,215.225112237531 91.68429620796815,214.67406445462257 90.4502722924808,212.7564064686594 88.71142041182611,213.59400644570997 87.42130450042896,212.0730986554263 86.28076724533457,211.5881691295799 83.77532475069165,211.6102114059613 81.32597425219137,212.5359848455846 79.4375437151175,212.8225329087145 79.17578106641304,213.02091209929495 79.30666239082348,214.7622322007228 78.27830912801437,216.01861840786296 79.1196890702704,216.79007975605782 79.49363571126014,217.91420388229017 80.1106476689456,218.3109520825965 87.6269751531072,216.23903623607475 88.54314442339819,215.48961464011518 88.86099906824529,214.365477040541 88.59923641965725,213.5278802577959 87.68306714913342,212.40373175652348 86.24337258131709,211.54408456964302 83.75662741868291,211.6322536799853 81.25118492392357,212.602111357759 79.1570837344043,212.954785724025 79.38145171897486,214.45364492113004 78.29700646002311,215.97453481335833 79.21317573054694,217.0986634715373 78.85792642156594,217.78195430927735 79.7927930240985,219.69956465590803 80.52198897406925,222.91758255226887 80.83984361891635,226.53228134020173 80.76505429064855,228.91265746948193 78.93271574983373,237.8828973779746 80.26022632536478,238.5" stroke="#4DD2FF" stroke-linecap="round" stroke-linejoin="round" stroke-width="0.5"><title>2025-04-15 8.8km</title><desc>1744723077000</desc></polyline><polyline fill="none" points="128.32256297930144,222.11555058220983 127.53888280398678,222.0632622097619 128.11555312166456,220.37259562626423 127.43537787522655,223.1961731211777 127.59802847763058,223.63190595147898 126.69605695514474,226.62971566361375 125.82365826953901,226.6471446256328 125.83844468783354,227.37915931733733 124.83296823670389,230.63832694699522 115.0295728368219,228.68632008161512 103.79189485206734,223.47504226924502 101.5,222.81272724908195 103.95454545458779,223.5970473687048 115.01478641841095,228.7037488197093 124.86254107346758,230.6208984196128 125.18784227827564,229.31375345625565 125.92716319829924,229.22661007908755 126.5629791895044,227.37915931733733 128.5,219.36167305300478 127.98247535608243,222.23755671823164" stroke="#4DD2FF" stroke-linecap="round" stroke-linejoin="round" stroke-width="0.5"><title>2025-04-11 5.1km</title><desc>1744377642000</desc></polyline><polyline fill="none" points="139.26928169163875,238.5 140.18246932455804,237.48948740954802 140.42474359448534,238.23638850795396 141.33793122740462,237.48948740954802 142.3629377540201,234.39201509868144 144.76704397122376,234.94121578645718 145.19568306417204,234.78743974464305 146.31387200241443,229.9763872182375 146.38841793162283,227.3401453783008 145.92250587407034,224.98946733966295 143.23885242233519,219.14560693781823 143.1643064931268,218.1569671883044 144.46886025439017,217.05847289254598 147.4693339051446,216.5751335065288 149.55661992321257,215.14707855210872 150.91708313138224,215.2788994331204 151.60663297667634,214.70767499279464 150.13435087457765,212.40079059636628 148.58752284338698,213.30157716825488 146.76114757778123,211.76364644480054 145.12113713496365,211.67576433482463 144.24522246664856,212.09320401590958 142.4747566478327,214.02659758357913 139.94019505451433,214.40009193155856 138.46791295264848,215.6743615591986 138.39336702332366,216.09179296197544 139.15746279782616,216.72892343683634 139.47428299696185,217.76150993116607 140.31292470067274,218.24484647337522 147.67433521070052,216.17967314712587 148.6807052550139,215.21298900338297 148.79252414871007,214.1364489342086 147.6929716928862,212.42276104840857 145.92250587407034,211.5 143.53703613905236,211.6318232654885 141.2074758511735,212.53261327285145 139.19473576243035,212.88413998897886 139.36246410314925,214.4220621658169 138.39336702332366,215.60845125872584 138.39336702332366,216.02588279791235 139.15746279782616,216.6630134810839 139.95883153693285,218.22287665563636 140.77883675822522,218.24484647337522 141.8783892141655,217.67363043544174 142.8847592585953,217.76150993116607 145.82932346244343,225.56066265427216 146.18341662629973,227.60377111313574 146.07159773248713,229.71276458504144 145.02795472345315,234.17233440485143 142.6238485062495,233.79887667608273 141.67338790884241,236.69864793760644" stroke="#4DD2FF" stroke-linecap="round" stroke-linejoin="round" stroke-width="0.5"><title>2025-04-08 5.6km</title><desc>1744119870000</desc></polyline><polyline fill="none" points="171.18841104069725,236.22279384173453 171.91940070415149,235.15598509067786 172.47634520957945,232.7761591798626 174.79114581033355,233.2069919617643 176.0268664318719,228.44726081666886 176.07907997927396,226.5187148169498 175.7483941791579,224.63118258801114 173.38138003100175,218.7632985329692 173.38138003100175,217.63483832952625 174.68671871570405,216.67051243354217 177.41922769561643,216.26015949061548 179.22929733828641,215.02909529639874 180.7957037598826,215.02909529639874 181.21341213898268,214.49563164620486 179.83845539117465,212.3207257387403 178.15021735901246,212.97730375418905 176.5490019057761,211.6436272625142 173.9731335680117,211.58207273487642 171.58871490403544,212.4643523752893 169.60460010328097,212.83367750897014 169.7090271980851,214.49563164620486 168.78658786095912,215.60359292195062 169.46536397695309,216.38326546740427 169.86566784029128,217.53225070299231 170.94474781956524,217.90156589698745 171.9019961883314,217.38862793192675 173.52061615732964,217.20396992248425 175.1044270946877,216.50637136369187 177.52365479042055,216.15757111515268 179.35112894885242,214.94702406400756 179.07265669613844,215.50100418883085 179.5251741068205,214.82391714828555 180.86532182310475,214.92650625035458 181.16119859163882,214.41356018124497 180.08211861230666,212.66953309456585 178.55052122229245,213.46973576329765 177.3322051165742,212.05399026606756 176.0442709477502,211.5 173.85130195744568,211.56155455451517 171.71054651460145,212.42331620461482 169.65681365068303,212.75160531961592 169.63940913486294,214.57770307539613 168.83880140830297,215.39841539978806 168.78658786095912,215.8087702206103 169.48276849271497,216.42430077510653 169.67421816656133,217.2860401712678 170.6140620195074,217.88104840523738 171.84978264098754,217.36811038423912 173.4509980941657,217.20396992248425 174.91297742095776,216.5474066445313 176.30533868464408,216.36274781019893 176.46197932685027,217.53225070299231 180.0299050649046,224.7747998355917 176.3923612635699,226.04683353322616 176.18350707407808,229.26791269924433 175.29587676847586,232.73512743496394 174.84335935779382,233.08389698182873 173.59023422049358,238.5 168.78658786095912,237.26908117094717 169.51757752435515,234.13020174726262 169.76124074548716,234.0071073706349 169.34353236632887,236.01763878189377" stroke="#4DD2FF" stroke-linecap="round" stroke-linejoin="round" stroke-width="0.5"><title>2025-04-02 6.9km</title><desc>1743601029000</desc></polyline><polyline fill="none" points="20.755313750822097,268.5 21.40103783342056,267.91794785880484 22.29365641833283,264.7166316180519 25.275382329360582,265.4330144081323 26.509854840347543,259.76904479989025 26.130017144605517,255.58253215104924 23.224258772679605,248.95557841929258 23.205266887904145,248.351082138528 23.77502343140077,247.54508433119918 24.781593324849382,247.05252855930303 28.01021373819094,246.47041567025008 29.510572636150755,245.26140670843597 30.09932106442284,245.17185020603938 30.118312949198298,244.36583992806845 29.35863755783066,242.82097805774538 28.75089724478312,242.86575682619878 28.162148816511035,242.19407427562692 27.66835981211625,242.3060215198493 26.566830494673923,241.63433713953418 25.38933363801334,241.54477905623207 24.173853011918254,241.97017960417725 22.540550920530222,243.9852228644304 20.071605898672715,244.3434507085185 18.22939307463821,245.82113396393834 19.330922391964123,247.88091713511676 20.584386787726544,248.39585970180633 24.93352840328589,246.94058390099963 27.74432735121809,246.53758262630436 29.890410331776366,245.05990452312108 31.31480169063434,245.2390175864566 31.808590695029125,244.70167792809661 30.270248027401976,242.3955792713241 28.579970281687565,243.31354397338873 27.554408503347076,242.12690589981503 26.22497656859923,241.5 23.73703966184985,241.6119476223539 21.4770053725224,242.55230524252693 19.06503600499127,242.95531433366705 19.216971083311364,244.72406710854557 18.191409304970875,246.0450244392996 19.02705223544035,246.828639181811 19.406889931182377,247.94808363007905 20.527411133400165,248.41824847973476 21.685916105285287,247.8361394596286 22.7874454226112,247.76897292815556 24.07889358792454,251.4183226643945 25.08546348148957,252.29147035496135 28.409043318592012,251.5974301854294 30.498150644940324,255.98551568786206 26.47187107068021,257.35117624123814 26.262960338033736,260.77648163713457 25.845138872857206,261.29139189134 24.781593324849382,265.0748233252234 24.553690707543865,265.25391894466884 22.29365641833283,264.8509535813937 21.590956681291573,267.5373744137469" stroke="#4DD2FF" stroke-linecap="round" stroke-linejoin="round" stroke-width="0.5"><title>2025-03-25 6.1km</title><desc>1742909450000</desc></polyline></svg>