<?xml version="1.0" encoding="utf-8" ?>
<svg baseProfile="full" height="300mm" version="1.1" viewBox="0,0,200,300" width="200mm" xmlns="http://www.w3.org/2000/svg" xmlns:ev="http://www.w3.org/2001/xml-events" xmlns:xlink="http://www.w3.org/1999/xlink"><defs /><rect fill="#222222" height="300" width="200" x="0" y="0" /><text fill="#FFFFFF" style="font-size:12px; font-family:Arial; font-weight:bold;" x="10" y="20">Over 5km Runs</text><text fill="#FFFFFF" style="font-size:4px; font-family:Arial" x="10" y="280">Runner</text><text fill="#FFFFFF" style="font-size:9px; font-family:Arial" x="10" y="290">Elliont</text><text fill="#FFFFFF" style="font-size:4px; font-family:Arial" x="65" y="280">SPECIAL TRACKS</text><rect fill="yellow" height="2.6" width="2.6" x="65" y="283" /><text fill="#FFFFFF" style="font-size:3px; font-family:Arial" x="70" y="285.5">Over 20.0 km</text><rect fill="red" height="2.6" width="2.6" x="65" y="287" /><text fill="#FFFFFF" style="font-size:3px; font-family:Arial" x="70" y="289.5">Over 40.0 km</text><text fill="#FFFFFF" style="font-size:4px; font-family:Arial" x="120" y="280">STATISTICS</text><text fill="#FFFFFF" style="font-size:3px; font-family:Arial" x="120" y="285">Number: 47</text><text fill="#FFFFFF" style="font-size:3px; font-family:Arial" x="120" y="290">Weekly: 2.0</text><text fill="#FFFFFF" style="font-size:3px; font-family:Arial" x="141" y="285">Total: 310.3 km</text><text fill="#FFFFFF" style="font-size:3px; font-family:Arial" x="141" y="290">Avg: 6.6 km</text><text fill="#FFFFFF" style="font-size:3px; font-family:Arial" x="167" y="285">Min: 5.0 km</text><text fill="#FFFFFF" style="font-size:3px; font-family:Arial" x="167" y="290">Max: 10.1 km</text><polyline fill="none" points="36.94392523364513,55.06050883336866 36.59345794393448,56.54765020976629 36.467289719643304,56.580697464814875 31.86915887851501,55.68015461622417 26.415887850453146,53.17675457252335 25.511682242969982,52.90410205434455 17.21962616822566,51.29295353250927 13.553738317714306,51.29295353250927 12.901869158871705,51.020294243178796 12.257009345776169,50.45018528933724 11.906542056036415,49.896597132174065 11.5,48.715044715077966 12.06775700932485,48.111867503626854 14.703271028003655,46.037892817301326 16.820093457907205,43.75728147421614 18.572429906518664,42.2285724333633 21.34813084109919,40.410608052421594 22.1682242990355,40.32797227221454 22.525700934551423,40.08832800032542 23.36682242990355,39.08842476195423 24.032710280356696,37.58441323920124 24.79672897196724,36.89850796893006 28.105140186904464,35.080415783690114 31.897196261706995,33.419302535185125 31.911214953288436,33.99780381708115 32.47196261683712,34.369695167151804 32.8154205607716,35.014302519048215 33.817757009353954,37.24559333908837 36.12383177570882,41.60881674550183 38.051401869161054,45.99657800438581 38.42289719625842,47.434320257932995 38.5,48.38453724808642 38.35981308409828,49.83875933041418 37.9672897196142,51.23511679546937" stroke="#4DD2FF" stroke-linecap="round" stroke-linejoin="round" stroke-width="0.5"><title>2025-09-18 10.1km</title><desc>1758194958000</desc></polyline><polyline fill="none" points="58.605529454303905,46.518268529333 58.52746657031821,46.73679586283106 59.1226960606873,46.9093171224813 68.5,48.73802515015268 51.189555475255474,45.29910773951997 43.871160101145506,41.894584217436204 41.5,41.261974849840044 43.822370798676275,41.92909007395065 51.30664980120491,45.34511406257661 57.014998193015344,46.495265625824686" stroke="#4DD2FF" stroke-linecap="round" stroke-linejoin="round" stroke-width="0.5"><title>2025-09-16 5.4km</title><desc>1758020593000</desc></polyline><polyline fill="none" points="98.49175824175472,48.128159159750794 93.00274725275813,47.030421242991 86.69780219779932,44.12572212158557 85.42857142855064,43.76627117185126 75.39835164835677,41.84269822861825 71.5,41.92041915176378 72.0109890110034,42.00785510932474 74.12912087910809,41.83298310844839 75.57967032969464,41.8815586986384 85.73351648350945,43.83427551668137 86.8049450549297,44.20344105538243 93.06868131869123,47.078994002818945 98.5,48.16701689155889" stroke="#4DD2FF" stroke-linecap="round" stroke-linejoin="round" stroke-width="0.5"><title>2025-09-15 6.5km</title><desc>1757932870000</desc></polyline><polyline fill="none" points="128.5,57.19437217385712 123.5187569988775,56.196509979061375 117.6304591265216,53.496875357595854 116.85946248596883,53.25630953367363 107.41853303468088,51.4208581055791 105.98992161251954,51.38521786441561 104.31942889135098,51.53668878211465 103.58622620379901,51.429768163456174 102.78499440086307,51.01099439467362 102.34658454646706,50.59221848195739 101.91573348265956,49.879403487211675 101.55291153411963,48.95273470719985 101.5,48.67651409745304 101.62849944009213,48.49830675741396 104.82586786110187,45.87861405188596 106.9574468084902,43.5618090875214 109.194848824176,41.58356213183288 112.07474804029334,39.7389373945698 113.01203807388083,39.623090007888095 113.42777155651129,39.32901513527759 114.2138857782702,38.455695643118815 114.96976483761682,36.74467531292612 115.75587905931752,35.97826917900966 119.33874580066185,34.017662651254795 121.99944008956663,32.80562782614288" stroke="#4DD2FF" stroke-linecap="round" stroke-linejoin="round" stroke-width="0.5"><title>2025-09-13 7.0km</title><desc>1757768754000</desc></polyline><polyline fill="none" points="158.5,48.28944397279702 152.53130094555672,47.116900323140726 145.963971307443,44.08689769964258 144.8899576133117,43.73408291170199 134.10580371698597,41.63792105446919 131.5,41.648298206979234 134.24665797199123,41.72093824276817 144.57303553965176,43.713329059981334 145.83192044345196,44.08689769964258 152.58412129117642,47.17915964072745 158.46478643623414,48.36207894553081" stroke="#4DD2FF" stroke-linecap="round" stroke-linejoin="round" stroke-width="0.5"><title>2025-09-11 6.0km</title><desc>1757587445000</desc></polyline><polyline fill="none" points="185.92042574757943,56.3128930548628 181.3291941205971,55.40960736999841 176.23846933600726,53.04649538414378 175.0684237202513,52.69968420787336 166.9670552458265,51.13498103132588 165.55752660922008,51.08658762246341 163.97009630003595,51.215636642460595 163.1832235174952,51.07045647916675 162.21160669031087,50.31228877934336 161.80790674101445,49.59444199389691 161.5,48.58621846494498 164.51748606184265,46.077698750385025 165.44120628482779,45.19848683792952 166.52230106436764,43.924014335083484 168.5134313228482,42.173595452230074 169.98454130764003,41.31047044372826 170.97668525087647,40.57640293752047 171.8593512417574,40.431201909035735 172.25620881904615,40.1972663196284 173.043081601616,39.29378399802226 173.71363405979355,37.76106554982107 174.46629498223774,37.09956672995759 177.55904713633936,35.38125558397587 181.40446021288517,33.687106945129926 181.3976178408484,34.25989487217885 181.9655347186781,34.60679244707717 182.3555499239592,35.31671729878144 183.11505321844015,37.09149963469099 186.1530663963349,42.972178786381846 186.31728332483908,43.53682846988522 186.52255448553478,43.762687137343164 187.41890522043104,45.95670690495899 187.64470349717885,46.82784377876669 187.9731373542454,46.91657010740164 188.0689305625856,48.49749413716927 187.71312721740105,50.85268570046901 187.97997972628218,51.04625975758972 188.48631525592646,51.143046596378554 188.5,51.28822661739105" stroke="#4DD2FF" stroke-linecap="round" stroke-linejoin="round" stroke-width="0.5"><title>2025-09-09 10.0km</title><desc>1757415422000</desc></polyline><polyline fill="none" points="38.46280991740059,78.55079183714406 32.047520661202725,77.24668055079383 25.232438016450033,74.07948277725518 23.98657024797285,73.68494596832898 12.634297520620748,71.47112740208104 11.5,71.44920816285594 15.07954545452958,71.94238989050791 24.181818181765266,73.76166158010892 32.372933884267695,77.36722936180013 38.5,78.55079183714406" stroke="#4DD2FF" stroke-linecap="round" stroke-linejoin="round" stroke-width="0.5"><title>2025-09-08 5.7km</title><desc>1757333196000</desc></polyline><polyline fill="none" points="68.5,78.48774063018936 62.44349315069849,77.3433598306874 55.37910958903376,74.08452757853229 54.352739726018626,73.7357499472273 43.23835616436554,71.566761766735 41.5,71.4468665764798 42.81301369861467,71.53406309272395 54.08458904112922,73.71395130491146 55.49006849311991,74.17172179641057 62.36952054791618,77.35425875716464 68.41678082192084,78.55313342351292" stroke="#4DD2FF" stroke-linecap="round" stroke-linejoin="round" stroke-width="0.5"><title>2025-09-04 5.8km</title><desc>1756983645000</desc></polyline><polyline fill="none" points="98.5,78.14622428372968 93.18599759612698,77.08476381802757 86.83353365384392,74.18719830761984 83.39362980765873,73.38389589063445 75.89723557693651,71.95897233190772 74.36388221153175,71.93028235834208 72.50600961537566,72.08329544243315 71.5,71.85377571626304 71.96243990384392,72.06416882149642 72.60336538459524,72.15023858284985 74.36388221153175,71.97809897574916 75.99459134615608,72.02591556713014 86.16826923078042,74.00549959459022 87.25540865384392,74.39758582144714 93.20222355771693,77.15170314536954 96.53665865381481,77.75415479526418" stroke="#4DD2FF" stroke-linecap="round" stroke-linejoin="round" stroke-width="0.5"><title>2025-09-02 6.2km</title><desc>1756809719000</desc></polyline><polyline fill="none" points="128.5,78.49762634826038 122.40654205606552,77.30791804092587 114.17289719625842,73.66159523160604 103.02336448593996,71.50238139032444 101.5,71.39221618292504 102.9672897196142,71.52441441744304 113.60280373832211,73.58448124530696 115.04205607471522,74.0141155632009 122.55607476632576,77.45112441129459 128.49065420555416,78.60778381707496" stroke="#4DD2FF" stroke-linecap="round" stroke-linejoin="round" stroke-width="0.5"><title>2025-08-29 5.7km</title><desc>1756465472000</desc></polyline><polyline fill="none" points="158.5,78.36385409281502 152.6501481725718,77.21116515206813 145.74234441888984,74.04643906184356 144.6666117879795,73.72157718158996 133.82038195594214,71.61518805422384 131.5,71.61518805422384 133.93595653609373,71.70950497154263 144.95999341458082,73.83685087756749 152.5167928877636,77.2216442046265 158.3577543629217,78.38481194576889" stroke="#4DD2FF" stroke-linecap="round" stroke-linejoin="round" stroke-width="0.5"><title>2025-08-27 6.0km</title><desc>1756291993000</desc></polyline><polyline fill="none" points="187.2804716041428,78.37704872873292 182.73414148122538,77.54206122150936 180.7613749584998,77.03472353157849 174.538193291286,74.11748034624907 173.2558950514649,73.70525412942516 163.1409830620978,71.72865794180689 161.5,71.5489653829136 164.19910328794504,71.94006052626355 173.23796081036562,73.715824054314 174.34091663901927,74.06463092911872 180.25024908664636,76.87617995958135 181.7298239787342,77.39408800256206 187.27150448353495,78.45103461709368 187.48671537695918,77.62661724531063 188.5,77.79572907197871 187.99784124881262,77.67946472281619 188.03370973095298,77.42579656845919" stroke="#4DD2FF" stroke-linecap="round" stroke-linejoin="round" stroke-width="0.5"><title>2025-08-26 6.0km</title><desc>1756205162000</desc></polyline><polyline fill="none" points="38.5,110.04208147955796 33.34744341994519,109.02838595750654 27.742246437555877,106.44963009336789 26.58046940487111,106.08504079614795 17.3164291701396,104.29764044129115 14.223386420781026,104.43102987868042 13.401089689839864,104.24428460530908 12.608968985761749,103.76408051233011 12.201592623634497,103.27498084741092 11.530176026804838,101.60312713824533 12.020536462689051,101.0606566094284 13.393545683153206,99.95791852044931 11.764040234673303,101.25630213377735 11.5,101.62091299619351 11.930008382245433,102.85702062999917 12.284576697391458,103.4439428811238 13.529337803833187,104.32431834618183 14.306370494537987,104.4843855925792 15.996227996656671,104.33321097923181 17.3918692371808,104.35988887251733 26.72380553226685,106.15618029906909 27.74979044427164,106.50298448809917 33.256915339501575,109.02838595750654" stroke="#4DD2FF" stroke-linecap="round" stroke-linejoin="round" stroke-width="0.5"><title>2025-08-23 7.3km</title><desc>1755948655000</desc></polyline><polyline fill="none" points="68.5,107.33325244977459 68.09154383244459,108.740550623952 61.189681924064644,107.38263162882504 52.73778122582007,103.53099106394075 44.516291699022986,101.75326665906323 41.5,101.259449376048 52.20364623743808,103.41988410553313 60.885958107130136,107.33325244977459 66.53103180759354,108.48131279935478" stroke="#4DD2FF" stroke-linecap="round" stroke-linejoin="round" stroke-width="0.5"><title>2025-08-19 5.0km</title><desc>1755607675000</desc></polyline><polyline fill="none" points="97.7220712150156,112.02899787578644 92.81965207937174,111.06015738978022 87.13196520792553,108.43038792958396 86.17056265292922,108.15356502668146 77.19502582223504,106.43205094241421 73.84112530580023,106.52721098670736 72.73294373470708,106.0081548144808 71.96969285132946,105.08249622141011 71.54403370482032,103.698313709996 74.72179940203205,101.11155796895764 77.71609132917365,97.97100212421356 76.83541723291273,98.75831566935813 74.80986681161448,100.95583085399994 71.5,103.70696492562274 71.66145691767451,104.36445455511421 72.2779287850135,105.56695440086332 72.79899429195211,106.05140962508449 73.70168524057954,106.49260734744894 74.20073389509344,106.57046551459644 75.93272628434352,106.41474910392571 77.37849959233426,106.43205094241421 81.0186191900284,107.12412139109074 81.33419407450128,107.01166035356437 82.77996738246293,107.27983641095489 83.2129654797609,107.4701543539777 85.4073117695225,107.79888427231344 86.82372927427059,108.257373728331 87.55762435446377,108.2400722874736 87.54294645282789,108.43903862976731 88.01263930418645,108.42173722845473 87.66036966568208,108.65530582780048 88.19611307422747,108.98403084100573 92.49673824411002,110.92175064142793 93.31870073388563,111.15531188939349 93.57556401196052,111.03420614283823 94.97730361510185,111.13801107974723 94.97730361510185,111.46672581839084 97.35512367493357,111.94249474137905 97.77344387062476,111.98574632034433 97.89086708344985,111.38887245059595 98.28717042674543,111.31966939293488 98.5,110.60168411214545" stroke="#4DD2FF" stroke-linecap="round" stroke-linejoin="round" stroke-width="0.5"><title>2025-08-16 10.0km</title><desc>1755297330000</desc></polyline><polyline fill="none" points="117.74876847286941,104.05941793077363 117.26108374382602,106.54164817935089 128.5,108.74948350632621 109.85714285715949,105.05231619346887 101.5,101.25051649366651 109.60221674875356,105.03925179599901 116.64039408869576,106.4501985024981" stroke="#4DD2FF" stroke-linecap="round" stroke-linejoin="round" stroke-width="0.5"><title>2025-08-13 5.0km</title><desc>1755095249000</desc></polyline><polyline fill="none" points="158.34882418817142,110.02523960399412 153.397816349403,109.03628576226038 147.76651735723135,106.44356623398926 146.71584546472877,106.1049919823563 137.4638857782993,104.32299914004398 134.18337066072854,104.42991980529041 133.457726763736,104.27844882161298 132.70940649497788,103.83294430272508 132.3163493841421,103.44089831899328 131.95352743563126,102.83500537547661 131.52267637179466,101.6232060239854 132.45996640541125,100.69652381768537 133.54843225085642,99.86784718318813 132.72452407618403,100.44703066056536 131.5,101.63211637885252 132.30123180293594,103.4498084758743 132.92861142219044,104.037876682778 133.45016797314747,104.3051790155805 134.18337066072854,104.46555999598786 136.7533594624838,104.31408907828882 137.68309070548275,104.37645949012949 147.14669652856537,106.27427928332327 153.25419932810473,109.03628576226038 158.5,110.13215281681187" stroke="#4DD2FF" stroke-linecap="round" stroke-linejoin="round" stroke-width="0.5"><title>2025-08-12 8.1km</title><desc>1754996616000</desc></polyline><polyline fill="none" points="188.5,108.1314941298333 183.05585831060307,107.0427295475456 176.90871934604365,104.20995183674677 175.89509536785772,103.87271035306912 170.11580381472595,102.65863036698283 165.75885558585287,101.9070486922792 164.22207084472757,101.86850587017398 162.2765667575004,102.0323127481679 161.5,101.8974129883427 162.211171662173,102.0323127481679 164.14032697549555,101.88777728331479 165.77520435969927,101.91668439520436 175.8051771117025,103.8823458418774 176.97411444140016,104.29667086761037 182.80245231607114,106.98491866415134 188.03405994549394,108.06404892551654" stroke="#4DD2FF" stroke-linecap="round" stroke-linejoin="round" stroke-width="0.5"><title>2025-08-10 6.4km</title><desc>1754781124000</desc></polyline><polyline fill="none" points="35.82253984318231,146.29688423377956 31.328231722756755,145.39519828988705 26.23286111812922,143.04432250599348 25.26296483684564,142.72227890513022 16.86858082472463,141.07983471591433 16.117252719472162,141.0315269814164 13.767644826730248,141.16839881387568 13.255375664070016,141.04762956310879 12.538198836351512,140.63701263442636 12.039590184664121,140.07341705739236 11.568302555038827,138.97036756335 11.5,138.55168753294856 14.484821654477855,136.10397219812876 16.547558816120727,133.88163411305868 18.494181634217966,132.18262767313718 20.94624335950357,130.58021139557968 21.219453579600668,130.45137239657197 21.909309385315282,130.4272150592442 22.175689349882305,130.25006101088366 22.92701745510567,129.42065231677407 23.698836326861056,127.76180699613178 24.395522388105746,127.10147956299625 27.516949152573943,125.41842319349962 31.37604351126356,123.70311576621316 31.37604351126356,124.29099556767324 32.0590690614772,124.73391561555763 32.26397672656458,124.9916133304796 32.37326081460924,125.41037020002113 34.784341006859904,129.70249126688577 35.7747280546464,131.87664131946804 36.3962813053804,132.73823123398324 36.40311156088137,132.98784886506473 36.68315203647944,133.4146125392581 37.1885909436387,134.8881360906962 37.577915507223224,135.58060149132507 37.9057677713281,137.0138232197569 38.01505185937276,138.46312029951514 37.7076903617708,140.54039655497763 37.78965342781157,140.6611666345343 38.5,140.8785522804974 38.41803693398833,141.52265414455906" stroke="#4DD2FF" stroke-linecap="round" stroke-linejoin="round" stroke-width="0.5"><title>2025-08-08 10.0km</title><desc>1754654808000</desc></polyline><polyline fill="none" points="68.5,138.7800683980895 61.29644268780248,137.30833346835425 53.036363636376336,133.4968301997651 44.50948616606183,131.66021936192556 41.5,131.2199316019105 52.84426877473015,133.4968301997651 61.509881422971375,137.43412351148436 68.31857707514428,138.74233183924662" stroke="#4DD2FF" stroke-linecap="round" stroke-linejoin="round" stroke-width="0.5"><title>2025-08-07 5.0km</title><desc>1754573743000</desc></polyline><polyline fill="none" points="98.5,138.793525416615 91.36231313925236,137.36629666630324 83.20495672698598,133.62286689948814 82.16404405975481,133.3098655772119 71.5,131.2064745833777 74.33595594018698,131.80744736621273 74.56963021238334,131.70728545392194 75.19630212429911,131.9702102875308 82.62077104637865,133.4851464227031 91.45790715969633,137.46645364792494 98.02202989766374,138.78100594317948" stroke="#4DD2FF" stroke-linecap="round" stroke-linejoin="round" stroke-width="0.5"><title>2025-08-04 5.0km</title><desc>1754309955000</desc></polyline><polyline fill="none" points="128.5,138.14201955803583 123.10327570518712,137.06092628045735 116.879435850773,134.20368771221547 115.94585987261962,133.89479153889988 106.06960873521166,131.94485959618032 104.33348498636042,131.85798044197145 102.22065514104906,132.02208543952293 101.5,131.86763368552784 101.655595996388,131.9834725262699 102.64649681528681,132.0510451134469 105.5045495905797,131.89659340991057 109.4272065514233,132.66884923579346 110.05777979985578,132.67850239104155 111.14695177433896,133.0067090436205 115.83939945403836,133.90444456062687 117.14149226568406,134.3677883663695 123.00500454960275,137.0512736025339 127.94313011830673,138.04549390864122" stroke="#4DD2FF" stroke-linecap="round" stroke-linejoin="round" stroke-width="0.5"><title>2025-08-03 6.5km</title><desc>1754227262000</desc></polyline><polyline fill="none" points="155.3726695755613,138.1623588235816 148.20765569218202,136.73586513449845 139.17909559700638,132.72139044905634 131.5,131.15596012532478 139.84311781043652,132.89813125411456 148.48611662042094,136.84948031948443 158.5,138.8440398746825 155.59758032526588,138.1876063413947 155.59758032526588,137.99824982374412" stroke="#4DD2FF" stroke-linecap="round" stroke-linejoin="round" stroke-width="0.5"><title>2025-08-01 5.0km</title><desc>1754057984000</desc></polyline><polyline fill="none" points="185.91685649202554,146.27037494332762 181.31093394078198,145.3601775738207 176.2403189066099,143.0242215596445 175.15375854211743,142.6778493869424 166.9533029612794,141.09096078505536 165.45671981776832,141.04262861816096 163.96697038723505,141.1715143263209 163.2562642369012,141.04262861816096 162.66856492025545,140.71235796572728 162.23804100227426,140.30153143710777 161.74601366743445,139.3670939708245 161.5,138.5534793191764 164.51366742598475,136.05619032276445 166.6047835990903,133.82467041152995 168.51822323462693,132.14897219411068 169.96013667425723,131.31916526597342 171.08769931664574,130.48934902359179 171.8872437357786,130.40878384379903 172.1742596811091,130.23154013918975 173.04897494305624,129.22446556884097 173.7323462414497,127.70979958012322 174.40205011391663,127.10553587078903 177.60022779044812,125.34911464173638 181.3451025056711,123.72962505667238 181.4066059225297,124.25334447635396 181.9533029612794,124.63203159109253 182.52050113896257,125.64722577278008 182.86902050112258,126.62212134669971 183.73006833714317,128.40268255403498 185.97152619590634,132.60012545042264 186.27220956719248,133.502423703947 187.16059225512436,135.36337907554844 187.76195899772574,137.4337375864925 187.80296127562178,138.72264745914435 187.7209567198006,139.18987173997448 187.93280182231683,139.34292732799076 187.73462414575624,140.5593052120239 188.5,140.8492996347486 188.4726651480305,141.24401243845932" stroke="#4DD2FF" stroke-linecap="round" stroke-linejoin="round" stroke-width="0.5"><title>2025-07-28 10.0km</title><desc>1753704756000</desc></polyline><polyline fill="none" points="35.84889336017659,168.31062527570612 28.67786720325239,166.87627334967692 20.4637826961698,163.11101630351186 19.127364185114857,162.66276338630996 11.5,161.13869068601343 19.963983903406188,162.95732978155138 27.03722334007034,166.28715945468866 28.87344064383069,166.97872763887426 38.5,168.86130931398657 35.95754527160898,168.28501200188475 36.08792756538605,167.45257756528008" stroke="#4DD2FF" stroke-linecap="round" stroke-linejoin="round" stroke-width="0.5"><title>2025-07-22 5.0km</title><desc>1753194638000</desc></polyline><polyline fill="none" points="56.85765124554746,166.42519329274364 65.8016014234745,168.19949229255872 68.5,168.35993243262783 66.14590747331386,168.22780528003204 51.40480427048169,165.33983291356708 44.97508896799991,162.42344943210628 41.5,161.64006756737217 44.93505338081741,162.4423260161784 50.964412811386865,165.2265771343009 53.4466192171094,165.7551028379603" stroke="#4DD2FF" stroke-linecap="round" stroke-linejoin="round" stroke-width="0.5"><title>2025-07-19 6.4km</title><desc>1752877000000</desc></polyline><polyline fill="none" points="96.02734673110535,176.34391244150902 91.43233273975784,175.4290842026603 86.21228694988531,173.04076273152896 85.31938438056386,172.7573974648767 76.83680997201009,171.12195396038442 73.8970999745361,171.21911002537672 73.25833121340838,171.09766492430208 72.66077334008878,170.74952120145463 72.07695242940099,170.13419342420093 71.56868481301353,168.99258497641858 71.5,168.5796584536438 74.50152632917161,166.09395424617105 76.48651742559741,163.94014982158842 78.4440345967887,162.23163649913477 80.8342660900671,160.63644878939522 81.25324344949331,160.43401135208114 81.89201221065014,160.4016213109353 82.34533197659766,160.1182078485581 83.08712795726024,159.2355704255533 83.75337064362247,157.72129647624388 84.46082421779283,157.06537144248432 87.93627575680148,155.17044436939614 91.48728059019777,153.65608755849098 91.49414907148457,154.23915907630726 92.04362757568015,154.6035764509361 92.40765708469553,155.27571936370805 93.15632154667401,156.99249052570667 95.46413126430707,161.33282936178875 96.06855761894258,162.78225171761005 96.23340117017506,162.9360993582086 97.27054184686858,165.59194526018837 97.5040702111437,165.92391932424653 97.87496820147499,167.3084780893114 97.94365301451762,168.22340627683297 97.83375731366687,169.61601871328457 97.4972017298569,170.9195450837724 98.5,171.14624298853596" stroke="#4DD2FF" stroke-linecap="round" stroke-linejoin="round" stroke-width="0.5"><title>2025-07-17 10.0km</title><desc>1752756134000</desc></polyline><polyline fill="none" points="128.5,168.81001207380177 121.34195969975553,167.37658058895613 112.26372975111008,163.34024369516555 101.5,161.18998792619095 112.74377716321032,163.54143516851764 121.13927301467629,167.3640065497966 128.16930067166686,168.79743819076248" stroke="#4DD2FF" stroke-linecap="round" stroke-linejoin="round" stroke-width="0.5"><title>2025-07-14 5.0km</title><desc>1752500928000</desc></polyline><polyline fill="none" points="158.5,168.78223850869836 151.34362783422694,167.37637853726483 143.94448788114823,163.94252392493217 142.192337763845,163.30799601293256 131.5,161.21776149130892 142.88897576229647,163.4946222352737 151.47028928849613,167.42614378735016 157.74003127444303,168.68270916824258" stroke="#4DD2FF" stroke-linecap="round" stroke-linejoin="round" stroke-width="0.5"><title>2025-06-21 5.0km</title><desc>1750468889000</desc></polyline><polyline fill="none" points="179.97303190268576,166.65815049567027 186.99414734909078,168.06054482147738 188.5,168.14088944171817 187.20484278173535,168.06054482147738 175.72813862748444,165.81816068684566 174.49495065413066,165.33607482795196 170.80778058295255,163.5830061302404 170.15710351159214,163.3711738928905 162.63403718156042,161.91024369176012 161.5,161.85911055827455 162.5039017672825,161.8810247631336 165.43504705070518,162.4215728822819 170.70862979115918,163.56109248151915 174.63128299286473,165.4164227117435 175.63518476014724,165.80355207536923 176.72584347025258,166.0226809134765" stroke="#4DD2FF" stroke-linecap="round" stroke-linejoin="round" stroke-width="0.5"><title>2025-06-17 8.1km</title><desc>1750165544000</desc></polyline><polyline fill="none" points="38.5,198.7659015625395 31.692575405992102,197.41218310472323 22.81786542921327,193.44938676458696 11.5,191.2340984374605 22.83874709974043,193.49861490079638 31.546403712243773,197.39987649892282 37.28886310901726,198.56899806736328" stroke="#4DD2FF" stroke-linecap="round" stroke-linejoin="round" stroke-width="0.5"><title>2025-06-15 5.0km</title><desc>1749939796000</desc></polyline><polyline fill="none" points="60.15694828683627,196.5476281631636 66.52915513937478,197.8208640805533 68.5,197.94276827983776 66.9486060864001,197.84795392326487 56.28420940626529,195.77554687948214 55.244200893794186,195.38272991589474 51.76792934664991,193.73016241009464 50.99223238986451,193.47279138720114 43.982230261783116,192.11818949895314 43.13183656099136,192.05723172016587 41.5,192.18592029421416 43.815599063644186,192.10464333106574 50.69344541392638,193.43215375990985 51.52660140453372,193.66243329680947 53.514683975314256,194.60386135783847" stroke="#4DD2FF" stroke-linecap="round" stroke-linejoin="round" stroke-width="0.5"><title>2025-06-11 8.1km</title><desc>1749642919000</desc></polyline><polyline fill="none" points="98.5,198.75761206554307 91.48565335402964,197.40021930405055 82.67060876305914,193.46368833849556 71.5,191.24238793445693 82.79623885225737,193.51305007506744 91.5589375726413,197.46191932777583 97.3379216750618,198.62187352111505" stroke="#4DD2FF" stroke-linecap="round" stroke-linejoin="round" stroke-width="0.5"><title>2025-06-08 5.0km</title><desc>1749387304000</desc></polyline><polyline fill="none" points="111.9601398599334,202.2563473537739 114.86783216753975,200.52019920607563 120.98531468515284,199.40727984640398 124.08181818178855,197.09239786749822 127.44265734264627,197.18143203217187 128.3489510489162,196.42464101308724 122.3825174823869,186.7197848650394 118.34195804176852,187.5211119944288 114.4902097901795,189.7915303253103 112.3377622377593,189.7915303253103 108.9013986014761,191.39417096233228 103.27482517482713,192.55162973457482 103.46363636362366,196.20205515241832 101.5,198.65049295013887 103.16153846145608,200.4756824898359 103.8790209791623,202.74602883096668 104.9363636362832,203.41377535375068 111.50699300691485,202.03376467025373 114.98111888114363,200.4756824898359 120.04125874117017,199.8079311651527 124.27062937058508,197.09239786749822 127.2538461536169,197.22594910740736 128.46223776205443,196.20205515241832 122.3825174823869,186.58623019064544 117.88881118874997,187.5656301221461 114.56573426560499,189.74701244014432 111.5447552446276,190.05863753479207 107.84405594388954,191.70579480053857 103.38811188796535,192.46259456081316 103.5013986013364,196.42464101308724 101.5,198.65049295013887 103.27482517482713,200.56471591748414 104.18111888109706,202.87957822266617 105.46503496496007,203.50280814105645 115.81188811152242,200.34213231221656 120.15454545430839,199.8524479540356 123.89300699299201,197.3149832431227 127.36713286698796,197.2704661777243 128.5,196.15753796565696 121.96713286708109,186.45267547256663 117.51118881092407,187.8327387869067 114.41468531475402,189.74701244014432 103.57692307676189,192.24000654157135 103.53916083928198,196.20205515241832 101.53776223771274,198.56145910560736 103.23706293688156,200.4756824898359 103.8790209791623,202.6124793953786 105.8048951048404,203.54732452743337 121.06083916057833,198.91759436775465 122.94895104877651,196.38012385068578 122.3825174823869,193.842637573689 119.8902097903192,190.7264047942881 117.77552447561175,189.65797665526043 115.96293706283905,189.56894085078966 113.88601398584433,190.4147802090156 110.52517482521944,194.46588127722498 105.16293706302531,195.35622777591925 101.95314685301855,197.89370465217507 101.83986013988033,198.96211125364061 103.6524475524202,201.14343272330007" stroke="#4DD2FF" stroke-linecap="round" stroke-linejoin="round" stroke-width="0.5"><title>2025-06-04 6.4km</title><desc>1749041988000</desc></polyline><polyline fill="none" points="158.5,198.7822926046283 151.5798759208992,197.4002201252515 143.69658782478655,193.75985925654095 142.5031019775197,193.36496562202228 131.5,191.2177073953717 142.8171772005153,193.4883700306309 151.42283830943052,197.37554010635358 157.17041488946415,198.56017495014385" stroke="#4DD2FF" stroke-linecap="round" stroke-linejoin="round" stroke-width="0.5"><title>2025-05-28 5.0km</title><desc>1748436903000</desc></polyline><polyline fill="none" points="188.5,198.7704701553448 181.002373417723,197.2346258794205 172.31922468356788,193.30680015370308 161.5,191.21694104147173 171.9667721518781,193.2312637355426 173.26977848104434,193.64671342453948 181.63251582282828,197.4738160835186 188.37183544307481,198.78305895852827" stroke="#4DD2FF" stroke-linecap="round" stroke-linejoin="round" stroke-width="0.5"><title>2025-05-27 5.0km</title><desc>1748351986000</desc></polyline><polyline fill="none" points="31.49476505536586,230.56973551820556 31.530847083369736,228.9533236429561 32.37877474335255,227.03381156545947 32.93804617866408,223.47254545317264 32.90196415054379,223.80089273079648 32.090118518681265,223.90192251550616 28.139136443380266,226.70547147485195 26.641732277872507,227.0590684653289 26.046378814440686,226.0740461719688 26.731937348027714,224.9627310827491 27.994808331073727,223.97769480869465 27.79635717655765,222.28543766700022 28.39171063998947,221.19935197279847 27.597906022157986,220.74470907823707 24.693302761297673,220.79522502458713 23.935580171470065,219.68387021525996 24.188154368137475,218.37044011337275 24.747425803449005,218.54724869203346 24.693302761297673,217.6884621843492 25.523189407249447,218.19363132303988 27.038634586846456,218.14311448692752 28.24738252768293,218.95138179129572 29.889114805555437,219.0018983510381 30.556632325111423,218.67354040438659 32.19836460298393,216.37501433712896 32.270528659108095,212.53563826884783 31.675175195676275,211.85363339612377 30.737042465538252,211.5 29.582417566794902,211.82837389592896 28.554079766385257,212.9650471285422 27.76027514843736,213.24289925477933 26.13658388471231,212.93978781838086 24.42268755059922,212.00519030670694 22.853119328967296,212.53563826884783 22.059314711077604,213.7480835996248 22.095396739197895,215.0362958573969 22.780955272784922,215.99613297969336 24.332482480444014,216.72863606043393 24.693302761297673,217.61268666454998 23.989703213621397,219.2544808901148 24.494851606839802,220.769967053624 24.6211387051153,222.86636394601373 23.953621185501106,225.13953176994983 24.476810592750553,225.7709610677848 26.01029678643681,226.14981735081528 26.605650249752216,227.0590684653289 25.23453318257816,229.28165873675607 23.538677862496115,229.96358313792734 20.706238657876384,232.03459350085177 18.649563057057094,232.91855249649961 18.18049669195898,234.13083051687863 17.02587179321563,235.3936095416866 18.0181275656214,238.22219538311765 18.92017826763913,238.42423515632981 20.11088519450277,237.6918396637484 21.500043275766075,238.2727053523995 22.510340062144678,238.14643039696966 23.30414468003437,237.31301298408653 23.881457129435148,235.21682112806593 25.252574196609203,234.4591541018599 28.39171063998947,235.4441204781615 29.582417566794902,234.8632436661428 31.44064201315632,234.76222137876903 31.548888097400777,229.15537609483 32.97412820678437,224.15449667496432 32.75763603823725,223.80089273079648 32.21640561695676,223.8514076318097 28.157177457411308,226.7307284307899 26.69585532002384,227.03381156545947 25.090205070213415,229.35742827017384 23.376308736158535,230.03935232151707 20.68819764390355,232.03459350085177 18.757809141359758,232.7922729638667 18.18049669195898,234.20659756285022 17.02587179321563,235.49463139727595 17.927922495349776,238.09592038458504 18.523275958781596,238.5 20.002639110200107,237.6918396637484 21.698494430223946,238.29796033048478 22.835078314878047,237.8433700636233" stroke="#4DD2FF" stroke-linecap="round" stroke-linejoin="round" stroke-width="0.5"><title>2025-05-23 6.4km</title><desc>1747958832000</desc></polyline><polyline fill="none" points="57.45308017521165,226.2609099506517 58.18378490814939,226.95508605199575 60.01054674061015,227.24737005149655 60.92392765684053,228.41650205080805 60.68905827833805,233.01989710853377 60.24541611899622,233.86018867589883 58.65352366515435,234.33513462169503 57.087727808742784,233.78711997522623 55.62631834263448,234.11592893171473 53.14714156999253,232.65455191805086 51.65963550633751,233.23910392301332 50.5635784069309,233.0564315932861 50.87673757807352,231.99692900072841 50.093839650042355,229.95097809076833 50.32870902842842,228.48957258829614 49.493617905071005,227.10122810167377 49.858970271539874,224.90908685923205 55.130482988082804,224.6898714978597 56.93114822299685,225.3475169071171 57.870625736773945,226.84547944900987 59.88006375252735,227.21083457340137 60.76734807121102,228.05114898820466 60.68905827833805,233.1295005438733 60.29760931432247,233.86018867589883 58.757910055457614,234.29860035570164 57.270403991802596,233.8236543286912 55.57412514742464,234.07939462825016 53.09494837478269,232.6910864651727 49.937260064296424,233.3487072458811 48.24098121980205,234.73701113578863 48.78900976956356,235.1388868940121 49.20655533124227,237.33092317769479 51.764021896757185,238.5 52.86007899628021,237.7327940568066 53.59078372933436,236.2349078469706 53.48639733879827,235.0658186305227 52.129374263226055,232.91029361690744 53.48639733879827,232.6910864651727 55.600221745087765,234.07939462825016 57.270403991802596,233.60444811395428 57.06163121107966,233.0564315932861 55.365352366585284,233.09296607170836 54.451971450354904,231.92385966274014 55.313159171375446,228.48957258829614 53.06885177711956,225.05523030851327 53.22543136274908,222.315023998759 53.82565310772043,221.14585860955412 55.02609659754671,220.45166363242606 57.29650058946572,221.18239512490982 59.14935901958961,220.70741993909178 57.06163121107966,222.7534593702294 54.89561360958032,222.64385061174107 53.59078372933436,221.65736925475358 51.58134571358096,221.21893163386267 51.6335389087908,216.7614314134844 52.52082322735805,214.89802260746364 52.57301642256789,212.12114795439993 53.1210449723294,211.57307632359152 54.791227219160646,211.5 59.593001178931445,212.19422406563535 60.584671887918375,213.0711354503146 60.92392765684053,214.89802260746364 61.75901878031436,215.81146032754623 61.21099023055285,216.5422076916584 61.55024599947501,217.0171921379515 59.906160350190476,218.00369492125174 59.72348416689783,220.30551703396486 57.29650058946572,222.68038687076478 55.391448964131996,222.7534593702294 53.5124939364614,221.54775993383373 51.68573210388422,221.328541123381 51.607442311244085,217.0171921379515 52.729596008197404,213.29036273398378 53.90394290059339,212.85190794157097 53.930039498140104,211.7557670234819 59.279842007556,212.0846098894981" stroke="#4DD2FF" stroke-linecap="round" stroke-linejoin="round" stroke-width="0.5"><title>2025-05-20 5.0km</title><desc>1747754393000</desc></polyline><polyline fill="none" points="94.92259414237924,226.88678985866136 97.4456066947896,227.19754025462316 98.5,226.08771632399294 92.2489539750386,216.6762878690206 87.88075313810259,217.74174351306283 84.4916317993775,219.73946533541312 82.38284518825822,219.82825274462812 77.26150627620518,221.78157085122075 73.15690376586281,222.35868577228393 73.49581589968875,226.13210933920345 71.5,228.70689594867872 73.15690376586281,230.1718534809188 73.75941422604956,232.21390670671826 74.66317991632968,233.10175274306675 76.35774058592506,233.36810617669835 84.83054393320344,230.6157789659337 89.87656903779134,229.9054979578359 94.24476987472735,227.01996862894157 97.4456066947896,227.10875445153215 98.4246861927677,226.26528835605131 92.3995815902017,216.72068190973368 90.7426778243389,216.76507594564464 84.64225941430777,219.65067790696048 81.85564853576943,219.9614338221727 78.35355648538098,221.5596033561451 72.85564853576943,222.58065283187898 73.64644351485185,225.51060668524588 71.5,228.66250321402913 73.08158995839767,229.9942831514636 73.57112970738672,231.85876775055658 74.70083682029508,233.05736048726249 76.35774058592506,233.2793217182916 85.5460251045879,230.26063861662988 90.47907949821092,229.63914226053748 94.05648535559885,227.10875445153215 97.48326359852217,227.10875445153215 98.4246861927677,226.17650234969915 92.3995815902017,216.76507594564464 91.08158995816484,216.63189382333076 87.69246861943975,217.74174351306283 84.75523012550548,219.65067790696048 82.34518828452565,219.73946533541312 77.8263598328922,221.64839036864578 73.34518828475848,222.44747261054 73.57112970738672,225.95453724917024 71.57531380769797,228.5737177300034 73.08158995839767,230.08306832588278 74.13598326360807,232.70222226623446 76.50836820108816,233.23492948169587 84.15271966555156,230.660171487747" stroke="#4DD2FF" stroke-linecap="round" stroke-linejoin="round" stroke-width="0.5"><title>2025-05-14 5.0km</title><desc>1747227249000</desc></polyline><polyline fill="none" points="111.06141099985689,238.2072240831185 111.6113941486692,237.70532147266204 112.40975678374525,234.73570418082818 114.8048446890898,235.1121370839246 116.09996629727539,229.92566322856874 115.85158681077883,226.60039055150992 113.35005055402871,220.3470488191233 113.45649890543427,218.94577039235446 115.1951553109102,218.00460749759804 117.78539852704853,217.56539656739915 119.45308936492074,216.41507746368006 120.81917654059362,216.5405671554763 121.33367690548766,215.99677789857378 118.58376116224099,211.60457742671133 117.89184687833767,211.5 115.99351794598624,212.1902099634608 114.8048446890898,213.00590944757278 113.77584395941813,213.02682477340568 111.6823597161565,213.863435936757 109.53565129719209,214.17716418294003 109.67758243228309,215.80854279684718 108.66632309451234,217.08435487173847 108.84373701340519,217.54448173608398 109.44694433768746,217.9418631404842 110.05015166208614,219.34314889581583 110.81303151347674,219.42680742329685 117.6257260000566,217.37716300397005 118.38860585144721,216.7078866167867 118.67246812174562,215.80854279684718 118.33538167562801,214.6372980163287 117.14670841896441,213.3614696762961 115.6919142837869,212.9013327843859 114.41453406750225,213.25689320683887 112.71136044594459,215.1810911246721 110.28078975668177,215.59939246736758 108.87921979720704,216.85429102586932 108.9147025810089,217.54448173608398 110.81303151347674,219.00851442132262 112.97748132422566,218.77845288168464 117.57250182447024,217.37716300397005 118.56601977034006,216.45690737005498 118.61924394604284,215.4529871011182 117.89184687833767,214.13533377973363 116.1709318648791,212.96407878912578 113.77584395941813,213.04774009693938 111.52268718916457,213.94709685254202 109.50016851339024,214.34448570449604 109.65984104049858,215.8922028648376 108.68406448629685,217.1680143837002 109.4646857297048,217.9418631404842 109.85499635129236,219.0712584296998 110.75980733777396,219.44772204950277 111.8242908512475,218.90394102841674 113.79358535131905,218.56930578823085 113.33230916212779,219.42680742329685 113.38553333771415,220.09607433053316 115.6209487161832,225.70109307739767 116.15319047297817,228.294404584085 115.95803516218439,231.20138148439582 115.07096556760371,234.5265744713688 112.78232601343188,234.19196646231285 111.87751502695028,237.24524292709248 111.18560074316338,237.53802031086525 110.90173847286496,238.5 110.52916924317833,238.35361209738767" stroke="#4DD2FF" stroke-linecap="round" stroke-linejoin="round" stroke-width="0.5"><title>2025-05-06 7.1km</title><desc>1746539597000</desc></polyline><polyline fill="none" points="141.81684361433145,238.5 141.63390359212644,238.28435963652737 142.49372169631533,235.41632046682935 144.6707079601474,235.9338644418458 145.0548820067197,235.26536988592125 146.18911014404148,230.49958522240922 146.15252213960048,228.12743244334706 142.91448374732863,219.1561248897342 142.03637164086103,218.96202960774826 140.79237949021626,219.56588097129134 140.02403139707167,219.41491830308223 138.5788052220596,217.1720308127551 139.56668134173378,216.09371047242894 139.3288593129255,214.36838570807595 140.60943946801126,214.3036857367988 144.890235986677,213.09594905805716 146.28058015508577,212.2332754896488 148.56733043212444,211.54313392755284 151.5126647891011,216.05057753656 151.14678474480752,216.63287137694715 149.53691254975274,216.48190647170122 147.81727634125855,217.7327550680784 145.2012340243673,218.1209478527453 143.66453783819452,218.85419881320558 141.70707960100845,219.11299262134708 140.51796945696697,219.60901314098737 139.74962136382237,219.28552163871063 139.31056531064678,218.07781535870163 138.61539322638419,217.56022469713935 138.61539322638419,217.1504644635279 139.56668134173378,215.87804569935543 139.31056531064678,214.3899523604341 141.32290555443615,214.13115237673628 144.8353539800737,213.00968187041872 148.16486238338985,211.5 148.67709444544744,211.6725356537936 151.4943707868224,216.05057753656 151.2199607535731,216.58973855864315 149.66497056512162,216.48190647170122 147.41480829252396,217.883719019228 145.58540807082318,218.01311659999192 140.60943946801126,219.56588097129134 139.84109137486666,219.3502199814975 139.34715331508778,218.07781535870163 138.61539322638419,217.517092080976 139.54838733945508,215.92117867272464 139.3288593129255,214.36838570807595 141.24972954567056,214.13115237673628 144.6890019623097,213.07438226472004 145.91470011079218,212.31954301570659 148.20145038783085,211.5 148.62221243884414,211.6725356537936 151.4760767846601,216.02901106515492 151.2016667514108,216.56817214586772 149.53691254975274,216.4603400472697 147.76239433477167,217.75432135388837 145.1829400220886,218.1209478527453 143.33524579822551,218.91889729698596 141.81684361433145,219.0482942009985 140.64602747245226,219.5874470573326 139.78620936826337,219.26395551979658 139.3288593129255,218.07781535870163 138.59709922410548,217.5386583902291 138.5788052220596,217.1720308127551 139.31056531064678,216.4603400472697 138.4507472064579,217.25829618619173 139.2556833040435,218.20721281263104 139.62156334833708,219.19925714879355 140.40820544364396,219.67371137811278 144.96341199544258,218.25034527845855 147.68921832577325,217.9268515555741 149.44544253859203,216.58973855864315 151.0736087358091,216.58973855864315 151.5492527935421,216.09371047242894 148.49415442335885,211.5 146.17081614176277,212.19014171257732 144.7255899667507,213.11751584906597 143.42671580938622,213.20378298975993 141.43266956775915,214.02331895034877 139.07274328183848,214.49778558711114 139.4752113306895,215.87804569935543 138.54221721750218,217.0210663187463 138.50562921306118,217.58179100176494 139.23738930176478,218.1425140962092 139.56668134173378,219.1561248897342 140.26185342599638,219.5874470573326 142.91448374732863,219.13455875671934 145.7683480931446,226.5531699071289 146.09764013299718,228.23525818638154 146.17081614176277,230.41332561943273 144.8719419843983,235.73978560976684 142.38395768299233,235.43788482611126 141.83513761649374,238.04715496544668 141.54243358108215,238.28435963652737" stroke="#4DD2FF" stroke-linecap="round" stroke-linejoin="round" stroke-width="0.5"><title>2025-04-29 10.1km</title><desc>1745929124000</desc></polyline><polyline fill="none" points="187.4628830384463,222.42462373730086 187.008416055236,222.0400183712045 187.26478204579325,220.62520996679086 186.62386706948746,222.74054869628162 186.1344410876627,222.80922793049103 184.67781614157138,228.52320921795035 184.5146741476492,228.564414873661 177.09171342250193,227.09473816500395 167.62947777297813,222.83669961369014 161.5,221.53178805270727 167.5828657746897,222.85043545305234 175.052438498009,226.35302566026803 177.17328441952122,227.1496796584761 188.5,229.37479003320914 184.6195511437254,228.5369444379976 184.86426413466688,227.5342694429055 185.5517911091447,227.36944539318938 187.1132930513122,220.80377889306692 187.41627104009967,220.6938903529881 187.008416055236,221.76529953444697" stroke="#4DD2FF" stroke-linecap="round" stroke-linejoin="round" stroke-width="0.5"><title>2025-04-22 6.3km</title><desc>1745328842000</desc></polyline><polyline fill="none" points="21.082908935495652,267.7065819974814 21.531644904753193,267.50822701070865 22.46651150728576,264.4447197459085 24.8597700096434,264.7973560378596 26.11249125690665,260.2350765513838 25.906820604461245,255.62861269786663 23.30789144942537,249.25873630018032 23.25179945328273,248.1566612082388 24.654099357081577,247.01049674367823 27.60827782098204,246.52557905377762 29.739773674635217,245.1369446930621 31.142073578434065,245.2691959952499 31.72169087198563,244.7622322007228 30.46896962460596,242.80049076444993 28.78620974009391,243.66013261199987 27.4400018324377,242.09514087894058 26.00030726462137,241.5 23.30789144942537,241.72042275195417 21.475552908610553,242.5359848455846 19.007505077985115,242.954785724025 19.38145171897486,244.49772884703998 18.297006460023113,246.06270199271967 19.100991738261655,246.74599632962781 19.512333043385297,247.89216229283193 20.353712985524908,248.33299362644902 23.42007544171065,247.60562141083938 25.196321986499242,246.83416317273804 27.53348849271424,246.52557905377762 29.459313693805598,245.225112237531 31.142073578434065,245.2471541176783 31.702993539860472,244.71814833245298 30.487666956614703,242.80049076444993 28.80490707210265,243.6160485035798 27.4400018324377,242.0730986554263 26.11249125690665,241.52204228601477 23.214404789265245,241.72042275195417 21.51294757274445,242.51394267009164 19.474938379251398,242.8225329087145 19.194478398538195,243.04295421954885 19.34405705484096,244.5638547178678 18.297006460023113,245.95249301256263 19.063597074127756,246.74599632962781 19.456241047242656,247.91420388229017 20.260226325364783,248.37707670690725 25.23371665063314,246.81212146561302 27.45869916456286,246.56966252817074 29.478011025930755,245.225112237531 31.216862906585447,245.225112237531 31.684296207968146,244.67406445462257 30.450272292480804,242.7564064686594 28.71142041182611,243.59400644570997 27.42130450042896,242.0730986554263 26.280767245334573,241.5881691295799 23.775324750691652,241.6102114059613 21.325974252191372,242.5359848455846 19.4375437151175,242.8225329087145 19.175781066413037,243.02091209929495 19.306662390823476,244.7622322007228 18.27830912801437,246.01861840786296 19.119689070270397,246.79007975605782 19.49363571126014,247.91420388229017 20.110647668945603,248.3109520825965 27.626975153107196,246.23903623607475 28.54314442339819,245.48961464011518 28.86099906824529,244.365477040541 28.599236419657245,243.5278802577959 27.68306714913342,242.40373175652348 26.24337258131709,241.54408456964302 23.75662741868291,241.6322536799853 21.251184923923574,242.602111357759 19.157083734404296,242.954785724025 19.38145171897486,244.45364492113004 18.297006460023113,245.97453481335833 19.213175730546936,247.0986634715373 18.857926421565935,247.78195430927735 19.7927930240985,249.69956465590803 20.521988974069245,252.91758255226887 20.839843618916348,256.53228134020173 20.76505429064855,258.9126574694819 18.932715749833733,267.8828973779746 20.260226325364783,268.5" stroke="#4DD2FF" stroke-linecap="round" stroke-linejoin="round" stroke-width="0.5"><title>2025-04-15 8.8km</title><desc>1744723077000</desc></polyline><polyline fill="none" points="68.32256297930144,252.11555058220983 67.53888280398678,252.0632622097619 68.11555312166456,250.37259562626423 67.43537787522655,253.1961731211777 67.59802847763058,253.63190595147898 66.69605695514474,256.62971566361375 65.82365826953901,256.6471446256328 65.83844468783354,257.3791593173373 64.83296823670389,260.6383269469952 55.0295728368219,258.6863200816151 43.791894852067344,253.47504226924502 41.5,252.81272724908195 43.95454545458779,253.5970473687048 55.01478641841095,258.7037488197093 64.86254107346758,260.6208984196128 65.18784227827564,259.31375345625565 65.92716319829924,259.22661007908755 66.5629791895044,257.3791593173373 68.5,249.36167305300478 67.98247535608243,252.23755671823164" stroke="#4DD2FF" stroke-linecap="round" stroke-linejoin="round" stroke-width="0.5"><title>2025-04-11 5.1km</title><desc>1744377642000</desc></polyline><polyline fill="none" points="79.26928169163875,268.5 80.18246932455804,267.489487409548 80.42474359448534,268.23638850795396 81.33793122740462,267.489487409548 82.3629377540201,264.39201509868144 84.76704397122376,264.9412157864572 85.19568306417204,264.78743974464305 86.31387200241443,259.9763872182375 86.38841793162283,257.3401453783008 85.92250587407034,254.98946733966295 83.23885242233519,249.14560693781823 83.16430649312679,248.1569671883044 84.46886025439017,247.05847289254598 87.4693339051446,246.5751335065288 89.55661992321257,245.14707855210872 90.91708313138224,245.2788994331204 91.60663297667634,244.70767499279464 90.13435087457765,242.40079059636628 88.58752284338698,243.30157716825488 86.76114757778123,241.76364644480054 85.12113713496365,241.67576433482463 84.24522246664856,242.09320401590958 82.47475664783269,244.02659758357913 79.94019505451433,244.40009193155856 78.46791295264848,245.6743615591986 78.39336702332366,246.09179296197544 79.15746279782616,246.72892343683634 79.47428299696185,247.76150993116607 80.31292470067274,248.24484647337522 87.67433521070052,246.17967314712587 88.68070525501389,245.21298900338297 88.79252414871007,244.1364489342086 87.6929716928862,242.42276104840857 85.92250587407034,241.5 83.53703613905236,241.6318232654885 81.20747585117351,242.53261327285145 79.19473576243035,242.88413998897886 79.36246410314925,244.4220621658169 78.39336702332366,245.60845125872584 78.39336702332366,246.02588279791235 79.15746279782616,246.6630134810839 79.95883153693285,248.22287665563636 80.77883675822522,248.24484647337522 81.87838921416551,247.67363043544174 82.8847592585953,247.76150993116607 85.82932346244343,255.56066265427216 86.18341662629973,257.60377111313574 86.07159773248713,259.71276458504144 85.02795472345315,264.1723344048514 82.62384850624949,263.7988766760827 81.67338790884241,266.69864793760644" stroke="#4DD2FF" stroke-linecap="round" stroke-linejoin="round" stroke-width="0.5"><title>2025-04-08 5.6km</title><desc>1744119870000</desc></polyline><polyline fill="none" points="111.18841104069725,266.22279384173453 111.91940070415149,265.15598509067786 112.47634520957945,262.7761591798626 114.79114581033355,263.2069919617643 116.0268664318719,258.44726081666886 116.07907997927396,256.5187148169498 115.74839417915791,254.63118258801114 113.38138003100175,248.7632985329692 113.38138003100175,247.63483832952625 114.68671871570405,246.67051243354217 117.41922769561643,246.26015949061548 119.22929733828641,245.02909529639874 120.7957037598826,245.02909529639874 121.21341213898268,244.49563164620486 119.83845539117465,242.3207257387403 118.15021735901246,242.97730375418905 116.5490019057761,241.6436272625142 113.97313356801169,241.58207273487642 111.58871490403544,242.4643523752893 109.60460010328097,242.83367750897014 109.7090271980851,244.49563164620486 108.78658786095912,245.60359292195062 109.46536397695309,246.38326546740427 109.86566784029128,247.53225070299231 110.94474781956524,247.90156589698745 111.9019961883314,247.38862793192675 113.52061615732964,247.20396992248425 115.10442709468771,246.50637136369187 117.52365479042055,246.15757111515268 119.35112894885242,244.94702406400756 119.07265669613844,245.50100418883085 119.52517410682049,244.82391714828555 120.86532182310475,244.92650625035458 121.16119859163882,244.41356018124497 120.08211861230666,242.66953309456585 118.55052122229245,243.46973576329765 117.33220511657419,242.05399026606756 116.04427094775019,241.5 113.85130195744568,241.56155455451517 111.71054651460145,242.42331620461482 109.65681365068303,242.75160531961592 109.63940913486294,244.57770307539613 108.83880140830297,245.39841539978806 108.78658786095912,245.8087702206103 109.48276849271497,246.42430077510653 109.67421816656133,247.2860401712678 110.6140620195074,247.88104840523738 111.84978264098754,247.36811038423912 113.4509980941657,247.20396992248425 114.91297742095776,246.5474066445313 116.30533868464408,246.36274781019893 116.46197932685027,247.53225070299231 120.0299050649046,254.7747998355917 116.39236126356991,256.04683353322616 116.18350707407808,259.26791269924433 115.29587676847586,262.73512743496394 114.84335935779382,263.08389698182873 113.59023422049358,268.5 108.78658786095912,267.2690811709472 109.51757752435515,264.1302017472626 109.76124074548716,264.0071073706349 109.34353236632887,266.01763878189377" stroke="#4DD2FF" stroke-linecap="round" stroke-linejoin="round" stroke-width="0.5"><title>2025-04-02 6.9km</title><desc>1743601029000</desc></polyline><polyline fill="none" points="140.7553137508221,268.5 141.40103783342056,267.91794785880484 142.29365641833283,264.7166316180519 145.27538232936058,265.4330144081323 146.50985484034754,259.76904479989025 146.13001714460552,255.58253215104924 143.2242587726796,248.95557841929258 143.20526688790414,248.351082138528 143.77502343140077,247.54508433119918 144.78159332484938,247.05252855930303 148.01021373819094,246.47041567025008 149.51057263615075,245.26140670843597 150.09932106442284,245.17185020603938 150.1183129491983,244.36583992806845 149.35863755783066,242.82097805774538 148.75089724478312,242.86575682619878 148.16214881651103,242.19407427562692 147.66835981211625,242.3060215198493 146.56683049467392,241.63433713953418 145.38933363801334,241.54477905623207 144.17385301191825,241.97017960417725 142.54055092053022,243.9852228644304 140.07160589867271,244.3434507085185 138.2293930746382,245.82113396393834 139.33092239196412,247.88091713511676 140.58438678772654,248.39585970180633 144.9335284032859,246.94058390099963 147.7443273512181,246.53758262630436 149.89041033177637,245.05990452312108 151.31480169063434,245.2390175864566 151.80859069502912,244.70167792809661 150.27024802740198,242.3955792713241 148.57997028168757,243.31354397338873 147.55440850334708,242.12690589981503 146.22497656859923,241.5 143.73703966184985,241.6119476223539 141.4770053725224,242.55230524252693 139.06503600499127,242.95531433366705 139.21697108331136,244.72406710854557 138.19140930497088,246.0450244392996 139.02705223544035,246.828639181811 139.40688993118238,247.94808363007905 140.52741113340016,248.41824847973476 141.6859161052853,247.8361394596286 142.7874454226112,247.76897292815556 144.07889358792454,251.4183226643945 145.08546348148957,252.29147035496135 148.409043318592,251.5974301854294 150.49815064494032,255.98551568786206 146.4718710706802,257.35117624123814 146.26296033803374,260.77648163713457 145.8451388728572,261.29139189134 144.78159332484938,265.0748233252234 144.55369070754386,265.25391894466884 142.29365641833283,264.8509535813937 141.59095668129157,267.5373744137469" stroke="#4DD2FF" stroke-linecap="round" stroke-linejoin="round" stroke-width="0.5"><title>2025-03-25 6.1km</title><desc>1742909450000</desc></polyline></svg>