<?xml version="1.0" encoding="utf-8" ?>
<svg baseProfile="full" height="300mm" version="1.1" viewBox="0,0,200,300" width="200mm" xmlns="http://www.w3.org/2000/svg" xmlns:ev="http://www.w3.org/2001/xml-events" xmlns:xlink="http://www.w3.org/1999/xlink"><defs /><rect fill="#222222" height="300" width="200" x="0" y="0" /><text fill="#FFFFFF" style="font-size:12px; font-family:Arial; font-weight:bold;" x="10" y="20">Over 5km Runs</text><text fill="#FFFFFF" style="font-size:4px; font-family:Arial" x="10" y="280">Runner</text><text fill="#FFFFFF" style="font-size:9px; font-family:Arial" x="10" y="290">Elliont</text><text fill="#FFFFFF" style="font-size:4px; font-family:Arial" x="65" y="280">SPECIAL TRACKS</text><rect fill="yellow" height="2.6" width="2.6" x="65" y="283" /><text fill="#FFFFFF" style="font-size:3px; font-family:Arial" x="70" y="285.5">Over 20.0 km</text><rect fill="red" height="2.6" width="2.6" x="65" y="287" /><text fill="#FFFFFF" style="font-size:3px; font-family:Arial" x="70" y="289.5">Over 40.0 km</text><text fill="#FFFFFF" style="font-size:4px; font-family:Arial" x="120" y="280">STATISTICS</text><text fill="#FFFFFF" style="font-size:3px; font-family:Arial" x="120" y="285">Number: 58</text><text fill="#FFFFFF" style="font-size:3px; font-family:Arial" x="120" y="290">Weekly: 2.2</text><text fill="#FFFFFF" style="font-size:3px; font-family:Arial" x="141" y="285">Total: 395.0 km</text><text fill="#FFFFFF" style="font-size:3px; font-family:Arial" x="141" y="290">Avg: 6.8 km</text><text fill="#FFFFFF" style="font-size:3px; font-family:Arial" x="167" y="285">Min: 5.0 km</text><text fill="#FFFFFF" style="font-size:3px; font-family:Arial" x="167" y="290">Max: 11.4 km</text><polyline fill="none" points="34.42857142855064,50.823056854824245 32.48122897508438,50.463341598180705 26.769993272027932,47.859639256465016 25.963444718538085,47.61125525270472 16.938820363313425,45.88111042649689 13.560035882488592,45.949631737632444 12.571832249377621,45.512807356186386 12.063198026444297,45.033154259792354 11.46010316212778,43.834008717749384 11.351110114337644,43.14877448276093 14.519174702843884,40.58765865717578 16.517380578588927,38.39479753913474 18.573716079816222,36.56165575955674 21.15321821035468,34.87409960252262 18.67544292443199,36.4588614968452 16.655438439105637,38.23204368968436 14.628167750604916,40.43347510892636 11.372908723918954,43.09738167438627 11.285714285710128,43.27725635671959 11.380174927093321,43.66270071885083 12.048665620095562,45.05028477789165 13.116797488211887,45.83828457674099 13.799820587562863,46.035283292570966 16.924287956906483,45.906805925187655 26.036106750398176,47.67977505623276 26.893518726166803,47.95385367336712 32.26324287959142,50.43764758832549 34.11612469164538,50.8401861117527 34.19605292665074,50.703151952089684" stroke="#4DD2FF" stroke-linecap="round" stroke-linejoin="round" stroke-width="0.5"><title>2025-10-12 10.0km</title><desc>1760258276000</desc></polyline><polyline fill="none" points="59.52844500631909,45.72274678230315 54.49178255375591,44.71243898902321 47.83185840709484,41.74402911939251 38.547408343845746,39.96471994510648 37.0,39.92001318776602 38.72945638431702,40.03625070623093 48.188369152951054,41.90496975577116 52.16308470291551,43.77364626744384 52.474083438690286,43.80940999635641 53.39190897598746,44.34586406095332 54.74968394439202,44.85549217548396 59.48293299620855,45.79427252651658 59.61188369154115,45.72274678230315 59.69532237673411,45.052189899855875 60.142857142869616,45.02536751066509" stroke="#4DD2FF" stroke-linecap="round" stroke-linejoin="round" stroke-width="0.5"><title>2025-10-09 6.0km</title><desc>1760007351000</desc></polyline><polyline fill="none" points="85.85714285715949,46.09081330116169 79.81352493655868,44.90713863061683 72.05359256127849,41.43135741948936 62.71428571426077,39.623472413128184 72.52831783599686,41.66810181589972 76.84649196953978,43.71268890768988 77.33034657646203,43.788014992496755 77.76855452242307,44.15388373031601 79.03753169905394,44.69192353075778 79.1744716821704,44.63811968258233 79.77700760774314,42.55050775037671 80.96382079459727,42.884098185022594 81.21944209636422,42.690400650426454 82.86272189347073,42.92714203004289 83.31005917157745,41.90484564501821" stroke="#4DD2FF" stroke-linecap="round" stroke-linejoin="round" stroke-width="0.5"><title>2025-10-05 5.0km</title><desc>1759662272000</desc></polyline><polyline fill="none" points="111.57142857142026,44.900960912818846 111.3900582176575,45.636362637756974 106.81952530230046,44.712833783836686 105.57169726822758,44.251065283642674 104.4762203314167,43.66102380371012 100.34097626508446,41.86521810326667 91.58441558442428,40.14633703217987 89.95208240035572,40.07792307652562 88.42857142857974,40.21475092824403 91.14912673534127,40.13778529098636 99.86941334526637,41.83956343855971 101.08822212269297,42.215831014364085 105.47012987011112,44.302373028884176 106.65991939097876,44.75558998911583 108.64773846842581,45.0976387930059 108.81459919395274,44.78979493655061 108.7202866099542,44.65297505738272 108.79283475148259,44.473398604204704 109.31518137035891,44.46484733430407 110.14948499776074,44.68718004953553" stroke="#4DD2FF" stroke-linecap="round" stroke-linejoin="round" stroke-width="0.5"><title>2025-10-02 6.2km</title><desc>1759399141000</desc></polyline><polyline fill="none" points="136.33620209965738,51.256000815359585 136.0657714137633,52.24060801126325 135.74125459065544,52.24769146226754 135.63308231628616,52.77894808939163 132.13551211188314,52.12727269023162 130.86749267351115,51.71643049605336 127.26175019473885,49.99511515917402 126.234113588318,49.633845662632666 119.07671476792893,48.24541872510599 117.97696331192856,48.17457982132328 116.30630263008061,48.29500591184478 115.66327855474083,48.1674959266893 115.18251289089676,47.89830735923897 114.7858812182385,47.52285828596359 114.47338353670784,47.00572676826414 114.14285714286962,46.021040316576546 115.02626405013143,45.192191961708886 116.78706829392468,43.80367018915422 118.59594910411397,41.87669288754114 120.1884853655647,40.466846111281484 122.43005527323112,38.9932047418406 122.68846681754803,38.87276142252813 123.23533776012482,38.85150669595896 123.49975887523033,38.70980834122747 124.3350892161543,37.739166307284904 124.8759505879716,36.48510368107236 125.5069555217633,35.9182877758285 128.35549207997974,34.34534774981876 131.61868902324932,32.93533762489096 131.61868902324932,33.40298256395181 132.23767481543473,33.920222289831145 133.10906258114846,35.88994685081707 135.64510145789245,40.73606544517679 136.89509218384046,43.690320164001605 137.2196090069192,44.90173832906294 137.28571428573923,45.8793575857344 137.18956115294714,46.95613859844161 136.96720703341998,47.678705334226834" stroke="#4DD2FF" stroke-linecap="round" stroke-linejoin="round" stroke-width="0.5"><title>2025-09-30 10.1km</title><desc>1759229695000</desc></polyline><polyline fill="none" points="162.9861709846591,45.54267363442341 158.10452857566997,44.54836376301682 153.1744846130896,42.25814076941606 152.19953903282294,41.92397425965464 143.77075419353787,40.28572173081193 142.4085961842211,40.24496872314921 140.79060139143257,40.39167944687506 139.85714285713038,40.155312028116896 140.69379828419187,40.44058295754803 143.30748218018562,40.26942053040693 144.10956506890943,40.36722767956235 152.18571001748205,41.948425518254226 152.87024627596838,42.152185696177185 156.5280208288459,43.896350118433475 158.43642494347296,44.67876581027667 162.83405181608396,45.55897368618025 163.0,45.510073520228616" stroke="#4DD2FF" stroke-linecap="round" stroke-linejoin="round" stroke-width="0.5"><title>2025-09-29 6.6km</title><desc>1759141711000</desc></polyline><polyline fill="none" points="187.0284611141542,53.01192357279797 186.87357970213634,53.74917480430304 186.36723662438453,53.65789653765387 183.01345835629036,53.00490209196869 178.41467181465123,50.89842331830732 177.19349145059823,50.540315081998415 170.06894649748574,49.17808126239834 167.7933811362018,49.29043153250677 167.2810810810479,49.23425642193615 166.48284611137933,48.81996346958476 166.23265306118992,48.56015127663704 165.89310535023105,47.9983916040801 165.57142857142026,47.043388925383624 165.8633204632788,46.706325778322935 168.45460562600056,44.627730755768425 169.89023717591772,43.03362766974897 171.6296745724976,41.50268979298562 173.76822945391177,40.09110475462512 174.57242140095332,39.957669743504084 174.8404853833199,39.81018862026394 175.52553778263973,39.100869931149646 176.20463320461567,37.633047055845964 176.81820187531412,37.043099255432026 180.85107556535513,34.93609872992238 184.3239933811128,33.580558634486806 185.24732487587607,33.3628267378881 187.4097076668404,32.57617633434711 188.71428571426077,31.965110909979558 185.50347490346758,33.201283242335194 184.22868174297037,33.53841703449871 183.03728626584052,33.980902459443314 182.87049089904758,34.360173262008175 182.99558742411318,34.66920707998361 183.35896304465132,34.82372343313182 183.71042471038527,35.44880853439099 184.94947600658634,38.15275850020407 186.88549365691142,41.81168935801543 186.88549365691142,42.00130199397245 187.32630998341483,42.787837342002604 188.1185879757104,44.70497704031732 188.33303916160366,45.51254629019968 188.6249310534622,45.5827692250532" stroke="#4DD2FF" stroke-linecap="round" stroke-linejoin="round" stroke-width="0.5"><title>2025-09-26 11.4km</title><desc>1758886655000</desc></polyline><polyline fill="none" points="34.428571428579744,73.62289859772136 30.03460415248992,72.72915312040277 25.135136216355022,70.46036345522589 24.34448133778642,70.2159103575541 16.450894107314525,68.69569853179564 15.16121934633702,68.65750183039927 13.70304436533479,68.77973120161914 12.996639596763998,68.67278051344329 12.018042165087536,67.94703939242027 11.674560947314603,67.42755692557694 11.331079729570774,66.55665121563652 11.35700284037739,66.22814888429275 12.00508060969878,65.66281568799604 11.363483618042665,66.18995083891059 11.285714285710128,66.42677838484815 11.97267672122689,67.95467881174409 12.329119494359475,68.31373058168538 12.938312597514596,68.64986248761124 13.690082809946034,68.81028851115843 15.60839300713269,68.66514117232873 16.46385566270328,68.71097720653052 23.910269232292194,70.15479694998066 25.12217466099537,70.47564174557192 30.021642597130267,72.76734760451654 31.687202464294387,73.11109702548129" stroke="#4DD2FF" stroke-linecap="round" stroke-linejoin="round" stroke-width="0.5"><title>2025-09-25 7.3km</title><desc>1758798919000</desc></polyline><polyline fill="none" points="60.14285714284051,70.7534659341909 59.7074829932244,72.28497076032363 55.25170068029547,71.4189928875494 50.05442176872748,69.02146397621254 48.74829931973363,68.62053178945644 40.72108843535534,67.08895073454187 39.34693877550308,67.06489423344465 37.891156462574145,67.20121430240397 37.0,67.00074352539377 37.76190476192278,67.23328957606282 39.49659863943816,67.10498839757201 40.945578231301624,67.17715783799213 49.08843537417124,68.71675571342348 49.82312925171573,68.94127771354397 55.183673469378846,71.42701124789892 59.10884353745496,72.196769776172" stroke="#4DD2FF" stroke-linecap="round" stroke-linejoin="round" stroke-width="0.5"><title>2025-09-23 6.7km</title><desc>1758623965000</desc></polyline><polyline fill="none" points="85.85714285715949,72.35558083016076 81.14696655029547,71.43589771484403 75.79254120454425,68.97210566345166 74.59710132121108,68.59240471488738 66.04290574876359,66.93013643295126 64.7042994123185,66.88794641853019 62.71428571428987,67.02295438384317 65.81383942379034,66.93013643295126 74.35371835096157,68.55865342941979 75.66369139676681,68.92147897782706 81.24718306749128,71.48652275741915 85.85714285715949,72.39776786717994" stroke="#4DD2FF" stroke-linecap="round" stroke-linejoin="round" stroke-width="0.5"><title>2025-09-22 6.4km</title><desc>1758538508000</desc></polyline><polyline fill="none" points="110.5916398713889,79.88468530259706 106.56086357374443,79.08797186731681 101.81074873681064,76.93168164844974 100.89917317411164,76.6319883718752 93.56316031239112,75.19928982641432 92.13688562242896,75.13350191382779 90.70440973818768,75.25776791679527 90.10289389069658,75.14812145553151 89.51998162610107,74.84111041088909 89.08589802481583,74.43907001420303 88.42857142857974,72.91860455241113 88.54019292606972,72.73585398053547 91.21910886542173,70.59398017694184 92.93683968766709,68.71521546559961 94.80339917319361,67.06302870304353 97.04823151128949,65.60819339626323 97.9039963252144,65.49122034297034 98.2326596233761,65.23534107779415 98.92719338543247,64.40189898996323 99.52250803861534,63.07129454482492 100.1736334405432,62.47178281797824 102.96417087738519,60.929112155063194 106.48644924210384,59.401028983113065 106.49265043638297,59.86165102108498 106.9825447864132,60.23453321100533 107.45383555351873,61.06802708074247 107.68948093708605,61.74797493467486 109.2335783187882,64.73820142945624 109.2707854846085,64.97946083657007 110.15755627010367,66.44893121554196 111.57142857144936,69.61439735846216" stroke="#4DD2FF" stroke-linecap="round" stroke-linejoin="round" stroke-width="0.5"><title>2025-09-21 9.0km</title><desc>1758451095000</desc></polyline><polyline fill="none" points="135.9519359145488,78.26615042859339 135.65153538051527,79.54084303693526 135.54339118825737,79.56916925555561 131.60213618158014,78.79727538532461 126.92790387183777,76.65150391930365 126.15287049397011,76.4178017608574 119.0453938584833,75.0368173135721 115.90320427232655,75.0368173135721 115.34445927903289,74.80310935129091 114.79172229638789,74.31444453370932 114.49132176232524,73.83994039899699 114.14285714286962,72.82718118434423 114.62950600797194,72.31017214596068 116.88851802400313,70.53247955768165 118.70293724964722,68.57766983503825 120.20493991987314,67.26734780002153 122.58411214951775,65.70909261635825 123.28704939919407,65.63826194760622 123.59345794390538,65.43285257170646 124.31441922561498,64.57579265309323 124.88518024029327,63.28663991931535 125.5400534045184,62.69872111621953 128.37583444593474,61.1403563860149 131.62616822432028,59.71654503015452 131.6381842456758,60.212403271776566 132.11882510012947,60.53116728612804 132.41321762351436,61.08368787346262 133.27236315087066,62.99622286207159 135.2489986648725,66.73612863899325 136.90120160212973,70.49706686089485 137.21962616822566,71.72941736393841 137.28571428571013,72.5438890697842 137.1655540720967,73.7903651403467 136.8291054739675,74.9872429675379" stroke="#4DD2FF" stroke-linecap="round" stroke-linejoin="round" stroke-width="0.5"><title>2025-09-18 10.1km</title><desc>1758194958000</desc></polyline><polyline fill="none" points="154.51902524655452,70.94423016800283 154.4521142031008,71.13153931099805 154.96231090917718,71.27941467642086 163.0,72.84687870013295 148.1624761216517,69.89923520530283 141.88956580101512,66.98107218637597 139.85714285713038,66.43883558557718 141.847746398882,67.01064863481588 148.26284268675954,69.93866919649736 153.15571273685782,70.92451339356921" stroke="#4DD2FF" stroke-linecap="round" stroke-linejoin="round" stroke-width="0.5"><title>2025-09-16 5.4km</title><desc>1758020593000</desc></polyline><polyline fill="none" points="188.70722135005053,72.32413642264146 184.00235478807008,71.38321820827696 178.59811616953812,68.89347610421828 177.5102040816273,68.58537529015302 168.91287284143618,66.93659848166863 165.57142857142026,67.00321641579649 166.00941915228032,67.07816152227315 167.82496075352537,66.92827123581083 169.06828885400319,66.9699074559685 177.77158555728965,68.64366472858092 178.6899529042421,68.96009233318182 184.05886970172287,71.42485200241208 188.71428571428987,72.35744304990658" stroke="#4DD2FF" stroke-linecap="round" stroke-linejoin="round" stroke-width="0.5"><title>2025-09-15 6.5km</title><desc>1757932870000</desc></polyline><polyline fill="none" points="34.42857142855064,106.88089043473155 30.158934570441488,106.02557998204429 25.111822108447086,103.7116074493606 24.450967845128616,103.50540817170986 16.35874260115088,101.9321640904891 15.134218525025062,101.90161531235208 13.702367621153826,102.03144752752269 13.073908174672397,101.93980128295516 12.387138057878474,101.58085233828024 12.011358182673575,101.22190155596036 11.642057270859368,100.61091727474559 11.33106702924124,99.81662974902429 11.285714285710128,99.5798692263852 11.395856662915321,99.427120077773 14.136458166642115,97.18166918732459 15.963525835861219,95.19583636072639 17.88129899217165,93.50019611298922 20.34978403453715,91.91908919534035 21.153175491897855,91.81979143532226 21.50951847701799,91.5677272588 22.18333066708874,90.81916769409145 22.831227003684035,89.35257883964368 23.505039193696575,88.6956592962888 26.57606782912626,87.01513941535086 28.856662933918415,85.9762524224061" stroke="#4DD2FF" stroke-linecap="round" stroke-linejoin="round" stroke-width="0.5"><title>2025-09-13 7.0km</title><desc>1757768754000</desc></polyline><polyline fill="none" points="60.142857142869616,99.24809483383433 55.02682938190992,98.24305741984426 49.39768969209399,95.64591231398663 48.47710652567912,95.34349963860586 39.2335460431641,93.54678947526554 37.0,93.55568417741597 39.35427826171508,93.61794706523506 48.20545903398306,95.32571062284842 49.28450323725701,95.64591231398663 55.07210396384471,98.29642254920327 60.11267408821732,99.31035338188667" stroke="#4DD2FF" stroke-linecap="round" stroke-linejoin="round" stroke-width="0.5"><title>2025-09-11 6.0km</title><desc>1757587445000</desc></polyline><polyline fill="none" points="83.64607921219431,106.12533690417331 79.71073781765881,105.35109203142929 75.34725943085505,103.32556747212948 74.34436318877852,103.02830074961093 67.4003330678388,101.68712659828452 66.19216566503746,101.64564653354319 64.83151111431653,101.75625997925818 64.15704872927745,101.63181983929098 63.324234305968275,100.98196181087405 62.978205777995754,100.36666456620151 62.71428571428987,99.50247296995803 65.30070233871811,97.35231321462197 66.09246252986486,96.59870300394687 67.01911519805435,95.50629800150637 68.7257982767187,94.00593895906059 69.98674969226704,93.26611752319877 70.83715878648218,92.63691680359625 71.5937296357879,92.51245877917972 71.93389327346813,92.31194255968148 72.60835565853631,91.53752914116194 73.18311490840279,90.22377047128248 73.82825284192222,89.65677148282703 76.47918325971114,88.18393335770088 79.77525161104859,86.73180595297163 79.7693867207272,87.22276703330135 80.25617261603475,87.52010781178979 80.59047136339359,88.12861482753215 81.24147418723442,89.64985682973929 83.84548548256862,94.6904389597621 83.98624284987454,95.174424402765 84.1621895590215,95.36801754630142 84.9304901889409,97.2486059185394 85.12403156902292,97.99529466751846 85.40554630363476,98.07134580634738 85.48765476793051,99.42642354615236 85.1826804720622,101.44515917183162 85.41141119395616,101.61107979222288 85.8454130765167,101.6940399397572 85.85714285713038,101.81847995777207" stroke="#4DD2FF" stroke-linecap="round" stroke-linejoin="round" stroke-width="0.5"><title>2025-09-09 10.0km</title><desc>1757415422000</desc></polyline><polyline fill="none" points="111.53955135776778,99.47210728898062 106.0407319953083,98.35429761496925 100.19923258555355,95.63955666621769 99.13134592681308,95.30138225857081 89.40082644627546,93.40382348750427 88.42857142857974,93.38503556816431 91.49675324672717,93.80776276329561 99.29870129868505,95.36713849724038 106.31965761509491,98.45762516725517 111.57142857142026,99.47210728898062" stroke="#4DD2FF" stroke-linecap="round" stroke-linejoin="round" stroke-width="0.5"><title>2025-09-08 5.7km</title><desc>1757333196000</desc></polyline><polyline fill="none" points="137.28571428571013,99.41806339730829 132.09442270058207,98.43716556916479 126.03923679058789,95.64388078160118 125.15949119374272,95.34492852619587 115.63287671233411,93.48579580005753 114.14285714286962,93.38302849412867 115.26829745597206,93.45776836519508 124.9296477495227,95.32624397563632 126.13434442266589,95.71861868263659 132.03101761249127,98.446507506138 137.2143835616298,99.474114363009" stroke="#4DD2FF" stroke-linecap="round" stroke-linejoin="round" stroke-width="0.5"><title>2025-09-04 5.8km</title><desc>1756983645000</desc></polyline><polyline fill="none" points="163.0,99.12533510033973 158.44514079668443,98.21551184402051 153.00017170328647,95.73188426367415 150.05168269228307,95.04333933482849 143.6262019230635,93.82197628448921 142.31189903843915,93.79738487857685 140.71943681317498,93.92853895065491 139.85714285713038,93.73180775679793 140.25351991757634,93.91214470413979 140.80288461534656,93.98591878529987 142.31189903843915,93.83837055064214 143.70964972529327,93.87935620039934 152.4299450549588,95.5761425096498 153.36177884615608,95.9122164183791 158.45904876376153,98.27288841031259 161.3171359889675,98.78927553880203" stroke="#4DD2FF" stroke-linecap="round" stroke-linejoin="round" stroke-width="0.5"><title>2025-09-02 6.2km</title><desc>1756809719000</desc></polyline><polyline fill="none" points="188.71428571428987,99.42653686993435 183.49132176232524,98.40678689222113 176.43391188248643,95.28136734137661 166.8771695594187,93.43061262027913 165.57142857142026,93.33618529964588 166.8291054739675,93.44949807209196 175.94526034712908,95.21526963883662 177.17890520693618,95.58352762559662 183.61949265687144,98.52953520968003 188.7062750333571,99.52095755749178" stroke="#4DD2FF" stroke-linecap="round" stroke-linejoin="round" stroke-width="0.5"><title>2025-08-29 5.7km</title><desc>1756465472000</desc></polyline><polyline fill="none" points="34.428571428579744,126.09758922240871 29.41441271934309,125.10957013034204 23.493438073346624,122.39694776729448 22.571381532558007,122.118494727074 13.274613105080789,120.31301833219186 11.285714285710128,120.31301833219186 13.373677030933322,120.39386140418355 22.82285149823292,122.21730075219966 29.30010818951996,125.11855217539414 34.306646596756764,126.11555309637333" stroke="#4DD2FF" stroke-linecap="round" stroke-linejoin="round" stroke-width="0.5"><title>2025-08-27 6.0km</title><desc>1756291993000</desc></polyline><polyline fill="none" points="59.097547089273576,126.1088989103373 55.20069269818487,125.39319533271919 53.50974996443256,124.95833445563039 48.175594249682035,122.4578402967818 47.07648147267173,122.1045035395 38.406556910369545,120.41027823583136 37.0,120.25625604249217 39.3135171039612,120.59148045108304 47.061109266011044,122.11356347511901 48.00649997626897,122.4125407963802 53.071642074297415,124.82243996534817 54.339849124633474,125.26636114505527 59.08986098589958,126.1723153860803 59.274327465944225,125.46567192454677 60.142857142869616,125.61062491883786 59.71243535610847,125.5109697624066 59.74317976940074,125.29353991581593" stroke="#4DD2FF" stroke-linecap="round" stroke-linejoin="round" stroke-width="0.5"><title>2025-08-26 6.0km</title><desc>1756205162000</desc></polyline><polyline fill="none" points="85.85714285715949,127.536069839618 81.44066578854108,126.66718796356872 76.63621123219491,124.45682579431013 75.64040234705317,124.14432068241149 67.69979643158149,122.61226323538722 65.04861693212297,122.72659703886166 64.34379116274067,122.56652966168622 63.664830559224356,122.15492615342373 63.315650820266455,121.73569786920416 62.74015088012675,120.30268040420196 63.160459825157886,119.83770566522435 64.33732487127418,118.89250158895447 62.940605915442575,120.00540182894474 62.71428571428987,120.31792542530457 63.08286432764726,121.37744625427877 63.38678002633969,121.88052246953157 64.45371811758378,122.63513001101092 65.1197461381962,122.77233050791983 66.56819542570156,122.64275226790778 67.76445934615913,122.66561903358524 75.76326188480016,124.20529739920312 76.6426775236614,124.50255813264812 81.36307029100135,126.66718796356872" stroke="#4DD2FF" stroke-linecap="round" stroke-linejoin="round" stroke-width="0.5"><title>2025-08-23 7.3km</title><desc>1755948655000</desc></polyline><polyline fill="none" points="111.57142857142026,125.2142163855242 111.22132328496082,126.42047196339263 105.305441649165,125.25654139614198 98.06095533637563,121.95513519766973 91.01396431343164,120.43137142205524 88.42857142857974,120.00809946518712 97.60312534635887,121.8599006618897 105.04510694893543,125.2142163855242 109.88374154939083,126.19826811373787" stroke="#4DD2FF" stroke-linecap="round" stroke-linejoin="round" stroke-width="0.5"><title>2025-08-19 5.0km</title><desc>1755607675000</desc></polyline><polyline fill="none" points="136.6189181842783,129.23914103639254 132.4168446394615,128.4087063340994 127.54168446394033,126.15461822535872 126.71762513107387,125.91734145144437 119.02430784760509,124.44175795064803 116.14953597637941,124.52332370289514 115.19966605832451,124.07841841241316 114.54545101540862,123.28499676121282 114.18060031841742,122.09855460857216 116.90439948742278,119.88133540197305 119.47093542499351,117.1894303921872 118.71607191392104,117.86427057374385 116.97988583851838,119.7478550177184 114.14285714286962,122.1059699362595 114.2812487865449,122.66953247581841 114.80965324430144,123.70024662931974 115.25628082166077,124.11549396436021 116.03001592049259,124.49366344066948 116.45777191006346,124.56039901251643 117.94233681514743,124.42692780336802 119.18157107912702,124.44175795064803 122.30167359145707,125.03496119236661 122.57216634956421,124.93856601734296 123.8114006135147,125.16843120939302 124.18254183977842,125.33156087484531 126.06341008815798,125.61332937627594 127.2774822350766,126.00632033857255 127.90653516096063,125.9914905321275 127.89395410241559,126.16203311123536 128.2965479750128,126.14720333868172 127.99460257057217,126.34740499526379 128.45381120644743,126.62916929229687 132.14006135208183,128.290071978372 132.84460062903236,128.49026733377104 133.06476915307576,128.38646240815433 134.26626024150755,128.47543806835893 134.26626024150755,128.75719355862384 136.30439172137994,129.1649954926179 136.66295188909862,129.20206827458605 136.7636003572261,128.69046210051602 137.10328893721453,128.63114519395458 137.28571428571013,128.01572923898493" stroke="#4DD2FF" stroke-linecap="round" stroke-linejoin="round" stroke-width="0.5"><title>2025-08-16 10.0km</title><desc>1755297330000</desc></polyline><polyline fill="none" points="153.78465869108913,122.40807251208753 153.36664320906857,124.53569843943842 163.0000000000582,126.42812871970818 147.02040816331282,123.2591281658315 139.8571428571595,120.00044270885701 146.80190007039346,123.24793011085421 152.8346235046629,124.45731300214538" stroke="#4DD2FF" stroke-linecap="round" stroke-linejoin="round" stroke-width="0.5"><title>2025-08-13 5.0km</title><desc>1755095249000</desc></polyline><polyline fill="none" points="188.5847064469708,127.52163394628587 184.340985442308,126.67395922479773 179.514157734724,124.4516282005643 178.61358182688127,124.16142169916566 170.68333066708874,122.63399926290003 167.87146056632628,122.72564554739802 167.24948008317733,122.59581327567139 166.60806270994362,122.21395225948072 166.27115661493735,121.87791284485138 165.96016637337743,121.35857603612385 165.59086546150502,120.31989087770489 166.39425691889483,119.5255918437324 167.3272276435746,118.8152975855919 166.6210206366959,119.31174056619784 165.57142857142026,120.32752832473489 166.25819868821418,121.88555012217694 166.79595264757518,122.38960858523933 167.24300111981574,122.61872487050277 167.87146056632628,122.75619428227947 170.07430811066297,122.62636206710886 170.8712206046912,122.67982242011203 178.9828827387537,124.30652509999345 184.21788513835054,126.67395922479773 188.71428571426077,127.61327384298056" stroke="#4DD2FF" stroke-linecap="round" stroke-linejoin="round" stroke-width="0.5"><title>2025-08-12 8.1km</title><desc>1754996616000</desc></polyline><polyline fill="none" points="34.42857142855064,152.68413782557036 29.762164266197942,151.75091104075545 24.49318801087793,149.32281586006866 23.624367458134657,149.03375173120003 18.6706889840425,147.99311174312606 14.936161930701928,147.34889887909958 13.618917866871925,147.31586217442964 11.9513429349754,147.4562680698582 11.285714285710128,147.34063970428542 11.895289996115025,147.4562680698582 13.5488516932528,147.3323805285545 14.950175165431574,147.35715805303334 23.547294667136157,149.04201072160504 24.54924094976741,149.39714645795175 29.5449591280194,151.70135885498166 34.029194238974014,152.62632765043963" stroke="#4DD2FF" stroke-linecap="round" stroke-linejoin="round" stroke-width="0.5"><title>2025-08-10 6.4km</title><desc>1754781124000</desc></polyline><polyline fill="none" points="57.84789129413548,159.6830436289565 53.99562719091773,158.91016996276085 49.62816667268635,156.89513357656324 48.796827002981445,156.619096204402 41.60164070688188,155.21128689936086 40.95764518811484,155.16988026979016 38.94369556574384,155.28719898332565 38.50460771203507,155.18368248266415 37.88988471686025,154.83172511522207 37.46250587256509,154.34864319205735 37.05854504715535,153.4031721971587 37.0,153.0443035996759 39.55841856094776,150.94626188410984 41.32647898522555,149.0414006683386 42.995012829313055,147.58510943411602 45.09678002240253,146.21160976763713 45.330960211053025,146.1011763399256 45.92226518737152,146.08047005078333 46.15059087131522,145.92862372361924 46.79458639008226,145.21770198580998 47.456145422998816,143.79583456811451 48.05330490405322,143.22983962543003 50.72881355934078,141.78721988014513 54.036608723923564,140.3169563710435 54.036608723923564,140.8208533437246 54.62205919553526,141.20049909904992 54.79769433703041,141.42138285470355 54.891366412484786,141.78031731430747 56.95800657727523,145.45927822876183 57.80690976110054,147.3228354166895 58.339669690292794,148.06134105770252 58.3455241949996,148.27529902720198 58.585558888386004,148.64109646222278 59.01879223738797,149.90411664916974 59.35249900617055,150.49765842114357 59.63351523253368,151.72613418836772 59.727187308017164,152.96838882816155 59.463734595803544,154.74891133283745 59.533988652401604,154.85242854389435 60.14285714284051,155.0387590975697 60.072603086271556,155.59084640962465" stroke="#4DD2FF" stroke-linecap="round" stroke-linejoin="round" stroke-width="0.5"><title>2025-08-08 10.0km</title><desc>1754654808000</desc></polyline><polyline fill="none" points="85.85714285715949,153.24005862693593 79.68266516091535,151.97857154429948 72.60259740258334,148.7115687426558 65.29384528513765,147.13733088164736 62.71428571426077,146.75994137307134 72.43794466403779,148.7115687426558 79.86561264819466,152.08639158127335 85.7016374929226,153.2077130050675" stroke="#4DD2FF" stroke-linecap="round" stroke-linejoin="round" stroke-width="0.5"><title>2025-08-07 5.0km</title><desc>1754573743000</desc></polyline><polyline fill="none" points="111.57142857142026,153.25159321424144 105.45341126224957,152.02825428539654 98.46139148029033,148.81960019956023 97.56918062263867,148.5513133518907 88.42857142857974,146.74840678575129 90.85939080588287,147.26352631389454 91.05968303920235,147.177673246224 91.59683039225638,147.40303738931107 97.9606608969043,148.7015540766006 105.53534899401711,152.114103126798 111.16173991229152,153.24086223701306" stroke="#4DD2FF" stroke-linecap="round" stroke-linejoin="round" stroke-width="0.5"><title>2025-08-04 5.0km</title><desc>1754309955000</desc></polyline><polyline fill="none" points="137.28571428573923,152.69315962117253 132.65995060445857,151.76650824039098 127.32523072927142,149.31744661046832 126.52502274798462,149.05267846191418 118.05966463021468,147.38130822529638 116.57155855977908,147.30684037883475 114.7605615495122,147.44750180530536 114.14285714286962,147.31511458758905 114.2762251397944,147.41440502252226 115.12556869885884,147.47232438295032 117.57532822049689,147.33993720849685 120.93760561553063,148.0018707735362 121.47809697131743,148.010144906606 122.41167294947081,148.29146489452978 126.43377096063341,149.06095248053316 127.54985051346011,149.45810431402788 132.57571818539873,151.75823451645556 136.8083972442837,152.61042335026286" stroke="#4DD2FF" stroke-linecap="round" stroke-linejoin="round" stroke-width="0.5"><title>2025-08-03 6.5km</title><desc>1754227262000</desc></polyline><polyline fill="none" points="160.31943106476683,152.71059327735566 154.1779905933072,151.4878844010018 146.4392247974174,148.04690609918907 139.8571428571595,146.70510867884877 147.00838669465156,148.19839821781352 154.41667138895718,151.58526884527237 163.0,153.2948913211585 160.51221170742065,152.73223400691495 160.51221170742065,152.56992842035106" stroke="#4DD2FF" stroke-linecap="round" stroke-linejoin="round" stroke-width="0.5"><title>2025-08-01 5.0km</title><desc>1754057984000</desc></polyline><polyline fill="none" points="186.500162707438,159.6603213799899 182.55222909207805,158.88015220612579 178.2059876342537,156.8779041939706 177.2746501789661,156.58101376023114 170.24568825252936,155.22082353004225 168.96290270093596,155.17939595841744 167.6859746176342,155.28986942255142 167.07679791733972,155.17939595841744 166.57305564594571,154.89630682775896 166.20403514479403,154.54416980323003 165.78229742922122,153.74322340355866 165.57142857142026,153.04583941643796 168.15457207942382,150.90530599093472 169.94695737064467,148.99257463845424 171.58704848683556,147.55626188065798 172.82297429224127,146.84499879940267 173.78945655713324,146.133727734501 174.47478034495725,146.06467186610826 174.7207940123917,145.91274869072367 175.47054995119106,145.04954191614524 176.05629677837715,143.75125678296172 176.63032866906724,143.233316460668 179.37162382039241,141.72781255005248 182.581516433449,140.33967862000281 182.63423364789924,140.7885809797299 183.10283110965975,141.11316993521177 183.589000976237,141.98333637666656 183.8877318581217,142.81896115430573 184.62577286039595,144.34515647488297 186.5470224536257,147.94296467179083 186.80475105761434,148.71636317480443 187.5662219329679,150.31146777903632 188.0816791409161,152.08606078841694 188.1168239505496,153.19084067925724 188.0465343312826,153.59131863425864 188.22811584771262,153.72250913827884 188.0582492678077,154.7651187531592 188.71428571428987,155.01368540120893 188.69085584118147,155.3520106615324" stroke="#4DD2FF" stroke-linecap="round" stroke-linejoin="round" stroke-width="0.5"><title>2025-07-28 10.0km</title><desc>1753704756000</desc></polyline><polyline fill="none" points="32.156194308714475,179.62339309346135 26.00960045994725,178.39394858543528 18.96895659674192,175.16658540300705 17.82345501583768,174.78236861684127 11.285714285739232,173.4760205880084 18.54055763152428,175.03485409847053 24.603334291488864,177.8889938183056 26.17723483761074,178.48176654760755 34.428571428579744,180.09540798341914 32.24932451854693,179.60143885875732 32.36108077032259,178.88792362737877" stroke="#4DD2FF" stroke-linecap="round" stroke-linejoin="round" stroke-width="0.5"><title>2025-07-22 5.0km</title><desc>1753194638000</desc></polyline><polyline fill="none" points="50.16370106762042,178.00730853663117 57.82994407726801,179.52813625075942 60.14285714284051,179.66565637082385 58.125063548533944,179.5524045257407 45.489832231833134,177.07699964019412 39.97864768683212,174.57724237036746 37.0,173.90577220060368 39.94433146924712,174.59342229957838 45.11235383831081,176.97992325796804 47.23995932893013,177.43294528967817" stroke="#4DD2FF" stroke-linecap="round" stroke-linejoin="round" stroke-width="0.5"><title>2025-07-19 6.4km</title><desc>1752877000000</desc></polyline><polyline fill="none" points="83.73772576951887,186.5090678070119 79.79914234834723,185.72492931657325 75.32481738561182,183.67779662703106 74.55947232618928,183.43491211275978 67.28869426174788,182.0331033946204 64.76894283533329,182.11638002176187 64.22142675434588,182.0122842208366 63.709234291512985,181.71387531553773 63.20881636804552,181.18645150646626 62.773158411175245,180.20792997979152 62.71428571428987,179.85399296027026 65.28702256784891,177.72338935386506 66.9884435076674,175.8772712756545 68.66631536869681,174.4128312849789 70.71508522005752,173.04552753377357 71.07420867099427,172.8720097303667 71.62172475198167,172.84424683795078 72.01028455136111,172.60132101306226 72.64610967764747,171.84477465048258 73.21717483739485,170.54682555107865 73.82356361523853,169.9846040935663 76.80252207728336,168.360380888058 79.84624050589628,167.06236076442292 79.85212777554989,167.5621363511309 80.32310935057467,167.87449410081172 80.63513464402058,168.45061659747444 81.27684704001877,169.92213473632728 83.25496965512866,173.6424251672579 83.77304938767338,174.88478718652914 83.914343860175,175.0166565927575 84.8033215830219,177.2930959373116 85.00348875240888,177.57764513507573 85.32140131553751,178.76440979084873 85.38027401245199,179.54863395157736 85.28607769744121,180.742301754246 84.99760148272617,181.85961007181322 85.85714285713038,182.0539225616085" stroke="#4DD2FF" stroke-linecap="round" stroke-linejoin="round" stroke-width="0.5"><title>2025-07-17 10.0km</title><desc>1752756134000</desc></polyline><polyline fill="none" points="111.57142857142026,180.0514389204036 105.43596545688342,178.8227833619676 97.65462550095981,175.363066024438 88.42857142857974,173.5199896510312 98.06609471136471,175.53551585873356 105.2622340125381,178.8120056141197 111.28797200426925,180.0406613063751" stroke="#4DD2FF" stroke-linecap="round" stroke-linejoin="round" stroke-width="0.5"><title>2025-07-14 5.0km</title><desc>1752500928000</desc></polyline><polyline fill="none" points="137.28571428568102,180.02763300745573 131.15168100071605,178.82261017479323 124.80956104095094,175.87930622136628 123.30771808326244,175.3354251539422 114.14285714284051,173.5437955639718 123.90483636764111,175.49539048736915 131.2602479615016,178.865266103443 136.6343125209096,179.9423221442048" stroke="#4DD2FF" stroke-linecap="round" stroke-linejoin="round" stroke-width="0.5"><title>2025-06-21 5.0km</title><desc>1750468889000</desc></polyline><polyline fill="none" points="155.69117020227714,178.2069861391501 161.70926915633027,179.40903841841282 162.9999999999709,179.47790523575895 161.88986524145002,179.40903841841282 152.05269025210873,177.4869948744381 150.9956719892216,177.07377842395726 147.83524049966945,175.57114811163774 147.27751729561714,175.38957762248174 140.82917472702684,174.13735173579335 139.85714285713038,174.09352333566494 140.71763008623384,174.1123069398309 143.23004032915924,174.57563389909774 147.75025410667877,175.55236498416343 151.11252827956923,177.1426480386399 151.9730155086727,177.47447320745778 152.90786583162844,177.66229792583908" stroke="#4DD2FF" stroke-linecap="round" stroke-linejoin="round" stroke-width="0.5"><title>2025-06-17 8.1km</title><desc>1750165544000</desc></polyline><polyline fill="none" points="188.71428571426077,180.0136299107471 182.8793503480265,178.8532998040464 175.27245608216617,175.45661722678778 165.57142857142026,173.55779866068042 175.29035465692868,175.49881277210807 182.75406032480532,178.84275128478475 187.67616837914102,179.84485548631346" stroke="#4DD2FF" stroke-linecap="round" stroke-linejoin="round" stroke-width="0.5"><title>2025-06-15 5.0km</title><desc>1749939796000</desc></polyline><polyline fill="none" points="27.2773842458555,204.89796699699582 32.73927583373734,205.98931206904308 34.42857142855064,206.09380138271808 33.098805216897745,206.012531934226 23.957893776794663,204.23618303955664 23.066457908949815,203.89948278505108 20.08679658282199,202.48299635151125 19.421913477039197,202.26239261760202 13.413340224360581,201.1013052848175 12.684431337984279,201.04905576014426 11.285714285710128,201.15936025218616 13.27051348311943,201.08969428377168 19.16581035478157,202.22756036563806 19.87994406101643,202.4249428258372 21.584014835971175,203.23188116386154" stroke="#4DD2FF" stroke-linecap="round" stroke-linejoin="round" stroke-width="0.5"><title>2025-06-11 8.1km</title><desc>1749642919000</desc></polyline><polyline fill="none" points="60.14285714289872,206.79223891332367 54.13056001777295,205.62875940347294 46.57480751123512,202.2545900044206 37.0,200.3506182295314 46.68249044480035,202.29690006434976 54.19337506231386,205.6816451380946 59.14679000724573,206.67589158952615" stroke="#4DD2FF" stroke-linecap="round" stroke-linejoin="round" stroke-width="0.5"><title>2025-06-08 5.0km</title><desc>1749387304000</desc></polyline><polyline fill="none" points="71.68011987989303,209.79115487463423 74.17242757219356,208.30302789091365 79.41598401591182,207.3490970111743 82.07012987008784,205.36491245785146 84.95084915077314,205.44122745614732 85.72767232754268,204.79254943976412 80.61358641344123,196.47410131286597 77.15024975012057,197.16095313805272 73.8487512486754,199.1070259931148 72.00379620376043,199.1070259931148 69.05834165832493,200.4807179677009 64.23556443536654,201.47282548676594 64.39740259735845,204.60176155919908 62.714285714318976,206.7004225286655 64.13846153835766,208.26487070554867 64.75344655348454,210.21088185510598 65.65974025975447,210.7832360174798 71.29170829162467,209.6003697173437 74.26953046943527,208.26487070554867 78.60679320665076,207.69251242725295 82.23196803184692,205.36491245785146 84.78901098889764,205.479384949198 85.82477522466797,204.60176155919908 80.61358641344123,196.3596258776961 76.76183816161938,197.19911153326393 73.91348651330918,199.06886780582136 71.32407592388336,199.33597502979683 68.15204795193858,200.74782411474735 64.33266733249184,201.39650962353335 64.42977022961713,204.79254943976412 62.714285714318976,206.7004225286655 64.23556443536654,208.3411850721168 65.0123876122525,210.32535276227281 66.11288711288944,210.85954983517877 74.9816183813382,208.15039912474458 78.70389610377606,207.73066967487102 81.90829170821235,205.55569992266828 84.88611388590652,205.5175424380286 85.85714285715949,204.56360397054232 80.25754245743155,196.24515040504048 76.43816183798481,197.42806181733613 73.78401598404162,199.06886780582136 64.49450549425092,201.2057198927505 64.46213786210865,204.60176155919908 62.746653346461244,206.62410780478967 64.20319680310786,208.26487070554867 64.75344655348454,210.0964109103079 66.4041958040325,210.89770673780004 79.4807192805456,206.92936660093255 81.09910089895129,204.7543918720039 80.61358641344123,202.57940363459056 78.47732267726678,199.90834696652018 76.6647352646105,198.99255141877802 75.111088910955,198.91623501494178 73.33086913079023,199.64124017916038 70.45014985010494,203.11361252333154 65.85394605388865,203.87676666505286 63.10269730258733,206.0517468447215 63.005594405462034,206.96752393167117 64.55924075911753,208.8372280485346" stroke="#4DD2FF" stroke-linecap="round" stroke-linejoin="round" stroke-width="0.5"><title>2025-06-04 6.4km</title><desc>1749041988000</desc></polyline><polyline fill="none" points="111.57142857142026,206.81339366111206 105.63989364652662,205.62876010735636 98.88278956408612,202.50845079131977 97.85980169504182,202.169970533163 88.42857142857974,200.32946348175028 98.1290090290131,202.2757457405387 105.50528997957008,205.60760580544593 110.43178419099422,206.62300710011914" stroke="#4DD2FF" stroke-linecap="round" stroke-linejoin="round" stroke-width="0.5"><title>2025-05-28 5.0km</title><desc>1748436903000</desc></polyline><polyline fill="none" points="137.28571428573923,206.80326013315062 130.85917721519945,205.48682218236354 123.4164783001761,202.1201144174629 114.14285714284051,200.32880660697992 123.1143761301646,202.0553689161825 124.23123869800474,202.41146864961047 131.39929927670164,205.69184235730063 137.17585895117372,206.81405053588242" stroke="#4DD2FF" stroke-linecap="round" stroke-linejoin="round" stroke-width="0.5"><title>2025-05-27 5.0km</title><desc>1748351986000</desc></polyline><polyline fill="none" points="156.9955129045993,208.34548758702294 157.02644035720732,206.9599916939551 157.7532354943105,205.31469562753045 158.23261101031676,202.2621818169937 158.20168355765054,202.5436223406723 157.50581587315537,202.63021929899696 154.11925980861997,205.03326126414322 152.8357705238741,205.3363443988419 152.32546755525982,204.49203957596183 152.91308915545233,203.5394837852 153.9955499980715,202.69516697887593 153.82544900849462,201.24466085741733 154.33575197710888,200.31373026238725 153.65534801897593,199.92403635276423 151.1656880811206,199.96733573534584 150.51621157553745,199.0147458987849 150.73270374414278,197.88894866859482 151.21207926009083,198.0404988788723 151.1656880811206,197.30439615800424 151.87701949191978,197.73739827688405 153.17597250302788,197.69409813163657 154.21204216656042,198.38689867823996 155.61924126191298,198.43019858658954 156.19139913580148,198.1487489180363 157.59859823109582,196.17858371752664 157.66045313637005,192.88768994472048 157.15015016775578,192.30311433952738 156.34603639901616,191.99999999999272 155.35635791439563,192.2814633393573 154.47492551407777,193.25575468159514 153.7945215558284,193.49391364694748 152.40278618689626,193.2341038443119 150.93373218626948,192.43302026288438 149.58838799630757,192.88768994472048 148.9079840380582,193.92692879967217 148.93891149072442,195.03111073489708 149.52653309091693,195.85382826830028 150.85641355469124,196.48168805179012 151.1656880811206,197.23944571246102 150.56260275450768,198.646697905795 150.99558709160192,199.9456860459468 151.10383317584638,201.74259766799514 150.53167530184146,203.6910272313835 150.9801233652397,204.23225234379788 152.2945401026518,204.55698630068218 152.80484307120787,205.3363443988419 151.62959987076465,207.24142177434987 150.17600959644187,207.82592840392317 147.748204563919,209.60108014357684 145.98533976322506,210.3587592827098 145.58328287879704,211.39785472874064 144.5936043941765,212.48023675000877 145.44410934194457,214.90473889980058 146.21729565801797,215.07791584826919 147.23790159530472,214.45014828319836 148.42860852211015,214.94803315919125 149.294577196124,214.83979748310958 149.97498115431517,214.12543970063416 150.46982039662544,212.32870382404508 151.64506359706866,211.67927494443575 154.33575197710888,212.52353183841478 155.35635791439563,212.0256374281089 156.94912172557088,211.93904689607734 157.04190408351133,207.13317950984492 158.26353846298298,202.8467114356681 158.07797374710208,202.5436223406723 157.61406195739983,202.5869208272561 154.13472353492398,205.05491008352692 152.88216170284431,205.31469562753045 151.50589006015798,207.30636708871316 150.0368360595894,207.8908734184297 147.73274083761498,209.60108014357684 146.0781221211655,210.2505196833008 145.58328287879704,211.46279791100096 144.5936043941765,212.56682691193419 145.36679071030812,214.7965031867716 145.8770936789224,215.14285714285506 147.14511923730606,214.45014828319836 148.59870951162884,214.96968028326228 149.57292426994536,214.58003148309945" stroke="#4DD2FF" stroke-linecap="round" stroke-linejoin="round" stroke-width="0.5"><title>2025-05-23 6.4km</title><desc>1747958832000</desc></polyline><polyline fill="none" points="179.2454972929554,204.6522085291217 179.87181563547347,205.24721661600051 181.43761149188504,205.49774575843185 182.2205094200326,206.49985890068638 182.01919280993752,210.44562609303102 181.63892810198013,211.1658760079008 180.27444885578007,211.57297253288561 178.93233812169638,211.10324569305521 177.67970143642742,211.38508194148017 175.55469277419616,210.13247307261918 174.27968757681083,210.63351764829713 173.34021006303374,210.47694136567588 173.60863220971078,209.56879628634488 172.93757684284355,207.8151240777952 173.13889345282223,206.56249078997644 172.42310106137302,205.3724812300061 172.73626023263205,203.49350302219682 177.25469970400445,203.30560414101637 178.79812704829965,203.86930020610453 179.6033934885636,205.15326809915132 181.3257689307211,205.46642963433987 182.08629834663589,206.18669913275517 182.01919280993752,210.53957189474022 181.6836651264457,211.1658760079008 180.3639229045948,211.54165744774218 179.08891770720948,211.13456085315556 177.63496441196185,211.3537668242061 175.50995574973058,210.16378839872777 172.8033657693304,210.7274633535999 171.34941247408278,211.91743811639026 171.81915123097133,212.26190305199998 172.17704742669594,214.14079129516904 174.36916162574198,215.14285714285506 175.3086391396355,214.4852520486893 175.93495748226997,213.20134958311974 175.8454834332224,212.19927311188076 174.682320797001,210.35168024306768 175.8454834332224,210.16378839872777 177.65733292431105,211.3537668242061 179.08891770720948,210.94666981196497 178.90996960934717,210.47694136567588 177.45601631409954,210.50825663289288 176.67311838595197,209.50616542520584 177.41127928963397,206.56249078997644 175.4875872374978,203.61876883586228 175.62179831089452,201.2700205703586 176.13627409224864,200.267878808183 177.16522565495688,199.6728545420774 179.11128621955868,200.2991958213388 180.69945058820304,199.89207423350308 178.90996960934717,201.64582231733948 177.05338309390936,201.55187195292092 175.93495748226997,200.7063165040745 174.21258204011247,200.33051282902306 174.25731906457804,196.50979835441103 175.01784848049283,194.91259080640157 175.0625855049584,192.53241253233864 175.53232426196337,192.06263684880105 176.9639090449782,192.0 181.07971529616043,192.59504919910978 181.92971876100637,193.34668752884318 182.2205094200326,194.91259080640157 182.93630181159824,195.69553742361313 182.46656305459328,196.32189230713993 182.75735371373594,196.7290218325361 181.34813744295388,197.5745956467872 181.19155785720795,199.54758602910442 179.11128621955868,201.5831887463719 177.47838482633233,201.64582231733948 175.8678519454552,200.61236565758009 174.30205608904362,200.4244638200471 174.23495055234525,196.7290218325361 175.19679657835513,193.53459662912064 176.203379628947,193.15877823562187 176.2257481411798,192.2192288772785 180.81129314925056,192.50109419100045" stroke="#4DD2FF" stroke-linecap="round" stroke-linejoin="round" stroke-width="0.5"><title>2025-05-20 5.0km</title><desc>1747754393000</desc></polyline><polyline fill="none" points="31.362223550560884,231.97439130741986 33.52480573824141,232.2407487896562 34.428571428521536,231.28947113483446 29.070531978504732,223.22253245912725 25.326359832659364,224.1357801540289 22.42139868508093,225.8481131446024 20.613867304171436,225.92421663823188 16.224148236680776,227.59848930101725 12.705917513463646,228.09315923336544 12.99641362822149,231.32752229072503 11.285714285681024,233.53448224172462 12.705917513463646,234.79016012648935 13.222355050849728,236.5404914628889 13.997011356754228,237.30150235118344 15.44949193065986,237.52980529429624 22.711894799838774,235.17066768507357 27.03705917519983,234.56185539241415 30.781231321045198,232.0885445390595 33.52480573824141,232.1646466727252 34.36401673650835,231.4416757337458 29.199641362880357,223.2605844940408 27.77943813498132,223.29863652482163 22.55050806934014,225.77200963452924 20.161984459031373,226.03837184756412 17.16019127308391,227.4082314480911 12.447698744828813,228.28341671303497 13.12552301271353,230.79480573019828 11.285714285681024,233.4964313262899 12.641362821334042,234.6379569869605 13.06096832046751,236.23608664330095 14.029288702993654,237.26345184620004 15.44949193065986,237.45370432993514 23.325164375361055,234.86626167138456 27.55349671258591,234.33355050900718 30.619844590430148,232.1646466727252 33.557083084248006,232.1646466727252 34.36401673650835,231.36557344259927 29.199641362880357,223.29863652482163 28.069934249855578,223.18448041996453 25.164973102277145,224.1357801540289 22.647340107592754,225.77200963452924 20.581589958048426,225.8481131446024 16.708308428060263,227.48433460170054 12.867304243845865,228.16926223758492 13.06096832046751,231.17531764213345 11.350268977927044,233.4203294828476 12.641362821334042,234.71405856503407 13.545128511614166,236.95904765676823 15.578601315035485,237.4156538414245 22.130902570323087,235.20871841805638" stroke="#4DD2FF" stroke-linecap="round" stroke-linejoin="round" stroke-width="0.5"><title>2025-05-14 5.0km</title><desc>1747227249000</desc></polyline><polyline fill="none" points="45.19549514277605,241.677620642673 45.66690927022137,241.2474184051389 46.351220100419596,238.7020321549935 48.40415259072324,239.024688929072 49.51425682625268,234.57913991018722 49.30136012355797,231.72890618699603 47.15718618920073,226.36889898781374 47.248427633196115,225.16780319344252 48.73870455217548,224.3610921407817 50.958913023234345,223.98462562919303 52.38836231280584,222.99863782600733 53.559294177626725,223.10620041897346 54.00029449042631,222.6400953416305 51.64322385331616,218.87535208002373 51.050154467171524,218.78571428571013 49.4230153823155,219.37732282582147 48.40415259072324,220.07649381220108 47.52215196524048,220.09442123434565 45.72773689957103,220.8115165172203 43.88770111184567,221.08042644250963 44.0093563706032,222.47875096871576 43.14256265247241,223.57230417577375 43.294631725759245,223.9666986309312 43.81166657520225,224.3073112632701 44.32870142470347,225.50841333926655 44.98259844008135,225.58012064853392 50.82205085718306,223.82328257482732 51.475947872619145,223.24961710009666 51.719258390017785,222.47875096871576 51.430327150563244,221.47482687112642 50.411464359087404,220.38125972254784 49.16449795750668,219.9868566723162 48.069600629329216,220.29162274871487 46.60973752505379,221.94093524971686 44.52639122004621,222.2994792577374 43.32504554046318,223.37510659359396 43.35545935516711,223.9666986309312 44.98259844008135,225.22158378970926 46.837841135042254,225.02438818430528 50.77643013524357,223.82328257482732 51.6280169460224,223.03449203148193 51.67363766802009,222.17398894381768 51.050154467171524,221.04457181120233 49.57508445560234,220.04063896210573 47.52215196524048,220.11234865451115 45.59087473351974,220.88322587360744 43.857287297199946,221.22384488956595 43.99414946325123,222.5504595984239 43.157769559766166,223.64401232887758 43.82687348255422,224.3073112632701 44.16142544394825,225.27536436830997 44.936977718083654,225.59804747099406 45.84939215827035,225.13194945291616 47.53735887253424,224.84511924705293 47.14197928184876,225.58012064853392 47.18760000378825,226.15377799759153 49.10367032815702,230.95807978061202 49.55987754825037,233.18091821493 49.392601567611564,235.6726127009024 48.632256200769916,238.52277811830572 46.67056515440345,238.23597125340893 45.89501288026804,240.85306536607095 45.301943494181614,241.10401740930683 45.058632976782974,241.9285714285652 44.739287922740914,241.8030960834585" stroke="#4DD2FF" stroke-linecap="round" stroke-linejoin="round" stroke-width="0.5"><title>2025-05-06 7.1km</title><desc>1746539597000</desc></polyline><polyline fill="none" points="71.55729452666128,241.9285714285652 71.40048879332608,241.7437368312967 72.13747573981527,239.28541754298203 74.00346396584064,239.72902666444134 74.33275600580964,239.15603133078548 75.30495155212702,235.0710730477731 75.27359040547162,233.03779923715047 72.49812892638147,225.3481070483249 71.74546140653547,225.181739663778 70.67918242025189,225.6993265468045 70.0205983404303,225.56992997406633 68.78183304751292,223.64745498234697 69.62858400726691,222.723180404937 69.42473655397771,221.24433060690353 70.5223766869749,221.1888734886743 74.19163084583124,220.1536706211773 75.38335441873642,219.41423613397637 77.34342608478619,218.82268622360425 79.86799839074956,222.6862093170348 79.55438692413736,223.18531832308508 78.17449647124158,223.05591983287013 76.7005225783214,224.12807577263447 74.45820059243124,224.4608124452061 73.14103243278805,225.08931326845777 71.46321108669508,225.3111365325749 70.44397382030729,225.73629697797878 69.7853897405439,225.4590185474517 69.40905598067911,224.4238417360175 68.81319419411011,223.98019259753346 68.81319419411011,223.62896954015014 69.62858400726691,222.53832488514308 69.40905598067911,221.26281630893936 71.13391904672608,221.04098775147577 74.14458912581904,220.0797273174976 76.9984534715768,218.78571428571013 77.43750952475239,218.9336019889597 79.85231781733455,222.6862093170348 79.61710921744816,223.14834733596945 78.28426048450638,223.05591983287013 76.3555499650538,224.25747344504634 74.78749263222562,224.3683856571297 70.5223766869749,225.6993265468045 69.8637926071533,225.5144742698467 69.4404171272763,224.4238417360175 68.81319419411011,223.94322178367293 69.6129034338519,222.57529600517591 69.42473655397771,221.24433060690353 71.07119675347349,221.04098775147577 74.01914453925565,220.1351847983169 75.06974295218242,219.48817972773395 77.0298146182322,218.78571428571013 77.39046780479839,218.9336019889597 79.83663724403596,222.6677237701224 79.60142864414956,223.1298618393048 78.17449647124158,223.03743432622286 76.65348085842561,224.14656116046535 74.44252001901623,224.4608124452061 72.85878211288946,225.14476911169186 71.55729452666128,225.25568074370676 70.55373783357209,225.71781176341756 69.8167508871411,225.44053330266615 69.42473655397771,224.4238417360175 68.7975136207533,223.96170719161455 68.78183304751292,223.64745498234697 69.40905598067911,223.03743432622286 68.67206903413171,223.721396731009 69.36201426066691,224.53475383938348 69.6756257272209,225.38507755610044 70.3498903803411,225.79175260980264 74.25435313908383,224.5717245243868 76.5907585650566,224.29444419048377 78.09609360457398,223.14834733596945 79.49166463076835,223.14834733596945 79.89935953734675,222.723180404937 77.2807037915336,218.78571428571013 75.28927097877022,219.37726432505588 74.05050568585284,220.17215644204407 72.93718497955706,220.24609970550227 71.22800248669228,220.94855910028855 69.2052085273317,221.35524478893785 69.55018114065751,222.53832488514308 68.75047190085752,223.51805684462306 68.71911075414391,223.9986780015024 69.3463336873101,224.4792977967445 69.62858400726691,225.3481070483249 70.2244457937777,225.71781176341756 72.49812892638147,225.32962179146125 74.94429836556083,231.68843134895724 75.22654868545942,233.13022130260651 75.28927097877022,234.99713624521974 74.17595027247444,239.56267337978352 72.04339229984907,239.30390127950523 71.57297509990167,241.54041854180105 71.32208592671668,241.7437368312967" stroke="#4DD2FF" stroke-linecap="round" stroke-linejoin="round" stroke-width="0.5"><title>2025-04-29 10.1km</title><desc>1745929124000</desc></polyline><polyline fill="none" points="110.6824711758527,228.14967748911295 110.29292804736178,227.8200157467436 110.51267032499891,226.60732282868412 109.96331463102251,228.4204703111027 109.5438066466013,228.47933822613413 108.29527097853133,233.37703647252783 108.15543498372426,233.41235560599307 101.7928972193622,232.15263271285949 93.68240951973712,228.5028853831609 88.42857142857974,227.38438975946337 93.6424563783221,228.51465895975707 100.04494728404097,231.5168791373726 101.86281521676574,232.199725421553 111.57142857147846,234.10696288560575 108.24532955180621,233.3888095182847 108.45508354401682,232.52937380820367 109.04439237929182,232.38809605130518 110.38282261544373,226.76038190833788 110.64251803443767,226.6661917311285 110.29292804736178,227.58454245809844" stroke="#4DD2FF" stroke-linecap="round" stroke-linejoin="round" stroke-width="0.5"><title>2025-04-22 6.3km</title><desc>1745328842000</desc></polyline><polyline fill="none" points="122.3567790875677,241.2484988549695 122.74140991840977,241.07848029489105 123.54272414912703,238.45261692506028 125.59408857970266,238.75487660386716 126.66784964886028,234.8443513297534 126.49156051810132,230.89595374102646 124.26390695670852,225.43605968586053 124.21582810283871,224.49142389277404 125.4177994489437,223.50899720886082 127.9499524179846,223.09335347465822 129.77694886404788,221.90309545119817 130.97892021015286,222.01645371021004 131.4757350331638,221.58191331490525 130.40197396394797,219.90042065523448 128.95960834872676,220.63725652456924 127.80571585643338,219.29583503909816 126.57169194117887,218.78571428571013 124.26390695670852,218.97464807309734 122.69333106453996,219.67370129621122 120.57786149543244,220.03267347773362 120.89838718768442,221.35519615460362 119.96886268007802,222.69660170804127 120.65799291850999,223.2822825682524 121.01057118008612,224.26471053670684 121.73175398766762,224.6425659655215 124.36006466438994,224.01910406642128 125.8825617027469,223.35785414805287 127.88584727951093,223.09335347465822 129.53655459475704,221.97866763216734 130.97892021015286,221.99756067228736 131.45970874850173,221.54412714210048 130.41800024861004,219.90042065523448 128.97563463333063,220.59947014592763 127.80571585643338,219.27694170463656 126.66784964886028,218.80460767372278 124.18377553368919,218.97464807309734 122.7253836338059,219.65480800293153 120.97851861087838,219.9193139217532 120.73812434164574,220.1082464739011 120.86633461853489,221.41187547246227 119.96886268007802,222.60213686790667 120.62594034924405,223.2822825682524 120.9624923262163,224.28360332766897 121.65162256464828,224.6803514630592 125.91461427207105,223.3389612562314 127.82174214109546,223.13113930985855 129.5525808794191,221.97866763216734 131.04302534851013,221.97866763216734 131.44368246395607,221.50634096110298 130.3859476793441,219.86263411599793 128.89550321019487,220.5805769534636 127.78968957188772,219.27694170463656 126.8120862103533,218.86128782534797 124.66456407209625,218.8801812051097 122.56512078765081,219.67370129621122 120.94646604155423,219.9193139217532 120.72209805698367,220.08935322795878 120.83428204932716,221.58191331490525 119.95283639547415,222.65881577816617 120.67401920311386,223.32006836232904 120.99454489542404,224.28360332766897 121.52341228770092,224.62367321366037 127.96597870264668,222.84774534520693 128.75126664864365,222.20538397724158 129.02371348708402,221.24183746331255 128.79934550257167,220.52389736381883 128.01405755645828,219.56034150558116 126.78003364114556,218.82350105968362 124.64853778743418,218.89907458283415 122.50101564911893,219.73038116378302 120.7060717723798,220.03267347773362 120.89838718768442,221.3174099323951 119.96886268007802,222.62102984002559 120.7541506261914,223.58456868988287 120.4496512185433,224.17024655079877 121.25096544926055,225.8139125621965 121.87599054921884,228.57221361622214 122.14843738765921,231.67052686303214 122.08433224912733,233.71084925955802 120.51375635701697,241.39962632398237 121.65162256464828,241.9285714285652" stroke="#4DD2FF" stroke-linecap="round" stroke-linejoin="round" stroke-width="0.5"><title>2025-04-15 8.8km</title><desc>1744723077000</desc></polyline><polyline fill="none" points="162.8479111251072,227.88475764189207 162.17618526052684,227.839939036945 162.67047410423402,226.3907962510857 162.08746675017755,228.81100553243596 162.22688155225478,229.18449081554718 161.45376310439315,231.75404199738114 160.7059928024537,231.76898110768525 160.71866687526926,232.39642227200966 159.85682991717476,235.18999452599382 151.45391957444372,233.51684578423738 141.8216241589398,229.05003623077937 139.8571428571595,228.48233764206816 141.96103896107525,229.15461203032464 151.44124550145352,233.53178470260173 159.88217806298053,235.17505578824785 160.16100766707677,234.0546458196477 160.79471131280297,233.97995149635244 161.33969644812169,232.39642227200966 163.0,225.5242911882815 162.55640744802076,227.98933432990452" stroke="#4DD2FF" stroke-linecap="round" stroke-linejoin="round" stroke-width="0.5"><title>2025-04-11 5.1km</title><desc>1744377642000</desc></polyline><polyline fill="none" points="172.23081287858076,241.9285714285652 173.01354513526894,241.06241777959804 173.22120879520662,241.70261872108676 174.0039410520112,241.06241777959804 174.88251807482447,238.40744151313265 176.94318054668838,238.87818495981628 177.3105854835594,238.74637692396936 178.26903314486844,234.62261761561967 178.3329296556767,232.36298175281263 177.93357646343065,230.34811486255785 175.63330207625404,225.33909166097874 175.56940556550398,224.49168616138923 176.68759450374637,223.55011962217395 179.2594290615525,223.13582871986728 181.04853136272868,221.91178161608696 182.2146426840336,222.02477094266214 182.80568540858803,221.5351499938115 181.54372932109982,219.55782051116694 180.21787672291975,220.32992328706314 178.6524122094852,219.01169695267163 177.24668897280935,218.9363694298372 176.495904971438,219.29417487076716 174.97836284094956,220.951369357339 172.80588147533126,221.2715073698928 171.54392538790125,222.36373847929644 171.480028877093,222.7215368245379 172.13496811239747,223.26764866012672 172.4065282830852,224.15272279814235 173.12536402908154,224.56701126287226 179.43514446623158,222.79686269751983 180.29774736141553,221.9682762885932 180.3935921274242,221.0455276578723 179.45111859386088,219.57665232718864 177.93357646343065,218.78571428571013 175.88888811919605,218.89870565611636 173.8921221581404,219.67081137672358 172.1669163677725,219.97211999053252 172.31068351696013,221.29033899925707 171.480028877093,222.30724393604032 171.480028877093,222.66504239819187 172.13496811239747,223.21115441234724 172.82185560301878,224.5481799905392 173.52471722126938,224.56701126287226 174.46719075500732,224.07739751607005 175.32979365019128,224.15272279814235 177.85370582493488,230.83771084650652 178.15721425105585,232.5889466683875 178.06136948493076,234.3966553585924 177.16681833431358,238.21914377558278 175.10615586250788,237.8990371509135 174.29147535038646,240.38455537507252" stroke="#4DD2FF" stroke-linecap="round" stroke-linejoin="round" stroke-width="0.5"><title>2025-04-08 5.6km</title><desc>1744119870000</desc></polyline><polyline fill="none" points="19.590066606353503,266.76239472150337 20.216629175003618,265.84798722057894 20.694010179664474,263.8081364398822 22.678124980360735,264.17742168151017 23.737314084544778,260.09765212857747 23.782068553729914,258.44461270024476 23.498623582185246,256.826727932581 21.46975431230385,251.79711302826763 21.46975431230385,250.82986142531445 22.58861604204867,250.00329637160758 24.93076659628423,249.6515652776725 26.482254861446563,248.5963673969236 27.82488893705886,248.5963673969236 28.182924690598156,248.13911283960624 27.004390335350763,246.27490777606727 25.557329164934345,246.8376889321662 24.18485877639614,245.69453765358776 21.976971629774198,245.64177662989823 19.93318420345895,246.39801632167655 18.232514374307357,246.71458072197856 18.32202331267763,248.13911283960624 17.53136102372082,249.08879393310053 18.1131691231858,249.75708468635275 18.456286720291246,250.7419291739934 19.381212416803464,251.0584850545565 20.201711018569767,250.6188239416515 21.589099563483614,250.46054564784572 22.94665179552976,249.86260402602784 25.02027553471271,249.56363238442282 26.58668195619248,248.52602062630467 26.347991453832947,249.00086073328566 26.735863520181738,248.42050041281618 27.884561562677845,248.50843392887327 28.13817022141302,248.06876586964063 27.2132445249008,246.57388550962787 25.900446762039792,247.2597735113959 24.856175814231392,246.04627737091505 23.75223224097863,245.57142857142026 21.872544535028283,245.62418961816002 20.037611298263073,246.36284246109426 18.277268843492493,246.64423313111183 18.262350687058643,248.20945977891097 17.576115492847748,248.91292748553678 17.53136102372082,249.26466018910287 18.12808727956144,249.7922578072321 18.292186999926344,250.53089157537033 19.097767445317004,251.04089863305853 20.15695654944284,250.60123747220496 21.529426937864628,250.46054564784572 22.78255207516486,249.89777712388604 23.97600458690431,249.7394981230318 24.11026799445972,250.7419291739934 27.168490055715665,256.9498284305155 24.05059536884073,258.0401430284837 23.871577492100187,260.8010680279258 23.110751515836455,263.77296637282416 22.72287944960408,264.0719116987166 21.648772189044394,268.7142857142899 17.53136102372082,267.65921243224875 18.157923592370935,264.96874435480277 18.366777781862766,264.86323488912603 18.008742028323468,266.58654752734583" stroke="#4DD2FF" stroke-linecap="round" stroke-linejoin="round" stroke-width="0.5"><title>2025-04-02 6.9km</title><desc>1743601029000</desc></polyline><polyline fill="none" points="44.93312607210828,268.7142857142899 45.486603857250884,268.2153838789818 46.251705501403194,265.47139852977125 48.8074705680483,266.0854409212625 49.86558986315504,261.2306098284753 49.54001469537616,257.6421704152017 47.04936466232175,251.9619243594061 47.03308590390952,251.44378469017101 47.521448655519634,250.75292942674423 48.384222849912476,250.33073876512935 51.1516117756255,249.83178486023098 52.43763368809596,248.7954914643924 52.94227519806009,248.7187287480483 52.958553956472315,248.02786279549764 52.30740362103097,246.70369547807786 51.786483352654614,246.74207727961766 51.28184184269048,246.16634937911294 50.858594124612864,246.26230415987084 49.9144261382753,245.68657469103346 48.905143118288834,245.60981061962957 47.86330258165253,245.97443966074206 46.4633293604129,247.70161959809775 44.34709077025764,248.00867203589587 42.76805120683275,249.27525768337364 43.712219193112105,251.04078611581645 44.78661724663107,251.48216545869946 48.51445291709388,250.23478620086098 50.923709158203565,249.88935653683438 52.76320885581663,248.62277530554275 53.984115734812804,248.77630078840593 54.40736345289042,248.31572393837268 53.0887840235373,246.3390679468721 51.63997452711919,247.12589483434567 50.760921574314125,246.10877648556198 49.62140848732088,245.5714285714348 47.48889113875339,245.6673836763075 45.55171889078338,246.4734044936049 43.48431657574838,246.81884085743513 43.614546642871574,248.33491466447595 42.73549368995009,249.46716380512225 43.451759058982134,250.138833584424 43.777334226702806,251.09835739721893 44.737780971452594,251.50135583979136 45.730785233085044,251.0024052511144 46.6749532193644,250.9448339384253 47.78190878970781,254.07284799806075 48.64468298415886,254.82126030426298 51.49346570164198,254.22636873037845 53.28412912419299,257.9875848753145 49.833032346272375,259.15815106392256 49.653966004087124,262.0941271175543 49.295833319600206,262.53547876402445 48.384222849912476,265.7784199930611 48.188877749373205,265.9319305240206 46.251705501403194,265.58653164120915 45.649391441082116,267.88917806893005" stroke="#4DD2FF" stroke-linecap="round" stroke-linejoin="round" stroke-width="0.5"><title>2025-03-25 6.1km</title><desc>1742909450000</desc></polyline></svg>