<?xml version="1.0" encoding="utf-8" ?>
<svg baseProfile="full" height="300mm" version="1.1" viewBox="0,0,200,300" width="200mm" xmlns="http://www.w3.org/2000/svg" xmlns:ev="http://www.w3.org/2001/xml-events" xmlns:xlink="http://www.w3.org/1999/xlink"><defs /><rect fill="#222222" height="300" width="200" x="0" y="0" /><text fill="#FFFFFF" style="font-size:12px; font-family:Arial; font-weight:bold;" x="10" y="20">Over 5km Runs</text><text fill="#FFFFFF" style="font-size:4px; font-family:Arial" x="10" y="280">Runner</text><text fill="#FFFFFF" style="font-size:9px; font-family:Arial" x="10" y="290">Elliont</text><text fill="#FFFFFF" style="font-size:4px; font-family:Arial" x="65" y="280">SPECIAL TRACKS</text><rect fill="yellow" height="2.6" width="2.6" x="65" y="283" /><text fill="#FFFFFF" style="font-size:3px; font-family:Arial" x="70" y="285.5">Over 20.0 km</text><rect fill="red" height="2.6" width="2.6" x="65" y="287" /><text fill="#FFFFFF" style="font-size:3px; font-family:Arial" x="70" y="289.5">Over 40.0 km</text><text fill="#FFFFFF" style="font-size:4px; font-family:Arial" x="120" y="280">STATISTICS</text><text fill="#FFFFFF" style="font-size:3px; font-family:Arial" x="120" y="285">Number: 25</text><text fill="#FFFFFF" style="font-size:3px; font-family:Arial" x="120" y="290">Weekly: 1.6</text><text fill="#FFFFFF" style="font-size:3px; font-family:Arial" x="141" y="285">Total: 161.6 km</text><text fill="#FFFFFF" style="font-size:3px; font-family:Arial" x="141" y="290">Avg: 6.5 km</text><text fill="#FFFFFF" style="font-size:3px; font-family:Arial" x="167" y="285">Min: 5.0 km</text><text fill="#FFFFFF" style="font-size:3px; font-family:Arial" x="167" y="290">Max: 10.1 km</text><polyline fill="none" points="40.44720349065028,51.79483058828919 31.84918683063006,50.083038161392324 21.01491471636109,45.2656685388647 11.799999999988358,43.38715215037519 21.81174137245398,45.47775750492292 32.18333994445857,50.2193763833784 44.20000000001164,52.61284784961026 40.71709639031906,51.825127609670744 40.71709639031906,51.5978997884813" stroke="#4DD2FF" stroke-linecap="round" stroke-linejoin="round" stroke-width="0.5"><title>2025-08-01 5.0km</title><desc>1754057984000</desc></polyline><polyline fill="none" points="77.10022779041901,61.524449931988784 71.57312072892091,60.43221308858483 65.4883826879086,57.6290658715734 64.18451025054674,57.21341926432797 54.343963553517824,55.30915294206352 52.54806378131616,55.25115434180043 50.76036446468788,55.40581719158217 49.907517084269784,55.25115434180043 49.20227790431818,54.854829558869824 48.685649202700006,54.3618377245366 48.09521640089224,53.240512764990854 47.79999999998836,52.26417518301605 51.416400911140954,49.26742838732025 53.925740318896715,46.58960449384176 56.221867881540675,44.578766632934276 57.95216400909703,43.582998319172475 59.305239179957425,42.58721882831014 60.26469248291687,42.49054061255447 60.609111617319286,42.277848167024786 61.658769931673305,41.06935868260916 62.47881548971054,39.25175949615368 63.282460136688314,38.52664304494829 67.1202733485261,36.41893757008074 71.61412300678785,34.475550068011216 71.68792710703565,35.10401337163057 72.34396355351782,35.55843790931249 73.02460136672016,36.77667092734191 73.44282460134127,37.94654561603966 74.47608200454852,40.08321906484343 77.16583143506432,45.12015054051153 77.52665148061351,46.20290844473493 78.59271070614341,48.43605489066249 79.31435079724179,50.92048510379391 79.36355353074032,52.467176950973226 79.26514806377236,53.02784608797083 79.5193621867511,53.21151279359037 79.28154897489003,54.67116625442577 80.19999999998254,55.01915956169978 80.16719817763078,55.4928149261541" stroke="#4DD2FF" stroke-linecap="round" stroke-linejoin="round" stroke-width="0.5"><title>2025-07-28 10.0km</title><desc>1753704756000</desc></polyline><polyline fill="none" points="113.01867203216534,51.97275033085316 104.41344064386794,50.25152801962395 94.55653923540376,45.73321956422296 92.95283702207962,45.195316063574865 83.79999999998836,43.36642882322485 93.95678068406414,45.548795737864566 102.44466800807277,49.544591345635126 104.64812877262011,50.374473166652024 116.20000000001164,52.6335711767897 113.14905432594242,51.942014402273344 113.30551307846326,50.94309307834192" stroke="#4DD2FF" stroke-linecap="round" stroke-linejoin="round" stroke-width="0.5"><title>2025-07-22 5.0km</title><desc>1753194638000</desc></polyline><polyline fill="none" points="138.22918149462203,49.71023195129237 148.96192170813447,51.83939075106173 152.19999999995343,52.031918919150485 149.37508896790678,51.87336633603263 131.6857651245664,48.407799496271764 123.97010676155332,44.908139318518806 119.79999999998836,43.96808108084224 123.92206405696925,44.930791219405364 131.15729537361767,48.271892561155255 134.135943060508,48.90612340554799" stroke="#4DD2FF" stroke-linecap="round" stroke-linejoin="round" stroke-width="0.5"><title>2025-07-19 6.4km</title><desc>1752877000000</desc></polyline><polyline fill="none" points="185.23281607733225,61.61269492981228 179.71879928768612,60.51490104319237 173.45474433986237,57.64891527783766 172.38326125667663,57.3088769578535 162.2041719664121,55.346344752462755 158.67651996944915,55.46293203045934 157.90999745609588,55.31719790916395 157.192928008124,54.89942544174846 156.49234291526955,54.161032109041116 155.8824217756046,52.79110197170667 155.79999999998836,52.295590144378366 159.4018315949943,49.31274509541254 161.78382091069943,46.72817978591047 164.13284151616972,44.67796379896754 167.00111930808634,42.76373854727717 167.50389213938615,42.52081362250465 168.27041465276852,42.48194557311945 168.81439837190555,42.14184941827989 169.70455354871228,41.08268451067124 170.5040447723295,39.265555771504296 171.35298906132812,38.478445730987005 175.52353090816177,36.204533243275364 179.78473670824314,34.38730507018772 179.7929788857582,35.08699089157744 180.45235309080454,35.52429174113058 180.88918850160553,36.330863236456935 181.78758585598553,38.390988630853826 184.55695751716848,43.599395234152325 185.28226914271363,45.33870206113352 185.48008140421007,45.52331922985468 186.72465021623066,48.71033431222895 187.00488425337244,49.1087031891002 187.4499618417467,50.77017370717658 187.53238361742115,51.86808753220248 187.40050877639442,53.539222455940035 186.99664207579917,55.103454100528324 188.19999999998254,55.37549158624461" stroke="#4DD2FF" stroke-linecap="round" stroke-linejoin="round" stroke-width="0.5"><title>2025-07-17 10.0km</title><desc>1752756134000</desc></polyline><polyline fill="none" points="44.199999999953434,103.5720144885563 35.61035163962515,101.85189670675027 24.7164757012506,97.00829243419867 11.799999999988358,94.42798551142914 25.292532595805824,97.24972220222116 35.36712761753006,101.83680785975594 43.80316080595367,103.55692582891788" stroke="#4DD2FF" stroke-linecap="round" stroke-linejoin="round" stroke-width="0.5"><title>2025-07-14 5.0km</title><desc>1752500928000</desc></polyline><polyline fill="none" points="80.20000000001164,103.53868621043512 71.61235340102576,101.85165424471779 62.73338545736624,97.73102870992443 60.63080531661399,96.96959521551616 47.79999999998836,94.46131378956488 61.46677091473248,97.19354668233427 71.764347146207,101.91137254482601 79.28803752933163,103.4192510018911" stroke="#4DD2FF" stroke-linecap="round" stroke-linejoin="round" stroke-width="0.5"><title>2025-06-21 5.0km</title><desc>1750468889000</desc></polyline><polyline fill="none" points="105.96763828318217,100.98978059480578 114.39297681886819,102.67265378577576 116.19999999998254,102.76906733006035 114.64581133803586,102.67265378577576 100.8737663529464,99.98179282421188 99.39394078491023,99.40328979353944 94.96933669951977,97.29960735628993 94.18852421388146,97.04540867147443 85.1608446178434,95.29229243010923 83.79999999998836,95.23093266993237 85.00468212072155,95.25722971576033 88.52205646081711,95.90588745874265 94.85035574936774,97.27331097782735 99.55753959142021,99.49970725409366 100.7622217121534,99.96426249044453 102.07101216429146,100.22721709617326" stroke="#4DD2FF" stroke-linecap="round" stroke-linejoin="round" stroke-width="0.5"><title>2025-06-17 8.1km</title><desc>1750165544000</desc></polyline><polyline fill="none" points="152.19999999995343,103.51908187504159 144.03109048720216,101.89461972567369 133.38143851503264,97.13926411750435 119.79999999998836,94.48091812494386 133.40649651968852,97.19833788095275 143.85568445472745,101.87985179870157 150.74663573078578,103.28279768083303" stroke="#4DD2FF" stroke-linecap="round" stroke-linejoin="round" stroke-width="0.5"><title>2025-06-15 5.0km</title><desc>1749939796000</desc></polyline><polyline fill="none" points="178.18833794421516,100.85715379579051 185.83498616723227,102.38503689665959 188.19999999998254,102.53132193580677 186.3383273036743,102.41754470791784 173.54105128749507,99.93065625537565 172.29304107255302,99.45927589906933 168.1215152159566,97.47619489211502 167.1906788678316,97.16734966463991 158.7786763141048,95.54182739874523 157.758203873178,95.4686780642005 155.79999999998836,95.62310435305699 158.57871887634974,95.52557199727744 166.83213449668256,97.11858451188891 167.83192168545793,97.39491995616845 170.21762077038875,98.52463362940034" stroke="#4DD2FF" stroke-linecap="round" stroke-linejoin="round" stroke-width="0.5"><title>2025-06-11 8.1km</title><desc>1749642919000</desc></polyline><polyline fill="none" points="44.199999999953434,154.50913447864878 35.78278402477736,152.88026316485775 25.20473051565932,148.15642600618594 11.799999999988358,145.49086552133667 25.355486622662283,148.21566009007802 35.8707250871812,152.9543031933281 42.80550601007417,154.3462482253235" stroke="#4DD2FF" stroke-linecap="round" stroke-linejoin="round" stroke-width="0.5"><title>2025-06-08 5.0km</title><desc>1749387304000</desc></polyline><polyline fill="none" points="60.35216783173382,158.7076168245403 63.84139860118739,156.62423904729076 71.18237762222998,155.28873581567314 74.89818181819282,152.5108774410037 78.9311888110824,152.61771843861789 80.01874125842005,151.70956921568722 72.85902097891085,140.06374183803564 68.01034965016879,141.02533439331455 63.38825174816884,143.74983639040147 60.805314685218036,143.74983639040147 56.68167832144536,145.67300515482202 49.92979020951316,147.06195568150724 50.156363636255264,151.44246618289617 47.800000000046566,154.38059154016082 49.79384615365416,156.57081898782053 50.65482517471537,159.29523459714255 51.92363636358641,160.09653042448917 59.808391608064994,158.44051760429284 63.97734265727922,156.57081898782053 70.04951048921794,155.7695173981774 75.12475524446927,152.5108774410037 78.70461538434029,152.671138928883 80.15468531451188,151.44246618289617 72.85902097891085,139.903476228792 67.46657342626713,141.0787561465695 63.47888111858629,143.69641492818482 59.85370629350655,144.0703650417563 55.41286713257432,146.04695376066957 50.06573426560499,146.95511347296997 50.20167832146399,151.70956921568722 47.800000000046566,154.38059154016082 49.92979020951316,156.67765910099843 51.017342657083645,159.45549386719358 52.558041957905516,160.20336976926774 64.9742657339666,156.41055877465988 70.18545454507694,155.82293754484272 74.67160839145072,152.77797989177634 78.84055944019929,152.72455941326916 80.19999999995343,151.38904555878253 72.36055944045074,139.74321056710323 67.01342657301575,141.39928654427058 63.297622377518564,143.69641492818482 50.29230769188143,146.6880078498798 50.24699300690554,151.44246618289617 47.84531468502246,154.2737509267463 49.884475524304435,156.57081898782053 50.65482517471537,159.1349752744427 52.965874125715345,160.25678943292587 71.27300699264742,154.70111324131722 73.53874125843868,151.65614862082293 72.85902097891085,148.6111650884268 69.86825174815021,144.8716857531399 67.33062937040813,143.58957198631833 65.15552447526716,143.48272902093595 62.66321678296663,144.49773625083617 58.63020979007706,149.35905753268162 52.19552447553724,150.4274733311031 48.343776223715395,153.47244558262173 48.207832167623565,154.75453350436874 50.38293706276454,157.3721192679659" stroke="#4DD2FF" stroke-linecap="round" stroke-linejoin="round" stroke-width="0.5"><title>2025-06-04 6.4km</title><desc>1749041988000</desc></polyline><polyline fill="none" points="116.19999999995343,154.53875112555397 107.89585110504413,152.88026415031345 98.43590538966237,148.51183110785496 97.0037223729887,148.03795874642674 83.79999999998836,145.46124887444603 97.38061264058342,148.18604403676 107.70740597130498,152.8506481276272 114.60449786734534,154.27220994017262" stroke="#4DD2FF" stroke-linecap="round" stroke-linejoin="round" stroke-width="0.5"><title>2025-05-28 5.0km</title><desc>1748436903000</desc></polyline><polyline fill="none" points="152.20000000001164,154.52456418641668 143.2028481012676,152.68155105531332 132.78306962025817,147.96816018444952 119.79999999998836,145.46032924976316 132.36012658226537,147.87751648265112 133.9237341772532,148.3760561094532 143.95901898737065,152.9685793002136 152.0462025316665,154.53967075023684" stroke="#4DD2FF" stroke-linecap="round" stroke-linejoin="round" stroke-width="0.5"><title>2025-05-27 5.0km</title><desc>1748351986000</desc></polyline><polyline fill="none" points="179.79371806641575,156.68368262183503 179.83701650006697,154.7439883715415 180.8545296920929,152.4405738785572 181.52565541444346,148.16705454379553 181.48235698067583,148.56107127694122 180.50814222241752,148.6823070186074 175.7669637320796,152.04656576980778 173.97007873351686,152.4708821583772 173.25565457739867,151.28885540635383 174.0783248177031,149.95527729929017 175.59376999735832,148.7732337704365 175.35562861186918,146.74252520038863 176.07005276798736,145.43922236734943 175.11748722661287,144.89365089387866 171.6319633135572,144.95427002949873 170.72269620583393,143.62064425830613 171.0257852417417,142.04452813602984 171.69691096409224,142.25669843042851 171.6319633135572,141.2261546212103 172.62782728869934,141.83235758764204 174.4463615042623,141.7717373843043 175.89685903326608,142.74165814954904 177.86693776666652,142.8022780212341 178.66795879020356,142.40824848525517 180.638037523604,139.65001720453438 180.72463439090643,135.04276592261158 180.01021023490466,134.2243600753427 178.88445095869247,133.8000000000029 177.49890108022373,134.19404867511184 176.26489571970887,135.5580565542332 175.31233017821796,135.8914791057323 173.36390066170134,135.5277453820454 171.30722506076563,134.40622836805414 169.42374319478404,135.04276592261158 168.47117765329313,136.49770031955268 168.51447608706076,138.043555028853 169.3371463273652,139.1953595756204 171.19897897657938,140.07436327250616 171.6319633135572,141.13522399745125 170.78764385636896,143.10537706811738 171.3938219283009,144.92396046433714 171.54536644613836,147.43963673520193 170.74434542260133,150.1674381239427 171.37217271130066,150.9251532813214 173.21235614374746,151.3797808209638 173.92678029974923,152.4708821583772 172.28143981914036,155.13799048410146 170.24641343508847,155.95629976550117 166.84748638956808,158.44151220101048 164.37947566853836,159.50226299579663 163.81659603037406,160.9569966202398 162.43104615190532,162.47233145002974 163.62175307876896,165.86663445972954 164.70421392121352,166.10908218758414 166.1330622334499,165.23020759648352 167.80005193094257,165.92724642287067 169.0124080745736,165.77571647636069 169.96497361606453,164.77561558088928 170.6577485552989,162.2601853536762 172.30308903590776,161.35098492221732 176.07005276798736,162.53294457378797 177.49890108022373,161.83589239936555 179.7287704157643,161.71466565452283 179.85866571695078,154.98645131378726 181.5689538482111,148.98539600994263 181.30916324595455,148.56107127694122 180.6596867403714,148.62168915817165 175.78861294896342,152.07687411694496 174.0350263840519,152.4405738785572 172.10824608430266,155.2289139242057 170.05157048348337,156.0472227857972 166.82583717268426,158.44151220101048 164.50937096960843,159.35072755663714 163.81659603037406,161.04791707541153 162.43104615190532,162.5935576767224 163.5135069944663,165.7151044614875 164.22793115058448,166.1999999999971 166.0031669322634,165.23020759648352 168.0381933163153,165.95755239657592 169.40209397790022,165.41204407635087" stroke="#4DD2FF" stroke-linecap="round" stroke-linejoin="round" stroke-width="0.5"><title>2025-05-23 6.4km</title><desc>1747958832000</desc></polyline><polyline fill="none" points="30.94369621016085,202.51309194078203 31.82054188963957,203.34610326240363 34.01265608868562,203.6968440618075 35.108713188092224,205.09980246095802 34.82686993398238,210.62387653024052 34.29449934279546,211.63222641106404 32.38422839809209,212.20216154603986 30.50527337042149,211.5445439702744 28.75158201099839,211.93911471805768 25.776569883921184,210.1854623016552 23.991562607581727,210.88692470760725 22.676294088247232,210.66771791194333 23.05208509368822,209.396314800877 22.112607579911128,206.94117370891036 22.394450834020972,205.18748710595537 21.392341485945508,203.52147372200852 21.830764325684868,200.89090423106973 28.156579585629515,200.62784579742583 30.317377867526375,201.41702028854343 31.44475088408217,203.21457533881767 33.856076502939686,203.65300148807 34.92081768531352,204.6613787858514 34.82686993398238,210.75540065264795 34.357131177093834,211.63222641106404 32.509492066456005,212.15832042683905 30.72448479011655,211.5883851944236 28.688950176816434,211.89527355389146 25.71393804962281,210.22930375821306 21.924712077132426,211.01844869504566 19.889177463715896,212.68441336293472 20.546811723383144,213.1666642728087 21.047866397420876,215.797107813225 24.116826276062056,217.1999999999971 25.432094795512967,216.279352868165 26.308940475108102,214.4818894163618 26.183676806511357,213.07898235663015 24.555249115801416,210.4923523402831 26.183676806511357,210.22930375821306 28.720266094082035,211.89527355389146 30.72448479011655,211.32533773675095 30.47395745315589,210.66771791194333 28.438422839855775,210.71155928605003 27.342365740332752,209.3086315952969 28.375791005557403,205.18748710595537 25.682622132473625,201.06627637021302 25.870517635252327,197.77802879850788 26.590783729217947,196.37503033145913 28.03131591703277,195.5419963588938 30.75580070738215,196.41887414988014 32.979230823460966,195.8489039269043 30.47395745315589,198.30415124427236 27.874736331403255,198.17262073408347 26.308940475108102,196.9888431057043 23.897614856250584,196.4627179606323 23.96024669043254,191.11371769617836 25.024987872806378,188.87762712895346 25.087619706988335,185.545377545277 25.745253966771998,184.88769158831565 27.749472662922926,184.8000000000029 33.511601414647885,185.6330688787566 34.70160626550205,186.68536254037463 35.108713188092224,188.87762712895346 36.110822536284104,189.97375239306712 35.45318827650044,190.850649229993 35.860295199323446,191.42063056555344 33.88739242020529,192.60443390549335 33.668181000160985,195.3666204407491 30.75580070738215,198.21646424492064 28.469738756888546,198.30415124427236 26.214992723660544,196.85731192059757 24.022878524614498,196.5942493480543 23.92893077339977,191.42063056555344 25.275515209767036,186.94843528077763 26.684731480665505,186.42228952987352 26.716047397698276,185.10692042818118 33.135810408974066,185.50153186739772" stroke="#4DD2FF" stroke-linecap="round" stroke-linejoin="round" stroke-width="0.5"><title>2025-05-20 5.0km</title><desc>1747754393000</desc></polyline><polyline fill="none" points="75.90711297094822,203.26414783037035 78.93472803360783,203.63704830553615 80.20000000018626,202.3052595887857 72.69874477013946,191.01154544280143 67.45690376590937,192.29009221566957 63.38995815929957,194.68735840247246 60.85941422590986,194.79390329352464 54.71380753163248,197.13788502145326 49.7882845189888,197.83042292672326 50.19497907953337,202.35853120702086 47.800000000046566,205.44827513842029 49.7882845189888,207.20622417709092 50.5112970713526,209.65668804803863 51.59581589954905,210.72210329168593 53.6292887032032,211.04172741202638 63.79665271984413,207.73893475910882 69.85188284539618,206.88659754939727 75.09372384962626,203.42396235471824 78.93472803360783,203.53050534185604 80.1096234312281,202.5183460272383 72.87949790805578,191.06481829169206 70.89121338911355,191.11809113476193 63.570711297215894,194.58081348834094 60.226778242737055,194.95372058660723 56.02426778245717,196.871524027345 49.42677824292332,198.09678339827224 50.375732217915356,201.61272802230087 47.800000000046566,205.39500385682913 49.69790795003064,206.99313978175633 50.28535564872436,209.23052130066208 51.641004184260964,210.6688325846917 53.6292887032032,210.93518606194993 64.65523012564518,207.31276633995003 70.57489539775997,206.5669707126508 74.86778242676519,203.53050534185604 78.97991631808691,203.53050534185604 80.1096234312281,202.41180281963898 72.87949790805578,191.11809113476193 71.29790794989094,190.95827258797362 67.23096234328113,192.29009221566957 63.70627615065314,194.58081348834094 60.81422594143078,194.68735840247246 55.3916317995172,196.97806844237493 50.01422594161704,197.93696713264217 50.28535564872436,202.145444698981 47.89037656923756,205.2884612760099 49.69790795003064,207.09968199103605 50.96317991637625,210.24266671948135 53.81004184111953,210.88191537800594 62.98326359852217,207.79220578528475" stroke="#4DD2FF" stroke-linecap="round" stroke-linejoin="round" stroke-width="0.5"><title>2025-05-14 5.0km</title><desc>1747227249000</desc></polyline><polyline fill="none" points="95.27369319985155,216.84866889973637 95.93367297830991,216.2463857671828 96.8917081404943,212.68284501698508 99.76581362693105,213.13456450070953 101.3199595566839,206.91079587426793 101.02190417295787,202.92046866180317 98.02006066485774,195.41645858294214 98.14779868652113,193.73492447081662 100.23418637306895,192.60552899709728 103.34247823245823,192.07847588087316 105.34370723797474,190.69809295641608 106.98301184864249,190.84868058656866 107.6004122865852,190.19613347828272 104.30051339464262,184.92549291203613 103.47021625400521,184.79999999998836 101.19222153513692,185.62825195615005 99.76581362693105,186.6070913370786 98.53101275127847,186.63218972808681 96.01883165934123,187.6361231241026 93.44278155663051,188.01259701950767 93.61309891880956,189.97025135620788 92.3995877134148,191.50122584609198 92.61248441610951,192.0533780833066 93.33633320522495,192.53023576858686 94.06018199457321,194.21177867497317 94.97563781612553,194.31216890794167 103.15087120002136,191.85259560475242 104.06632702169009,191.04946394014405 104.40696174604818,189.97025135620788 104.00245801080018,188.56475761959155 102.57605010271072,187.03376361155824 100.830297140521,186.4815993412485 99.29744088102598,186.908271848195 97.25363253511023,189.21730934960942 94.33694770804141,189.71927096083527 92.65506375662517,191.22514923103154 92.69764309725724,192.0533780833066 94.97563781612553,193.81021730558132 97.57297758909408,193.53414345801866 103.08700218924787,191.85259560475242 104.27922372438479,190.7482888440718 104.34309273515828,189.54358452133602 103.47021625400521,187.96240053567453 101.40511823783163,186.5568945469422 98.53101275127847,186.6572881163156 95.82722462690435,187.73651622305624 93.40020221611485,188.21338284539524 93.59180924855173,190.07064343779348 92.42087738367263,191.6016172604286 93.35762287559919,192.53023576858686 93.82599562150426,193.88551011563686 94.91176880523562,194.33726645939169 96.18914902152028,193.68472923408262 98.5523024215363,193.2831669458683 97.99877099459991,194.31216890794167 98.06264000525698,195.11528919663397 100.74513845948968,201.84131169285683 101.3838285675738,204.95328550090198 101.14964219462126,208.44165778126626 100.08515868103132,212.43188936563092 97.33879121614154,212.03035975477542 96.25301803229377,215.69429151249642 95.42272089188918,216.04562437302957 95.08208616753109,217.1999999999971 94.63500309188385,217.02433451685647" stroke="#4DD2FF" stroke-linecap="round" stroke-linejoin="round" stroke-width="0.5"><title>2025-05-06 7.1km</title><desc>1746539597000</desc></polyline><polyline fill="none" points="132.18021233729087,217.1999999999971 131.96068431064487,216.94123156383284 132.99246603576466,213.49958456019522 135.60484955227003,214.12063733021205 136.06585840811022,213.31844386309967 137.4269321729662,207.59950226689398 137.383026567637,204.75291893200483 133.49738049693406,193.98734986766067 132.44364596926607,193.7544355292921 130.9508553884225,194.47905716553214 130.0288376766257,194.29790196369868 128.29456626658794,191.60643697528576 129.4800176101271,190.31245256691182 129.19463117560372,188.24206284967659 130.7313273617765,188.16442288414692 135.8682831841288,186.71513886965113 137.5366961862892,185.67993058757565 140.28079651866574,184.85176071304886 143.8151977470843,190.26069304386328 143.3761416937923,190.95944565233367 141.44429505977314,190.7782877660211 139.38073160964996,192.27930608169117 136.24148082942702,192.74513742329145 134.39744540583342,193.62503857583215 132.04849552141968,193.93559114560776 130.6215633484535,194.53081576917612 129.6995456367731,194.14262596644403 129.17267837293912,192.69337843044195 128.33847187180072,192.07226963655557 128.33847187180072,191.58055735622474 129.4800176101271,190.05365483921196 129.17267837293912,188.26794283252093 131.58748666546308,187.95738285208063 135.80242477625143,186.61161824449664 139.79783486027736,184.79999999998836 140.41251333465334,185.0070427845494 143.7932449443033,190.26069304386328 143.4639529044507,190.90768627036596 141.59796467830893,190.7782877660211 138.89776995114516,192.46046282305906 136.7024896851508,192.6157399199874 130.7313273617765,194.47905716553214 129.8093096499797,194.22026397778245 129.2165839781519,192.69337843044195 128.33847187180072,192.02051049715374 129.4580648074625,190.105414407255 129.19463117560372,188.24206284967659 131.4996754549211,187.95738285208063 135.62680235493463,186.68925871765532 137.0976401331136,185.78345161883044 139.84174046549015,184.79999999998836 140.34665492665954,185.0070427845494 143.7712921416387,190.23481327817717 143.4420001017861,190.8818065750238 141.44429505977314,190.7524080567091 139.31487320177257,192.30518562466023 136.219528026646,192.74513742329145 134.00229495798703,193.70267675638024 132.18021233729087,193.8579530411953 130.77523296698928,194.5049364687875 129.7434512419859,194.11674662373844 129.19463117560372,192.69337843044195 128.31651906913612,192.0463900682662 128.29456626658794,191.60643697528576 129.17267837293912,190.7524080567091 128.14089664781932,191.70995542341552 129.10681996494532,192.84865537515725 129.5458760181209,194.0391085785377 130.4898465325823,194.6084536537237 135.9560943946708,192.90041433414444 139.22706199111417,192.5122218666802 141.33453104645014,190.90768627036596 143.2883304831339,190.90768627036596 143.8591033522971,190.31245256691182 140.19298530824017,184.79999999998836 137.4049793703016,185.62817005507532 135.67070796026383,186.74101901886752 134.11205897142645,186.8445395877061 131.71920348145068,187.82798274041852 128.8872919382993,188.39734270452755 129.37025359692052,190.05365483921196 128.25066066114232,191.42527958248684 128.20675505581312,192.0981492021092 129.08486716228072,192.77101691544522 129.4800176101271,193.98734986766067 130.3142241112655,194.5049364687875 133.49738049693406,193.96147050804575 136.9220177117968,202.86380388855468 137.3171681596432,204.8823098236462 137.4049793703016,207.49599074330763 135.8463303814642,213.88774273170566 132.86074921977706,213.52546179131605 132.20216513983905,216.65658595852437 131.85092029743828,216.94123156383284" stroke="#4DD2FF" stroke-linecap="round" stroke-linejoin="round" stroke-width="0.5"><title>2025-04-29 10.1km</title><desc>1745929124000</desc></polyline><polyline fill="none" points="186.95545964606572,197.90954848476395 186.41009926627157,197.44802204544249 186.71773845492862,195.75025196015486 185.9486404833733,198.28865843554377 185.36132930516033,198.37107351659506 183.6133793698391,205.22785106152878 183.41760897717904,205.27729784838448 174.51005610701395,203.513685797996 163.15537332755048,198.40403953642817 155.79999999998836,196.83814566324872 163.09943892958108,198.4205225436599 172.06292619759915,202.62363079232455 174.60794130334398,203.57961559017713 188.19999999995343,206.24974803984514 183.54346137243556,205.2443333255942 183.83711696154205,204.04112333148078 184.66214933095034,203.84333447182144 186.5359516615863,195.96453467167157 186.89952524809632,195.8326684235799 186.41009926627157,197.11835944133054" stroke="#4DD2FF" stroke-linecap="round" stroke-linejoin="round" stroke-width="0.5"><title>2025-04-22 6.3km</title><desc>1745328842000</desc></polyline><polyline fill="none" points="23.299490722594783,267.2478983969777 23.837973885703832,267.00987241284747 24.95981380867306,263.33366369509895 27.831724011572078,263.75682724542276 29.334989508381113,258.2820918616635 29.088184725376777,252.75433523743413 25.96946973935701,245.11048356020183 25.902159343939275,243.78799344987783 27.584919228567742,242.41259609241388 31.129933385178447,241.8306948645186 33.68772840965539,240.16433363167744 35.370488294167444,240.3230351943057 36.06602904642932,239.71467864087026 34.56276354950387,237.3605889173341 32.543451688135974,238.39215913439693 30.928002199041657,236.5141690547316 29.20036871766206,235.79999999998836 25.96946973935701,236.06450730234792 23.770663490286097,237.04318181470444 20.809006093535572,237.54574286883872 21.257742062793113,239.39727461643633 19.956407752120867,241.2752423912607 20.92119008593727,242.09519559555338 21.414799652062356,243.47059475140122 22.424455582746305,243.9995923517272 26.10409053019248,243.12674569300725 28.235586383845657,242.200995807274 31.04018619132694,241.8306948645186 33.35117643268313,240.2701346850372 35.370488294167444,240.2965849411994 36.04359224787913,239.6617779989465 34.58520034805406,237.3605889173341 32.56588848656975,238.3392582043016 30.928002199041657,236.48771838650282 29.334989508381113,235.82645074321772 25.857285747071728,236.06450730234792 23.81553708727006,237.01673120411579 21.36992605519481,237.38703949046612 21.03337407822255,237.65154506346153 21.212868465925567,239.476625661453 19.956407752120867,241.14299161508097 20.876316488953307,242.09519559555338 21.34748925664462,243.49704465875402 22.312271590461023,244.05249204830034 28.28045998082962,242.17454575873853 30.950438997591846,241.8835950338107 33.37361323123332,240.2701346850372 35.46023548790254,240.2701346850372 36.021155449561775,239.60887734554126 34.5403267510701,237.3076877623971 32.453704494284466,238.31280773485196 30.905565400607884,236.48771838650282 29.536920694517903,235.9058029555017 26.530389700899832,235.93225368714775 23.591169102699496,237.04318181470444 21.325052458094433,237.38703949046612 21.010937279672362,237.6250945191423 21.16799486905802,239.71467864087026 19.933970953687094,241.22234208942973 20.943626884371042,242.14809570726356 21.392362853512168,243.49704465875402 22.132777202758007,243.9731424991187 31.152370183728635,241.4868434832897 32.251773308147676,240.5875375681353 32.63319888187107,239.23857244863757 32.31908370356541,238.23345630936092 31.219680579029955,236.88447810782236 29.492047097650357,235.8529014835658 26.507952902349643,235.95870441598527 23.501421908731572,237.12253362929914 20.98850048123859,237.54574286883872 21.257742062793113,239.34437390536186 19.956407752120867,241.16944177603 21.055810876656324,242.51839616584766 20.62951170594897,243.338345171127 21.7513516289182,245.63947758708673 22.626386768883094,249.50109906271973 23.0078123427229,253.83873760823917 22.918065148754977,256.6951889633783 20.71925889980048,267.4594768535753 22.312271590461023,268.1999999999971" stroke="#4DD2FF" stroke-linecap="round" stroke-linejoin="round" stroke-width="0.5"><title>2025-04-15 8.8km</title><desc>1744723077000</desc></polyline><polyline fill="none" points="79.98707557527814,248.53866069864307 79.0466593648307,248.47591465171718 79.73866374604404,246.44711475151416 78.92245345038828,249.83540774541325 79.11763417324983,250.35828714176023 78.03526834619697,253.95565879633068 76.9883899234701,253.97657355075353 77.00613362551667,254.8549911808077 75.7995618841378,258.7659923363972 64.03548740432598,256.4235840979236 50.55027382262051,250.17005072309985 47.800000000046566,249.3752726988896 50.74545454559848,250.3164568424545 64.01774370216299,256.4444985836453 75.83504928823095,258.7450781035295 76.22541073395405,257.17650414750096 77.11259583802894,257.07193209489924 77.87557502742857,254.8549911808077 80.20000000006985,245.23400766360282 79.57897042739205,248.68506806186633" stroke="#4DD2FF" stroke-linecap="round" stroke-linejoin="round" stroke-width="0.5"><title>2025-04-11 5.1km</title><desc>1744377642000</desc></polyline><polyline fill="none" points="93.12313802994322,268.1999999999971 94.21896318928339,266.9873848914576 94.50969231326599,267.8836662095273 95.60551747272257,266.9873848914576 96.83552530466113,263.270418118409 99.72045276535209,263.9294589437486 100.23481967684347,263.74492769356584 101.57664640271105,257.9716646618763 101.66610151785426,254.80817445395223 101.10700704879127,251.9873608075868 97.88662290666252,244.97472832536732 97.79716779163573,243.78836062595656 99.3626323051285,242.47016747105226 102.96320068615023,241.89016020782583 105.46794390771538,240.17649426251592 107.10049975756556,240.33467931974155 107.92795957194176,239.64920999133028 106.16122104949318,236.88094871563953 104.30502741201781,237.96189260190295 102.11337709322106,236.116375733749 100.14536456181668,236.01091720178374 99.0942669599317,236.51184481907694 96.96970797725953,238.8319171002804 93.92823406530079,239.28011031786446 92.16149554296862,240.80923387102666 92.07204042794183,241.31015155436762 92.98895535734482,242.07470812418615 93.3691395962378,243.31381191739638 94.37550964066759,243.89381576803862 103.20920225267764,241.4156077765365 104.41684630594682,240.25558680405084 104.55102897831239,238.96373872103868 103.23156603134703,236.90731325808156 101.10700704879127,235.8000000000029 98.2444433667697,235.9581879185862 95.44897102133837,237.03913592742174 93.03368291480001,237.46096798675717 93.2349569236394,239.30647459896863 92.07204042794183,240.73014151045936 92.07204042794183,241.23105935748026 92.98895535734482,241.99561617728614 93.950597844203,243.86745198676363 94.93460410973057,243.89381576803862 96.25406705692876,243.20835652251844 97.46171111019794,243.31381191739638 100.99518815486226,252.67279518512078 101.42009995144326,255.12452533574833 101.28591727884486,257.6553175020381 100.03354566800408,263.00680128581007 97.14861820742954,262.5586520112847 96.00806549051777,266.0383775251248" stroke="#4DD2FF" stroke-linecap="round" stroke-linejoin="round" stroke-width="0.5"><title>2025-04-08 5.6km</title><desc>1744119870000</desc></polyline><polyline fill="none" points="131.42609324876685,265.467352610096 132.30328084493522,264.18718210881343 132.97161425137892,261.33139101584675 135.74937497230712,261.84839035412006 137.2322397181997,256.1367129800201 137.29489597503562,253.82245778033393 136.89807301491965,251.5574191056221 134.05765603715554,244.51595823957177 134.05765603715554,243.1618059954344 135.62406245875172,242.00461492025352 138.90307323471643,241.51219138874148 141.07515680592041,240.03491435569595 142.95484451181255,240.03491435569595 143.45609456673265,239.39475797546038 141.80614646931645,236.78487088649126 139.78026083076838,237.5727645050356 137.85880228690803,235.9723527150345 134.76776028156746,235.89848728186917 131.90645788470283,236.957222850353 129.5255201238906,237.40041301076417 129.65083263767883,239.39475797546038 128.54390543315094,240.72431150634657 129.35843677225057,241.65991856089386 129.83880140830297,243.03870084360824 131.133697383455,243.48187907638203 132.2823954259511,242.866353518315 134.22473938867915,242.64476390699565 136.1253125135554,241.80764563645062 139.02838574838825,241.38908533820359 141.22135473857634,239.93642887682654 140.88718803529628,240.60120502659993 141.43020892806817,239.78870057794848 143.03838618763257,239.91180750043713 143.39343830989674,239.2962722174998 142.0985423347447,237.20343971348484 140.26062546670437,238.16368291596882 138.7986461397959,236.46478831929562 137.25312513718382,235.8000000000029 134.62156234891154,235.87386546542984 132.05265581747517,236.90797944554652 129.5881763807265,237.30192638355948 129.5672909617424,239.49324369047827 128.60656168987043,240.4780984797544 128.54390543315094,240.97052426474693 129.37932219123468,241.7091609301424 129.60906179982703,242.7432482055301 130.73687442333903,243.45725808628777 132.2197391691152,242.84173246109276 134.14119771285914,242.64476390699565 135.89557290507946,241.8568879734521 137.56640642147977,241.63529737225326 137.7543751921039,243.03870084360824 142.03588607779238,251.72975980272167 137.6708335162839,253.25620023989177 137.42020848882385,257.12149523910193 136.35505212203134,261.2821529219509 135.81203122925945,261.7006763781974 134.30828106449917,268.1999999999971 128.54390543315094,266.7228974051395 129.4210930292029,262.9562420967268 129.71348889451474,262.80852884477645 129.21223883947823,265.22116653827834" stroke="#4DD2FF" stroke-linecap="round" stroke-linejoin="round" stroke-width="0.5"><title>2025-04-02 6.9km</title><desc>1743601029000</desc></polyline><polyline fill="none" points="166.90637650096323,268.1999999999971 167.68124540010467,267.50153743055125 168.75238770188298,263.65995794165065 172.33045879518613,264.51961728975584 173.8118258083705,257.72285375985666 173.35602057352662,252.69903858125326 169.86911052721553,244.74669410314527 169.8463202654384,244.02129856622196 170.5300281177042,243.05410119742737 171.73791198979598,242.46303427116072 175.6122564858524,241.764498804303 177.41268716333434,240.31368805012607 178.11918527726084,240.20622024724435 178.14197553903796,239.23900791368214 177.23036506946664,237.38517366928863 176.5010766936466,237.43890819144144 175.7945785797201,236.63288913073484 175.20203177444637,236.7672258238017 173.88019659358542,235.96120456742938 172.467200365616,235.85373486747267 171.0086236143252,236.3642155250127 169.04866110451985,238.78226743731648 166.08592707838397,239.21214085022802 163.875271689496,240.98536075670563 165.19710687035695,243.45710056212556 166.70126414531842,244.07503164216178 171.9202340838965,242.3287006811879 175.29319282155484,241.8450991515565 177.8684923981782,240.07188542773656 179.57776202866808,240.2868211037421 180.17030883394182,239.6420135137014 178.32429763290565,236.87469512558891 176.2959643380018,237.9762527680723 175.0652902040165,236.5522870797722 173.4699718822958,235.79999999998836 170.48444759426638,235.93433714681305 167.77240644709673,237.06276629101194 164.87804320605937,237.54637720040046 165.0603653000435,239.66888053025468 163.82969116594177,241.25402932714496 164.83246268262155,242.19436701817904 165.288267917349,243.53770035608613 166.63289335998707,244.1018981756788 168.02309932629578,243.40336735155142 169.34493450715672,243.32276751377503 170.894672305556,247.70198719725886 172.1025561777642,248.74976442594198 176.09085198224057,247.91691622250073 178.59778077388182,253.18261882543447 173.76624528481625,254.82141148947994 173.51555240573362,258.93177796454984 173.01416664745193,259.54967026961094 171.73791198979598,264.08978799026227 171.46442884905264,264.3047027335997 168.75238770188298,263.8211442976608 167.9091480175266,267.04484929649334" stroke="#4DD2FF" stroke-linecap="round" stroke-linejoin="round" stroke-width="0.5"><title>2025-03-25 6.1km</title><desc>1742909450000</desc></polyline></svg>