<?xml version="1.0" encoding="utf-8" ?>
<svg baseProfile="full" height="300mm" version="1.1" viewBox="0,0,200,300" width="200mm" xmlns="http://www.w3.org/2000/svg" xmlns:ev="http://www.w3.org/2001/xml-events" xmlns:xlink="http://www.w3.org/1999/xlink"><defs /><rect fill="#222222" height="300" width="200" x="0" y="0" /><text fill="#FFFFFF" style="font-size:12px; font-family:Arial; font-weight:bold;" x="10" y="20">Over 5km Runs</text><text fill="#FFFFFF" style="font-size:4px; font-family:Arial" x="10" y="280">Runner</text><text fill="#FFFFFF" style="font-size:9px; font-family:Arial" x="10" y="290">Elliont</text><text fill="#FFFFFF" style="font-size:4px; font-family:Arial" x="65" y="280">SPECIAL TRACKS</text><rect fill="yellow" height="2.6" width="2.6" x="65" y="283" /><text fill="#FFFFFF" style="font-size:3px; font-family:Arial" x="70" y="285.5">Over 20.0 km</text><rect fill="red" height="2.6" width="2.6" x="65" y="287" /><text fill="#FFFFFF" style="font-size:3px; font-family:Arial" x="70" y="289.5">Over 40.0 km</text><text fill="#FFFFFF" style="font-size:4px; font-family:Arial" x="120" y="280">STATISTICS</text><text fill="#FFFFFF" style="font-size:3px; font-family:Arial" x="120" y="285">Number: 63</text><text fill="#FFFFFF" style="font-size:3px; font-family:Arial" x="120" y="290">Weekly: 2.1</text><text fill="#FFFFFF" style="font-size:3px; font-family:Arial" x="141" y="285">Total: 429.6 km</text><text fill="#FFFFFF" style="font-size:3px; font-family:Arial" x="141" y="290">Avg: 6.8 km</text><text fill="#FFFFFF" style="font-size:3px; font-family:Arial" x="167" y="285">Min: 5.0 km</text><text fill="#FFFFFF" style="font-size:3px; font-family:Arial" x="167" y="290">Max: 11.4 km</text><polyline fill="none" points="34.4156243756006,49.41597512790031 34.42857142855064,49.50753817382065 34.1825774225581,49.46175666581257 30.117202797177015,48.64531474958494 25.40447552446858,46.47826389926922 24.407552447519265,46.12725639753626 16.471008991007693,44.58585481119371 13.208351648354437,44.631639505438216 12.819940059940564,44.48665453765716 12.192007991980063,44.04406699047104 11.661178821144858,43.28860937250283 11.324555444560247,42.39578532025189 11.356923076935345,42.121067937870976 14.18585414584959,39.80882060578733 15.998441558418563,37.84754769204301 17.843396603362635,36.1838567976738 16.0437562437437,37.77123246082192 14.127592407574411,39.83934582024813 11.311608391581103,42.1515921446553 11.285714285710128,42.35763019265869 11.57702297702781,43.189407261961605 12.217902097880142,44.128006222897966 12.722837162844371,44.46376214687916 13.460819180822,44.69268571789871 16.335064935061382,44.61637794401031 24.394605394569226,46.188301306763606 25.20379620377207,46.447741577605484 29.884155844163615,48.62242371760658 34.24731268727919,49.5304289166088" stroke="#4DD2FF" stroke-linecap="round" stroke-linejoin="round" stroke-width="0.5"><title>2025-11-16 10.0km</title><desc>1763290106000</desc></polyline><polyline fill="none" points="60.14285714284051,46.07614404962078 60.011072445428,46.19695928179135 58.03430198400747,45.80862395144504 52.36023862249567,43.202413156759576 51.25471143849427,42.86584326125012 42.512993175769225,41.16571193837444 40.99014778321725,41.131191127547936 39.335517693310976,41.27790446972358 38.64730871783104,41.16571193837444 37.62231662668637,40.501183687701996 37.0,39.51732643249852 37.16107018571347,39.983365602689446 37.49053192930296,40.414880908567284 38.55213088079472,41.15708173708117 39.48926650694921,41.312425216638076 41.53925068920944,41.131191127547936 42.49835043158964,41.19160253663722 51.63542278663954,42.96940338137938 57.00930989292101,45.446175926153956 57.990373751556035,45.81725364614249 59.652325213566655,46.11929236797732" stroke="#4DD2FF" stroke-linecap="round" stroke-linejoin="round" stroke-width="0.5"><title>2025-11-12 6.4km</title><desc>1762942582000</desc></polyline><polyline fill="none" points="71.66759776545223,48.877665006235475 74.60893854754977,47.429719196865335 79.00478850782383,46.82005600971752 82.07541899441276,44.61001804712578 84.91979249799624,44.76243490676279 85.72785315255169,44.0384542318352 80.7501995213097,35.96025240296149 79.4249800479738,35.693516141036525 73.76855546690058,38.36086960454122 64.13647246616893,40.5709470610891 64.62130885885563,43.46688948239898 62.74660814064555,46.01987146382453 64.07182761386503,47.23919956499594 64.75059856346343,49.296806095400825 66.07581803691573,50.05887951600016 68.59696727863047,49.144391211972106 71.37669592979364,48.877665006235475 74.80287310457788,47.39161527872784 78.90782122907694,46.97247190613416 81.94612928980496,44.724330697994446 85.0167597765103,44.838643311552005 85.85714285715949,43.84793275242555 80.8794892259175,35.96025240296149 79.52194732637145,35.579200538020814 75.9664804469794,36.989090364513686 73.80087789311074,38.47518429820775 71.66759776545223,38.55139407329261 67.78890662419144,40.11369080233271 63.94253790914081,40.76147032575682 64.62130885885563,42.39996611731476 64.52434158045799,43.77172413171502 62.908220271463506,45.410205818974646 62.74660814064555,46.21039175987244 64.2334397447994,47.505927020392846 64.81524341600016,49.41111721438938 66.14046288910322,50.173190385714406 68.50000000011642,49.22059866198106 71.76456504396629,48.877665006235475 74.99680766172241,47.429719196865335 78.68156424583867,47.08678378482 82.36632083007134,44.68622648520977 85.46927374310326,44.53380959239439 85.85714285715949,43.733619815146085 85.30766161216889,42.78101054998115 80.8794892259175,35.96025240296149 79.74820430972613,35.541095328575466 76.12809257803019,36.874775184929604 73.83320031943731,38.36086960454122 63.97486033523455,40.68526103242766 64.58898643264547,43.46688948239898 62.714285714318976,46.01987146382453 64.13647246616893,47.39161527872784 64.58898643264547,49.06818374549039 65.72027134895325,49.94456860862556 67.01316839607898,49.90646496464615 74.96448523539584,47.429719196865335 78.8108539506793,47.048679829458706 82.07541899441276,44.76243490676279 84.95211492432281,44.838643311552005 85.69553072634153,44.22897560734418 85.11372705514077,42.51427949074423 80.265363128623,35.61730574307148 75.8371907423716,37.103405506757554 72.9928172386717,39.046757206495386 71.47366320842411,41.0282027219946" stroke="#4DD2FF" stroke-linecap="round" stroke-linejoin="round" stroke-width="0.5"><title>2025-11-04 6.4km</title><desc>1762251473000</desc></polyline><polyline fill="none" points="111.57142857144936,46.05764981113316 105.86184210528154,44.871202830196125 98.67199248122051,41.660739787585044 88.42857142857974,39.656635903149436 98.44360902256449,41.67071034399123 99.47556390980026,41.99973809619405 105.65883458647295,44.871202830196125 111.52067669172538,46.05764981113316" stroke="#4DD2FF" stroke-linecap="round" stroke-linejoin="round" stroke-width="0.5"><title>2025-10-28 5.4km</title><desc>1761648009000</desc></polyline><polyline fill="none" points="137.28571428573923,45.53898521020892 132.6166637945862,44.601190512257745 126.62855419609696,41.93581569608068 117.85576425987529,40.21643450480042 116.58555919353967,40.17530050408823 114.8826469067717,40.31515601512365 114.14285714286962,40.17530050408823 114.33129415821168,40.265795276085555 114.90358435295639,40.3645167219147 116.4948302602279,40.21643450480042 117.84180596243823,40.2493416892612 126.50292951925076,41.95226891554921 127.45209374462138,42.27310597874748 132.62364294330473,44.65054841818346 136.12717559884186,45.35800819260476" stroke="#4DD2FF" stroke-linecap="round" stroke-linejoin="round" stroke-width="0.5"><title>2025-10-17 6.4km</title><desc>1760694739000</desc></polyline><polyline fill="none" points="162.9999999999709,50.823056854824245 161.05265754650463,50.463341598180705 155.3414218434482,47.859639256465016 154.53487328995834,47.61125525270472 145.51024893473368,45.88111042649689 142.13146445390885,45.949631737632444 141.14326082079788,45.512807356186386 140.63462659786455,45.033154259792354 140.03153173354804,43.834008717749384 139.9225386857579,43.14877448276093 143.09060327426414,40.58765865717578 145.08880915000918,38.39479753913474 147.14514465123648,36.56165575955674 149.72464678177494,34.87409960252262 147.24687149585225,36.4588614968452 145.2268670105259,38.23204368968436 143.19959632202517,40.43347510892636 139.9443372953392,43.09738167438627 139.85714285713038,43.27725635671959 139.95160349851358,43.66270071885083 140.62009419151582,45.05028477789165 141.68822605963214,45.83828457674099 142.37124915898312,46.035283292570966 145.49571652832674,45.906805925187655 154.60753532181843,47.67977505623276 155.46494729758706,47.95385367336712 160.83467145101167,50.43764758832549 162.68755326306564,50.8401861117527 162.767481498071,50.703151952089684" stroke="#4DD2FF" stroke-linecap="round" stroke-linejoin="round" stroke-width="0.5"><title>2025-10-12 10.0km</title><desc>1760258276000</desc></polyline><polyline fill="none" points="188.09987357773934,45.72274678230315 183.06321112517617,44.71243898902321 176.4032869785151,41.74402911939251 167.118836915266,39.96471994510648 165.57142857142026,39.92001318776602 167.30088495573727,40.03625070623093 176.7597977243713,41.90496975577116 180.73451327433577,43.77364626744384 181.04551201011054,43.80940999635641 181.96333754740772,44.34586406095332 183.32111251581227,44.85549217548396 188.0543615676288,45.79427252651658 188.1833122629614,45.72274678230315 188.26675094815437,45.052189899855875 188.71428571428987,45.02536751066509" stroke="#4DD2FF" stroke-linecap="round" stroke-linejoin="round" stroke-width="0.5"><title>2025-10-09 6.0km</title><desc>1760007351000</desc></polyline><polyline fill="none" points="34.42857142863795,72.87652758687182 28.384953508037142,71.69285291632696 20.625021132756956,68.21707170519949 11.285714285739232,66.40918669883831 21.099746407475322,68.45381610160985 25.417920541018248,70.49840319340001 25.901775147940498,70.57372927820688 26.339983093901537,70.93959801602614 27.608960270532407,71.4776378164679 27.74590025364887,71.42383396829246 28.348436179221608,69.33622203608684 29.535249366075732,69.66981247073272 29.790870667842682,69.47611493613658 31.434150464949198,69.71285631575302 31.881487743055914,68.69055993072834" stroke="#4DD2FF" stroke-linecap="round" stroke-linejoin="round" stroke-width="0.5"><title>2025-10-05 5.0km</title><desc>1759662272000</desc></polyline><polyline fill="none" points="60.14285714284051,71.68667519853625 59.96148678907775,72.42207692347438 55.39095387372072,71.49854806955409 54.14312583964784,71.03677956936008 53.047648902836954,70.44673808942753 48.91240483650472,68.65093238898407 40.155844155844534,66.93205131789728 38.52351097177598,66.86363736224303 37.0,67.00046521396143 39.720555306761526,66.92349957670376 48.44084191668662,68.62527772427711 49.659650694113225,69.00154530008149 54.04155844153138,71.08808731460158 55.23134796239901,71.54130427483324 57.21916703984607,71.8833530787233 57.386027765373,71.57550922226801 57.29171518137446,71.43868934310012 57.36426332290284,71.25911288992211 57.88660994177917,71.25056162002147 58.72091356918099,71.47289433525293" stroke="#4DD2FF" stroke-linecap="round" stroke-linejoin="round" stroke-width="0.5"><title>2025-10-02 6.2km</title><desc>1759399141000</desc></polyline><polyline fill="none" points="84.90763067107764,78.04171510107699 84.63719998518354,79.02632229698065 84.3126831620757,79.03340574798494 84.20451088770642,79.56466237510904 80.7069406833034,78.91298697594902 79.43892124493141,78.50214478177077 75.83317876615911,76.78082944489142 74.80554215973825,76.41955994835007 67.64814333934919,75.0311330108234 66.54839188334881,74.96029410704068 64.87773120150086,75.08072019756219 64.23470712616108,74.9532102124067 63.753941462317016,74.68402164495637 63.35730978965876,74.308572571681 63.0448121081281,73.79144105398154 62.71428571428987,72.80675460229395 63.59769262155169,71.97790624742629 65.35849686534493,70.58938447487162 67.16737767553423,68.66240717325854 68.75991393698496,67.25256039699889 71.00148384465137,65.778919027558 71.25989538896829,65.65847570824553 71.80676633154508,65.63722098167636 72.07118744665058,65.49552262694488 72.90651778757456,64.52488059300231 73.44737915939186,63.270817966789764 74.07838409318356,62.70400206154591 76.9269206514,61.13106203553616 80.19011759466957,59.72105191060837 80.19011759466957,60.18869684966921 80.80910338685499,60.70593657554855 81.68049115256872,62.67566113653447 84.21653002931271,67.5217797308942 85.46652075526072,70.47603444971901 85.79103757833946,71.68745261478034 85.85714285715949,72.6650718714518 85.76098972436739,73.74185288415902 85.53863560484024,74.46441961994424" stroke="#4DD2FF" stroke-linecap="round" stroke-linejoin="round" stroke-width="0.5"><title>2025-09-30 10.1km</title><desc>1759229695000</desc></polyline><polyline fill="none" points="111.55759955610847,72.32838792013354 106.67595714711933,71.33407804872695 101.74591318453895,69.04385505512619 100.7709676042723,68.70968854536477 92.34218276498723,67.07143601652206 90.98002475567046,67.03068300885934 89.36202996288193,67.17739373258519 88.42857142857974,66.94102631382702 89.26522685564123,67.22629724325816 91.87891075163498,67.05513481611706 92.68099364035879,67.15294196527248 100.75713858893141,68.73413980396435 101.44167484741774,68.93789998188731 105.09944940029527,70.6820644041436 107.00785351492232,71.4644800959868 111.40548038753332,72.34468797189038 111.57142857144936,72.29578780593874" stroke="#4DD2FF" stroke-linecap="round" stroke-linejoin="round" stroke-width="0.5"><title>2025-09-29 6.6km</title><desc>1759141711000</desc></polyline><polyline fill="none" points="135.59988968560356,79.79763785851537 135.4450082735857,80.53488909002044 134.9386651958339,80.44361082337127 131.58488692773972,79.79061637768609 126.98610038610059,77.68413760402473 125.76492002204759,77.32602936771582 118.6403750689351,75.96379554811574 116.36480970765115,76.07614581822418 115.85250965249725,76.01997070765356 115.05427468282869,75.60567775530217 114.80408163263928,75.34586556235445 114.46453392168041,74.7841058897975 114.14285714286962,73.82910321110103 114.43474903472816,73.49204006404034 117.02603419744992,71.41344504148583 118.46166574736708,69.81934195546637 120.20110314394697,68.28840407870302 122.33965802536113,66.87681904034253 123.14384997240268,66.74338402922149 123.41191395476926,66.59590290598135 124.09696635408909,65.88658421686705 124.77606177606503,64.41876134156337 125.38963044676348,63.82881354114943 129.4225041368045,61.72181301563978 132.89542195256217,60.36627292020421 133.81875344732543,60.1485410236055 135.98113623828976,59.361890620064514 137.28571428571013,58.75082519569696 134.07490347491694,59.9869975280526 132.80011031441973,60.32413132021611 131.60871483728988,60.76661674516072 131.44191947049694,61.14588754772558 131.56701599556254,61.45492136570101 131.93039161610068,61.60943771884922 132.28185328183463,62.234522820108396 133.5209045780357,64.93847278592148 135.45692222836078,68.59740364373283 135.45692222836078,68.78701627968985 135.8977385548642,69.57355162772001 136.69001654715976,71.49069132603472 136.90446773305302,72.29826057591708 137.19635962491157,72.3684835107706" stroke="#4DD2FF" stroke-linecap="round" stroke-linejoin="round" stroke-width="0.5"><title>2025-09-26 11.4km</title><desc>1758886655000</desc></polyline><polyline fill="none" points="163.0,73.62289859772136 158.60603272391018,72.72915312040277 153.70656478777528,70.46036345522589 152.91590990920668,70.2159103575541 145.02232267873478,68.69569853179564 143.73264791775728,68.65750183039927 142.27447293675505,68.77973120161914 141.56806816818425,68.67278051344329 140.5894707365078,67.94703939242027 140.24598951873486,67.42755692557694 139.90250830099103,66.55665121563652 139.92843141179765,66.22814888429275 140.57650918111904,65.66281568799604 139.93491218946292,66.18995083891059 139.85714285713038,66.42677838484815 140.54410529264715,67.95467881174409 140.90054806577973,68.31373058168538 141.50974116893485,68.64986248761124 142.2615113813663,68.81028851115843 144.17982157855295,68.66514117232873 145.03528423412354,68.71097720653052 152.48169780371245,70.15479694998066 153.69360323241563,70.47564174557192 158.59307116855052,72.76734760451654 160.25863103571464,73.11109702548129" stroke="#4DD2FF" stroke-linecap="round" stroke-linejoin="round" stroke-width="0.5"><title>2025-09-25 7.3km</title><desc>1758798919000</desc></polyline><polyline fill="none" points="188.71428571426077,70.7534659341909 188.27891156464466,72.28497076032363 183.82312925171573,71.4189928875494 178.62585034014774,69.02146397621254 177.3197278911539,68.62053178945644 169.2925170067756,67.08895073454187 167.91836734692333,67.06489423344465 166.4625850339944,67.20121430240397 165.57142857142026,67.00074352539377 166.33333333334303,67.23328957606282 168.06802721085842,67.10498839757201 169.51700680272188,67.17715783799213 177.6598639455915,68.71675571342348 178.39455782313598,68.94127771354397 183.7551020407991,71.42701124789892 187.68027210887522,72.196769776172" stroke="#4DD2FF" stroke-linecap="round" stroke-linejoin="round" stroke-width="0.5"><title>2025-09-23 6.7km</title><desc>1758623965000</desc></polyline><polyline fill="none" points="34.428571428579744,99.14129511587817 29.71839512171573,98.22161200056144 24.363969775964506,95.75781994916906 23.16852989263134,95.37811900060478 14.614334320183843,93.71585071866866 13.275727983738761,93.6736607042476 11.285714285710128,93.80866866956057 14.385267995210597,93.71585071866866 22.925146922381828,95.3443677151372 24.235119968187064,95.70719326354447 29.818611638911534,98.27223704313656 34.428571428579744,99.18348215289734" stroke="#4DD2FF" stroke-linecap="round" stroke-linejoin="round" stroke-width="0.5"><title>2025-09-22 6.4km</title><desc>1758538508000</desc></polyline><polyline fill="none" points="59.16306844280916,106.67039958831447 55.13229214516468,105.87368615303421 50.382177308230894,103.71739593416714 49.470601745531894,103.4177026575926 42.134588883811375,101.98500411213172 40.70831419384922,101.91921619954519 39.275838309607934,102.04348220251268 38.674322462116834,101.93383574124891 38.09141019752133,101.62682469660649 37.65732659623609,101.22478429992043 37.0,99.70431883812853 37.11162149748998,99.52156826625287 39.79053743684199,97.37969446265924 41.508268259087345,95.50092975131702 43.37482774461387,93.84874298876093 45.61966008270974,92.39390768198064 46.47542489663465,92.27693462868774 46.80408819479635,92.02105536351155 47.49862195685273,91.18761327568063 48.0939366100356,89.85700883054233 48.745062011963455,89.25749710369564 51.53559944880544,87.7148264407806 55.0578778135241,86.18674326883047 55.06407900780323,86.64736530680239 55.553973357833456,87.02024749672273 56.025264124938985,87.85374136645987 56.2609095085063,88.53368922039226 57.80500689020846,91.52391571517364 57.84221405602875,91.76517512228747 58.728984841523925,93.23464550125937 60.142857142869616,96.40011164417956" stroke="#4DD2FF" stroke-linecap="round" stroke-linejoin="round" stroke-width="0.5"><title>2025-09-21 9.0km</title><desc>1758451095000</desc></polyline><polyline fill="none" points="84.52336448596907,105.0518647143108 84.22296395193553,106.32655732265266 84.11481975967763,106.35488354127301 80.17356475300039,105.58298967104201 75.49933244325803,103.43721820502105 74.72429906539037,103.2035160465748 67.61682242990355,101.8225315992895 64.4746328437468,101.8225315992895 63.915887850453146,101.58882363700832 63.363150867808145,101.10015881942672 63.0627503337455,100.62565468471439 62.71428571428987,99.61289547006163 63.2009345793922,99.09588643167808 65.45994659542339,97.31819384339906 67.27436582106748,95.36338412075565 68.7763684912934,94.05306208573893 71.155540720938,92.49480690207565 71.85847797061433,92.42397623332363 72.16488651532563,92.21856685742387 72.88584779703524,91.36150693881063 73.45660881171352,90.07235420503275 74.11148197593866,89.48443540193693 76.947263017355,87.9260706717323 80.19759679574054,86.50225931587192 80.20961281709606,86.99811755749397 80.69025367154973,87.31688157184544 80.98464619493461,87.86940215918003 81.84379172229092,89.781937147789 83.82042723629274,93.52184292471065 85.47263017354999,97.28278114661225 85.79105473964592,98.51513164965581 85.85714285713038,99.3296033555016 85.73698264351697,100.5760794260641 85.40053404538776,101.7729572532553" stroke="#4DD2FF" stroke-linecap="round" stroke-linejoin="round" stroke-width="0.5"><title>2025-09-18 10.1km</title><desc>1758194958000</desc></polyline><polyline fill="none" points="103.09045381800388,97.72994445372024 103.02354277455015,97.91725359671545 103.53373948062654,98.06512896213826 111.57142857144936,99.63259298585035 96.73390469310107,96.68494949102023 90.46099437246448,93.76678647209337 88.42857142857974,93.22454987129458 90.41917497033137,93.79636292053328 96.8342712582089,96.72438348221476 101.72714130830718,97.71022767928662" stroke="#4DD2FF" stroke-linecap="round" stroke-linejoin="round" stroke-width="0.5"><title>2025-09-16 5.4km</title><desc>1758020593000</desc></polyline><polyline fill="none" points="137.2786499214999,99.10985070835159 132.57378335951944,98.16893249398709 127.16954474098748,95.67919038992841 126.08163265307667,95.37108957586315 117.48430141288554,93.72231276737875 114.14285714286962,93.78893070150662 114.58084772372968,93.86387580798328 116.39638932497473,93.71398552152095 117.63971742545255,93.75562174167862 126.34301412873901,95.42937901429104 127.26138147569145,95.74580661889195 132.63029827317223,98.21056628812221 137.28571428573923,99.1431573356167" stroke="#4DD2FF" stroke-linecap="round" stroke-linejoin="round" stroke-width="0.5"><title>2025-09-15 6.5km</title><desc>1757932870000</desc></polyline><polyline fill="none" points="162.9999999999709,106.88089043473155 158.73036314186174,106.02557998204429 153.68325067986734,103.7116074493606 153.02239641654887,103.50540817170986 144.93017117257114,101.9321640904891 143.70564709644532,101.90161531235208 142.27379619257408,102.03144752752269 141.64533674609265,101.93980128295516 140.95856662929873,101.58085233828024 140.58278675409383,101.22190155596036 140.21348584227962,100.61091727474559 139.9024956006615,99.81662974902429 139.85714285713038,99.5798692263852 139.96728523433558,99.427120077773 142.70788673806237,97.18166918732459 144.53495440728148,95.19583636072639 146.4527275635919,93.50019611298922 148.9212126059574,91.91908919534035 149.7246040633181,91.81979143532226 150.08094704843825,91.5677272588 150.754759238509,90.81916769409145 151.4026555751043,89.35257883964368 152.07646776511683,88.6956592962888 155.14749640054652,87.01513941535086 157.42809150533867,85.9762524224061" stroke="#4DD2FF" stroke-linecap="round" stroke-linejoin="round" stroke-width="0.5"><title>2025-09-13 7.0km</title><desc>1757768754000</desc></polyline><polyline fill="none" points="188.71428571428987,99.24809483383433 183.59825795333018,98.24305741984426 177.96911826351425,95.64591231398663 177.04853509709937,95.34349963860586 167.80497461458435,93.54678947526554 165.57142857142026,93.55568417741597 167.92570683313534,93.61794706523506 176.77688760540332,95.32571062284842 177.85593180867727,95.64591231398663 183.64353253526497,98.29642254920327 188.68410265963757,99.31035338188667" stroke="#4DD2FF" stroke-linecap="round" stroke-linejoin="round" stroke-width="0.5"><title>2025-09-11 6.0km</title><desc>1757587445000</desc></polyline><polyline fill="none" points="32.217507783614565,132.91105118988344 28.282166389079066,132.13680631713942 23.918688002275303,130.1112817578396 22.915791760198772,129.81401503532106 15.971761639259057,128.47284088399465 14.76359423645772,128.4313608192533 13.402939685736783,128.5419742649683 12.728477300697705,128.4175341250011 11.895662877388531,127.76767609658418 11.54963434941601,127.15237885191164 11.285714285710128,126.28818725566816 13.872130910138367,124.1380275003321 14.663891101285117,123.384417289657 15.590543769474607,122.2920122872165 17.297226848138962,120.79165324477071 18.558178263687296,120.0518318089089 19.408587357902434,119.42263108930638 20.16515820720815,119.29817306488985 20.505321844888385,119.09765684539161 21.179784229956567,118.32324342687207 21.75454347982304,117.0094847569926 22.399681413342478,116.44248576853715 25.05061183113139,114.96964764341101 28.346680182468845,113.51752023868175 28.340815292147454,114.00848131901148 28.827601187455002,114.30582209749991 29.161899934813846,114.91432911324227 29.812902758654673,116.43557111544942 32.416914053988876,121.47615324547223 32.5576714212948,121.96013868847513 32.733618130441755,122.15373183201154 33.50191876036115,124.03432020424952 33.695460140443174,124.78100895322859 33.97697487505502,124.85706009205751 34.059083339350764,126.21213783186249 33.75410904348246,128.23087345754175 33.98283976537641,128.396794077933 34.41684164793696,128.47975422546733 34.42857142855064,128.6041942434822" stroke="#4DD2FF" stroke-linecap="round" stroke-linejoin="round" stroke-width="0.5"><title>2025-09-09 10.0km</title><desc>1757415422000</desc></polyline><polyline fill="none" points="60.110979929188034,126.25782157469803 54.61216056672856,125.14001190068666 48.7706611569738,122.42527095193509 47.70277449823334,122.08709654428822 37.972255017695716,120.18953777322167 37.0,120.17074985388172 40.06818181814742,120.59347704901302 47.8701298701053,122.15285278295778 54.89108618651517,125.24333945297258 60.14285714284051,126.25782157469803" stroke="#4DD2FF" stroke-linecap="round" stroke-linejoin="round" stroke-width="0.5"><title>2025-09-08 5.7km</title><desc>1757333196000</desc></polyline><polyline fill="none" points="85.85714285713038,126.20377768302569 80.66585127200233,125.2228798548822 74.61066536200815,122.42959506731859 73.73091976516298,122.13064281191328 64.20430528375437,120.27151008577493 62.71428571428987,120.16874277984607 63.83972602739232,120.24348265091248 73.50107632094296,122.11195826135372 74.70577299408615,122.50433296835399 80.60244618391152,125.23222179185541 85.78581213305006,126.2598286487264" stroke="#4DD2FF" stroke-linecap="round" stroke-linejoin="round" stroke-width="0.5"><title>2025-09-04 5.8km</title><desc>1756983645000</desc></polyline><polyline fill="none" points="111.57142857144936,125.91104938605713 107.01656936813379,125.00122612973792 101.57160027473583,122.51759854939155 98.62311126373243,121.82905362054589 92.19763049451285,120.60769057020661 90.88332760988851,120.58309916429425 89.29086538462434,120.71425323637231 88.42857142857974,120.51752204251534 88.8249484890257,120.6978589898572 89.37431318679592,120.77163307101728 90.88332760988851,120.62408483635954 92.28107829674263,120.66507048611675 101.00137362640817,122.3618567953672 101.93320741760544,122.6979307040965 107.03047733521089,125.05860269603 109.88856456041685,125.57498982451943" stroke="#4DD2FF" stroke-linecap="round" stroke-linejoin="round" stroke-width="0.5"><title>2025-09-02 6.2km</title><desc>1756809719000</desc></polyline><polyline fill="none" points="137.28571428573923,126.21225115565176 132.0627503337746,125.19250117793854 125.00534045393579,122.06708162709401 115.44859813086805,120.21632690599654 114.14285714286962,120.12189958536328 115.40053404541686,120.23521235780936 124.51668891857844,122.00098392455402 125.75033377838554,122.36924191131402 132.1909212283208,125.31524949539744 137.27770360480645,126.30667184320919" stroke="#4DD2FF" stroke-linecap="round" stroke-linejoin="round" stroke-width="0.5"><title>2025-08-29 5.7km</title><desc>1756465472000</desc></polyline><polyline fill="none" points="163.0,126.09758922240871 157.98584129076335,125.10957013034204 152.06486664476688,122.39694776729448 151.14281010397826,122.118494727074 141.84604167650105,120.31301833219186 139.85714285713038,120.31301833219186 141.94510560235358,120.39386140418355 151.39428006965318,122.21730075219966 157.87153676094022,125.11855217539414 162.87807516817702,126.11555309637333" stroke="#4DD2FF" stroke-linecap="round" stroke-linejoin="round" stroke-width="0.5"><title>2025-08-27 6.0km</title><desc>1756291993000</desc></polyline><polyline fill="none" points="187.66897566069383,126.1088989103373 183.77212126960512,125.39319533271919 182.0811785358528,124.95833445563039 176.7470228211023,122.4578402967818 175.647910044092,122.1045035395 166.9779854817898,120.41027823583136 165.57142857142026,120.25625604249217 167.88494567538146,120.59148045108304 175.6325378374313,122.11356347511901 176.57792854768923,122.4125407963802 181.64307064571767,124.82243996534817 182.91127769605373,125.26636114505527 187.66128955731983,126.1723153860803 187.84575603736448,125.46567192454677 188.71428571428987,125.61062491883786 188.28386392752873,125.5109697624066 188.314608340821,125.29353991581593" stroke="#4DD2FF" stroke-linecap="round" stroke-linejoin="round" stroke-width="0.5"><title>2025-08-26 6.0km</title><desc>1756205162000</desc></polyline><polyline fill="none" points="34.428571428579744,154.3217841253354 30.01209435996134,153.45290224928613 25.207639803615166,151.24254008002754 24.211830918473424,150.9300349681289 16.271225003001746,149.39797752110462 13.620045503543224,149.51231132457906 12.915219734160928,149.35224394740362 12.236259130644612,148.94064043914113 11.887079391686711,148.52141215492156 11.311579451547004,147.08839468991937 11.731888396578142,146.62341995094175 12.908753442694433,145.67821587467188 11.51203448686283,146.79111611466215 11.285714285710128,147.10363971102197 11.654292899067514,148.16316053999617 11.958208597759949,148.66623675524897 13.025146689004032,149.42084429672832 13.691174709616462,149.55804479363724 15.139623997121817,149.42846655362519 16.335887917579385,149.45133331930265 24.334690456220414,150.99101168492052 25.21410609508166,151.28827241836552 29.934498862421606,153.45290224928613" stroke="#4DD2FF" stroke-linecap="round" stroke-linejoin="round" stroke-width="0.5"><title>2025-08-23 7.3km</title><desc>1755948655000</desc></polyline><polyline fill="none" points="60.14285714284051,151.99993067123432 59.792751856381074,153.20618624910276 53.87687022058526,152.0422556818521 46.632383907795884,148.74084948337986 39.5853928848519,147.21708570776536 37.0,146.79381375089724 46.17455391777912,148.64561494759982 53.61653552035568,151.99993067123432 58.45517012081109,152.983982399448" stroke="#4DD2FF" stroke-linecap="round" stroke-linejoin="round" stroke-width="0.5"><title>2025-08-19 5.0km</title><desc>1755607675000</desc></polyline><polyline fill="none" points="85.19034675569856,156.02485532210267 80.98827321088174,155.19442061980953 76.11311303536058,152.94033251106885 75.28905370249413,152.7030557371545 67.59573641902534,151.22747223635815 64.72096454779967,151.30903798860527 63.771094629744766,150.86413269812329 63.11687958682887,150.07071104692295 62.752028889837675,148.8842688942823 65.47582805884304,146.66704968768317 68.04236399641377,143.97514467789733 67.2875004853413,144.64998485945398 65.55131440993864,146.53356930342852 62.71428571428987,148.89168422196963 62.85267735796515,149.45524676152854 63.3810818157217,150.48596091502986 63.82770939308102,150.90120825007034 64.60144449191284,151.2793777263796 65.02920048148371,151.34611329822656 66.51376538656768,151.21264208907814 67.75299965054728,151.22747223635815 70.87310216287733,151.82067547807674 71.14359492098447,151.7242803030531 72.38282918493496,151.95414549510315 72.75397041119868,152.11727516055544 74.63483865957824,152.39904366198607 75.84891080649686,152.79203462428268 76.47796373238089,152.77720481783763 76.46538267383585,152.9477473969455 76.86797654643306,152.93291762439185 76.56603114199243,153.13311928097392 77.02523977786768,153.414883578007 80.71148992350209,155.07578626408213 81.41602920045261,155.27598161948117 81.63619772449601,155.17217669386446 82.83768881292781,155.26115235406905 82.83768881292781,155.54290784433397 84.8758202928002,155.95070977832802 85.23438046051888,155.98778256029618 85.33502892864635,155.47617638622614 85.67471750863479,155.4168594796647 85.85714285713038,154.80144352469506" stroke="#4DD2FF" stroke-linecap="round" stroke-linejoin="round" stroke-width="0.5"><title>2025-08-16 10.0km</title><desc>1755297330000</desc></polyline><polyline fill="none" points="102.35608726250939,149.19378679780493 101.93807178048883,151.32141272515582 111.57142857147846,153.2138430054256 95.59183673473308,150.0448424515489 88.42857142857974,146.7861569945744 95.37332864181371,150.03364439657162 101.40605207608314,151.2430272878628" stroke="#4DD2FF" stroke-linecap="round" stroke-linejoin="round" stroke-width="0.5"><title>2025-08-13 5.0km</title><desc>1755095249000</desc></polyline><polyline fill="none" points="137.15613501842017,154.30734823200328 132.91241401375737,153.45967351051513 128.08558630617335,151.2373424862817 127.18501039833063,150.94713598488306 119.2547592385381,149.41971354861744 116.44288913777564,149.51135983311542 115.82090865462669,149.3815275613888 115.17949128139298,148.99966654519812 114.84258518638671,148.66362713056878 114.5315949448268,148.14429032184125 114.16229403295438,147.1056051634223 114.96568549034419,146.3113061294498 115.89865621502395,145.6010118713093 115.19244920814526,146.09745485191524 114.14285714286962,147.1132426104523 114.82962725966354,148.67126440789434 115.36738121902454,149.17532287095673 115.8144296912651,149.40443915622018 116.44288913777564,149.54190856799687 118.64573668211233,149.41207635282626 119.44264917614055,149.46553670582944 127.55431131020305,151.09223938571085 132.7893137097999,153.45967351051513 137.28571428571013,154.39898812869797" stroke="#4DD2FF" stroke-linecap="round" stroke-linejoin="round" stroke-width="0.5"><title>2025-08-12 8.1km</title><desc>1754996616000</desc></polyline><polyline fill="none" points="162.9999999999709,152.68413782557036 158.3335928376182,151.75091104075545 153.06461658229819,149.32281586006866 152.1957960295549,149.03375173120003 147.24211755546276,147.99311174312606 143.50759050212218,147.34889887909958 142.19034643829218,147.31586217442964 140.52277150639566,147.4562680698582 139.85714285713038,147.34063970428542 140.46671856753528,147.4562680698582 142.12028026467306,147.3323805285545 143.52160373685183,147.35715805303334 152.1187232385564,149.04201072160504 153.12066952118766,149.39714645795175 158.11638769943966,151.70135885498166 162.60062281039427,152.62632765043963" stroke="#4DD2FF" stroke-linecap="round" stroke-linejoin="round" stroke-width="0.5"><title>2025-08-10 6.4km</title><desc>1754781124000</desc></polyline><polyline fill="none" points="186.41931986555574,159.6830436289565 182.567055762338,158.91016996276085 178.1995952441066,156.89513357656324 177.3682555744017,156.619096204402 170.17306927830214,155.21128689936086 169.5290737595351,155.16988026979016 167.5151241371641,155.28719898332565 167.07603628345532,155.18368248266415 166.4613132882805,154.83172511522207 166.03393444398534,154.34864319205735 165.6299736185756,153.4031721971587 165.57142857142026,153.0443035996759 168.129847132368,150.94626188410984 169.8979075566458,149.0414006683386 171.5664414007333,147.58510943411602 173.66820859382278,146.21160976763713 173.90238878247328,146.1011763399256 174.49369375879178,146.08047005078333 174.72201944273547,145.92862372361924 175.36601496150251,145.21770198580998 176.02757399441907,143.79583456811451 176.62473347547348,143.22983962543003 179.30024213076103,141.78721988014513 182.60803729534382,140.3169563710435 182.60803729534382,140.8208533437246 183.1934877669555,141.20049909904992 183.36912290845066,141.42138285470355 183.46279498390504,141.78031731430747 185.52943514869548,145.45927822876183 186.3783383325208,147.3228354166895 186.91109826171305,148.06134105770252 186.91695276641985,148.27529902720198 187.15698745980626,148.64109646222278 187.59022080880823,149.90411664916974 187.9239275775908,150.49765842114357 188.20494380395394,151.72613418836772 188.29861587943742,152.96838882816155 188.0351631672238,154.74891133283745 188.10541722382186,154.85242854389435 188.71428571426077,155.0387590975697 188.6440316576918,155.59084640962465" stroke="#4DD2FF" stroke-linecap="round" stroke-linejoin="round" stroke-width="0.5"><title>2025-08-08 10.0km</title><desc>1754654808000</desc></polyline><polyline fill="none" points="34.42857142863795,180.02577291264606 28.254093732393812,178.7642858300096 21.174025974061806,175.49728302836593 13.865273856616113,173.9230451673575 11.285714285739232,173.54565565878147 21.00937323551625,175.49728302836593 28.43704121967312,178.87210586698347 34.273066064401064,179.99342729077762" stroke="#4DD2FF" stroke-linecap="round" stroke-linejoin="round" stroke-width="0.5"><title>2025-08-07 5.0km</title><desc>1754573743000</desc></polyline><polyline fill="none" points="60.14285714284051,180.03730749995884 54.02483983366983,178.81396857111395 47.03282005171059,175.60531448527763 46.140609194058925,175.33702763760812 37.0,173.5341210714687 39.43081937730312,174.04924059961195 39.63111161062261,173.9633875319414 40.168258963676635,174.18875167502847 46.53208946832456,175.487268362318 54.10677756543737,178.8998174125154 59.73316848371178,180.02657652273047" stroke="#4DD2FF" stroke-linecap="round" stroke-linejoin="round" stroke-width="0.5"><title>2025-08-04 5.0km</title><desc>1754309955000</desc></polyline><polyline fill="none" points="85.85714285715949,179.47887390688265 81.23137917587883,178.5522225261011 75.89665930069168,176.10316089617845 75.09645131940488,175.8383927476243 66.63109320163494,174.1670225110065 65.14298713119933,174.09255466454488 63.33199012093246,174.2332160910155 62.71428571428987,174.10082887329918 62.84765371121466,174.2001193082324 63.6969972702791,174.25803866866045 66.14675679191714,174.12565149420698 69.50903418695088,174.78758505924634 70.04952554273768,174.79585919231613 70.98310152089107,175.0771791802399 75.00519953205367,175.8466667662433 76.12127908488037,176.243818599738 81.14714675681898,178.5439488021657 85.37982581570395,179.396137635973" stroke="#4DD2FF" stroke-linecap="round" stroke-linejoin="round" stroke-width="0.5"><title>2025-08-03 6.5km</title><desc>1754227262000</desc></polyline><polyline fill="none" points="108.89085963618709,179.49630756306578 102.74941916472744,178.27359868671192 95.01065336883767,174.8326203848992 88.42857142857974,173.4908229645589 95.57981526607182,174.98411250352365 102.98809996037744,178.3709831309825 111.57142857142026,180.08060560686863 109.0836402788409,179.51794829262508 109.0836402788409,179.3556427060612" stroke="#4DD2FF" stroke-linecap="round" stroke-linejoin="round" stroke-width="0.5"><title>2025-08-01 5.0km</title><desc>1754057984000</desc></polyline><polyline fill="none" points="135.07159127888735,186.4460356657073 131.1236576635274,185.6658664918432 126.77741620570305,183.663618479688 125.84607875041547,183.36672804594855 118.81711682397872,182.00653781575966 117.53433127238532,181.96511024413485 116.25740318908356,182.07558370826882 115.64822648878908,181.96511024413485 115.14448421739507,181.68202111347637 114.7754637162434,181.32988408894744 114.35372600067058,180.52893768927606 114.14285714286962,179.83155370215536 116.72600065087317,177.69102027665213 118.51838594209403,175.77828892417165 120.15847705828492,174.3419761663754 121.39440286369063,173.63071308512008 122.3608851285826,172.9194420202184 123.04620891640661,172.85038615182566 123.29222258384107,172.69846297644108 124.04197852264042,171.83525620186265 124.6277253498265,170.53697106867912 125.2017572405166,170.0190307463854 127.94305239184177,168.51352683576988 131.15294500489836,167.12539290572022 131.2056622193486,167.5742952654473 131.6742596811091,167.89888422092918 132.16042954768636,168.76905066238396 132.45916042957106,169.60467544002313 133.19720143184531,171.13087076060037 135.11845102507505,174.72867895750824 135.3761796290637,175.50207746052183 136.13765050441725,177.09718206475372 136.65310771236545,178.87177507413435 136.68825252199895,179.97655496497464 136.61796290273196,180.37703291997605 136.79954441916198,180.50822342399624 136.62967783925706,181.5508330388766 137.28571428573923,181.79939968692634 137.26228441263083,182.1377249472498" stroke="#4DD2FF" stroke-linecap="round" stroke-linejoin="round" stroke-width="0.5"><title>2025-07-28 10.0km</title><desc>1753704756000</desc></polyline><polyline fill="none" points="160.72762288013473,179.62339309346135 154.5810290313675,178.39394858543528 147.54038516816217,175.16658540300705 146.39488358725794,174.78236861684127 139.8571428571595,173.4760205880084 147.11198620294454,175.03485409847053 153.17476286290912,177.8889938183056 154.748663409031,178.48176654760755 163.0,180.09540798341914 160.82075308996718,179.60143885875732 160.93250934174284,178.88792362737877" stroke="#4DD2FF" stroke-linecap="round" stroke-linejoin="round" stroke-width="0.5"><title>2025-07-22 5.0km</title><desc>1753194638000</desc></polyline><polyline fill="none" points="178.73512963904068,178.00730853663117 186.40137264868827,179.52813625075942 188.71428571426077,179.66565637082385 186.6964921199542,179.5524045257407 174.0612608032534,177.07699964019412 168.55007625825237,174.57724237036746 165.57142857142026,173.90577220060368 168.51576004066737,174.59342229957838 173.68378240973107,176.97992325796804 175.81138790035038,177.43294528967817" stroke="#4DD2FF" stroke-linecap="round" stroke-linejoin="round" stroke-width="0.5"><title>2025-07-19 6.4km</title><desc>1752877000000</desc></polyline><polyline fill="none" points="32.30915434093913,213.29478209272202 28.370570919767488,212.51064360228338 23.89624595703208,210.46351091274119 23.130900897609536,210.2206263984699 15.860122833168134,208.81881768033054 13.340371406753547,208.902094307472 12.79285532576614,208.79799850654672 12.28066286293324,208.49958960124786 11.780244939465774,207.97216579217638 11.344586982595501,206.99364426550164 11.285714285710128,206.6397072459804 13.858451139269164,204.5091036395752 15.559872079087654,202.66298556136462 17.23774394011707,201.19854557068902 19.286513791477773,199.8312418194837 19.645637242414523,199.65772401607683 20.19315332340193,199.6299611236609 20.581713122781366,199.3870352987724 21.21753824906773,198.6304889361927 21.788603408815106,197.33253983678878 22.394992186658783,196.77031837927643 25.373950648703612,195.14609517376812 28.417669077316532,193.84807505013305 28.423556346970145,194.34785063684103 28.894537921994925,194.66020838652184 29.206563215440838,195.23633088318456 29.84827561143902,196.7078490220374 31.826398226548918,200.42813945296803 32.34447795909364,201.67050147223927 32.48577243159525,201.80237087846763 33.374750154442154,204.07881022302172 33.57491732382914,204.36335942078586 33.89282988695777,205.55012407655886 33.95170258387225,206.3343482372875 33.85750626886147,207.52801603995613 33.569030054146424,208.64532435752335 34.42857142855064,208.83963684731862" stroke="#4DD2FF" stroke-linecap="round" stroke-linejoin="round" stroke-width="0.5"><title>2025-07-17 10.0km</title><desc>1752756134000</desc></polyline><polyline fill="none" points="60.14285714284051,206.83715320611373 54.00739402830368,205.60849764767772 46.226054072380066,202.14878031014814 37.0,200.30570393674134 46.63752328278497,202.3212301444437 53.83366258395836,205.59771989982983 59.859400575689506,206.82637559208524" stroke="#4DD2FF" stroke-linecap="round" stroke-linejoin="round" stroke-width="0.5"><title>2025-07-14 5.0km</title><desc>1752500928000</desc></polyline><polyline fill="none" points="85.85714285710128,206.81334729316586 79.72310957213631,205.60832446050335 73.3809896123712,202.6650205070764 71.8791466546827,202.12113943965232 62.71428571426077,200.32950984968193 72.47626493906137,202.28110477307928 79.83167653292185,205.65098038915312 85.20574109232984,206.72803642991494" stroke="#4DD2FF" stroke-linecap="round" stroke-linejoin="round" stroke-width="0.5"><title>2025-06-21 5.0km</title><desc>1750468889000</desc></polyline><polyline fill="none" points="104.2625987737265,204.99270042486387 110.28069772777962,206.19475270412659 111.57142857142026,206.26361952147272 110.46129381289938,206.19475270412659 100.62411882355809,204.27270916015186 99.56710056067095,203.85949270967103 96.40666907111881,202.3568623973515 95.8489458670665,202.1752919081955 89.4006032984762,200.9230660215071 88.42857142857974,200.8792376213787 89.2890586576832,200.89802122554465 91.8014689006086,201.3613481848115 96.32168267812813,202.3380792698772 99.68395685101859,203.92836232435366 100.54444408012205,204.26018749317154 101.4792944030778,204.44801221155285" stroke="#4DD2FF" stroke-linecap="round" stroke-linejoin="round" stroke-width="0.5"><title>2025-06-17 8.1km</title><desc>1750165544000</desc></polyline><polyline fill="none" points="137.28571428568102,206.79934419646452 131.45077891944675,205.6390140897638 123.84388465358643,202.2423315125052 114.14285714284051,200.34351294639782 123.86178322834894,202.28452705782547 131.32548889622558,205.62846557050216 136.24759695056127,206.63056977203087" stroke="#4DD2FF" stroke-linecap="round" stroke-linejoin="round" stroke-width="0.5"><title>2025-06-15 5.0km</title><desc>1749939796000</desc></polyline><polyline fill="none" points="155.84881281727576,204.89796699699582 161.3107044051576,205.98931206904308 162.9999999999709,206.09380138271808 161.670233788318,206.012531934226 152.52932234821492,204.23618303955664 151.63788648037007,203.89948278505108 148.65822515424225,202.48299635151125 147.99334204845945,202.26239261760202 141.98476879578084,201.1013052848175 141.25585990940453,201.04905576014426 139.85714285713038,201.15936025218616 141.8419420545397,201.08969428377168 147.73723892620183,202.22756036563806 148.4513726324367,202.4249428258372 150.15544340739143,203.23188116386154" stroke="#4DD2FF" stroke-linecap="round" stroke-linejoin="round" stroke-width="0.5"><title>2025-06-11 8.1km</title><desc>1749642919000</desc></polyline><polyline fill="none" points="188.71428571431898,206.79223891332367 182.7019885891932,205.62875940347294 175.14623608265538,202.2545900044206 165.57142857142026,200.3506182295314 175.2539190162206,202.29690006434976 182.76480363373412,205.6816451380946 187.71821857866598,206.67589158952615" stroke="#4DD2FF" stroke-linecap="round" stroke-linejoin="round" stroke-width="0.5"><title>2025-06-08 5.0km</title><desc>1749387304000</desc></polyline><polyline fill="none" points="20.251548451255076,236.57686916034436 22.743856143555604,235.08874217662378 27.987412587273866,234.13481129688444 30.641558441449888,232.1506267435616 33.522277722135186,232.22694174185744 34.299100898904726,231.57826372547424 29.185014984803274,223.2598155985761 25.721678321482614,223.94666742376285 22.420179820037447,225.89274027882493 20.57522477512248,225.89274027882493 17.629770229686983,227.26643225341104 12.80699300672859,228.25853977247607 12.968831168720499,231.3874758449092 11.285714285681024,233.48613681437564 12.709890109719709,235.0505849912588 13.324875124846585,236.9965961408161 14.23116883111652,237.56895030318992 19.86313686298672,236.38608400305384 22.840959040797316,235.0505849912588 27.178221778012812,234.47822671296308 30.803396603208967,232.1506267435616 33.36043956025969,232.26509923490812 34.39620379603002,231.3874758449092 29.185014984803274,223.14534016340622 25.33326673298143,223.98482581897406 22.48491508467123,225.85458209153148 19.895504495245405,226.12168931550696 16.723476523300633,227.53353840045747 12.904095903853886,228.18222390924348 13.001198800979182,231.57826372547424 11.285714285681024,233.48613681437564 12.80699300672859,235.12689935782691 13.583816183614545,237.11106704798294 14.684315684251487,237.6452641208889 23.553046952700242,234.9361134104547 27.27532467513811,234.51638396058115 30.479720279574394,232.3414142083784 33.45754245726857,232.30325672373874 34.428571428521536,231.34931825625245 28.828971028793603,223.0308646907506 25.009590409346856,224.21377610304626 22.355444555403665,225.85458209153148 13.065934065612964,227.99143417846062 13.033566433470696,231.3874758449092 11.318081917823292,233.4098220904998 12.774625374469906,235.0505849912588 13.324875124846585,236.88212519601802 14.975624375394545,237.68342102351016 28.052147851907648,233.71508088664268 29.67052947031334,231.54010615771404 29.185014984803274,229.3651179203007 27.048751248628832,226.6940612522303 25.236163835972548,225.77826570448815 23.682517482317053,225.7019493006519 21.902297702152282,226.4269544648705 19.021578421466984,229.89932680904167 14.425374625250697,230.66248095076298 11.674125873949379,232.83746113043162 11.577022976824082,233.7532382173813 13.130669330479577,235.62294233424473" stroke="#4DD2FF" stroke-linecap="round" stroke-linejoin="round" stroke-width="0.5"><title>2025-06-04 6.4km</title><desc>1749041988000</desc></polyline><polyline fill="none" points="60.14285714284051,233.5991079468222 54.21132221794687,232.41447439306648 47.45421813550638,229.2941650770299 46.43123026646208,228.95568481887312 37.0,227.1151777674604 46.70043760043336,229.06146002624882 54.076718550990336,232.39332009115606 59.00321276241448,233.40872138582927" stroke="#4DD2FF" stroke-linecap="round" stroke-linejoin="round" stroke-width="0.5"><title>2025-05-28 5.0km</title><desc>1748436903000</desc></polyline><polyline fill="none" points="85.85714285715949,233.58897441886074 79.43060578661971,232.27253646807367 71.98790687159635,228.90582870317303 62.71428571426077,227.11452089269005 71.68580470158486,228.84108320189262 72.802667269425,229.1971829353206 79.9707278481219,232.47755664301076 85.74728752259398,233.59976482159254" stroke="#4DD2FF" stroke-linecap="round" stroke-linejoin="round" stroke-width="0.5"><title>2025-05-27 5.0km</title><desc>1748351986000</desc></polyline><polyline fill="none" points="105.56694147601957,235.13120187274035 105.59786892862758,233.7457059796725 106.32466406573076,232.10040991324786 106.80403958173702,229.0478961027111 106.7731121290708,229.3293366263897 106.07724444457563,229.41593358471437 102.69068838004023,231.81897554986062 101.40719909529435,232.1220586845593 100.89689612668008,231.27775386167923 101.48451772687258,230.3251980709174 102.56697856949177,229.48088126459334 102.39687757991487,228.03037514313473 102.90718054852914,227.09944454810466 102.22677659039618,226.70975063848164 99.73711665254086,226.75305002106325 99.08764014695771,225.8004601845023 99.30413231556304,224.67466295431223 99.78350783151109,224.82621316458972 99.73711665254086,224.09011044372164 100.44844806334004,224.52311256260145 101.74740107444813,224.47981241735397 102.78347073798068,225.17261296395736 104.19066983333323,225.21591287230694 104.76282770722173,224.9344632037537 106.17002680251608,222.96429800324404 106.23188170779031,219.67340423043788 105.72157873917604,219.0888286252448 104.91746497043641,218.78571428571013 103.92778648581589,219.0671776250747 103.04635408549802,220.04146896731254 102.36595012724865,220.27962793266488 100.97421475831652,220.0198181300293 99.50516075768974,219.2187345486018 98.15981656772783,219.67340423043788 97.47941260947846,220.71264308538957 97.51034006214468,221.8168250206145 98.09796166233718,222.63954255401768 99.4278421261115,223.26740233750752 99.73711665254086,224.02515999817842 99.13403132592794,225.4324121915124 99.56701566302218,226.7314003316642 99.67526174726663,228.52831195371255 99.10310387326172,230.4767415171009 99.55155193665996,231.01796662951529 100.86596867407206,231.3427005863996 101.37627164262813,232.1220586845593 100.2010284421849,234.02713606006728 98.74743816786213,234.61164268964058 96.31963313533925,236.38679442929424 94.55676833464531,237.1444735684272 94.15471145021729,238.18356901445804 93.16503296559677,239.26595103572618 94.01553791336482,241.69045318551798 94.78872422943823,241.8636301339866 95.80933016672498,241.23586256891576 97.00003709353041,241.73374744490866 97.86600576754427,241.62551176882698 98.54640972573543,240.91115398635156 99.04124896804569,239.11441810976248 100.21649216848891,238.46498923015315 102.90718054852914,239.3092461241322 103.92778648581589,238.8113517138263 105.52055029699113,238.72476118179475 105.61333265493158,233.91889379556233 106.83496703440323,229.63242572138552 106.64940231852233,229.3293366263897 106.18549052882008,229.3726351129735 102.70615210634423,231.84062436924432 101.45359027426457,232.10040991324786 100.07731863157824,234.09208137443056 98.60826463100966,234.6765877041471 96.30416940903524,236.38679442929424 94.64955069258576,237.0362339690182 94.15471145021729,238.24851219671837 93.16503296559677,239.3525411976516 93.93821928172838,241.582217472489 94.44852225034265,241.92857142857247 95.71654780872632,241.23586256891576 97.1701380830491,241.75539456897968 98.14435284136562,241.36574576881685" stroke="#4DD2FF" stroke-linecap="round" stroke-linejoin="round" stroke-width="0.5"><title>2025-05-23 6.4km</title><desc>1747958832000</desc></polyline><polyline fill="none" points="127.81692586431745,231.43792281483184 128.44324420683552,232.03293090171064 130.00904006324708,232.28346004414198 130.79193799139466,233.2855731863965 130.59062138129957,237.23134037874115 130.21035667334218,237.95159029361093 128.8458774271421,238.35868681859574 127.50376669305842,237.88895997876534 126.25113000778947,238.1707962271903 124.1261213455582,236.9181873583293 122.85111614817288,237.41923193400726 121.91163863439579,237.262655651386 122.18006078107283,236.354510572055 121.5090054142056,234.60083836350532 121.71032202418428,233.34820507568656 120.99452963273507,232.15819551571622 121.3076888039941,230.27921730790695 125.8261282753665,230.0913184267265 127.3695556196617,230.65501449181465 128.17482205992565,231.93898238486145 129.89719750208315,232.25214392005 130.65772691799793,232.9724134184653 130.59062138129957,237.32528618045035 130.25509369780775,237.95159029361093 128.93535147595685,238.3273717334523 127.66034627857152,237.9202751388657 126.2063929833239,238.13948110991623 124.08138432109263,236.9495026844379 121.37479434069246,237.51317763931002 119.92084104544483,238.7031524021004 120.39057980233338,239.0476173377101 120.74847599805798,240.92650558087917 122.94059019710403,241.9285714285652 123.88006771099754,241.27096633439942 124.50638605363201,239.98706386882986 124.41691200458445,238.98498739759088 123.25374936836306,237.1373945287778 124.41691200458445,236.9495026844379 126.2287614956731,238.13948110991623 127.66034627857152,237.7323840976751 127.48139818070922,237.262655651386 126.02744488546159,237.293970918603 125.24454695731401,236.29187971091596 125.98270786099602,233.34820507568656 124.05901580885984,230.4044831215724 124.19322688225657,228.05573485606874 124.70770266361069,227.05359309389314 125.73665422631893,226.45856882778753 127.68271479092073,227.08491010704893 129.27087915956508,226.6777885192132 127.48139818070922,228.4315366030496 125.62481166527141,228.33758623863105 124.50638605363201,227.49203078978462 122.78401061147451,227.1162271147332 122.82874763594009,223.29551264012116 123.58927705185488,221.6983050921117 123.63401407632045,219.31812681804877 124.10375283332542,218.84835113451118 125.53533761634026,218.78571428571013 129.65114386752248,219.3807634848199 130.50114733236842,220.1324018145533 130.79193799139466,221.6983050921117 131.5077303829603,222.48125170932326 131.03799162595533,223.10760659285006 131.328782285098,223.51473611824622 129.91956601431593,224.36030993249733 129.76298642857,226.33330031481455 127.68271479092073,228.36890303208202 126.04981339769438,228.4315366030496 124.43928051681723,227.3980799432902 122.87348466040567,227.21017810575722 122.8063791237073,223.51473611824622 123.76822514971718,220.32031091483077 124.77480820030905,219.944492521332 124.79717671254184,219.00494316298864 129.3827217206126,219.28680847671058" stroke="#4DD2FF" stroke-linecap="round" stroke-linejoin="round" stroke-width="0.5"><title>2025-05-20 5.0km</title><desc>1747754393000</desc></polyline><polyline fill="none" points="159.93365212203935,231.97439130741986 162.09623430971988,232.2407487896562 163.0,231.28947113483446 157.6419605499832,223.22253245912725 153.89778840413783,224.1357801540289 150.9928272565594,225.8481131446024 149.1852958756499,225.92421663823188 144.79557680815924,227.59848930101725 141.2773460849421,228.09315923336544 141.56784219969995,231.32752229072503 139.8571428571595,233.53448224172462 141.2773460849421,234.79016012648935 141.7937836223282,236.5404914628889 142.5684399282327,237.30150235118344 144.02092050213832,237.52980529429624 151.28332337131724,235.17066768507357 155.6084877466783,234.56185539241415 159.35265989252366,232.0885445390595 162.09623430971988,232.1646466727252 162.9354453079868,231.4416757337458 157.77106993435882,223.2605844940408 156.35086670645978,223.29863652482163 151.1219366408186,225.77200963452924 148.73341303050984,226.03837184756412 145.73161984456237,227.4082314480911 141.01912731630728,228.28341671303497 141.696951584192,230.79480573019828 139.8571428571595,233.4964313262899 141.2127913928125,234.6379569869605 141.63239689194597,236.23608664330095 142.60071727447212,237.26345184620004 144.02092050213832,237.45370432993514 151.89659294683952,234.86626167138456 156.12492528406437,234.33355050900718 159.1912731619086,232.1646466727252 162.12851165572647,232.1646466727252 162.9354453079868,231.36557344259927 157.77106993435882,223.29863652482163 156.64136282133404,223.18448041996453 153.7364016737556,224.1357801540289 151.21876867907122,225.77200963452924 149.1530185295269,225.8481131446024 145.27973699953873,227.48433460170054 141.43873281532433,228.16926223758492 141.63239689194597,231.17531764213345 139.9216975494055,233.4203294828476 141.2127913928125,234.71405856503407 142.11655708309263,236.95904765676823 144.15002988651395,237.4156538414245 150.70233114180155,235.20871841805638" stroke="#4DD2FF" stroke-linecap="round" stroke-linejoin="round" stroke-width="0.5"><title>2025-05-14 5.0km</title><desc>1747227249000</desc></polyline><polyline fill="none" points="173.7669237141963,241.677620642673 174.23833784164162,241.2474184051389 174.92264867183985,238.7020321549935 176.9755811621435,239.024688929072 178.08568539767293,234.57913991018722 177.87278869497823,231.72890618699603 175.72861476062099,226.36889898781374 175.81985620461637,225.16780319344252 177.31013312359573,224.3610921407817 179.5303415946546,223.98462562919303 180.9597908842261,222.99863782600733 182.13072274904698,223.10620041897346 182.57172306184657,222.6400953416305 180.2146524247364,218.87535208002373 179.62158303859178,218.78571428571013 177.99444395373575,219.37732282582147 176.9755811621435,220.07649381220108 176.09358053666074,220.09442123434565 174.29916547099128,220.8115165172203 172.45912968326593,221.08042644250963 172.58078494202346,222.47875096871576 171.71399122389266,223.57230417577375 171.8660602971795,223.9666986309312 172.3830951466225,224.3073112632701 172.90012999612372,225.50841333926655 173.5540270115016,225.58012064853392 179.3934794286033,223.82328257482732 180.0473764440394,223.24961710009666 180.29068696143804,222.47875096871576 180.0017557219835,221.47482687112642 178.98289293050766,220.38125972254784 177.73592652892694,219.9868566723162 176.64102920074947,220.29162274871487 175.18116609647404,221.94093524971686 173.09781979146646,222.2994792577374 171.89647411188344,223.37510659359396 171.92688792658737,223.9666986309312 173.5540270115016,225.22158378970926 175.4092697064625,225.02438818430528 179.34785870666383,223.82328257482732 180.19944551744265,223.03449203148193 180.24506623944035,222.17398894381768 179.62158303859178,221.04457181120233 178.1465130270226,220.04063896210573 176.09358053666074,220.11234865451115 174.16230330494,220.88322587360744 172.4287158686202,221.22384488956595 172.5655780346715,222.5504595984239 171.72919813118642,223.64401232887758 172.39830205397448,224.3073112632701 172.7328540153685,225.27536436830997 173.5084062895039,225.59804747099406 174.4208207296906,225.13194945291616 176.1087874439545,224.84511924705293 175.71340785326902,225.58012064853392 175.7590285752085,226.15377799759153 177.67509889957728,230.95807978061202 178.13130611967063,233.18091821493 177.96403013903182,235.6726127009024 177.20368477219017,238.52277811830572 175.2419937258237,238.23597125340893 174.4664414516883,240.85306536607095 173.87337206560187,241.10401740930683 173.63006154820323,241.9285714285652 173.31071649416117,241.8030960834585" stroke="#4DD2FF" stroke-linecap="round" stroke-linejoin="round" stroke-width="0.5"><title>2025-05-06 7.1km</title><desc>1746539597000</desc></polyline><polyline fill="none" points="20.128723098081537,268.7142857142899 19.971917364746332,268.5294511170214 20.70890431123553,266.0711318287067 22.574892537260894,266.514740950166 22.9041845772299,265.94174561651016 23.87638012354728,261.8567873334978 23.84501897689188,259.82351352287515 21.069557497801725,252.13382133404957 20.316889977955725,251.96745394950267 19.250610991672147,252.4850408325292 18.592026911850553,252.355644259791 17.353261618933175,250.43316926807165 18.200012578687165,249.5088946906617 17.996165125397965,248.0300448926282 19.09380525839515,247.97458777439897 22.763059417251498,246.93938490690198 23.954782990156673,246.19995041970105 25.914854656206444,245.60840050932893 28.43942696216982,249.4719236027595 28.125815495557617,249.97103260880976 26.74592504266184,249.8416341185948 25.271951149741653,250.91379005835915 23.029629163851496,251.24652673093078 21.712461004208308,251.87502755418245 20.03463965811534,252.09685081829957 19.015402391727548,252.52201126370346 18.35681831196416,252.24473283317639 17.98048455209937,251.20955602174217 17.384622765530366,250.76590688325814 17.384622765530366,250.41468382587482 18.200012578687165,249.32403917086776 17.98048455209937,248.04853059466404 19.705347618146334,247.82670203720045 22.716017697239295,246.86544160322228 25.56988204299705,245.5714285714348 26.008938096172642,245.7193162746844 28.423746388754807,249.4719236027595 28.188537788868416,249.93406162169413 26.855689055926632,249.8416341185948 24.926978536474053,251.04318773077102 23.358921203645878,251.15409994285437 19.09380525839515,252.4850408325292 18.435221178573556,252.30018855557137 18.01184569869656,251.20955602174217 17.384622765530366,250.7289360693976 18.184332005272154,249.3610102909006 17.996165125397965,248.0300448926282 19.642625324893743,247.82670203720045 22.590573110675905,246.9208990840416 23.64117152360268,246.27389401345863 25.60124318965245,245.5714285714348 25.961896376218647,245.7193162746844 28.40806581545621,249.45343805584707 28.17285721556982,249.91557612502947 26.74592504266184,249.82314861194754 25.224909429845866,250.93227544619003 23.013948590436485,251.24652673093078 21.430210684309714,251.93048339741654 20.128723098081537,252.04139502943144 19.125166404992342,252.50352604914224 18.388179458561353,252.22624758839083 17.996165125397965,251.20955602174217 17.368942192173563,250.74742147733923 17.353261618933175,250.43316926807165 17.98048455209937,249.82314861194754 17.243497605551966,250.5071110167337 17.933442832087167,251.32046812510816 18.24705429864116,252.17079184182512 18.92131895176135,252.57746689552732 22.82578171050409,251.3574388101115 25.16218713647686,251.08015847620845 26.667522175994236,249.93406162169413 28.06309320218861,249.93406162169413 28.47078810876701,249.5088946906617 25.852132362953853,245.5714285714348 23.860699550190475,246.16297861078056 22.621934257273097,246.95787072776875 21.508613550977316,247.03181399122695 19.799431058112532,247.73427338601323 17.776637098751962,248.14095907466253 18.12160971207777,249.32403917086776 17.321900472277775,250.30377113034774 17.29053932556417,250.7843922872271 17.917762258730363,251.26501208246918 18.200012578687165,252.13382133404957 18.79587436519796,252.50352604914224 21.069557497801725,252.11533607718593 23.515726936981082,258.4741456346819 23.797977256879676,259.9159355883312 23.860699550190475,261.7828505309444 22.747378843894694,266.3483876655082 20.61482087126933,266.0896155652299 20.144403671321925,268.3261328275257 19.893514498136938,268.5294511170214" stroke="#4DD2FF" stroke-linecap="round" stroke-linejoin="round" stroke-width="0.5"><title>2025-04-29 10.1km</title><desc>1745929124000</desc></polyline><polyline fill="none" points="59.25389974727295,254.93539177483035 58.86435661878204,254.605730032461 59.084098896419164,253.39303711440152 58.53474320244277,255.2061845968201 58.11523521802155,255.26505251185154 56.86669954995159,260.16275075824524 56.72686355514452,260.1980698917105 50.36432579078246,258.9383469985769 42.25383809115738,255.2885996688783 37.0,254.17010404518078 42.21388494974235,255.30037324547447 48.61637585546123,258.30259342309 50.434243788185995,258.9854397072704 60.14285714289872,260.89267717132316 56.816758123226464,260.1745238040021 57.02651211543707,259.3150880939211 57.61582095071208,259.1738103370226 58.954251186863985,253.54609619405528 59.21394660585793,253.4519060168459 58.86435661878204,254.37025674381584" stroke="#4DD2FF" stroke-linecap="round" stroke-linejoin="round" stroke-width="0.5"><title>2025-04-22 6.3km</title><desc>1745328842000</desc></polyline><polyline fill="none" points="70.92820765898796,268.0342131406942 71.31283848983003,267.86419458061573 72.11415272054728,265.23833121078496 74.16551715112291,265.54059088959184 75.23927822028054,261.6300656154781 75.06298908952158,257.68166802675114 72.83533552812878,252.2217739715852 72.78725667425897,251.27713817849872 73.98922802036395,250.2947114945855 76.52138098940486,249.8790677603829 78.34837743546814,248.68880973692285 79.55034878157312,248.80216799593472 80.04716360458406,248.36762760062993 78.97340253536822,246.68613494095916 77.53103692014702,247.42297081029392 76.37714442785364,246.08154932482284 75.14312051259913,245.5714285714348 72.83533552812878,245.76036235882202 71.26475963596022,246.4594155819359 69.1492900668527,246.8183877634583 69.46981575910468,248.1409104403283 68.54029125149827,249.48231599376595 69.22942148993025,250.0679968539771 69.58199975150637,251.05042482243152 70.30318255908787,251.42828025124618 72.9314932358102,250.80481835214596 74.45399027416715,250.14356843377755 76.45727585093118,249.8790677603829 78.10798316617729,248.76438191789202 79.55034878157312,248.78327495801204 80.03113731992198,248.32984142782516 78.9894288200303,246.68613494095916 77.54706320475088,247.3851844316523 76.37714442785364,246.06265599036124 75.23927822028054,245.59032195944746 72.75520410510944,245.76036235882202 71.29681220522616,246.4405222886562 69.54994718229864,246.70502820747788 69.309552913066,246.89396075962577 69.43776318995515,248.19758975818695 68.54029125149827,249.38785115363135 69.1973689206643,250.0679968539771 69.53392089763656,251.06931761339365 70.22305113606853,251.46606574878388 74.4860428434913,250.1246755419561 76.39317071251571,249.91685359558323 78.12400945083937,248.76438191789202 79.61445391993038,248.76438191789202 80.01511103537632,248.29205524682766 78.95737625076436,246.64834840172261 77.46693178161513,247.36629123918829 76.36111814330798,246.06265599036124 75.38351478177356,245.64700211107265 73.23599264351651,245.66589549083437 71.13654935907107,246.4594155819359 69.51789461297449,246.70502820747788 69.29352662840392,246.87506751368346 69.40571062074741,248.36762760062993 68.5242649668944,249.44453006389085 69.24544777453411,250.10578264805372 69.5659734668443,251.06931761339365 70.09484085912118,251.40938749938505 76.53740727406694,249.6334596309316 77.3226952200639,248.99109826296626 77.59514205850428,248.02755174903723 77.37077407399192,247.3096116495435 76.58548612787854,246.34605579130584 75.35146221256582,245.6092153454083 73.21996635885444,245.68478886855883 71.07244422053918,246.5160954495077 69.27750034380006,246.8183877634583 69.46981575910468,248.10312421811977 68.54029125149827,249.40674412575027 69.32557919761166,250.37028297560755 69.02107978996355,250.95596083652345 69.8223940206808,252.59962684792117 70.4474191206391,255.35792790194682 70.71986595907947,258.4562411487568 70.65576082054758,260.4965635452827 69.08518492843723,268.18534060970705 70.22305113606853,268.7142857142899" stroke="#4DD2FF" stroke-linecap="round" stroke-linejoin="round" stroke-width="0.5"><title>2025-04-15 8.8km</title><desc>1744723077000</desc></polyline><polyline fill="none" points="111.41933969652746,254.67047192761675 110.74761383194709,254.62565332266968 111.24190267565427,253.17651053681038 110.65889532159781,255.59671981816064 110.79831012367504,255.97020510127186 110.0251916758134,258.5397562831058 109.27742137387395,258.55469539340993 109.29009544668952,259.18213655773434 108.42825848859502,261.9757088117185 100.02534814586397,260.30256006996206 90.39305273036007,255.83575051650405 88.42857142857974,255.26805192779284 90.5324675324955,255.94032631604932 100.01267407287378,260.3174989883264 108.45360663440078,261.9607700739725 108.73243623849703,260.8403601053724 109.36613988422323,260.7656657820771 109.91112501954194,259.18213655773434 111.57142857142026,252.31000547400618 111.12783601944102,254.7750486156292" stroke="#4DD2FF" stroke-linecap="round" stroke-linejoin="round" stroke-width="0.5"><title>2025-04-11 5.1km</title><desc>1744377642000</desc></polyline><polyline fill="none" points="120.80224145005923,268.7142857142899 121.5849737067474,267.8481320653227 121.79263736668508,268.48833300681144 122.57536962348968,267.8481320653227 123.45394664630294,265.19315579885733 125.51460911816685,265.66389924554096 125.88201405503787,265.53209120969404 126.84046171634691,261.40833190134435 126.90435822715517,259.1486960385373 126.50500503490912,257.13382914828253 124.2047306477325,252.12480594670342 124.14083413698245,251.2774004471139 125.25902307522483,250.33583390789863 127.83085763303097,249.92154300559196 129.61995993420715,248.69749590181164 130.78607125551207,248.81048522838682 131.3771139800665,248.32086427953618 130.11515789257828,246.34353479689162 128.78930529439822,247.11563757278782 127.22384078096366,245.7974112383963 125.81811754428782,245.7220837155619 125.06733354291646,246.07988915649184 123.54979141242802,247.73708364306367 121.37731004680973,248.05722165561747 120.11535395937972,249.14945276502112 120.05145744857145,249.5072511102626 120.70639668387594,250.0533629458514 120.97795685456367,250.93843708386703 121.69679260056,251.35272554859694 128.00657303771004,249.5825769832445 128.869175932894,248.75399057431787 128.96502069890266,247.83124194359698 128.02254716533935,246.36236661291332 126.50500503490912,245.5714285714348 124.46031669067452,245.68441994184104 122.46355072961887,246.45652566244826 120.73834493925096,246.7578342762572 120.88211208843859,248.07605328498175 120.05145744857145,249.092958221765 120.05145744857145,249.45075668391655 120.70639668387594,249.99686869807192 121.39328417449724,251.3338942762639 122.09614579274785,251.35272554859694 123.03861932648579,250.86311180179473 123.90122222166974,250.93843708386703 126.42513439641334,257.6234251322312 126.72864282253431,259.3746609541122 126.63279805640923,261.1823696443171 125.73824690579204,265.00485806130746 123.67758443398634,264.6847514366382 122.86290392186493,267.1702696607972" stroke="#4DD2FF" stroke-linecap="round" stroke-linejoin="round" stroke-width="0.5"><title>2025-04-08 5.6km</title><desc>1744119870000</desc></polyline><polyline fill="none" points="148.16149517777376,266.76239472150337 148.78805774642387,265.84798722057894 149.26543875108473,263.8081364398822 151.249553551781,264.17742168151017 152.30874265596503,260.09765212857747 152.35349712515017,258.44461270024476 152.0700521536055,256.826727932581 150.0411828837241,251.79711302826763 150.0411828837241,250.82986142531445 151.16004461346893,250.00329637160758 153.50219516770449,249.6515652776725 155.05368343286682,248.5963673969236 156.39631750847911,248.5963673969236 156.7543532620184,248.13911283960624 155.57581890677102,246.27490777606727 154.1287577363546,246.8376889321662 152.7562873478164,245.69453765358776 150.54840020119445,245.64177662989823 148.5046127748792,246.39801632167655 146.8039429457276,246.71458072197856 146.89345188409789,248.13911283960624 146.10278959514108,249.08879393310053 146.68459769460605,249.75708468635275 147.0277152917115,250.7419291739934 147.95264098822372,251.0584850545565 148.77313958999002,250.6188239416515 150.16052813490387,250.46054564784572 151.51808036695002,249.86260402602784 153.59170410613297,249.56363238442282 155.15811052761273,248.52602062630467 154.9194200252532,249.00086073328566 155.307292091602,248.42050041281618 156.4559901340981,248.50843392887327 156.70959879283328,248.06876586964063 155.78467309632106,246.57388550962787 154.47187533346005,247.2597735113959 153.42760438565165,246.04627737091505 152.32366081239888,245.57142857142026 150.44397310644854,245.62418961816002 148.60903986968333,246.36284246109426 146.84869741491275,246.64423313111183 146.8337792584789,248.20945977891097 146.147544064268,248.91292748553678 146.10278959514108,249.26466018910287 146.6995158509817,249.7922578072321 146.8636155713466,250.53089157537033 147.66919601673726,251.04089863305853 148.7283851208631,250.60123747220496 150.10085550928488,250.46054564784572 151.35398064658511,249.89777712388604 152.54743315832457,249.7394981230318 152.68169656587997,250.7419291739934 155.73991862713592,256.9498284305155 152.622023940261,258.0401430284837 152.44300606352044,260.8010680279258 151.6821800872567,263.77296637282416 151.29430802102434,264.0719116987166 150.22020076046465,268.7142857142899 146.10278959514108,267.65921243224875 146.7293521637912,264.96874435480277 146.93820635328302,264.86323488912603 146.58017059974372,266.58654752734583" stroke="#4DD2FF" stroke-linecap="round" stroke-linejoin="round" stroke-width="0.5"><title>2025-04-02 6.9km</title><desc>1743601029000</desc></polyline><polyline fill="none" points="173.50455464358674,268.7142857142899 174.05803242872935,268.2153838789818 174.82313407288166,265.47139852977125 177.37889913952677,266.0854409212625 178.4370184346335,261.2306098284753 178.11144326685462,257.6421704152017 175.6207932338002,251.9619243594061 175.604514475388,251.44378469017101 176.0928772269981,250.75292942674423 176.95565142139094,250.33073876512935 179.72304034710396,249.83178486023098 181.00906225957442,248.7954914643924 181.51370376953855,248.7187287480483 181.52998252795078,248.02786279549764 180.87883219250944,246.70369547807786 180.35791192413308,246.74207727961766 179.85327041416895,246.16634937911294 179.43002269609133,246.26230415987084 178.48585470975377,245.68657469103346 177.4765716897673,245.60981061962957 176.434731153131,245.97443966074206 175.03475793189136,247.70161959809775 172.9185193417361,248.00867203589587 171.33947977831122,249.27525768337364 172.28364776459057,251.04078611581645 173.35804581810953,251.48216545869946 177.08588148857234,250.23478620086098 179.49513772968203,249.88935653683438 181.3346374272951,248.62277530554275 182.55554430629127,248.77630078840593 182.9787920243689,248.31572393837268 181.66021259501576,246.3390679468721 180.21140309859766,247.12589483434567 179.3323501457926,246.10877648556198 178.19283705879934,245.5714285714348 176.06031971023185,245.6673836763075 174.12314746226184,246.4734044936049 172.05574514722684,246.81884085743513 172.18597521435004,248.33491466447595 171.30692226142855,249.46716380512225 172.0231876304606,250.138833584424 172.34876279818127,251.09835739721893 173.30920954293106,251.50135583979136 174.3022138045635,251.0024052511144 175.24638179084286,250.9448339384253 176.35333736118628,254.07284799806075 177.21611155563733,254.82126030426298 180.06489427312044,254.22636873037845 181.85555769567145,257.9875848753145 178.40446091775084,259.15815106392256 178.2253945755656,262.0941271175543 177.86726189107867,262.53547876402445 176.95565142139094,265.7784199930611 176.76030632085167,265.9319305240206 174.82313407288166,265.58653164120915 174.22082001256058,267.88917806893005" stroke="#4DD2FF" stroke-linecap="round" stroke-linejoin="round" stroke-width="0.5"><title>2025-03-25 6.1km</title><desc>1742909450000</desc></polyline></svg>