<?xml version="1.0" encoding="utf-8" ?>
<svg baseProfile="full" height="300mm" version="1.1" viewBox="0,0,200,300" width="200mm" xmlns="http://www.w3.org/2000/svg" xmlns:ev="http://www.w3.org/2001/xml-events" xmlns:xlink="http://www.w3.org/1999/xlink"><defs /><rect fill="#222222" height="300" width="200" x="0" y="0" /><text fill="#FFFFFF" style="font-size:12px; font-family:Arial; font-weight:bold;" x="10" y="20">Over 5km Runs</text><text fill="#FFFFFF" style="font-size:4px; font-family:Arial" x="10" y="280">Runner</text><text fill="#FFFFFF" style="font-size:9px; font-family:Arial" x="10" y="290">Elliont</text><text fill="#FFFFFF" style="font-size:4px; font-family:Arial" x="65" y="280">SPECIAL TRACKS</text><rect fill="yellow" height="2.6" width="2.6" x="65" y="283" /><text fill="#FFFFFF" style="font-size:3px; font-family:Arial" x="70" y="285.5">Over 20.0 km</text><rect fill="red" height="2.6" width="2.6" x="65" y="287" /><text fill="#FFFFFF" style="font-size:3px; font-family:Arial" x="70" y="289.5">Over 40.0 km</text><text fill="#FFFFFF" style="font-size:4px; font-family:Arial" x="120" y="280">STATISTICS</text><text fill="#FFFFFF" style="font-size:3px; font-family:Arial" x="120" y="285">Number: 38</text><text fill="#FFFFFF" style="font-size:3px; font-family:Arial" x="120" y="290">Weekly: 1.9</text><text fill="#FFFFFF" style="font-size:3px; font-family:Arial" x="141" y="285">Total: 247.6 km</text><text fill="#FFFFFF" style="font-size:3px; font-family:Arial" x="141" y="290">Avg: 6.5 km</text><text fill="#FFFFFF" style="font-size:3px; font-family:Arial" x="167" y="285">Min: 5.0 km</text><text fill="#FFFFFF" style="font-size:3px; font-family:Arial" x="167" y="290">Max: 10.1 km</text><polyline fill="none" points="38.5,48.49762634826038 32.40654205606552,47.30791804092587 24.17289719625842,43.66159523160604 13.023364485939965,41.502381390324445 11.5,41.39221618292504 12.9672897196142,41.52441441744304 23.60280373832211,43.58448124530696 25.04205607471522,44.0141155632009 32.556074766325764,47.451124411294586 38.490654205554165,48.60778381707496" stroke="#4DD2FF" stroke-linecap="round" stroke-linejoin="round" stroke-width="0.5"><title>2025-08-29 5.7km</title><desc>1756465472000</desc></polyline><polyline fill="none" points="76.0,48.36385409281502 70.15014817257179,47.21116515206813 63.24234441888984,44.04643906184356 62.16661178797949,43.721577181589964 51.32038195594214,41.615188054223836 49.0,41.615188054223836 51.43595653609373,41.70950497154263 62.45999341458082,43.836850877567485 70.01679288776359,47.2216442046265 75.8577543629217,48.38481194576889" stroke="#4DD2FF" stroke-linecap="round" stroke-linejoin="round" stroke-width="0.5"><title>2025-08-27 6.0km</title><desc>1756291993000</desc></polyline><polyline fill="none" points="112.2804716041428,48.377048728732916 107.73414148122538,47.54206122150936 105.7613749584998,47.03472353157849 99.538193291286,44.11748034624907 98.2558950514649,43.70525412942516 88.1409830620978,41.72865794180689 86.5,41.54896538291359 89.19910328794504,41.94006052626355 98.23796081036562,43.715824054314 99.34091663901927,44.06463092911872 105.25024908664636,46.87617995958135 106.7298239787342,47.39408800256206 112.27150448353495,48.45103461709368 112.48671537695918,47.62661724531063 113.5,47.79572907197871 112.99784124881262,47.67946472281619 113.03370973095298,47.42579656845919" stroke="#4DD2FF" stroke-linecap="round" stroke-linejoin="round" stroke-width="0.5"><title>2025-08-26 6.0km</title><desc>1756205162000</desc></polyline><polyline fill="none" points="151.0,50.042081479557964 145.8474434199452,49.02838595750654 140.24224643755588,46.44963009336789 139.0804694048711,46.08504079614795 129.8164291701396,44.29764044129115 126.72338642078103,44.43102987868042 125.90108968983986,44.244284605309076 125.10896898576175,43.76408051233011 124.7015926236345,43.274980847410916 124.03017602680484,41.60312713824533 124.52053646268905,41.060656609428406 125.8935456831532,39.95791852044931 124.2640402346733,41.25630213377735 124.0,41.62091299619351 124.43000838224543,42.85702062999917 124.78457669739146,43.4439428811238 126.02933780383319,44.324318346181826 126.80637049453799,44.4843855925792 128.49622799665667,44.33321097923181 129.8918692371808,44.35988887251733 139.22380553226685,46.15618029906909 140.24979044427164,46.50298448809917 145.75691533950157,49.02838595750654" stroke="#4DD2FF" stroke-linecap="round" stroke-linejoin="round" stroke-width="0.5"><title>2025-08-23 7.3km</title><desc>1755948655000</desc></polyline><polyline fill="none" points="188.5,47.33325244977459 188.0915438324446,48.740550623952004 181.18968192406464,47.38263162882504 172.73778122582007,43.530991063940746 164.516291699023,41.75326665906323 161.5,41.259449376047996 172.20364623743808,43.41988410553313 180.88595810713014,47.33325244977459 186.53103180759354,48.48131279935478" stroke="#4DD2FF" stroke-linecap="round" stroke-linejoin="round" stroke-width="0.5"><title>2025-08-19 5.0km</title><desc>1755607675000</desc></polyline><polyline fill="none" points="37.7220712150156,82.02899787578644 32.819652079371735,81.06015738978022 27.131965207925532,78.43038792958396 26.17056265292922,78.15356502668146 17.19502582223504,76.43205094241421 13.841125305800233,76.52721098670736 12.732943734707078,76.0081548144808 11.969692851329455,75.08249622141011 11.544033704820322,73.698313709996 14.721799402032048,71.11155796895764 17.71609132917365,67.97100212421356 16.835417232912732,68.75831566935813 14.809866811614484,70.95583085399994 11.5,73.70696492562274 11.661456917674514,74.36445455511421 12.2779287850135,75.56695440086332 12.798994291952113,76.05140962508449 13.701685240579536,76.49260734744894 14.200733895093435,76.57046551459644 15.932726284343516,76.41474910392571 17.378499592334265,76.43205094241421 21.018619190028403,77.12412139109074 21.334194074501283,77.01166035356437 22.779967382462928,77.27983641095489 23.212965479760896,77.4701543539777 25.407311769522494,77.79888427231344 26.82372927427059,78.257373728331 27.55762435446377,78.2400722874736 27.54294645282789,78.43903862976731 28.01263930418645,78.42173722845473 27.660369665682083,78.65530582780048 28.19611307422747,78.98403084100573 32.49673824411002,80.92175064142793 33.318700733885635,81.15531188939349 33.57556401196052,81.03420614283823 34.977303615101846,81.13801107974723 34.977303615101846,81.46672581839084 37.355123674933566,81.94249474137905 37.77344387062476,81.98574632034433 37.89086708344985,81.38887245059595 38.28717042674543,81.31966939293488 38.5,80.60168411214545" stroke="#4DD2FF" stroke-linecap="round" stroke-linejoin="round" stroke-width="0.5"><title>2025-08-16 10.0km</title><desc>1755297330000</desc></polyline><polyline fill="none" points="65.24876847286941,74.05941793077363 64.76108374382602,76.54164817935089 76.0,78.74948350632621 57.35714285715949,75.05231619346887 49.0,71.25051649366651 57.10221674875356,75.03925179599901 64.14039408869576,76.4501985024981" stroke="#4DD2FF" stroke-linecap="round" stroke-linejoin="round" stroke-width="0.5"><title>2025-08-13 5.0km</title><desc>1755095249000</desc></polyline><polyline fill="none" points="113.34882418817142,80.02523960399412 108.397816349403,79.03628576226038 102.76651735723135,76.44356623398926 101.71584546472877,76.1049919823563 92.4638857782993,74.32299914004398 89.18337066072854,74.42991980529041 88.45772676373599,74.27844882161298 87.70940649497788,73.83294430272508 87.31634938414209,73.44089831899328 86.95352743563126,72.83500537547661 86.52267637179466,71.6232060239854 87.45996640541125,70.69652381768537 88.54843225085642,69.86784718318813 87.72452407618403,70.44703066056536 86.5,71.63211637885252 87.30123180293594,73.4498084758743 87.92861142219044,74.037876682778 88.45016797314747,74.3051790155805 89.18337066072854,74.46555999598786 91.75335946248379,74.31408907828882 92.68309070548275,74.37645949012949 102.14669652856537,76.27427928332327 108.25419932810473,79.03628576226038 113.5,80.13215281681187" stroke="#4DD2FF" stroke-linecap="round" stroke-linejoin="round" stroke-width="0.5"><title>2025-08-12 8.1km</title><desc>1754996616000</desc></polyline><polyline fill="none" points="151.0,78.1314941298333 145.55585831060307,77.0427295475456 139.40871934604365,74.20995183674677 138.39509536785772,73.87271035306912 132.61580381472595,72.65863036698283 128.25885558585287,71.9070486922792 126.72207084472757,71.86850587017398 124.7765667575004,72.0323127481679 124.0,71.8974129883427 124.711171662173,72.0323127481679 126.64032697549555,71.88777728331479 128.27520435969927,71.91668439520436 138.3051771117025,73.8823458418774 139.47411444140016,74.29667086761037 145.30245231607114,76.98491866415134 150.53405994549394,78.06404892551654" stroke="#4DD2FF" stroke-linecap="round" stroke-linejoin="round" stroke-width="0.5"><title>2025-08-10 6.4km</title><desc>1754781124000</desc></polyline><polyline fill="none" points="185.8225398431823,86.29688423377956 181.32823172275675,85.39519828988705 176.23286111812922,83.04432250599348 175.26296483684564,82.72227890513022 166.86858082472463,81.07983471591433 166.11725271947216,81.03152698141639 163.76764482673025,81.16839881387568 163.25537566407002,81.04762956310879 162.5381988363515,80.63701263442636 162.03959018466412,80.07341705739236 161.56830255503883,78.97036756335001 161.5,78.55168753294856 164.48482165447786,76.10397219812876 166.54755881612073,73.88163411305868 168.49418163421797,72.18262767313718 170.94624335950357,70.58021139557968 171.21945357960067,70.45137239657197 171.90930938531528,70.42721505924419 172.1756893498823,70.25006101088366 172.92701745510567,69.42065231677407 173.69883632686106,67.76180699613178 174.39552238810575,67.10147956299625 177.51694915257394,65.41842319349962 181.37604351126356,63.70311576621316 181.37604351126356,64.29099556767324 182.0590690614772,64.73391561555763 182.26397672656458,64.9916133304796 182.37326081460924,65.41037020002113 184.7843410068599,69.70249126688577 185.7747280546464,71.87664131946804 186.3962813053804,72.73823123398324 186.40311156088137,72.98784886506473 186.68315203647944,73.41461253925809 187.1885909436387,74.88813609069621 187.57791550722322,75.58060149132507 187.9057677713281,77.01382321975689 188.01505185937276,78.46312029951514 187.7076903617708,80.54039655497763 187.78965342781157,80.66116663453431 188.5,80.87855228049739 188.41803693398833,81.52265414455906" stroke="#4DD2FF" stroke-linecap="round" stroke-linejoin="round" stroke-width="0.5"><title>2025-08-08 10.0km</title><desc>1754654808000</desc></polyline><polyline fill="none" points="38.5,108.7800683980895 31.296442687802482,107.30833346835425 23.036363636376336,103.4968301997651 14.509486166061834,101.66021936192556 11.5,101.2199316019105 22.844268774730153,103.4968301997651 31.509881422971375,107.43412351148436 38.318577075144276,108.74233183924662" stroke="#4DD2FF" stroke-linecap="round" stroke-linejoin="round" stroke-width="0.5"><title>2025-08-07 5.0km</title><desc>1754573743000</desc></polyline><polyline fill="none" points="76.0,108.79352541661501 68.86231313925236,107.36629666630324 60.70495672698598,103.62286689948814 59.664044059754815,103.3098655772119 49.0,101.20647458337771 51.83595594018698,101.80744736621273 52.069630212383345,101.70728545392194 52.69630212429911,101.97021028753079 60.12077104637865,103.48514642270311 68.95790715969633,107.46645364792494 75.52202989766374,108.78100594317948" stroke="#4DD2FF" stroke-linecap="round" stroke-linejoin="round" stroke-width="0.5"><title>2025-08-04 5.0km</title><desc>1754309955000</desc></polyline><polyline fill="none" points="113.5,108.14201955803583 108.10327570518712,107.06092628045735 101.879435850773,104.20368771221547 100.94585987261962,103.89479153889988 91.06960873521166,101.94485959618032 89.33348498636042,101.85798044197145 87.22065514104906,102.02208543952293 86.5,101.86763368552784 86.655595996388,101.9834725262699 87.64649681528681,102.05104511344689 90.5045495905797,101.89659340991057 94.4272065514233,102.66884923579346 95.05777979985578,102.67850239104155 96.14695177433896,103.0067090436205 100.83939945403836,103.90444456062687 102.14149226568406,104.3677883663695 108.00500454960275,107.05127360253391 112.94313011830673,108.04549390864122" stroke="#4DD2FF" stroke-linecap="round" stroke-linejoin="round" stroke-width="0.5"><title>2025-08-03 6.5km</title><desc>1754227262000</desc></polyline><polyline fill="none" points="147.8726695755613,108.1623588235816 140.70765569218202,106.73586513449845 131.67909559700638,102.72139044905634 124.0,101.15596012532478 132.34311781043652,102.89813125411456 140.98611662042094,106.84948031948443 151.0,108.8440398746825 148.09758032526588,108.18760634139471 148.09758032526588,107.99824982374412" stroke="#4DD2FF" stroke-linecap="round" stroke-linejoin="round" stroke-width="0.5"><title>2025-08-01 5.0km</title><desc>1754057984000</desc></polyline><polyline fill="none" points="185.91685649202554,116.27037494332762 181.31093394078198,115.36017757382069 176.2403189066099,113.0242215596445 175.15375854211743,112.6778493869424 166.9533029612794,111.09096078505536 165.45671981776832,111.04262861816096 163.96697038723505,111.1715143263209 163.2562642369012,111.04262861816096 162.66856492025545,110.71235796572728 162.23804100227426,110.30153143710777 161.74601366743445,109.3670939708245 161.5,108.5534793191764 164.51366742598475,106.05619032276445 166.6047835990903,103.82467041152995 168.51822323462693,102.14897219411068 169.96013667425723,101.31916526597342 171.08769931664574,100.48934902359179 171.8872437357786,100.40878384379903 172.1742596811091,100.23154013918975 173.04897494305624,99.22446556884097 173.7323462414497,97.70979958012322 174.40205011391663,97.10553587078903 177.60022779044812,95.34911464173638 181.3451025056711,93.72962505667238 181.4066059225297,94.25334447635396 181.9533029612794,94.63203159109253 182.52050113896257,95.64722577278008 182.86902050112258,96.62212134669971 183.73006833714317,98.40268255403498 185.97152619590634,102.60012545042264 186.27220956719248,103.50242370394699 187.16059225512436,105.36337907554844 187.76195899772574,107.4337375864925 187.80296127562178,108.72264745914435 187.7209567198006,109.18987173997448 187.93280182231683,109.34292732799076 187.73462414575624,110.5593052120239 188.5,110.8492996347486 188.4726651480305,111.24401243845932" stroke="#4DD2FF" stroke-linecap="round" stroke-linejoin="round" stroke-width="0.5"><title>2025-07-28 10.0km</title><desc>1753704756000</desc></polyline><polyline fill="none" points="35.84889336017659,138.31062527570612 28.67786720325239,136.87627334967692 20.4637826961698,133.11101630351186 19.127364185114857,132.66276338630996 11.5,131.13869068601343 19.963983903406188,132.95732978155138 27.03722334007034,136.28715945468866 28.87344064383069,136.97872763887426 38.5,138.86130931398657 35.95754527160898,138.28501200188475 36.08792756538605,137.45257756528008" stroke="#4DD2FF" stroke-linecap="round" stroke-linejoin="round" stroke-width="0.5"><title>2025-07-22 5.0km</title><desc>1753194638000</desc></polyline><polyline fill="none" points="64.35765124554746,136.42519329274364 73.3016014234745,138.19949229255872 76.0,138.35993243262783 73.64590747331386,138.22780528003204 58.90480427048169,135.33983291356708 52.47508896799991,132.42344943210628 49.0,131.64006756737217 52.43505338081741,132.4423260161784 58.464412811386865,135.2265771343009 60.9466192171094,135.7551028379603" stroke="#4DD2FF" stroke-linecap="round" stroke-linejoin="round" stroke-width="0.5"><title>2025-07-19 6.4km</title><desc>1752877000000</desc></polyline><polyline fill="none" points="111.02734673110535,146.34391244150902 106.43233273975784,145.4290842026603 101.21228694988531,143.04076273152896 100.31938438056386,142.7573974648767 91.83680997201009,141.12195396038442 88.8970999745361,141.21911002537672 88.25833121340838,141.09766492430208 87.66077334008878,140.74952120145463 87.07695242940099,140.13419342420093 86.56868481301353,138.99258497641858 86.5,138.5796584536438 89.50152632917161,136.09395424617105 91.48651742559741,133.94014982158842 93.4440345967887,132.23163649913477 95.8342660900671,130.63644878939522 96.25324344949331,130.43401135208114 96.89201221065014,130.4016213109353 97.34533197659766,130.1182078485581 98.08712795726024,129.2355704255533 98.75337064362247,127.72129647624388 99.46082421779283,127.06537144248432 102.93627575680148,125.17044436939614 106.48728059019777,123.65608755849098 106.49414907148457,124.23915907630726 107.04362757568015,124.60357645093609 107.40765708469553,125.27571936370805 108.15632154667401,126.99249052570667 110.46413126430707,131.33282936178875 111.06855761894258,132.78225171761005 111.23340117017506,132.9360993582086 112.27054184686858,135.59194526018837 112.5040702111437,135.92391932424653 112.87496820147499,137.3084780893114 112.94365301451762,138.22340627683297 112.83375731366687,139.61601871328457 112.4972017298569,140.9195450837724 113.5,141.14624298853596" stroke="#4DD2FF" stroke-linecap="round" stroke-linejoin="round" stroke-width="0.5"><title>2025-07-17 10.0km</title><desc>1752756134000</desc></polyline><polyline fill="none" points="151.0,138.81001207380177 143.84195969975553,137.37658058895613 134.76372975111008,133.34024369516555 124.0,131.18998792619095 135.24377716321032,133.54143516851764 143.6392730146763,137.3640065497966 150.66930067166686,138.79743819076248" stroke="#4DD2FF" stroke-linecap="round" stroke-linejoin="round" stroke-width="0.5"><title>2025-07-14 5.0km</title><desc>1752500928000</desc></polyline><polyline fill="none" points="188.5,138.78223850869836 181.34362783422694,137.37637853726483 173.94448788114823,133.94252392493217 172.192337763845,133.30799601293256 161.5,131.21776149130892 172.88897576229647,133.4946222352737 181.47028928849613,137.42614378735016 187.74003127444303,138.68270916824258" stroke="#4DD2FF" stroke-linecap="round" stroke-linejoin="round" stroke-width="0.5"><title>2025-06-21 5.0km</title><desc>1750468889000</desc></polyline><polyline fill="none" points="29.97303190268576,166.65815049567027 36.99414734909078,168.06054482147738 38.5,168.14088944171817 37.20484278173535,168.06054482147738 25.72813862748444,165.81816068684566 24.494950654130662,165.33607482795196 20.807780582952546,163.5830061302404 20.15710351159214,163.3711738928905 12.634037181560416,161.91024369176012 11.5,161.85911055827455 12.503901767282514,161.8810247631336 15.43504705070518,162.4215728822819 20.708629791159183,163.56109248151915 24.631282992864726,165.4164227117435 25.63518476014724,165.80355207536923 26.725843470252585,166.0226809134765" stroke="#4DD2FF" stroke-linecap="round" stroke-linejoin="round" stroke-width="0.5"><title>2025-06-17 8.1km</title><desc>1750165544000</desc></polyline><polyline fill="none" points="76.0,168.7659015625395 69.1925754059921,167.41218310472323 60.31786542921327,163.44938676458696 49.0,161.2340984374605 60.33874709974043,163.49861490079638 69.04640371224377,167.39987649892282 74.78886310901726,168.56899806736328" stroke="#4DD2FF" stroke-linecap="round" stroke-linejoin="round" stroke-width="0.5"><title>2025-06-15 5.0km</title><desc>1749939796000</desc></polyline><polyline fill="none" points="105.15694828683627,166.5476281631636 111.52915513937478,167.8208640805533 113.5,167.94276827983776 111.9486060864001,167.84795392326487 101.28420940626529,165.77554687948214 100.24420089379419,165.38272991589474 96.76792934664991,163.73016241009464 95.99223238986451,163.47279138720114 88.98223026178312,162.11818949895314 88.13183656099136,162.05723172016587 86.5,162.18592029421416 88.81559906364419,162.10464333106574 95.69344541392638,163.43215375990985 96.52660140453372,163.66243329680947 98.51468397531426,164.60386135783847" stroke="#4DD2FF" stroke-linecap="round" stroke-linejoin="round" stroke-width="0.5"><title>2025-06-11 8.1km</title><desc>1749642919000</desc></polyline><polyline fill="none" points="151.0,168.75761206554307 143.98565335402964,167.40021930405055 135.17060876305914,163.46368833849556 124.0,161.24238793445693 135.29623885225737,163.51305007506744 144.0589375726413,167.46191932777583 149.8379216750618,168.62187352111505" stroke="#4DD2FF" stroke-linecap="round" stroke-linejoin="round" stroke-width="0.5"><title>2025-06-08 5.0km</title><desc>1749387304000</desc></polyline><polyline fill="none" points="171.9601398599334,172.2563473537739 174.86783216753975,170.52019920607563 180.98531468515284,169.40727984640398 184.08181818178855,167.09239786749822 187.44265734264627,167.18143203217187 188.3489510489162,166.42464101308724 182.3825174823869,156.7197848650394 178.34195804176852,157.5211119944288 174.4902097901795,159.7915303253103 172.3377622377593,159.7915303253103 168.9013986014761,161.39417096233228 163.27482517482713,162.55162973457482 163.46363636362366,166.20205515241832 161.5,168.65049295013887 163.16153846145608,170.4756824898359 163.8790209791623,172.74602883096668 164.9363636362832,173.41377535375068 171.50699300691485,172.03376467025373 174.98111888114363,170.4756824898359 180.04125874117017,169.8079311651527 184.27062937058508,167.09239786749822 187.2538461536169,167.22594910740736 188.46223776205443,166.20205515241832 182.3825174823869,156.58623019064544 177.88881118874997,157.5656301221461 174.565734265605,159.74701244014432 171.5447552446276,160.05863753479207 167.84405594388954,161.70579480053857 163.38811188796535,162.46259456081316 163.5013986013364,166.42464101308724 161.5,168.65049295013887 163.27482517482713,170.56471591748414 164.18111888109706,172.87957822266617 165.46503496496007,173.50280814105645 175.81188811152242,170.34213231221656 180.1545454543084,169.8524479540356 183.893006992992,167.3149832431227 187.36713286698796,167.2704661777243 188.5,166.15753796565696 181.9671328670811,156.45267547256663 177.51118881092407,157.8327387869067 174.41468531475402,159.74701244014432 163.5769230767619,162.24000654157135 163.53916083928198,166.20205515241832 161.53776223771274,168.56145910560736 163.23706293688156,170.4756824898359 163.8790209791623,172.6124793953786 165.8048951048404,173.54732452743337 181.06083916057833,168.91759436775465 182.9489510487765,166.38012385068578 182.3825174823869,163.842637573689 179.8902097903192,160.7264047942881 177.77552447561175,159.65797665526043 175.96293706283905,159.56894085078966 173.88601398584433,160.4147802090156 170.52517482521944,164.46588127722498 165.1629370630253,165.35622777591925 161.95314685301855,167.89370465217507 161.83986013988033,168.96211125364061 163.6524475524202,171.14343272330007" stroke="#4DD2FF" stroke-linecap="round" stroke-linejoin="round" stroke-width="0.5"><title>2025-06-04 6.4km</title><desc>1749041988000</desc></polyline><polyline fill="none" points="38.5,198.7822926046283 31.579875920899212,197.4002201252515 23.696587824786548,193.75985925654095 22.50310197751969,193.36496562202228 11.5,191.2177073953717 22.81717720051529,193.4883700306309 31.422838309430517,197.37554010635358 37.170414889464155,198.56017495014385" stroke="#4DD2FF" stroke-linecap="round" stroke-linejoin="round" stroke-width="0.5"><title>2025-05-28 5.0km</title><desc>1748436903000</desc></polyline><polyline fill="none" points="76.0,198.7704701553448 68.50237341772299,197.2346258794205 59.81922468356788,193.30680015370308 49.0,191.21694104147173 59.466772151878104,193.2312637355426 60.76977848104434,193.64671342453948 69.13251582282828,197.4738160835186 75.87183544307481,198.78305895852827" stroke="#4DD2FF" stroke-linecap="round" stroke-linejoin="round" stroke-width="0.5"><title>2025-05-27 5.0km</title><desc>1748351986000</desc></polyline><polyline fill="none" points="106.49476505536586,200.56973551820556 106.53084708336974,198.9533236429561 107.37877474335255,197.03381156545947 107.93804617866408,193.47254545317264 107.90196415054379,193.80089273079648 107.09011851868127,193.90192251550616 103.13913644338027,196.70547147485195 101.6417322778725,197.0590684653289 101.04637881444069,196.0740461719688 101.73193734802771,194.9627310827491 102.99480833107373,193.97769480869465 102.79635717655765,192.28543766700022 103.39171063998947,191.19935197279847 102.59790602215799,190.74470907823707 99.69330276129767,190.79522502458713 98.93558017147006,189.68387021525996 99.18815436813748,188.37044011337275 99.747425803449,188.54724869203346 99.69330276129767,187.6884621843492 100.52318940724945,188.19363132303988 102.03863458684646,188.14311448692752 103.24738252768293,188.95138179129572 104.88911480555544,189.0018983510381 105.55663232511142,188.67354040438659 107.19836460298393,186.37501433712896 107.2705286591081,182.53563826884783 106.67517519567627,181.85363339612377 105.73704246553825,181.5 104.5824175667949,181.82837389592896 103.55407976638526,182.9650471285422 102.76027514843736,183.24289925477933 101.13658388471231,182.93978781838086 99.42268755059922,182.00519030670694 97.8531193289673,182.53563826884783 97.0593147110776,183.7480835996248 97.0953967391979,185.0362958573969 97.78095527278492,185.99613297969336 99.33248248044401,186.72863606043393 99.69330276129767,187.61268666454998 98.9897032136214,189.2544808901148 99.4948516068398,190.769967053624 99.6211387051153,192.86636394601373 98.9536211855011,195.13953176994983 99.47681059275055,195.7709610677848 101.01029678643681,196.14981735081528 101.60565024975222,197.0590684653289 100.23453318257816,199.28165873675607 98.53867786249612,199.96358313792734 95.70623865787638,202.03459350085177 93.6495630570571,202.91855249649961 93.18049669195898,204.13083051687863 92.02587179321563,205.3936095416866 93.0181275656214,208.22219538311765 93.92017826763913,208.42423515632981 95.11088519450277,207.6918396637484 96.50004327576607,208.2727053523995 97.51034006214468,208.14643039696966 98.30414468003437,207.31301298408653 98.88145712943515,205.21682112806593 100.2525741966092,204.4591541018599 103.39171063998947,205.4441204781615 104.5824175667949,204.8632436661428 106.44064201315632,204.76222137876903 106.54888809740078,199.15537609483 107.97412820678437,194.15449667496432 107.75763603823725,193.80089273079648 107.21640561695676,193.8514076318097 103.15717745741131,196.7307284307899 101.69585532002384,197.03381156545947 100.09020507021341,199.35742827017384 98.37630873615853,200.03935232151707 95.68819764390355,202.03459350085177 93.75780914135976,202.7922729638667 93.18049669195898,204.20659756285022 92.02587179321563,205.49463139727595 92.92792249534978,208.09592038458504 93.5232759587816,208.5 95.0026391102001,207.6918396637484 96.69849443022395,208.29796033048478 97.83507831487805,207.8433700636233" stroke="#4DD2FF" stroke-linecap="round" stroke-linejoin="round" stroke-width="0.5"><title>2025-05-23 6.4km</title><desc>1747958832000</desc></polyline><polyline fill="none" points="139.95308017521165,196.2609099506517 140.6837849081494,196.95508605199575 142.51054674061015,197.24737005149655 143.42392765684053,198.41650205080805 143.18905827833805,203.01989710853377 142.74541611899622,203.86018867589883 141.15352366515435,204.33513462169503 139.58772780874278,203.78711997522623 138.12631834263448,204.11592893171473 135.64714156999253,202.65455191805086 134.1596355063375,203.23910392301332 133.0635784069309,203.0564315932861 133.37673757807352,201.99692900072841 132.59383965004236,199.95097809076833 132.82870902842842,198.48957258829614 131.993617905071,197.10122810167377 132.35897027153987,194.90908685923205 137.6304829880828,194.6898714978597 139.43114822299685,195.3475169071171 140.37062573677395,196.84547944900987 142.38006375252735,197.21083457340137 143.26734807121102,198.05114898820466 143.18905827833805,203.1295005438733 142.79760931432247,203.86018867589883 141.25791005545761,204.29860035570164 139.7704039918026,203.8236543286912 138.07412514742464,204.07939462825016 135.5949483747827,202.6910864651727 132.43726006429642,203.3487072458811 130.74098121980205,204.73701113578863 131.28900976956356,205.1388868940121 131.70655533124227,207.33092317769479 134.26402189675719,208.5 135.3600789962802,207.7327940568066 136.09078372933436,206.2349078469706 135.98639733879827,205.0658186305227 134.62937426322605,202.91029361690744 135.98639733879827,202.6910864651727 138.10022174508777,204.07939462825016 139.7704039918026,203.60444811395428 139.56163121107966,203.0564315932861 137.86535236658528,203.09296607170836 136.9519714503549,201.92385966274014 137.81315917137545,198.48957258829614 135.56885177711956,195.05523030851327 135.72543136274908,192.315023998759 136.32565310772043,191.14585860955412 137.5260965975467,190.45166363242606 139.79650058946572,191.18239512490982 141.6493590195896,190.70741993909178 139.56163121107966,192.7534593702294 137.39561360958032,192.64385061174107 136.09078372933436,191.65736925475358 134.08134571358096,191.21893163386267 134.1335389087908,186.7614314134844 135.02082322735805,184.89802260746364 135.0730164225679,182.12114795439993 135.6210449723294,181.57307632359152 137.29122721916065,181.5 142.09300117893144,182.19422406563535 143.08467188791838,183.0711354503146 143.42392765684053,184.89802260746364 144.25901878031436,185.81146032754623 143.71099023055285,186.5422076916584 144.050245999475,187.0171921379515 142.40616035019048,188.00369492125174 142.22348416689783,190.30551703396486 139.79650058946572,192.68038687076478 137.891448964132,192.7534593702294 136.0124939364614,191.54775993383373 134.18573210388422,191.328541123381 134.10744231124409,187.0171921379515 135.2295960081974,183.29036273398378 136.4039429005934,182.85190794157097 136.4300394981401,181.7557670234819 141.779842007556,182.0846098894981" stroke="#4DD2FF" stroke-linecap="round" stroke-linejoin="round" stroke-width="0.5"><title>2025-05-20 5.0km</title><desc>1747754393000</desc></polyline><polyline fill="none" points="184.92259414237924,196.88678985866136 187.4456066947896,197.19754025462316 188.5,196.08771632399294 182.2489539750386,186.6762878690206 177.8807531381026,187.74174351306283 174.4916317993775,189.73946533541312 172.38284518825822,189.82825274462812 167.26150627620518,191.78157085122075 163.1569037658628,192.35868577228393 163.49581589968875,196.13210933920345 161.5,198.70689594867872 163.1569037658628,200.1718534809188 163.75941422604956,202.21390670671826 164.66317991632968,203.10175274306675 166.35774058592506,203.36810617669835 174.83054393320344,200.6157789659337 179.87656903779134,199.9054979578359 184.24476987472735,197.01996862894157 187.4456066947896,197.10875445153215 188.4246861927677,196.26528835605131 182.3995815902017,186.72068190973368 180.7426778243389,186.76507594564464 174.64225941430777,189.65067790696048 171.85564853576943,189.9614338221727 168.35355648538098,191.5596033561451 162.85564853576943,192.58065283187898 163.64644351485185,195.51060668524588 161.5,198.66250321402913 163.08158995839767,199.9942831514636 163.57112970738672,201.85876775055658 164.70083682029508,203.05736048726249 166.35774058592506,203.2793217182916 175.5460251045879,200.26063861662988 180.47907949821092,199.63914226053748 184.05648535559885,197.10875445153215 187.48326359852217,197.10875445153215 188.4246861927677,196.17650234969915 182.3995815902017,186.76507594564464 181.08158995816484,186.63189382333076 177.69246861943975,187.74174351306283 174.75523012550548,189.65067790696048 172.34518828452565,189.73946533541312 167.8263598328922,191.64839036864578 163.34518828475848,192.44747261054 163.57112970738672,195.95453724917024 161.57531380769797,198.5737177300034 163.08158995839767,200.08306832588278 164.13598326360807,202.70222226623446 166.50836820108816,203.23492948169587 174.15271966555156,200.660171487747" stroke="#4DD2FF" stroke-linecap="round" stroke-linejoin="round" stroke-width="0.5"><title>2025-05-14 5.0km</title><desc>1747227249000</desc></polyline><polyline fill="none" points="21.06141099985689,238.2072240831185 21.611394148669206,237.70532147266204 22.40975678374525,234.73570418082818 24.804844689089805,235.1121370839246 26.099966297275387,229.92566322856874 25.851586810778826,226.60039055150992 23.350050554028712,220.3470488191233 23.456498905434273,218.94577039235446 25.195155310910195,218.00460749759804 27.785398527048528,217.56539656739915 29.453089364920743,216.41507746368006 30.819176540593617,216.5405671554763 31.333676905487664,215.99677789857378 28.58376116224099,211.60457742671133 27.891846878337674,211.5 25.99351794598624,212.1902099634608 24.804844689089805,213.00590944757278 23.775843959418125,213.02682477340568 21.682359716156498,213.863435936757 19.53565129719209,214.17716418294003 19.67758243228309,215.80854279684718 18.666323094512336,217.08435487173847 18.84373701340519,217.54448173608398 19.446944337687455,217.9418631404842 20.050151662086137,219.34314889581583 20.813031513476744,219.42680742329685 27.625726000056602,217.37716300397005 28.38860585144721,216.7078866167867 28.672468121745624,215.80854279684718 28.335381675628014,214.6372980163287 27.14670841896441,213.3614696762961 25.6919142837869,212.9013327843859 24.414534067502245,213.25689320683887 22.711360445944592,215.1810911246721 20.28078975668177,215.59939246736758 18.879219797207043,216.85429102586932 18.914702581008896,217.54448173608398 20.813031513476744,219.00851442132262 22.977481324225664,218.77845288168464 27.572501824470237,217.37716300397005 28.566019770340063,216.45690737005498 28.619243946042843,215.4529871011182 27.891846878337674,214.13533377973363 26.170931864879094,212.96407878912578 23.775843959418125,213.04774009693938 21.52268718916457,213.94709685254202 19.500168513390236,214.34448570449604 19.659841040498577,215.8922028648376 18.684064486296847,217.1680143837002 19.464685729704797,217.9418631404842 19.854996351292357,219.0712584296998 20.759807337773964,219.44772204950277 21.824290851247497,218.90394102841674 23.793585351319052,218.56930578823085 23.332309162127785,219.42680742329685 23.38553333771415,220.09607433053316 25.620948716183193,225.70109307739767 26.153190472978167,228.294404584085 25.958035162184387,231.20138148439582 25.070965567603707,234.5265744713688 22.782326013431884,234.19196646231285 21.877515026950277,237.24524292709248 21.185600743163377,237.53802031086525 20.901738472864963,238.5 20.52916924317833,238.35361209738767" stroke="#4DD2FF" stroke-linecap="round" stroke-linejoin="round" stroke-width="0.5"><title>2025-05-06 7.1km</title><desc>1746539597000</desc></polyline><polyline fill="none" points="59.31684361433145,238.5 59.133903592126444,238.28435963652737 59.99372169631533,235.41632046682935 62.17070796014741,235.9338644418458 62.55488200671971,235.26536988592125 63.68911014404148,230.49958522240922 63.65252213960048,228.12743244334706 60.41448374732863,219.1561248897342 59.536371640861034,218.96202960774826 58.29237949021626,219.56588097129134 57.52403139707167,219.41491830308223 56.0788052220596,217.1720308127551 57.06668134173378,216.09371047242894 56.82885931292549,214.36838570807595 58.10943946801126,214.3036857367988 62.390235986677,213.09594905805716 63.78058015508577,212.2332754896488 66.06733043212444,211.54313392755284 69.01266478910111,216.05057753656 68.64678474480752,216.63287137694715 67.03691254975274,216.48190647170122 65.31727634125855,217.7327550680784 62.701234024367295,218.1209478527453 61.16453783819452,218.85419881320558 59.207079601008445,219.11299262134708 58.017969456966966,219.60901314098737 57.24962136382237,219.28552163871063 56.81056531064678,218.07781535870163 56.115393226384185,217.56022469713935 56.115393226384185,217.1504644635279 57.06668134173378,215.87804569935543 56.81056531064678,214.3899523604341 58.82290555443615,214.13115237673628 62.335353980073705,213.00968187041872 65.66486238338985,211.5 66.17709444544744,211.6725356537936 68.9943707868224,216.05057753656 68.7199607535731,216.58973855864315 67.16497056512162,216.48190647170122 64.91480829252396,217.883719019228 63.08540807082318,218.01311659999192 58.10943946801126,219.56588097129134 57.341091374866664,219.3502199814975 56.84715331508778,218.07781535870163 56.115393226384185,217.517092080976 57.048387339455076,215.92117867272464 56.82885931292549,214.36838570807595 58.74972954567056,214.13115237673628 62.1890019623097,213.07438226472004 63.41470011079218,212.31954301570659 65.70145038783085,211.5 66.12221243884414,211.6725356537936 68.97607678466011,216.02901106515492 68.70166675141081,216.56817214586772 67.03691254975274,216.4603400472697 65.26239433477167,217.75432135388837 62.68294002208859,218.1209478527453 60.835245798225515,218.91889729698596 59.31684361433145,219.0482942009985 58.14602747245226,219.5874470573326 57.28620936826337,219.26395551979658 56.82885931292549,218.07781535870163 56.09709922410548,217.5386583902291 56.0788052220596,217.1720308127551 56.81056531064678,216.4603400472697 55.95074720645789,217.25829618619173 56.75568330404349,218.20721281263104 57.12156334833708,219.19925714879355 57.908205443643965,219.67371137811278 62.463411995442584,218.25034527845855 65.18921832577325,217.9268515555741 66.94544253859203,216.58973855864315 68.5736087358091,216.58973855864315 69.04925279354211,216.09371047242894 65.99415442335885,211.5 63.67081614176277,212.19014171257732 62.225589966750704,213.11751584906597 60.926715809386224,213.20378298975993 58.93266956775915,214.02331895034877 56.572743281838484,214.49778558711114 56.97521133068949,215.87804569935543 56.042217217502184,217.0210663187463 56.005629213061184,217.58179100176494 56.73738930176478,218.1425140962092 57.06668134173378,219.1561248897342 57.76185342599638,219.5874470573326 60.41448374732863,219.13455875671934 63.268348093144596,226.5531699071289 63.597640132997185,228.23525818638154 63.67081614176277,230.41332561943273 62.37194198439829,235.73978560976684 59.88395768299233,235.43788482611126 59.33513761649374,238.04715496544668 59.04243358108215,238.28435963652737" stroke="#4DD2FF" stroke-linecap="round" stroke-linejoin="round" stroke-width="0.5"><title>2025-04-29 10.1km</title><desc>1745929124000</desc></polyline><polyline fill="none" points="112.46288303844631,222.42462373730086 112.00841605523601,222.0400183712045 112.26478204579325,220.62520996679086 111.62386706948746,222.74054869628162 111.13444108766271,222.80922793049103 109.67781614157138,228.52320921795035 109.5146741476492,228.564414873661 102.09171342250193,227.09473816500395 92.62947777297813,222.83669961369014 86.5,221.53178805270727 92.58286577468971,222.85043545305234 100.052438498009,226.35302566026803 102.17328441952122,227.1496796584761 113.5,229.37479003320914 109.6195511437254,228.5369444379976 109.86426413466688,227.5342694429055 110.55179110914469,227.36944539318938 112.11329305131221,220.80377889306692 112.41627104009967,220.6938903529881 112.00841605523601,221.76529953444697" stroke="#4DD2FF" stroke-linecap="round" stroke-linejoin="round" stroke-width="0.5"><title>2025-04-22 6.3km</title><desc>1745328842000</desc></polyline><polyline fill="none" points="133.58290893549565,237.7065819974814 134.0316449047532,237.50822701070865 134.96651150728576,234.44471974590851 137.3597700096434,234.79735603785957 138.61249125690665,230.23507655138383 138.40682060446125,225.62861269786663 135.80789144942537,219.25873630018032 135.75179945328273,218.1566612082388 137.15409935708158,217.01049674367823 140.10827782098204,216.52557905377762 142.23977367463522,215.1369446930621 143.64207357843406,215.2691959952499 144.22169087198563,214.7622322007228 142.96896962460596,212.80049076444993 141.2862097400939,213.66013261199987 139.9400018324377,212.09514087894058 138.50030726462137,211.5 135.80789144942537,211.72042275195417 133.97555290861055,212.5359848455846 131.50750507798512,212.954785724025 131.88145171897486,214.49772884703998 130.7970064600231,216.06270199271967 131.60099173826165,216.74599632962781 132.0123330433853,217.89216229283193 132.8537129855249,218.33299362644902 135.92007544171065,217.60562141083938 137.69632198649924,216.83416317273804 140.03348849271424,216.52557905377762 141.9593136938056,215.225112237531 143.64207357843406,215.2471541176783 144.20299353986047,214.71814833245298 142.9876669566147,212.80049076444993 141.30490707210265,213.6160485035798 139.9400018324377,212.0730986554263 138.61249125690665,211.52204228601477 135.71440478926525,211.72042275195417 134.01294757274445,212.51394267009164 131.9749383792514,212.8225329087145 131.6944783985382,213.04295421954885 131.84405705484096,214.5638547178678 130.7970064600231,215.95249301256263 131.56359707412776,216.74599632962781 131.95624104724266,217.91420388229017 132.76022632536478,218.37707670690725 137.73371665063314,216.81212146561302 139.95869916456286,216.56966252817074 141.97801102593075,215.225112237531 143.71686290658545,215.225112237531 144.18429620796815,214.67406445462257 142.9502722924808,212.7564064686594 141.2114204118261,213.59400644570997 139.92130450042896,212.0730986554263 138.78076724533457,211.5881691295799 136.27532475069165,211.6102114059613 133.82597425219137,212.5359848455846 131.9375437151175,212.8225329087145 131.67578106641304,213.02091209929495 131.80666239082348,214.7622322007228 130.77830912801437,216.01861840786296 131.6196890702704,216.79007975605782 131.99363571126014,217.91420388229017 132.6106476689456,218.3109520825965 140.1269751531072,216.23903623607475 141.0431444233982,215.48961464011518 141.3609990682453,214.365477040541 141.09923641965725,213.5278802577959 140.18306714913342,212.40373175652348 138.7433725813171,211.54408456964302 136.2566274186829,211.6322536799853 133.75118492392357,212.602111357759 131.6570837344043,212.954785724025 131.88145171897486,214.45364492113004 130.7970064600231,215.97453481335833 131.71317573054694,217.0986634715373 131.35792642156594,217.78195430927735 132.2927930240985,219.69956465590803 133.02198897406925,222.91758255226887 133.33984361891635,226.53228134020173 133.26505429064855,228.91265746948193 131.43271574983373,237.8828973779746 132.76022632536478,238.5" stroke="#4DD2FF" stroke-linecap="round" stroke-linejoin="round" stroke-width="0.5"><title>2025-04-15 8.8km</title><desc>1744723077000</desc></polyline><polyline fill="none" points="188.32256297930144,222.11555058220983 187.53888280398678,222.0632622097619 188.11555312166456,220.37259562626423 187.43537787522655,223.1961731211777 187.59802847763058,223.63190595147898 186.69605695514474,226.62971566361375 185.823658269539,226.6471446256328 185.83844468783354,227.37915931733733 184.8329682367039,230.63832694699522 175.0295728368219,228.68632008161512 163.79189485206734,223.47504226924502 161.5,222.81272724908195 163.9545454545878,223.5970473687048 175.01478641841095,228.7037488197093 184.86254107346758,230.6208984196128 185.18784227827564,229.31375345625565 185.92716319829924,229.22661007908755 186.5629791895044,227.37915931733733 188.5,219.36167305300478 187.98247535608243,222.23755671823164" stroke="#4DD2FF" stroke-linecap="round" stroke-linejoin="round" stroke-width="0.5"><title>2025-04-11 5.1km</title><desc>1744377642000</desc></polyline><polyline fill="none" points="19.269281691638753,268.5 20.182469324558042,267.489487409548 20.424743594485335,268.23638850795396 21.337931227404624,267.489487409548 22.362937754020095,264.39201509868144 24.767043971223757,264.9412157864572 25.195683064172044,264.78743974464305 26.313872002414428,259.9763872182375 26.388417931622826,257.3401453783008 25.92250587407034,254.98946733966295 23.238852422335185,249.14560693781823 23.164306493126787,248.1569671883044 24.468860254390165,247.05847289254598 27.469333905144595,246.5751335065288 29.556619923212565,245.14707855210872 30.917083131382242,245.2788994331204 31.606632976676337,244.70767499279464 30.13435087457765,242.40079059636628 28.587522843386978,243.30157716825488 26.76114757778123,241.76364644480054 25.121137134963647,241.67576433482463 24.245222466648556,242.09320401590958 22.47475664783269,244.02659758357913 19.940195054514334,244.40009193155856 18.467912952648476,245.6743615591986 18.393367023323663,246.09179296197544 19.157462797826156,246.72892343683634 19.474282996961847,247.76150993116607 20.31292470067274,248.24484647337522 27.67433521070052,246.17967314712587 28.68070525501389,245.21298900338297 28.792524148710072,244.1364489342086 27.692971692886204,242.42276104840857 25.92250587407034,241.5 23.53703613905236,241.6318232654885 21.207475851173513,242.53261327285145 19.194735762430355,242.88413998897886 19.36246410314925,244.4220621658169 18.393367023323663,245.60845125872584 18.393367023323663,246.02588279791235 19.157462797826156,246.6630134810839 19.95883153693285,248.22287665563636 20.778836758225225,248.24484647337522 21.87838921416551,247.67363043544174 22.884759258595295,247.76150993116607 25.829323462443426,255.56066265427216 26.18341662629973,257.60377111313574 26.071597732487135,259.71276458504144 25.02795472345315,264.1723344048514 22.623848506249487,263.7988766760827 21.673387908842415,266.69864793760644" stroke="#4DD2FF" stroke-linecap="round" stroke-linejoin="round" stroke-width="0.5"><title>2025-04-08 5.6km</title><desc>1744119870000</desc></polyline><polyline fill="none" points="58.68841104069725,266.22279384173453 59.419400704151485,265.15598509067786 59.97634520957945,262.7761591798626 62.291145810333546,263.2069919617643 63.526866431871895,258.44726081666886 63.579079979273956,256.5187148169498 63.24839417915791,254.63118258801114 60.881380031001754,248.7632985329692 60.881380031001754,247.63483832952625 62.186718715704046,246.67051243354217 64.91922769561643,246.26015949061548 66.72929733828641,245.02909529639874 68.2957037598826,245.02909529639874 68.71341213898268,244.49563164620486 67.33845539117465,242.3207257387403 65.65021735901246,242.97730375418905 64.0490019057761,241.6436272625142 61.47313356801169,241.58207273487642 59.08871490403544,242.4643523752893 57.10460010328097,242.83367750897014 57.209027198085096,244.49563164620486 56.286587860959116,245.60359292195062 56.965363976953086,246.38326546740427 57.36566784029128,247.53225070299231 58.44474781956524,247.90156589698745 59.401996188331395,247.38862793192675 61.02061615732964,247.20396992248425 62.60442709468771,246.50637136369187 65.02365479042055,246.15757111515268 66.85112894885242,244.94702406400756 66.57265669613844,245.50100418883085 67.02517410682049,244.82391714828555 68.36532182310475,244.92650625035458 68.66119859163882,244.41356018124497 67.58211861230666,242.66953309456585 66.05052122229245,243.46973576329765 64.83220511657419,242.05399026606756 63.54427094775019,241.5 61.351301957445685,241.56155455451517 59.21054651460145,242.42331620461482 57.156813650683034,242.75160531961592 57.139409134862944,244.57770307539613 56.33880140830297,245.39841539978806 56.286587860959116,245.8087702206103 56.98276849271497,246.42430077510653 57.17421816656133,247.2860401712678 58.1140620195074,247.88104840523738 59.34978264098754,247.36811038423912 60.9509980941657,247.20396992248425 62.41297742095776,246.5474066445313 63.805338684644084,246.36274781019893 63.96197932685027,247.53225070299231 67.5299050649046,254.7747998355917 63.89236126356991,256.04683353322616 63.68350707407808,259.26791269924433 62.795876768475864,262.73512743496394 62.343359357793815,263.08389698182873 61.090234220493585,268.5 56.286587860959116,267.2690811709472 57.01757752435515,264.1302017472626 57.26124074548716,264.0071073706349 56.84353236632887,266.01763878189377" stroke="#4DD2FF" stroke-linecap="round" stroke-linejoin="round" stroke-width="0.5"><title>2025-04-02 6.9km</title><desc>1743601029000</desc></polyline><polyline fill="none" points="95.7553137508221,268.5 96.40103783342056,267.91794785880484 97.29365641833283,264.7166316180519 100.27538232936058,265.4330144081323 101.50985484034754,259.76904479989025 101.13001714460552,255.58253215104924 98.2242587726796,248.95557841929258 98.20526688790414,248.351082138528 98.77502343140077,247.54508433119918 99.78159332484938,247.05252855930303 103.01021373819094,246.47041567025008 104.51057263615075,245.26140670843597 105.09932106442284,245.17185020603938 105.1183129491983,244.36583992806845 104.35863755783066,242.82097805774538 103.75089724478312,242.86575682619878 103.16214881651103,242.19407427562692 102.66835981211625,242.3060215198493 101.56683049467392,241.63433713953418 100.38933363801334,241.54477905623207 99.17385301191825,241.97017960417725 97.54055092053022,243.9852228644304 95.07160589867271,244.3434507085185 93.22939307463821,245.82113396393834 94.33092239196412,247.88091713511676 95.58438678772654,248.39585970180633 99.93352840328589,246.94058390099963 102.74432735121809,246.53758262630436 104.89041033177637,245.05990452312108 106.31480169063434,245.2390175864566 106.80859069502912,244.70167792809661 105.27024802740198,242.3955792713241 103.57997028168757,243.31354397338873 102.55440850334708,242.12690589981503 101.22497656859923,241.5 98.73703966184985,241.6119476223539 96.4770053725224,242.55230524252693 94.06503600499127,242.95531433366705 94.21697108331136,244.72406710854557 93.19140930497088,246.0450244392996 94.02705223544035,246.828639181811 94.40688993118238,247.94808363007905 95.52741113340016,248.41824847973476 96.68591610528529,247.8361394596286 97.7874454226112,247.76897292815556 99.07889358792454,251.4183226643945 100.08546348148957,252.29147035496135 103.40904331859201,251.5974301854294 105.49815064494032,255.98551568786206 101.47187107068021,257.35117624123814 101.26296033803374,260.77648163713457 100.8451388728572,261.29139189134 99.78159332484938,265.0748233252234 99.55369070754386,265.25391894466884 97.29365641833283,264.8509535813937 96.59095668129157,267.5373744137469" stroke="#4DD2FF" stroke-linecap="round" stroke-linejoin="round" stroke-width="0.5"><title>2025-03-25 6.1km</title><desc>1742909450000</desc></polyline></svg>