<?xml version="1.0" encoding="utf-8" ?>
<svg baseProfile="full" height="300mm" version="1.1" viewBox="0,0,200,300" width="200mm" xmlns="http://www.w3.org/2000/svg" xmlns:ev="http://www.w3.org/2001/xml-events" xmlns:xlink="http://www.w3.org/1999/xlink"><defs /><rect fill="#222222" height="300" width="200" x="0" y="0" /><text fill="#FFFFFF" style="font-size:12px; font-family:Arial; font-weight:bold;" x="10" y="20">Over 5km Runs</text><text fill="#FFFFFF" style="font-size:4px; font-family:Arial" x="10" y="280">Runner</text><text fill="#FFFFFF" style="font-size:9px; font-family:Arial" x="10" y="290">Elliont</text><text fill="#FFFFFF" style="font-size:4px; font-family:Arial" x="65" y="280">SPECIAL TRACKS</text><rect fill="yellow" height="2.6" width="2.6" x="65" y="283" /><text fill="#FFFFFF" style="font-size:3px; font-family:Arial" x="70" y="285.5">Over 20.0 km</text><rect fill="red" height="2.6" width="2.6" x="65" y="287" /><text fill="#FFFFFF" style="font-size:3px; font-family:Arial" x="70" y="289.5">Over 40.0 km</text><text fill="#FFFFFF" style="font-size:4px; font-family:Arial" x="120" y="280">STATISTICS</text><text fill="#FFFFFF" style="font-size:3px; font-family:Arial" x="120" y="285">Number: 40</text><text fill="#FFFFFF" style="font-size:3px; font-family:Arial" x="120" y="290">Weekly: 1.9</text><text fill="#FFFFFF" style="font-size:3px; font-family:Arial" x="141" y="285">Total: 259.6 km</text><text fill="#FFFFFF" style="font-size:3px; font-family:Arial" x="141" y="290">Avg: 6.5 km</text><text fill="#FFFFFF" style="font-size:3px; font-family:Arial" x="167" y="285">Min: 5.0 km</text><text fill="#FFFFFF" style="font-size:3px; font-family:Arial" x="167" y="290">Max: 10.1 km</text><polyline fill="none" points="38.5,48.487740630189364 32.44349315069849,47.343359830687405 25.37910958903376,44.08452757853229 24.352739726018626,43.735749947227305 13.238356164365541,41.566761766735 11.5,41.446866576479806 12.813013698614668,41.534063092723954 24.08458904112922,43.71395130491146 25.490068493119907,44.171721796410566 32.36952054791618,47.354258757164644 38.41678082192084,48.55313342351292" stroke="#4DD2FF" stroke-linecap="round" stroke-linejoin="round" stroke-width="0.5"><title>2025-09-04 5.8km</title><desc>1756983645000</desc></polyline><polyline fill="none" points="76.0,48.14622428372968 70.68599759612698,47.08476381802757 64.33353365384392,44.18719830761984 60.893629807658726,43.38389589063445 53.39723557693651,41.95897233190772 51.863882211531745,41.93028235834208 50.00600961537566,42.083295442433155 49.0,41.853775716263044 49.462439903843915,42.06416882149642 50.103365384595236,42.15023858284985 51.863882211531745,41.97809897574916 53.494591346156085,42.02591556713014 63.668269230780425,44.00549959459022 64.75540865384392,44.39758582144714 70.70222355771693,47.15170314536954 74.03665865381481,47.754154795264185" stroke="#4DD2FF" stroke-linecap="round" stroke-linejoin="round" stroke-width="0.5"><title>2025-09-02 6.2km</title><desc>1756809719000</desc></polyline><polyline fill="none" points="113.5,48.49762634826038 107.40654205606552,47.30791804092587 99.17289719625842,43.66159523160604 88.02336448593996,41.502381390324445 86.5,41.39221618292504 87.9672897196142,41.52441441744304 98.60280373832211,43.58448124530696 100.04205607471522,44.0141155632009 107.55607476632576,47.451124411294586 113.49065420555416,48.60778381707496" stroke="#4DD2FF" stroke-linecap="round" stroke-linejoin="round" stroke-width="0.5"><title>2025-08-29 5.7km</title><desc>1756465472000</desc></polyline><polyline fill="none" points="151.0,48.36385409281502 145.1501481725718,47.21116515206813 138.24234441888984,44.04643906184356 137.1666117879795,43.721577181589964 126.32038195594214,41.615188054223836 124.0,41.615188054223836 126.43595653609373,41.70950497154263 137.45999341458082,43.836850877567485 145.0167928877636,47.2216442046265 150.8577543629217,48.38481194576889" stroke="#4DD2FF" stroke-linecap="round" stroke-linejoin="round" stroke-width="0.5"><title>2025-08-27 6.0km</title><desc>1756291993000</desc></polyline><polyline fill="none" points="187.2804716041428,48.377048728732916 182.73414148122538,47.54206122150936 180.7613749584998,47.03472353157849 174.538193291286,44.11748034624907 173.2558950514649,43.70525412942516 163.1409830620978,41.72865794180689 161.5,41.54896538291359 164.19910328794504,41.94006052626355 173.23796081036562,43.715824054314 174.34091663901927,44.06463092911872 180.25024908664636,46.87617995958135 181.7298239787342,47.39408800256206 187.27150448353495,48.45103461709368 187.48671537695918,47.62661724531063 188.5,47.79572907197871 187.99784124881262,47.67946472281619 188.03370973095298,47.42579656845919" stroke="#4DD2FF" stroke-linecap="round" stroke-linejoin="round" stroke-width="0.5"><title>2025-08-26 6.0km</title><desc>1756205162000</desc></polyline><polyline fill="none" points="38.5,80.04208147955796 33.34744341994519,79.02838595750654 27.742246437555877,76.44963009336789 26.58046940487111,76.08504079614795 17.3164291701396,74.29764044129115 14.223386420781026,74.43102987868042 13.401089689839864,74.24428460530908 12.608968985761749,73.76408051233011 12.201592623634497,73.27498084741092 11.530176026804838,71.60312713824533 12.020536462689051,71.0606566094284 13.393545683153206,69.95791852044931 11.764040234673303,71.25630213377735 11.5,71.62091299619351 11.930008382245433,72.85702062999917 12.284576697391458,73.4439428811238 13.529337803833187,74.32431834618183 14.306370494537987,74.4843855925792 15.996227996656671,74.33321097923181 17.3918692371808,74.35988887251733 26.72380553226685,76.15618029906909 27.74979044427164,76.50298448809917 33.256915339501575,79.02838595750654" stroke="#4DD2FF" stroke-linecap="round" stroke-linejoin="round" stroke-width="0.5"><title>2025-08-23 7.3km</title><desc>1755948655000</desc></polyline><polyline fill="none" points="76.0,77.33325244977459 75.59154383244459,78.740550623952 68.68968192406464,77.38263162882504 60.23778122582007,73.53099106394075 52.016291699022986,71.75326665906323 49.0,71.259449376048 59.70364623743808,73.41988410553313 68.38595810713014,77.33325244977459 74.03103180759354,78.48131279935478" stroke="#4DD2FF" stroke-linecap="round" stroke-linejoin="round" stroke-width="0.5"><title>2025-08-19 5.0km</title><desc>1755607675000</desc></polyline><polyline fill="none" points="112.7220712150156,82.02899787578644 107.81965207937174,81.06015738978022 102.13196520792553,78.43038792958396 101.17056265292922,78.15356502668146 92.19502582223504,76.43205094241421 88.84112530580023,76.52721098670736 87.73294373470708,76.0081548144808 86.96969285132946,75.08249622141011 86.54403370482032,73.698313709996 89.72179940203205,71.11155796895764 92.71609132917365,67.97100212421356 91.83541723291273,68.75831566935813 89.80986681161448,70.95583085399994 86.5,73.70696492562274 86.66145691767451,74.36445455511421 87.2779287850135,75.56695440086332 87.79899429195211,76.05140962508449 88.70168524057954,76.49260734744894 89.20073389509344,76.57046551459644 90.93272628434352,76.41474910392571 92.37849959233426,76.43205094241421 96.0186191900284,77.12412139109074 96.33419407450128,77.01166035356437 97.77996738246293,77.27983641095489 98.2129654797609,77.4701543539777 100.4073117695225,77.79888427231344 101.82372927427059,78.257373728331 102.55762435446377,78.2400722874736 102.54294645282789,78.43903862976731 103.01263930418645,78.42173722845473 102.66036966568208,78.65530582780048 103.19611307422747,78.98403084100573 107.49673824411002,80.92175064142793 108.31870073388563,81.15531188939349 108.57556401196052,81.03420614283823 109.97730361510185,81.13801107974723 109.97730361510185,81.46672581839084 112.35512367493357,81.94249474137905 112.77344387062476,81.98574632034433 112.89086708344985,81.38887245059595 113.28717042674543,81.31966939293488 113.5,80.60168411214545" stroke="#4DD2FF" stroke-linecap="round" stroke-linejoin="round" stroke-width="0.5"><title>2025-08-16 10.0km</title><desc>1755297330000</desc></polyline><polyline fill="none" points="140.24876847286941,74.05941793077363 139.76108374382602,76.54164817935089 151.0,78.74948350632621 132.3571428571595,75.05231619346887 124.0,71.25051649366651 132.10221674875356,75.03925179599901 139.14039408869576,76.4501985024981" stroke="#4DD2FF" stroke-linecap="round" stroke-linejoin="round" stroke-width="0.5"><title>2025-08-13 5.0km</title><desc>1755095249000</desc></polyline><polyline fill="none" points="188.34882418817142,80.02523960399412 183.397816349403,79.03628576226038 177.76651735723135,76.44356623398926 176.71584546472877,76.1049919823563 167.4638857782993,74.32299914004398 164.18337066072854,74.42991980529041 163.457726763736,74.27844882161298 162.70940649497788,73.83294430272508 162.3163493841421,73.44089831899328 161.95352743563126,72.83500537547661 161.52267637179466,71.6232060239854 162.45996640541125,70.69652381768537 163.54843225085642,69.86784718318813 162.72452407618403,70.44703066056536 161.5,71.63211637885252 162.30123180293594,73.4498084758743 162.92861142219044,74.037876682778 163.45016797314747,74.3051790155805 164.18337066072854,74.46555999598786 166.7533594624838,74.31408907828882 167.68309070548275,74.37645949012949 177.14669652856537,76.27427928332327 183.25419932810473,79.03628576226038 188.5,80.13215281681187" stroke="#4DD2FF" stroke-linecap="round" stroke-linejoin="round" stroke-width="0.5"><title>2025-08-12 8.1km</title><desc>1754996616000</desc></polyline><polyline fill="none" points="38.5,108.1314941298333 33.05585831060307,107.0427295475456 26.908719346043654,104.20995183674677 25.89509536785772,103.87271035306912 20.11580381472595,102.65863036698283 15.75885558585287,101.9070486922792 14.222070844727568,101.86850587017398 12.276566757500404,102.0323127481679 11.5,101.8974129883427 12.211171662173001,102.0323127481679 14.140326975495555,101.88777728331479 15.775204359699273,101.91668439520436 25.805177111702505,103.8823458418774 26.97411444140016,104.29667086761037 32.80245231607114,106.98491866415134 38.03405994549394,108.06404892551654" stroke="#4DD2FF" stroke-linecap="round" stroke-linejoin="round" stroke-width="0.5"><title>2025-08-10 6.4km</title><desc>1754781124000</desc></polyline><polyline fill="none" points="73.32253984318231,116.29688423377956 68.82823172275675,115.39519828988705 63.73286111812922,113.04432250599348 62.76296483684564,112.72227890513022 54.36858082472463,111.07983471591433 53.61725271947216,111.03152698141639 51.26764482673025,111.16839881387568 50.755375664070016,111.04762956310879 50.03819883635151,110.63701263442636 49.53959018466412,110.07341705739236 49.06830255503883,108.97036756335001 49.0,108.55168753294856 51.984821654477855,106.10397219812876 54.04755881612073,103.88163411305868 55.994181634217966,102.18262767313718 58.44624335950357,100.58021139557968 58.71945357960067,100.45137239657197 59.40930938531528,100.42721505924419 59.675689349882305,100.25006101088366 60.42701745510567,99.42065231677407 61.198836326861056,97.76180699613178 61.895522388105746,97.10147956299625 65.01694915257394,95.41842319349962 68.87604351126356,93.70311576621316 68.87604351126356,94.29099556767324 69.5590690614772,94.73391561555763 69.76397672656458,94.9916133304796 69.87326081460924,95.41037020002113 72.2843410068599,99.70249126688577 73.2747280546464,101.87664131946804 73.8962813053804,102.73823123398324 73.90311156088137,102.98784886506473 74.18315203647944,103.41461253925809 74.6885909436387,104.88813609069621 75.07791550722322,105.58060149132507 75.4057677713281,107.01382321975689 75.51505185937276,108.46312029951514 75.2076903617708,110.54039655497763 75.28965342781157,110.66116663453431 76.0,110.87855228049739 75.91803693398833,111.52265414455906" stroke="#4DD2FF" stroke-linecap="round" stroke-linejoin="round" stroke-width="0.5"><title>2025-08-08 10.0km</title><desc>1754654808000</desc></polyline><polyline fill="none" points="113.5,108.7800683980895 106.29644268780248,107.30833346835425 98.03636363637634,103.4968301997651 89.50948616606183,101.66021936192556 86.5,101.2199316019105 97.84426877473015,103.4968301997651 106.50988142297138,107.43412351148436 113.31857707514428,108.74233183924662" stroke="#4DD2FF" stroke-linecap="round" stroke-linejoin="round" stroke-width="0.5"><title>2025-08-07 5.0km</title><desc>1754573743000</desc></polyline><polyline fill="none" points="151.0,108.79352541661501 143.86231313925236,107.36629666630324 135.70495672698598,103.62286689948814 134.66404405975481,103.3098655772119 124.0,101.20647458337771 126.83595594018698,101.80744736621273 127.06963021238334,101.70728545392194 127.69630212429911,101.97021028753079 135.12077104637865,103.48514642270311 143.95790715969633,107.46645364792494 150.52202989766374,108.78100594317948" stroke="#4DD2FF" stroke-linecap="round" stroke-linejoin="round" stroke-width="0.5"><title>2025-08-04 5.0km</title><desc>1754309955000</desc></polyline><polyline fill="none" points="188.5,108.14201955803583 183.10327570518712,107.06092628045735 176.879435850773,104.20368771221547 175.94585987261962,103.89479153889988 166.06960873521166,101.94485959618032 164.33348498636042,101.85798044197145 162.22065514104906,102.02208543952293 161.5,101.86763368552784 161.655595996388,101.9834725262699 162.6464968152868,102.05104511344689 165.5045495905797,101.89659340991057 169.4272065514233,102.66884923579346 170.05777979985578,102.67850239104155 171.14695177433896,103.0067090436205 175.83939945403836,103.90444456062687 177.14149226568406,104.3677883663695 183.00500454960275,107.05127360253391 187.94313011830673,108.04549390864122" stroke="#4DD2FF" stroke-linecap="round" stroke-linejoin="round" stroke-width="0.5"><title>2025-08-03 6.5km</title><desc>1754227262000</desc></polyline><polyline fill="none" points="35.372669575561304,138.1623588235816 28.207655692182016,136.73586513449845 19.17909559700638,132.72139044905634 11.5,131.15596012532478 19.843117810436524,132.89813125411456 28.486116620420944,136.84948031948443 38.5,138.8440398746825 35.59758032526588,138.1876063413947 35.59758032526588,137.99824982374412" stroke="#4DD2FF" stroke-linecap="round" stroke-linejoin="round" stroke-width="0.5"><title>2025-08-01 5.0km</title><desc>1754057984000</desc></polyline><polyline fill="none" points="73.41685649202554,146.27037494332762 68.81093394078198,145.3601775738207 63.7403189066099,143.0242215596445 62.65375854211743,142.6778493869424 54.453302961279405,141.09096078505536 52.95671981776832,141.04262861816096 51.46697038723505,141.1715143263209 50.75626423690119,141.04262861816096 50.16856492025545,140.71235796572728 49.73804100227426,140.30153143710777 49.246013667434454,139.3670939708245 49.0,138.5534793191764 52.01366742598475,136.05619032276445 54.1047835990903,133.82467041152995 56.01822323462693,132.14897219411068 57.46013667425723,131.31916526597342 58.58769931664574,130.48934902359179 59.38724373577861,130.40878384379903 59.674259681109106,130.23154013918975 60.54897494305624,129.22446556884097 61.232346241449704,127.70979958012322 61.90205011391663,127.10553587078903 65.10022779044812,125.34911464173638 68.8451025056711,123.72962505667238 68.9066059225297,124.25334447635396 69.4533029612794,124.63203159109253 70.02050113896257,125.64722577278008 70.36902050112258,126.62212134669971 71.23006833714317,128.40268255403498 73.47152619590634,132.60012545042264 73.77220956719248,133.502423703947 74.66059225512436,135.36337907554844 75.26195899772574,137.4337375864925 75.30296127562178,138.72264745914435 75.2209567198006,139.18987173997448 75.43280182231683,139.34292732799076 75.23462414575624,140.5593052120239 76.0,140.8492996347486 75.9726651480305,141.24401243845932" stroke="#4DD2FF" stroke-linecap="round" stroke-linejoin="round" stroke-width="0.5"><title>2025-07-28 10.0km</title><desc>1753704756000</desc></polyline><polyline fill="none" points="110.84889336017659,138.31062527570612 103.67786720325239,136.87627334967692 95.4637826961698,133.11101630351186 94.12736418511486,132.66276338630996 86.5,131.13869068601343 94.96398390340619,132.95732978155138 102.03722334007034,136.28715945468866 103.87344064383069,136.97872763887426 113.5,138.86130931398657 110.95754527160898,138.28501200188475 111.08792756538605,137.45257756528008" stroke="#4DD2FF" stroke-linecap="round" stroke-linejoin="round" stroke-width="0.5"><title>2025-07-22 5.0km</title><desc>1753194638000</desc></polyline><polyline fill="none" points="139.35765124554746,136.42519329274364 148.3016014234745,138.19949229255872 151.0,138.35993243262783 148.64590747331386,138.22780528003204 133.9048042704817,135.33983291356708 127.47508896799991,132.42344943210628 124.0,131.64006756737217 127.43505338081741,132.4423260161784 133.46441281138686,135.2265771343009 135.9466192171094,135.7551028379603" stroke="#4DD2FF" stroke-linecap="round" stroke-linejoin="round" stroke-width="0.5"><title>2025-07-19 6.4km</title><desc>1752877000000</desc></polyline><polyline fill="none" points="186.02734673110535,146.34391244150902 181.43233273975784,145.4290842026603 176.2122869498853,143.04076273152896 175.31938438056386,142.7573974648767 166.8368099720101,141.12195396038442 163.8970999745361,141.21911002537672 163.25833121340838,141.09766492430208 162.66077334008878,140.74952120145463 162.076952429401,140.13419342420093 161.56868481301353,138.99258497641858 161.5,138.5796584536438 164.5015263291716,136.09395424617105 166.4865174255974,133.94014982158842 168.4440345967887,132.23163649913477 170.8342660900671,130.63644878939522 171.2532434494933,130.43401135208114 171.89201221065014,130.4016213109353 172.34533197659766,130.1182078485581 173.08712795726024,129.2355704255533 173.75337064362247,127.72129647624388 174.46082421779283,127.06537144248432 177.93627575680148,125.17044436939614 181.48728059019777,123.65608755849098 181.49414907148457,124.23915907630726 182.04362757568015,124.60357645093609 182.40765708469553,125.27571936370805 183.156321546674,126.99249052570667 185.46413126430707,131.33282936178875 186.06855761894258,132.78225171761005 186.23340117017506,132.9360993582086 187.27054184686858,135.59194526018837 187.5040702111437,135.92391932424653 187.87496820147499,137.3084780893114 187.94365301451762,138.22340627683297 187.83375731366687,139.61601871328457 187.4972017298569,140.9195450837724 188.5,141.14624298853596" stroke="#4DD2FF" stroke-linecap="round" stroke-linejoin="round" stroke-width="0.5"><title>2025-07-17 10.0km</title><desc>1752756134000</desc></polyline><polyline fill="none" points="38.5,168.81001207380177 31.341959699755535,167.37658058895613 22.263729751110077,163.34024369516555 11.5,161.18998792619095 22.743777163210325,163.54143516851764 31.13927301467629,167.3640065497966 38.16930067166686,168.79743819076248" stroke="#4DD2FF" stroke-linecap="round" stroke-linejoin="round" stroke-width="0.5"><title>2025-07-14 5.0km</title><desc>1752500928000</desc></polyline><polyline fill="none" points="76.0,168.78223850869836 68.84362783422694,167.37637853726483 61.444487881148234,163.94252392493217 59.69233776384499,163.30799601293256 49.0,161.21776149130892 60.38897576229647,163.4946222352737 68.97028928849613,167.42614378735016 75.24003127444303,168.68270916824258" stroke="#4DD2FF" stroke-linecap="round" stroke-linejoin="round" stroke-width="0.5"><title>2025-06-21 5.0km</title><desc>1750468889000</desc></polyline><polyline fill="none" points="104.97303190268576,166.65815049567027 111.99414734909078,168.06054482147738 113.5,168.14088944171817 112.20484278173535,168.06054482147738 100.72813862748444,165.81816068684566 99.49495065413066,165.33607482795196 95.80778058295255,163.5830061302404 95.15710351159214,163.3711738928905 87.63403718156042,161.91024369176012 86.5,161.85911055827455 87.50390176728251,161.8810247631336 90.43504705070518,162.4215728822819 95.70862979115918,163.56109248151915 99.63128299286473,165.4164227117435 100.63518476014724,165.80355207536923 101.72584347025258,166.0226809134765" stroke="#4DD2FF" stroke-linecap="round" stroke-linejoin="round" stroke-width="0.5"><title>2025-06-17 8.1km</title><desc>1750165544000</desc></polyline><polyline fill="none" points="151.0,168.7659015625395 144.1925754059921,167.41218310472323 135.31786542921327,163.44938676458696 124.0,161.2340984374605 135.33874709974043,163.49861490079638 144.04640371224377,167.39987649892282 149.78886310901726,168.56899806736328" stroke="#4DD2FF" stroke-linecap="round" stroke-linejoin="round" stroke-width="0.5"><title>2025-06-15 5.0km</title><desc>1749939796000</desc></polyline><polyline fill="none" points="180.15694828683627,166.5476281631636 186.52915513937478,167.8208640805533 188.5,167.94276827983776 186.9486060864001,167.84795392326487 176.2842094062653,165.77554687948214 175.2442008937942,165.38272991589474 171.7679293466499,163.73016241009464 170.9922323898645,163.47279138720114 163.98223026178312,162.11818949895314 163.13183656099136,162.05723172016587 161.5,162.18592029421416 163.81559906364419,162.10464333106574 170.69344541392638,163.43215375990985 171.52660140453372,163.66243329680947 173.51468397531426,164.60386135783847" stroke="#4DD2FF" stroke-linecap="round" stroke-linejoin="round" stroke-width="0.5"><title>2025-06-11 8.1km</title><desc>1749642919000</desc></polyline><polyline fill="none" points="38.5,198.75761206554307 31.485653354029637,197.40021930405055 22.670608763059136,193.46368833849556 11.5,191.24238793445693 22.796238852257375,193.51305007506744 31.558937572641298,197.46191932777583 37.33792167506181,198.62187352111505" stroke="#4DD2FF" stroke-linecap="round" stroke-linejoin="round" stroke-width="0.5"><title>2025-06-08 5.0km</title><desc>1749387304000</desc></polyline><polyline fill="none" points="59.460139859933406,202.2563473537739 62.367832167539746,200.52019920607563 68.48531468515284,199.40727984640398 71.58181818178855,197.09239786749822 74.94265734264627,197.18143203217187 75.8489510489162,196.42464101308724 69.8825174823869,186.7197848650394 65.84195804176852,187.5211119944288 61.990209790179506,189.7915303253103 59.83776223775931,189.7915303253103 56.4013986014761,191.39417096233228 50.77482517482713,192.55162973457482 50.963636363623664,196.20205515241832 49.0,198.65049295013887 50.661538461456075,200.4756824898359 51.379020979162306,202.74602883096668 52.436363636283204,203.41377535375068 59.006993006914854,202.03376467025373 62.48111888114363,200.4756824898359 67.54125874117017,199.8079311651527 71.77062937058508,197.09239786749822 74.7538461536169,197.22594910740736 75.96223776205443,196.20205515241832 69.8825174823869,186.58623019064544 65.38881118874997,187.5656301221461 62.06573426560499,189.74701244014432 59.044755244627595,190.05863753479207 55.34405594388954,191.70579480053857 50.88811188796535,192.46259456081316 51.001398601336405,196.42464101308724 49.0,198.65049295013887 50.77482517482713,200.56471591748414 51.68111888109706,202.87957822266617 52.96503496496007,203.50280814105645 63.31188811152242,200.34213231221656 67.65454545430839,199.8524479540356 71.39300699299201,197.3149832431227 74.86713286698796,197.2704661777243 76.0,196.15753796565696 69.46713286708109,186.45267547256663 65.01118881092407,187.8327387869067 61.914685314754024,189.74701244014432 51.07692307676189,192.24000654157135 51.039160839281976,196.20205515241832 49.03776223771274,198.56145910560736 50.73706293688156,200.4756824898359 51.379020979162306,202.6124793953786 53.3048951048404,203.54732452743337 68.56083916057833,198.91759436775465 70.44895104877651,196.38012385068578 69.8825174823869,193.842637573689 67.3902097903192,190.7264047942881 65.27552447561175,189.65797665526043 63.462937062839046,189.56894085078966 61.38601398584433,190.4147802090156 58.02517482521944,194.46588127722498 52.66293706302531,195.35622777591925 49.45314685301855,197.89370465217507 49.33986013988033,198.96211125364061 51.1524475524202,201.14343272330007" stroke="#4DD2FF" stroke-linecap="round" stroke-linejoin="round" stroke-width="0.5"><title>2025-06-04 6.4km</title><desc>1749041988000</desc></polyline><polyline fill="none" points="113.5,198.7822926046283 106.57987592089921,197.4002201252515 98.69658782478655,193.75985925654095 97.50310197751969,193.36496562202228 86.5,191.2177073953717 97.81717720051529,193.4883700306309 106.42283830943052,197.37554010635358 112.17041488946415,198.56017495014385" stroke="#4DD2FF" stroke-linecap="round" stroke-linejoin="round" stroke-width="0.5"><title>2025-05-28 5.0km</title><desc>1748436903000</desc></polyline><polyline fill="none" points="151.0,198.7704701553448 143.502373417723,197.2346258794205 134.81922468356788,193.30680015370308 124.0,191.21694104147173 134.4667721518781,193.2312637355426 135.76977848104434,193.64671342453948 144.13251582282828,197.4738160835186 150.87183544307481,198.78305895852827" stroke="#4DD2FF" stroke-linecap="round" stroke-linejoin="round" stroke-width="0.5"><title>2025-05-27 5.0km</title><desc>1748351986000</desc></polyline><polyline fill="none" points="181.49476505536586,200.56973551820556 181.53084708336974,198.9533236429561 182.37877474335255,197.03381156545947 182.93804617866408,193.47254545317264 182.9019641505438,193.80089273079648 182.09011851868127,193.90192251550616 178.13913644338027,196.70547147485195 176.6417322778725,197.0590684653289 176.0463788144407,196.0740461719688 176.7319373480277,194.9627310827491 177.99480833107373,193.97769480869465 177.79635717655765,192.28543766700022 178.39171063998947,191.19935197279847 177.59790602215799,190.74470907823707 174.69330276129767,190.79522502458713 173.93558017147006,189.68387021525996 174.18815436813748,188.37044011337275 174.747425803449,188.54724869203346 174.69330276129767,187.6884621843492 175.52318940724945,188.19363132303988 177.03863458684646,188.14311448692752 178.24738252768293,188.95138179129572 179.88911480555544,189.0018983510381 180.55663232511142,188.67354040438659 182.19836460298393,186.37501433712896 182.2705286591081,182.53563826884783 181.67517519567627,181.85363339612377 180.73704246553825,181.5 179.5824175667949,181.82837389592896 178.55407976638526,182.9650471285422 177.76027514843736,183.24289925477933 176.1365838847123,182.93978781838086 174.42268755059922,182.00519030670694 172.8531193289673,182.53563826884783 172.0593147110776,183.7480835996248 172.0953967391979,185.0362958573969 172.78095527278492,185.99613297969336 174.332482480444,186.72863606043393 174.69330276129767,187.61268666454998 173.9897032136214,189.2544808901148 174.4948516068398,190.769967053624 174.6211387051153,192.86636394601373 173.9536211855011,195.13953176994983 174.47681059275055,195.7709610677848 176.0102967864368,196.14981735081528 176.60565024975222,197.0590684653289 175.23453318257816,199.28165873675607 173.53867786249612,199.96358313792734 170.70623865787638,202.03459350085177 168.6495630570571,202.91855249649961 168.18049669195898,204.13083051687863 167.02587179321563,205.3936095416866 168.0181275656214,208.22219538311765 168.92017826763913,208.42423515632981 170.11088519450277,207.6918396637484 171.50004327576607,208.2727053523995 172.51034006214468,208.14643039696966 173.30414468003437,207.31301298408653 173.88145712943515,205.21682112806593 175.2525741966092,204.4591541018599 178.39171063998947,205.4441204781615 179.5824175667949,204.8632436661428 181.44064201315632,204.76222137876903 181.54888809740078,199.15537609483 182.97412820678437,194.15449667496432 182.75763603823725,193.80089273079648 182.21640561695676,193.8514076318097 178.1571774574113,196.7307284307899 176.69585532002384,197.03381156545947 175.09020507021341,199.35742827017384 173.37630873615853,200.03935232151707 170.68819764390355,202.03459350085177 168.75780914135976,202.7922729638667 168.18049669195898,204.20659756285022 167.02587179321563,205.49463139727595 167.92792249534978,208.09592038458504 168.5232759587816,208.5 170.0026391102001,207.6918396637484 171.69849443022395,208.29796033048478 172.83507831487805,207.8433700636233" stroke="#4DD2FF" stroke-linecap="round" stroke-linejoin="round" stroke-width="0.5"><title>2025-05-23 6.4km</title><desc>1747958832000</desc></polyline><polyline fill="none" points="27.453080175211653,226.2609099506517 28.18378490814939,226.95508605199575 30.010546740610152,227.24737005149655 30.923927656840533,228.41650205080805 30.689058278338052,233.01989710853377 30.245416118996218,233.86018867589883 28.653523665154353,234.33513462169503 27.087727808742784,233.78711997522623 25.626318342634477,234.11592893171473 23.147141569992527,232.65455191805086 21.65963550633751,233.23910392301332 20.5635784069309,233.0564315932861 20.876737578073516,231.99692900072841 20.093839650042355,229.95097809076833 20.32870902842842,228.48957258829614 19.493617905071005,227.10122810167377 19.858970271539874,224.90908685923205 25.130482988082804,224.6898714978597 26.931148222996853,225.3475169071171 27.870625736773945,226.84547944900987 29.88006375252735,227.21083457340137 30.767348071211018,228.05114898820466 30.689058278338052,233.1295005438733 30.29760931432247,233.86018867589883 28.757910055457614,234.29860035570164 27.270403991802596,233.8236543286912 25.57412514742464,234.07939462825016 23.09494837478269,232.6910864651727 19.937260064296424,233.3487072458811 18.240981219802052,234.73701113578863 18.789009769563563,235.1388868940121 19.20655533124227,237.33092317769479 21.764021896757185,238.5 22.86007899628021,237.7327940568066 23.590783729334362,236.2349078469706 23.48639733879827,235.0658186305227 22.129374263226055,232.91029361690744 23.48639733879827,232.6910864651727 25.600221745087765,234.07939462825016 27.270403991802596,233.60444811395428 27.061631211079657,233.0564315932861 25.365352366585284,233.09296607170836 24.451971450354904,231.92385966274014 25.313159171375446,228.48957258829614 23.068851777119562,225.05523030851327 23.225431362749077,222.315023998759 23.825653107720427,221.14585860955412 25.02609659754671,220.45166363242606 27.296500589465722,221.18239512490982 29.14935901958961,220.70741993909178 27.061631211079657,222.7534593702294 24.895613609580323,222.64385061174107 23.590783729334362,221.65736925475358 21.58134571358096,221.21893163386267 21.633538908790797,216.7614314134844 22.52082322735805,214.89802260746364 22.57301642256789,212.12114795439993 23.1210449723294,211.57307632359152 24.791227219160646,211.5 29.593001178931445,212.19422406563535 30.584671887918375,213.0711354503146 30.923927656840533,214.89802260746364 31.759018780314364,215.81146032754623 31.210990230552852,216.5422076916584 31.55024599947501,217.0171921379515 29.906160350190476,218.00369492125174 29.723484166897833,220.30551703396486 27.296500589465722,222.68038687076478 25.391448964131996,222.7534593702294 23.512493936461397,221.54775993383373 21.68573210388422,221.328541123381 21.607442311244085,217.0171921379515 22.729596008197404,213.29036273398378 23.903942900593393,212.85190794157097 23.930039498140104,211.7557670234819 29.279842007556,212.0846098894981" stroke="#4DD2FF" stroke-linecap="round" stroke-linejoin="round" stroke-width="0.5"><title>2025-05-20 5.0km</title><desc>1747754393000</desc></polyline><polyline fill="none" points="72.42259414237924,226.88678985866136 74.9456066947896,227.19754025462316 76.0,226.08771632399294 69.7489539750386,216.6762878690206 65.38075313810259,217.74174351306283 61.9916317993775,219.73946533541312 59.882845188258216,219.82825274462812 54.76150627620518,221.78157085122075 50.65690376586281,222.35868577228393 50.99581589968875,226.13210933920345 49.0,228.70689594867872 50.65690376586281,230.1718534809188 51.25941422604956,232.21390670671826 52.16317991632968,233.10175274306675 53.85774058592506,233.36810617669835 62.330543933203444,230.6157789659337 67.37656903779134,229.9054979578359 71.74476987472735,227.01996862894157 74.9456066947896,227.10875445153215 75.9246861927677,226.26528835605131 69.8995815902017,216.72068190973368 68.2426778243389,216.76507594564464 62.14225941430777,219.65067790696048 59.35564853576943,219.9614338221727 55.85355648538098,221.5596033561451 50.35564853576943,222.58065283187898 51.14644351485185,225.51060668524588 49.0,228.66250321402913 50.58158995839767,229.9942831514636 51.07112970738672,231.85876775055658 52.20083682029508,233.05736048726249 53.85774058592506,233.2793217182916 63.0460251045879,230.26063861662988 67.97907949821092,229.63914226053748 71.55648535559885,227.10875445153215 74.98326359852217,227.10875445153215 75.9246861927677,226.17650234969915 69.8995815902017,216.76507594564464 68.58158995816484,216.63189382333076 65.19246861943975,217.74174351306283 62.25523012550548,219.65067790696048 59.84518828452565,219.73946533541312 55.326359832892194,221.64839036864578 50.84518828475848,222.44747261054 51.07112970738672,225.95453724917024 49.07531380769797,228.5737177300034 50.58158995839767,230.08306832588278 51.63598326360807,232.70222226623446 54.00836820108816,233.23492948169587 61.65271966555156,230.660171487747" stroke="#4DD2FF" stroke-linecap="round" stroke-linejoin="round" stroke-width="0.5"><title>2025-05-14 5.0km</title><desc>1747227249000</desc></polyline><polyline fill="none" points="96.06141099985689,238.2072240831185 96.6113941486692,237.70532147266204 97.40975678374525,234.73570418082818 99.8048446890898,235.1121370839246 101.09996629727539,229.92566322856874 100.85158681077883,226.60039055150992 98.35005055402871,220.3470488191233 98.45649890543427,218.94577039235446 100.1951553109102,218.00460749759804 102.78539852704853,217.56539656739915 104.45308936492074,216.41507746368006 105.81917654059362,216.5405671554763 106.33367690548766,215.99677789857378 103.58376116224099,211.60457742671133 102.89184687833767,211.5 100.99351794598624,212.1902099634608 99.8048446890898,213.00590944757278 98.77584395941813,213.02682477340568 96.6823597161565,213.863435936757 94.53565129719209,214.17716418294003 94.67758243228309,215.80854279684718 93.66632309451234,217.08435487173847 93.84373701340519,217.54448173608398 94.44694433768746,217.9418631404842 95.05015166208614,219.34314889581583 95.81303151347674,219.42680742329685 102.6257260000566,217.37716300397005 103.38860585144721,216.7078866167867 103.67246812174562,215.80854279684718 103.33538167562801,214.6372980163287 102.14670841896441,213.3614696762961 100.6919142837869,212.9013327843859 99.41453406750225,213.25689320683887 97.71136044594459,215.1810911246721 95.28078975668177,215.59939246736758 93.87921979720704,216.85429102586932 93.9147025810089,217.54448173608398 95.81303151347674,219.00851442132262 97.97748132422566,218.77845288168464 102.57250182447024,217.37716300397005 103.56601977034006,216.45690737005498 103.61924394604284,215.4529871011182 102.89184687833767,214.13533377973363 101.1709318648791,212.96407878912578 98.77584395941813,213.04774009693938 96.52268718916457,213.94709685254202 94.50016851339024,214.34448570449604 94.65984104049858,215.8922028648376 93.68406448629685,217.1680143837002 94.4646857297048,217.9418631404842 94.85499635129236,219.0712584296998 95.75980733777396,219.44772204950277 96.8242908512475,218.90394102841674 98.79358535131905,218.56930578823085 98.33230916212779,219.42680742329685 98.38553333771415,220.09607433053316 100.6209487161832,225.70109307739767 101.15319047297817,228.294404584085 100.95803516218439,231.20138148439582 100.07096556760371,234.5265744713688 97.78232601343188,234.19196646231285 96.87751502695028,237.24524292709248 96.18560074316338,237.53802031086525 95.90173847286496,238.5 95.52916924317833,238.35361209738767" stroke="#4DD2FF" stroke-linecap="round" stroke-linejoin="round" stroke-width="0.5"><title>2025-05-06 7.1km</title><desc>1746539597000</desc></polyline><polyline fill="none" points="134.31684361433145,238.5 134.13390359212644,238.28435963652737 134.99372169631533,235.41632046682935 137.1707079601474,235.9338644418458 137.5548820067197,235.26536988592125 138.68911014404148,230.49958522240922 138.65252213960048,228.12743244334706 135.41448374732863,219.1561248897342 134.53637164086103,218.96202960774826 133.29237949021626,219.56588097129134 132.52403139707167,219.41491830308223 131.0788052220596,217.1720308127551 132.06668134173378,216.09371047242894 131.8288593129255,214.36838570807595 133.10943946801126,214.3036857367988 137.390235986677,213.09594905805716 138.78058015508577,212.2332754896488 141.06733043212444,211.54313392755284 144.0126647891011,216.05057753656 143.64678474480752,216.63287137694715 142.03691254975274,216.48190647170122 140.31727634125855,217.7327550680784 137.7012340243673,218.1209478527453 136.16453783819452,218.85419881320558 134.20707960100845,219.11299262134708 133.01796945696697,219.60901314098737 132.24962136382237,219.28552163871063 131.81056531064678,218.07781535870163 131.11539322638419,217.56022469713935 131.11539322638419,217.1504644635279 132.06668134173378,215.87804569935543 131.81056531064678,214.3899523604341 133.82290555443615,214.13115237673628 137.3353539800737,213.00968187041872 140.66486238338985,211.5 141.17709444544744,211.6725356537936 143.9943707868224,216.05057753656 143.7199607535731,216.58973855864315 142.16497056512162,216.48190647170122 139.91480829252396,217.883719019228 138.08540807082318,218.01311659999192 133.10943946801126,219.56588097129134 132.34109137486666,219.3502199814975 131.84715331508778,218.07781535870163 131.11539322638419,217.517092080976 132.04838733945508,215.92117867272464 131.8288593129255,214.36838570807595 133.74972954567056,214.13115237673628 137.1890019623097,213.07438226472004 138.41470011079218,212.31954301570659 140.70145038783085,211.5 141.12221243884414,211.6725356537936 143.9760767846601,216.02901106515492 143.7016667514108,216.56817214586772 142.03691254975274,216.4603400472697 140.26239433477167,217.75432135388837 137.6829400220886,218.1209478527453 135.83524579822551,218.91889729698596 134.31684361433145,219.0482942009985 133.14602747245226,219.5874470573326 132.28620936826337,219.26395551979658 131.8288593129255,218.07781535870163 131.09709922410548,217.5386583902291 131.0788052220596,217.1720308127551 131.81056531064678,216.4603400472697 130.9507472064579,217.25829618619173 131.7556833040435,218.20721281263104 132.12156334833708,219.19925714879355 132.90820544364396,219.67371137811278 137.46341199544258,218.25034527845855 140.18921832577325,217.9268515555741 141.94544253859203,216.58973855864315 143.5736087358091,216.58973855864315 144.0492527935421,216.09371047242894 140.99415442335885,211.5 138.67081614176277,212.19014171257732 137.2255899667507,213.11751584906597 135.92671580938622,213.20378298975993 133.93266956775915,214.02331895034877 131.57274328183848,214.49778558711114 131.9752113306895,215.87804569935543 131.04221721750218,217.0210663187463 131.00562921306118,217.58179100176494 131.73738930176478,218.1425140962092 132.06668134173378,219.1561248897342 132.76185342599638,219.5874470573326 135.41448374732863,219.13455875671934 138.2683480931446,226.5531699071289 138.59764013299718,228.23525818638154 138.67081614176277,230.41332561943273 137.3719419843983,235.73978560976684 134.88395768299233,235.43788482611126 134.33513761649374,238.04715496544668 134.04243358108215,238.28435963652737" stroke="#4DD2FF" stroke-linecap="round" stroke-linejoin="round" stroke-width="0.5"><title>2025-04-29 10.1km</title><desc>1745929124000</desc></polyline><polyline fill="none" points="187.4628830384463,222.42462373730086 187.008416055236,222.0400183712045 187.26478204579325,220.62520996679086 186.62386706948746,222.74054869628162 186.1344410876627,222.80922793049103 184.67781614157138,228.52320921795035 184.5146741476492,228.564414873661 177.09171342250193,227.09473816500395 167.62947777297813,222.83669961369014 161.5,221.53178805270727 167.5828657746897,222.85043545305234 175.052438498009,226.35302566026803 177.17328441952122,227.1496796584761 188.5,229.37479003320914 184.6195511437254,228.5369444379976 184.86426413466688,227.5342694429055 185.5517911091447,227.36944539318938 187.1132930513122,220.80377889306692 187.41627104009967,220.6938903529881 187.008416055236,221.76529953444697" stroke="#4DD2FF" stroke-linecap="round" stroke-linejoin="round" stroke-width="0.5"><title>2025-04-22 6.3km</title><desc>1745328842000</desc></polyline><polyline fill="none" points="21.082908935495652,267.7065819974814 21.531644904753193,267.50822701070865 22.46651150728576,264.4447197459085 24.8597700096434,264.7973560378596 26.11249125690665,260.2350765513838 25.906820604461245,255.62861269786663 23.30789144942537,249.25873630018032 23.25179945328273,248.1566612082388 24.654099357081577,247.01049674367823 27.60827782098204,246.52557905377762 29.739773674635217,245.1369446930621 31.142073578434065,245.2691959952499 31.72169087198563,244.7622322007228 30.46896962460596,242.80049076444993 28.78620974009391,243.66013261199987 27.4400018324377,242.09514087894058 26.00030726462137,241.5 23.30789144942537,241.72042275195417 21.475552908610553,242.5359848455846 19.007505077985115,242.954785724025 19.38145171897486,244.49772884703998 18.297006460023113,246.06270199271967 19.100991738261655,246.74599632962781 19.512333043385297,247.89216229283193 20.353712985524908,248.33299362644902 23.42007544171065,247.60562141083938 25.196321986499242,246.83416317273804 27.53348849271424,246.52557905377762 29.459313693805598,245.225112237531 31.142073578434065,245.2471541176783 31.702993539860472,244.71814833245298 30.487666956614703,242.80049076444993 28.80490707210265,243.6160485035798 27.4400018324377,242.0730986554263 26.11249125690665,241.52204228601477 23.214404789265245,241.72042275195417 21.51294757274445,242.51394267009164 19.474938379251398,242.8225329087145 19.194478398538195,243.04295421954885 19.34405705484096,244.5638547178678 18.297006460023113,245.95249301256263 19.063597074127756,246.74599632962781 19.456241047242656,247.91420388229017 20.260226325364783,248.37707670690725 25.23371665063314,246.81212146561302 27.45869916456286,246.56966252817074 29.478011025930755,245.225112237531 31.216862906585447,245.225112237531 31.684296207968146,244.67406445462257 30.450272292480804,242.7564064686594 28.71142041182611,243.59400644570997 27.42130450042896,242.0730986554263 26.280767245334573,241.5881691295799 23.775324750691652,241.6102114059613 21.325974252191372,242.5359848455846 19.4375437151175,242.8225329087145 19.175781066413037,243.02091209929495 19.306662390823476,244.7622322007228 18.27830912801437,246.01861840786296 19.119689070270397,246.79007975605782 19.49363571126014,247.91420388229017 20.110647668945603,248.3109520825965 27.626975153107196,246.23903623607475 28.54314442339819,245.48961464011518 28.86099906824529,244.365477040541 28.599236419657245,243.5278802577959 27.68306714913342,242.40373175652348 26.24337258131709,241.54408456964302 23.75662741868291,241.6322536799853 21.251184923923574,242.602111357759 19.157083734404296,242.954785724025 19.38145171897486,244.45364492113004 18.297006460023113,245.97453481335833 19.213175730546936,247.0986634715373 18.857926421565935,247.78195430927735 19.7927930240985,249.69956465590803 20.521988974069245,252.91758255226887 20.839843618916348,256.53228134020173 20.76505429064855,258.9126574694819 18.932715749833733,267.8828973779746 20.260226325364783,268.5" stroke="#4DD2FF" stroke-linecap="round" stroke-linejoin="round" stroke-width="0.5"><title>2025-04-15 8.8km</title><desc>1744723077000</desc></polyline><polyline fill="none" points="75.82256297930144,252.11555058220983 75.03888280398678,252.0632622097619 75.61555312166456,250.37259562626423 74.93537787522655,253.1961731211777 75.09802847763058,253.63190595147898 74.19605695514474,256.62971566361375 73.32365826953901,256.6471446256328 73.33844468783354,257.3791593173373 72.33296823670389,260.6383269469952 62.5295728368219,258.6863200816151 51.291894852067344,253.47504226924502 49.0,252.81272724908195 51.45454545458779,253.5970473687048 62.51478641841095,258.7037488197093 72.36254107346758,260.6208984196128 72.68784227827564,259.31375345625565 73.42716319829924,259.22661007908755 74.0629791895044,257.3791593173373 76.0,249.36167305300478 75.48247535608243,252.23755671823164" stroke="#4DD2FF" stroke-linecap="round" stroke-linejoin="round" stroke-width="0.5"><title>2025-04-11 5.1km</title><desc>1744377642000</desc></polyline><polyline fill="none" points="94.26928169163875,268.5 95.18246932455804,267.489487409548 95.42474359448534,268.23638850795396 96.33793122740462,267.489487409548 97.3629377540201,264.39201509868144 99.76704397122376,264.9412157864572 100.19568306417204,264.78743974464305 101.31387200241443,259.9763872182375 101.38841793162283,257.3401453783008 100.92250587407034,254.98946733966295 98.23885242233519,249.14560693781823 98.16430649312679,248.1569671883044 99.46886025439017,247.05847289254598 102.4693339051446,246.5751335065288 104.55661992321257,245.14707855210872 105.91708313138224,245.2788994331204 106.60663297667634,244.70767499279464 105.13435087457765,242.40079059636628 103.58752284338698,243.30157716825488 101.76114757778123,241.76364644480054 100.12113713496365,241.67576433482463 99.24522246664856,242.09320401590958 97.47475664783269,244.02659758357913 94.94019505451433,244.40009193155856 93.46791295264848,245.6743615591986 93.39336702332366,246.09179296197544 94.15746279782616,246.72892343683634 94.47428299696185,247.76150993116607 95.31292470067274,248.24484647337522 102.67433521070052,246.17967314712587 103.68070525501389,245.21298900338297 103.79252414871007,244.1364489342086 102.6929716928862,242.42276104840857 100.92250587407034,241.5 98.53703613905236,241.6318232654885 96.20747585117351,242.53261327285145 94.19473576243035,242.88413998897886 94.36246410314925,244.4220621658169 93.39336702332366,245.60845125872584 93.39336702332366,246.02588279791235 94.15746279782616,246.6630134810839 94.95883153693285,248.22287665563636 95.77883675822522,248.24484647337522 96.87838921416551,247.67363043544174 97.8847592585953,247.76150993116607 100.82932346244343,255.56066265427216 101.18341662629973,257.60377111313574 101.07159773248713,259.71276458504144 100.02795472345315,264.1723344048514 97.62384850624949,263.7988766760827 96.67338790884241,266.69864793760644" stroke="#4DD2FF" stroke-linecap="round" stroke-linejoin="round" stroke-width="0.5"><title>2025-04-08 5.6km</title><desc>1744119870000</desc></polyline><polyline fill="none" points="133.68841104069725,266.22279384173453 134.41940070415149,265.15598509067786 134.97634520957945,262.7761591798626 137.29114581033355,263.2069919617643 138.5268664318719,258.44726081666886 138.57907997927396,256.5187148169498 138.2483941791579,254.63118258801114 135.88138003100175,248.7632985329692 135.88138003100175,247.63483832952625 137.18671871570405,246.67051243354217 139.91922769561643,246.26015949061548 141.72929733828641,245.02909529639874 143.2957037598826,245.02909529639874 143.71341213898268,244.49563164620486 142.33845539117465,242.3207257387403 140.65021735901246,242.97730375418905 139.0490019057761,241.6436272625142 136.4731335680117,241.58207273487642 134.08871490403544,242.4643523752893 132.10460010328097,242.83367750897014 132.2090271980851,244.49563164620486 131.28658786095912,245.60359292195062 131.96536397695309,246.38326546740427 132.36566784029128,247.53225070299231 133.44474781956524,247.90156589698745 134.4019961883314,247.38862793192675 136.02061615732964,247.20396992248425 137.6044270946877,246.50637136369187 140.02365479042055,246.15757111515268 141.85112894885242,244.94702406400756 141.57265669613844,245.50100418883085 142.0251741068205,244.82391714828555 143.36532182310475,244.92650625035458 143.66119859163882,244.41356018124497 142.58211861230666,242.66953309456585 141.05052122229245,243.46973576329765 139.8322051165742,242.05399026606756 138.5442709477502,241.5 136.35130195744568,241.56155455451517 134.21054651460145,242.42331620461482 132.15681365068303,242.75160531961592 132.13940913486294,244.57770307539613 131.33880140830297,245.39841539978806 131.28658786095912,245.8087702206103 131.98276849271497,246.42430077510653 132.17421816656133,247.2860401712678 133.1140620195074,247.88104840523738 134.34978264098754,247.36811038423912 135.9509980941657,247.20396992248425 137.41297742095776,246.5474066445313 138.80533868464408,246.36274781019893 138.96197932685027,247.53225070299231 142.5299050649046,254.7747998355917 138.8923612635699,256.04683353322616 138.68350707407808,259.26791269924433 137.79587676847586,262.73512743496394 137.34335935779382,263.08389698182873 136.09023422049358,268.5 131.28658786095912,267.2690811709472 132.01757752435515,264.1302017472626 132.26124074548716,264.0071073706349 131.84353236632887,266.01763878189377" stroke="#4DD2FF" stroke-linecap="round" stroke-linejoin="round" stroke-width="0.5"><title>2025-04-02 6.9km</title><desc>1743601029000</desc></polyline><polyline fill="none" points="170.7553137508221,268.5 171.40103783342056,267.91794785880484 172.29365641833283,264.7166316180519 175.27538232936058,265.4330144081323 176.50985484034754,259.76904479989025 176.13001714460552,255.58253215104924 173.2242587726796,248.95557841929258 173.20526688790414,248.351082138528 173.77502343140077,247.54508433119918 174.78159332484938,247.05252855930303 178.01021373819094,246.47041567025008 179.51057263615075,245.26140670843597 180.09932106442284,245.17185020603938 180.1183129491983,244.36583992806845 179.35863755783066,242.82097805774538 178.75089724478312,242.86575682619878 178.16214881651103,242.19407427562692 177.66835981211625,242.3060215198493 176.56683049467392,241.63433713953418 175.38933363801334,241.54477905623207 174.17385301191825,241.97017960417725 172.54055092053022,243.9852228644304 170.07160589867271,244.3434507085185 168.2293930746382,245.82113396393834 169.33092239196412,247.88091713511676 170.58438678772654,248.39585970180633 174.9335284032859,246.94058390099963 177.7443273512181,246.53758262630436 179.89041033177637,245.05990452312108 181.31480169063434,245.2390175864566 181.80859069502912,244.70167792809661 180.27024802740198,242.3955792713241 178.57997028168757,243.31354397338873 177.55440850334708,242.12690589981503 176.22497656859923,241.5 173.73703966184985,241.6119476223539 171.4770053725224,242.55230524252693 169.06503600499127,242.95531433366705 169.21697108331136,244.72406710854557 168.19140930497088,246.0450244392996 169.02705223544035,246.828639181811 169.40688993118238,247.94808363007905 170.52741113340016,248.41824847973476 171.6859161052853,247.8361394596286 172.7874454226112,247.76897292815556 174.07889358792454,251.4183226643945 175.08546348148957,252.29147035496135 178.409043318592,251.5974301854294 180.49815064494032,255.98551568786206 176.4718710706802,257.35117624123814 176.26296033803374,260.77648163713457 175.8451388728572,261.29139189134 174.78159332484938,265.0748233252234 174.55369070754386,265.25391894466884 172.29365641833283,264.8509535813937 171.59095668129157,267.5373744137469" stroke="#4DD2FF" stroke-linecap="round" stroke-linejoin="round" stroke-width="0.5"><title>2025-03-25 6.1km</title><desc>1742909450000</desc></polyline></svg>