<?xml version="1.0" encoding="utf-8" ?>
<svg baseProfile="full" height="300mm" version="1.1" viewBox="0,0,200,300" width="200mm" xmlns="http://www.w3.org/2000/svg" xmlns:ev="http://www.w3.org/2001/xml-events" xmlns:xlink="http://www.w3.org/1999/xlink"><defs /><rect fill="#222222" height="300" width="200" x="0" y="0" /><text fill="#FFFFFF" style="font-size:12px; font-family:Arial; font-weight:bold;" x="10" y="20">Over 5km Runs</text><text fill="#FFFFFF" style="font-size:4px; font-family:Arial" x="10" y="280">Runner</text><text fill="#FFFFFF" style="font-size:9px; font-family:Arial" x="10" y="290">Elliont</text><text fill="#FFFFFF" style="font-size:4px; font-family:Arial" x="65" y="280">SPECIAL TRACKS</text><rect fill="yellow" height="2.6" width="2.6" x="65" y="283" /><text fill="#FFFFFF" style="font-size:3px; font-family:Arial" x="70" y="285.5">Over 20.0 km</text><rect fill="red" height="2.6" width="2.6" x="65" y="287" /><text fill="#FFFFFF" style="font-size:3px; font-family:Arial" x="70" y="289.5">Over 40.0 km</text><text fill="#FFFFFF" style="font-size:4px; font-family:Arial" x="120" y="280">STATISTICS</text><text fill="#FFFFFF" style="font-size:3px; font-family:Arial" x="120" y="285">Number: 42</text><text fill="#FFFFFF" style="font-size:3px; font-family:Arial" x="120" y="290">Weekly: 1.9</text><text fill="#FFFFFF" style="font-size:3px; font-family:Arial" x="141" y="285">Total: 275.3 km</text><text fill="#FFFFFF" style="font-size:3px; font-family:Arial" x="141" y="290">Avg: 6.6 km</text><text fill="#FFFFFF" style="font-size:3px; font-family:Arial" x="167" y="285">Min: 5.0 km</text><text fill="#FFFFFF" style="font-size:3px; font-family:Arial" x="167" y="290">Max: 10.1 km</text><polyline fill="none" points="35.92042574757943,56.3128930548628 31.329194120597094,55.40960736999841 26.238469336007256,53.04649538414378 25.068423720251303,52.69968420787336 16.967055245826486,51.13498103132588 15.557526609220076,51.08658762246341 13.970096300035948,51.215636642460595 13.183223517495207,51.07045647916675 12.211606690310873,50.31228877934336 11.807906741014449,49.59444199389691 11.5,48.58621846494498 14.517486061842646,46.077698750385025 15.441206284827786,45.19848683792952 16.52230106436764,43.924014335083484 18.51343132284819,42.173595452230074 19.98454130764003,41.31047044372826 20.97668525087647,40.57640293752047 21.859351241757395,40.431201909035735 22.25620881904615,40.1972663196284 23.043081601615995,39.29378399802226 23.71363405979355,37.76106554982107 24.46629498223774,37.09956672995759 27.55904713633936,35.38125558397587 31.40446021288517,33.687106945129926 31.397617840848397,34.25989487217885 31.9655347186781,34.60679244707717 32.35554992395919,35.31671729878144 33.11505321844015,37.09149963469099 36.15306639633491,42.972178786381846 36.31728332483908,43.53682846988522 36.52255448553478,43.762687137343164 37.41890522043104,45.95670690495899 37.64470349717885,46.82784377876669 37.97313735424541,46.91657010740164 38.06893056258559,48.49749413716927 37.71312721740105,50.85268570046901 37.97997972628218,51.04625975758972 38.486315255926456,51.143046596378554 38.5,51.28822661739105" stroke="#4DD2FF" stroke-linecap="round" stroke-linejoin="round" stroke-width="0.5"><title>2025-09-09 10.0km</title><desc>1757415422000</desc></polyline><polyline fill="none" points="68.46280991740059,48.55079183714406 62.047520661202725,47.246680550793826 55.23243801645003,44.07948277725518 53.98657024797285,43.684945968328975 42.63429752062075,41.47112740208104 41.5,41.44920816285594 45.07954545452958,41.94238989050791 54.181818181765266,43.76166158010892 62.372933884267695,47.36722936180013 68.5,48.55079183714406" stroke="#4DD2FF" stroke-linecap="round" stroke-linejoin="round" stroke-width="0.5"><title>2025-09-08 5.7km</title><desc>1757333196000</desc></polyline><polyline fill="none" points="98.5,48.487740630189364 92.44349315069849,47.343359830687405 85.37910958903376,44.08452757853229 84.35273972601863,43.735749947227305 73.23835616436554,41.566761766735 71.5,41.446866576479806 72.81301369861467,41.534063092723954 84.08458904112922,43.71395130491146 85.4900684931199,44.171721796410566 92.36952054791618,47.354258757164644 98.41678082192084,48.55313342351292" stroke="#4DD2FF" stroke-linecap="round" stroke-linejoin="round" stroke-width="0.5"><title>2025-09-04 5.8km</title><desc>1756983645000</desc></polyline><polyline fill="none" points="128.5,48.14622428372968 123.18599759612698,47.08476381802757 116.83353365384392,44.18719830761984 113.39362980765873,43.38389589063445 105.89723557693651,41.95897233190772 104.36388221153175,41.93028235834208 102.50600961537566,42.083295442433155 101.5,41.853775716263044 101.96243990384392,42.06416882149642 102.60336538459524,42.15023858284985 104.36388221153175,41.97809897574916 105.99459134615608,42.02591556713014 116.16826923078042,44.00549959459022 117.25540865384392,44.39758582144714 123.20222355771693,47.15170314536954 126.53665865381481,47.754154795264185" stroke="#4DD2FF" stroke-linecap="round" stroke-linejoin="round" stroke-width="0.5"><title>2025-09-02 6.2km</title><desc>1756809719000</desc></polyline><polyline fill="none" points="158.5,48.49762634826038 152.40654205606552,47.30791804092587 144.17289719625842,43.66159523160604 133.02336448593996,41.502381390324445 131.5,41.39221618292504 132.9672897196142,41.52441441744304 143.6028037383221,43.58448124530696 145.04205607471522,44.0141155632009 152.55607476632576,47.451124411294586 158.49065420555416,48.60778381707496" stroke="#4DD2FF" stroke-linecap="round" stroke-linejoin="round" stroke-width="0.5"><title>2025-08-29 5.7km</title><desc>1756465472000</desc></polyline><polyline fill="none" points="188.5,48.36385409281502 182.6501481725718,47.21116515206813 175.74234441888984,44.04643906184356 174.6666117879795,43.721577181589964 163.82038195594214,41.615188054223836 161.5,41.615188054223836 163.93595653609373,41.70950497154263 174.95999341458082,43.836850877567485 182.5167928877636,47.2216442046265 188.3577543629217,48.38481194576889" stroke="#4DD2FF" stroke-linecap="round" stroke-linejoin="round" stroke-width="0.5"><title>2025-08-27 6.0km</title><desc>1756291993000</desc></polyline><polyline fill="none" points="37.280471604142804,83.37704872873292 32.73414148122538,82.54206122150936 30.7613749584998,82.03472353157849 24.538193291286007,79.11748034624907 23.255895051464904,78.70525412942516 13.140983062097803,76.72865794180689 11.5,76.5489653829136 14.199103287945036,76.94006052626355 23.23796081036562,78.715824054314 24.34091663901927,79.06463092911872 30.250249086646363,81.87617995958135 31.729823978734203,82.39408800256206 37.271504483534954,83.45103461709368 37.48671537695918,82.62661724531063 38.5,82.79572907197871 37.99784124881262,82.67946472281619 38.03370973095298,82.42579656845919" stroke="#4DD2FF" stroke-linecap="round" stroke-linejoin="round" stroke-width="0.5"><title>2025-08-26 6.0km</title><desc>1756205162000</desc></polyline><polyline fill="none" points="68.5,85.04208147955796 63.34744341994519,84.02838595750654 57.74224643755588,81.44963009336789 56.58046940487111,81.08504079614795 47.3164291701396,79.29764044129115 44.223386420781026,79.43102987868042 43.401089689839864,79.24428460530908 42.60896898576175,78.76408051233011 42.2015926236345,78.27498084741092 41.53017602680484,76.60312713824533 42.02053646268905,76.0606566094284 43.39354568315321,74.95791852044931 41.7640402346733,76.25630213377735 41.5,76.62091299619351 41.93000838224543,77.85702062999917 42.28457669739146,78.4439428811238 43.52933780383319,79.32431834618183 44.30637049453799,79.4843855925792 45.99622799665667,79.33321097923181 47.3918692371808,79.35988887251733 56.72380553226685,81.15618029906909 57.74979044427164,81.50298448809917 63.256915339501575,84.02838595750654" stroke="#4DD2FF" stroke-linecap="round" stroke-linejoin="round" stroke-width="0.5"><title>2025-08-23 7.3km</title><desc>1755948655000</desc></polyline><polyline fill="none" points="98.5,82.33325244977459 98.09154383244459,83.740550623952 91.18968192406464,82.38263162882504 82.73778122582007,78.53099106394075 74.51629169902299,76.75326665906323 71.5,76.259449376048 82.20364623743808,78.41988410553313 90.88595810713014,82.33325244977459 96.53103180759354,83.48131279935478" stroke="#4DD2FF" stroke-linecap="round" stroke-linejoin="round" stroke-width="0.5"><title>2025-08-19 5.0km</title><desc>1755607675000</desc></polyline><polyline fill="none" points="127.7220712150156,87.02899787578644 122.81965207937174,86.06015738978022 117.13196520792553,83.43038792958396 116.17056265292922,83.15356502668146 107.19502582223504,81.43205094241421 103.84112530580023,81.52721098670736 102.73294373470708,81.0081548144808 101.96969285132946,80.08249622141011 101.54403370482032,78.698313709996 104.72179940203205,76.11155796895764 107.71609132917365,72.97100212421356 106.83541723291273,73.75831566935813 104.80986681161448,75.95583085399994 101.5,78.70696492562274 101.66145691767451,79.36445455511421 102.2779287850135,80.56695440086332 102.79899429195211,81.05140962508449 103.70168524057954,81.49260734744894 104.20073389509344,81.57046551459644 105.93272628434352,81.41474910392571 107.37849959233426,81.43205094241421 111.0186191900284,82.12412139109074 111.33419407450128,82.01166035356437 112.77996738246293,82.27983641095489 113.2129654797609,82.4701543539777 115.4073117695225,82.79888427231344 116.82372927427059,83.257373728331 117.55762435446377,83.2400722874736 117.54294645282789,83.43903862976731 118.01263930418645,83.42173722845473 117.66036966568208,83.65530582780048 118.19611307422747,83.98403084100573 122.49673824411002,85.92175064142793 123.31870073388563,86.15531188939349 123.57556401196052,86.03420614283823 124.97730361510185,86.13801107974723 124.97730361510185,86.46672581839084 127.35512367493357,86.94249474137905 127.77344387062476,86.98574632034433 127.89086708344985,86.38887245059595 128.28717042674543,86.31966939293488 128.5,85.60168411214545" stroke="#4DD2FF" stroke-linecap="round" stroke-linejoin="round" stroke-width="0.5"><title>2025-08-16 10.0km</title><desc>1755297330000</desc></polyline><polyline fill="none" points="147.74876847286941,79.05941793077363 147.26108374382602,81.54164817935089 158.5,83.74948350632621 139.8571428571595,80.05231619346887 131.5,76.25051649366651 139.60221674875356,80.03925179599901 146.64039408869576,81.4501985024981" stroke="#4DD2FF" stroke-linecap="round" stroke-linejoin="round" stroke-width="0.5"><title>2025-08-13 5.0km</title><desc>1755095249000</desc></polyline><polyline fill="none" points="188.34882418817142,85.02523960399412 183.397816349403,84.03628576226038 177.76651735723135,81.44356623398926 176.71584546472877,81.1049919823563 167.4638857782993,79.32299914004398 164.18337066072854,79.42991980529041 163.457726763736,79.27844882161298 162.70940649497788,78.83294430272508 162.3163493841421,78.44089831899328 161.95352743563126,77.83500537547661 161.52267637179466,76.6232060239854 162.45996640541125,75.69652381768537 163.54843225085642,74.86784718318813 162.72452407618403,75.44703066056536 161.5,76.63211637885252 162.30123180293594,78.4498084758743 162.92861142219044,79.037876682778 163.45016797314747,79.3051790155805 164.18337066072854,79.46555999598786 166.7533594624838,79.31408907828882 167.68309070548275,79.37645949012949 177.14669652856537,81.27427928332327 183.25419932810473,84.03628576226038 188.5,85.13215281681187" stroke="#4DD2FF" stroke-linecap="round" stroke-linejoin="round" stroke-width="0.5"><title>2025-08-12 8.1km</title><desc>1754996616000</desc></polyline><polyline fill="none" points="38.5,118.1314941298333 33.05585831060307,117.0427295475456 26.908719346043654,114.20995183674677 25.89509536785772,113.87271035306912 20.11580381472595,112.65863036698283 15.75885558585287,111.9070486922792 14.222070844727568,111.86850587017398 12.276566757500404,112.0323127481679 11.5,111.8974129883427 12.211171662173001,112.0323127481679 14.140326975495555,111.88777728331479 15.775204359699273,111.91668439520436 25.805177111702505,113.8823458418774 26.97411444140016,114.29667086761037 32.80245231607114,116.98491866415134 38.03405994549394,118.06404892551654" stroke="#4DD2FF" stroke-linecap="round" stroke-linejoin="round" stroke-width="0.5"><title>2025-08-10 6.4km</title><desc>1754781124000</desc></polyline><polyline fill="none" points="65.82253984318231,126.29688423377956 61.328231722756755,125.39519828988705 56.23286111812922,123.04432250599348 55.26296483684564,122.72227890513022 46.86858082472463,121.07983471591433 46.11725271947216,121.03152698141639 43.76764482673025,121.16839881387568 43.255375664070016,121.04762956310879 42.53819883635151,120.63701263442636 42.03959018466412,120.07341705739236 41.56830255503883,118.97036756335001 41.5,118.55168753294856 44.484821654477855,116.10397219812876 46.54755881612073,113.88163411305868 48.494181634217966,112.18262767313718 50.94624335950357,110.58021139557968 51.21945357960067,110.45137239657197 51.90930938531528,110.42721505924419 52.175689349882305,110.25006101088366 52.92701745510567,109.42065231677407 53.698836326861056,107.76180699613178 54.395522388105746,107.10147956299625 57.51694915257394,105.41842319349962 61.37604351126356,103.70311576621316 61.37604351126356,104.29099556767324 62.0590690614772,104.73391561555763 62.26397672656458,104.9916133304796 62.37326081460924,105.41037020002113 64.7843410068599,109.70249126688577 65.7747280546464,111.87664131946804 66.3962813053804,112.73823123398324 66.40311156088137,112.98784886506473 66.68315203647944,113.41461253925809 67.1885909436387,114.88813609069621 67.57791550722322,115.58060149132507 67.9057677713281,117.01382321975689 68.01505185937276,118.46312029951514 67.7076903617708,120.54039655497763 67.78965342781157,120.66116663453431 68.5,120.87855228049739 68.41803693398833,121.52265414455906" stroke="#4DD2FF" stroke-linecap="round" stroke-linejoin="round" stroke-width="0.5"><title>2025-08-08 10.0km</title><desc>1754654808000</desc></polyline><polyline fill="none" points="98.5,118.7800683980895 91.29644268780248,117.30833346835425 83.03636363637634,113.4968301997651 74.50948616606183,111.66021936192556 71.5,111.2199316019105 82.84426877473015,113.4968301997651 91.50988142297138,117.43412351148436 98.31857707514428,118.74233183924662" stroke="#4DD2FF" stroke-linecap="round" stroke-linejoin="round" stroke-width="0.5"><title>2025-08-07 5.0km</title><desc>1754573743000</desc></polyline><polyline fill="none" points="128.5,118.79352541661501 121.36231313925236,117.36629666630324 113.20495672698598,113.62286689948814 112.16404405975481,113.3098655772119 101.5,111.20647458337771 104.33595594018698,111.80744736621273 104.56963021238334,111.70728545392194 105.19630212429911,111.97021028753079 112.62077104637865,113.48514642270311 121.45790715969633,117.46645364792494 128.02202989766374,118.78100594317948" stroke="#4DD2FF" stroke-linecap="round" stroke-linejoin="round" stroke-width="0.5"><title>2025-08-04 5.0km</title><desc>1754309955000</desc></polyline><polyline fill="none" points="158.5,118.14201955803583 153.10327570518712,117.06092628045735 146.879435850773,114.20368771221547 145.94585987261962,113.89479153889988 136.06960873521166,111.94485959618032 134.33348498636042,111.85798044197145 132.22065514104906,112.02208543952293 131.5,111.86763368552784 131.655595996388,111.9834725262699 132.6464968152868,112.05104511344689 135.5045495905797,111.89659340991057 139.4272065514233,112.66884923579346 140.05777979985578,112.67850239104155 141.14695177433896,113.0067090436205 145.83939945403836,113.90444456062687 147.14149226568406,114.3677883663695 153.00500454960275,117.05127360253391 157.94313011830673,118.04549390864122" stroke="#4DD2FF" stroke-linecap="round" stroke-linejoin="round" stroke-width="0.5"><title>2025-08-03 6.5km</title><desc>1754227262000</desc></polyline><polyline fill="none" points="185.3726695755613,118.1623588235816 178.20765569218202,116.73586513449845 169.17909559700638,112.72139044905634 161.5,111.15596012532478 169.84311781043652,112.89813125411456 178.48611662042094,116.84948031948443 188.5,118.8440398746825 185.59758032526588,118.18760634139471 185.59758032526588,117.99824982374412" stroke="#4DD2FF" stroke-linecap="round" stroke-linejoin="round" stroke-width="0.5"><title>2025-08-01 5.0km</title><desc>1754057984000</desc></polyline><polyline fill="none" points="35.916856492025545,161.27037494332762 31.31093394078198,160.3601775738207 26.2403189066099,158.0242215596445 25.15375854211743,157.6778493869424 16.953302961279405,156.09096078505536 15.456719817768317,156.04262861816096 13.966970387235051,156.1715143263209 13.256264236901188,156.04262861816096 12.668564920255449,155.71235796572728 12.238041002274258,155.30153143710777 11.746013667434454,154.3670939708245 11.5,153.5534793191764 14.51366742598475,151.05619032276445 16.604783599090297,148.82467041152995 18.51822323462693,147.14897219411068 19.960136674257228,146.31916526597342 21.08769931664574,145.48934902359179 21.88724373577861,145.40878384379903 22.174259681109106,145.23154013918975 23.048974943056237,144.22446556884097 23.732346241449704,142.70979958012322 24.40205011391663,142.10553587078903 27.600227790448116,140.34911464173638 31.345102505671093,138.72962505667238 31.406605922529707,139.25334447635396 31.953302961279405,139.63203159109253 32.52050113896257,140.64722577278008 32.86902050112258,141.6221213466997 33.730068337143166,143.40268255403498 35.971526195906335,147.60012545042264 36.272209567192476,148.502423703947 37.16059225512436,150.36337907554844 37.76195899772574,152.4337375864925 37.80296127562178,153.72264745914435 37.7209567198006,154.18987173997448 37.93280182231683,154.34292732799076 37.73462414575624,155.5593052120239 38.5,155.8492996347486 38.4726651480305,156.24401243845932" stroke="#4DD2FF" stroke-linecap="round" stroke-linejoin="round" stroke-width="0.5"><title>2025-07-28 10.0km</title><desc>1753704756000</desc></polyline><polyline fill="none" points="65.84889336017659,153.31062527570612 58.67786720325239,151.87627334967692 50.4637826961698,148.11101630351186 49.12736418511486,147.66276338630996 41.5,146.13869068601343 49.96398390340619,147.95732978155138 57.03722334007034,151.28715945468866 58.87344064383069,151.97872763887426 68.5,153.86130931398657 65.95754527160898,153.28501200188475 66.08792756538605,152.45257756528008" stroke="#4DD2FF" stroke-linecap="round" stroke-linejoin="round" stroke-width="0.5"><title>2025-07-22 5.0km</title><desc>1753194638000</desc></polyline><polyline fill="none" points="86.85765124554746,151.42519329274364 95.8016014234745,153.19949229255872 98.5,153.35993243262783 96.14590747331386,153.22780528003204 81.40480427048169,150.33983291356708 74.97508896799991,147.42344943210628 71.5,146.64006756737217 74.93505338081741,147.4423260161784 80.96441281138686,150.2265771343009 83.4466192171094,150.7551028379603" stroke="#4DD2FF" stroke-linecap="round" stroke-linejoin="round" stroke-width="0.5"><title>2025-07-19 6.4km</title><desc>1752877000000</desc></polyline><polyline fill="none" points="126.02734673110535,161.34391244150902 121.43233273975784,160.4290842026603 116.21228694988531,158.04076273152896 115.31938438056386,157.7573974648767 106.83680997201009,156.12195396038442 103.8970999745361,156.21911002537672 103.25833121340838,156.09766492430208 102.66077334008878,155.74952120145463 102.07695242940099,155.13419342420093 101.56868481301353,153.99258497641858 101.5,153.5796584536438 104.50152632917161,151.09395424617105 106.48651742559741,148.94014982158842 108.4440345967887,147.23163649913477 110.8342660900671,145.63644878939522 111.25324344949331,145.43401135208114 111.89201221065014,145.4016213109353 112.34533197659766,145.1182078485581 113.08712795726024,144.2355704255533 113.75337064362247,142.72129647624388 114.46082421779283,142.06537144248432 117.93627575680148,140.17044436939614 121.48728059019777,138.65608755849098 121.49414907148457,139.23915907630726 122.04362757568015,139.6035764509361 122.40765708469553,140.27571936370805 123.15632154667401,141.99249052570667 125.46413126430707,146.33282936178875 126.06855761894258,147.78225171761005 126.23340117017506,147.9360993582086 127.27054184686858,150.59194526018837 127.5040702111437,150.92391932424653 127.87496820147499,152.3084780893114 127.94365301451762,153.22340627683297 127.83375731366687,154.61601871328457 127.4972017298569,155.9195450837724 128.5,156.14624298853596" stroke="#4DD2FF" stroke-linecap="round" stroke-linejoin="round" stroke-width="0.5"><title>2025-07-17 10.0km</title><desc>1752756134000</desc></polyline><polyline fill="none" points="158.5,153.81001207380177 151.34195969975553,152.37658058895613 142.26372975111008,148.34024369516555 131.5,146.18998792619095 142.74377716321032,148.54143516851764 151.1392730146763,152.3640065497966 158.16930067166686,153.79743819076248" stroke="#4DD2FF" stroke-linecap="round" stroke-linejoin="round" stroke-width="0.5"><title>2025-07-14 5.0km</title><desc>1752500928000</desc></polyline><polyline fill="none" points="188.5,153.78223850869836 181.34362783422694,152.37637853726483 173.94448788114823,148.94252392493217 172.192337763845,148.30799601293256 161.5,146.21776149130892 172.88897576229647,148.4946222352737 181.47028928849613,152.42614378735016 187.74003127444303,153.68270916824258" stroke="#4DD2FF" stroke-linecap="round" stroke-linejoin="round" stroke-width="0.5"><title>2025-06-21 5.0km</title><desc>1750468889000</desc></polyline><polyline fill="none" points="29.97303190268576,186.65815049567027 36.99414734909078,188.06054482147738 38.5,188.14088944171817 37.20484278173535,188.06054482147738 25.72813862748444,185.81816068684566 24.494950654130662,185.33607482795196 20.807780582952546,183.5830061302404 20.15710351159214,183.3711738928905 12.634037181560416,181.91024369176012 11.5,181.85911055827455 12.503901767282514,181.8810247631336 15.43504705070518,182.4215728822819 20.708629791159183,183.56109248151915 24.631282992864726,185.4164227117435 25.63518476014724,185.80355207536923 26.725843470252585,186.0226809134765" stroke="#4DD2FF" stroke-linecap="round" stroke-linejoin="round" stroke-width="0.5"><title>2025-06-17 8.1km</title><desc>1750165544000</desc></polyline><polyline fill="none" points="68.5,188.7659015625395 61.6925754059921,187.41218310472323 52.81786542921327,183.44938676458696 41.5,181.2340984374605 52.83874709974043,183.49861490079638 61.54640371224377,187.39987649892282 67.28886310901726,188.56899806736328" stroke="#4DD2FF" stroke-linecap="round" stroke-linejoin="round" stroke-width="0.5"><title>2025-06-15 5.0km</title><desc>1749939796000</desc></polyline><polyline fill="none" points="90.15694828683627,186.5476281631636 96.52915513937478,187.8208640805533 98.5,187.94276827983776 96.9486060864001,187.84795392326487 86.28420940626529,185.77554687948214 85.24420089379419,185.38272991589474 81.76792934664991,183.73016241009464 80.99223238986451,183.47279138720114 73.98223026178312,182.11818949895314 73.13183656099136,182.05723172016587 71.5,182.18592029421416 73.81559906364419,182.10464333106574 80.69344541392638,183.43215375990985 81.52660140453372,183.66243329680947 83.51468397531426,184.60386135783847" stroke="#4DD2FF" stroke-linecap="round" stroke-linejoin="round" stroke-width="0.5"><title>2025-06-11 8.1km</title><desc>1749642919000</desc></polyline><polyline fill="none" points="128.5,188.75761206554307 121.48565335402964,187.40021930405055 112.67060876305914,183.46368833849556 101.5,181.24238793445693 112.79623885225737,183.51305007506744 121.5589375726413,187.46191932777583 127.3379216750618,188.62187352111505" stroke="#4DD2FF" stroke-linecap="round" stroke-linejoin="round" stroke-width="0.5"><title>2025-06-08 5.0km</title><desc>1749387304000</desc></polyline><polyline fill="none" points="141.9601398599334,192.2563473537739 144.86783216753975,190.52019920607563 150.98531468515284,189.40727984640398 154.08181818178855,187.09239786749822 157.44265734264627,187.18143203217187 158.3489510489162,186.42464101308724 152.3825174823869,176.7197848650394 148.34195804176852,177.5211119944288 144.4902097901795,179.7915303253103 142.3377622377593,179.7915303253103 138.9013986014761,181.39417096233228 133.27482517482713,182.55162973457482 133.46363636362366,186.20205515241832 131.5,188.65049295013887 133.16153846145608,190.4756824898359 133.8790209791623,192.74602883096668 134.9363636362832,193.41377535375068 141.50699300691485,192.03376467025373 144.98111888114363,190.4756824898359 150.04125874117017,189.8079311651527 154.27062937058508,187.09239786749822 157.2538461536169,187.22594910740736 158.46223776205443,186.20205515241832 152.3825174823869,176.58623019064544 147.88881118874997,177.5656301221461 144.565734265605,179.74701244014432 141.5447552446276,180.05863753479207 137.84405594388954,181.70579480053857 133.38811188796535,182.46259456081316 133.5013986013364,186.42464101308724 131.5,188.65049295013887 133.27482517482713,190.56471591748414 134.18111888109706,192.87957822266617 135.46503496496007,193.50280814105645 145.81188811152242,190.34213231221656 150.1545454543084,189.8524479540356 153.893006992992,187.3149832431227 157.36713286698796,187.2704661777243 158.5,186.15753796565696 151.9671328670811,176.45267547256663 147.51118881092407,177.8327387869067 144.41468531475402,179.74701244014432 133.5769230767619,182.24000654157135 133.53916083928198,186.20205515241832 131.53776223771274,188.56145910560736 133.23706293688156,190.4756824898359 133.8790209791623,192.6124793953786 135.8048951048404,193.54732452743337 151.06083916057833,188.91759436775465 152.9489510487765,186.38012385068578 152.3825174823869,183.842637573689 149.8902097903192,180.7264047942881 147.77552447561175,179.65797665526043 145.96293706283905,179.56894085078966 143.88601398584433,180.4147802090156 140.52517482521944,184.46588127722498 135.1629370630253,185.35622777591925 131.95314685301855,187.89370465217507 131.83986013988033,188.96211125364061 133.6524475524202,191.14343272330007" stroke="#4DD2FF" stroke-linecap="round" stroke-linejoin="round" stroke-width="0.5"><title>2025-06-04 6.4km</title><desc>1749041988000</desc></polyline><polyline fill="none" points="188.5,188.7822926046283 181.5798759208992,187.4002201252515 173.69658782478655,183.75985925654095 172.5031019775197,183.36496562202228 161.5,181.2177073953717 172.8171772005153,183.4883700306309 181.42283830943052,187.37554010635358 187.17041488946415,188.56017495014385" stroke="#4DD2FF" stroke-linecap="round" stroke-linejoin="round" stroke-width="0.5"><title>2025-05-28 5.0km</title><desc>1748436903000</desc></polyline><polyline fill="none" points="38.5,223.7704701553448 31.002373417722993,222.2346258794205 22.31922468356788,218.30680015370308 11.5,216.21694104147173 21.966772151878104,218.2312637355426 23.26977848104434,218.64671342453948 31.63251582282828,222.4738160835186 38.371835443074815,223.78305895852827" stroke="#4DD2FF" stroke-linecap="round" stroke-linejoin="round" stroke-width="0.5"><title>2025-05-27 5.0km</title><desc>1748351986000</desc></polyline><polyline fill="none" points="61.49476505536586,225.56973551820556 61.530847083369736,223.9533236429561 62.37877474335255,222.03381156545947 62.93804617866408,218.47254545317264 62.90196415054379,218.80089273079648 62.090118518681265,218.90192251550616 58.139136443380266,221.70547147485195 56.64173227787251,222.0590684653289 56.046378814440686,221.0740461719688 56.731937348027714,219.9627310827491 57.99480833107373,218.97769480869465 57.79635717655765,217.28543766700022 58.39171063998947,216.19935197279847 57.597906022157986,215.74470907823707 54.69330276129767,215.79522502458713 53.935580171470065,214.68387021525996 54.188154368137475,213.37044011337275 54.747425803449005,213.54724869203346 54.69330276129767,212.6884621843492 55.52318940724945,213.19363132303988 57.038634586846456,213.14311448692752 58.24738252768293,213.95138179129572 59.88911480555544,214.0018983510381 60.55663232511142,213.67354040438659 62.19836460298393,211.37501433712896 62.270528659108095,207.53563826884783 61.675175195676275,206.85363339612377 60.73704246553825,206.5 59.5824175667949,206.82837389592896 58.55407976638526,207.9650471285422 57.76027514843736,208.24289925477933 56.13658388471231,207.93978781838086 54.42268755059922,207.00519030670694 52.853119328967296,207.53563826884783 52.059314711077604,208.7480835996248 52.095396739197895,210.0362958573969 52.78095527278492,210.99613297969336 54.332482480444014,211.72863606043393 54.69330276129767,212.61268666454998 53.9897032136214,214.2544808901148 54.4948516068398,215.769967053624 54.6211387051153,217.86636394601373 53.953621185501106,220.13953176994983 54.47681059275055,220.7709610677848 56.01029678643681,221.14981735081528 56.605650249752216,222.0590684653289 55.23453318257816,224.28165873675607 53.538677862496115,224.96358313792734 50.70623865787638,227.03459350085177 48.649563057057094,227.91855249649961 48.18049669195898,229.13083051687863 47.02587179321563,230.3936095416866 48.0181275656214,233.22219538311765 48.92017826763913,233.42423515632981 50.11088519450277,232.6918396637484 51.500043275766075,233.2727053523995 52.51034006214468,233.14643039696966 53.30414468003437,232.31301298408653 53.88145712943515,230.21682112806593 55.2525741966092,229.4591541018599 58.39171063998947,230.4441204781615 59.5824175667949,229.8632436661428 61.44064201315632,229.76222137876903 61.54888809740078,224.15537609483 62.97412820678437,219.15449667496432 62.75763603823725,218.80089273079648 62.21640561695676,218.8514076318097 58.15717745741131,221.7307284307899 56.69585532002384,222.03381156545947 55.090205070213415,224.35742827017384 53.376308736158535,225.03935232151707 50.68819764390355,227.03459350085177 48.75780914135976,227.7922729638667 48.18049669195898,229.20659756285022 47.02587179321563,230.49463139727595 47.927922495349776,233.09592038458504 48.523275958781596,233.5 50.00263911020011,232.6918396637484 51.698494430223946,233.29796033048478 52.83507831487805,232.8433700636233" stroke="#4DD2FF" stroke-linecap="round" stroke-linejoin="round" stroke-width="0.5"><title>2025-05-23 6.4km</title><desc>1747958832000</desc></polyline><polyline fill="none" points="87.45308017521165,221.2609099506517 88.18378490814939,221.95508605199575 90.01054674061015,222.24737005149655 90.92392765684053,223.41650205080805 90.68905827833805,228.01989710853377 90.24541611899622,228.86018867589883 88.65352366515435,229.33513462169503 87.08772780874278,228.78711997522623 85.62631834263448,229.11592893171473 83.14714156999253,227.65455191805086 81.65963550633751,228.23910392301332 80.5635784069309,228.0564315932861 80.87673757807352,226.99692900072841 80.09383965004236,224.95097809076833 80.32870902842842,223.48957258829614 79.493617905071,222.10122810167377 79.85897027153987,219.90908685923205 85.1304829880828,219.6898714978597 86.93114822299685,220.3475169071171 87.87062573677395,221.84547944900987 89.88006375252735,222.21083457340137 90.76734807121102,223.05114898820466 90.68905827833805,228.1295005438733 90.29760931432247,228.86018867589883 88.75791005545761,229.29860035570164 87.2704039918026,228.8236543286912 85.57412514742464,229.07939462825016 83.09494837478269,227.6910864651727 79.93726006429642,228.3487072458811 78.24098121980205,229.73701113578863 78.78900976956356,230.1388868940121 79.20655533124227,232.33092317769479 81.76402189675719,233.5 82.86007899628021,232.7327940568066 83.59078372933436,231.2349078469706 83.48639733879827,230.0658186305227 82.12937426322605,227.91029361690744 83.48639733879827,227.6910864651727 85.60022174508777,229.07939462825016 87.2704039918026,228.60444811395428 87.06163121107966,228.0564315932861 85.36535236658528,228.09296607170836 84.4519714503549,226.92385966274014 85.31315917137545,223.48957258829614 83.06885177711956,220.05523030851327 83.22543136274908,217.315023998759 83.82565310772043,216.14585860955412 85.02609659754671,215.45166363242606 87.29650058946572,216.18239512490982 89.14935901958961,215.70741993909178 87.06163121107966,217.7534593702294 84.89561360958032,217.64385061174107 83.59078372933436,216.65736925475358 81.58134571358096,216.21893163386267 81.6335389087908,211.7614314134844 82.52082322735805,209.89802260746364 82.57301642256789,207.12114795439993 83.1210449723294,206.57307632359152 84.79122721916065,206.5 89.59300117893144,207.19422406563535 90.58467188791838,208.0711354503146 90.92392765684053,209.89802260746364 91.75901878031436,210.81146032754623 91.21099023055285,211.5422076916584 91.55024599947501,212.0171921379515 89.90616035019048,213.00369492125174 89.72348416689783,215.30551703396486 87.29650058946572,217.68038687076478 85.391448964132,217.7534593702294 83.5124939364614,216.54775993383373 81.68573210388422,216.328541123381 81.60744231124409,212.0171921379515 82.7295960081974,208.29036273398378 83.90394290059339,207.85190794157097 83.9300394981401,206.7557670234819 89.279842007556,207.0846098894981" stroke="#4DD2FF" stroke-linecap="round" stroke-linejoin="round" stroke-width="0.5"><title>2025-05-20 5.0km</title><desc>1747754393000</desc></polyline><polyline fill="none" points="124.92259414237924,221.88678985866136 127.4456066947896,222.19754025462316 128.5,221.08771632399294 122.2489539750386,211.6762878690206 117.88075313810259,212.74174351306283 114.4916317993775,214.73946533541312 112.38284518825822,214.82825274462812 107.26150627620518,216.78157085122075 103.15690376586281,217.35868577228393 103.49581589968875,221.13210933920345 101.5,223.70689594867872 103.15690376586281,225.1718534809188 103.75941422604956,227.21390670671826 104.66317991632968,228.10175274306675 106.35774058592506,228.36810617669835 114.83054393320344,225.6157789659337 119.87656903779134,224.9054979578359 124.24476987472735,222.01996862894157 127.4456066947896,222.10875445153215 128.4246861927677,221.26528835605131 122.3995815902017,211.72068190973368 120.7426778243389,211.76507594564464 114.64225941430777,214.65067790696048 111.85564853576943,214.9614338221727 108.35355648538098,216.5596033561451 102.85564853576943,217.58065283187898 103.64644351485185,220.51060668524588 101.5,223.66250321402913 103.08158995839767,224.9942831514636 103.57112970738672,226.85876775055658 104.70083682029508,228.05736048726249 106.35774058592506,228.2793217182916 115.5460251045879,225.26063861662988 120.47907949821092,224.63914226053748 124.05648535559885,222.10875445153215 127.48326359852217,222.10875445153215 128.4246861927677,221.17650234969915 122.3995815902017,211.76507594564464 121.08158995816484,211.63189382333076 117.69246861943975,212.74174351306283 114.75523012550548,214.65067790696048 112.34518828452565,214.73946533541312 107.8263598328922,216.64839036864578 103.34518828475848,217.44747261054 103.57112970738672,220.95453724917024 101.57531380769797,223.5737177300034 103.08158995839767,225.08306832588278 104.13598326360807,227.70222226623446 106.50836820108816,228.23492948169587 114.15271966555156,225.660171487747" stroke="#4DD2FF" stroke-linecap="round" stroke-linejoin="round" stroke-width="0.5"><title>2025-05-14 5.0km</title><desc>1747227249000</desc></polyline><polyline fill="none" points="141.0614109998569,233.2072240831185 141.6113941486692,232.70532147266204 142.40975678374525,229.73570418082818 144.8048446890898,230.1121370839246 146.0999662972754,224.92566322856874 145.85158681077883,221.60039055150992 143.3500505540287,215.3470488191233 143.45649890543427,213.94577039235446 145.1951553109102,213.00460749759804 147.78539852704853,212.56539656739915 149.45308936492074,211.41507746368006 150.81917654059362,211.5405671554763 151.33367690548766,210.99677789857378 148.583761162241,206.60457742671133 147.89184687833767,206.5 145.99351794598624,207.1902099634608 144.8048446890898,208.00590944757278 143.77584395941813,208.02682477340568 141.6823597161565,208.863435936757 139.5356512971921,209.17716418294003 139.6775824322831,210.80854279684718 138.66632309451234,212.08435487173847 138.8437370134052,212.54448173608398 139.44694433768746,212.9418631404842 140.05015166208614,214.34314889581583 140.81303151347674,214.42680742329685 147.6257260000566,212.37716300397005 148.3886058514472,211.7078866167867 148.67246812174562,210.80854279684718 148.335381675628,209.6372980163287 147.1467084189644,208.3614696762961 145.6919142837869,207.9013327843859 144.41453406750225,208.25689320683887 142.7113604459446,210.1810911246721 140.28078975668177,210.59939246736758 138.87921979720704,211.85429102586932 138.9147025810089,212.54448173608398 140.81303151347674,214.00851442132262 142.97748132422566,213.77845288168464 147.57250182447024,212.37716300397005 148.56601977034006,211.45690737005498 148.61924394604284,210.4529871011182 147.89184687833767,209.13533377973363 146.1709318648791,207.96407878912578 143.77584395941813,208.04774009693938 141.52268718916457,208.94709685254202 139.50016851339024,209.34448570449604 139.65984104049858,210.8922028648376 138.68406448629685,212.1680143837002 139.4646857297048,212.9418631404842 139.85499635129236,214.0712584296998 140.75980733777396,214.44772204950277 141.8242908512475,213.90394102841674 143.79358535131905,213.56930578823085 143.33230916212779,214.42680742329685 143.38553333771415,215.09607433053316 145.6209487161832,220.70109307739767 146.15319047297817,223.294404584085 145.9580351621844,226.20138148439582 145.0709655676037,229.5265744713688 142.78232601343188,229.19196646231285 141.87751502695028,232.24524292709248 141.18560074316338,232.53802031086525 140.90173847286496,233.5 140.52916924317833,233.35361209738767" stroke="#4DD2FF" stroke-linecap="round" stroke-linejoin="round" stroke-width="0.5"><title>2025-05-06 7.1km</title><desc>1746539597000</desc></polyline><polyline fill="none" points="171.81684361433145,233.5 171.63390359212644,233.28435963652737 172.49372169631533,230.41632046682935 174.6707079601474,230.9338644418458 175.0548820067197,230.26536988592125 176.18911014404148,225.49958522240922 176.15252213960048,223.12743244334706 172.91448374732863,214.1561248897342 172.03637164086103,213.96202960774826 170.79237949021626,214.56588097129134 170.02403139707167,214.41491830308223 168.5788052220596,212.1720308127551 169.56668134173378,211.09371047242894 169.3288593129255,209.36838570807595 170.60943946801126,209.3036857367988 174.890235986677,208.09594905805716 176.28058015508577,207.2332754896488 178.56733043212444,206.54313392755284 181.5126647891011,211.05057753656 181.14678474480752,211.63287137694715 179.53691254975274,211.48190647170122 177.81727634125855,212.7327550680784 175.2012340243673,213.1209478527453 173.66453783819452,213.85419881320558 171.70707960100845,214.11299262134708 170.51796945696697,214.60901314098737 169.74962136382237,214.28552163871063 169.31056531064678,213.07781535870163 168.61539322638419,212.56022469713935 168.61539322638419,212.1504644635279 169.56668134173378,210.87804569935543 169.31056531064678,209.3899523604341 171.32290555443615,209.13115237673628 174.8353539800737,208.00968187041872 178.16486238338985,206.5 178.67709444544744,206.6725356537936 181.4943707868224,211.05057753656 181.2199607535731,211.58973855864315 179.66497056512162,211.48190647170122 177.41480829252396,212.883719019228 175.58540807082318,213.01311659999192 170.60943946801126,214.56588097129134 169.84109137486666,214.3502199814975 169.34715331508778,213.07781535870163 168.61539322638419,212.517092080976 169.54838733945508,210.92117867272464 169.3288593129255,209.36838570807595 171.24972954567056,209.13115237673628 174.6890019623097,208.07438226472004 175.91470011079218,207.31954301570659 178.20145038783085,206.5 178.62221243884414,206.6725356537936 181.4760767846601,211.02901106515492 181.2016667514108,211.56817214586772 179.53691254975274,211.4603400472697 177.76239433477167,212.75432135388837 175.1829400220886,213.1209478527453 173.33524579822551,213.91889729698596 171.81684361433145,214.0482942009985 170.64602747245226,214.5874470573326 169.78620936826337,214.26395551979658 169.3288593129255,213.07781535870163 168.59709922410548,212.5386583902291 168.5788052220596,212.1720308127551 169.31056531064678,211.4603400472697 168.4507472064579,212.25829618619173 169.2556833040435,213.20721281263104 169.62156334833708,214.19925714879355 170.40820544364396,214.67371137811278 174.96341199544258,213.25034527845855 177.68921832577325,212.9268515555741 179.44544253859203,211.58973855864315 181.0736087358091,211.58973855864315 181.5492527935421,211.09371047242894 178.49415442335885,206.5 176.17081614176277,207.19014171257732 174.7255899667507,208.11751584906597 173.42671580938622,208.20378298975993 171.43266956775915,209.02331895034877 169.07274328183848,209.49778558711114 169.4752113306895,210.87804569935543 168.54221721750218,212.0210663187463 168.50562921306118,212.58179100176494 169.23738930176478,213.1425140962092 169.56668134173378,214.1561248897342 170.26185342599638,214.5874470573326 172.91448374732863,214.13455875671934 175.7683480931446,221.5531699071289 176.09764013299718,223.23525818638154 176.17081614176277,225.41332561943273 174.8719419843983,230.73978560976684 172.38395768299233,230.43788482611126 171.83513761649374,233.04715496544668 171.54243358108215,233.28435963652737" stroke="#4DD2FF" stroke-linecap="round" stroke-linejoin="round" stroke-width="0.5"><title>2025-04-29 10.1km</title><desc>1745929124000</desc></polyline><polyline fill="none" points="37.46288303844631,252.42462373730086 37.00841605523601,252.0400183712045 37.264782045793254,250.62520996679086 36.62386706948746,252.74054869628162 36.13444108766271,252.80922793049103 34.677816141571384,258.52320921795035 34.5146741476492,258.564414873661 27.091713422501925,257.09473816500395 17.629477772978134,252.83669961369014 11.5,251.53178805270727 17.582865774689708,252.85043545305234 25.052438498008996,256.35302566026803 27.173284419521224,257.1496796584761 38.5,259.37479003320914 34.6195511437254,258.5369444379976 34.86426413466688,257.5342694429055 35.55179110914469,257.3694453931894 37.11329305131221,250.80377889306692 37.41627104009967,250.6938903529881 37.00841605523601,251.76529953444697" stroke="#4DD2FF" stroke-linecap="round" stroke-linejoin="round" stroke-width="0.5"><title>2025-04-22 6.3km</title><desc>1745328842000</desc></polyline><polyline fill="none" points="51.08290893549565,267.7065819974814 51.53164490475319,267.50822701070865 52.46651150728576,264.4447197459085 54.8597700096434,264.7973560378596 56.11249125690665,260.2350765513838 55.906820604461245,255.62861269786663 53.30789144942537,249.25873630018032 53.25179945328273,248.1566612082388 54.65409935708158,247.01049674367823 57.60827782098204,246.52557905377762 59.73977367463522,245.1369446930621 61.142073578434065,245.2691959952499 61.72169087198563,244.7622322007228 60.46896962460596,242.80049076444993 58.78620974009391,243.66013261199987 57.4400018324377,242.09514087894058 56.00030726462137,241.5 53.30789144942537,241.72042275195417 51.47555290861055,242.5359848455846 49.007505077985115,242.954785724025 49.38145171897486,244.49772884703998 48.29700646002311,246.06270199271967 49.100991738261655,246.74599632962781 49.5123330433853,247.89216229283193 50.35371298552491,248.33299362644902 53.42007544171065,247.60562141083938 55.19632198649924,246.83416317273804 57.53348849271424,246.52557905377762 59.4593136938056,245.225112237531 61.142073578434065,245.2471541176783 61.70299353986047,244.71814833245298 60.4876669566147,242.80049076444993 58.80490707210265,243.6160485035798 57.4400018324377,242.0730986554263 56.11249125690665,241.52204228601477 53.214404789265245,241.72042275195417 51.51294757274445,242.51394267009164 49.4749383792514,242.8225329087145 49.194478398538195,243.04295421954885 49.34405705484096,244.5638547178678 48.29700646002311,245.95249301256263 49.063597074127756,246.74599632962781 49.456241047242656,247.91420388229017 50.26022632536478,248.37707670690725 55.23371665063314,246.81212146561302 57.45869916456286,246.56966252817074 59.478011025930755,245.225112237531 61.21686290658545,245.225112237531 61.684296207968146,244.67406445462257 60.450272292480804,242.7564064686594 58.71142041182611,243.59400644570997 57.42130450042896,242.0730986554263 56.28076724533457,241.5881691295799 53.77532475069165,241.6102114059613 51.32597425219137,242.5359848455846 49.4375437151175,242.8225329087145 49.17578106641304,243.02091209929495 49.306662390823476,244.7622322007228 48.27830912801437,246.01861840786296 49.1196890702704,246.79007975605782 49.49363571126014,247.91420388229017 50.1106476689456,248.3109520825965 57.626975153107196,246.23903623607475 58.54314442339819,245.48961464011518 58.86099906824529,244.365477040541 58.599236419657245,243.5278802577959 57.68306714913342,242.40373175652348 56.24337258131709,241.54408456964302 53.75662741868291,241.6322536799853 51.251184923923574,242.602111357759 49.157083734404296,242.954785724025 49.38145171897486,244.45364492113004 48.29700646002311,245.97453481335833 49.213175730546936,247.0986634715373 48.857926421565935,247.78195430927735 49.7927930240985,249.69956465590803 50.521988974069245,252.91758255226887 50.83984361891635,256.53228134020173 50.76505429064855,258.9126574694819 48.93271574983373,267.8828973779746 50.26022632536478,268.5" stroke="#4DD2FF" stroke-linecap="round" stroke-linejoin="round" stroke-width="0.5"><title>2025-04-15 8.8km</title><desc>1744723077000</desc></polyline><polyline fill="none" points="98.32256297930144,252.11555058220983 97.53888280398678,252.0632622097619 98.11555312166456,250.37259562626423 97.43537787522655,253.1961731211777 97.59802847763058,253.63190595147898 96.69605695514474,256.62971566361375 95.82365826953901,256.6471446256328 95.83844468783354,257.3791593173373 94.83296823670389,260.6383269469952 85.0295728368219,258.6863200816151 73.79189485206734,253.47504226924502 71.5,252.81272724908195 73.95454545458779,253.5970473687048 85.01478641841095,258.7037488197093 94.86254107346758,260.6208984196128 95.18784227827564,259.31375345625565 95.92716319829924,259.22661007908755 96.5629791895044,257.3791593173373 98.5,249.36167305300478 97.98247535608243,252.23755671823164" stroke="#4DD2FF" stroke-linecap="round" stroke-linejoin="round" stroke-width="0.5"><title>2025-04-11 5.1km</title><desc>1744377642000</desc></polyline><polyline fill="none" points="109.26928169163875,268.5 110.18246932455804,267.489487409548 110.42474359448534,268.23638850795396 111.33793122740462,267.489487409548 112.3629377540201,264.39201509868144 114.76704397122376,264.9412157864572 115.19568306417204,264.78743974464305 116.31387200241443,259.9763872182375 116.38841793162283,257.3401453783008 115.92250587407034,254.98946733966295 113.23885242233519,249.14560693781823 113.16430649312679,248.1569671883044 114.46886025439017,247.05847289254598 117.4693339051446,246.5751335065288 119.55661992321257,245.14707855210872 120.91708313138224,245.2788994331204 121.60663297667634,244.70767499279464 120.13435087457765,242.40079059636628 118.58752284338698,243.30157716825488 116.76114757778123,241.76364644480054 115.12113713496365,241.67576433482463 114.24522246664856,242.09320401590958 112.47475664783269,244.02659758357913 109.94019505451433,244.40009193155856 108.46791295264848,245.6743615591986 108.39336702332366,246.09179296197544 109.15746279782616,246.72892343683634 109.47428299696185,247.76150993116607 110.31292470067274,248.24484647337522 117.67433521070052,246.17967314712587 118.68070525501389,245.21298900338297 118.79252414871007,244.1364489342086 117.6929716928862,242.42276104840857 115.92250587407034,241.5 113.53703613905236,241.6318232654885 111.20747585117351,242.53261327285145 109.19473576243035,242.88413998897886 109.36246410314925,244.4220621658169 108.39336702332366,245.60845125872584 108.39336702332366,246.02588279791235 109.15746279782616,246.6630134810839 109.95883153693285,248.22287665563636 110.77883675822522,248.24484647337522 111.87838921416551,247.67363043544174 112.8847592585953,247.76150993116607 115.82932346244343,255.56066265427216 116.18341662629973,257.60377111313574 116.07159773248713,259.71276458504144 115.02795472345315,264.1723344048514 112.62384850624949,263.7988766760827 111.67338790884241,266.69864793760644" stroke="#4DD2FF" stroke-linecap="round" stroke-linejoin="round" stroke-width="0.5"><title>2025-04-08 5.6km</title><desc>1744119870000</desc></polyline><polyline fill="none" points="141.18841104069725,266.22279384173453 141.91940070415149,265.15598509067786 142.47634520957945,262.7761591798626 144.79114581033355,263.2069919617643 146.0268664318719,258.44726081666886 146.07907997927396,256.5187148169498 145.7483941791579,254.63118258801114 143.38138003100175,248.7632985329692 143.38138003100175,247.63483832952625 144.68671871570405,246.67051243354217 147.41922769561643,246.26015949061548 149.22929733828641,245.02909529639874 150.7957037598826,245.02909529639874 151.21341213898268,244.49563164620486 149.83845539117465,242.3207257387403 148.15021735901246,242.97730375418905 146.5490019057761,241.6436272625142 143.9731335680117,241.58207273487642 141.58871490403544,242.4643523752893 139.60460010328097,242.83367750897014 139.7090271980851,244.49563164620486 138.78658786095912,245.60359292195062 139.46536397695309,246.38326546740427 139.86566784029128,247.53225070299231 140.94474781956524,247.90156589698745 141.9019961883314,247.38862793192675 143.52061615732964,247.20396992248425 145.1044270946877,246.50637136369187 147.52365479042055,246.15757111515268 149.35112894885242,244.94702406400756 149.07265669613844,245.50100418883085 149.5251741068205,244.82391714828555 150.86532182310475,244.92650625035458 151.16119859163882,244.41356018124497 150.08211861230666,242.66953309456585 148.55052122229245,243.46973576329765 147.3322051165742,242.05399026606756 146.0442709477502,241.5 143.85130195744568,241.56155455451517 141.71054651460145,242.42331620461482 139.65681365068303,242.75160531961592 139.63940913486294,244.57770307539613 138.83880140830297,245.39841539978806 138.78658786095912,245.8087702206103 139.48276849271497,246.42430077510653 139.67421816656133,247.2860401712678 140.6140620195074,247.88104840523738 141.84978264098754,247.36811038423912 143.4509980941657,247.20396992248425 144.91297742095776,246.5474066445313 146.30533868464408,246.36274781019893 146.46197932685027,247.53225070299231 150.0299050649046,254.7747998355917 146.3923612635699,256.04683353322616 146.18350707407808,259.26791269924433 145.29587676847586,262.73512743496394 144.84335935779382,263.08389698182873 143.59023422049358,268.5 138.78658786095912,267.2690811709472 139.51757752435515,264.1302017472626 139.76124074548716,264.0071073706349 139.34353236632887,266.01763878189377" stroke="#4DD2FF" stroke-linecap="round" stroke-linejoin="round" stroke-width="0.5"><title>2025-04-02 6.9km</title><desc>1743601029000</desc></polyline><polyline fill="none" points="170.7553137508221,268.5 171.40103783342056,267.91794785880484 172.29365641833283,264.7166316180519 175.27538232936058,265.4330144081323 176.50985484034754,259.76904479989025 176.13001714460552,255.58253215104924 173.2242587726796,248.95557841929258 173.20526688790414,248.351082138528 173.77502343140077,247.54508433119918 174.78159332484938,247.05252855930303 178.01021373819094,246.47041567025008 179.51057263615075,245.26140670843597 180.09932106442284,245.17185020603938 180.1183129491983,244.36583992806845 179.35863755783066,242.82097805774538 178.75089724478312,242.86575682619878 178.16214881651103,242.19407427562692 177.66835981211625,242.3060215198493 176.56683049467392,241.63433713953418 175.38933363801334,241.54477905623207 174.17385301191825,241.97017960417725 172.54055092053022,243.9852228644304 170.07160589867271,244.3434507085185 168.2293930746382,245.82113396393834 169.33092239196412,247.88091713511676 170.58438678772654,248.39585970180633 174.9335284032859,246.94058390099963 177.7443273512181,246.53758262630436 179.89041033177637,245.05990452312108 181.31480169063434,245.2390175864566 181.80859069502912,244.70167792809661 180.27024802740198,242.3955792713241 178.57997028168757,243.31354397338873 177.55440850334708,242.12690589981503 176.22497656859923,241.5 173.73703966184985,241.6119476223539 171.4770053725224,242.55230524252693 169.06503600499127,242.95531433366705 169.21697108331136,244.72406710854557 168.19140930497088,246.0450244392996 169.02705223544035,246.828639181811 169.40688993118238,247.94808363007905 170.52741113340016,248.41824847973476 171.6859161052853,247.8361394596286 172.7874454226112,247.76897292815556 174.07889358792454,251.4183226643945 175.08546348148957,252.29147035496135 178.409043318592,251.5974301854294 180.49815064494032,255.98551568786206 176.4718710706802,257.35117624123814 176.26296033803374,260.77648163713457 175.8451388728572,261.29139189134 174.78159332484938,265.0748233252234 174.55369070754386,265.25391894466884 172.29365641833283,264.8509535813937 171.59095668129157,267.5373744137469" stroke="#4DD2FF" stroke-linecap="round" stroke-linejoin="round" stroke-width="0.5"><title>2025-03-25 6.1km</title><desc>1742909450000</desc></polyline></svg>