<?xml version="1.0" encoding="utf-8" ?>
<svg baseProfile="full" height="300mm" version="1.1" viewBox="0,0,200,300" width="200mm" xmlns="http://www.w3.org/2000/svg" xmlns:ev="http://www.w3.org/2001/xml-events" xmlns:xlink="http://www.w3.org/1999/xlink"><defs /><rect fill="#222222" height="300" width="200" x="0" y="0" /><text fill="#FFFFFF" style="font-size:12px; font-family:Arial; font-weight:bold;" x="10" y="20">Over 5km Runs</text><text fill="#FFFFFF" style="font-size:4px; font-family:Arial" x="10" y="280">Runner</text><text fill="#FFFFFF" style="font-size:9px; font-family:Arial" x="10" y="290">Elliont</text><text fill="#FFFFFF" style="font-size:4px; font-family:Arial" x="65" y="280">SPECIAL TRACKS</text><rect fill="yellow" height="2.6" width="2.6" x="65" y="283" /><text fill="#FFFFFF" style="font-size:3px; font-family:Arial" x="70" y="285.5">Over 20.0 km</text><rect fill="red" height="2.6" width="2.6" x="65" y="287" /><text fill="#FFFFFF" style="font-size:3px; font-family:Arial" x="70" y="289.5">Over 40.0 km</text><text fill="#FFFFFF" style="font-size:4px; font-family:Arial" x="120" y="280">STATISTICS</text><text fill="#FFFFFF" style="font-size:3px; font-family:Arial" x="120" y="285">Number: 53</text><text fill="#FFFFFF" style="font-size:3px; font-family:Arial" x="120" y="290">Weekly: 2.1</text><text fill="#FFFFFF" style="font-size:3px; font-family:Arial" x="141" y="285">Total: 357.6 km</text><text fill="#FFFFFF" style="font-size:3px; font-family:Arial" x="141" y="290">Avg: 6.7 km</text><text fill="#FFFFFF" style="font-size:3px; font-family:Arial" x="167" y="285">Min: 5.0 km</text><text fill="#FFFFFF" style="font-size:3px; font-family:Arial" x="167" y="290">Max: 11.4 km</text><polyline fill="none" points="35.31899213226279,46.11832821347343 30.25654815256712,45.087192050530575 25.143909969134256,42.71214598309598 24.132855293311877,42.365602935933566 15.391893237771,40.66667438750301 13.979284931818256,40.6244120091942 12.301364405953791,40.77655646342464 11.333333333343035,40.53143469581846 12.2009759984212,40.827271215224755 14.911463001684751,40.649769438939984 15.743252664076863,40.751199075100885 24.118514092231635,42.39095979669946 24.828403545485344,42.60226664788206 28.62165122994338,44.41102975244576 30.600736978434725,45.222423803243146 35.16123892040923,46.135231970853056 35.333333333343035,46.08452068764018" stroke="#4DD2FF" stroke-linecap="round" stroke-linejoin="round" stroke-width="0.5"><title>2025-09-29 6.6km</title><desc>1759141711000</desc></polyline><polyline fill="none" points="64.25173745173379,53.864217038455536 64.09111969111837,54.62877387113258 63.56602316602948,54.53411492793384 60.08803088802961,53.85693550277938 55.318918918899726,51.67243899676396 54.05250965250889,51.30106749243714 46.664092664053896,49.88838056840905 44.30424710424268,50.00489195963746 43.77297297294717,49.94663628940907 42.94517374515999,49.516999153645884 42.6857142856752,49.24756428688124 42.33359073358588,48.66499870052212 42.0,47.674625552244834 42.302702702669194,47.325078584923176 44.989961389946984,45.16949856153951 46.47876447872841,43.51635462047852 48.28262548262137,41.92871534087317 50.50038610037882,40.46484937516652 51.33436293431441,40.32647232658928 51.61235521233175,40.173528939529206 52.32277992274612,39.43793918785377 53.02702702701208,37.915752502354735 53.66332046329626,37.30395478341234 57.84555984556209,35.11891720139829 61.44710424708319,33.713171917246655 62.40463320465642,33.48737587632786 64.64710424712393,32.67159027265734 66.0,32.03789279553166 62.67027027028962,33.31984928834572 61.34826254827203,33.66946951725549 60.11274131273967,34.12834329126781 59.939768339769216,34.521661160593794 60.069498069467954,34.84214067552966 60.44633204632555,35.00237985658168 60.81081081079901,35.65061625788803 62.0957528957224,38.45471251872368 64.1034749034734,42.24915933423472 64.1034749034734,42.445794660408865 64.5606177606096,43.261460947258456 65.38223938221927,45.249605819590215 65.60463320463896,46.08708504169044 65.90733590730815,46.15990882598271" stroke="#4DD2FF" stroke-linecap="round" stroke-linejoin="round" stroke-width="0.5"><title>2025-09-26 11.4km</title><desc>1758886655000</desc></polyline><polyline fill="none" points="96.66666666665697,47.460783730966796 92.1099598618166,46.53393656929984 87.02903015026823,44.18111765726644 86.20909175768611,43.927610741164244 78.02314944460522,42.35109477370861 76.68570895175799,42.3114833796717 75.17352748994017,42.43823976463318 74.44095958181424,42.32732793986361 73.42611780081643,41.57470751805522 73.06991505646147,41.03598495985352 72.71371231213561,40.132823482883396 72.74059553814004,39.792154398521234 73.41267618781421,39.205882935697446 72.74731634464115,39.752541610716435 72.66666666665697,39.998140547242656 73.37907215533778,41.582629878837906 73.74871651263675,41.95497986248665 74.38047232333338,42.30356109825516 75.16008587696706,42.46992882638733 77.14944459998515,42.31940566018602 78.03659105760744,42.366939325285784 85.75879772237386,43.86423387404648 87.01558853729512,44.196961810215726 92.0965182488435,46.57354566393769 93.82376551849302,46.93002654493466" stroke="#4DD2FF" stroke-linecap="round" stroke-linejoin="round" stroke-width="0.5"><title>2025-09-25 7.3km</title><desc>1758798919000</desc></polyline><polyline fill="none" points="127.33333333334303,44.48507578361023 126.88183421519352,46.073303010707605 122.2610229277343,45.17525188338914 116.87125220461166,42.688925604961696 115.51675485010492,42.273144077953475 107.19223985890858,40.68483779878443 105.76719576719915,40.65989031616482 104.25749559083488,40.80125927656627 103.33333333334303,40.59336365596391 104.12345679014106,40.834522523327905 105.92239858905668,40.70146944934095 107.42504409170942,40.77631183199264 115.86948853620561,42.372931850957684 116.63139329809928,42.60576948070957 122.19047619050252,45.183567220046825 126.2610229277343,45.981835323436826" stroke="#4DD2FF" stroke-linecap="round" stroke-linejoin="round" stroke-width="0.5"><title>2025-09-23 6.7km</title><desc>1758623965000</desc></polyline><polyline fill="none" points="158.0,46.14652826832025 153.1153727188066,45.192782815407554 147.56263532320736,42.637739206555125 146.32291988865472,42.243975259894796 137.45190225797705,40.520141486034845 136.06371790904086,40.476388878480066 134.0,40.616397138815955 137.2143519950332,40.520141486034845 146.07052273431327,42.20897392681218 147.42901330033783,42.58523745850107 153.21930095885182,45.24528285954875 158.0,46.19027778819145" stroke="#4DD2FF" stroke-linecap="round" stroke-linejoin="round" stroke-width="0.5"><title>2025-09-22 6.4km</title><desc>1758538508000</desc></polyline><polyline fill="none" points="187.65058949624654,53.95448846195359 183.47052518758574,53.12826712166134 178.54448017149116,50.8921143020998 177.59914255092735,50.58132127454155 169.99142550912802,49.09555981999438 168.5123258306703,49.027335318045516 167.02679528403678,49.156203765567625 166.40300107182702,49.042496324262174 165.7984994641156,48.72411450018262 165.34833869239083,48.307183718439774 164.66666666665697,46.7304047210273 164.78242229370517,46.54088560944365 167.56055734190159,44.31968314646656 169.341907824215,42.371334556919464 171.2775991425442,40.657955692047835 173.60557341910317,39.14923759613157 174.49303322614287,39.027932207529375 174.83386923905346,38.762575932531036 175.55412647375488,37.89826561922382 176.17148981781793,36.51837952796632 176.84673097537598,35.89666366309393 179.7406216505915,34.29685704969597 183.3933547695924,32.71217820471065 183.39978563771,33.189860318161664 183.90782422292978,33.57655295956647 184.3965702036512,34.44091697262047 184.64094319398282,35.146048080408946 186.24222936760634,38.247023704621824 186.2808145766321,38.49721864533785 187.20042872455087,40.02111385315948 188.66666666665697,43.30381948284776" stroke="#4DD2FF" stroke-linecap="round" stroke-linejoin="round" stroke-width="0.5"><title>2025-09-21 9.0km</title><desc>1758451095000</desc></polyline><polyline fill="none" points="33.950155763246585,78.9426745185483 33.63862928349408,80.26457796423347 33.52647975081345,80.29395330206171 29.439252336451318,79.49347076997947 24.591900311526842,77.26822628668742 23.78816199375433,77.02586849275394 16.417445482860785,75.59373647334724 13.158878504647873,75.59373647334724 12.579439252323937,75.35137266060337 12.006230529601453,74.84460914607916 11.694704049819848,74.35253078415553 11.333333333343035,73.30226196895819 11.838006230507744,72.76610444766993 14.180685358238406,70.92257139315916 16.062305295927217,68.89536131041677 17.619937694689725,67.5365088296603 20.08722741433303,65.92054049104627 20.816199376946315,65.84708646419313 21.133956386271166,65.63406933362421 21.88161993768881,64.74526645507285 22.473520249215653,63.408367323740094 23.152647975075524,62.79867375015601 26.09345794393448,61.182591807730205 29.46417445485713,59.70604669794557 29.47663551403093,60.22027005963173 29.975077881652396,60.55084014858585 30.280373831803445,61.12382446137781 31.171339563879883,63.10719407918805 33.2211838006333,66.98561488489213 34.934579439257504,70.8858471150088 35.264797507814365,72.16384022927377 35.333333333343035,73.00847755385621 35.20872274143039,74.30111940481584 34.85981308412738,75.54232604042045" stroke="#4DD2FF" stroke-linecap="round" stroke-linejoin="round" stroke-width="0.5"><title>2025-09-18 10.1km</title><desc>1758194958000</desc></polyline><polyline fill="none" points="57.20491507049883,71.34957202608348 57.13552584027639,71.54381854474195 57.66461872064974,71.69717077555106 66.0,73.32268902235955 50.61293820024002,70.26587354624644 44.10769786773017,67.23963041550451 42.0,66.67731097764045 44.06432959885569,67.27030228796502 50.71702204554458,70.30676805562689 55.79110950490576,71.32912500073871" stroke="#4DD2FF" stroke-linecap="round" stroke-linejoin="round" stroke-width="0.5"><title>2025-09-16 5.4km</title><desc>1758020593000</desc></polyline><polyline fill="none" points="96.65934065933106,72.78058591976878 91.78021978022298,71.80481888265058 86.17582417582162,69.22286410807283 85.0476190476038,68.90335215274536 76.13186813186621,67.19350953654066 72.66666666665697,67.26259480156295 73.12087912089191,67.34031565272016 75.0036630036484,67.18487387416826 76.29304029303603,67.22805217655696 85.31868131866213,68.96380045926344 86.27106227105833,69.29194760477549 91.83882783883018,71.84799466916593 96.66666666665697,72.81512612582446" stroke="#4DD2FF" stroke-linecap="round" stroke-linejoin="round" stroke-width="0.5"><title>2025-09-15 6.5km</title><desc>1757932870000</desc></polyline><polyline fill="none" points="127.33333333334303,80.83944193231582 122.90556177677354,79.95245331471233 117.67151922357152,77.55277809563268 116.98618887644261,77.33894180769857 108.59425158638624,75.70742942717334 107.3243747667002,75.67574921280902 105.83949234787724,75.81039002854232 105.18775662558619,75.71534947862528 104.47555057855789,75.34310612858826 104.08585293017677,74.97086087284697 103.70287420682143,74.33724754417926 103.38036580811604,73.51354196194734 103.33333333334303,73.26801253106532 103.44755505784997,73.10960600658291 106.28966032099561,70.78099026833661 108.1843971631024,68.72160807779437 110.17319895484252,66.96316633940296 112.7331093691464,65.323499906277 113.56625606567832,65.220524451448 113.93579693912761,64.95912456468068 114.63456513624988,64.18284057165147 115.30645763344364,62.6619336114818 116.0052258305077,61.980683714667975 119.18999626726145,60.23792235666042 121.55505785738933,59.1605580676769" stroke="#4DD2FF" stroke-linecap="round" stroke-linejoin="round" stroke-width="0.5"><title>2025-09-13 7.0km</title><desc>1757768754000</desc></polyline><polyline fill="none" points="158.0,72.92395019804098 152.694489729387,71.88168917612347 146.856863384397,69.18835351079179 145.9021845451498,68.87474036595813 136.3162699706736,67.01148538175039 134.0,67.02070951731002 136.4414737529005,67.0852784380113 145.6204760352557,68.85629249775957 146.7394848386466,69.18835351079179 152.74144114769297,71.93703079175611 157.96869905444328,72.98851461824961" stroke="#4DD2FF" stroke-linecap="round" stroke-linejoin="round" stroke-width="0.5"><title>2025-09-11 6.0km</title><desc>1757587445000</desc></polyline><polyline fill="none" points="186.37371177561,80.05590493766067 182.29261699609924,79.25298432889394 177.76752829866018,77.15244034146599 176.72748775131186,76.84416374033754 169.5262713296106,75.45331647229614 168.27335698597017,75.41030010885879 166.86230782224447,75.5250103488579 166.16286534888786,75.39596131481812 165.29920594693976,74.72203447053471 164.94036154754576,74.08394843902352 164.66666666665697,73.18774974661937 167.34887649939628,70.95795444479154 168.16996114206268,70.17643274483271 169.13093427944114,69.04356829785684 170.90082784253173,67.48764040198876 172.20848116234993,66.72041817220452 173.0903868896712,66.06791372224689 173.87497888156213,65.93884614136914 174.227741172479,65.73090339522605 174.92718364586472,64.92780799824686 175.52323027537204,63.565391599848226 176.1922622064303,62.97739264885604 178.94137523230165,61.45000496353896 182.35952018923126,59.94409506233933 182.35343808072503,60.453239886388474 182.85825308327912,60.761593286297284 183.20493326574797,61.392637598917645 183.88004730528337,62.97022189751442 186.58050346339587,68.19749225456326 186.72647406652686,68.69940308434889 186.90893732046243,68.90016634431231 187.7056935292785,70.85040613774618 187.90640310858726,71.62475002557767 188.19834431487834,71.70361787325237 188.28349383338355,73.1088836774943 187.96722419324215,75.20238728931145 188.20442642335547,75.37445311785996 188.6545024497027,75.46048586345569 188.66666666665697,75.5895347710175" stroke="#4DD2FF" stroke-linecap="round" stroke-linejoin="round" stroke-width="0.5"><title>2025-09-09 10.0km</title><desc>1757415422000</desc></polyline><polyline fill="none" points="35.30027548215003,99.82292607746058 29.597796143294545,98.66371604515007 23.53994490354671,95.84842913533794 22.43250688709668,95.49772974962252 12.341597796155838,93.52989102407446 11.333333333343035,93.51040725587518 14.515151515137404,93.94879101379047 22.60606060604914,95.5659214045445 29.887052341597155,98.77087054381991 35.333333333343035,99.82292607746058" stroke="#4DD2FF" stroke-linecap="round" stroke-linejoin="round" stroke-width="0.5"><title>2025-09-08 5.7km</title><desc>1757333196000</desc></polyline><polyline fill="none" points="66.0,99.76688056016428 60.616438356169965,98.74965318283648 54.33698630137951,95.85291340314143 53.42465753425495,95.5428888419774 43.54520547945867,93.61489934820565 42.0,93.50832584575983 43.16712328765425,93.58583386019745 53.18630136988941,95.52351227102918 54.43561643833527,95.93041937458474 60.550684931484284,98.75934111747483 65.9260273972468,99.82500748756866" stroke="#4DD2FF" stroke-linecap="round" stroke-linejoin="round" stroke-width="0.5"><title>2025-09-04 5.8km</title><desc>1756983645000</desc></polyline><polyline fill="none" points="96.66666666665697,99.463310474428 91.94310897431569,98.51979006047623 86.29647435896914,95.94417627344956 83.2387820512522,95.23012968056719 76.57532051281305,93.9635309617006 75.21233974356437,93.93802876297559 73.56089743587654,94.07404039327957 72.66666666665697,93.87002285890776 73.07772435896914,94.05703895244369 73.64743589740829,94.13354540698492 75.21233974356437,93.98053242289461 76.6618589743739,94.02303605967609 85.70512820512522,95.7826663063097 86.67147435896914,96.13118739684433 91.9575320512813,98.57929168477858 94.92147435894003,99.11480426246271" stroke="#4DD2FF" stroke-linecap="round" stroke-linejoin="round" stroke-width="0.5"><title>2025-09-02 6.2km</title><desc>1756809719000</desc></polyline><polyline fill="none" points="127.33333333334303,99.77566786511306 121.91692627206794,98.71814936970623 114.5981308411283,95.47697353920375 104.68743509866181,93.55767234695668 103.33333333334303,93.45974771815236 104.6375908619084,93.57725725994533 114.091381100734,95.40842777360376 115.37071651092265,95.790324945061 122.04984423678252,98.84544392114185 127.3250259605411,99.87358561517613" stroke="#4DD2FF" stroke-linecap="round" stroke-linejoin="round" stroke-width="0.5"><title>2025-08-29 5.7km</title><desc>1756465472000</desc></polyline><polyline fill="none" points="158.0,99.6567591936182 152.80013170893653,98.63214680185047 146.6598617056734,95.81905694387387 145.70365492263227,95.53029082808644 136.06256173859583,93.65794493709836 134.0,93.65794493709836 136.16529469875968,93.74178219694295 145.96443859074498,95.63275633562444 152.68159367798944,98.64146151523164 157.87355943367584,99.67538839624467" stroke="#4DD2FF" stroke-linecap="round" stroke-linejoin="round" stroke-width="0.5"><title>2025-08-27 6.0km</title><desc>1756291993000</desc></polyline><polyline fill="none" points="187.58264142589178,99.66848775887047 183.54145909441286,98.92627664133761 181.7878888519772,98.4753098058427 176.25617181445705,95.88220475221897 175.11635115681565,95.51578144836822 166.1253182773944,93.75880705937743 164.66666666665697,93.59908034036198 167.065869589278,93.94672046778578 175.1004096091783,95.52517693716072 176.08081479018438,95.83522749254189 181.33355474367272,98.33438218628726 182.64873242552858,98.79474489116546 187.5746706520149,99.73425299297378 187.7659692239249,99.00143755137833 188.66666666665697,99.15175917508896 188.22030333222938,99.04841308694449 188.25218642750406,98.82293028307322" stroke="#4DD2FF" stroke-linecap="round" stroke-linejoin="round" stroke-width="0.5"><title>2025-08-26 6.0km</title><desc>1756205162000</desc></polyline><polyline fill="none" points="35.333333333343035,127.8151835373792 30.75328303995775,126.91412085110642 25.77088572230423,124.62189341631893 24.73819502655533,124.29781404101959 16.503492595715215,122.70901372558728 13.754121262929402,122.82758211437613 13.023190835432615,122.6615863158222 12.319083542912267,122.23473823317909 11.956971221021377,121.7999829754699 11.36015646829037,120.31389078954817 11.796032411279157,119.83169476393232 13.01648505171761,118.85148312928504 11.56803576418315,120.00560189668613 11.333333333343035,120.32970044105605 11.715563006466255,121.42846278221259 12.030734842148377,121.95017144988378 13.13718915899517,122.73272741882101 13.827884884056402,122.87500941562757 15.329980441485532,122.74063198153453 16.570550433069002,122.76434566445823 24.865604917577002,124.36104915472242 25.777591506019235,124.66931954496977 30.672813635115745,126.91412085110642" stroke="#4DD2FF" stroke-linecap="round" stroke-linejoin="round" stroke-width="0.5"><title>2025-08-23 7.3km</title><desc>1755948655000</desc></polyline><polyline fill="none" points="66.0,125.40733551089943 65.63692785106832,126.65826722128986 59.501939487992786,125.4512281145071 51.989138867356814,122.02754761239339 44.681148176896386,120.44734814138792 42.0,120.0083994453671 51.5143522110302,121.92878587158339 59.231962761841714,125.40733551089943 64.24980605120072,126.42783359942405" stroke="#4DD2FF" stroke-linecap="round" stroke-linejoin="round" stroke-width="0.5"><title>2025-08-19 5.0km</title><desc>1755607675000</desc></polyline><polyline fill="none" points="95.97517441332457,129.58133144514431 91.61746851500357,128.72013990202686 86.5617468514829,126.38256704851665 85.70716680257465,126.13650224594312 77.7289118419576,124.60626750437223 74.74766693846323,124.69085421040654 73.76261665308266,124.22947094620758 73.08417142339749,123.40666330792737 72.70580773762777,122.17627885333786 75.53048835735535,119.87694041685609 78.19208118147799,117.08533522151993 77.40925976258586,117.78516948388278 75.60877049920964,119.73851631466823 72.66666666665697,122.18396882278466 72.81018392680562,122.76840404899121 73.35815892001847,123.83729280077387 73.82132825950976,124.267919666745 74.62372021382907,124.660095419953 75.06731901786407,124.72930267964693 76.60686780829565,124.59088809238165 77.89199963762076,124.60626750437223 81.1276615022507,125.22144123652834 81.40817251065164,125.12147586984065 82.69330433994764,125.35985458752111 83.07819153755554,125.52902609242301 85.02872157288948,125.82123046428023 86.28775935489102,126.228776647411 86.94011053728173,126.21339758887189 86.9270635136345,126.3902565597964 87.34456827037502,126.37487753640744 87.03143970281235,126.58249406916002 87.50765606595087,126.87469408089237 91.33043399473536,128.5971116812725 92.06106731900945,128.80472167945845 92.28939023282146,128.6970721269754 93.53538099120487,128.78934318199754 93.53538099120487,129.0815340607951 95.64899882217287,129.50443977012037 96.02083899610443,129.5428856180879 96.12521518528229,129.01233106719883 96.47748482375755,128.95081723816838 96.66666666665697,128.31260809968808" stroke="#4DD2FF" stroke-linecap="round" stroke-linejoin="round" stroke-width="0.5"><title>2025-08-16 10.0km</title><desc>1755297330000</desc></polyline><polyline fill="none" points="117.77668308699504,122.49726038291556 117.34318555006757,124.70368727054301 127.33333333331393,126.66620756118209 110.76190476189367,123.3798366164192 103.33333333331393,120.00045910548943 110.5353037766763,123.36822381867387 116.7914614121546,124.62239866889286" stroke="#4DD2FF" stroke-linecap="round" stroke-linejoin="round" stroke-width="0.5"><title>2025-08-13 5.0km</title><desc>1755095249000</desc></polyline><polyline fill="none" points="157.86562150059035,127.80021298132488 153.46472564392025,126.92114289978053 148.4591265397612,124.61650331909914 147.5251959686575,124.3155484287563 139.30123180293594,122.73155479114939 136.3852183650888,122.82659538248117 135.74020156779443,122.69195450809639 135.07502799553913,122.29595049130876 134.72564389702165,121.94746517243766 134.40313549834536,121.40889366708143 134.02015677493182,120.33173868797894 134.85330347149284,119.50802117127023 135.8208286674344,118.77141971838864 135.08846584550338,119.28624947605567 134.0,120.33965900342446 134.7122060470574,121.95538531188504 135.26987681974424,122.4781126069065 135.73348264282686,122.71571468051116 136.3852183650888,122.85827555198921 138.6696528555476,122.72363473625592 139.49608062711195,122.7790751023349 147.90817469207104,124.46602602961502 153.33706606944907,126.92114289978053 158.0,127.8952469482756" stroke="#4DD2FF" stroke-linecap="round" stroke-linejoin="round" stroke-width="0.5"><title>2025-08-12 8.1km</title><desc>1754996616000</desc></polyline><polyline fill="none" points="188.66666666665697,126.11688367096212 183.82742960940232,125.1490929311476 178.36330608534627,122.63106829932804 177.46230699363514,122.33129809160891 172.32515894639073,121.25211588175443 168.45231607629103,120.58404328202596 167.0862851952843,120.54978299570212 165.35694822887308,120.69538910947449 164.66666666665697,120.5754782118529 165.29881925522932,120.69538910947449 167.01362397821504,120.56691314071941 168.46684831971652,120.59260835128953 177.38237965482404,122.33986297054798 178.42143505901913,122.7081518823179 183.6021798364818,125.09770547923836 188.25249772929237,126.05693237823289" stroke="#4DD2FF" stroke-linecap="round" stroke-linejoin="round" stroke-width="0.5"><title>2025-08-10 6.4km</title><desc>1754781124000</desc></polyline><polyline fill="none" points="32.95336874949862,160.0416748744683 28.958428198006004,159.24017625767738 24.429209882800933,157.150508894214 23.567079854983604,156.8642479156697 16.105405177513603,155.4042975252596 15.437557972880313,155.3613573168186 13.349017623753753,155.48302116789273 12.893667256954359,155.3756707227585 12.256176743423566,155.0106778972622 11.81296905304771,154.50970405101543 11.394046715577133,153.52921561186668 11.333333333343035,153.15705558484478 13.986508137313649,150.98130862055405 15.820052280992968,149.00589698937983 17.55038367488305,147.49566904278618 19.729994097346207,146.0712990182874 19.972847626311705,145.95677546362276 20.586052786937216,145.93530227488372 20.822834977676393,145.77783200967679 21.490682182309683,145.04057983712846 22.176743401651038,143.56605066322663 22.796019900531974,142.97909294488636 25.57062146894168,141.4830428386631 29.000927565561142,139.95832512552442 29.000927565561142,140.48088494904368 29.608061387989437,140.87459165827022 29.790201534720836,141.10365629375883 29.887342946312856,141.4758846222394 32.03052533941809,145.29110334833967 32.91086938191438,147.22368117285805 33.4633611603349,147.98953887465177 33.46943249856122,148.21142121338926 33.718357365753036,148.59076670155628 34.16763639432611,149.90056541394733 34.51370267308084,150.5160902145144 34.8051269078569,151.79006508422754 34.90226831941982,153.078329155127 34.62905809935182,154.92479693775385 34.701914158067666,155.03214811958605 35.333333333343035,155.22537980488414 35.260477274656296,155.7979147951628" stroke="#4DD2FF" stroke-linecap="round" stroke-linejoin="round" stroke-width="0.5"><title>2025-08-08 10.0km</title><desc>1754654808000</desc></polyline><polyline fill="none" points="66.0,153.36006079830258 59.59683794470038,152.05185197186802 52.254545454576146,148.66384906645544 44.67509881424485,147.03130609948857 42.0,146.6399392017047 52.08379446645267,148.66384906645544 59.78656126483111,152.16366534354165 65.83873517788015,153.32651719044225" stroke="#4DD2FF" stroke-linecap="round" stroke-linejoin="round" stroke-width="0.5"><title>2025-08-07 5.0km</title><desc>1754573743000</desc></polyline><polyline fill="none" points="96.66666666668607,153.3720225925499 90.32205612381222,152.10337481449824 83.0710726462421,148.77588168843795 82.14581694203662,148.49765829085663 72.66666666668607,146.6279774074501 75.18751639127731,147.16217543664243 75.39522685547126,147.0731426257189 75.95226855494548,147.30685358891787 82.55179648566991,148.65346348685125 90.40702858642908,152.19240324261045 96.24180435348535,153.3608941717248" stroke="#4DD2FF" stroke-linecap="round" stroke-linejoin="round" stroke-width="0.5"><title>2025-08-04 5.0km</title><desc>1754309955000</desc></polyline><polyline fill="none" points="127.33333333334303,152.79290627380396 122.53624507130007,151.8319344715128 117.00394297848106,149.29216685529536 116.17409766456694,149.01759247901646 107.39520776466816,147.28431964103947 105.85198665456846,147.20709372618876 103.9739156809519,147.35296483512502 103.33333333334303,147.215674387131 103.47164088572026,147.3186422455692 104.35244161362061,147.37870676750026 106.89293296940741,147.24141636436252 110.37973915686598,147.9278659873671 110.94024871100555,147.93644656980905 111.90840157720959,148.22818581654428 116.07946618139977,149.02617294277297 117.23688201396726,149.4380341034339 122.44889293299639,151.82335431336105 126.83833788294578,152.70710569656512" stroke="#4DD2FF" stroke-linecap="round" stroke-linejoin="round" stroke-width="0.5"><title>2025-08-03 6.5km</title><desc>1754227262000</desc></polyline><polyline fill="none" points="155.22015073383227,152.81098562095576 148.85124950419413,151.54299123066448 140.82586275285576,147.97456928804604 134.0,146.58307566694566 141.41610472038155,148.13167222587072 149.09877032926306,151.64398250620434 158.0,153.41692433304706 155.42007140023634,152.83342785901186 155.42007140023634,152.66511095443275" stroke="#4DD2FF" stroke-linecap="round" stroke-linejoin="round" stroke-width="0.5"><title>2025-08-01 5.0km</title><desc>1754057984000</desc></polyline><polyline fill="none" points="186.370539104013,160.01811106073 182.2763857251266,159.20904673227778 177.76917236141162,157.13264138634258 176.80334092632984,156.8247550106098 169.5140470766637,155.41418736448395 168.18375094913063,155.3712254383645 166.85952923310106,155.48579051227716 166.22779043280752,155.3712254383645 165.70539104021736,155.07765152508364 165.32270311311004,154.7124723885354 164.88534548215102,153.88186130738904 164.66666666665697,153.15864828370832 167.34548215640825,150.93883584245486 169.2042520880641,148.9552625880242 170.90508731966838,147.46575306142768 172.18678815488238,146.72814690308587 173.18906605921802,145.99053246541007 173.89977220955188,145.91891897226014 174.1548974942998,145.76136901260907 174.93242217160878,144.86619161674025 175.53986332571367,143.5198218489968 176.13515565678244,142.98269855180843 178.9779802581761,141.42143523709092 182.30675778281875,139.98188893926272 182.36142748669954,140.44741731230897 182.84738041000674,140.78402808096143 183.35155656794086,141.68642290913704 183.66135155654047,142.5529967526163 184.42672741078422,144.13571782580402 186.4191343963612,147.8667781781478 186.68640850417432,148.66882107016863 187.47608200454852,150.32300362271053 188.0106302201748,152.1633222991004 188.04707668942865,153.30901996367902 187.97418375092093,153.72433043552883 188.16249050872284,153.86037984710129 187.98633257401525,154.9416046329061 188.66666666665697,155.19937745310745 188.64236902046832,155.55023327862727" stroke="#4DD2FF" stroke-linecap="round" stroke-linejoin="round" stroke-width="0.5"><title>2025-07-28 10.0km</title><desc>1753704756000</desc></polyline><polyline fill="none" points="32.97679409792181,179.60944468951493 26.602548625087366,178.3344651997104 19.30114017438609,174.98757004756044 18.113212608965114,174.5891230100533 11.33333333331393,173.23439172089275 18.856874580786098,174.85095980582264 25.144198524474632,177.8108084041669 26.776391683437396,178.4255356789945 35.33333333331393,180.09894161243574 33.07337357476354,179.58667733500624 33.18926894699689,178.84673561358068" stroke="#4DD2FF" stroke-linecap="round" stroke-linejoin="round" stroke-width="0.5"><title>2025-07-22 5.0km</title><desc>1753194638000</desc></polyline><polyline fill="none" points="55.65124555159127,177.93350514910708 63.601423487532884,179.51065981560532 66.0,179.65327327344858 63.90747330960585,179.53582691558404 50.80427046265686,176.96874036761437 45.08896797153284,174.37639949520235 42.0,173.68006005988718 45.05338078294881,174.39317868104263 50.412811387883266,176.86806856382464 52.619217081868555,177.33786918930127" stroke="#4DD2FF" stroke-linecap="round" stroke-linejoin="round" stroke-width="0.5"><title>2025-07-19 6.4km</title><desc>1752877000000</desc></polyline><polyline fill="none" points="94.46875264990376,186.7501443924557 90.38429576868657,185.93696373570128 85.74425506658736,183.8140113169211 84.95056389385718,183.56213107989606 77.41049775292049,182.10840352034575 74.79742219962645,182.1947644670072 74.22962774525513,182.08681326605438 73.6984651912062,181.7773521790732 73.17951327058836,181.23039415485255 72.72771983381244,180.2156310901555 72.66666666665697,179.84858529212943 75.33469007039093,177.63907044104417 77.09912660054397,175.72457761919213 78.83914186383481,174.20589911034767 80.96379208005965,172.78795447946322 81.33621639956255,172.6080100907493 81.90401085393387,172.57921894305764 82.3069617569854,172.32729586539062 82.96633596200263,171.54272926716658 83.55855168323615,170.19670797889557 84.18739930470474,169.6136635044386 87.27668956163689,167.9292838839101 90.43313830241095,166.58318894088734 90.4392436190974,167.10147473450343 90.9276689561666,167.42540128972905 91.25125074194511,168.02286165663827 91.916730263707,169.54888046730048 93.96811667940347,173.4069594327084 94.50538455016795,174.69533486010187 94.65191215128289,174.8320883184133 95.57381497501046,177.1928402312842 95.78139574325178,177.4879282882248 96.11108284577494,178.7186471905079 96.17213601293042,179.53191669052467 96.07445094551076,180.76979441181174 95.77529042653623,181.92848451891768 96.66666666665697,182.129993767594" stroke="#4DD2FF" stroke-linecap="round" stroke-linejoin="round" stroke-width="0.5"><title>2025-07-17 10.0km</title><desc>1752756134000</desc></polyline><polyline fill="none" points="127.33333333331393,180.05334406559996 120.97063084418187,178.7791827457404 112.90109311207198,175.19132772903686 103.33333333331393,173.27998926772852 113.32780192286009,175.37016459424194 120.79046490188921,178.76800582204305 127.03937837475678,180.04216728068423" stroke="#4DD2FF" stroke-linecap="round" stroke-linejoin="round" stroke-width="0.5"><title>2025-07-14 5.0km</title><desc>1752500928000</desc></polyline><polyline fill="none" points="158.0,180.0286564521739 151.63878029712941,178.7790031442346 145.06176700547803,175.72668793326739 143.5043002346065,175.16266312260268 134.0,173.30467688116187 144.12353401095606,175.3285530980138 151.7513682564604,178.8232389220866 157.32447224401403,179.94018592732755" stroke="#4DD2FF" stroke-linecap="round" stroke-linejoin="round" stroke-width="0.5"><title>2025-06-21 5.0km</title><desc>1750468889000</desc></polyline><polyline fill="none" points="181.08713946904754,178.14057821837923 187.32813097693725,179.38715095243242 188.66666666665697,179.4585683926416 187.51541580594494,179.38715095243242 177.3139010021987,177.3939206105315 176.21773391476017,176.96539984707124 172.94024940705276,175.40711656021813 172.36186978805927,175.21882123812975 165.67469971691025,173.9202166149007 164.66666666665697,173.87476494069415 165.55902379311738,173.89424423389937 168.1644862672838,174.37473145092008 172.85211536989664,175.38763776135602 176.33891821585712,177.03682018822292 177.23127534234663,177.3809351781092 178.20074975132593,177.57571636754074" stroke="#4DD2FF" stroke-linecap="round" stroke-linejoin="round" stroke-width="0.5"><title>2025-06-17 8.1km</title><desc>1750165544000</desc></polyline><polyline fill="none" points="35.33333333331393,206.680801388924 29.28228924976429,205.47749609308812 21.393658159300685,201.9550104574082 11.33333333331393,199.98586527774023 21.41221964423312,201.9987688007095 29.15235885535367,205.46655688792816 34.25676720798947,206.50577605987928" stroke="#4DD2FF" stroke-linecap="round" stroke-linejoin="round" stroke-width="0.5"><title>2025-06-15 5.0km</title><desc>1749939796000</desc></polyline><polyline fill="none" points="58.58395403277245,204.70900281169452 64.24813790168264,205.84076807159727 66.0,205.94912735985417 64.62098318792414,205.86484793178897 55.141519472235814,204.02270833731382 54.21706746116979,203.6735377030127 51.127048308146186,202.20458880897058 50.43753990213736,201.97581456639818 44.2064268993563,200.77172399906704 43.45052138756728,200.71753930681007 42.0,200.83192915041218 44.05831027880777,200.75968296094288 50.171951479045674,201.93969223102977 50.912534581817454,202.14438515271468 52.67971908918116,202.98121009585157" stroke="#4DD2FF" stroke-linecap="round" stroke-linejoin="round" stroke-width="0.5"><title>2025-06-11 8.1km</title><desc>1749642919000</desc></polyline><polyline fill="none" points="96.66666666668607,206.673432947151 90.43169187026797,205.46686160359968 82.59609667828772,201.9677229675508 72.66666666668607,199.99323371951323 82.70776786870556,202.0116000667258 90.49683339794865,205.5217060691357 95.63370815565577,206.55277646321338" stroke="#4DD2FF" stroke-linecap="round" stroke-linejoin="round" stroke-width="0.5"><title>2025-06-08 5.0km</title><desc>1749387304000</desc></polyline><polyline fill="none" points="112.63123543106485,209.78341987001477 115.21585081575904,208.24017707206076 120.65361305361148,207.2509154190193 123.40606060612481,205.1932425489067 126.39347319351509,205.27238402859075 127.19906759902369,204.59968090051552 121.8955710955197,195.9731421022443 118.30396270391066,196.68543288393994 114.88018648023717,198.70358251139987 112.96689976693597,198.70358251139987 109.91235431237146,200.12815196652082 104.91095571091864,201.15700420853682 105.0787878788542,204.4018268021464 103.33333333337214,206.5782159556693 104.81025641015731,208.20060665762867 105.44801864819601,210.21869229417644 106.38787878793664,210.81224475888303 112.22843822836876,209.58556859579403 115.31655011663679,208.20060665762867 119.81445221439935,207.6070499245834 123.57389277394395,205.1932425489067 126.22564102557953,205.31195476214634 127.29976689978503,204.4018268021464 121.8955710955197,195.85442683612928 117.90116550109815,196.72500455300906 114.94731934729498,198.66401105790283 112.26200466195587,198.94101114204386 108.972494172398,200.40515093383146 105.01165501167998,201.07786183184362 105.1123543123249,204.59968090051552 103.33333333337214,206.5782159556693 104.91095571091864,208.2797474822146 105.71655011642724,210.33740286459215 106.85780885780696,210.89138501425623 116.05501165485475,208.0818953886337 119.91515151504427,207.6466204035969 123.23822843818925,205.3910962161317 126.32634032634087,205.35152549130726 127.33333333337214,204.36225596946315 121.52634032641072,195.73571153118974 117.56550116545986,196.962434477231 114.81305361317936,198.66401105790283 105.1794871793827,200.88000581471715 105.14592074602842,204.4018268021464 103.36689976684283,206.4990747605334 104.87738927733153,208.20060665762867 105.44801864819601,210.0999816847907 107.15990675985813,210.93095513549633 120.72074592066929,206.8156394380203 122.39906759897713,204.56011008951464 121.8955710955197,202.30456673217122 119.68018648028374,199.53458203937043 117.80046620045323,198.58486813801574 116.1892773892032,198.50572520069545 114.34312354307622,199.2575824080268 111.35571095580235,202.85856113530463 106.5892773893429,203.6499802452454 103.73613053618465,205.9055152463843 103.63543123542331,206.85521000323934 105.24662004655693,208.79416242073057" stroke="#4DD2FF" stroke-linecap="round" stroke-linejoin="round" stroke-width="0.5"><title>2025-06-04 6.4km</title><desc>1749041988000</desc></polyline><polyline fill="none" points="158.0,206.69537120411405 151.84877859632252,205.46686233356013 144.84141139977146,202.2309860058158 143.78053509112215,201.87996944179758 134.0,199.97129546255746 144.05971306707943,201.98966224945616 151.70918960834388,205.4449245389842 156.81814656843198,206.49793328901433" stroke="#4DD2FF" stroke-linecap="round" stroke-linejoin="round" stroke-width="0.5"><title>2025-05-28 5.0km</title><desc>1748436903000</desc></polyline><polyline fill="none" points="188.66666666668607,206.68486236030003 182.0021097046556,205.319667448377 174.2837552742567,201.82826680329163 164.66666666668607,199.9706142590876 173.9704641350545,201.7611233204807 175.1286919831764,202.13041193292156 182.5622362869908,205.53228096312523 188.55274261609884,206.69605240757664" stroke="#4DD2FF" stroke-linecap="round" stroke-linejoin="round" stroke-width="0.5"><title>2025-05-27 5.0km</title><desc>1748351986000</desc></polyline><polyline fill="none" points="29.106457826972473,234.95087601617706 29.138530740805436,233.51406546041108 29.892244216345716,231.8078325026363 30.389374381047674,228.64226262503507 30.35730146721471,228.93412687181262 29.635660905507393,229.02393112489517 26.123676838586107,231.51597464430233 24.792650913703255,231.83028308028588 24.263447835110128,230.95470770841348 24.87283319828566,229.9668720735499 25.99538518319605,229.0912842744001 25.81898415699834,227.58705570399616 26.348187235591467,226.6216461980439 25.64258313080063,226.21751918065274 23.060713565617334,226.2624222440718 22.38718237465946,225.27455130244925 22.61169277166482,224.10705787855113 23.108822936424986,224.26422105958045 23.060713565617334,223.50085527497868 23.798390584241133,223.94989450936555 25.145452966098674,223.90499065503536 26.21989558020141,224.62345048115094 27.67921316047432,224.66835408980842 28.27256206679158,224.37648035945313 29.73187964706449,222.33334607743745 29.79602547478862,218.92056735008373 29.266822396195494,218.31434079655446 28.4329266360146,218.0 27.406593392719515,218.29188790749322 26.492515347898006,219.30226411425247 25.78691124310717,219.5492437820285 24.343630119750742,219.27981139410986 22.820166711695492,218.44905805040617 21.424994959146716,218.92056735008373 20.71939085429767,219.9982965329982 20.75146376818884,221.1433740954526 21.360849131364375,221.9965626486155 22.73998442705488,222.64767649815622 23.060713565617334,223.4334992573713 22.43529174546711,224.89287190231698 22.884312539419625,226.23997071432677 22.9965677378932,228.1034346186716 22.40321883157594,230.12402823995944 22.868276082444936,230.6852987269158 24.231374921277165,231.0220598673841 24.760577999812085,231.83028308028588 23.54180727340281,233.80591887710762 22.03438032226404,234.41207390037744 19.516656584804878,236.25297200075875 17.68850049516186,237.03871333022107 17.271552615100518,238.11629379277292 16.245219371747226,239.238764037058 17.12722450279398,241.75306256276235 17.929047349025495,241.9326534722859 18.98745350621175,241.28163525665877 20.222260689595714,241.79796031324076 21.12030227750074,241.68571590841748 21.82590638223337,240.94490043028782 22.339073003968224,239.08161878050305 23.55784373031929,238.40813697942212 26.348187235591467,239.283662647249 27.406593392719515,238.76732770322997 29.058348456164822,238.67753011445893 29.154567197721917,233.69366763984726 30.421447294938844,229.24844148884586 30.229009811824653,228.93412687181262 29.74791610398097,228.9790290060555 26.139713295502588,231.53842527180677 24.8407602844527,231.8078325026363 23.413515617954545,233.87326957348705 21.890052209957503,234.47942428578244 19.500620127888396,236.25297200075875 17.784719236777164,236.9264648567696 17.271552615100518,238.18364227808343 16.245219371747226,239.32856124201498 17.047042218095157,241.64081811962387 17.576245296688285,242.0 18.891234764654655,241.28163525665877 20.398661715735216,241.8204091826483 21.408958502172027,241.41632894544455" stroke="#4DD2FF" stroke-linecap="round" stroke-linejoin="round" stroke-width="0.5"><title>2025-05-23 6.4km</title><desc>1747958832000</desc></polyline><polyline fill="none" points="56.18051571119577,231.1208088450221 56.830031029414386,231.73785426844552 58.45381932496093,231.99766226801148 59.265713472734205,233.03689071182453 59.05694069189485,237.1287974298175 58.662592105800286,237.87572326746886 57.24757659120951,238.2978974415164 55.85575805220287,237.81077331131382 54.55672741564922,238.10304793930845 52.35301472886931,236.80404614938016 51.03078711673152,237.3236479315674 50.05651413940359,237.1612725273735 50.3348778472282,236.21949244510324 49.63896857772488,234.4008694140066 49.847741358564235,233.101842300719 49.10543813777622,231.8677583125973 49.43019579688553,229.91918831931252 54.115984878269956,229.72433022032783 55.71657619823236,230.30890391743742 56.551667321589775,231.64042617690575 58.33783444669098,231.9651862874598 59.12653161876369,232.71213243396778 59.05694069189485,237.22622270566353 58.708986057084985,237.87572326746886 57.34036449366249,238.26542253840307 56.01813688164111,237.84324829216348 54.51033346436452,238.0705730028858 52.30662077758461,236.83652130237897 49.499786723870784,237.42107310744177 47.99198330647778,238.65512100957858 48.47911979514174,239.01234390577883 48.85027140553575,240.9608206023986 51.123575019300915,242.0 52.09784799662884,241.31803916160425 52.74736331496388,239.98658475287084 52.654575412278064,238.94739433824725 51.448332678410225,237.03137210392742 52.654575412278064,236.83652130237897 54.53353044006508,238.0705730028858 56.01813688164111,237.648398323523 55.8325610763859,237.1612725273735 54.324757659225725,237.19374761929794 53.512863511336036,236.15454192244215 54.27836370782461,233.101842300719 52.283423801884055,230.04909360756574 52.42260565573815,227.61335466556193 52.95613609580323,226.57409654182266 54.02319697558414,225.95703433992458 56.04133385734167,226.60657344435458 57.68831912847236,226.18437327918946 55.8325610763859,228.00307499575138 53.9072120974306,227.90564498821914 52.74736331496388,227.02877267089207 50.961196189862676,226.63905034121126 51.007590141147375,222.6768279231037 51.79628731322009,221.02046453996445 51.84268126450479,218.5521315150254 52.329817753168754,218.0649567320943 53.8144241948612,218.0 58.082667714566924,218.61708805835224 58.96415278920904,219.3965648447338 59.265713472734205,221.02046453996445 60.00801669363864,221.83240918004594 59.52088020485826,222.48196239258687 59.822440888383426,222.90417078930477 58.361031422391534,223.78106215222215 58.198652592720464,225.82712625240674 56.04133385734167,227.93812166289717 54.34795463480987,228.00307499575138 52.677772387862206,226.93134216341423 51.05398409231566,226.73648099855927 50.98439316544682,222.90417078930477 51.98186311835889,219.59143354131083 53.02572702267207,219.20169594806794 53.04892399837263,218.22734846532694 57.80430400674231,218.51965323511104" stroke="#4DD2FF" stroke-linecap="round" stroke-linejoin="round" stroke-width="0.5"><title>2025-05-20 5.0km</title><desc>1747754393000</desc></polyline><polyline fill="none" points="93.48675034870394,231.67714654104202 95.72942817292642,231.95336911521736 96.66666666662786,230.96685895466362 91.11018131102901,222.60114477245952 87.2273361227708,223.54821645605261 84.21478382160421,225.32396918704035 82.3403068339685,225.40289132855833 77.78800557879731,227.13917408997077 74.13947001390625,227.65216513091582 74.44072524411604,231.00631941264146 72.66666666662786,233.29501862105099 74.13947001390625,234.59720309413387 74.67503486748319,236.4123615170829 75.4783821478486,237.20155799385975 76.98465829854831,237.43831660150317 84.51603905158117,234.99180352527765 89.00139470014255,234.3604426292004 92.88423988851719,231.79552767018322 95.72942817292642,231.87444840138778 96.59972106001806,231.1247007609345 91.24407252448145,222.64060614199843 89.77126917708665,222.68006750725908 84.34867503482383,225.24504702840932 81.87168758711778,225.52127450858825 78.75871687580366,226.94186964989058 73.87168758723419,227.84946918391506 74.57461645756848,230.45387260912685 72.66666666662786,233.25555841246387 74.07252440729644,234.43936280132039 74.50767085084226,236.09668244494242 75.51185495126992,237.16209821088705 76.98465829854831,237.3593970829388 85.15202231518924,234.67612321479828 89.5369595537195,234.12368200937635 92.71687587152701,231.87444840138778 95.76290097623132,231.87444840138778 96.59972106001806,231.04577986639924 91.24407252448145,222.68006750725908 90.07252440718003,222.56168339849683 87.05997210601345,223.54821645605261 84.44909344485495,225.24504702840932 82.30683403054718,225.32396918704035 78.29009762906935,227.02079143881565 74.3068340306636,227.7310867649212 74.50767085084226,230.8484775548277 72.73361227335408,233.17663798225112 74.07252440729644,234.5182829563273 75.00976290099788,236.84641979221487 77.11854951188434,237.31993731705006 83.91352859139442,235.03126354466076" stroke="#4DD2FF" stroke-linecap="round" stroke-linejoin="round" stroke-width="0.5"><title>2025-05-14 5.0km</title><desc>1747227249000</desc></polyline><polyline fill="none" points="111.83236533321906,241.73975474055624 112.32123924320331,241.2936190868204 113.03089491889114,238.65395927184727 115.15986194589641,238.98856629682996 116.3110811531078,234.3783673142898 116.09029938734602,231.42256937912316 113.8667116035358,225.8640433947876 113.96133236034075,224.6184625709866 115.50680472073145,223.7818733312015 117.80924313515425,223.39146361548046 119.29163499106653,222.36895774550794 120.50593470269814,222.48050413820602 120.96326836041408,221.9971359098563 118.51889881084207,218.09295771263714 117.90386389190098,218.0 116.21646039641928,218.61351996753365 115.15986194589641,219.3385861756251 114.24519463058095,219.3571775763703 112.38431974768173,220.1008319437824 110.47613448632183,220.37970149594184 110.60229549539508,221.82981581942295 109.70339830627199,222.9638709971041 109.86109956743894,223.37287265430496 110.39728385570925,223.726100569329 110.93346814409597,224.9716879073967 111.61158356745727,225.04605104292568 117.66731200000504,223.22414489241783 118.34542742348276,222.62923254826455 118.59774944151286,221.82981581942295 118.29811704502208,220.78870934784936 117.24151859461563,219.6546397122729 115.94836825219681,219.24562914167473 114.81291917111957,219.5616828505299 113.29898706299718,221.27208099971176 111.1384797837236,221.64390441543947 109.89263981970726,222.75936980078404 109.92418007197557,223.37287265430496 111.61158356745727,224.6742350411805 113.53553895483492,224.46973589484696 117.62000162166078,223.22414489241783 118.50312868470792,222.40613988450787 118.55043906311039,221.51376631211315 117.90386389190098,220.3425189153204 116.37416165764444,219.3014033681102 114.24519463058095,219.37576897504914 112.24238861253252,220.17519720227574 110.44459423411172,220.52843173734436 110.58652536926093,221.9041803243017 109.71916843228973,223.0382350077416 110.41305398190161,223.726100569329 110.75999675662024,224.73000749306811 111.5642731890548,225.06464182178024 112.51048075663857,224.58128091414983 114.2609647566569,224.283827367326 113.85094147745986,225.04605104292568 113.89825185574591,225.6409549604723 115.8852877477184,230.62319384657894 116.35839153151028,232.92835963031393 116.18492014415096,235.51233909724397 115.39641383779235,238.46806619677227 113.3620675674756,238.17063685540052 112.55779113504104,240.884660379641 111.94275621615816,241.14490694299457 111.69043419812806,242.0 111.35926154948538,241.86987741990015" stroke="#4DD2FF" stroke-linecap="round" stroke-linejoin="round" stroke-width="0.5"><title>2025-05-06 7.1km</title><desc>1746539597000</desc></polyline><polyline fill="none" points="143.1705276572029,242.0 143.0079143041512,241.80831967691483 143.77219706348842,239.25895152606245 145.7072959645302,239.71899061497243 146.04878400597954,239.1247732319316 147.0569867947488,234.88852019769547 147.02446412411518,232.77993994964345 144.14620777545497,224.8054443464207 143.36566368083004,224.63291520687926 142.2598928802181,225.16967197447957 141.57691679743584,225.0354829360731 140.2922713084845,223.0418051668821 141.17038341489388,222.0832981977146 140.95898605592083,220.54967618494993 142.0972795271664,220.49216509937833 145.90243198821554,219.4186213849316 147.13829347124556,218.65180043524015 149.17096038418822,218.03834126892616 151.78903536812868,222.04495781027072 151.46380866202526,222.5625523350609 150.0328111553681,222.4283613081643 148.50424563675188,223.54022672718565 146.17887468839763,223.88528698022128 144.8129225228331,224.5370656117302 143.07295964541845,224.76710455230204 142.01597285061143,225.20801168087928 141.33299676788738,224.92046367884905 140.94272472063312,223.84694698550447 140.3247939790599,223.3868663974572 140.3247939790599,223.02263507868338 141.17038341489388,221.89159617719997 140.94272472063312,220.56884654260648 142.7314716039691,220.33880211265932 145.8536479822942,219.34193944037543 148.81321100750938,218.0 149.2685283960309,218.15336502558785 151.77277403278276,222.04495781027072 151.5288540032343,222.52421205212886 150.14664050238207,222.4283613081643 148.14649626001483,223.67441690598207 146.52036272967234,223.78943697777868 142.0972795271664,225.16967197447957 141.41430344438413,224.97797331688344 140.97524739120854,223.84694698550447 140.3247939790599,223.34852629419765 141.15412207954796,221.92993659796775 140.95898605592083,220.54967618494993 142.66642626281828,220.33880211265932 145.72355729987612,219.39945090196852 146.81306676520035,218.72848268062808 148.8457336780848,218.0 149.21974439010955,218.15336502558785 151.75651269749505,222.02578761347104 151.5125926679466,222.50504190742504 150.0328111553681,222.40919115312863 148.45546163088875,223.55939675901027 146.1626133530517,223.88528698022128 144.5202184873633,224.59457537510025 143.1705276572029,224.70959484533523 142.1298021977418,225.18884182872716 141.3655194384628,224.90129379536666 140.95898605592083,223.84694698550447 140.308532643714,223.36769634687516 140.2922713084845,223.0418051668821 140.94272472063312,222.40919115312863 140.1784419612959,223.11848549882416 140.8939407147118,223.9619669445674 141.2191674208152,224.84378413225932 141.91840483882697,225.26552122498106 145.96747732936637,224.00030691418215 148.3904162896215,223.71275693828647 149.95150447881315,222.52421205212886 151.398763320758,222.52421205212886 151.8215580387041,222.0832981977146 149.10591504303738,218.0 147.0407254594029,218.61345930006064 145.75607997045154,219.43779186584288 144.60152516391827,219.51447376866417 142.82903961581178,220.24295017808618 140.73132736160187,220.66469829964626 141.08907673839713,221.89159617719997 140.25974863785086,222.9076145055442 140.22722596721724,223.40603644600196 140.87767937936587,223.9044569744001 141.17038341489388,224.8054443464207 141.7883141564671,225.18884182872716 144.14620777545497,224.7862744504091 146.68297608278226,231.3805954730051 146.97568011819385,232.87578505456622 147.0407254594029,234.8118449950416 145.88617065286962,239.5464760975592 143.67462905164575,239.27811984541768 143.1867889924324,241.59747108038573 142.92660762765445,241.80831967691483" stroke="#4DD2FF" stroke-linecap="round" stroke-linejoin="round" stroke-width="0.5"><title>2025-04-29 10.1km</title><desc>1745929124000</desc></polyline><polyline fill="none" points="187.7447849230375,227.7107766553745 187.3408142713015,227.36890521884197 187.56869515177095,226.1112977482553 186.99899295065552,227.9915988411376 186.5639476334327,228.0526470493205 185.26916990359314,233.1317415270605 185.1241547979298,233.16836877658352 178.52596748666838,231.86198947999947 170.11509135377128,228.07706632327609 164.66666666668607,226.91714493573818 170.07365846639732,228.0892759582639 176.7132786649163,231.20268947578734 178.59847503952915,231.9108263630842 188.66666666668607,233.8887022517374 185.21737879444845,233.14395061154937 185.43490145303076,232.25268394924205 186.04603654146194,232.1061736828342 187.43403826782014,226.27002568271564 187.70335203566356,226.1723469804274 187.3408142713015,227.12471069728053" stroke="#4DD2FF" stroke-linecap="round" stroke-linejoin="round" stroke-width="0.5"><title>2025-04-22 6.3km</title><desc>1745328842000</desc></polyline><polyline fill="none" points="19.851474609284196,267.961406219998 20.250351026363205,267.7850906761887 21.081343561934773,265.06197310748394 23.20868445292581,265.37542758921336 24.322214450570755,261.3200680456939 24.139396092796233,257.22543350922933 21.82923684391426,251.56332115572877 21.779377291793935,250.583698851784 23.025866095151287,249.56488599439035 25.65180250746198,249.13384804781526 27.54646548855817,247.89950639384915 28.79295429191552,248.01706310690497 29.308169663941953,247.56642862287117 28.1946396662388,245.82265845729853 26.698853102279827,246.58678454400797 25.5022238510428,245.1956807812967 24.222495346330106,244.66666666667152 21.82923684391426,244.8625980017532 20.20049147424288,245.58754208497703 18.00667118036654,245.95980953247636 18.33906819456024,247.33131453070382 17.375116853334475,248.72240177131607 18.08977043395862,249.32977451523766 18.45540714962408,250.34858870474272 19.203300431603566,250.74043877907388 21.928955948213115,250.09388569853036 23.50784176570596,249.4081450424419 25.585323104576673,249.13384804781526 27.297167727840133,247.97787754448655 28.79295429191552,247.99747032683808 29.29154981317697,247.52724296219822 28.211259517003782,245.82265845729853 26.7154729529866,246.54759866985842 25.5022238510428,245.17608769371873 24.322214450570755,244.68625980979414 21.746137590380386,244.8625980017532 20.233731175714638,245.5679490400944 18.42216744821053,245.84225147443067 18.1728696875507,246.03818152850727 18.3058284932049,247.3900930825621 17.375116853334475,248.6244382333971 18.056530732486863,249.32977451523766 18.405547597445548,250.36818122871045 19.120201178069692,250.77962373949413 23.541081467235927,249.38855241388956 25.518843701807782,249.17303335839824 27.313787578605115,247.97787754448655 28.859433694684412,247.97787754448655 29.27492996258661,247.4880572930124 28.178019815532025,245.7834724166023 26.63237369939452,246.5280057295313 25.485604000394233,245.17608769371873 24.471793106931727,244.74503922631266 22.24473311175825,244.7646323608642 20.067532668588683,245.58754208497703 18.388927746738773,245.84225147443067 18.15624983678572,246.01858853270824 18.27258879179135,247.56642862287117 17.35849700268591,248.68321636255132 18.106390284607187,249.36895978316898 18.438787298859097,250.36818122871045 18.987242372357287,250.72084629566234 25.668422358226962,248.8791433209699 26.48279504297534,248.21299079123128 26.76533250504872,247.21375736937625 26.53265459521208,246.46922689583153 25.718281910347287,245.46998378359422 24.438553405576386,244.70585295080673 22.22811326099327,244.78422549333482 20.001053265703376,245.64632120690658 18.139629986078944,245.95980953247636 18.33906819456024,247.29212881879357 17.375116853334475,248.64403094523004 18.18948953819927,249.6432564191491 17.87371237471234,250.25062605270068 18.7047049102257,251.95516858303745 19.352879088022746,254.81562893536466 19.635416550096124,258.02869452463347 19.568937147210818,260.1445844173286 17.940191777597647,268.11813100265863 19.120201178069692,268.6666666666715" stroke="#4DD2FF" stroke-linecap="round" stroke-linejoin="round" stroke-width="0.5"><title>2025-04-15 8.8km</title><desc>1744723077000</desc></polyline><polyline fill="none" points="65.84227820381057,254.10271162862773 65.14567360351793,254.05623307534552 65.65826944145374,252.5534183344571 65.05366922245594,255.06326499661373 65.19824753567809,255.45058306798455 64.39649507123977,258.11530281210435 63.62102957291063,258.1307952227944 63.63417305587791,258.78147494875884 62.7404162104358,261.67851284178323 54.02628696610918,259.9433956280991 44.03723986854311,255.3111486837879 42.0,254.7224242213997 44.18181818188168,255.41959766107902 54.01314348302549,259.95888783974806 62.766703176428564,261.6630208174465 63.05585980293108,260.50111418333836 63.713033954030834,260.42365340363176 64.27820372401038,258.78147494875884 66.0,251.6548204915598 65.53997809428256,254.21116152731702" stroke="#4DD2FF" stroke-linecap="round" stroke-linejoin="round" stroke-width="0.5"><title>2025-04-11 5.1km</title><desc>1744377642000</desc></polyline><polyline fill="none" points="79.57269483699929,268.6666666666715 80.38441717729438,267.7684332529316 80.59977208386408,268.4323453403922 81.41149442427559,267.7684332529316 82.32261133677093,265.01512453214673 84.45959464093903,265.50330292129365 84.84060716809472,265.36661310633644 85.83455289091216,261.09012197176344 85.90081593918148,258.7467958918278 85.48667188797845,256.65730430191616 83.10120215307688,251.4627617225051 83.03493910492398,250.58397083404998 84.1945424482692,249.60753146003117 86.86163013783516,249.1778964502446 88.71699548722245,247.90851426853624 89.92629611672601,248.02568838499428 90.53922931256238,247.51793332691886 89.23053411068395,245.46736941899871 87.85557586071081,246.2680685939995 86.23213118012063,244.901019062032 84.77434411988361,244.82290163096332 83.99575330363587,245.19395912524487 82.4220059090876,246.91253118540044 80.16906227066647,247.24452616139024 78.86036706890445,248.3772102748335 78.79410402069334,248.74826041063352 79.47330026468262,249.31459861050826 79.75491821946343,250.2324532721541 80.50037751160562,250.66208575411292 87.04385352047393,248.82637613077532 87.93840467109112,247.96710133632587 88.03779924323317,247.01017683040118 87.0604192824685,245.48689870969974 85.48667188797845,244.66666666667152 83.36625434580492,244.78384290265967 81.29553408984793,245.5845451314235 79.50643178872997,245.89701332352706 79.65552364720497,247.26405525850714 78.79410402069334,248.31862334108155 78.79410402069334,248.6896735981427 79.47330026468262,249.256011983176 80.18562803271925,250.6425570272404 80.91452156275045,250.66208575411292 81.89190152363153,250.15433816482255 82.78645267424872,250.2324532721541 85.40384307765635,257.1650334704609 85.71859255660092,258.98112987833156 85.61919798428426,260.855790742251 84.69151530961972,264.819852804314 82.55453200550983,264.4878903787321 81.70967814110918,267.0654648334312" stroke="#4DD2FF" stroke-linecap="round" stroke-linejoin="round" stroke-width="0.5"><title>2025-04-08 5.6km</title><desc>1744119870000</desc></polyline><polyline fill="none" points="111.94525425840402,266.6424834148929 112.59502284810878,265.69420896949305 113.09008463070495,263.57880815988756 115.14768516476033,263.9617706326826 116.24610349501017,259.73089850372344 116.29251553711947,258.01663539285073 115.99857260368299,256.3388289671275 113.89456002751831,251.1229320293205 113.89456002751831,250.1198562929203 115.05486108059995,249.26267771871062 117.48375795164611,248.89791954722023 119.09270874515641,247.8036402634898 120.48507000872632,247.8036402634898 120.85636634577531,247.32945035220473 119.63418256992009,245.3962006566726 118.13352654135088,245.97982555929048 116.71022391621955,244.79433534447162 114.42056317155948,244.73962020879844 112.3010799146723,245.5238687780511 110.5374223140534,245.85215778576094 110.63024639827199,247.32945035220473 109.81030032085255,248.3143048195343 110.41365686838981,249.00734708215168 110.76948252465809,250.02866729156813 111.72866472852184,250.3569474639953 112.57955216738628,249.90100260617328 114.0183254731819,249.73686215333873 115.42615741753252,249.11677454551682 117.57658203592291,248.80672988016158 119.20100351009751,247.73068805690855 118.95347261877032,248.22311483453086 119.3557103171479,247.6212596873811 120.54695273161633,247.7124500003265 120.80995430366602,247.25649793889897 119.85077209980227,245.7062516396254 118.48935219761916,246.41754290073004 117.4064045480336,245.15910245873965 116.26157417573268,244.66666666667152 114.31226840661839,244.7213818262535 112.40937467961339,245.4873921818944 110.5838343561627,245.77920472856204 110.5683636754402,247.4024027337 109.85671236290364,248.13192479983263 109.81030032085255,248.49668464055867 110.42912754911231,249.04382291121874 110.5993050369434,249.8098134855827 111.43472179508535,250.33870969356212 112.53314012527699,249.88276478600164 113.9564427503501,249.73686215333873 115.25597992975963,249.15325035070418 116.49363438633736,248.9891091646423 116.63287051272346,250.02866729156813 119.80436005769297,256.46648874276434 116.57098778983345,257.5971853628871 116.38533962139627,260.46036684379214 115.5963349052472,263.5423354977538 115.19409720692784,263.8523528727528 114.08020819595549,268.6666666666715 109.81030032085255,267.5725165964104 110.46006891055731,264.7824015531369 110.6766584404395,264.6729843294597 110.30536210339051,266.4601233616995" stroke="#4DD2FF" stroke-linecap="round" stroke-linejoin="round" stroke-width="0.5"><title>2025-04-02 6.9km</title><desc>1743601029000</desc></polyline><polyline fill="none" points="142.22694555629278,268.6666666666715 142.80092251865426,268.14928698560107 143.59436126070796,265.30367254938756 146.24478429276496,265.9404572516796 147.34209319140064,260.90581759989436 147.0044596840744,257.18447302315326 144.42156335356412,251.29384748381563 144.40468167810468,250.7565174564661 144.91113193903584,250.0400749610708 145.80586073326413,249.6022476082726 148.67574554507155,249.08481392911926 150.00939789874246,248.01013929639885 150.53272983501665,247.93053351648268 150.5496115104179,247.21407993606408 149.87434449588181,245.84086938467226 149.3341308842064,245.88067273440538 148.8107989479904,245.2836215783318 148.37187538848957,245.3831302398612 147.39273821742972,244.78607745736372 146.34607434488134,244.70647027221275 145.26564712170511,245.0846040926117 143.81382304045837,246.87575365728117 141.61920524324523,247.19417840757524 139.98168273299234,248.5076746346167 140.96081990399398,250.3385930089862 142.07501047797268,250.79631973494543 145.9409141362412,249.50274124533462 148.4394020900363,249.1445178900467 150.3470314060105,247.831026242784 151.6131570583093,247.99023785462487 152.05208061781013,247.5126026027574 150.68466491327854,245.46273713007395 149.1821958059445,246.27870575412817 148.27058533631498,245.22391635538952 147.08886806096416,244.66666666667152 144.87736858834978,244.76617566432105 142.86844922008459,245.6020491044619 140.72447644890053,245.96027940770728 140.8595298518776,247.53250409649627 139.94791938218987,248.70668839049176 140.69071309821447,249.40323482827807 141.0283466054825,250.3982965600735 142.0243654518854,250.8162208708818 143.05414764909074,250.2987906307826 144.03328482009238,250.23908704724454 145.18123874487355,253.48295347946987 146.07596753916005,254.25908475996403 149.0302607276244,253.6421601648326 150.88724501768593,257.542680611441 147.30832984059816,258.75660110331955 147.12263141165022,261.8013170107879 146.75123455369612,262.25901501454064 145.80586073326413,265.6220651779731 145.60328062897315,265.7812612841517 143.59436126070796,265.4230698501342 142.96973927225918,267.8109994788829" stroke="#4DD2FF" stroke-linecap="round" stroke-linejoin="round" stroke-width="0.5"><title>2025-03-25 6.1km</title><desc>1742909450000</desc></polyline></svg>