<?xml version="1.0" encoding="utf-8" ?>
<svg baseProfile="full" height="300mm" version="1.1" viewBox="0,0,200,300" width="200mm" xmlns="http://www.w3.org/2000/svg" xmlns:ev="http://www.w3.org/2001/xml-events" xmlns:xlink="http://www.w3.org/1999/xlink"><defs /><rect fill="#222222" height="300" width="200" x="0" y="0" /><text fill="#FFFFFF" style="font-size:12px; font-family:Arial; font-weight:bold;" x="10" y="20">Over 5km Runs</text><text fill="#FFFFFF" style="font-size:4px; font-family:Arial" x="10" y="280">Runner</text><text fill="#FFFFFF" style="font-size:9px; font-family:Arial" x="10" y="290">Elliont</text><text fill="#FFFFFF" style="font-size:4px; font-family:Arial" x="65" y="280">SPECIAL TRACKS</text><rect fill="yellow" height="2.6" width="2.6" x="65" y="283" /><text fill="#FFFFFF" style="font-size:3px; font-family:Arial" x="70" y="285.5">Over 20.0 km</text><rect fill="red" height="2.6" width="2.6" x="65" y="287" /><text fill="#FFFFFF" style="font-size:3px; font-family:Arial" x="70" y="289.5">Over 40.0 km</text><text fill="#FFFFFF" style="font-size:4px; font-family:Arial" x="120" y="280">STATISTICS</text><text fill="#FFFFFF" style="font-size:3px; font-family:Arial" x="120" y="285">Number: 36</text><text fill="#FFFFFF" style="font-size:3px; font-family:Arial" x="120" y="290">Weekly: 1.8</text><text fill="#FFFFFF" style="font-size:3px; font-family:Arial" x="141" y="285">Total: 235.9 km</text><text fill="#FFFFFF" style="font-size:3px; font-family:Arial" x="141" y="290">Avg: 6.6 km</text><text fill="#FFFFFF" style="font-size:3px; font-family:Arial" x="167" y="285">Min: 5.0 km</text><text fill="#FFFFFF" style="font-size:3px; font-family:Arial" x="167" y="290">Max: 10.1 km</text><polyline fill="none" points="37.280471604142804,48.377048728732916 32.73414148122538,47.54206122150936 30.7613749584998,47.03472353157849 24.538193291286007,44.11748034624907 23.255895051464904,43.70525412942516 13.140983062097803,41.72865794180689 11.5,41.54896538291359 14.199103287945036,41.94006052626355 23.23796081036562,43.715824054314 24.34091663901927,44.06463092911872 30.250249086646363,46.87617995958135 31.729823978734203,47.39408800256206 37.271504483534954,48.45103461709368 37.48671537695918,47.62661724531063 38.5,47.79572907197871 37.99784124881262,47.67946472281619 38.03370973095298,47.42579656845919" stroke="#4DD2FF" stroke-linecap="round" stroke-linejoin="round" stroke-width="0.5"><title>2025-08-26 6.0km</title><desc>1756205162000</desc></polyline><polyline fill="none" points="76.0,50.042081479557964 70.8474434199452,49.02838595750654 65.24224643755588,46.44963009336789 64.08046940487111,46.08504079614795 54.8164291701396,44.29764044129115 51.723386420781026,44.43102987868042 50.901089689839864,44.244284605309076 50.10896898576175,43.76408051233011 49.7015926236345,43.274980847410916 49.03017602680484,41.60312713824533 49.52053646268905,41.060656609428406 50.89354568315321,39.95791852044931 49.2640402346733,41.25630213377735 49.0,41.62091299619351 49.43000838224543,42.85702062999917 49.78457669739146,43.4439428811238 51.02933780383319,44.324318346181826 51.80637049453799,44.4843855925792 53.49622799665667,44.33321097923181 54.8918692371808,44.35988887251733 64.22380553226685,46.15618029906909 65.24979044427164,46.50298448809917 70.75691533950157,49.02838595750654" stroke="#4DD2FF" stroke-linecap="round" stroke-linejoin="round" stroke-width="0.5"><title>2025-08-23 7.3km</title><desc>1755948655000</desc></polyline><polyline fill="none" points="113.5,47.33325244977459 113.09154383244459,48.740550623952004 106.18968192406464,47.38263162882504 97.73778122582007,43.530991063940746 89.51629169902299,41.75326665906323 86.5,41.259449376047996 97.20364623743808,43.41988410553313 105.88595810713014,47.33325244977459 111.53103180759354,48.48131279935478" stroke="#4DD2FF" stroke-linecap="round" stroke-linejoin="round" stroke-width="0.5"><title>2025-08-19 5.0km</title><desc>1755607675000</desc></polyline><polyline fill="none" points="150.2220712150156,52.028997875786445 145.31965207937174,51.060157389780215 139.63196520792553,48.43038792958396 138.67056265292922,48.15356502668146 129.69502582223504,46.43205094241421 126.34112530580023,46.52721098670736 125.23294373470708,46.008154814480804 124.46969285132946,45.08249622141011 124.04403370482032,43.698313709996 127.22179940203205,41.11155796895764 130.21609132917365,37.971002124213555 129.33541723291273,38.758315669358126 127.30986681161448,40.95583085399994 124.0,43.70696492562274 124.16145691767451,44.36445455511421 124.7779287850135,45.566954400863324 125.29899429195211,46.05140962508449 126.20168524057954,46.49260734744894 126.70073389509344,46.570465514596435 128.43272628434352,46.414749103925715 129.87849959233426,46.43205094241421 133.5186191900284,47.12412139109074 133.83419407450128,47.011660353564366 135.27996738246293,47.279836410954886 135.7129654797609,47.470154353977705 137.9073117695225,47.798884272313444 139.3237292742706,48.257373728331004 140.05762435446377,48.240072287473595 140.0429464528279,48.43903862976731 140.51263930418645,48.42173722845473 140.16036966568208,48.655305827800476 140.69611307422747,48.98403084100573 144.99673824411002,50.921750641427934 145.81870073388563,51.15531188939349 146.07556401196052,51.03420614283823 147.47730361510185,51.13801107974723 147.47730361510185,51.46672581839084 149.85512367493357,51.94249474137905 150.27344387062476,51.98574632034433 150.39086708344985,51.388872450595954 150.78717042674543,51.319669392934884 151.0,50.60168411214545" stroke="#4DD2FF" stroke-linecap="round" stroke-linejoin="round" stroke-width="0.5"><title>2025-08-16 10.0km</title><desc>1755297330000</desc></polyline><polyline fill="none" points="177.74876847286941,44.059417930773634 177.26108374382602,46.54164817935089 188.5,48.749483506326214 169.8571428571595,45.05231619346887 161.5,41.25051649366651 169.60221674875356,45.03925179599901 176.64039408869576,46.4501985024981" stroke="#4DD2FF" stroke-linecap="round" stroke-linejoin="round" stroke-width="0.5"><title>2025-08-13 5.0km</title><desc>1755095249000</desc></polyline><polyline fill="none" points="38.34882418817142,80.02523960399412 33.397816349403,79.03628576226038 27.76651735723135,76.44356623398926 26.715845464728773,76.1049919823563 17.4638857782993,74.32299914004398 14.183370660728542,74.42991980529041 13.457726763735991,74.27844882161298 12.709406494977884,73.83294430272508 12.316349384142086,73.44089831899328 11.953527435631258,72.83500537547661 11.52267637179466,71.6232060239854 12.459966405411251,70.69652381768537 13.548432250856422,69.86784718318813 12.724524076184025,70.44703066056536 11.5,71.63211637885252 12.301231802935945,73.4498084758743 12.928611422190443,74.037876682778 13.450167973147472,74.3051790155805 14.183370660728542,74.46555999598786 16.753359462483786,74.31408907828882 17.683090705482755,74.37645949012949 27.14669652856537,76.27427928332327 33.25419932810473,79.03628576226038 38.5,80.13215281681187" stroke="#4DD2FF" stroke-linecap="round" stroke-linejoin="round" stroke-width="0.5"><title>2025-08-12 8.1km</title><desc>1754996616000</desc></polyline><polyline fill="none" points="76.0,78.1314941298333 70.55585831060307,77.0427295475456 64.40871934604365,74.20995183674677 63.39509536785772,73.87271035306912 57.61580381472595,72.65863036698283 53.25885558585287,71.9070486922792 51.72207084472757,71.86850587017398 49.776566757500404,72.0323127481679 49.0,71.8974129883427 49.711171662173,72.0323127481679 51.640326975495555,71.88777728331479 53.27520435969927,71.91668439520436 63.305177111702505,73.8823458418774 64.47411444140016,74.29667086761037 70.30245231607114,76.98491866415134 75.53405994549394,78.06404892551654" stroke="#4DD2FF" stroke-linecap="round" stroke-linejoin="round" stroke-width="0.5"><title>2025-08-10 6.4km</title><desc>1754781124000</desc></polyline><polyline fill="none" points="110.82253984318231,86.29688423377956 106.32823172275675,85.39519828988705 101.23286111812922,83.04432250599348 100.26296483684564,82.72227890513022 91.86858082472463,81.07983471591433 91.11725271947216,81.03152698141639 88.76764482673025,81.16839881387568 88.25537566407002,81.04762956310879 87.53819883635151,80.63701263442636 87.03959018466412,80.07341705739236 86.56830255503883,78.97036756335001 86.5,78.55168753294856 89.48482165447786,76.10397219812876 91.54755881612073,73.88163411305868 93.49418163421797,72.18262767313718 95.94624335950357,70.58021139557968 96.21945357960067,70.45137239657197 96.90930938531528,70.42721505924419 97.1756893498823,70.25006101088366 97.92701745510567,69.42065231677407 98.69883632686106,67.76180699613178 99.39552238810575,67.10147956299625 102.51694915257394,65.41842319349962 106.37604351126356,63.70311576621316 106.37604351126356,64.29099556767324 107.0590690614772,64.73391561555763 107.26397672656458,64.9916133304796 107.37326081460924,65.41037020002113 109.7843410068599,69.70249126688577 110.7747280546464,71.87664131946804 111.3962813053804,72.73823123398324 111.40311156088137,72.98784886506473 111.68315203647944,73.41461253925809 112.1885909436387,74.88813609069621 112.57791550722322,75.58060149132507 112.9057677713281,77.01382321975689 113.01505185937276,78.46312029951514 112.7076903617708,80.54039655497763 112.78965342781157,80.66116663453431 113.5,80.87855228049739 113.41803693398833,81.52265414455906" stroke="#4DD2FF" stroke-linecap="round" stroke-linejoin="round" stroke-width="0.5"><title>2025-08-08 10.0km</title><desc>1754654808000</desc></polyline><polyline fill="none" points="151.0,78.7800683980895 143.79644268780248,77.30833346835425 135.53636363637634,73.4968301997651 127.00948616606183,71.66021936192556 124.0,71.2199316019105 135.34426877473015,73.4968301997651 144.00988142297138,77.43412351148436 150.81857707514428,78.74233183924662" stroke="#4DD2FF" stroke-linecap="round" stroke-linejoin="round" stroke-width="0.5"><title>2025-08-07 5.0km</title><desc>1754573743000</desc></polyline><polyline fill="none" points="188.5,78.79352541661501 181.36231313925236,77.36629666630324 173.20495672698598,73.62286689948814 172.16404405975481,73.3098655772119 161.5,71.20647458337771 164.33595594018698,71.80744736621273 164.56963021238334,71.70728545392194 165.1963021242991,71.97021028753079 172.62077104637865,73.48514642270311 181.45790715969633,77.46645364792494 188.02202989766374,78.78100594317948" stroke="#4DD2FF" stroke-linecap="round" stroke-linejoin="round" stroke-width="0.5"><title>2025-08-04 5.0km</title><desc>1754309955000</desc></polyline><polyline fill="none" points="38.5,108.14201955803583 33.103275705187116,107.06092628045735 26.879435850773007,104.20368771221547 25.94585987261962,103.89479153889988 16.06960873521166,101.94485959618032 14.333484986360418,101.85798044197145 12.220655141049065,102.02208543952293 11.5,101.86763368552784 11.655595996388001,101.9834725262699 12.64649681528681,102.05104511344689 15.5045495905797,101.89659340991057 19.427206551423296,102.66884923579346 20.05777979985578,102.67850239104155 21.14695177433896,103.0067090436205 25.839399454038357,103.90444456062687 27.141492265684064,104.3677883663695 33.005004549602745,107.05127360253391 37.943130118306726,108.04549390864122" stroke="#4DD2FF" stroke-linecap="round" stroke-linejoin="round" stroke-width="0.5"><title>2025-08-03 6.5km</title><desc>1754227262000</desc></polyline><polyline fill="none" points="72.8726695755613,108.1623588235816 65.70765569218202,106.73586513449845 56.67909559700638,102.72139044905634 49.0,101.15596012532478 57.343117810436524,102.89813125411456 65.98611662042094,106.84948031948443 76.0,108.8440398746825 73.09758032526588,108.18760634139471 73.09758032526588,107.99824982374412" stroke="#4DD2FF" stroke-linecap="round" stroke-linejoin="round" stroke-width="0.5"><title>2025-08-01 5.0km</title><desc>1754057984000</desc></polyline><polyline fill="none" points="110.91685649202554,116.27037494332762 106.31093394078198,115.36017757382069 101.2403189066099,113.0242215596445 100.15375854211743,112.6778493869424 91.9533029612794,111.09096078505536 90.45671981776832,111.04262861816096 88.96697038723505,111.1715143263209 88.25626423690119,111.04262861816096 87.66856492025545,110.71235796572728 87.23804100227426,110.30153143710777 86.74601366743445,109.3670939708245 86.5,108.5534793191764 89.51366742598475,106.05619032276445 91.6047835990903,103.82467041152995 93.51822323462693,102.14897219411068 94.96013667425723,101.31916526597342 96.08769931664574,100.48934902359179 96.88724373577861,100.40878384379903 97.1742596811091,100.23154013918975 98.04897494305624,99.22446556884097 98.7323462414497,97.70979958012322 99.40205011391663,97.10553587078903 102.60022779044812,95.34911464173638 106.3451025056711,93.72962505667238 106.4066059225297,94.25334447635396 106.9533029612794,94.63203159109253 107.52050113896257,95.64722577278008 107.86902050112258,96.62212134669971 108.73006833714317,98.40268255403498 110.97152619590634,102.60012545042264 111.27220956719248,103.50242370394699 112.16059225512436,105.36337907554844 112.76195899772574,107.4337375864925 112.80296127562178,108.72264745914435 112.7209567198006,109.18987173997448 112.93280182231683,109.34292732799076 112.73462414575624,110.5593052120239 113.5,110.8492996347486 113.4726651480305,111.24401243845932" stroke="#4DD2FF" stroke-linecap="round" stroke-linejoin="round" stroke-width="0.5"><title>2025-07-28 10.0km</title><desc>1753704756000</desc></polyline><polyline fill="none" points="148.3488933601766,108.31062527570612 141.1778672032524,106.87627334967692 132.9637826961698,103.11101630351186 131.62736418511486,102.66276338630996 124.0,101.13869068601343 132.4639839034062,102.95732978155138 139.53722334007034,106.28715945468866 141.3734406438307,106.97872763887426 151.0,108.86130931398657 148.45754527160898,108.28501200188475 148.58792756538605,107.45257756528008" stroke="#4DD2FF" stroke-linecap="round" stroke-linejoin="round" stroke-width="0.5"><title>2025-07-22 5.0km</title><desc>1753194638000</desc></polyline><polyline fill="none" points="176.85765124554746,106.42519329274364 185.8016014234745,108.19949229255872 188.5,108.35993243262783 186.14590747331386,108.22780528003204 171.4048042704817,105.33983291356708 164.9750889679999,102.42344943210628 161.5,101.64006756737217 164.9350533808174,102.44232601617841 170.96441281138686,105.2265771343009 173.4466192171094,105.7551028379603" stroke="#4DD2FF" stroke-linecap="round" stroke-linejoin="round" stroke-width="0.5"><title>2025-07-19 6.4km</title><desc>1752877000000</desc></polyline><polyline fill="none" points="36.027346731105354,146.34391244150902 31.43233273975784,145.4290842026603 26.21228694988531,143.04076273152896 25.31938438056386,142.7573974648767 16.836809972010087,141.12195396038442 13.897099974536104,141.21911002537672 13.258331213408383,141.09766492430208 12.660773340088781,140.74952120145463 12.07695242940099,140.13419342420093 11.568684813013533,138.99258497641858 11.5,138.5796584536438 14.501526329171611,136.09395424617105 16.486517425597413,133.94014982158842 18.444034596788697,132.23163649913477 20.834266090067104,130.63644878939522 21.25324344949331,130.43401135208114 21.892012210650137,130.4016213109353 22.345331976597663,130.1182078485581 23.087127957260236,129.2355704255533 23.753370643622475,127.72129647624388 24.460824217792833,127.06537144248432 27.93627575680148,125.17044436939614 31.48728059019777,123.65608755849098 31.49414907148457,124.23915907630726 32.04362757568015,124.60357645093609 32.40765708469553,125.27571936370805 33.15632154667401,126.99249052570667 35.46413126430707,131.33282936178875 36.06855761894258,132.78225171761005 36.23340117017506,132.9360993582086 37.27054184686858,135.59194526018837 37.5040702111437,135.92391932424653 37.874968201474985,137.3084780893114 37.94365301451762,138.22340627683297 37.833757313666865,139.61601871328457 37.4972017298569,140.9195450837724 38.5,141.14624298853596" stroke="#4DD2FF" stroke-linecap="round" stroke-linejoin="round" stroke-width="0.5"><title>2025-07-17 10.0km</title><desc>1752756134000</desc></polyline><polyline fill="none" points="76.0,138.81001207380177 68.84195969975553,137.37658058895613 59.76372975111008,133.34024369516555 49.0,131.18998792619095 60.243777163210325,133.54143516851764 68.63927301467629,137.3640065497966 75.66930067166686,138.79743819076248" stroke="#4DD2FF" stroke-linecap="round" stroke-linejoin="round" stroke-width="0.5"><title>2025-07-14 5.0km</title><desc>1752500928000</desc></polyline><polyline fill="none" points="113.5,138.78223850869836 106.34362783422694,137.37637853726483 98.94448788114823,133.94252392493217 97.19233776384499,133.30799601293256 86.5,131.21776149130892 97.88897576229647,133.4946222352737 106.47028928849613,137.42614378735016 112.74003127444303,138.68270916824258" stroke="#4DD2FF" stroke-linecap="round" stroke-linejoin="round" stroke-width="0.5"><title>2025-06-21 5.0km</title><desc>1750468889000</desc></polyline><polyline fill="none" points="142.47303190268576,136.65815049567027 149.49414734909078,138.06054482147738 151.0,138.14088944171817 149.70484278173535,138.06054482147738 138.22813862748444,135.81816068684566 136.99495065413066,135.33607482795196 133.30778058295255,133.5830061302404 132.65710351159214,133.3711738928905 125.13403718156042,131.91024369176012 124.0,131.85911055827455 125.00390176728251,131.8810247631336 127.93504705070518,132.4215728822819 133.20862979115918,133.56109248151915 137.13128299286473,135.4164227117435 138.13518476014724,135.80355207536923 139.22584347025258,136.0226809134765" stroke="#4DD2FF" stroke-linecap="round" stroke-linejoin="round" stroke-width="0.5"><title>2025-06-17 8.1km</title><desc>1750165544000</desc></polyline><polyline fill="none" points="188.5,138.7659015625395 181.6925754059921,137.41218310472323 172.81786542921327,133.44938676458696 161.5,131.2340984374605 172.83874709974043,133.49861490079638 181.54640371224377,137.39987649892282 187.28886310901726,138.56899806736328" stroke="#4DD2FF" stroke-linecap="round" stroke-linejoin="round" stroke-width="0.5"><title>2025-06-15 5.0km</title><desc>1749939796000</desc></polyline><polyline fill="none" points="30.15694828683627,166.5476281631636 36.52915513937478,167.8208640805533 38.5,167.94276827983776 36.948606086400105,167.84795392326487 26.28420940626529,165.77554687948214 25.244200893794186,165.38272991589474 21.767929346649908,163.73016241009464 20.992232389864512,163.47279138720114 13.982230261783116,162.11818949895314 13.13183656099136,162.05723172016587 11.5,162.18592029421416 13.815599063644186,162.10464333106574 20.693445413926383,163.43215375990985 21.52660140453372,163.66243329680947 23.514683975314256,164.60386135783847" stroke="#4DD2FF" stroke-linecap="round" stroke-linejoin="round" stroke-width="0.5"><title>2025-06-11 8.1km</title><desc>1749642919000</desc></polyline><polyline fill="none" points="76.0,168.75761206554307 68.98565335402964,167.40021930405055 60.170608763059136,163.46368833849556 49.0,161.24238793445693 60.296238852257375,163.51305007506744 69.0589375726413,167.46191932777583 74.8379216750618,168.62187352111505" stroke="#4DD2FF" stroke-linecap="round" stroke-linejoin="round" stroke-width="0.5"><title>2025-06-08 5.0km</title><desc>1749387304000</desc></polyline><polyline fill="none" points="96.9601398599334,172.2563473537739 99.86783216753975,170.52019920607563 105.98531468515284,169.40727984640398 109.08181818178855,167.09239786749822 112.44265734264627,167.18143203217187 113.3489510489162,166.42464101308724 107.3825174823869,156.7197848650394 103.34195804176852,157.5211119944288 99.4902097901795,159.7915303253103 97.3377622377593,159.7915303253103 93.9013986014761,161.39417096233228 88.27482517482713,162.55162973457482 88.46363636362366,166.20205515241832 86.5,168.65049295013887 88.16153846145608,170.4756824898359 88.8790209791623,172.74602883096668 89.9363636362832,173.41377535375068 96.50699300691485,172.03376467025373 99.98111888114363,170.4756824898359 105.04125874117017,169.8079311651527 109.27062937058508,167.09239786749822 112.2538461536169,167.22594910740736 113.46223776205443,166.20205515241832 107.3825174823869,156.58623019064544 102.88881118874997,157.5656301221461 99.56573426560499,159.74701244014432 96.5447552446276,160.05863753479207 92.84405594388954,161.70579480053857 88.38811188796535,162.46259456081316 88.5013986013364,166.42464101308724 86.5,168.65049295013887 88.27482517482713,170.56471591748414 89.18111888109706,172.87957822266617 90.46503496496007,173.50280814105645 100.81188811152242,170.34213231221656 105.15454545430839,169.8524479540356 108.89300699299201,167.3149832431227 112.36713286698796,167.2704661777243 113.5,166.15753796565696 106.96713286708109,156.45267547256663 102.51118881092407,157.8327387869067 99.41468531475402,159.74701244014432 88.57692307676189,162.24000654157135 88.53916083928198,166.20205515241832 86.53776223771274,168.56145910560736 88.23706293688156,170.4756824898359 88.8790209791623,172.6124793953786 90.8048951048404,173.54732452743337 106.06083916057833,168.91759436775465 107.94895104877651,166.38012385068578 107.3825174823869,163.842637573689 104.8902097903192,160.7264047942881 102.77552447561175,159.65797665526043 100.96293706283905,159.56894085078966 98.88601398584433,160.4147802090156 95.52517482521944,164.46588127722498 90.16293706302531,165.35622777591925 86.95314685301855,167.89370465217507 86.83986013988033,168.96211125364061 88.6524475524202,171.14343272330007" stroke="#4DD2FF" stroke-linecap="round" stroke-linejoin="round" stroke-width="0.5"><title>2025-06-04 6.4km</title><desc>1749041988000</desc></polyline><polyline fill="none" points="151.0,168.7822926046283 144.0798759208992,167.4002201252515 136.19658782478655,163.75985925654095 135.0031019775197,163.36496562202228 124.0,161.2177073953717 135.3171772005153,163.4883700306309 143.92283830943052,167.37554010635358 149.67041488946415,168.56017495014385" stroke="#4DD2FF" stroke-linecap="round" stroke-linejoin="round" stroke-width="0.5"><title>2025-05-28 5.0km</title><desc>1748436903000</desc></polyline><polyline fill="none" points="188.5,168.7704701553448 181.002373417723,167.2346258794205 172.31922468356788,163.30680015370308 161.5,161.21694104147173 171.9667721518781,163.2312637355426 173.26977848104434,163.64671342453948 181.63251582282828,167.4738160835186 188.37183544307481,168.78305895852827" stroke="#4DD2FF" stroke-linecap="round" stroke-linejoin="round" stroke-width="0.5"><title>2025-05-27 5.0km</title><desc>1748351986000</desc></polyline><polyline fill="none" points="31.49476505536586,200.56973551820556 31.530847083369736,198.9533236429561 32.37877474335255,197.03381156545947 32.93804617866408,193.47254545317264 32.90196415054379,193.80089273079648 32.090118518681265,193.90192251550616 28.139136443380266,196.70547147485195 26.641732277872507,197.0590684653289 26.046378814440686,196.0740461719688 26.731937348027714,194.9627310827491 27.994808331073727,193.97769480869465 27.79635717655765,192.28543766700022 28.39171063998947,191.19935197279847 27.597906022157986,190.74470907823707 24.693302761297673,190.79522502458713 23.935580171470065,189.68387021525996 24.188154368137475,188.37044011337275 24.747425803449005,188.54724869203346 24.693302761297673,187.6884621843492 25.523189407249447,188.19363132303988 27.038634586846456,188.14311448692752 28.24738252768293,188.95138179129572 29.889114805555437,189.0018983510381 30.556632325111423,188.67354040438659 32.19836460298393,186.37501433712896 32.270528659108095,182.53563826884783 31.675175195676275,181.85363339612377 30.737042465538252,181.5 29.582417566794902,181.82837389592896 28.554079766385257,182.9650471285422 27.76027514843736,183.24289925477933 26.13658388471231,182.93978781838086 24.42268755059922,182.00519030670694 22.853119328967296,182.53563826884783 22.059314711077604,183.7480835996248 22.095396739197895,185.0362958573969 22.780955272784922,185.99613297969336 24.332482480444014,186.72863606043393 24.693302761297673,187.61268666454998 23.989703213621397,189.2544808901148 24.494851606839802,190.769967053624 24.6211387051153,192.86636394601373 23.953621185501106,195.13953176994983 24.476810592750553,195.7709610677848 26.01029678643681,196.14981735081528 26.605650249752216,197.0590684653289 25.23453318257816,199.28165873675607 23.538677862496115,199.96358313792734 20.706238657876384,202.03459350085177 18.649563057057094,202.91855249649961 18.18049669195898,204.13083051687863 17.02587179321563,205.3936095416866 18.0181275656214,208.22219538311765 18.92017826763913,208.42423515632981 20.11088519450277,207.6918396637484 21.500043275766075,208.2727053523995 22.510340062144678,208.14643039696966 23.30414468003437,207.31301298408653 23.881457129435148,205.21682112806593 25.252574196609203,204.4591541018599 28.39171063998947,205.4441204781615 29.582417566794902,204.8632436661428 31.44064201315632,204.76222137876903 31.548888097400777,199.15537609483 32.97412820678437,194.15449667496432 32.75763603823725,193.80089273079648 32.21640561695676,193.8514076318097 28.157177457411308,196.7307284307899 26.69585532002384,197.03381156545947 25.090205070213415,199.35742827017384 23.376308736158535,200.03935232151707 20.68819764390355,202.03459350085177 18.757809141359758,202.7922729638667 18.18049669195898,204.20659756285022 17.02587179321563,205.49463139727595 17.927922495349776,208.09592038458504 18.523275958781596,208.5 20.002639110200107,207.6918396637484 21.698494430223946,208.29796033048478 22.835078314878047,207.8433700636233" stroke="#4DD2FF" stroke-linecap="round" stroke-linejoin="round" stroke-width="0.5"><title>2025-05-23 6.4km</title><desc>1747958832000</desc></polyline><polyline fill="none" points="64.95308017521165,196.2609099506517 65.68378490814939,196.95508605199575 67.51054674061015,197.24737005149655 68.42392765684053,198.41650205080805 68.18905827833805,203.01989710853377 67.74541611899622,203.86018867589883 66.15352366515435,204.33513462169503 64.58772780874278,203.78711997522623 63.12631834263448,204.11592893171473 60.64714156999253,202.65455191805086 59.15963550633751,203.23910392301332 58.0635784069309,203.0564315932861 58.37673757807352,201.99692900072841 57.593839650042355,199.95097809076833 57.82870902842842,198.48957258829614 56.993617905071005,197.10122810167377 57.358970271539874,194.90908685923205 62.630482988082804,194.6898714978597 64.43114822299685,195.3475169071171 65.37062573677395,196.84547944900987 67.38006375252735,197.21083457340137 68.26734807121102,198.05114898820466 68.18905827833805,203.1295005438733 67.79760931432247,203.86018867589883 66.25791005545761,204.29860035570164 64.7704039918026,203.8236543286912 63.07412514742464,204.07939462825016 60.59494837478269,202.6910864651727 57.437260064296424,203.3487072458811 55.74098121980205,204.73701113578863 56.28900976956356,205.1388868940121 56.70655533124227,207.33092317769479 59.264021896757185,208.5 60.36007899628021,207.7327940568066 61.09078372933436,206.2349078469706 60.98639733879827,205.0658186305227 59.629374263226055,202.91029361690744 60.98639733879827,202.6910864651727 63.100221745087765,204.07939462825016 64.7704039918026,203.60444811395428 64.56163121107966,203.0564315932861 62.865352366585284,203.09296607170836 61.951971450354904,201.92385966274014 62.813159171375446,198.48957258829614 60.56885177711956,195.05523030851327 60.72543136274908,192.315023998759 61.32565310772043,191.14585860955412 62.52609659754671,190.45166363242606 64.79650058946572,191.18239512490982 66.64935901958961,190.70741993909178 64.56163121107966,192.7534593702294 62.39561360958032,192.64385061174107 61.09078372933436,191.65736925475358 59.08134571358096,191.21893163386267 59.1335389087908,186.7614314134844 60.02082322735805,184.89802260746364 60.07301642256789,182.12114795439993 60.6210449723294,181.57307632359152 62.291227219160646,181.5 67.09300117893144,182.19422406563535 68.08467188791838,183.0711354503146 68.42392765684053,184.89802260746364 69.25901878031436,185.81146032754623 68.71099023055285,186.5422076916584 69.05024599947501,187.0171921379515 67.40616035019048,188.00369492125174 67.22348416689783,190.30551703396486 64.79650058946572,192.68038687076478 62.891448964131996,192.7534593702294 61.0124939364614,191.54775993383373 59.18573210388422,191.328541123381 59.107442311244085,187.0171921379515 60.229596008197404,183.29036273398378 61.40394290059339,182.85190794157097 61.430039498140104,181.7557670234819 66.779842007556,182.0846098894981" stroke="#4DD2FF" stroke-linecap="round" stroke-linejoin="round" stroke-width="0.5"><title>2025-05-20 5.0km</title><desc>1747754393000</desc></polyline><polyline fill="none" points="109.92259414237924,196.88678985866136 112.4456066947896,197.19754025462316 113.5,196.08771632399294 107.2489539750386,186.6762878690206 102.88075313810259,187.74174351306283 99.4916317993775,189.73946533541312 97.38284518825822,189.82825274462812 92.26150627620518,191.78157085122075 88.15690376586281,192.35868577228393 88.49581589968875,196.13210933920345 86.5,198.70689594867872 88.15690376586281,200.1718534809188 88.75941422604956,202.21390670671826 89.66317991632968,203.10175274306675 91.35774058592506,203.36810617669835 99.83054393320344,200.6157789659337 104.87656903779134,199.9054979578359 109.24476987472735,197.01996862894157 112.4456066947896,197.10875445153215 113.4246861927677,196.26528835605131 107.3995815902017,186.72068190973368 105.7426778243389,186.76507594564464 99.64225941430777,189.65067790696048 96.85564853576943,189.9614338221727 93.35355648538098,191.5596033561451 87.85564853576943,192.58065283187898 88.64644351485185,195.51060668524588 86.5,198.66250321402913 88.08158995839767,199.9942831514636 88.57112970738672,201.85876775055658 89.70083682029508,203.05736048726249 91.35774058592506,203.2793217182916 100.5460251045879,200.26063861662988 105.47907949821092,199.63914226053748 109.05648535559885,197.10875445153215 112.48326359852217,197.10875445153215 113.4246861927677,196.17650234969915 107.3995815902017,186.76507594564464 106.08158995816484,186.63189382333076 102.69246861943975,187.74174351306283 99.75523012550548,189.65067790696048 97.34518828452565,189.73946533541312 92.8263598328922,191.64839036864578 88.34518828475848,192.44747261054 88.57112970738672,195.95453724917024 86.57531380769797,198.5737177300034 88.08158995839767,200.08306832588278 89.13598326360807,202.70222226623446 91.50836820108816,203.23492948169587 99.15271966555156,200.660171487747" stroke="#4DD2FF" stroke-linecap="round" stroke-linejoin="round" stroke-width="0.5"><title>2025-05-14 5.0km</title><desc>1747227249000</desc></polyline><polyline fill="none" points="133.5614109998569,208.2072240831185 134.1113941486692,207.70532147266204 134.90975678374525,204.73570418082818 137.3048446890898,205.1121370839246 138.5999662972754,199.92566322856874 138.35158681077883,196.60039055150992 135.8500505540287,190.3470488191233 135.95649890543427,188.94577039235446 137.6951553109102,188.00460749759804 140.28539852704853,187.56539656739915 141.95308936492074,186.41507746368006 143.31917654059362,186.5405671554763 143.83367690548766,185.99677789857378 141.083761162241,181.60457742671133 140.39184687833767,181.5 138.49351794598624,182.1902099634608 137.3048446890898,183.00590944757278 136.27584395941813,183.02682477340568 134.1823597161565,183.863435936757 132.0356512971921,184.17716418294003 132.1775824322831,185.80854279684718 131.16632309451234,187.08435487173847 131.3437370134052,187.54448173608398 131.94694433768746,187.9418631404842 132.55015166208614,189.34314889581583 133.31303151347674,189.42680742329685 140.1257260000566,187.37716300397005 140.8886058514472,186.7078866167867 141.17246812174562,185.80854279684718 140.835381675628,184.6372980163287 139.6467084189644,183.3614696762961 138.1919142837869,182.9013327843859 136.91453406750225,183.25689320683887 135.2113604459446,185.1810911246721 132.78078975668177,185.59939246736758 131.37921979720704,186.85429102586932 131.4147025810089,187.54448173608398 133.31303151347674,189.00851442132262 135.47748132422566,188.77845288168464 140.07250182447024,187.37716300397005 141.06601977034006,186.45690737005498 141.11924394604284,185.4529871011182 140.39184687833767,184.13533377973363 138.6709318648791,182.96407878912578 136.27584395941813,183.04774009693938 134.02268718916457,183.94709685254202 132.00016851339024,184.34448570449604 132.15984104049858,185.8922028648376 131.18406448629685,187.1680143837002 131.9646857297048,187.9418631404842 132.35499635129236,189.0712584296998 133.25980733777396,189.44772204950277 134.3242908512475,188.90394102841674 136.29358535131905,188.56930578823085 135.83230916212779,189.42680742329685 135.88553333771415,190.09607433053316 138.1209487161832,195.70109307739767 138.65319047297817,198.294404584085 138.4580351621844,201.20138148439582 137.5709655676037,204.5265744713688 135.28232601343188,204.19196646231285 134.37751502695028,207.24524292709248 133.68560074316338,207.53802031086525 133.40173847286496,208.5 133.02916924317833,208.35361209738767" stroke="#4DD2FF" stroke-linecap="round" stroke-linejoin="round" stroke-width="0.5"><title>2025-05-06 7.1km</title><desc>1746539597000</desc></polyline><polyline fill="none" points="171.81684361433145,208.5 171.63390359212644,208.28435963652737 172.49372169631533,205.41632046682935 174.6707079601474,205.9338644418458 175.0548820067197,205.26536988592125 176.18911014404148,200.49958522240922 176.15252213960048,198.12743244334706 172.91448374732863,189.1561248897342 172.03637164086103,188.96202960774826 170.79237949021626,189.56588097129134 170.02403139707167,189.41491830308223 168.5788052220596,187.1720308127551 169.56668134173378,186.09371047242894 169.3288593129255,184.36838570807595 170.60943946801126,184.3036857367988 174.890235986677,183.09594905805716 176.28058015508577,182.2332754896488 178.56733043212444,181.54313392755284 181.5126647891011,186.05057753656 181.14678474480752,186.63287137694715 179.53691254975274,186.48190647170122 177.81727634125855,187.7327550680784 175.2012340243673,188.1209478527453 173.66453783819452,188.85419881320558 171.70707960100845,189.11299262134708 170.51796945696697,189.60901314098737 169.74962136382237,189.28552163871063 169.31056531064678,188.07781535870163 168.61539322638419,187.56022469713935 168.61539322638419,187.1504644635279 169.56668134173378,185.87804569935543 169.31056531064678,184.3899523604341 171.32290555443615,184.13115237673628 174.8353539800737,183.00968187041872 178.16486238338985,181.5 178.67709444544744,181.6725356537936 181.4943707868224,186.05057753656 181.2199607535731,186.58973855864315 179.66497056512162,186.48190647170122 177.41480829252396,187.883719019228 175.58540807082318,188.01311659999192 170.60943946801126,189.56588097129134 169.84109137486666,189.3502199814975 169.34715331508778,188.07781535870163 168.61539322638419,187.517092080976 169.54838733945508,185.92117867272464 169.3288593129255,184.36838570807595 171.24972954567056,184.13115237673628 174.6890019623097,183.07438226472004 175.91470011079218,182.31954301570659 178.20145038783085,181.5 178.62221243884414,181.6725356537936 181.4760767846601,186.02901106515492 181.2016667514108,186.56817214586772 179.53691254975274,186.4603400472697 177.76239433477167,187.75432135388837 175.1829400220886,188.1209478527453 173.33524579822551,188.91889729698596 171.81684361433145,189.0482942009985 170.64602747245226,189.5874470573326 169.78620936826337,189.26395551979658 169.3288593129255,188.07781535870163 168.59709922410548,187.5386583902291 168.5788052220596,187.1720308127551 169.31056531064678,186.4603400472697 168.4507472064579,187.25829618619173 169.2556833040435,188.20721281263104 169.62156334833708,189.19925714879355 170.40820544364396,189.67371137811278 174.96341199544258,188.25034527845855 177.68921832577325,187.9268515555741 179.44544253859203,186.58973855864315 181.0736087358091,186.58973855864315 181.5492527935421,186.09371047242894 178.49415442335885,181.5 176.17081614176277,182.19014171257732 174.7255899667507,183.11751584906597 173.42671580938622,183.20378298975993 171.43266956775915,184.02331895034877 169.07274328183848,184.49778558711114 169.4752113306895,185.87804569935543 168.54221721750218,187.0210663187463 168.50562921306118,187.58179100176494 169.23738930176478,188.1425140962092 169.56668134173378,189.1561248897342 170.26185342599638,189.5874470573326 172.91448374732863,189.13455875671934 175.7683480931446,196.5531699071289 176.09764013299718,198.23525818638154 176.17081614176277,200.41332561943273 174.8719419843983,205.73978560976684 172.38395768299233,205.43788482611126 171.83513761649374,208.04715496544668 171.54243358108215,208.28435963652737" stroke="#4DD2FF" stroke-linecap="round" stroke-linejoin="round" stroke-width="0.5"><title>2025-04-29 10.1km</title><desc>1745929124000</desc></polyline><polyline fill="none" points="37.46288303844631,222.42462373730086 37.00841605523601,222.0400183712045 37.264782045793254,220.62520996679086 36.62386706948746,222.74054869628162 36.13444108766271,222.80922793049103 34.677816141571384,228.52320921795035 34.5146741476492,228.564414873661 27.091713422501925,227.09473816500395 17.629477772978134,222.83669961369014 11.5,221.53178805270727 17.582865774689708,222.85043545305234 25.052438498008996,226.35302566026803 27.173284419521224,227.1496796584761 38.5,229.37479003320914 34.6195511437254,228.5369444379976 34.86426413466688,227.5342694429055 35.55179110914469,227.36944539318938 37.11329305131221,220.80377889306692 37.41627104009967,220.6938903529881 37.00841605523601,221.76529953444697" stroke="#4DD2FF" stroke-linecap="round" stroke-linejoin="round" stroke-width="0.5"><title>2025-04-22 6.3km</title><desc>1745328842000</desc></polyline><polyline fill="none" points="58.58290893549565,237.7065819974814 59.03164490475319,237.50822701070865 59.96651150728576,234.44471974590851 62.3597700096434,234.79735603785957 63.61249125690665,230.23507655138383 63.406820604461245,225.62861269786663 60.80789144942537,219.25873630018032 60.75179945328273,218.1566612082388 62.15409935708158,217.01049674367823 65.10827782098204,216.52557905377762 67.23977367463522,215.1369446930621 68.64207357843406,215.2691959952499 69.22169087198563,214.7622322007228 67.96896962460596,212.80049076444993 66.28620974009391,213.66013261199987 64.9400018324377,212.09514087894058 63.50030726462137,211.5 60.80789144942537,211.72042275195417 58.97555290861055,212.5359848455846 56.507505077985115,212.954785724025 56.88145171897486,214.49772884703998 55.79700646002311,216.06270199271967 56.600991738261655,216.74599632962781 57.0123330433853,217.89216229283193 57.85371298552491,218.33299362644902 60.92007544171065,217.60562141083938 62.69632198649924,216.83416317273804 65.03348849271424,216.52557905377762 66.9593136938056,215.225112237531 68.64207357843406,215.2471541176783 69.20299353986047,214.71814833245298 67.9876669566147,212.80049076444993 66.30490707210265,213.6160485035798 64.9400018324377,212.0730986554263 63.61249125690665,211.52204228601477 60.714404789265245,211.72042275195417 59.01294757274445,212.51394267009164 56.9749383792514,212.8225329087145 56.694478398538195,213.04295421954885 56.84405705484096,214.5638547178678 55.79700646002311,215.95249301256263 56.563597074127756,216.74599632962781 56.956241047242656,217.91420388229017 57.76022632536478,218.37707670690725 62.73371665063314,216.81212146561302 64.95869916456286,216.56966252817074 66.97801102593075,215.225112237531 68.71686290658545,215.225112237531 69.18429620796815,214.67406445462257 67.9502722924808,212.7564064686594 66.21142041182611,213.59400644570997 64.92130450042896,212.0730986554263 63.78076724533457,211.5881691295799 61.27532475069165,211.6102114059613 58.82597425219137,212.5359848455846 56.9375437151175,212.8225329087145 56.67578106641304,213.02091209929495 56.806662390823476,214.7622322007228 55.77830912801437,216.01861840786296 56.6196890702704,216.79007975605782 56.99363571126014,217.91420388229017 57.6106476689456,218.3109520825965 65.1269751531072,216.23903623607475 66.04314442339819,215.48961464011518 66.36099906824529,214.365477040541 66.09923641965725,213.5278802577959 65.18306714913342,212.40373175652348 63.74337258131709,211.54408456964302 61.25662741868291,211.6322536799853 58.751184923923574,212.602111357759 56.657083734404296,212.954785724025 56.88145171897486,214.45364492113004 55.79700646002311,215.97453481335833 56.713175730546936,217.0986634715373 56.357926421565935,217.78195430927735 57.2927930240985,219.69956465590803 58.021988974069245,222.91758255226887 58.33984361891635,226.53228134020173 58.26505429064855,228.91265746948193 56.43271574983373,237.8828973779746 57.76022632536478,238.5" stroke="#4DD2FF" stroke-linecap="round" stroke-linejoin="round" stroke-width="0.5"><title>2025-04-15 8.8km</title><desc>1744723077000</desc></polyline><polyline fill="none" points="113.32256297930144,222.11555058220983 112.53888280398678,222.0632622097619 113.11555312166456,220.37259562626423 112.43537787522655,223.1961731211777 112.59802847763058,223.63190595147898 111.69605695514474,226.62971566361375 110.82365826953901,226.6471446256328 110.83844468783354,227.37915931733733 109.83296823670389,230.63832694699522 100.0295728368219,228.68632008161512 88.79189485206734,223.47504226924502 86.5,222.81272724908195 88.95454545458779,223.5970473687048 100.01478641841095,228.7037488197093 109.86254107346758,230.6208984196128 110.18784227827564,229.31375345625565 110.92716319829924,229.22661007908755 111.5629791895044,227.37915931733733 113.5,219.36167305300478 112.98247535608243,222.23755671823164" stroke="#4DD2FF" stroke-linecap="round" stroke-linejoin="round" stroke-width="0.5"><title>2025-04-11 5.1km</title><desc>1744377642000</desc></polyline><polyline fill="none" points="131.76928169163875,238.5 132.68246932455804,237.48948740954802 132.92474359448534,238.23638850795396 133.83793122740462,237.48948740954802 134.8629377540201,234.39201509868144 137.26704397122376,234.94121578645718 137.69568306417204,234.78743974464305 138.81387200241443,229.9763872182375 138.88841793162283,227.3401453783008 138.42250587407034,224.98946733966295 135.73885242233519,219.14560693781823 135.6643064931268,218.1569671883044 136.96886025439017,217.05847289254598 139.9693339051446,216.5751335065288 142.05661992321257,215.14707855210872 143.41708313138224,215.2788994331204 144.10663297667634,214.70767499279464 142.63435087457765,212.40079059636628 141.08752284338698,213.30157716825488 139.26114757778123,211.76364644480054 137.62113713496365,211.67576433482463 136.74522246664856,212.09320401590958 134.9747566478327,214.02659758357913 132.44019505451433,214.40009193155856 130.96791295264848,215.6743615591986 130.89336702332366,216.09179296197544 131.65746279782616,216.72892343683634 131.97428299696185,217.76150993116607 132.81292470067274,218.24484647337522 140.17433521070052,216.17967314712587 141.1807052550139,215.21298900338297 141.29252414871007,214.1364489342086 140.1929716928862,212.42276104840857 138.42250587407034,211.5 136.03703613905236,211.6318232654885 133.7074758511735,212.53261327285145 131.69473576243035,212.88413998897886 131.86246410314925,214.4220621658169 130.89336702332366,215.60845125872584 130.89336702332366,216.02588279791235 131.65746279782616,216.6630134810839 132.45883153693285,218.22287665563636 133.27883675822522,218.24484647337522 134.3783892141655,217.67363043544174 135.3847592585953,217.76150993116607 138.32932346244343,225.56066265427216 138.68341662629973,227.60377111313574 138.57159773248713,229.71276458504144 137.52795472345315,234.17233440485143 135.1238485062495,233.79887667608273 134.17338790884241,236.69864793760644" stroke="#4DD2FF" stroke-linecap="round" stroke-linejoin="round" stroke-width="0.5"><title>2025-04-08 5.6km</title><desc>1744119870000</desc></polyline><polyline fill="none" points="171.18841104069725,236.22279384173453 171.91940070415149,235.15598509067786 172.47634520957945,232.7761591798626 174.79114581033355,233.2069919617643 176.0268664318719,228.44726081666886 176.07907997927396,226.5187148169498 175.7483941791579,224.63118258801114 173.38138003100175,218.7632985329692 173.38138003100175,217.63483832952625 174.68671871570405,216.67051243354217 177.41922769561643,216.26015949061548 179.22929733828641,215.02909529639874 180.7957037598826,215.02909529639874 181.21341213898268,214.49563164620486 179.83845539117465,212.3207257387403 178.15021735901246,212.97730375418905 176.5490019057761,211.6436272625142 173.9731335680117,211.58207273487642 171.58871490403544,212.4643523752893 169.60460010328097,212.83367750897014 169.7090271980851,214.49563164620486 168.78658786095912,215.60359292195062 169.46536397695309,216.38326546740427 169.86566784029128,217.53225070299231 170.94474781956524,217.90156589698745 171.9019961883314,217.38862793192675 173.52061615732964,217.20396992248425 175.1044270946877,216.50637136369187 177.52365479042055,216.15757111515268 179.35112894885242,214.94702406400756 179.07265669613844,215.50100418883085 179.5251741068205,214.82391714828555 180.86532182310475,214.92650625035458 181.16119859163882,214.41356018124497 180.08211861230666,212.66953309456585 178.55052122229245,213.46973576329765 177.3322051165742,212.05399026606756 176.0442709477502,211.5 173.85130195744568,211.56155455451517 171.71054651460145,212.42331620461482 169.65681365068303,212.75160531961592 169.63940913486294,214.57770307539613 168.83880140830297,215.39841539978806 168.78658786095912,215.8087702206103 169.48276849271497,216.42430077510653 169.67421816656133,217.2860401712678 170.6140620195074,217.88104840523738 171.84978264098754,217.36811038423912 173.4509980941657,217.20396992248425 174.91297742095776,216.5474066445313 176.30533868464408,216.36274781019893 176.46197932685027,217.53225070299231 180.0299050649046,224.7747998355917 176.3923612635699,226.04683353322616 176.18350707407808,229.26791269924433 175.29587676847586,232.73512743496394 174.84335935779382,233.08389698182873 173.59023422049358,238.5 168.78658786095912,237.26908117094717 169.51757752435515,234.13020174726262 169.76124074548716,234.0071073706349 169.34353236632887,236.01763878189377" stroke="#4DD2FF" stroke-linecap="round" stroke-linejoin="round" stroke-width="0.5"><title>2025-04-02 6.9km</title><desc>1743601029000</desc></polyline><polyline fill="none" points="20.755313750822097,268.5 21.40103783342056,267.91794785880484 22.29365641833283,264.7166316180519 25.275382329360582,265.4330144081323 26.509854840347543,259.76904479989025 26.130017144605517,255.58253215104924 23.224258772679605,248.95557841929258 23.205266887904145,248.351082138528 23.77502343140077,247.54508433119918 24.781593324849382,247.05252855930303 28.01021373819094,246.47041567025008 29.510572636150755,245.26140670843597 30.09932106442284,245.17185020603938 30.118312949198298,244.36583992806845 29.35863755783066,242.82097805774538 28.75089724478312,242.86575682619878 28.162148816511035,242.19407427562692 27.66835981211625,242.3060215198493 26.566830494673923,241.63433713953418 25.38933363801334,241.54477905623207 24.173853011918254,241.97017960417725 22.540550920530222,243.9852228644304 20.071605898672715,244.3434507085185 18.22939307463821,245.82113396393834 19.330922391964123,247.88091713511676 20.584386787726544,248.39585970180633 24.93352840328589,246.94058390099963 27.74432735121809,246.53758262630436 29.890410331776366,245.05990452312108 31.31480169063434,245.2390175864566 31.808590695029125,244.70167792809661 30.270248027401976,242.3955792713241 28.579970281687565,243.31354397338873 27.554408503347076,242.12690589981503 26.22497656859923,241.5 23.73703966184985,241.6119476223539 21.4770053725224,242.55230524252693 19.06503600499127,242.95531433366705 19.216971083311364,244.72406710854557 18.191409304970875,246.0450244392996 19.02705223544035,246.828639181811 19.406889931182377,247.94808363007905 20.527411133400165,248.41824847973476 21.685916105285287,247.8361394596286 22.7874454226112,247.76897292815556 24.07889358792454,251.4183226643945 25.08546348148957,252.29147035496135 28.409043318592012,251.5974301854294 30.498150644940324,255.98551568786206 26.47187107068021,257.35117624123814 26.262960338033736,260.77648163713457 25.845138872857206,261.29139189134 24.781593324849382,265.0748233252234 24.553690707543865,265.25391894466884 22.29365641833283,264.8509535813937 21.590956681291573,267.5373744137469" stroke="#4DD2FF" stroke-linecap="round" stroke-linejoin="round" stroke-width="0.5"><title>2025-03-25 6.1km</title><desc>1742909450000</desc></polyline></svg>