<?xml version="1.0" encoding="utf-8" ?>
<svg baseProfile="full" height="300mm" version="1.1" viewBox="0,0,200,300" width="200mm" xmlns="http://www.w3.org/2000/svg" xmlns:ev="http://www.w3.org/2001/xml-events" xmlns:xlink="http://www.w3.org/1999/xlink"><defs /><rect fill="#222222" height="300" width="200" x="0" y="0" /><text fill="#FFFFFF" style="font-size:12px; font-family:Arial; font-weight:bold;" x="10" y="20">Over 5km Runs</text><text fill="#FFFFFF" style="font-size:4px; font-family:Arial" x="10" y="280">Runner</text><text fill="#FFFFFF" style="font-size:9px; font-family:Arial" x="10" y="290">Elliont</text><text fill="#FFFFFF" style="font-size:4px; font-family:Arial" x="65" y="280">SPECIAL TRACKS</text><rect fill="yellow" height="2.6" width="2.6" x="65" y="283" /><text fill="#FFFFFF" style="font-size:3px; font-family:Arial" x="70" y="285.5">Over 20.0 km</text><rect fill="red" height="2.6" width="2.6" x="65" y="287" /><text fill="#FFFFFF" style="font-size:3px; font-family:Arial" x="70" y="289.5">Over 40.0 km</text><text fill="#FFFFFF" style="font-size:4px; font-family:Arial" x="120" y="280">STATISTICS</text><text fill="#FFFFFF" style="font-size:3px; font-family:Arial" x="120" y="285">Number: 30</text><text fill="#FFFFFF" style="font-size:3px; font-family:Arial" x="120" y="290">Weekly: 1.8</text><text fill="#FFFFFF" style="font-size:3px; font-family:Arial" x="141" y="285">Total: 194.5 km</text><text fill="#FFFFFF" style="font-size:3px; font-family:Arial" x="141" y="290">Avg: 6.5 km</text><text fill="#FFFFFF" style="font-size:3px; font-family:Arial" x="167" y="285">Min: 5.0 km</text><text fill="#FFFFFF" style="font-size:3px; font-family:Arial" x="167" y="290">Max: 10.1 km</text><polyline fill="none" points="44.20000000001164,51.757792955795594 37.667029972712044,50.451275457045995 30.290463215264026,47.051942204088846 29.074114441405982,46.64725242366694 22.138964577636216,45.190356440369214 16.910626703000162,44.28845843072486 15.066485013638157,44.24220704419713 12.731880109000485,44.438775297792745 11.799999999988358,44.27689558599377 12.653405994584318,44.438775297792745 14.96839237055974,44.26533273996756 16.930245231604204,44.300021274233586 28.96621253399644,46.65881501023978 30.368937329680193,47.15600504112808 37.362942779262085,50.38190239696996 43.640871934534516,51.6768587106053" stroke="#4DD2FF" stroke-linecap="round" stroke-linejoin="round" stroke-width="0.5"><title>2025-08-10 6.4km</title><desc>1754781124000</desc></polyline><polyline fill="none" points="76.9870478118246,61.55626108053548 71.59387806730228,60.474237947863 65.4794333417376,57.65318700719217 64.31555780419149,57.26673468615627 54.24229698962881,55.29580165910011 53.34070326335495,55.237832377701125 50.52117379204719,55.402078576655185 49.90645079687238,55.25715547573054 49.04583860360435,54.764415161305806 48.44750822157948,54.08810046887811 47.88196306602913,52.76444107601856 47.79999999998836,52.262025039541186 51.38178598534432,49.324766637750145 53.85707057930995,46.65796093567042 56.19301796104992,44.61915320776461 59.13549203137518,42.69625367469416 59.463344295480056,42.541646875892184 60.29117126233177,42.51265807109303 60.610827219847124,42.30007321306039 61.51242094612098,41.304782780127425 62.438603592221625,39.31416839535814 63.27462686569197,38.52177547559404 67.02033898307127,36.50210783219518 71.65125221351627,34.443738919457246 71.65125221351627,35.14919468120934 72.47088287377846,35.68069873866625 72.71677207184257,35.989935996578424 72.8479129775078,36.49244424002973 75.7412092082086,41.642989520260016 76.9296736655524,44.25196958336164 77.67553756642155,45.2858774807828 77.68373387301108,45.58541863808205 78.01978244376369,46.09753504710534 78.62630913234898,47.865763308836904 79.0934986086504,48.69672178959445 79.4869213255588,50.416587863714085 79.61806223122403,52.15574435942108 79.24922843411332,54.648475865971704 79.34758411336225,54.793399961446994 80.19999999998254,55.054262736593955 80.10164432079182,55.82718497347378" stroke="#4DD2FF" stroke-linecap="round" stroke-linejoin="round" stroke-width="0.5"><title>2025-08-08 10.0km</title><desc>1754654808000</desc></polyline><polyline fill="none" points="116.20000000001164,52.53608207771322 107.55573122529313,50.7700001620251 97.64363636361668,46.19619623971812 87.41138339921599,43.99226323430776 83.79999999998836,43.463917922301334 97.41312252962962,46.19619623971812 107.81185770750744,50.92094821378123 115.98229249008,52.49079820710176" stroke="#4DD2FF" stroke-linecap="round" stroke-linejoin="round" stroke-width="0.5"><title>2025-08-07 5.0km</title><desc>1754573743000</desc></polyline><polyline fill="none" points="152.20000000001164,52.552230499946745 143.63477576716105,50.83955599956971 133.84594807238318,46.347440279394505 132.59685287176399,45.971838692668825 119.79999999998836,43.44776950006781 123.20314712822437,44.168936839472735 123.4835562549415,44.04874254472088 124.2355625492055,44.36425234503986 133.14492525567766,46.182175707261194 143.74948859162396,50.959744377527386 151.62643587723142,52.53720713182702" stroke="#4DD2FF" stroke-linecap="round" stroke-linejoin="round" stroke-width="0.5"><title>2025-08-04 5.0km</title><desc>1754309955000</desc></polyline><polyline fill="none" points="188.20000000001164,51.77042346964299 181.72393084620126,50.473111536543 174.25532302091597,47.04442525465129 173.13503184716683,46.67374984667549 161.28353048226563,44.333831515410566 159.20018198364414,44.229576530364284 156.66478616930544,44.42650252742169 155.79999999998836,44.24116042262176 155.98671519570053,44.38016703152243 157.17579617834417,44.461254136127536 160.60545950866072,44.27591209189268 165.3126478617196,45.202619082941965 166.069335759792,45.21420286924695 167.3763421291951,45.60805085233733 173.0072793448344,46.68533347274206 174.56979071884416,47.241346039634664 181.60600545955822,50.46152832303778 187.5317561419797,51.65459269036364" stroke="#4DD2FF" stroke-linecap="round" stroke-linejoin="round" stroke-width="0.5"><title>2025-08-03 6.5km</title><desc>1754227262000</desc></polyline><polyline fill="none" points="40.44720349065028,92.5948305882921 31.84918683063006,90.88303816139523 21.01491471636109,86.06566853886761 11.799999999988358,84.1871521503781 21.81174137245398,86.27775750492583 32.18333994445857,91.01937638338131 44.20000000001164,93.41284784961317 40.71709639031906,92.62512760967365 40.71709639031906,92.39789978848421" stroke="#4DD2FF" stroke-linecap="round" stroke-linejoin="round" stroke-width="0.5"><title>2025-08-01 5.0km</title><desc>1754057984000</desc></polyline><polyline fill="none" points="77.10022779041901,102.3244499319917 71.57312072892091,101.23221308858774 65.4883826879086,98.42906587157631 64.18451025054674,98.01341926433088 54.343963553517824,96.10915294206643 52.54806378131616,96.05115434180334 50.76036446468788,96.20581719158508 49.907517084269784,96.05115434180334 49.20227790431818,95.65482955887273 48.685649202700006,95.16183772453951 48.09521640089224,94.04051276499376 47.79999999998836,93.06417518301896 51.416400911140954,90.06742838732316 53.925740318896715,87.38960449384467 56.221867881540675,85.37876663293719 57.95216400909703,84.38299831917539 59.305239179957425,83.38721882831305 60.26469248291687,83.29054061255738 60.609111617319286,83.0778481670277 61.658769931673305,81.86935868261207 62.47881548971054,80.05175949615659 63.282460136688314,79.3266430449512 67.1202733485261,77.21893757008365 71.61412300678785,75.27555006801413 71.68792710703565,75.90401337163348 72.34396355351782,76.3584379093154 73.02460136672016,77.57667092734482 73.44282460134127,78.74654561604257 74.47608200454852,80.88321906484634 77.16583143506432,85.92015054051444 77.52665148061351,87.00290844473784 78.59271070614341,89.2360548906654 79.31435079724179,91.72048510379682 79.36355353074032,93.26717695097614 79.26514806377236,93.82784608797374 79.5193621867511,94.01151279359328 79.28154897489003,95.47116625442868 80.19999999998254,95.81915956170269 80.16719817763078,96.292814926157" stroke="#4DD2FF" stroke-linecap="round" stroke-linejoin="round" stroke-width="0.5"><title>2025-07-28 10.0km</title><desc>1753704756000</desc></polyline><polyline fill="none" points="113.01867203216534,92.77275033085607 104.41344064386794,91.05152801962686 94.55653923540376,86.53321956422587 92.95283702207962,85.99531606357777 83.79999999998836,84.16642882322776 93.95678068406414,86.34879573786748 102.44466800807277,90.34459134563804 104.64812877262011,91.17447316665493 116.20000000001164,93.43357117679261 113.14905432594242,92.74201440227625 113.30551307846326,91.74309307834483" stroke="#4DD2FF" stroke-linecap="round" stroke-linejoin="round" stroke-width="0.5"><title>2025-07-22 5.0km</title><desc>1753194638000</desc></polyline><polyline fill="none" points="138.22918149462203,90.51023195129528 148.96192170813447,92.63939075106464 152.19999999995343,92.8319189191534 149.37508896790678,92.67336633603554 131.6857651245664,89.20779949627467 123.97010676155332,85.70813931852172 119.79999999998836,84.76808108084515 123.92206405696925,85.73079121940827 131.15729537361767,89.07189256115817 134.135943060508,89.7061234055509" stroke="#4DD2FF" stroke-linecap="round" stroke-linejoin="round" stroke-width="0.5"><title>2025-07-19 6.4km</title><desc>1752877000000</desc></polyline><polyline fill="none" points="185.23281607733225,102.41269492981519 179.71879928768612,101.31490104319528 173.45474433986237,98.44891527784057 172.38326125667663,98.10887695785641 162.2041719664121,96.14634475246567 158.67651996944915,96.26293203046225 157.90999745609588,96.11719790916686 157.192928008124,95.69942544175137 156.49234291526955,94.96103210904403 155.8824217756046,93.59110197170958 155.79999999998836,93.09559014438128 159.4018315949943,90.11274509541545 161.78382091069943,87.52817978591338 164.13284151616972,85.47796379897045 167.00111930808634,83.56373854728008 167.50389213938615,83.32081362250756 168.27041465276852,83.28194557312236 168.81439837190555,82.9418494182828 169.70455354871228,81.88268451067415 170.5040447723295,80.0655557715072 171.35298906132812,79.27844573098992 175.52353090816177,77.00453324327827 179.78473670824314,75.18730507019063 179.7929788857582,75.88699089158035 180.45235309080454,76.3242917411335 180.88918850160553,77.13086323645985 181.78758585598553,79.19098863085674 184.55695751716848,84.39939523415524 185.28226914271363,86.13870206113643 185.48008140421007,86.32331922985759 186.72465021623066,89.51033431223186 187.00488425337244,89.90870318910311 187.4499618417467,91.57017370717949 187.53238361742115,92.66808753220539 187.40050877639442,94.33922245594295 186.99664207579917,95.90345410053123 188.19999999998254,96.17549158624752" stroke="#4DD2FF" stroke-linecap="round" stroke-linejoin="round" stroke-width="0.5"><title>2025-07-17 10.0km</title><desc>1752756134000</desc></polyline><polyline fill="none" points="44.199999999953434,134.17201448856213 35.61035163962515,132.4518967067561 24.7164757012506,127.60829243420449 11.799999999988358,125.02798551143496 25.292532595805824,127.84972220222699 35.36712761753006,132.43680785976176 43.80316080595367,134.1569258289237" stroke="#4DD2FF" stroke-linecap="round" stroke-linejoin="round" stroke-width="0.5"><title>2025-07-14 5.0km</title><desc>1752500928000</desc></polyline><polyline fill="none" points="80.20000000001164,134.13868621044094 71.61235340102576,132.4516542447236 62.73338545736624,128.33102870993025 60.63080531661399,127.56959521552199 47.79999999998836,125.0613137895707 61.46677091473248,127.7935466823401 71.764347146207,132.51137254483183 79.28803752933163,134.01925100189692" stroke="#4DD2FF" stroke-linecap="round" stroke-linejoin="round" stroke-width="0.5"><title>2025-06-21 5.0km</title><desc>1750468889000</desc></polyline><polyline fill="none" points="105.96763828318217,131.5897805948116 114.39297681886819,133.27265378578159 116.19999999998254,133.36906733006617 114.64581133803586,133.27265378578159 100.8737663529464,130.5817928242177 99.39394078491023,130.00328979354526 94.96933669951977,127.89960735629575 94.18852421388146,127.64540867148025 85.1608446178434,125.89229243011505 83.79999999998836,125.83093266993819 85.00468212072155,125.85722971576615 88.52205646081711,126.50588745874848 94.85035574936774,127.87331097783317 99.55753959142021,130.09970725409948 100.7622217121534,130.56426249045035 102.07101216429146,130.82721709617908" stroke="#4DD2FF" stroke-linecap="round" stroke-linejoin="round" stroke-width="0.5"><title>2025-06-17 8.1km</title><desc>1750165544000</desc></polyline><polyline fill="none" points="152.19999999995343,134.1190818750474 144.03109048720216,132.4946197256795 133.38143851503264,127.73926411751017 119.79999999998836,125.08091812494968 133.40649651968852,127.79833788095857 143.85568445472745,132.4798517987074 150.74663573078578,133.88279768083885" stroke="#4DD2FF" stroke-linecap="round" stroke-linejoin="round" stroke-width="0.5"><title>2025-06-15 5.0km</title><desc>1749939796000</desc></polyline><polyline fill="none" points="178.18833794421516,131.45715379578905 185.83498616723227,132.98503689665813 188.19999999998254,133.13132193580532 186.3383273036743,133.0175447079164 173.54105128749507,130.5306562553742 172.29304107255302,130.05927589906787 168.1215152159566,128.07619489211356 167.1906788678316,127.76734966463846 158.7786763141048,126.14182739874377 157.758203873178,126.06867806419905 155.79999999998836,126.22310435305553 158.57871887634974,126.12557199727598 166.83213449668256,127.71858451188746 167.83192168545793,127.994919956167 170.21762077038875,129.1246336293989" stroke="#4DD2FF" stroke-linecap="round" stroke-linejoin="round" stroke-width="0.5"><title>2025-06-11 8.1km</title><desc>1749642919000</desc></polyline><polyline fill="none" points="44.199999999953434,174.9091344786575 35.78278402477736,173.28026316486648 25.20473051565932,168.55642600619467 11.799999999988358,165.8908655213454 25.355486622662283,168.61566009008675 35.8707250871812,173.35430319333682 42.80550601007417,174.74624822533224" stroke="#4DD2FF" stroke-linecap="round" stroke-linejoin="round" stroke-width="0.5"><title>2025-06-08 5.0km</title><desc>1749387304000</desc></polyline><polyline fill="none" points="60.35216783173382,179.1076168245345 63.84139860118739,177.02423904728494 71.18237762222998,175.68873581566731 74.89818181819282,172.91087744099787 78.9311888110824,173.01771843861206 80.01874125842005,172.1095692156814 72.85902097891085,160.46374183802982 68.01034965016879,161.42533439330873 63.38825174816884,164.14983639039565 60.805314685218036,164.14983639039565 56.68167832144536,166.0730051548162 49.92979020951316,167.46195568150142 50.156363636255264,171.84246618289035 47.800000000046566,174.780591540155 49.79384615365416,176.9708189878147 50.65482517471537,179.69523459713673 51.92363636358641,180.49653042448335 59.808391608064994,178.84051760428702 63.97734265727922,176.9708189878147 70.04951048921794,176.1695173981716 75.12475524446927,172.91087744099787 78.70461538434029,173.0711389288772 80.15468531451188,171.84246618289035 72.85902097891085,160.30347622878617 67.46657342626713,161.47875614656368 63.47888111858629,164.096414928179 59.85370629350655,164.47036504175048 55.41286713257432,166.44695376066375 50.06573426560499,167.35511347296415 50.20167832146399,172.1095692156814 47.800000000046566,174.780591540155 49.92979020951316,177.0776591009926 51.017342657083645,179.85549386718776 52.558041957905516,180.60336976926192 64.9742657339666,176.81055877465406 70.18545454507694,176.2229375448369 74.67160839145072,173.17797989177052 78.84055944019929,173.12455941326334 80.19999999995343,171.7890455587767 72.36055944045074,160.1432105670974 67.01342657301575,161.79928654426476 63.297622377518564,164.096414928179 50.29230769188143,167.08800784987397 50.24699300690554,171.84246618289035 47.84531468502246,174.67375092674047 49.884475524304435,176.9708189878147 50.65482517471537,179.53497527443687 52.965874125715345,180.65678943292005 71.27300699264742,175.1011132413114 73.53874125843868,172.0561486208171 72.85902097891085,169.01116508842097 69.86825174815021,165.27168575313408 67.33062937040813,163.9895719863125 65.15552447526716,163.88272902093013 62.66321678296663,164.89773625083035 58.63020979007706,169.7590575326758 52.19552447553724,170.82747333109728 48.343776223715395,173.8724455826159 48.207832167623565,175.15453350436292 50.38293706276454,177.77211926796008" stroke="#4DD2FF" stroke-linecap="round" stroke-linejoin="round" stroke-width="0.5"><title>2025-06-04 6.4km</title><desc>1749041988000</desc></polyline><polyline fill="none" points="116.19999999995343,174.93875112554815 107.89585110504413,173.28026415030763 98.43590538966237,168.91183110784914 97.0037223729887,168.43795874642092 83.79999999998836,165.8612488744402 97.38061264058342,168.58604403675417 107.70740597130498,173.2506481276214 114.60449786734534,174.6722099401668" stroke="#4DD2FF" stroke-linecap="round" stroke-linejoin="round" stroke-width="0.5"><title>2025-05-28 5.0km</title><desc>1748436903000</desc></polyline><polyline fill="none" points="152.20000000001164,174.92456418641086 143.2028481012676,173.0815510553075 132.78306962025817,168.3681601844437 119.79999999998836,165.86032924975734 132.36012658226537,168.2775164826453 133.9237341772532,168.77605610944738 143.95901898737065,173.36857930020778 152.0462025316665,174.93967075023102" stroke="#4DD2FF" stroke-linecap="round" stroke-linejoin="round" stroke-width="0.5"><title>2025-05-27 5.0km</title><desc>1748351986000</desc></polyline><polyline fill="none" points="179.79371806641575,177.08368262184376 179.83701650006697,175.14398837155022 180.8545296920929,172.84057387856592 181.52565541444346,168.56705454380426 181.48235698067583,168.96107127694995 180.50814222241752,169.08230701861612 175.7669637320796,172.44656576981652 173.97007873351686,172.87088215838594 173.25565457739867,171.68885540636256 174.0783248177031,170.3552772992989 175.59376999735832,169.17323377044522 175.35562861186918,167.14252520039736 176.07005276798736,165.83922236735816 175.11748722661287,165.2936508938874 171.6319633135572,165.35427002950746 170.72269620583393,164.02064425831486 171.0257852417417,162.44452813603857 171.69691096409224,162.65669843043725 171.6319633135572,161.62615462121903 172.62782728869934,162.23235758765077 174.4463615042623,162.17173738431302 175.89685903326608,163.14165814955777 177.86693776666652,163.20227802124282 178.66795879020356,162.8082484852639 180.638037523604,160.0500172045431 180.72463439090643,155.4427659226203 180.01021023490466,154.62436007535143 178.88445095869247,154.20000000001164 177.49890108022373,154.59404867512058 176.26489571970887,155.95805655424192 175.31233017821796,156.29147910574102 173.36390066170134,155.92774538205413 171.30722506076563,154.80622836806288 169.42374319478404,155.4427659226203 168.47117765329313,156.8977003195614 168.51447608706076,158.44355502886174 169.3371463273652,159.59535957562912 171.19897897657938,160.4743632725149 171.6319633135572,161.53522399745998 170.78764385636896,163.5053770681261 171.3938219283009,165.32396046434587 171.54536644613836,167.83963673521066 170.74434542260133,170.56743812395143 171.37217271130066,171.32515328133013 173.21235614374746,171.77978082097252 173.92678029974923,172.87088215838594 172.28143981914036,175.5379904841102 170.24641343508847,176.3562997655099 166.84748638956808,178.8415122010192 164.37947566853836,179.90226299580536 163.81659603037406,181.35699662024854 162.43104615190532,182.87233145003847 163.62175307876896,186.26663445973827 164.70421392121352,186.50908218759287 166.1330622334499,185.63020759649226 167.80005193094257,186.3272464228794 169.0124080745736,186.17571647636942 169.96497361606453,185.175615580898 170.6577485552989,182.66018535368494 172.30308903590776,181.75098492222605 176.07005276798736,182.9329445737967 177.49890108022373,182.23589239937428 179.7287704157643,182.11466565453156 179.85866571695078,175.386451313796 181.5689538482111,169.38539600995136 181.30916324595455,168.96107127694995 180.6596867403714,169.02168915818038 175.78861294896342,172.4768741169537 174.0350263840519,172.84057387856592 172.10824608430266,175.62891392421443 170.05157048348337,176.44722278580593 166.82583717268426,178.8415122010192 164.50937096960843,179.75072755664587 163.81659603037406,181.44791707542026 162.43104615190532,182.99355767673114 163.5135069944663,186.11510446149623 164.22793115058448,186.60000000000582 166.0031669322634,185.63020759649226 168.0381933163153,186.35755239658465 169.40209397790022,185.8120440763596" stroke="#4DD2FF" stroke-linecap="round" stroke-linejoin="round" stroke-width="0.5"><title>2025-05-23 6.4km</title><desc>1747958832000</desc></polyline><polyline fill="none" points="30.94369621016085,212.71309194077912 31.82054188963957,213.54610326240072 34.01265608868562,213.8968440618046 35.108713188092224,215.2998024609551 34.82686993398238,220.8238765302376 34.29449934279546,221.83222641106113 32.38422839809209,222.40216154603695 30.50527337042149,221.74454397027148 28.75158201099839,222.13911471805477 25.776569883921184,220.3854623016523 23.991562607581727,221.08692470760434 22.676294088247232,220.86771791194042 23.05208509368822,219.5963148008741 22.112607579911128,217.14117370890744 22.394450834020972,215.38748710595246 21.392341485945508,213.7214737220056 21.830764325684868,211.09090423106682 28.156579585629515,210.82784579742292 30.317377867526375,211.61702028854052 31.44475088408217,213.41457533881476 33.856076502939686,213.8530014880671 34.92081768531352,214.8613787858485 34.82686993398238,220.95540065264504 34.357131177093834,221.83222641106113 32.509492066456005,222.35832042683614 30.72448479011655,221.7883851944207 28.688950176816434,222.09527355388855 25.71393804962281,220.42930375821015 21.924712077132426,221.21844869504275 19.889177463715896,222.8844133629318 20.546811723383144,223.3666642728058 21.047866397420876,225.9971078132221 24.116826276062056,227.39999999999418 25.432094795512967,226.4793528681621 26.308940475108102,224.6818894163589 26.183676806511357,223.27898235662724 24.555249115801416,220.6923523402802 26.183676806511357,220.42930375821015 28.720266094082035,222.09527355388855 30.72448479011655,221.52533773674804 30.47395745315589,220.86771791194042 28.438422839855775,220.91155928604712 27.342365740332752,219.508631595294 28.375791005557403,215.38748710595246 25.682622132473625,211.2662763702101 25.870517635252327,207.97802879850497 26.590783729217947,206.57503033145622 28.03131591703277,205.7419963588909 30.75580070738215,206.61887414987723 32.979230823460966,206.0489039269014 30.47395745315589,208.50415124426945 27.874736331403255,208.37262073408056 26.308940475108102,207.18884310570138 23.897614856250584,206.66271796062938 23.96024669043254,201.31371769617544 25.024987872806378,199.07762712895055 25.087619706988335,195.7453775452741 25.745253966771998,195.08769158831274 27.749472662922926,195.0 33.511601414647885,195.8330688787537 34.70160626550205,196.88536254037172 35.108713188092224,199.07762712895055 36.110822536284104,200.1737523930642 35.45318827650044,201.05064922999009 35.860295199323446,201.62063056555053 33.88739242020529,202.80443390549044 33.668181000160985,205.5666204407462 30.75580070738215,208.41646424491773 28.469738756888546,208.50415124426945 26.214992723660544,207.05731192059466 24.022878524614498,206.79424934805138 23.92893077339977,201.62063056555053 25.275515209767036,197.14843528077472 26.684731480665505,196.6222895298706 26.716047397698276,195.30692042817827 33.135810408974066,195.7015318673948" stroke="#4DD2FF" stroke-linecap="round" stroke-linejoin="round" stroke-width="0.5"><title>2025-05-20 5.0km</title><desc>1747754393000</desc></polyline><polyline fill="none" points="75.90711297094822,213.464147830382 78.93472803360783,213.8370483055478 80.20000000018626,212.50525958879734 72.69874477013946,201.21154544281308 67.45690376590937,202.49009221568122 63.38995815929957,204.8873584024841 60.85941422590986,204.99390329353628 54.71380753163248,207.3378850214649 49.7882845189888,208.0304229267349 50.19497907953337,212.5585312070325 47.800000000046566,215.64827513843193 49.7882845189888,217.40622417710256 50.5112970713526,219.85668804805027 51.59581589954905,220.92210329169757 53.6292887032032,221.24172741203802 63.79665271984413,217.93893475912046 69.85188284539618,217.0865975494089 75.09372384962626,213.62396235472988 78.93472803360783,213.73050534186768 80.1096234312281,212.71834602724994 72.87949790805578,201.2648182917037 70.89121338911355,201.31809113477357 63.570711297215894,204.78081348835258 60.226778242737055,205.15372058661887 56.02426778245717,207.07152402735665 49.42677824292332,208.29678339828388 50.375732217915356,211.8127280223125 47.800000000046566,215.59500385684078 49.69790795003064,217.19313978176797 50.28535564872436,219.43052130067372 51.641004184260964,220.86883258470334 53.6292887032032,221.13518606196158 64.65523012564518,217.51276633996167 70.57489539775997,216.76697071266244 74.86778242676519,213.73050534186768 78.97991631808691,213.73050534186768 80.1096234312281,212.61180281965062 72.87949790805578,201.31809113477357 71.29790794989094,201.15827258798527 67.23096234328113,202.49009221568122 63.70627615065314,204.78081348835258 60.81422594143078,204.8873584024841 55.3916317995172,207.17806844238658 50.01422594161704,208.1369671326538 50.28535564872436,212.34544469899265 47.89037656923756,215.48846127602155 49.69790795003064,217.2996819910477 50.96317991637625,220.442666719493 53.81004184111953,221.08191537801758 62.98326359852217,217.9922057852964" stroke="#4DD2FF" stroke-linecap="round" stroke-linejoin="round" stroke-width="0.5"><title>2025-05-14 5.0km</title><desc>1747227249000</desc></polyline><polyline fill="none" points="95.27369319985155,227.04866889973346 95.93367297830991,226.4463857671799 96.8917081404943,222.88284501698217 99.76581362693105,223.33456450070662 101.3199595566839,217.11079587426502 101.02190417295787,213.12046866180026 98.02006066485774,205.61645858293923 98.14779868652113,203.9349244708137 100.23418637306895,202.80552899709437 103.34247823245823,202.27847588087025 105.34370723797474,200.89809295641317 106.98301184864249,201.04868058656575 107.6004122865852,200.3961334782798 104.30051339464262,195.12549291203322 103.47021625400521,194.99999999998545 101.19222153513692,195.82825195614714 99.76581362693105,196.8070913370757 98.53101275127847,196.8321897280839 96.01883165934123,197.8361231240997 93.44278155663051,198.21259701950476 93.61309891880956,200.17025135620497 92.3995877134148,201.70122584608907 92.61248441610951,202.2533780833037 93.33633320522495,202.73023576858395 94.06018199457321,204.41177867497026 94.97563781612553,204.51216890793876 103.15087120002136,202.0525956047495 104.06632702169009,201.24946394014114 104.40696174604818,200.17025135620497 104.00245801080018,198.76475761958864 102.57605010271072,197.23376361155533 100.830297140521,196.6815993412456 99.29744088102598,197.1082718481921 97.25363253511023,199.4173093496065 94.33694770804141,199.91927096083236 92.65506375662517,201.42514923102863 92.69764309725724,202.2533780833037 94.97563781612553,204.0102173055784 97.57297758909408,203.73414345801575 103.08700218924787,202.0525956047495 104.27922372438479,200.94828884406888 104.34309273515828,199.7435845213331 103.47021625400521,198.16240053567162 101.40511823783163,196.7568945469393 98.53101275127847,196.8572881163127 95.82722462690435,197.93651622305333 93.40020221611485,198.41338284539233 93.59180924855173,200.27064343779057 92.42087738367263,201.8016172604257 93.35762287559919,202.73023576858395 93.82599562150426,204.08551011563395 94.91176880523562,204.53726645938877 96.18914902152028,203.8847292340797 98.5523024215363,203.48316694586538 97.99877099459991,204.51216890793876 98.06264000525698,205.31528919663106 100.74513845948968,212.04131169285392 101.3838285675738,215.15328550089907 101.14964219462126,218.64165778126335 100.08515868103132,222.631889365628 97.33879121614154,222.2303597547725 96.25301803229377,225.8942915124935 95.42272089188918,226.24562437302666 95.08208616753109,227.39999999999418 94.63500309188385,227.22433451685356" stroke="#4DD2FF" stroke-linecap="round" stroke-linejoin="round" stroke-width="0.5"><title>2025-05-06 7.1km</title><desc>1746539597000</desc></polyline><polyline fill="none" points="132.18021233729087,227.39999999999418 131.96068431064487,227.14123156382993 132.99246603576466,223.6995845601923 135.60484955227003,224.32063733020914 136.06585840811022,223.51844386309676 137.4269321729662,217.79950226689107 137.383026567637,214.95291893200192 133.49738049693406,204.18734986765776 132.44364596926607,203.95443552928919 130.9508553884225,204.67905716552923 130.0288376766257,204.49790196369577 128.29456626658794,201.80643697528285 129.4800176101271,200.5124525669089 129.19463117560372,198.44206284967368 130.7313273617765,198.364422884144 135.8682831841288,196.91513886964822 137.5366961862892,195.87993058757274 140.28079651866574,195.05176071304595 143.8151977470843,200.46069304386037 143.3761416937923,201.15944565233076 141.44429505977314,200.97828776601818 139.38073160964996,202.47930608168826 136.24148082942702,202.94513742328854 134.39744540583342,203.82503857582924 132.04849552141968,204.13559114560485 130.6215633484535,204.7308157691732 129.6995456367731,204.34262596644112 129.17267837293912,202.89337843043904 128.33847187180072,202.27226963655266 128.33847187180072,201.78055735622183 129.4800176101271,200.25365483920905 129.17267837293912,198.46794283251802 131.58748666546308,198.15738285207772 135.80242477625143,196.81161824449373 139.79783486027736,194.99999999998545 140.41251333465334,195.2070427845465 143.7932449443033,200.46069304386037 143.4639529044507,201.10768627036305 141.59796467830893,200.97828776601818 138.89776995114516,202.66046282305615 136.7024896851508,202.81573991998448 130.7313273617765,204.67905716552923 129.8093096499797,204.42026397777954 129.2165839781519,202.89337843043904 128.33847187180072,202.22051049715083 129.4580648074625,200.3054144072521 129.19463117560372,198.44206284967368 131.4996754549211,198.15738285207772 135.62680235493463,196.8892587176524 137.0976401331136,195.98345161882753 139.84174046549015,194.99999999998545 140.34665492665954,195.2070427845465 143.7712921416387,200.43481327817426 143.4420001017861,201.0818065750209 141.44429505977314,200.9524080567062 139.31487320177257,202.50518562465732 136.219528026646,202.94513742328854 134.00229495798703,203.90267675637733 132.18021233729087,204.05795304119238 130.77523296698928,204.70493646878458 129.7434512419859,204.31674662373553 129.19463117560372,202.89337843043904 128.31651906913612,202.24639006826328 128.29456626658794,201.80643697528285 129.17267837293912,200.9524080567062 128.14089664781932,201.9099554234126 129.10681996494532,203.04865537515434 129.5458760181209,204.2391085785348 130.4898465325823,204.8084536537208 135.9560943946708,203.10041433414153 139.22706199111417,202.71222186667728 141.33453104645014,201.10768627036305 143.2883304831339,201.10768627036305 143.8591033522971,200.5124525669089 140.19298530824017,194.99999999998545 137.4049793703016,195.8281700550724 135.67070796026383,196.9410190188646 134.11205897142645,197.04453958770318 131.71920348145068,198.0279827404156 128.8872919382993,198.59734270452464 129.37025359692052,200.25365483920905 128.25066066114232,201.62527958248393 128.20675505581312,202.2981492021063 129.08486716228072,202.9710169154423 129.4800176101271,204.18734986765776 130.3142241112655,204.70493646878458 133.49738049693406,204.16147050804284 136.9220177117968,213.06380388855177 137.3171681596432,215.0823098236433 137.4049793703016,217.69599074330472 135.8463303814642,224.08774273170275 132.86074921977706,223.72546179131314 132.20216513983905,226.85658595852146 131.85092029743828,227.14123156382993" stroke="#4DD2FF" stroke-linecap="round" stroke-linejoin="round" stroke-width="0.5"><title>2025-04-29 10.1km</title><desc>1745929124000</desc></polyline><polyline fill="none" points="186.95545964606572,208.10954848476104 186.41009926627157,207.64802204543957 186.71773845492862,205.95025196015195 185.9486404833733,208.48865843554086 185.36132930516033,208.57107351659215 183.6133793698391,215.42785106152587 183.41760897717904,215.47729784838157 174.51005610701395,213.7136857979931 163.15537332755048,208.60403953642526 155.79999999998836,207.0381456632458 163.09943892958108,208.620522543657 172.06292619759915,212.82363079232164 174.60794130334398,213.77961559017422 188.19999999995343,216.44974803984223 183.54346137243556,215.4443333255913 183.83711696154205,214.24112333147787 184.66214933095034,214.04333447181853 186.5359516615863,206.16453467166866 186.89952524809632,206.03266842357698 186.41009926627157,207.31835944132763" stroke="#4DD2FF" stroke-linecap="round" stroke-linejoin="round" stroke-width="0.5"><title>2025-04-22 6.3km</title><desc>1745328842000</desc></polyline><polyline fill="none" points="23.299490722594783,267.2478983969777 23.837973885703832,267.00987241284747 24.95981380867306,263.33366369509895 27.831724011572078,263.75682724542276 29.334989508381113,258.2820918616635 29.088184725376777,252.75433523743413 25.96946973935701,245.11048356020183 25.902159343939275,243.78799344987783 27.584919228567742,242.41259609241388 31.129933385178447,241.8306948645186 33.68772840965539,240.16433363167744 35.370488294167444,240.3230351943057 36.06602904642932,239.71467864087026 34.56276354950387,237.3605889173341 32.543451688135974,238.39215913439693 30.928002199041657,236.5141690547316 29.20036871766206,235.79999999998836 25.96946973935701,236.06450730234792 23.770663490286097,237.04318181470444 20.809006093535572,237.54574286883872 21.257742062793113,239.39727461643633 19.956407752120867,241.2752423912607 20.92119008593727,242.09519559555338 21.414799652062356,243.47059475140122 22.424455582746305,243.9995923517272 26.10409053019248,243.12674569300725 28.235586383845657,242.200995807274 31.04018619132694,241.8306948645186 33.35117643268313,240.2701346850372 35.370488294167444,240.2965849411994 36.04359224787913,239.6617779989465 34.58520034805406,237.3605889173341 32.56588848656975,238.3392582043016 30.928002199041657,236.48771838650282 29.334989508381113,235.82645074321772 25.857285747071728,236.06450730234792 23.81553708727006,237.01673120411579 21.36992605519481,237.38703949046612 21.03337407822255,237.65154506346153 21.212868465925567,239.476625661453 19.956407752120867,241.14299161508097 20.876316488953307,242.09519559555338 21.34748925664462,243.49704465875402 22.312271590461023,244.05249204830034 28.28045998082962,242.17454575873853 30.950438997591846,241.8835950338107 33.37361323123332,240.2701346850372 35.46023548790254,240.2701346850372 36.021155449561775,239.60887734554126 34.5403267510701,237.3076877623971 32.453704494284466,238.31280773485196 30.905565400607884,236.48771838650282 29.536920694517903,235.9058029555017 26.530389700899832,235.93225368714775 23.591169102699496,237.04318181470444 21.325052458094433,237.38703949046612 21.010937279672362,237.6250945191423 21.16799486905802,239.71467864087026 19.933970953687094,241.22234208942973 20.943626884371042,242.14809570726356 21.392362853512168,243.49704465875402 22.132777202758007,243.9731424991187 31.152370183728635,241.4868434832897 32.251773308147676,240.5875375681353 32.63319888187107,239.23857244863757 32.31908370356541,238.23345630936092 31.219680579029955,236.88447810782236 29.492047097650357,235.8529014835658 26.507952902349643,235.95870441598527 23.501421908731572,237.12253362929914 20.98850048123859,237.54574286883872 21.257742062793113,239.34437390536186 19.956407752120867,241.16944177603 21.055810876656324,242.51839616584766 20.62951170594897,243.338345171127 21.7513516289182,245.63947758708673 22.626386768883094,249.50109906271973 23.0078123427229,253.83873760823917 22.918065148754977,256.6951889633783 20.71925889980048,267.4594768535753 22.312271590461023,268.1999999999971" stroke="#4DD2FF" stroke-linecap="round" stroke-linejoin="round" stroke-width="0.5"><title>2025-04-15 8.8km</title><desc>1744723077000</desc></polyline><polyline fill="none" points="79.98707557527814,248.53866069864307 79.0466593648307,248.47591465171718 79.73866374604404,246.44711475151416 78.92245345038828,249.83540774541325 79.11763417324983,250.35828714176023 78.03526834619697,253.95565879633068 76.9883899234701,253.97657355075353 77.00613362551667,254.8549911808077 75.7995618841378,258.7659923363972 64.03548740432598,256.4235840979236 50.55027382262051,250.17005072309985 47.800000000046566,249.3752726988896 50.74545454559848,250.3164568424545 64.01774370216299,256.4444985836453 75.83504928823095,258.7450781035295 76.22541073395405,257.17650414750096 77.11259583802894,257.07193209489924 77.87557502742857,254.8549911808077 80.20000000006985,245.23400766360282 79.57897042739205,248.68506806186633" stroke="#4DD2FF" stroke-linecap="round" stroke-linejoin="round" stroke-width="0.5"><title>2025-04-11 5.1km</title><desc>1744377642000</desc></polyline><polyline fill="none" points="93.12313802994322,268.1999999999971 94.21896318928339,266.9873848914576 94.50969231326599,267.8836662095273 95.60551747272257,266.9873848914576 96.83552530466113,263.270418118409 99.72045276535209,263.9294589437486 100.23481967684347,263.74492769356584 101.57664640271105,257.9716646618763 101.66610151785426,254.80817445395223 101.10700704879127,251.9873608075868 97.88662290666252,244.97472832536732 97.79716779163573,243.78836062595656 99.3626323051285,242.47016747105226 102.96320068615023,241.89016020782583 105.46794390771538,240.17649426251592 107.10049975756556,240.33467931974155 107.92795957194176,239.64920999133028 106.16122104949318,236.88094871563953 104.30502741201781,237.96189260190295 102.11337709322106,236.116375733749 100.14536456181668,236.01091720178374 99.0942669599317,236.51184481907694 96.96970797725953,238.8319171002804 93.92823406530079,239.28011031786446 92.16149554296862,240.80923387102666 92.07204042794183,241.31015155436762 92.98895535734482,242.07470812418615 93.3691395962378,243.31381191739638 94.37550964066759,243.89381576803862 103.20920225267764,241.4156077765365 104.41684630594682,240.25558680405084 104.55102897831239,238.96373872103868 103.23156603134703,236.90731325808156 101.10700704879127,235.8000000000029 98.2444433667697,235.9581879185862 95.44897102133837,237.03913592742174 93.03368291480001,237.46096798675717 93.2349569236394,239.30647459896863 92.07204042794183,240.73014151045936 92.07204042794183,241.23105935748026 92.98895535734482,241.99561617728614 93.950597844203,243.86745198676363 94.93460410973057,243.89381576803862 96.25406705692876,243.20835652251844 97.46171111019794,243.31381191739638 100.99518815486226,252.67279518512078 101.42009995144326,255.12452533574833 101.28591727884486,257.6553175020381 100.03354566800408,263.00680128581007 97.14861820742954,262.5586520112847 96.00806549051777,266.0383775251248" stroke="#4DD2FF" stroke-linecap="round" stroke-linejoin="round" stroke-width="0.5"><title>2025-04-08 5.6km</title><desc>1744119870000</desc></polyline><polyline fill="none" points="131.42609324876685,265.467352610096 132.30328084493522,264.18718210881343 132.97161425137892,261.33139101584675 135.74937497230712,261.84839035412006 137.2322397181997,256.1367129800201 137.29489597503562,253.82245778033393 136.89807301491965,251.5574191056221 134.05765603715554,244.51595823957177 134.05765603715554,243.1618059954344 135.62406245875172,242.00461492025352 138.90307323471643,241.51219138874148 141.07515680592041,240.03491435569595 142.95484451181255,240.03491435569595 143.45609456673265,239.39475797546038 141.80614646931645,236.78487088649126 139.78026083076838,237.5727645050356 137.85880228690803,235.9723527150345 134.76776028156746,235.89848728186917 131.90645788470283,236.957222850353 129.5255201238906,237.40041301076417 129.65083263767883,239.39475797546038 128.54390543315094,240.72431150634657 129.35843677225057,241.65991856089386 129.83880140830297,243.03870084360824 131.133697383455,243.48187907638203 132.2823954259511,242.866353518315 134.22473938867915,242.64476390699565 136.1253125135554,241.80764563645062 139.02838574838825,241.38908533820359 141.22135473857634,239.93642887682654 140.88718803529628,240.60120502659993 141.43020892806817,239.78870057794848 143.03838618763257,239.91180750043713 143.39343830989674,239.2962722174998 142.0985423347447,237.20343971348484 140.26062546670437,238.16368291596882 138.7986461397959,236.46478831929562 137.25312513718382,235.8000000000029 134.62156234891154,235.87386546542984 132.05265581747517,236.90797944554652 129.5881763807265,237.30192638355948 129.5672909617424,239.49324369047827 128.60656168987043,240.4780984797544 128.54390543315094,240.97052426474693 129.37932219123468,241.7091609301424 129.60906179982703,242.7432482055301 130.73687442333903,243.45725808628777 132.2197391691152,242.84173246109276 134.14119771285914,242.64476390699565 135.89557290507946,241.8568879734521 137.56640642147977,241.63529737225326 137.7543751921039,243.03870084360824 142.03588607779238,251.72975980272167 137.6708335162839,253.25620023989177 137.42020848882385,257.12149523910193 136.35505212203134,261.2821529219509 135.81203122925945,261.7006763781974 134.30828106449917,268.1999999999971 128.54390543315094,266.7228974051395 129.4210930292029,262.9562420967268 129.71348889451474,262.80852884477645 129.21223883947823,265.22116653827834" stroke="#4DD2FF" stroke-linecap="round" stroke-linejoin="round" stroke-width="0.5"><title>2025-04-02 6.9km</title><desc>1743601029000</desc></polyline><polyline fill="none" points="166.90637650096323,268.1999999999971 167.68124540010467,267.50153743055125 168.75238770188298,263.65995794165065 172.33045879518613,264.51961728975584 173.8118258083705,257.72285375985666 173.35602057352662,252.69903858125326 169.86911052721553,244.74669410314527 169.8463202654384,244.02129856622196 170.5300281177042,243.05410119742737 171.73791198979598,242.46303427116072 175.6122564858524,241.764498804303 177.41268716333434,240.31368805012607 178.11918527726084,240.20622024724435 178.14197553903796,239.23900791368214 177.23036506946664,237.38517366928863 176.5010766936466,237.43890819144144 175.7945785797201,236.63288913073484 175.20203177444637,236.7672258238017 173.88019659358542,235.96120456742938 172.467200365616,235.85373486747267 171.0086236143252,236.3642155250127 169.04866110451985,238.78226743731648 166.08592707838397,239.21214085022802 163.875271689496,240.98536075670563 165.19710687035695,243.45710056212556 166.70126414531842,244.07503164216178 171.9202340838965,242.3287006811879 175.29319282155484,241.8450991515565 177.8684923981782,240.07188542773656 179.57776202866808,240.2868211037421 180.17030883394182,239.6420135137014 178.32429763290565,236.87469512558891 176.2959643380018,237.9762527680723 175.0652902040165,236.5522870797722 173.4699718822958,235.79999999998836 170.48444759426638,235.93433714681305 167.77240644709673,237.06276629101194 164.87804320605937,237.54637720040046 165.0603653000435,239.66888053025468 163.82969116594177,241.25402932714496 164.83246268262155,242.19436701817904 165.288267917349,243.53770035608613 166.63289335998707,244.1018981756788 168.02309932629578,243.40336735155142 169.34493450715672,243.32276751377503 170.894672305556,247.70198719725886 172.1025561777642,248.74976442594198 176.09085198224057,247.91691622250073 178.59778077388182,253.18261882543447 173.76624528481625,254.82141148947994 173.51555240573362,258.93177796454984 173.01416664745193,259.54967026961094 171.73791198979598,264.08978799026227 171.46442884905264,264.3047027335997 168.75238770188298,263.8211442976608 167.9091480175266,267.04484929649334" stroke="#4DD2FF" stroke-linecap="round" stroke-linejoin="round" stroke-width="0.5"><title>2025-03-25 6.1km</title><desc>1742909450000</desc></polyline></svg>