<?xml version="1.0" encoding="utf-8" ?>
<svg baseProfile="full" height="300mm" version="1.1" viewBox="0,0,200,300" width="200mm" xmlns="http://www.w3.org/2000/svg" xmlns:ev="http://www.w3.org/2001/xml-events" xmlns:xlink="http://www.w3.org/1999/xlink"><defs /><rect fill="#222222" height="300" width="200" x="0" y="0" /><text fill="#FFFFFF" style="font-size:12px; font-family:Arial; font-weight:bold;" x="10" y="20">Over 5km Runs</text><text fill="#FFFFFF" style="font-size:4px; font-family:Arial" x="10" y="280">Runner</text><text fill="#FFFFFF" style="font-size:9px; font-family:Arial" x="10" y="290">Elliont</text><text fill="#FFFFFF" style="font-size:4px; font-family:Arial" x="65" y="280">SPECIAL TRACKS</text><rect fill="yellow" height="2.6" width="2.6" x="65" y="283" /><text fill="#FFFFFF" style="font-size:3px; font-family:Arial" x="70" y="285.5">Over 20.0 km</text><rect fill="red" height="2.6" width="2.6" x="65" y="287" /><text fill="#FFFFFF" style="font-size:3px; font-family:Arial" x="70" y="289.5">Over 40.0 km</text><text fill="#FFFFFF" style="font-size:4px; font-family:Arial" x="120" y="280">STATISTICS</text><text fill="#FFFFFF" style="font-size:3px; font-family:Arial" x="120" y="285">Number: 35</text><text fill="#FFFFFF" style="font-size:3px; font-family:Arial" x="120" y="290">Weekly: 1.8</text><text fill="#FFFFFF" style="font-size:3px; font-family:Arial" x="141" y="285">Total: 229.9 km</text><text fill="#FFFFFF" style="font-size:3px; font-family:Arial" x="141" y="290">Avg: 6.6 km</text><text fill="#FFFFFF" style="font-size:3px; font-family:Arial" x="167" y="285">Min: 5.0 km</text><text fill="#FFFFFF" style="font-size:3px; font-family:Arial" x="167" y="290">Max: 10.1 km</text><polyline fill="none" points="42.571428571420256,52.905235976635595 36.68279247992905,51.74672680856747 30.27685307149659,48.79957724955602 28.9491078912979,48.38290376702207 18.36163333733566,46.34016050432547 14.826727338047931,46.49260557562957 13.886959645547904,46.27918240606232 12.981678840849781,45.73037772837415 12.516105855582282,45.17140668274806 11.748772602091776,43.26071672941907 12.309184528770857,42.640750410770124 13.87833792361198,41.38047830908181 12.016045982512878,42.86434529574035 11.714285714289872,43.281043424220115 12.205723865452455,44.69373786284996 12.610944797022967,45.364506149853696 14.033528918691445,46.3706495384904 14.921566279488616,46.55358353437623 16.852831996162422,46.38081254768622 18.447850556782214,46.41130156858708 29.11292060831329,48.46420605608 30.285474793432513,48.860553700673336 36.57933181655244,51.74672680856747" stroke="#4DD2FF" stroke-linecap="round" stroke-linejoin="round" stroke-width="0.5"><title>2025-08-23 7.3km</title><desc>1755948655000</desc></polyline><polyline fill="none" points="79.0,49.8094313711772 78.53319295140682,51.41777214166359 70.64535077032633,49.86586471866758 60.986035686626565,45.46398978737125 51.59004765597638,43.432304753223434 48.14285714284051,42.86794214406109 60.37559569987934,45.33701040633605 70.2982378366869,49.8094313711772 76.7497506372747,51.12150034213846" stroke="#4DD2FF" stroke-linecap="round" stroke-linejoin="round" stroke-width="0.5"><title>2025-08-19 5.0km</title><desc>1755607675000</desc></polyline><polyline fill="none" points="114.53950995998457,55.17599757233256 108.93674523354275,54.06875130260596 102.4365316661715,51.063300490954134 101.33778588901623,50.746931459070765 91.08002951109665,48.77948679133988 87.24700034945272,48.88824112767179 85.98050712537952,48.29503407369339 85.10822040148196,47.23713853875961 84.621752805484,45.655215668572055 88.25348503087298,42.69892339310172 91.67553294761456,39.10971671339212 90.66904826616519,40.00950362213189 88.35413349897135,42.5209495474337 84.57142857142026,45.66510277215275 84.7559507630358,46.41651949156221 85.46049003998633,47.7908050295664 86.05599347647512,48.3444681429537 87.08764027492725,48.848694111373334 87.65798159438418,48.937674873828655 89.63740146780037,48.759713261635625 91.28971381977317,48.77948679133988 95.4498505028605,49.57042444696708 95.81050751367002,49.44189754693798 97.46281986564281,49.74838446966896 97.95767483397503,49.96589069026231 100.46549916514778,50.34158202550316 102.08426202769624,50.86556997524167 102.92299926219857,50.84579689997918 102.90622451750096,51.07318700545147 103.44301634762087,51.05341397538723 103.04042247502366,51.32034951749665 103.65270065623918,51.69603524686681 108.56770085036987,53.91057216163608 109.50708655299968,54.177499302168144 109.80064458504785,54.03909273468162 111.40263270295691,54.157726948287745 111.40263270295691,54.533400935310056 114.12014134277706,55.0771368472997 114.59822156638256,55.1265672232621 114.73241952393437,54.444425657828106 115.1853376305371,54.365336449074675 115.42857142855064,53.54478184245818" stroke="#4DD2FF" stroke-linecap="round" stroke-linejoin="round" stroke-width="0.5"><title>2025-08-16 10.0km</title><desc>1755297330000</desc></polyline><polyline fill="none" points="139.5700211118674,46.067906206604675 139.01266713580117,48.90474077640101 151.8571428571595,51.42798115008918 130.55102040816564,47.20264707825845 121.0,42.85773313562095 130.25967628433136,47.18771633828874 138.30330752994632,48.8002268600103" stroke="#4DD2FF" stroke-linecap="round" stroke-linejoin="round" stroke-width="0.5"><title>2025-08-13 5.0km</title><desc>1755095249000</desc></polyline><polyline fill="none" points="188.11294192931382,52.885988118854584 182.45464725643978,51.75575515687524 176.0188769796805,48.79264712456643 174.81810910254717,48.405705122699146 164.24444088948076,46.36914187434013 160.4952807551017,46.49133692034229 159.66597344426555,46.31822722470679 158.81075027995394,45.809079203121655 158.3615421532886,45.36102665028011 157.94688849785598,44.66857757197431 157.4544872820261,43.283664027418126 158.52567589189857,42.22459864879056 159.76963685810915,41.27753963793657 158.82802751561394,41.939463612077816 157.42857142857974,43.29384729012236 158.3442649176286,45.37120968671661 159.0612701967766,46.04328763746162 159.6573348264501,46.34877601781045 160.4952807551017,46.532068566848466 163.4324108142464,46.35895894662099 164.49496080627432,46.43023941729189 175.31051031834795,48.599176323805295 182.29051351782982,51.75575515687524 188.28571428571013,53.00817464778811" stroke="#4DD2FF" stroke-linecap="round" stroke-linejoin="round" stroke-width="0.5"><title>2025-08-12 8.1km</title><desc>1754996616000</desc></polyline><polyline fill="none" points="42.57142857136205,85.0074218626687 36.349552354891784,83.7631194829155 29.32425068115117,80.52565924199735 28.165823277493473,80.14024040350341 21.560918645351194,78.7527204194048 16.5815492409165,77.89376993403857 14.825223822437692,77.8497209944835 12.601790579908993,78.03692885505006 11.714285714260768,77.88275770095788 12.527053328114562,78.03692885505006 14.731802257650997,77.87174546664755 16.600233553908765,77.90478216594784 28.063059556181543,80.15125239071494 29.3989879329456,80.62476670584147 36.059945504006464,83.6970499018862 42.03892565192655,84.93034162915865" stroke="#4DD2FF" stroke-linecap="round" stroke-linejoin="round" stroke-width="0.5"><title>2025-08-10 6.4km</title><desc>1754781124000</desc></polyline><polyline fill="none" points="75.94004553506966,94.33929626717872 70.80369339743629,93.30879804558936 64.98041270644171,90.62208286399255 63.871959813521244,90.25403303443454 54.27837808537879,88.37695396105119 53.41971739367,88.32174512162601 50.734451230528066,88.4781700730091 50.149000758945476,88.34014807212952 49.329370098683285,87.87087158219947 48.759531639603665,87.22676235131075 48.22091720573371,85.96613435811742 48.142857142869616,85.4876428948046 51.55408189081936,82.6902539407165 53.91149578982731,80.15043898635486 56.13620758196339,78.20871734072716 58.93856383941602,76.37738445209106 59.25080409095972,76.23013988180173 60.03921072604135,76.20253149628115 60.343644971289905,76.00006972673145 61.20230566296959,75.05217407631426 62.084384373534704,73.15635085272515 62.88059701496968,72.40169092914584 66.44794188864762,70.47819793543022 70.85833544144407,68.51784658996621 70.85833544144407,69.18970922020526 71.63893607025966,69.69590356064145 71.87311625891016,69.99041523483902 71.9980123595451,70.46899451431818 74.75353257925599,75.37427573358582 75.88540349103278,77.85901865082269 76.59575006327941,78.84369283884007 76.60355606954545,79.12897013151087 76.92360232738429,79.6167000448695 77.50124679272994,81.30072696079878 77.94618915111641,82.09211599008995 78.32087745293393,83.73008367972943 78.44577355353977,85.38642319945211 78.09450327060767,87.76045320569392 78.18817534606205,87.89847615375766 79.0,88.14691689200117 78.90632792457473,88.88303330806957" stroke="#4DD2FF" stroke-linecap="round" stroke-linejoin="round" stroke-width="0.5"><title>2025-08-08 10.0km</title><desc>1754654808000</desc></polyline><polyline fill="none" points="115.42857142857974,85.7486495978228 107.19593450031243,84.0666668209742 97.75584415585035,79.71066308543959 88.01084133260883,77.61167927077622 84.57142857142026,77.10849325933668 97.53630717110354,79.71066308543959 107.43986448337091,84.21042687026784 115.22123094298877,85.70552210199821" stroke="#4DD2FF" stroke-linecap="round" stroke-linejoin="round" stroke-width="0.5"><title>2025-08-07 5.0km</title><desc>1754573743000</desc></polyline><polyline fill="none" points="151.85714285710128,85.76402904756833 143.6997864448349,84.13291047577513 134.37709340226138,79.85470502798853 133.1874789254507,79.49698923110554 121.0,77.09311380957661 124.24109250301262,77.77993984711065 124.50814881414408,77.6654690902069 125.22434528492158,77.96595461432298 133.70945262443274,79.69731019737083 143.8090367538971,84.2473755976389 151.3108913116157,85.74972107792564" stroke="#4DD2FF" stroke-linecap="round" stroke-linejoin="round" stroke-width="0.5"><title>2025-08-04 5.0km</title><desc>1754309955000</desc></polyline><polyline fill="none" points="188.28571428568102,85.01945092346432 182.11802937736502,83.78391574908892 175.00506954372395,80.51850024252053 173.93812556867488,80.16547604445077 162.6509814116871,77.93698239562946 160.66683998442022,77.83769193368062 158.2521773040644,78.02524050230568 157.42857142857974,77.84872421202454 157.60639542446006,77.98111145859002 158.73885350319324,78.05833727250138 162.00519953208277,77.88182103989675 166.48823605879443,78.7643991266159 167.2088911998435,78.77543130404229 168.45365917065646,79.15052462127642 173.81645651889266,80.1765080692785 175.30456258932827,80.70604384726903 182.00571948528523,83.77288411717745 187.64929156377912,84.90913589558477" stroke="#4DD2FF" stroke-linecap="round" stroke-linejoin="round" stroke-width="0.5"><title>2025-08-03 6.5km</title><desc>1754227262000</desc></polyline><polyline fill="none" points="38.997336657717824,119.32841008409741 30.8087493624771,117.69813158229226 20.4903949679574,113.11016051321349 11.714285714260768,111.32109728608339 21.249277497583535,113.31215000471275 31.12699042330496,117.82797750798636 42.571428571420256,120.10747414249636 39.25437751458958,119.35726439017162 39.25437751458958,119.14085694141977" stroke="#4DD2FF" stroke-linecap="round" stroke-linejoin="round" stroke-width="0.5"><title>2025-08-01 5.0km</title><desc>1754057984000</desc></polyline><polyline fill="none" points="76.04783599090297,128.59471422094066 70.78392450374668,127.55448865579092 64.98893589328509,124.88482463958644 63.74715261961683,124.48897072792897 54.37520338431932,122.67538375434378 52.66482264889055,122.62014699218707 50.962251871154876,122.7674449443657 50.150016270781634,122.62014699218707 49.47835990891326,122.24269481797091 48.986332574044354,121.7731787852681 48.42401561993756,120.70525025236566 48.142857142869616,119.77540493620472 51.58704848686466,116.92136036887678 53.9768955418258,114.37105189889553 56.16368369673728,112.4559682218387 57.811584770621266,111.50761744682677 59.100227790448116,110.55925602696516 60.013992840918945,110.46718153576512 60.34201106414548,110.26461730192386 61.34168564924039,109.11367493581929 62.122681418812135,107.38262809156731 62.88805727305589,106.69204099518538 66.5431174748228,104.6847024476956 70.82297429221217,102.83385720762453 70.89326391150826,103.43239368726063 71.51806052718894,103.8651789612486 72.16628701597801,105.02540088317619 72.56459485847154,106.13956725336902 73.54864952818025,108.17449434746231 76.11031565247686,112.97157194334432 76.45395379111869,114.00276994736487 77.4692482915998,116.12957608634315 78.15652456885437,118.49570009885065 78.20338431504206,119.9687399533068 78.10966482266667,120.50271055997291 78.35177351124003,120.67763123199256 78.12528473805287,122.06777738517121 79.0000000000291,122.39919958257087 78.9687601691985,122.85029992966884" stroke="#4DD2FF" stroke-linecap="round" stroke-linejoin="round" stroke-width="0.5"><title>2025-07-28 10.0km</title><desc>1753704756000</desc></polyline><polyline fill="none" points="112.39873526873998,119.49785745794361 104.20327680365881,117.85859811390401 94.81575165275717,113.5554472040094 93.28841621149331,113.04315815577866 84.57142857142026,111.3013607840112 94.24455303244758,113.37980546463223 102.3282552457531,117.18532509106444 104.42678930721013,117.9756887301337 115.42857142857974,120.127210644554 112.52290888183052,119.46858514500491 112.6719172175508,118.51723150316684" stroke="#4DD2FF" stroke-linecap="round" stroke-linejoin="round" stroke-width="0.5"><title>2025-07-22 5.0km</title><desc>1753194638000</desc></polyline><polyline fill="none" points="138.5516014234745,117.34307804885611 148.77325876965187,119.37084833435802 151.85714285710128,119.5542084944318 149.16675139806466,119.40320603432338 132.31977630913025,116.10266618693277 124.97153024910949,112.76965649383783 121.0,111.87436293414066 124.92577529232949,112.79122973277117 131.81647178443382,115.97323101063375 134.65327910525957,116.57726038624241" stroke="#4DD2FF" stroke-linecap="round" stroke-linejoin="round" stroke-width="0.5"><title>2025-07-19 6.4km</title><desc>1752877000000</desc></polyline><polyline fill="none" points="185.45982483559055,128.67875707601343 180.20838027400896,127.63323908875464 174.24261365702841,124.90372883603413 173.22215357780806,124.57988281700091 163.52778282520012,122.7108045261557 160.16811425666674,122.82184002900613 159.4380928153696,122.68304562777485 158.7551695315633,122.2851670873788 158.08794563362608,121.58193534194288 157.50706835775054,120.27723997304565 157.42857142857974,119.80532394702459 160.85888723336393,116.96451913848432 163.12744848642615,114.50302836752962 165.3646109678084,112.55044171329791 168.0963041029463,110.72737004502414 168.57513537086197,110.49601297381014 169.30515681218822,110.4589957839271 169.82323654470383,110.13509468406846 170.67100337974261,109.12636620063859 171.43242359274882,107.39576740142365 172.24094196321676,106.64613879140961 176.21288657924742,104.48050785073428 180.27117781739798,102.74981435255904 180.27902751028887,103.41618180149817 180.90700294365524,103.83265880107501 181.3230366682401,104.60082212995621 182.17865319622797,106.56284631509334 184.8161500163842,111.52323355633416 185.5069229930814,113.17971624869824 185.69531562310294,113.35554212366696 186.88061925358488,116.39079458307242 187.14750881274813,116.77019351343188 187.57139223028207,118.3525463877886 187.64988915948197,119.39817860209587 187.52429407279124,120.98973567232315 187.13965911985724,122.47948009573884 188.28571428573923,122.73856341547071" stroke="#4DD2FF" stroke-linecap="round" stroke-linejoin="round" stroke-width="0.5"><title>2025-07-17 10.0km</title><desc>1752756134000</desc></polyline><polyline fill="none" points="42.571428571420256,154.35429951291007 34.39081108535174,152.71609210166207 24.015691144100856,148.10313565161778 11.714285714260768,145.64570048707537 24.564316757954657,148.33306876401184 34.159169159596786,152.7017217711982 42.193486481846776,154.33992936086725" stroke="#4DD2FF" stroke-linecap="round" stroke-linejoin="round" stroke-width="0.5"><title>2025-07-14 5.0km</title><desc>1752500928000</desc></polyline><polyline fill="none" points="78.99999999994179,154.3225582956511 70.82128895336064,152.71586118545383 62.365129006968345,148.7914559142082 60.36267173010856,148.06628115763306 48.14285714284051,145.6774417043489 61.15882944257464,148.27956826887385 70.96604490111349,152.77273575696745 78.13146431359928,154.20881047799776" stroke="#4DD2FF" stroke-linecap="round" stroke-linejoin="round" stroke-width="0.5"><title>2025-06-21 5.0km</title><desc>1750468889000</desc></polyline><polyline fill="none" points="105.68346503161592,151.89502913791512 113.70759697034373,153.49776551027026 115.42857142855064,153.58958793339116 113.94839175051311,153.49776551027026 100.83215843138169,150.93504078497062 99.42280074753216,150.38408551766042 95.20889209478628,148.38057843456772 94.46526115608867,148.13848444902396 85.86747106461553,146.4688499334443 84.57142857142026,146.41041206660884 85.71874487688183,146.43545687215374 89.06862520077266,147.05322615118348 95.09557690416113,148.35553426459956 99.57860913468176,150.47591167056817 100.72592544014333,150.91834522899444 101.97239253742737,151.1687781868386" stroke="#4DD2FF" stroke-linecap="round" stroke-linejoin="round" stroke-width="0.5"><title>2025-06-17 8.1km</title><desc>1750165544000</desc></polyline><polyline fill="none" points="151.8571428571595,154.3038875000493 144.07722903543618,152.75678069112473 133.93470334768062,148.22787058810354 121.0,145.69611249996524 133.95856811403064,148.2841313152021 143.9101756711607,152.74271599877102 150.47298641031375,154.07885493413778" stroke="#4DD2FF" stroke-linecap="round" stroke-linejoin="round" stroke-width="0.5"><title>2025-06-15 5.0km</title><desc>1749939796000</desc></polyline><polyline fill="none" points="178.7507980421069,151.7687179007553 186.033320159273,153.2238446634874 188.28571428571013,153.36316374838498 186.51269267019234,153.25480448373128 174.3248107500258,150.8863392908388 173.13622959292843,150.4374056181623 169.1633478247386,148.5487570401092 168.2768370170088,148.2546187282278 160.26540601346642,146.70650228451996 159.2935274982883,146.6368362516223 157.42857142857974,146.78390890767332 160.0749703584588,146.69102094978734 167.93536618733197,148.20817572560918 168.88754446234088,148.4713523392129 171.1596388289472,149.54727012324292" stroke="#4DD2FF" stroke-linecap="round" stroke-linejoin="round" stroke-width="0.5"><title>2025-06-11 8.1km</title><desc>1749642919000</desc></polyline><polyline fill="none" points="42.571428571420256,188.58012807491468 34.55503240454709,187.02882206178037 24.480695729202125,182.52992952971545 11.714285714260768,179.99130049653468 24.624272973975167,182.5863429429446 34.63878579728771,187.09933637460927 41.24333905719686,188.42499830985616" stroke="#4DD2FF" stroke-linecap="round" stroke-linejoin="round" stroke-width="0.5"><title>2025-06-08 5.0km</title><desc>1749387304000</desc></polyline><polyline fill="none" points="60.09730269713327,192.57868269001483 63.420379620278254,190.594513378368 70.41178821166977,189.32260553873493 73.95064935064875,186.67702613427537 77.79160839156248,186.7787794653268 78.8273726273328,185.91387544348254 72.00859140860848,174.822611274285 67.39080919069238,175.73841370787704 62.9888111888431,178.3331775146362 60.528871128801256,178.3331775146362 56.60159840155393,180.16476681409404 50.17122877109796,181.48757683951408 50.38701298693195,185.65949160273885 48.14285714295693,188.4577062287135 50.04175824159756,190.5436371312244 50.86173826176673,193.13831866392866 52.070129870204255,193.90145754712285 59.57942057936452,192.32430248026503 63.54985014977865,190.5436371312244 69.33286713273264,189.78049276015372 74.16643356648274,186.67702613427537 77.57582417572848,186.829656122718 78.9568431568332,185.65949160273885 72.00859140860848,174.66997736072517 66.8729270726908,175.78929156812956 63.07512487494387,178.28229993156856 59.62257742253132,178.6384428968886 55.393206793116406,180.52090834346018 50.30069930059835,181.38582235519425 50.43016983009875,185.91387544348254 48.14285714295693,188.4577062287135 50.17122877109796,190.64538961998187 51.20699300686829,193.2909465401608 52.6743256743066,194.0032093040354 64.49930069898255,190.39100835678983 69.46233766223304,189.83136909030145 73.73486513481475,186.9314094207075 77.70529470522888,186.88053277452127 79.0,185.60861481787288 71.5338661337737,174.51734339722316 66.44135864125565,176.09455861357856 62.902497502509505,178.28229993156856 50.516483516199514,181.13143604746438 50.47332667349838,185.65949160273885 48.186013985890895,188.35595326352632 50.12807192793116,190.5436371312244 50.86173826176673,192.9856907375506 53.062737262574956,194.0540851741971 70.49810189800337,188.76296499170712 72.65594405587763,185.86299868649803 72.00859140860848,182.9630143699178 69.16023976029828,179.4016054791573 66.74345654342324,178.1805447488441 64.67192807188258,178.07878954373882 62.29830169817433,179.04546309600119 58.45734265749343,183.6752928882488 52.329070929205045,184.69283174388693 48.66073926072568,187.59280531675904 48.53126873122528,188.81384143271134 50.60279720276594,191.30678025519592" stroke="#4DD2FF" stroke-linecap="round" stroke-linejoin="round" stroke-width="0.5"><title>2025-06-04 6.4km</title><desc>1749041988000</desc></polyline><polyline fill="none" points="115.42857142857974,188.6083344052895 107.51985819533002,187.0288230002916 98.51038608542876,182.86841057889978 97.14640226005577,182.41710356803378 84.57142857142026,179.9630941661453 97.50534537201747,182.55813717786805 107.34038663940737,187.00061726440617 113.9090455879923,188.35448565729894" stroke="#4DD2FF" stroke-linecap="round" stroke-linejoin="round" stroke-width="0.5"><title>2025-05-28 5.0km</title><desc>1748436903000</desc></polyline><polyline fill="none" points="151.85714285710128,188.5948230346694 143.28842676308705,186.8395724336151 133.36482820974197,182.35062874708092 121.0,179.96221833310847 132.96202531643212,182.26430141204037 134.45117540686624,182.73910105660616 144.00858951179544,187.11293266687426 151.7106690777582,188.6092102383118" stroke="#4DD2FF" stroke-linecap="round" stroke-linejoin="round" stroke-width="0.5"><title>2025-05-27 5.0km</title><desc>1748351986000</desc></polyline><polyline fill="none" points="180.27973149181344,190.65112630651856 180.3209680953296,188.8037984491093 181.29002827813383,186.61007036053343 181.92919563280884,182.54005194648926 181.88795902917627,182.91530597805104 180.96013544988818,183.0307685891603 176.4447273638798,186.23482454268378 174.73340831755195,186.63893538895354 174.05300435936078,185.51319562511344 174.83649982628413,184.2431212374213 176.27978094981518,183.11736549566558 176.05297963041812,181.18335733370623 176.73338358860929,179.94211654034734 175.82617831102107,179.42252466084028 172.50663172721397,179.4802571709588 171.6406630531419,178.21013738887268 171.9293192778714,176.70907441528107 172.56848663243,176.91114136231772 172.50663172721397,175.9296710678318 173.45507360831834,176.50700722633337 175.18701095634606,176.44927369934157 176.56843717442825,177.37300776148913 178.44470263493713,177.43074097261706 179.2075798001606,177.05547474787454 181.08384526055306,174.42858781386167 181.16631846758537,170.04072945012012 180.4859145093942,169.26129530987237 179.41376281774137,168.8571428571595 178.0941915048752,169.23242730964557 176.9189483044902,170.53148243261967 176.01174302678555,170.84902771975612 174.15609586820938,170.5026146495802 172.1973572006682,169.4345032076817 170.40356494742446,170.04072945012012 169.49635966971982,171.42638125672238 169.5375962733524,172.89862383702712 170.32109174027573,173.99558054823137 172.09426569193602,174.83272692620812 172.50663172721397,175.84307047376933 171.70251795835793,177.71940673155768 172.27983040781692,179.45139091843157 172.42415852018166,181.8472730811627 171.66128135484178,184.44517916567565 172.25921210600063,185.16681264889485 174.01176775584463,185.59979125806422 174.6921717140358,186.63893538895354 173.1251807800727,189.17903855629265 171.18706041423138,189.9583807290619 167.949987037573,192.32524971527164 165.59950063668657,193.33548856743437 165.06342479074374,194.720949162147 163.74385347799398,196.16412519050937 164.87786007497925,199.3967947235651 165.90877516299952,199.62769732151355 167.26958307938185,198.79067390142882 168.85719231516123,199.45452040275268 170.01181721384637,199.3102061679674 170.9190224914346,198.357729124662 171.57880814792588,195.96208128922444 173.14579908177257,195.09617611640715 176.73338358860929,196.22185197504587 178.0941915048752,195.55799276131438 180.217876586481,195.44253871860565 180.34158639702946,189.03471553695272 181.970432236325,183.31942477138364 181.72301261511166,182.91530597805104 181.10446356225293,182.97303729350097 176.46534566557966,186.26368963519053 174.7952632228844,186.61007036053343 172.96023436589167,189.26563230877218 171.0014956984669,190.04497408172756 167.92936873587314,192.32524971527164 165.72321044723503,193.19116910157027 165.06342479074374,194.8075400718226 163.74385347799398,196.2795787397481 164.77476856613066,199.2524804395216 165.45517252432182,199.71428571428987 167.14587326883338,198.79067390142882 169.08399363455828,199.48338323483767 170.38294664560817,198.96385150129208" stroke="#4DD2FF" stroke-linecap="round" stroke-linejoin="round" stroke-width="0.5"><title>2025-05-23 6.4km</title><desc>1747958832000</desc></polyline><polyline fill="none" points="29.946377342916094,220.0124685150222 30.781468466389924,220.8058126308606 32.86919627489988,221.13985148743086 33.91306017921306,222.47600234377023 33.64463803230319,227.73702526689158 33.13761842169333,228.69735848673736 31.31831276009325,229.24015385337407 29.528831781237386,228.61385140025232 27.858649534289725,228.98963306481892 25.02530465135351,227.3194879063376 23.325297721428797,227.98754734058457 22.072661036392674,227.77877896376594 22.430557232000865,226.56791885798157 21.535816742805764,224.22968924658198 21.804238889482804,222.55951152948546 20.849849034217186,220.9728321161965 21.267394595895894,218.4675278391078 27.291980557725765,218.21699599755812 29.349883683375083,218.96859075098473 30.423572270548902,220.6805479417235 32.720072860014625,221.09809665530338 33.73411208123434,222.05845598652377 33.64463803230319,227.86228633584687 33.197267787647434,228.69735848673736 31.437611491885036,229.1984004065016 29.737604561960325,228.65560494706733 27.799000168335624,228.94787957513472 24.965655285399407,227.36124167448725 21.356868644827046,228.1128082810028 19.41826425108593,229.69944129804207 20.044582593720406,230.15872787886474 20.521777521353215,232.6639122030756 23.444596453337,234.0 24.697233138489537,233.12319320777897 25.532324262079783,231.41132325367653 25.413025530055165,230.0752212920197 23.862142015015706,227.61176413360226 25.413025530055165,227.36124167448725 27.82882485142909,228.94787957513472 29.737604561960325,228.4050835588132 29.499007098260336,227.77877896376594 27.560402704635635,227.8205326533789 26.516538800206035,226.48441104314406 27.50075333856512,222.55951152948546 24.93583060230594,218.63454892401933 25.114778700168245,215.50288457001443 25.800746408756822,214.16669555376575 27.172681825701147,213.37332986561523 29.76742924505379,214.20845157132135 31.884981736540794,213.66562278753554 29.499007098260336,216.00395356597437 27.02355841093231,215.8786864134163 25.532324262079783,214.75127914828772 23.23582367261406,214.25020758155733 23.295473038451746,209.1559216154128 24.30951225978788,207.0263115513808 24.369161625625566,203.85274051931628 24.995479968376458,203.2263729412516 26.904259679024108,203.14285714285506 32.39200134726707,203.936256075016 33.52533930039499,204.93844051464112 33.91306017921306,207.0263115513808 34.867450034595095,208.07024037434894 34.24113169196062,208.90538021903194 34.62885257077869,209.44821958623652 32.749897542991675,210.57565133857133 32.541124762035906,213.2063051816658 29.76742924505379,215.92044213801273 27.59022738749627,216.00395356597437 25.4428502129158,214.626011352957 23.355122404405847,214.37547556958452 23.26564835559111,209.44821958623652 24.548109723604284,205.18898598168744 25.890220457687974,204.6878947903606 25.920045140665025,203.4351623125549 32.03410515142605,203.8109827308508" stroke="#4DD2FF" stroke-linecap="round" stroke-linejoin="round" stroke-width="0.5"><title>2025-05-20 5.0km</title><desc>1747754393000</desc></polyline><polyline fill="none" points="74.91153616271913,220.7277598384535 77.7949790796265,221.08290314814076 79.0,219.81453294170205 71.8559473999776,209.05861470743548 66.86371787218377,210.2762783006474 62.99043634207919,212.55938895474537 60.58039450086653,212.6608602795459 54.72743574436754,214.89322382994578 50.03646144643426,215.55278373972396 50.42378959967755,219.86526781623252 48.14285714295693,222.80788108421257 50.03646144643426,224.48211826389888 50.72504482977092,226.81589337909827 51.757919904310256,227.8305745635007 53.694560669595376,228.1349784876511 63.37776449508965,224.9894616753445 69.14465032890439,224.1777119518083 74.13687985669822,220.87996414734516 77.7949790796265,220.98143365888973 78.91392707731575,220.01747240690747 72.02809324581176,209.1093507539772 70.1344889421016,209.1600867950183 63.16258218768053,212.45791760794236 59.97788404067978,212.8130672253319 55.975493126083165,214.63954669272061 49.69216975499876,215.80646037930273 50.595935445511714,219.1549790688441 48.14285714295693,222.7571465302899 49.95038852375001,224.27918074451736 50.50986252259463,226.41002028633375 51.80095636588521,227.77984055684647 53.694560669595376,228.03351053516963 64.19545726245269,224.58358699042583 69.83323371200822,223.87330544061842 73.92169754928909,220.98143365888973 77.83801554096863,220.98143365888973 78.91392707731575,219.91600268537877 72.02809324581176,209.1600867950183 70.52181709511206,209.00787865521852 66.64853556500748,210.2762783006474 63.29169157217257,212.45791760794236 60.537358039291576,212.55938895474537 55.372982666129246,214.74101756417076 50.25164375384338,215.6542544120457 50.50986252259463,219.66232828475768 48.22893006587401,222.65567740573897 49.95038852375001,224.38064951528213 51.15540944412351,227.37396830428042 53.86670651542954,227.98277655048878 62.603108189068735,225.04019598598825" stroke="#4DD2FF" stroke-linecap="round" stroke-linejoin="round" stroke-width="0.5"><title>2025-05-14 5.0km</title><desc>1747227249000</desc></polyline><polyline fill="none" points="95.49875542835798,233.66539895212918 96.12730759836268,233.09179596875038 97.03972203854937,229.69794763522805 99.77696535899304,230.1281566673424 101.25710433966015,224.2007579755009 100.97324206947815,220.40044634457445 98.11434349021874,213.25377007899806 98.23599874891806,211.6523090198316 100.22303464089055,210.57669428296504 103.18331260234118,210.07473893417045 105.0892449883977,208.76008852993255 106.65048747486435,208.90350532054435 107.23848789185286,208.28203188408224 104.09572704241145,203.26237420194957 103.30496786092408,203.14285714285506 101.13544908107724,203.93166852966533 99.77696535899304,204.86389651150967 98.60096452501602,204.8877997410309 96.20841110416222,205.84392678485892 93.75503005378414,206.20247335192107 93.91723706549965,208.06690605352924 92.76151210803073,209.52497699628293 92.96427087241318,210.0508362698165 93.65365067159291,210.50498644627805 94.34303047088906,212.1064558809303 95.21489315817598,212.20206562662497 103.00082971423399,209.85961486167798 103.87269240152091,209.09472756204195 104.1971064247191,208.06690605352924 103.81186477211304,206.72834059008164 102.45338105014525,205.27025105862413 100.79075918137096,204.7443803250062 99.33089607709553,205.15073509352806 97.38441193813924,207.34981842820707 94.6066168647958,207.82787710556295 93.00482262531295,209.26204688670987 93.04537437821273,210.0508362698165 95.21489315817598,211.72401648151572 97.68855008471292,211.46108900764375 102.94000208494253,209.85961486167798 104.07545116601977,208.80789413720777 104.13627879542764,207.66055668699846 103.30496786092408,206.15466717684467 101.33820784545969,204.81609004471102 98.60096452501602,204.91170296791825 96.02592821605504,205.93953926005634 93.71447830100078,206.39369794800587 93.89696118899155,208.16251755980193 92.78178798430599,209.62058786708803 93.67392654810101,210.50498644627805 94.1199958298821,211.79572391965485 95.15406552876811,212.22596805657668 96.3706181156449,211.60450403246796 98.6212404014077,211.22206375797396 98.09406761382706,212.20206562662497 98.15489524311852,212.96694209202542 100.70965567557141,219.37267780273396 101.31793196906801,222.33646238181973 101.09489732817747,225.65872169645445 100.08110350568313,229.45894225298252 97.46551544382237,229.0765330997965 96.43144574505277,232.5659919166792 95.6406865635654,232.90059464098886 95.31627254036721,234.0 94.8904791349778,233.83269953986746" stroke="#4DD2FF" stroke-linecap="round" stroke-linejoin="round" stroke-width="0.5"><title>2025-05-06 7.1km</title><desc>1746539597000</desc></polyline><polyline fill="none" points="132.7906784164952,234.0 132.5816041054204,233.75355387032323 133.5642533673672,230.4757948192273 136.05223766877316,231.06727364783 136.49129372206517,230.3032798696222 137.78755445044953,224.85666882561054 137.74573958828114,222.14563707810885 134.0451242828276,211.89271415969415 133.0415675897384,211.67089098028373 131.61986227461603,212.3610068243288 130.74175016814843,212.18847806066333 129.09006311092526,209.6251780717139 130.21906439063605,208.39281196848606 129.94726778625045,206.421012237799 131.41078796354122,206.3470694134885 136.30312684201635,204.96679892348766 137.89209160592873,203.98088627388643 140.50552049395628,203.19215306005208 143.87161690194625,208.34351718463586 143.45346827979665,209.00899585935986 141.61361434264109,208.83646453908295 139.6483158187475,210.26600579208753 136.65855317085516,210.7096546888497 134.90232895791996,211.5476557865186 132.6652338298736,211.8434201386699 131.30625080806203,212.4103007325466 130.42813870171085,212.04059615853475 129.92636035510805,210.66036040995095 129.13187797309365,210.06882822529587 129.13187797309365,209.6005308154563 130.21906439063605,208.1463379421184 129.92636035510805,206.44565984049405 132.2261777765816,206.149888430562 136.24040454870556,204.86820785190503 140.0455570097547,203.14285714285506 140.6309650806943,203.3400407471927 143.85070947080385,208.34351718463586 143.53709800424986,208.95970120988204 141.75996636028867,208.83646453908295 139.1883523344295,210.43853602197487 137.09760922391433,210.58641897141933 131.41078796354122,212.3610068243288 130.53267585719004,212.11453712169896 129.96817521727644,210.66036040995095 129.13187797309365,210.01953380681516 130.19815695949364,208.195632768824 129.94726778625045,206.421012237799 132.14254805224482,206.149888430562 136.07314509991556,204.9421511596738 137.47394298389554,204.07947773222986 140.0873718719231,203.14285714285506 140.5682427873835,203.3400407471927 143.82980203966144,208.31886978875264 143.51619057310745,208.9350538809813 141.61361434264109,208.81181719688175 139.58559352555312,210.29065297587658 136.63764573971275,210.7096546888497 134.5259951981716,211.62159691084526 132.7906784164952,211.76947908685543 131.45260282570962,212.3856537797983 130.46995356376283,212.01594916547765 129.94726778625045,210.66036040995095 129.11097054195125,210.04418101740885 129.09006311092526,209.6251780717139 129.92636035510805,208.81181719688175 128.94371109316126,209.7237670699251 129.86363806179725,210.8082432144438 130.28178668394685,211.94200817005185 131.18080622144043,212.48424157497357 136.38675656635314,210.8575374610955 139.5019638009835,210.48783034921507 141.50907718704548,208.95970120988204 143.36983855534345,208.95970120988204 143.91343176411465,208.39281196848606 140.4218907697359,203.14285714285506 137.76664701930713,203.9315905286494 136.11495996208396,204.99144668465306 134.63053235365078,205.09003770258278 132.3516223632032,206.02665022897418 129.65456375072245,206.56889781383506 130.11452723515686,208.1463379421184 129.04824824875686,209.4526472214202 129.00643338647205,210.0934754305781 129.84273063065484,210.73430182423908 130.21906439063605,211.89271415969415 131.01354677265044,212.3856537797983 134.0451242828276,211.86806715052808 137.30668353510555,220.34647989386576 137.68301729485393,222.26886649872176 137.76664701930713,224.75808642219636 136.28221941087395,230.8454692683008 133.4388087807456,230.50043980126793 132.8115858475212,233.48246281764295 132.47706694994122,233.75355387032323" stroke="#4DD2FF" stroke-linecap="round" stroke-linejoin="round" stroke-width="0.5"><title>2025-04-29 10.1km</title><desc>1745929124000</desc></polyline><polyline fill="none" points="187.1004377582576,215.62814141405397 186.58104692032794,215.18859242422332 186.8740366237471,213.57166853347735 186.1415623651701,215.9891985100403 185.5822183858836,216.0676890634204 183.91750416177092,222.5979533919308 183.73105616873363,222.64504556989414 175.24767248291755,220.96541504572087 164.43368888343684,216.09908527278458 157.42857142857974,214.60775777451636 164.3804180282168,216.1147833749128 172.91707256919472,220.11774361172866 175.3408964794362,221.0282053239789 188.28571428573923,223.5711886093777 183.8509155928623,222.61365078628296 184.13058758247644,221.46773650616524 184.91633269621525,221.27936616363877 186.7009063443984,213.77574730635388 187.04716690303758,213.65016040341288 186.58104692032794,214.87462803936796" stroke="#4DD2FF" stroke-linecap="round" stroke-linejoin="round" stroke-width="0.5"><title>2025-04-22 6.3km</title><desc>1745328842000</desc></polyline><polyline fill="none" points="22.666181640466675,267.3789508542686 23.179022748256102,267.1522594408161 24.247441722545773,263.6511082810466 26.98259429668542,264.0541211861273 28.414275722228922,258.8400874873041 28.179223547922447,253.57555736899667 25.20901879935991,246.29569862877543 25.144913660828024,245.03618423799344 26.747542122378945,243.72628199278552 30.123746081022546,243.17209034717234 32.55974134244025,241.58507964923047 34.16236980387475,241.73622399457963 34.824789567966945,241.1568368008302 33.39310814230703,238.9148465879407 31.469953988678753,239.89729441372037 29.931430665659718,238.10873243308743 28.286065445281565,237.42857142857974 25.20901879935991,237.68048314510088 23.114917609724216,238.61255410924787 20.29429151758086,239.09118368460622 20.721659107366577,240.8545472537662 19.482293097185902,242.64308799168793 20.401133415056393,243.4239958052931 20.871237763785757,244.73389976324688 21.832814840599895,245.23770700165187 25.337229076307267,244.4064244695328 27.367225127411075,243.52475791169854 30.038272563018836,243.17209034717234 32.23921565013006,241.68584255718451 34.16236980387475,241.71103327734454 34.80342118837871,241.10645523709536 33.41447652189527,238.9148465879407 31.491322368150577,239.8469125755364 29.931430665659718,238.08354132049135 28.414275722228922,237.45376261259662 25.102176902000792,237.68048314510088 23.15765436878428,238.58736305154162 20.82850100484211,238.94003760996566 20.507975312531926,239.19194767950103 20.67892234842293,240.93011967757775 19.482293097185902,242.51713487150846 20.358396656112745,243.4239958052931 20.807132625370286,244.75909015120124 21.725972943240777,245.28808766504517 27.409961886471137,243.49956738926994 29.952799045247957,243.22247146078735 32.26058402960189,241.68584255718451 34.24784332176205,241.68584255718451 34.7820528090233,241.05607366243203 33.371739762835205,238.8644645356253 31.384480470675044,239.8217216522462 29.910062286187895,238.08354132049135 28.606591137475334,237.52933614810172 25.743228286504745,237.5545273211028 22.943970573949628,238.61255410924787 20.785764245782048,238.94003760996566 20.486606932943687,239.16675668490643 20.636185589479282,241.1568368008302 19.46092471771408,242.59270675184962 20.422501794528216,243.47437686407648 20.84986938419752,244.75909015120124 21.555025907233357,245.21251666583703 30.145114460610785,242.84461284123245 31.192165055312216,241.98813101727865 31.555427506566048,240.7034023320448 31.256270193844102,239.74614886606287 30.209219599026255,238.46140772174112 28.563854378648102,237.47895379387774 25.721859907032922,237.57971849141177 22.858497055945918,238.68812726601027 20.46523855358828,239.09118368460622 20.721659107366577,240.80416562415485 19.482293097185902,242.5423255009955 20.52934369200375,243.8270439674816 20.12334448180627,244.60794778203126 21.19176345609594,246.7995024638949 22.025130255962722,250.47723720260547 22.388392707216553,254.60832153167576 22.302919189212844,257.32875139371026 20.20881799980998,267.5804541462712 21.725972943240777,268.2857142857101" stroke="#4DD2FF" stroke-linecap="round" stroke-linejoin="round" stroke-width="0.5"><title>2025-04-15 8.8km</title><desc>1744723077000</desc></polyline><polyline fill="none" points="78.79721483349567,249.56062923680292 77.90158034738852,249.50087109686865 78.56063213897869,247.56868071573263 77.78328900027554,250.79562642420933 77.96917540300637,251.2936068016861 76.93835080583813,254.71967504413624 75.94132373656612,254.7395938578702 75.95822250039782,255.57618207695486 74.80910655623302,259.3009450822865 63.60522609925829,257.0700800932682 50.76216554525308,251.11433402200055 48.14285714284051,250.35740257037105 50.94805194810033,251.25376842137484 63.58832733531017,257.0899986510922 74.84290408395464,259.2810267652676 75.2146768894163,257.7871468071389 76.0596150837955,257.687554376098 76.78626193082891,255.57618207695486 79.0,246.41334063200338 78.40854326408589,249.70006482081953" stroke="#4DD2FF" stroke-linecap="round" stroke-linejoin="round" stroke-width="0.5"><title>2025-04-11 5.1km</title><desc>1744377642000</desc></polyline><polyline fill="none" points="93.45060764753725,268.2857142857101 94.49425065645482,267.13084275375877 94.77113553648815,267.9844440090819 95.81477854552213,267.13084275375877 96.98621457593981,263.59087439847644 99.73376453842502,264.2185323273734 100.22363778750878,264.0427882795775 101.5015680026263,258.54444253513066 101.58676335040946,255.53159471804975 101.05429242737591,252.84510553102882 97.98725991114043,246.1664079289185 97.90206456347369,245.03653392948036 99.39298314775806,243.78111187717877 102.82209589157719,243.2287240074511 105.20756562647875,241.5966612024058 106.76238072151318,241.7473136378394 107.55043768754695,241.09448570603854 105.86782957089599,238.45804639584094 104.10002610669471,239.48751676372194 102.01274008874316,237.72988165119023 100.13844243984204,237.62944495408738 99.13739710475784,238.10651887531276 97.11400759743992,240.3161115240655 94.21736577653792,240.7429622074851 92.53475766000338,242.1992703533615 92.44956231233664,242.67633481367375 93.32281462603714,243.40448392779217 93.68489485362079,244.58458277847967 94.64334251498803,245.1369673981244 103.05638309777714,242.77676931097812 104.20652029139455,241.67198743241897 104.33431331277825,240.44165592479112 103.07768193457741,238.48315548388928 101.05429242737591,237.4285714285652 98.32804130180739,237.5792265891214 95.66568668698892,238.60870088325464 93.36541229987051,239.01044570167142 93.55710183212068,240.7680710466375 92.44956231233664,242.12394429567212 92.44956231233664,242.60100891187903 93.32281462603714,243.32915826408134 94.23866461357102,245.11185903500882 95.17581343790516,245.1369673981244 96.432444816106,244.48414906905964 97.58258200972341,244.58458277847967 100.94779824279249,253.49790017629857 101.3524761442095,255.83288127214473 101.2246831227094,258.24315952575125 100.03194825525861,263.3398107483954 97.2843982927734,262.9130019155127 96.19815761002246,266.2270262144011" stroke="#4DD2FF" stroke-linecap="round" stroke-linejoin="round" stroke-width="0.5"><title>2025-04-08 5.6km</title><desc>1744119870000</desc></polyline><polyline fill="none" points="132.07246976078022,265.6831929619948 132.90788651898038,264.4639829607768 133.54439452511724,261.7441819198575 136.1898809260456,262.2365622420184 137.60213306499645,256.7968695047748 137.66180569049902,254.59281693365483 137.2838790618116,252.43563724345586 134.57872003538068,245.72948403769988 134.57872003538068,244.4398152337526 136.07053567504045,243.33772849549132 139.19340308068786,242.86875370357302 141.2620541008655,241.46182319590298 143.05223286838736,241.46182319590298 143.52961387310643,240.85215045281802 141.95823473273776,238.36654370142787 140.0288198387716,239.11691857622645 138.19885932083707,237.5927168714552 135.2550097919302,237.52236883986916 132.52995989017654,238.53068842891662 130.2624001179356,238.95277429597627 130.3817453691736,240.85215045281802 129.32752898393665,242.11839191081526 130.1032731165178,243.00944624847034 130.56076324591413,244.32257223200577 131.79399750800803,244.74464673941839 132.88799564365763,244.15843192221655 134.7378470369149,243.94739419713733 136.5479166796431,243.150138701385 139.31274833180942,242.75150984591164 141.40129022719339,241.36802750173956 141.08303622412495,242.00114764439058 141.60019897914026,241.22733388376946 143.13179636921268,241.34457857183588 143.46994124748744,240.75835449284932 142.23670698539354,238.76518067950383 140.48630996828433,239.67969801521394 139.0939487045398,238.06170316123462 137.62202394020278,237.42857142857974 135.11577366560232,237.49891949088487 132.66919601662084,238.48378994813538 130.3220727435546,238.8589775081491 130.30218186834827,240.9459463718813 129.38720160943922,241.8839033140539 129.32752898393665,242.3528802521323 130.12316399160773,243.05634374299552 130.34196361887734,244.0411887671653 131.4160708793206,244.72119817743078 132.82832301815506,244.13498329627328 134.65828353608958,243.94739419713733 136.3291170524899,243.1970361651911 137.92038706806488,242.98599749739515 138.09940494492184,244.32257223200577 142.17703435989097,252.599771240697 138.0198414439801,254.0535240379977 137.781150941737,257.7347573705774 136.76671630667988,261.6972884971037 136.24955355166458,262.09588226495543 134.8174105376238,268.2857142857101 129.32752898393665,266.87894990966015 130.16294574202038,263.2916591397516 130.44141799479257,263.15097985215834 129.9640369900735,265.44873003645625" stroke="#4DD2FF" stroke-linecap="round" stroke-linejoin="round" stroke-width="0.5"><title>2025-04-02 6.9km</title><desc>1743601029000</desc></polyline><polyline fill="none" points="168.00607285811566,268.2857142857101 168.7440432382282,267.6205118386133 169.7641787638422,263.96186470633256 173.17186551936902,264.7805878950021 174.582691246178,258.3074797712907 174.14859102247283,253.52289388689678 170.82772431173362,245.94923247917905 170.8060193004785,245.25837958687043 171.45716963591985,244.33723923563957 172.60753522848245,243.7743183534767 176.29738712939434,243.10904648028372 178.0120830127271,241.7273219524941 178.68493835930713,241.62497166403045 178.70664337056223,240.70381706063927 177.8384429232683,238.9382606374129 177.14388256543316,238.98943637279444 176.47102721885312,238.22179917212634 175.90669692808297,238.34973887981323 174.64780627959408,237.58209958802036 173.3020955863176,237.47974749282002 171.91297487076372,237.96591954762698 170.0463439092273,240.26882613076305 167.22469245560933,240.6782293811557 165.11930637108162,242.36701024448848 166.3781970194541,244.72104815440252 167.81072775751818,245.3095539449132 172.78117531805765,243.64638160112372 175.99351697287057,243.18580871575978 178.44618323631585,241.4970337406994 180.0740590749774,241.7017343845073 180.63838936574757,241.08763191782054 178.88028346002102,238.45209059579065 176.94853746483568,239.50119311244634 175.77646686101798,238.14503531406808 174.25711607839912,237.4285714285652 171.41375961364247,237.55651156838576 168.8308632830158,238.63120599144895 166.07432686293032,239.09178780989896 166.2479669523891,241.1132195526152 165.0758963485714,242.62288507347694 166.03091684065294,243.5184447792126 166.4650170642417,244.79780986293918 167.74561272386927,245.3351411196927 169.06961840600707,244.66987366812828 170.32850905449595,244.59311191787128 171.80444981483743,248.76379733072827 172.95481540751643,249.76168040565972 176.7531923641218,248.96849164048035 179.1407435942674,253.98344650040963 174.53928122366779,255.54420141853916 174.3005261006765,259.4588361567148 173.82301585481036,260.04730501867016 172.60753522848245,264.3712266573857 172.3470750944689,264.57590736533166 169.7641787638422,264.11537552157824 168.96109335008077,267.1855707585637" stroke="#4DD2FF" stroke-linecap="round" stroke-linejoin="round" stroke-width="0.5"><title>2025-03-25 6.1km</title><desc>1742909450000</desc></polyline></svg>