<?xml version="1.0" encoding="utf-8" ?>
<svg baseProfile="full" height="200mm" version="1.1" viewBox="0,0,200,200" width="200mm" xmlns="http://www.w3.org/2000/svg" xmlns:ev="http://www.w3.org/2001/xml-events" xmlns:xlink="http://www.w3.org/1999/xlink"><defs /><rect fill="#1a1a1a" height="200" width="200" x="0" y="0" /><text alignment-baseline="middle" fill="#e1ed5e" style="dominant-baseline: central; font-size:9.0px; font-family:Arial;" text-anchor="middle" x="100.0" y="100.0">2025</text><line stroke="#e1ed5e" stroke-width="0.3" x1="100.0" x2="100.0" y1="15.0" y2="10.0" /><path d="M 100.0 14.0 a86.0,86.0 0 0,1 42.46469731375804,11.215312516191453" fill="none" id="id1" stroke="none" /><text fill="#e1ed5e" style="font-size:6.75px; font-family:Arial;" text-anchor="middle"><textPath startOffset="22.20632615414155" xlink:href="#id1">January</textPath></text><line stroke="#e1ed5e" stroke-width="0.3" x1="143.23703022742887" x2="145.7803849466894" y1="26.81831364943548" y2="22.513508569990506" /><path d="M 143.74570117128098 25.957352633546492 a86.0,86.0 0 0,1 28.547481713284135,27.462654790039103" fill="none" id="id2" stroke="none" /><text fill="#e1ed5e" style="font-size:6.75px; font-family:Arial;" text-anchor="middle"><textPath startOffset="19.985693538727396" xlink:href="#id2">February</textPath></text><line stroke="#e1ed5e" stroke-width="0.3" x1="172.23445277983987" x2="176.4835382374775" y1="55.19839476539836" y2="52.563006222186495" /><path d="M 173.08426987136738 54.67131705675599 a86.0,86.0 0 0,1 12.851231095245387,41.99856678651699" fill="none" id="id3" stroke="none" /><text fill="#e1ed5e" style="font-size:6.75px; font-family:Arial;" text-anchor="middle"><textPath startOffset="22.20632615414155" xlink:href="#id3">March</textPath></text><path d="M 120.18372546131832 94.20196356495316 l 20.605775544179235 -5.919275785162458 a42.43911872251063,42.43911872251063 0 0,0 0.19565086370684653,0.7038602544719801 l -20.704613178452448 5.563704227271526" fill="red" stroke="none" /><path d="M 120.37134235888165 94.90015583598534 l 21.339854256537834 -5.342305346102003 a42.99840008048917,42.99840008048917 0 0,0 0.17356447467085825,0.7195368001572036 l -21.428651531469512 4.974183314285392" fill="red" stroke="none" /><path d="M 120.53481517161879 95.60439243477599 l 24.535899847305025 -5.252065143369429 a46.09172312909536,46.09172312909536 0 0,0 0.15939111362504413,0.7772476766375519 l -24.622670256845065 4.828941810568465" fill="red" stroke="none" /><path d="M 120.73433829027371 96.67025291283417 l 9.196993210760036 -1.4769538784161453 a30.314831017132555,30.314831017132555 0 0,0 0.07830480590775978,0.5159308339622483 l -9.221053910107097 1.318423932061815" fill="red" stroke="none" /><path d="M 120.78858239683441 97.02765380044208 l 37.259652392911 -5.327375579192075 a58.638578971612766,58.638578971612766 0 0,0 0.13426559459610357,1.0004346329962635 l -37.34583398656494 4.685222604131146" fill="red" stroke="none" /><path d="M 120.87857604477298 97.74499172005257 l 23.819223168673133 -2.5726153618948864 a44.957749104607316,44.957749104607316 0 0,0 0.07647714385113255,0.7701144017799062 l -23.859977438206496 2.162225429410545" fill="red" stroke="none" /><path d="M 120.91429891909075 98.10471618934814 l 17.88548315248372 -1.6208081751019923 a38.9587729741833,38.9587729741833 0 0,0 0.054775137229613316,0.6683954145362069 l -17.910732773532825 1.3126988433580167" fill="red" stroke="none" /><path d="M 120.98425023603335 99.18683210126433 l 23.39420765295403 -0.9065569875387889 a44.41176621447404,44.41176621447404 0 0,0 0.023027089538459666,0.7641569970891101 l -23.406346436948134 0.5037298430246797" fill="red" stroke="none" /><line stroke="#e1ed5e" stroke-width="0.3" x1="184.98032266829074" x2="189.97916517819016" y1="98.17113171792111" y2="98.06355123074" /><path d="M 185.9800911702706 98.14961562048488 a86.0,86.0 0 0,1 -9.607161424134198,41.387399972396054" fill="none" id="id4" stroke="none" /><text fill="#e1ed5e" style="font-size:6.75px; font-family:Arial;" text-anchor="middle"><textPath startOffset="21.466115282336823" xlink:href="#id4">April</textPath></text><path d="M 120.99980553446 99.90962569577887 l 43.01312307472348 -0.1851103365636919 a64.01352139127896,64.01352139127896 0 0,0 -0.0047421908922318816,1.1019181547501438 l -43.00993658654175 -0.5553172963901366" fill="red" stroke="none" /><path d="M 120.9904718944345 100.63252640178507 l 19.842374134599698 0.5979296500503771 a40.851381089582674,40.851381089582674 0 0,0 -0.0272301050160404,0.7026880162123343 l -19.829141896732455 -0.9393949132767176" fill="red" stroke="none" /><path d="M 120.95626037817324 101.35467743843564 l 18.651011997441454 1.2056590584855507 a39.68994013618057,39.68994013618057 0 0,0 -0.04994022880020556,0.681394744282292 l -18.62749520997691 -1.5265269392646128" fill="red" stroke="none" /><path d="M 120.92983693683757 101.71520430193887 l 18.68577580910109 1.5313030459604768 a39.74841610927588,39.74841610927588 0 0,0 -0.06175276775771085,0.6814366464311967 l -18.656648445066303 -1.8527210809402441" fill="red" stroke="none" /><path d="M 120.89721153311464 102.0752229133903 l 34.394348074741 3.4155724127460068 a55.56352578070055,55.56352578070055 0 0,0 -0.10270705672827452,0.950939787363476 l -34.33045871651168 -4.007108521994274" fill="red" stroke="none" /><path d="M 120.76222939487914 103.15116336523771 l 31.444179037930418 4.772403923961098 a52.80428012992688,52.80428012992688 0 0,0 -0.14412612853630885,0.8974735399747283 l -31.35737115503282 -5.3129566936290304" fill="red" stroke="none" /><path d="M 120.5718875245553 104.21870165774334 l 18.2212605053158 3.7366557545190875 a39.600455118904,39.600455118904 0 0,0 -0.14268602397721047,0.6665816013982282 l -18.15424044261415 -4.049751175333484" fill="red" stroke="none" /><path d="M 120.49622156327973 104.57218783832717 l 53.20141040894426 11.867887010424365 a75.50905256554293,75.50905256554293 0 0,0 -0.29390796303941036,1.2661478124877343 l -52.9892418799743 -12.781903480260663" fill="red" stroke="none" /><path d="M 120.23288151984713 105.62410040840565 l 20.98268287011276 5.832521442063939 a42.778229652564946,42.778229652564946 0 0,0 -0.20331344287158948,0.7077607668539007 l -20.87917679035507 -6.192839684422422" fill="red" stroke="none" /><path d="M 119.79798401119884 107.00284435728193 l 37.02094376051918 13.094863950185834 a60.26863556062778,60.26863556062778 0 0,0 -0.3543673482883422,0.9750667477694245 l -36.79005215122561 -13.73017849496139" fill="red" stroke="none" /><path d="M 119.26925614724726 108.34839909993367 l 17.591266344073443 7.621410551155909 a40.17129495828077,40.17129495828077 0 0,0 -0.280355305429796,0.6321272021050851 l -17.457469953912373 -7.923086089753682" fill="red" stroke="none" /><path d="M 118.97047184881838 109.00673069616215 l 21.21500317031614 10.072381003278291 a44.484659218130574,44.484659218130574 0 0,0 -0.33436945658029243,0.6889001175170085 l -21.038480457121135 -10.436070076760576" fill="red" stroke="none" /><path d="M 118.81262510543309 109.33194174019688 l 56.43787531629926 27.995825220590632 a84.0,84.0 0 0,0 -0.6536853208549238,1.2897831531892228 l -55.94761132565807 -28.96316258548255" fill="red" stroke="none" /><line stroke="#e1ed5e" stroke-width="0.3" x1="174.80103733775053" x2="179.2010983576182" y1="140.37084112569926" y2="142.7455964860345" /><path d="M 175.68104954172406 140.8457921977663 a86.0,86.0 0 0,1 -30.038265399797805,32.042727171017184" fill="none" id="id5" stroke="none" /><text fill="#e1ed5e" style="font-size:6.75px; font-family:Arial;" text-anchor="middle"><textPath startOffset="22.206326154141568" xlink:href="#id5">May</textPath></text><path d="M 118.30583269289576 110.29060199501025 l 16.540778750787545 9.298379028556035 a39.97517362874963,39.97517362874963 0 0,0 -0.34235500859965046,0.596924814683044 l -16.378271746035516 -9.581723689097393" fill="red" stroke="none" /><path d="M 117.75023020441432 111.22182372390056 l 16.30578869998301 10.30863737332675 a40.291105453634394,40.291105453634394 0 0,0 -0.3756572617611438,0.5830284125069733 l -16.125926574844815 -10.587787385755176" fill="red" stroke="none" /><path d="M 117.55443506779139 111.5257021239791 l 36.949053793316835 24.259612237024843 a65.20137285325227,65.20137285325227 0 0,0 -0.6240606412600676,0.9328859850240909 l -36.525990046646044 -24.89203513625474" fill="red" stroke="none" /><path d="M 116.71984013943494 112.70617746262583 l 15.294037304781414 11.62264414575556 a40.209201805877086,40.209201805877086 0 0,0 -0.4235238725982354,0.547461696925781 l -15.09170661496511 -11.884183836794593" fill="red" stroke="none" /><path d="M 116.498646956653 112.99209946851258 l 4.909506222564595 3.8660620687516274 a27.248974897440426,27.248974897440426 0 0,0 -0.2933573875799145,0.3660084467663284 l -4.842230922929827 -3.949998349096206" fill="red" stroke="none" /><path d="M 116.0416608686014 113.55231037782055 l 15.389345996838506 13.001221953834333 a41.14606022286425,41.14606022286425 0 0,0 -0.4617322520557044,0.5370989231602864 l -15.163271235212022 -13.264197976156147" fill="red" stroke="none" /><path d="M 115.80600337817218 113.82643327865902 l 23.467308158920122 20.528223531644063 a52.17887928696065,52.17887928696065 0 0,0 -0.5971777081851722,0.6709354857834597 l -23.110471601086612 -20.92913318716839" fill="red" stroke="none" /><path d="M 115.32070863581623 114.36230785411682 l 14.719199892156096 13.798427033800595 a41.175515707717786,41.175515707717786 0 0,0 -0.4891914958413394,0.5129153276278174 l -14.479501844935792 -14.049749478010918" fill="red" stroke="none" /><path d="M 114.81725581225074 114.88116024355365 l 8.798661393868842 8.836608599459854 a33.47004786935503,33.47004786935503 0 0,0 -0.4117613552872533,0.4029951504258575 l -8.645250086205795 -8.986753852808285" fill="red" stroke="none" /><path d="M 114.29624159901734 115.38237550388516 l 21.183827824519234 22.793234987635035 a52.11729619520991,52.11729619520991 0 0,0 -0.6623871350033534,0.6050749427781779 l -20.788341140049017 -23.154502696999796" fill="red" stroke="none" /><path d="M 113.48314897796784 116.09983520530334 l 25.698300679637434 30.685591820914194 a61.0250946684803,61.0250946684803 0 0,0 -0.8111393728743315,0.667512481788224 l -25.16629117821841 -31.123399421559597" fill="red" stroke="none" /><path d="M 113.20401910651253 116.32954008644616 l 12.599145906205313 15.581487460048344 a41.03799463602817,41.03799463602817 0 0,0 -0.5531188997920624,0.43943110623249 l -12.329069513695899 -15.79605248028596" fill="red" stroke="none" /><path d="M 112.92097659922987 116.55440617244103 l 12.325360694913543 15.791300727036381 a41.03196682583663,41.03196682583663 0 0,0 -0.560518690273359,0.42978182995849934 l -12.05171327614669 -16.00112189882225" fill="red" stroke="none" /><path d="M 112.34349029814194 116.9893568818739 l 18.303291182643328 25.19231906890971 a52.139418880036615,52.139418880036615 0 0,0 -0.7306288627730806,0.5212842941891208 l -17.86693499202136 -25.503647624943053" fill="red" stroke="none" /><path d="M 112.04921762599082 117.19931262002967 l 17.845292060817968 25.472754039041007 a52.101698459559614,52.101698459559614 0 0,0 -0.738958675506398,0.5082625151982512 l -17.404176500688685 -25.776157343604353" fill="red" stroke="none" /><line stroke="#e1ed5e" stroke-width="0.3" x1="143.8653032363475" x2="146.44561519142675" y1="172.8068346515853" y2="177.08958963109032" /><path d="M 144.38136562736335 173.6633856474863 a86.0,86.0 0 0,1 -40.68145358897372,12.25698825130547" fill="none" id="id6" stroke="none" /><text fill="#e1ed5e" style="font-size:6.75px; font-family:Arial;" text-anchor="middle"><textPath startOffset="21.466115282336833" xlink:href="#id6">June</textPath></text><path d="M 110.5260780823613 118.17145234162733 l 10.040485598398506 17.333160946604465 a41.03122111735932,41.03122111735932 0 0,0 -0.6142007120462304,0.3487591939537727 l -9.740636119431077 -17.503423306352868" fill="red" stroke="none" /><path d="M 110.21172684928248 118.3499491758327 l 9.743204661330886 17.50803884435277 a41.036503219073566,41.036503219073566 0 0,0 -0.6201928572577483,0.33817859529290245 l -9.440388992204488 -17.673158091405444" fill="red" stroke="none" /><path d="M 109.89434966115114 118.52300852407294 l 18.867631726915075 35.321705344508366 a61.04510451262131,61.04510451262131 0 0,0 -0.9311096348387372,0.4871125539885926 l -18.256831189549843 -35.641247317441675" fill="red" stroke="none" /><path d="M 109.2508944713604 118.85261126421891 l 8.82084418975607 17.97620187394273 a41.02376403258627,41.02376403258627 0 0,0 -0.6366250004365501,0.3056186878471088 l -8.510106521319287 -18.1253748382894" fill="red" stroke="none" /><path d="M 108.59647513512805 119.15986991738527 l 12.73927166057473 28.393357047174057 a52.12027902911912,52.12027902911912 0 0,0 -0.8217117532195419,0.3602142847289941 l -12.248639232697434 -28.608435885197505" fill="red" stroke="none" /><path d="M 108.2653958097858 119.30500536409082 l 7.879642389992357 18.40402348618583 a41.01991120545354,41.01991120545354 0 0,0 -0.6514910055189838,0.2723232931444202 l -7.561679924975912 -18.536931822350226" fill="red" stroke="none" /><path d="M 107.59598834532513 119.57807347666477 l 18.104635992991984 46.66330141978322 a71.05238799330441,71.05238799330441 0 0,0 -1.14404420317292,0.43257962566888464 l -17.29872156905879 -46.96802929555873" fill="red" stroke="none" /><path d="M 106.91757812671514 119.82793768551818 l 6.646948107942444 19.052227595980867 a41.1784363992539,41.1784363992539 0 0,0 -0.6712678633230477,0.22773050512452175 l -6.31801051168217 -19.163821088003512" fill="red" stroke="none" /><path d="M 106.2309692047433 120.05430185196036 l 9.250988790634727 29.77419973368868 a52.17825786322957,52.17825786322957 0 0,0 -0.8600095636463704,0.259113826760627 l -8.73710425254811 -29.92902892955503" fill="red" stroke="none" /><path d="M 105.88484417918355 120.15858648285463 l 5.614111429346926 19.231189021656288 a41.033893239403,41.033893239403 0 0,0 -0.6797339290148303,0.19209959801829024 l -5.28224633222749 -19.324977413013098" fill="red" stroke="none" /><path d="M 105.53697534728816 120.25689768951611 l 13.19082854908766 48.258344601387115 a71.02864960677687,71.02864960677687 0 0,0 -1.1821519938934233,0.31221708599952824 l -12.35818611238274 -48.47825303669023" fill="red" stroke="none" /><path d="M 104.13013068566511 120.58985236759428 l 6.11877972358539 30.503821977285494 a52.11145481213769,52.11145481213769 0 0,0 -0.8810121004805751,0.16884806588357384 l -5.59280000853311 -30.604627241517537" fill="red" stroke="none" /><path d="M 103.7750983002368 120.6578951692458 l 3.603982773431468 19.72152574693082 a41.048123842844895,41.048123842844895 0 0,0 -0.6961586440843752,0.12103610368546354 l -3.263975157875043 -19.78064042913729" fill="red" stroke="none" /><path d="M 101.26447882468166 120.96189622390904 l 1.2015243551191133 19.918268579030414 a40.954475286570045,40.954475286570045 0 0,0 -0.7040502014436698,0.03639135346666781 l -0.8584860852619638 -19.935999739259284" fill="red" stroke="none" /><line stroke="#e1ed5e" stroke-width="0.3" x1="102.19456741930631" x2="102.32365962044197" y1="184.97166512339345" y2="189.96999836594603" /><path d="M 102.22038585953345 185.97133177190398 a86.0,86.0 0 0,1 -42.740103519485714,-10.115201625700543" fill="none" id="id7" stroke="none" /><text fill="#e1ed5e" style="font-size:6.75px; font-family:Arial;" text-anchor="middle"><textPath startOffset="22.20632615414155" xlink:href="#id7">July</textPath></text><path d="M 100.54218724476979 120.99299961872073 l 0.7754911808069217 30.026316959767684 a51.036329614983615,51.036329614983615 0 0,0 -0.8784088953704615,0.015122605743692013 l -0.25852259554379214 -30.035217042790535" fill="red" stroke="none" /><path d="M 99.09653310690486 120.98055641714683 l -1.2917941902008798 29.998399602671547 a51.026200408166886,51.026200408166886 0 0,0 -0.8771936748034642,-0.04534089332414318 l 1.807975933417833 -29.971718902585202" fill="red" stroke="none" /><path d="M 98.73552117531835 120.96189622390904 l -1.2060818625839635 19.993820653650744 a41.030164697016474,41.030164697016474 0 0,0 -0.7046193010056109,-0.0485946724182987 l 1.5500639243685044 -19.97009763671616" fill="red" stroke="none" /><path d="M 98.01472825383883 120.90594882070398 l -2.8395839761424644 29.902302993086533 a51.036826753968484,51.036826753968484 0 0,0 -0.873865679686411,-0.09057975072068249 l 3.353882252434469 -29.84899387391009" fill="red" stroke="none" /><path d="M 95.86986931433489 120.58985236759428 l -6.122507348215248 30.522405224802856 a52.130408235935846,52.130408235935846 0 0,0 -0.8782944549069487,-0.18405514252278588 l 6.6469932645515835 -30.41249410155353" fill="red" stroke="none" /><path d="M 94.81253420990036 120.34920634021253 l -15.359048707233539 60.24993011604352 a83.17679998342871,83.17679998342871 0 0,0 -1.3843374538364521,-0.36561610360553226 l 16.39387660388148 -59.97662266313441" fill="red" stroke="none" /><path d="M 94.11515582081647 120.15858648285463 l -11.21946351650893 38.43237283814645 a61.036528865132304,61.036528865132304 0 0,0 -1.0060128625486948,-0.3031034230365737 l 11.87935135349787 -38.23355404600415" fill="red" stroke="none" /><path d="M 93.76903079525671 120.05430185196036 l -5.94359384497724 19.12938760183424 a41.03146968685176,41.03146968685176 0 0,0 -0.6726790091776751,-0.21537057623572428 l 6.271994199245856 -19.024244178938808" fill="red" stroke="none" /><path d="M 93.08242187328487 119.8279376855182 l -10.265797270774565 29.424978633922297 a52.16433797165321,52.16433797165321 0 0,0 -0.8452620878311232,-0.3030809117116242 l 10.770778919235415 -29.243910181170715" fill="red" stroke="none" /><path d="M 92.06813273071674 119.44442032107085 l -9.570667043688035 23.46182385970596 a46.338801204575645,46.338801204575645 0 0,0 -0.7359672730666358,-0.307634379830568 l 9.973105776252133 -23.293604436855418" fill="red" stroke="none" /><path d="M 91.07499286063937 119.00905698771935 l -26.430865805590862 56.29416609847463 a83.19022273602019,83.19022273602019 0 0,0 -1.2909828445670106,-0.6197502182904396 l 27.395961318158115 -55.83086160368463" fill="red" stroke="none" /><path d="M 90.42595943632237 118.69057910512821 l -9.133727680496936 17.83099398854556 a41.03420395126854,41.03420395126854 0 0,0 -0.6258870872940254,-0.3274345428216699 l 9.439305670317456 -17.671130026779174" fill="red" stroke="none" /><line stroke="#e1ed5e" stroke-width="0.3" x1="58.666819895761336" x2="56.23545636021788" y1="174.27360380694188" y2="178.64263932499728" /><path d="M 58.180547188652646 175.14741091055294 a86.0,86.0 0 0,1 -31.652253787137756,-30.449443065178592" fill="none" id="id8" stroke="none" /><text fill="#e1ed5e" style="font-size:6.75px; font-family:Arial;" text-anchor="middle"><textPath startOffset="22.20632615414155" xlink:href="#id8">August</textPath></text><path d="M 89.7882731507175 118.34994917583269 l -15.16687730068502 27.254100284048988 a52.19006491412023,52.19006491412023 0 0,0 -0.7812386314388539,-0.44360768400681205 l 15.63376469904508 -26.988989434247543" fill="red" stroke="none" /><path d="M 89.1626897886671 117.98757091392108 l -20.691331648558027 34.34309695616999 a61.09463198398897,61.09463198398897 0 0,0 -0.8961151154071163,-0.5504670945831694 l 21.27942596389745 -33.98184139475844" fill="red" stroke="none" /><path d="M 88.8546689885994 117.79835938074946 l -16.518314114118873 26.378659428460345 a52.123759002013216,52.123759002013216 0 0,0 -0.7563360911254247,-0.48272947815985323 l 16.969932007291224 -26.090415521476686" fill="red" stroke="none" /><path d="M 88.54995079064634 117.60387380957326 l -13.89217807930876 21.35852391345974 a46.47899439830894,46.47899439830894 0 0,0 -0.6669189042540034,-0.4419974837632296 l 14.257771682302725 -21.116228408605195" fill="red" stroke="none" /><path d="M 87.95078237400918 117.19931262002967 l -17.891751268986038 25.53907091289663 a52.18266997172029,52.18266997172029 0 0,0 -0.7312349396456085,-0.5217167139453346 l 18.32871353648053 -25.227309937107076" fill="red" stroke="none" /><path d="M 87.65650970185807 116.9893568818739 l -36.658961180520194 50.456731392122606 a83.36794992311113,83.36794992311113 0 0,0 -1.1537132968118375,-0.8534895155919154 l 37.5220594477506 -49.818231927790926" fill="red" stroke="none" /><path d="M 87.07902340077011 116.55440617244103 l -24.645444925992383 31.575841227800144 a61.05535800418425,61.05535800418425 0 0,0 -0.8229172196449347,-0.6537752087341158 l 25.185319638354677 -31.1469321050609" fill="red" stroke="none" /><path d="M 86.51685102203217 116.09983520530335 l -32.123125217068946 38.35728753863273 a71.0317567254323,71.0317567254323 0 0,0 -0.9306327873593463,-0.7931054510347955 l 32.778623481005354 -37.798657697374985" fill="red" stroke="none" /><path d="M 86.24171649860922 115.8653595955263 l -20.380343198005935 23.501585316505288 a52.10760198500495,52.10760198500495 0 0,0 -0.6725792376064506,-0.5934729777406442 l 20.781864788518973 -23.147289196992357" fill="red" stroke="none" /><path d="M 85.44109423537348 115.13401014063109 l -43.15779290950355 44.86260754064566 a83.25149511590539,83.25149511590539 0 0,0 -1.0241917965704996,-1.0023872367428033 l 43.92363465844984 -44.11307020098029" fill="red" stroke="none" /><path d="M 84.9287848128048 114.62390073753433 l -13.410662664930083 13.012633500390821 a39.68621159379405,39.68621159379405 0 0,0 -0.4714976092019084,-0.4943633582255999 l 13.632666825510949 -12.77986302558272" fill="red" stroke="none" /><path d="M 84.67929136418377 114.36230785411682 l -22.83977194553777 21.411009359761106 a52.30633329420665,52.30633329420665 0 0,0 -0.6101249630946911,-0.6621701462955959 l 23.20494331662819 -21.01468795866417" fill="red" stroke="none" /><line stroke="#e1ed5e" stroke-width="0.3" x1="26.63291911575756" x2="22.317208475507996" y1="142.92168965132927" y2="145.44649492493687" /><path d="M 25.769776987707644 143.4266507060508 a86.0,86.0 0 0,1 -11.730757126820373,-40.83630448921669" fill="none" id="id9" stroke="none" /><text fill="#e1ed5e" style="font-size:6.75px; font-family:Arial;" text-anchor="middle"><textPath startOffset="21.46611528233685" xlink:href="#id9">September</textPath></text><line stroke="#e1ed5e" stroke-width="0.3" x1="15.007084014347285" x2="10.007500721073583" y1="101.09737516637583" y2="101.16192664675087" /><path d="M 14.007167355692545 101.11028546245083 a86.0,86.0 0 0,1 10.666146001902534,-42.60595125391555" fill="none" id="id10" stroke="none" /><text fill="#e1ed5e" style="font-size:6.75px; font-family:Arial;" text-anchor="middle"><textPath startOffset="22.20632615414155" xlink:href="#id10">October</textPath></text><line stroke="#e1ed5e" stroke-width="0.3" x1="26.266209847984243" x2="21.928928074336255" y1="57.711370442889674" y2="55.22380399835377" /><path d="M 25.398753493254645 57.213857153982495 a86.0,86.0 0 0,1 29.58750427330803,-30.492523968695096" fill="none" id="id11" stroke="none" /><text fill="#e1ed5e" style="font-size:6.75px; font-family:Arial;" text-anchor="middle"><textPath startOffset="21.46611528233685" xlink:href="#id11">November</textPath></text><line stroke="#e1ed5e" stroke-width="0.3" x1="56.762969772571076" x2="54.21961505331055" y1="26.818313649435495" y2="22.513508569990535" /><path d="M 56.25429882871897 25.957352633546506 a86.0,86.0 0 0,1 42.265352541879196,-11.944610805530505" fill="none" id="id12" stroke="none" /><text fill="#e1ed5e" style="font-size:6.75px; font-family:Arial;" text-anchor="middle"><textPath startOffset="22.20632615414155" xlink:href="#id12">December</textPath></text></svg>