<?xml version="1.0" encoding="utf-8" ?>
<svg baseProfile="full" height="200mm" version="1.1" viewBox="0,0,200,200" width="200mm" xmlns="http://www.w3.org/2000/svg" xmlns:ev="http://www.w3.org/2001/xml-events" xmlns:xlink="http://www.w3.org/1999/xlink"><defs /><rect fill="#1a1a1a" height="200" width="200" x="0" y="0" /><text alignment-baseline="middle" fill="#e1ed5e" style="dominant-baseline: central; font-size:9.0px; font-family:Arial;" text-anchor="middle" x="100.0" y="100.0">2025</text><line stroke="#e1ed5e" stroke-width="0.3" x1="100.0" x2="100.0" y1="15.0" y2="10.0" /><path d="M 100.0 14.0 a86.0,86.0 0 0,1 42.46469731375804,11.215312516191453" fill="none" id="id1" stroke="none" /><text fill="#e1ed5e" style="font-size:6.75px; font-family:Arial;" text-anchor="middle"><textPath startOffset="22.20632615414155" xlink:href="#id1">January</textPath></text><line stroke="#e1ed5e" stroke-width="0.3" x1="143.23703022742887" x2="145.7803849466894" y1="26.81831364943548" y2="22.513508569990506" /><path d="M 143.74570117128098 25.957352633546492 a86.0,86.0 0 0,1 28.547481713284135,27.462654790039103" fill="none" id="id2" stroke="none" /><text fill="#e1ed5e" style="font-size:6.75px; font-family:Arial;" text-anchor="middle"><textPath startOffset="19.985693538727396" xlink:href="#id2">February</textPath></text><line stroke="#e1ed5e" stroke-width="0.3" x1="172.23445277983987" x2="176.4835382374775" y1="55.19839476539836" y2="52.563006222186495" /><path d="M 173.08426987136738 54.67131705675599 a86.0,86.0 0 0,1 12.851231095245387,41.99856678651699" fill="none" id="id3" stroke="none" /><text fill="#e1ed5e" style="font-size:6.75px; font-family:Arial;" text-anchor="middle"><textPath startOffset="22.20632615414155" xlink:href="#id3">March</textPath></text><path d="M 120.18372546131832 94.20196356495316 l 18.305958595424208 -5.258623593456072 a40.04629208520751,40.04629208520751 0 0,0 0.18461956493388726,0.6641748034886127 l -18.39376493092446 4.942737486548507" fill="red" stroke="none" /><path d="M 120.37134235888165 94.90015583598534 l 18.958106556824998 -4.746049002629374 a40.54315187873466,40.54315187873466 0 0,0 0.16365378349336357,0.6784505869172883 l -19.036993140579177 4.41901318405268" fill="red" stroke="none" /><path d="M 120.53481517161879 95.60439243477599 l 21.797440515803277 -4.665880536690135 a43.29122819008962,43.29122819008962 0 0,0 0.1497066415175639,0.7300227512712141 l -21.874526453235838 4.289982129255509" fill="red" stroke="none" /><path d="M 120.73433829027371 96.67025291283417 l 8.170513968649406 -1.3121106015965818 a29.275199861194725,29.275199861194725 0 0,0 0.07561938385030666,0.49823725787096135 l -8.191889245939011 1.1712742313335383" fill="red" stroke="none" /><path d="M 120.78858239683441 97.02765380044208 l 33.10109112477453 -4.732785551598061 a54.43772559143403,54.43772559143403 0 0,0 0.12464684041084613,0.9287637418632302 l -33.17765396424321 4.162303467670167" fill="red" stroke="none" /><path d="M 120.87857604477298 97.74499172005257 l 21.16075234179046 -2.2854849697760256 a42.283817355391456,42.283817355391456 0 0,0 0.07192854728867842,0.724310655140895 l -21.196958014761364 1.9208987839306955" fill="red" stroke="none" /><path d="M 120.91429891909075 98.10471618934814 l 15.889278874582898 -1.439909275966247 a36.95438879673176,36.95438879673176 0 0,0 0.051957019255170746,0.6340072372169334 l -15.911710377657563 1.166188121541545" fill="red" stroke="none" /><path d="M 120.98425023603335 99.18683210126433 l 20.7831729385554 -0.8053758832176289 a41.798771783621504,41.798771783621504 0 0,0 0.021672276121849177,0.7191973355424793 l -20.793956909132895 0.44750840025015043" fill="red" stroke="none" /><line stroke="#e1ed5e" stroke-width="0.3" x1="184.98032266829074" x2="189.97916517819016" y1="98.17113171792111" y2="98.06355123074" /><path d="M 185.9800911702706 98.14961562048488 a86.0,86.0 0 0,1 -9.607161424134198,41.387399972396054" fill="none" id="id4" stroke="none" /><text fill="#e1ed5e" style="font-size:6.75px; font-family:Arial;" text-anchor="middle"><textPath startOffset="21.466115282336823" xlink:href="#id4">April</textPath></text><path d="M 120.99980553446 99.90962569577887 l 38.21241517348271 -0.1644501149425171 a59.21276903380487,59.21276903380487 0 0,0 -0.004386545965805823,1.019278798811182 l -38.2095843302274 -0.4933381620723496" fill="red" stroke="none" /><path d="M 120.9904718944345 100.63252640178507 l 17.627760652061706 0.5311945378290137 a38.63576233802765,38.63576233802765 0 0,0 -0.025753250876199906,0.6645769731169011 l -17.616005268334302 -0.834548757959921" fill="red" stroke="none" /><path d="M 120.95626037817324 101.35467743843564 l 16.569366809606436 1.0710950799941727 a37.60395016680293,37.60395016680293 0 0,0 -0.047315512915318415,0.6455825813794863 l -16.54847473802678 -1.3561507978704295" fill="red" stroke="none" /><path d="M 120.92983693683757 101.71520430193887 l 16.60025062155013 1.3603938418283894 a37.65589961854838,37.65589961854838 0 0,0 -0.05850185369547932,0.6455630806487714 l -16.574374171577578 -1.6459383110257315" fill="red" stroke="none" /><path d="M 120.89721153311464 102.0752229133903 l 30.55558430319182 3.034359324809002 a51.705880033334296,51.705880033334296 0 0,0 -0.09557634579794058,0.884918260198289 l -30.49882565589283 -3.5598739068920824" fill="red" stroke="none" /><path d="M 120.76222939487914 103.15116336523771 l 27.934684540328362 4.239754453568746 a49.25459463864623,49.25459463864623 0 0,0 -0.13443747401586148,0.8371422790273596 l -27.857565311951213 -4.71997596228931" fill="red" stroke="none" /><path d="M 120.5718875245553 104.21870165774334 l 16.18758001374879 3.3196064560114387 a37.52445259983858,37.52445259983858 0 0,0 -0.13520589415742176,0.6316369251436165 l -16.128040080866924 -3.597757200571224" fill="red" stroke="none" /><path d="M 120.49622156327973 104.57218783832717 l 47.26358462345836 10.54330848951576 a69.42528043660568,69.42528043660568 0 0,0 -0.2702277682381338,1.1641341530521128 l -47.07509628928967 -11.355311299916437" fill="red" stroke="none" /><path d="M 120.23288151984713 105.62410040840565 l 18.640799178738252 5.181551929284553 a40.34755474001614,40.34755474001614 0 0,0 -0.19176109746165582,0.6675455369565847 l -18.548845444390494 -5.50165494174572" fill="red" stroke="none" /><path d="M 119.79798401119884 107.00284435728193 l 32.88902483629311 11.633342155497266 a55.88585106299078,55.88585106299078 0 0,0 -0.32859746473117246,0.9041590959446841 l -32.68390311055671 -12.197749048448081" fill="red" stroke="none" /><path d="M 119.26925614724726 108.34839909993367 l 15.627899694687978 6.770782574480694 a38.03158082909863,38.03158082909863 0 0,0 -0.2654222491556006,0.5984571024184976 l -15.509036360801105 -7.038788013391879" fill="red" stroke="none" /><path d="M 118.97047184881838 109.00673069616215 l 18.84719013875242 8.948199460293312 a41.86352917671121,41.86352917671121 0 0,0 -0.31466770224565505,0.6483086681207813 l -18.690369179892052 -9.271297084379368" fill="red" stroke="none" /><path d="M 118.81262510543309 109.33194174019688 l 50.1388266866633 24.87120255357892 a76.96855061529118,76.96855061529118 0 0,0 -0.5989668060082745,1.1818183322499352 l -49.70328121086876 -25.730575097531553" fill="red" stroke="none" /><line stroke="#e1ed5e" stroke-width="0.3" x1="174.80103733775053" x2="179.2010983576182" y1="140.37084112569926" y2="142.7455964860345" /><path d="M 175.68104954172406 140.8457921977663 a86.0,86.0 0 0,1 -30.038265399797805,32.042727171017184" fill="none" id="id5" stroke="none" /><text fill="#e1ed5e" style="font-size:6.75px; font-family:Arial;" text-anchor="middle"><textPath startOffset="22.206326154141568" xlink:href="#id5">May</textPath></text><path d="M 118.30583269289576 110.29060199501025 l 14.694657344917227 8.260584084125401 a37.857348661501774,37.857348661501774 0 0,0 -0.32421755179688,0.5653006299366302 l -14.550287796967968 -8.512304559920347" fill="red" stroke="none" /><path d="M 117.75023020441432 111.22182372390056 l 14.485894605987973 9.158087184186043 a38.1380192382009,38.1380192382009 0 0,0 -0.35558279463201087,0.5518723937271113 l -14.32610694797891 -9.406081177834606" fill="red" stroke="none" /><path d="M 117.55443506779139 111.5257021239791 l 32.82515853045032 21.551989450718448 a60.26804402861281,60.26804402861281 0 0,0 -0.5768423663200529,0.8623010706484429 l -32.44931305871955 -22.1138274355727" fill="red" stroke="none" /><path d="M 116.71984013943494 112.70617746262583 l 13.587065095314449 10.325437256432348 a38.06525688177103,38.06525688177103 0 0,0 -0.4009416820519408,0.5182711715347754 l -13.40731659604444 -10.557786422080376" fill="red" stroke="none" /><path d="M 116.498646956653 112.99209946851258 l 4.361554722439581 3.4345696916949655 a26.551524886366327,26.551524886366327 0 0,0 -0.285848770687486,0.3566402926903977 l -4.30178803969724 -3.5091378179636132" fill="red" stroke="none" /><path d="M 116.0416608686014 113.55231037782055 l 13.67173635492515 11.550151571171615 a38.89755224257273,38.89755224257273 0 0,0 -0.4364999783487722,0.5077480883928595 l -13.470893867005598 -11.783776758726" fill="red" stroke="none" /><path d="M 115.80600337817218 113.82643327865902 l 20.848114674558047 18.237062186870357 a48.69899497619542,48.69899497619542 0 0,0 -0.557351070168981,0.6261898357729782 l -20.531104754740728 -18.5932261923842" fill="red" stroke="none" /><path d="M 115.32070863581623 114.36230785411682 l 13.07638546318614 12.258380346867789 a38.92372019169849,38.92372019169849 0 0,0 -0.4624387230374805,0.4848651522991475 l -12.863440188769696 -12.481652615749443" fill="red" stroke="none" /><path d="M 114.81725581225074 114.88116024355365 l 7.816640088405666 7.850351994704546 a32.07826198970002,32.07826198970002 0 0,0 -0.39463907203527376,0.38623739250087713 l -7.680351063994599 -7.983739490127995" fill="red" stroke="none" /><path d="M 114.29624159901734 115.38237550388516 l 18.819494282892357 20.249275017328213 a48.64428519226371,48.64428519226371 0 0,0 -0.6182467444608354,0.5647537425761459 l -18.468147988964656 -20.570221526490943" fill="red" stroke="none" /><path d="M 113.48314897796784 116.09983520530334 l 22.83010543357555 27.260763476015896 a56.557881537058115,56.557881537058115 0 0,0 -0.7517616287249342,0.6186486407695104 l -22.357473676305926 -27.649707235642587" fill="red" stroke="none" /><path d="M 113.20401910651253 116.32954008644616 l 11.192951354934777 13.84243285030541 a38.80154788913455,38.80154788913455 0 0,0 -0.5229755905232578,0.4154834383034453 l -10.95301827169417 -14.033050202613982" fill="red" stroke="none" /><path d="M 112.92097659922987 116.55440617244103 l 10.949723395317285 14.028828794006667 a38.796192844693195,38.796192844693195 0 0,0 -0.5299768176651789,0.40636362441480656 l -10.706617849158613 -14.215231760248844" fill="red" stroke="none" /><path d="M 112.34349029814194 116.9893568818739 l 16.260455221939456 22.380596586108545 a48.66393875742989,48.66393875742989 0 0,0 -0.6819270140736726,0.4865368182563761 l -15.8728008800169 -22.65717766620914" fill="red" stroke="none" /><path d="M 112.04921762599082 117.19931262002967 l 15.85357352302452 22.6297321229354 a48.63042832468868,48.63042832468868 0 0,0 -0.6897256321118502,0.47439957902062335 l -15.461691006289787 -22.899272491321117" fill="red" stroke="none" /><line stroke="#e1ed5e" stroke-width="0.3" x1="143.8653032363475" x2="146.44561519142675" y1="172.8068346515853" y2="177.08958963109032" /><path d="M 144.38136562736335 173.6633856474863 a86.0,86.0 0 0,1 -40.68145358897372,12.25698825130547" fill="none" id="id6" stroke="none" /><text fill="#e1ed5e" style="font-size:6.75px; font-family:Arial;" text-anchor="middle"><textPath startOffset="21.466115282336833" xlink:href="#id6">June</textPath></text><path d="M 110.5260780823613 118.17145234162733 l 8.919863911366175 15.398601520047947 a38.79553036496849,38.79553036496849 0 0,0 -0.5807344194368528,0.3297561595935828 l -8.653480725008123 -15.549860845436159" fill="red" stroke="none" /><path d="M 110.21172684928248 118.3499491758327 l 8.655762591156167 15.553961241819714 a38.800222929685134,38.800222929685134 0 0,0 -0.5863955072520499,0.31974958532318654 l -8.386744272035468 -15.700651478902671" fill="red" stroke="none" /><path d="M 109.89434966115114 118.52300852407294 l 16.76180954442096 31.37943894273838 a56.57565807633764,56.57565807633764 0 0,0 -0.8629379989238709,0.45144837606842503 l -16.219180642970592 -31.663316737751522" fill="red" stroke="none" /><path d="M 109.2508944713604 118.85261126421891 l 7.836347055618412 15.969872451626292 a38.788905567721464,38.788905567721464 0 0,0 -0.6019434736502698,0.28896944739678226 l -7.5602909139679095 -16.102396175522635" fill="red" stroke="none" /><path d="M 108.59647513512805 119.15986991738527 l 11.3174376307432 25.224365730679306 a48.64693511116252,48.64693511116252 0 0,0 -0.7669521169796055,0.3362092694387741 l -10.88156483910584 -25.415439553412536" fill="red" stroke="none" /><path d="M 108.2653958097858 119.30500536409082 l 7.000193078328272 16.349944762088878 a38.7854827558105,38.7854827558105 0 0,0 -0.6160031169634221,0.2574893528500425 l -6.717718501867389 -16.468019157958892" fill="red" stroke="none" /><path d="M 107.59598834532513 119.57807347666477 l 16.083971999130075 41.455195990313115 a65.46602556856271,65.46602556856271 0 0,0 -1.0540958463428722,0.39856885369070416 l -15.368005932026927 -41.72591309411045" fill="red" stroke="none" /><path d="M 106.91757812671514 119.82793768551818 l 5.905080184390328 16.92580261174131 a38.92631490395358,38.92631490395358 0 0,0 -0.6345550369923825,0.2152755211432498 l -5.612855414460719 -17.024941119782685" fill="red" stroke="none" /><path d="M 106.2309692047433 120.05430185196036 l 8.218483085240177 26.45109214007531 a48.69844290975817,48.69844290975817 0 0,0 -0.8026547522314417,0.24183329257000125 l -7.76195335856849 -26.588640801751037" fill="red" stroke="none" /><path d="M 105.88484417918355 120.15858648285463 l 4.987518725290289 17.08479009763178 a38.79790425064868,38.79790425064868 0 0,0 -0.6426943634125003,0.1816318468008511 l -4.692693193773183 -17.16811073777115" fill="red" stroke="none" /><path d="M 105.53697534728816 120.25689768951611 l 11.71859611598795 42.872215911633326 a65.44493663065967,65.44493663065967 0 0,0 -1.0892205153338796,0.2876730378708879 l -10.978885157842573 -43.0675802988078" fill="red" stroke="none" /><path d="M 104.13013068566511 120.58985236759428 l 5.435860835925496 27.099281020564042 a48.63909576775353,48.63909576775353 0 0,0 -0.8223073426428978,0.15759715932548174 l -4.968585878710894 -27.188835378237993" fill="red" stroke="none" /><path d="M 103.7750983002368 120.6578951692458 l 3.2017411471656607 17.520400190124853 a38.81054657206175,38.81054657206175 0 0,0 -0.6582102894938905,0.1144382958151788 l -2.89968188619972 -17.572917064461038" fill="red" stroke="none" /><path d="M 101.26447882468166 120.96189622390904 l 1.067421852142686 17.695184494197274 a38.72735015996783,38.72735015996783 0 0,0 -0.6657635945941679,0.03441237321775576 l -0.7626701891350385 -17.710936674177233" fill="red" stroke="none" /><line stroke="#e1ed5e" stroke-width="0.3" x1="102.19456741930631" x2="102.32365962044197" y1="184.97166512339345" y2="189.96999836594603" /><path d="M 102.22038585953345 185.97133177190398 a86.0,86.0 0 0,1 -42.740103519485714,-10.115201625700543" fill="none" id="id7" stroke="none" /><text fill="#e1ed5e" style="font-size:6.75px; font-family:Arial;" text-anchor="middle"><textPath startOffset="22.20632615414155" xlink:href="#id7">July</textPath></text><path d="M 100.54218724476979 120.99299961872073 l 0.68893837150324 26.675070484976725 a47.68396562466317,47.68396562466317 0 0,0 -0.82070987250122,0.014129264739011254 l -0.22966880910935208 -26.682977226994897" fill="red" stroke="none" /><path d="M 99.09653310690486 120.98055641714683 l -1.1476166431555086 26.65026899269609 a47.67496694173596,47.67496694173596 0 0,0 -0.8195824716171028,-0.04236305217802046 l 1.6061871831861003 -26.62656613375587" fill="red" stroke="none" /><path d="M 98.73552117531835 120.96189622390904 l -1.0714706947970674 17.76230417852232 a38.794591852025164,38.794591852025164 0 0,0 -0.6662273572486938,-0.04594693919880479 l 1.377060812824691 -17.74122889480723" fill="red" stroke="none" /><path d="M 98.01472825383883 120.90594882070398 l -2.522657134842847 26.56489775527519 a47.68440727781298,47.68440727781298 0 0,0 -0.8164646908230744,-0.0846299035265147 l 2.9795544222715145 -26.517538483292913" fill="red" stroke="none" /><path d="M 95.86986931433489 120.58985236759428 l -5.439172419223451 27.115790186108047 a48.655933794089734,48.655933794089734 0 0,0 -0.8197564204035905,-0.17178792823795835 l 5.905120301056428 -27.018146277143547" fill="red" stroke="none" /><path d="M 94.81253420990036 120.34920634021253 l -13.644820555135286 53.525416877262515 a76.23722820586295,76.23722820586295 0 0,0 -1.2688399938814572,-0.3351121746913398 l 14.564150991828232 -53.28261335326759" fill="red" stroke="none" /><path d="M 94.11515582081647 120.15858648285463 l -9.96725574127211 34.142923880278445 a56.56803955950356,56.56803955950356 0 0,0 -0.9323625780189693,-0.2809131964702639 l 10.553493293731325 -33.96629531470246" fill="red" stroke="none" /><path d="M 93.76903079525671 120.05430185196036 l -5.280227507132409 16.994350765599734 a38.79575119154339,38.79575119154339 0 0,0 -0.636026144591005,-0.2036354864543869 l 5.571974996814355 -16.90094243248564" fill="red" stroke="none" /><path d="M 93.08242187328487 119.8279376855182 l -9.120028478661341 26.140847714707014 a48.686076621563714,48.686076621563714 0 0,0 -0.7889009306666902,-0.28287180598638156 l 9.568648969957758 -25.979988367680676" fill="red" stroke="none" /><path d="M 92.06813273071674 119.44442032107085 l -8.502481950107194 20.84324247966666 a43.51072980554117,43.51072980554117 0 0,0 -0.6910509622972577,-0.2888593582861473 l 8.860004371901914 -20.69379807836054" fill="red" stroke="none" /><path d="M 91.07499286063937 119.00905698771935 l -23.480908740415583 50.01115689885853 a76.24915284090761,76.24915284090761 0 0,0 -1.183268237455483,-0.5680406610710114 l 24.338289645871306 -49.599561961287954" fill="red" stroke="none" /><path d="M 90.42595943632237 118.69057910512821 l -8.114309523685382 15.840871262997863 a38.7981802838673,38.7981802838673 0 0,0 -0.591781433825707,-0.30959207685977513 l 8.385781860037584 -15.698849767193371" fill="red" stroke="none" /><line stroke="#e1ed5e" stroke-width="0.3" x1="58.666819895761336" x2="56.23545636021788" y1="174.27360380694188" y2="178.64263932499728" /><path d="M 58.180547188652646 175.14741091055294 a86.0,86.0 0 0,1 -31.652253787137756,-30.449443065178592" fill="none" id="id8" stroke="none" /><text fill="#e1ed5e" style="font-size:6.75px; font-family:Arial;" text-anchor="middle"><textPath startOffset="22.20632615414155" xlink:href="#id8">August</textPath></text><path d="M 89.7882731507175 118.34994917583269 l -13.474097458401594 24.212261765428853 a48.708932172065964,48.708932172065964 0 0,0 -0.7291291852495341,-0.41401858048751045 l 13.888875410572336 -23.976740019146707" fill="red" stroke="none" /><path d="M 89.1626897886671 117.98757091392108 l -18.381965756668198 30.51005333773417 a56.61965777138666,56.61965777138666 0 0,0 -0.830477727919114,-0.5101472502179336 l 18.90442268451962 -30.18911762068786" fill="red" stroke="none" /><path d="M 88.8546689885994 117.79835938074946 l -14.67469999325938 23.43452913310017 a48.65002668321113,48.65002668321113 0 0,0 -0.7059308791084373,-0.45055848701054685 l 15.075912674414742 -23.17845621726582" fill="red" stroke="none" /><path d="M 88.54995079064634 117.60387380957326 l -12.341667809340176 18.974692487593316 a43.635275993785314,43.635275993785314 0 0,0 -0.6261148897329654,-0.41495480791359113 l 12.666457397813103 -18.759439658588406" fill="red" stroke="none" /><path d="M 87.95078237400918 117.19931262002967 l -15.894847404673735 22.688647350094698 a48.70236258146266,48.70236258146266 0 0,0 -0.6824654465199713,-0.48692097551054603 l 16.283040179042594 -22.411682112739932" fill="red" stroke="none" /><path d="M 87.65650970185807 116.9893568818739 l -32.56744324342762 44.825240076224866 a76.40704384196178,76.40704384196178 0 0,0 -1.057382633636275,-0.782226393915536 l 33.33421084748246 -44.258003733569566" fill="red" stroke="none" /><path d="M 87.07902340077011 116.55440617244103 l -21.894759234552 28.05165187267509 a56.584767172552304,56.584767172552304 0 0,0 -0.7626616368820824,-0.6059045295725146 l 22.374378364151443 -27.670613429097443" fill="red" stroke="none" /><path d="M 86.51685102203217 116.09983520530335 l -28.53785332750572 34.07621887414673 a65.44769696284592,65.44769696284592 0 0,0 -0.8574724244286588,-0.7307566025650849 l 29.120191228511434 -33.579937881358696" fill="red" stroke="none" /><path d="M 86.24171649860922 115.8653595955263 l -18.10568682277144 20.87856614803826 a48.63567295584257,48.63567295584257 0 0,0 -0.6277652893435901,-0.5539298788270898 l 18.462394465021617 -20.563813127438884" fill="red" stroke="none" /><path d="M 85.44109423537348 115.13401014063109 l -38.34093836348896 39.85547810908842 a76.30358659162067,76.30358659162067 0 0,0 -0.9387159633258528,-0.9187311436347657 l 39.0213042791906 -39.18959686253109" fill="red" stroke="none" /><path d="M 84.9287848128048 114.62390073753433 l -11.913894478519607 11.560289471505675 a37.60063776817942,37.60063776817942 0 0,0 -0.44671965653017626,-0.4683837739102381 l 12.111120686428741 -11.353498581012936" fill="red" stroke="none" /><path d="M 84.67929136418377 114.36230785411682 l -20.29061797104029 19.02132001708354 a48.812223802475884,48.812223802475884 0 0,0 -0.5693680740063259,-0.6179365927735322 l 20.615032453042346 -18.66923216950866" fill="red" stroke="none" /><path d="M 84.19399662182784 113.82643327865904 l -15.819050771921061 13.837846595157409 a42.01733488612973,42.01733488612973 0 0,0 -0.47150950922807144,-0.5484720821184434 l 16.05490279071991 -13.563497413877435" fill="red" stroke="none" /><path d="M 83.72743513129214 113.27417163493432 l -31.02023851472009 25.30442948135513 a61.03210397777012,61.03210397777012 0 0,0 -0.6570602618561474,-0.8197837042993589 l 31.4512166886311 -24.76671794347751" fill="red" stroke="none" /><path d="M 83.06392112726016 112.41649034213515 l -26.600519475885946 19.50186319099751 a53.98348532686276,53.98348532686276 0 0,0 -0.5429715704299191,-0.7541400216915769 l 26.932270838691473 -19.041089563854797" fill="red" stroke="none" /><path d="M 82.85270091963577 112.12312394758628 l -27.09297506836557 19.15470729957572 a54.18029701174324,54.18029701174324 0 0,0 -0.5318417750327096,-0.7661577435685737 l 27.418677750560413 -18.68550829382013" fill="red" stroke="none" /><path d="M 82.44556493220864 111.52570212397912 l -26.42258849704965 17.348258897845994 a52.608784691460585,52.608784691460585 0 0,0 -0.49050210410629114,-0.7612701581960974 l 26.717295464532985 -16.890867139728446" fill="red" stroke="none" /><line stroke="#e1ed5e" stroke-width="0.3" x1="26.63291911575756" x2="22.317208475507996" y1="142.92168965132927" y2="145.44649492493687" /><path d="M 25.769776987707644 143.4266507060508 a86.0,86.0 0 0,1 -11.730757126820373,-40.83630448921669" fill="none" id="id9" stroke="none" /><text fill="#e1ed5e" style="font-size:6.75px; font-family:Arial;" text-anchor="middle"><textPath startOffset="21.46611528233685" xlink:href="#id9">September</textPath></text><path d="M 81.69416730710424 110.29060199501025 l -29.850631163744314 16.780496673344725 a55.2439082097537,55.2439082097537 0 0,0 -0.4588495631369563,-0.8329452389586948 l 30.135057136332787 -16.264180915988206" fill="red" stroke="none" /><path d="M 81.35079622478065 109.6543875284942 l -28.257155268676936 14.628266745582811 a52.81906679741002,52.81906679741002 0 0,0 -0.4110362931752751,-0.8110136014580672 l 28.504770231638478 -14.139698932422059" fill="red" stroke="none" /><path d="M 80.73074385275274 108.34839909993369 l -29.085564519649513 12.601311581588652 a52.697998627720565,52.697998627720565 0 0,0 -0.35345054284969596,-0.8354526756941896 l 29.298166043691513 -12.098784380228302" fill="red" stroke="none" /><path d="M 80.58989483394504 108.01547362559985 l -51.10883588837034 21.10557993342423 a76.29519518177445,76.29519518177445 0 0,0 -0.4908229244657176,-1.2181822464288343 l 51.46456142709345 -20.22269831915259" fill="red" stroke="none" /><path d="M 80.32549172779594 107.34259656027581 l -31.26594243271777 11.668561073243884 a54.37236092526335,54.37236092526335 0 0,0 -0.3196984498160739,-0.879672828873178 l 31.46216514353907 -11.128640447364589" fill="red" stroke="none" /><path d="M 80.0844068197444 106.66101706037122 l -36.73465138433409 12.286359605920529 a59.734858263514454,59.734858263514454 0 0,0 -0.31775459773717135,-0.9779480943174415 l 36.94069823308751 -11.652212611625284" fill="red" stroke="none" /><path d="M 79.86692584326677 105.97154293290107 l -34.16698421165144 10.134051636589982 a56.63820720367834,56.63820720367834 0 0,0 -0.26918619583321907,-0.9370724616066562 l 34.33636304437076 -9.544421699478729" fill="red" stroke="none" /><path d="M 79.76711848015287 105.62410040840567 l -28.515943615648293 7.926529396098222 a50.59710980075659,50.59710980075659 0 0,0 -0.22602915247406716,-0.8411385612646156 l 28.648160844464133 -7.434499901658068" fill="red" stroke="none" /><path d="M 79.58551787078972 104.9243191809786 l -54.08496884677966 13.046211400765522 a76.63620662006524,76.63620662006524 0 0,0 -0.29829524563586546,-1.2850481110874121 l 54.30152465834608 -12.113294632329536" fill="red" stroke="none" /><path d="M 79.35854240842038 103.8639653848113 l -48.86865315428799 9.14793848025283 a70.71750234628236,70.71750234628236 0 0,0 -0.21367986251230406,-1.1984301466677076 l 49.018879459139484 -8.305389582851907" fill="red" stroke="none" /><path d="M 79.29508885075956 103.50808413554451 l -34.66414788719002 5.873232026870163 a56.158185436487386,56.158185436487386 0 0,0 -0.1532804127367985,-0.9544772764296394 l 34.760110054288106 -5.27567552074731" fill="red" stroke="none" /><path d="M 79.23777060512086 103.15116336523772 l -36.60060064469773 5.5550138524966926 a58.01975346290245,58.01975346290245 0 0,0 -0.14136360693868427,-0.9886967376800226 l 36.69079830265301 -4.924171642836269" fill="red" stroke="none" /><path d="M 79.1416061653843 102.43462659150553 l -39.89529933387401 4.656646020036765 a61.16614570873501,61.16614570873501 0 0,0 -0.11306328583163833,-1.0468256068500341 l 39.9695449212067 -3.969224091301949" fill="red" stroke="none" /><path d="M 79.10278846688536 102.07522291339032 l -62.69163459934394 6.225668740170943 a84.0,84.0 0 0,0 -0.13050161489169865,-1.4400744458057353 l 62.78951081051271 -5.145612905816642" fill="red" stroke="none" /><path d="M 79.0235259727143 100.99374915477108 l -36.34825150909504 1.7219788305500905 a57.38901755834159,57.38901755834159 0 0,0 -0.03825351636103651,-0.9871532815993441 l 36.37250715830728 -1.0960483019367497" fill="red" stroke="none" /><path d="M 79.0095281055655 100.63252640178507 l -55.6438516295008 1.6767705571213392 a76.66910977972549,76.66910977972549 0 0,0 -0.028396549041094604,-1.3194760518427344 l 55.6644702412269 -0.7187046894884758" fill="red" stroke="none" /><line stroke="#e1ed5e" stroke-width="0.3" x1="15.007084014347285" x2="10.007500721073583" y1="101.09737516637583" y2="101.16192664675087" /><path d="M 14.007167355692545 101.11028546245083 a86.0,86.0 0 0,1 10.666146001902534,-42.60595125391555" fill="none" id="id10" stroke="none" /><text fill="#e1ed5e" style="font-size:6.75px; font-family:Arial;" text-anchor="middle"><textPath startOffset="22.20632615414155" xlink:href="#id10">October</textPath></text><path d="M 79.00019446554 99.90962569577889 l -34.442167560722055 -0.14822455970173995 a55.44248650723338,55.44248650723338 0 0,0 0.012321413805019513,-0.9543070778731606 l 34.43451313979932 0.7410678956353725" fill="red" stroke="none" /><path d="M 79.03285615573316 98.82574320788736 l -27.670870908771175 -1.5496964369413329 a48.714232009863586,48.714232009863586 0 0,0 0.05409462381637697,-0.8368198875920989 l 27.640095693950382 2.0257753887864434" fill="red" stroke="none" /><path d="M 79.16333360222342 97.38593545837743 l -33.07242685160292 -4.1491021974324225 a54.33167362883785,54.33167362883785 0 0,0 0.12440401171230962,-0.9269543860067546 l 32.99610684083278 4.717774925503836" fill="red" stroke="none" /><path d="M 79.32604984820605 96.31383870115002 l -54.398898949448906 -9.699313122804913 a76.2568265643854,76.2568265643854 0 0,0 0.24153179123149188,-1.290272486736218 l 54.22388143430755 10.634263687003703" fill="red" stroke="none" /><line stroke="#e1ed5e" stroke-width="0.3" x1="26.266209847984243" x2="21.928928074336255" y1="57.711370442889674" y2="55.22380399835377" /><path d="M 25.398753493254645 57.213857153982495 a86.0,86.0 0 0,1 29.58750427330803,-30.492523968695096" fill="none" id="id11" stroke="none" /><text fill="#e1ed5e" style="font-size:6.75px; font-family:Arial;" text-anchor="middle"><textPath startOffset="21.46611528233685" xlink:href="#id11">November</textPath></text><line stroke="#e1ed5e" stroke-width="0.3" x1="56.762969772571076" x2="54.21961505331055" y1="26.818313649435495" y2="22.513508569990535" /><path d="M 56.25429882871897 25.957352633546506 a86.0,86.0 0 0,1 42.265352541879196,-11.944610805530505" fill="none" id="id12" stroke="none" /><text fill="#e1ed5e" style="font-size:6.75px; font-family:Arial;" text-anchor="middle"><textPath startOffset="22.20632615414155" xlink:href="#id12">December</textPath></text></svg>